<?xml version="1.0" encoding="utf-8" standalone="no"?>
<!DOCTYPE svg PUBLIC "-//W3C//DTD SVG 1.1//EN"
  "http://www.w3.org/Graphics/SVG/1.1/DTD/svg11.dtd">
<svg xmlns:xlink="http://www.w3.org/1999/xlink" width="864pt" height="360pt" viewBox="0 0 864 360" xmlns="http://www.w3.org/2000/svg" version="1.1">
 <metadata>
  <rdf:RDF xmlns:dc="http://purl.org/dc/elements/1.1/" xmlns:cc="http://creativecommons.org/ns#" xmlns:rdf="http://www.w3.org/1999/02/22-rdf-syntax-ns#">
   <cc:Work>
    <dc:type rdf:resource="http://purl.org/dc/dcmitype/StillImage"/>
    <dc:date>2024-06-01T10:56:27.159487</dc:date>
    <dc:format>image/svg+xml</dc:format>
    <dc:creator>
     <cc:Agent>
      <dc:title>Matplotlib v3.8.0, https://matplotlib.org/</dc:title>
     </cc:Agent>
    </dc:creator>
   </cc:Work>
  </rdf:RDF>
 </metadata>
 <defs>
  <style type="text/css">*{stroke-linejoin: round; stroke-linecap: butt}</style>
 </defs>
 <g id="figure_1">
  <g id="patch_1">
   <path d="M 0 360 
L 864 360 
L 864 0 
L 0 0 
z
" style="fill: #ffffff"/>
  </g>
  <g id="axes_1">
   <g id="patch_2">
    <path d="M 108 320.4 
L 777.6 320.4 
L 777.6 43.2 
L 108 43.2 
z
" style="fill: #ffffff"/>
   </g>
   <g id="PolyCollection_1">
    <defs>
     <path id="m17adf5eb63" d="M 208.187184 -39.737573 
L 208.187184 -39.6 
L 210.545101 -39.6 
L 212.903019 -39.6 
L 215.260937 -39.6 
L 217.618855 -39.6 
L 219.976772 -39.6 
L 222.33469 -39.6 
L 224.692608 -39.6 
L 227.050526 -39.6 
L 229.408443 -39.6 
L 231.766361 -39.6 
L 234.124279 -39.6 
L 236.482197 -39.6 
L 238.840114 -39.6 
L 241.198032 -39.6 
L 243.55595 -39.6 
L 245.913868 -39.6 
L 248.271785 -39.6 
L 250.629703 -39.6 
L 252.987621 -39.6 
L 255.345539 -39.6 
L 257.703456 -39.6 
L 260.061374 -39.6 
L 262.419292 -39.6 
L 264.77721 -39.6 
L 267.135127 -39.6 
L 269.493045 -39.6 
L 271.850963 -39.6 
L 274.208881 -39.6 
L 276.566798 -39.6 
L 278.924716 -39.6 
L 281.282634 -39.6 
L 283.640552 -39.6 
L 285.998469 -39.6 
L 288.356387 -39.6 
L 290.714305 -39.6 
L 293.072223 -39.6 
L 295.430141 -39.6 
L 297.788058 -39.6 
L 300.145976 -39.6 
L 302.503894 -39.6 
L 304.861812 -39.6 
L 307.219729 -39.6 
L 309.577647 -39.6 
L 311.935565 -39.6 
L 314.293483 -39.6 
L 316.6514 -39.6 
L 319.009318 -39.6 
L 321.367236 -39.6 
L 323.725154 -39.6 
L 326.083071 -39.6 
L 328.440989 -39.6 
L 330.798907 -39.6 
L 333.156825 -39.6 
L 335.514742 -39.6 
L 337.87266 -39.6 
L 340.230578 -39.6 
L 342.588496 -39.6 
L 344.946413 -39.6 
L 347.304331 -39.6 
L 349.662249 -39.6 
L 352.020167 -39.6 
L 354.378084 -39.6 
L 356.736002 -39.6 
L 359.09392 -39.6 
L 361.451838 -39.6 
L 363.809755 -39.6 
L 366.167673 -39.6 
L 368.525591 -39.6 
L 370.883509 -39.6 
L 373.241426 -39.6 
L 375.599344 -39.6 
L 377.957262 -39.6 
L 380.31518 -39.6 
L 382.673097 -39.6 
L 385.031015 -39.6 
L 387.388933 -39.6 
L 389.746851 -39.6 
L 392.104768 -39.6 
L 394.462686 -39.6 
L 396.820604 -39.6 
L 399.178522 -39.6 
L 401.536439 -39.6 
L 403.894357 -39.6 
L 406.252275 -39.6 
L 408.610193 -39.6 
L 410.96811 -39.6 
L 413.326028 -39.6 
L 415.683946 -39.6 
L 418.041864 -39.6 
L 420.399781 -39.6 
L 422.757699 -39.6 
L 425.115617 -39.6 
L 427.473535 -39.6 
L 429.831452 -39.6 
L 432.18937 -39.6 
L 434.547288 -39.6 
L 436.905206 -39.6 
L 439.263123 -39.6 
L 441.621041 -39.6 
L 443.978959 -39.6 
L 446.336877 -39.6 
L 448.694794 -39.6 
L 451.052712 -39.6 
L 453.41063 -39.6 
L 455.768548 -39.6 
L 458.126465 -39.6 
L 460.484383 -39.6 
L 462.842301 -39.6 
L 465.200219 -39.6 
L 467.558136 -39.6 
L 469.916054 -39.6 
L 472.273972 -39.6 
L 474.63189 -39.6 
L 476.989807 -39.6 
L 479.347725 -39.6 
L 481.705643 -39.6 
L 484.063561 -39.6 
L 486.421478 -39.6 
L 488.779396 -39.6 
L 491.137314 -39.6 
L 493.495232 -39.6 
L 495.853149 -39.6 
L 498.211067 -39.6 
L 500.568985 -39.6 
L 502.926903 -39.6 
L 505.28482 -39.6 
L 507.642738 -39.6 
L 510.000656 -39.6 
L 512.358574 -39.6 
L 514.716491 -39.6 
L 517.074409 -39.6 
L 519.432327 -39.6 
L 521.790245 -39.6 
L 524.148162 -39.6 
L 526.50608 -39.6 
L 528.863998 -39.6 
L 531.221916 -39.6 
L 533.579833 -39.6 
L 535.937751 -39.6 
L 538.295669 -39.6 
L 540.653587 -39.6 
L 543.011504 -39.6 
L 545.369422 -39.6 
L 547.72734 -39.6 
L 550.085258 -39.6 
L 552.443175 -39.6 
L 554.801093 -39.6 
L 557.159011 -39.6 
L 559.516929 -39.6 
L 561.874846 -39.6 
L 564.232764 -39.6 
L 566.590682 -39.6 
L 568.9486 -39.6 
L 571.306517 -39.6 
L 573.664435 -39.6 
L 576.022353 -39.6 
L 578.380271 -39.6 
L 580.738188 -39.6 
L 583.096106 -39.6 
L 585.454024 -39.6 
L 587.811942 -39.6 
L 590.169859 -39.6 
L 592.527777 -39.6 
L 594.885695 -39.6 
L 597.243613 -39.6 
L 599.601531 -39.6 
L 601.959448 -39.6 
L 604.317366 -39.6 
L 606.675284 -39.6 
L 609.033202 -39.6 
L 611.391119 -39.6 
L 613.749037 -39.6 
L 616.106955 -39.6 
L 618.464873 -39.6 
L 620.82279 -39.6 
L 623.180708 -39.6 
L 625.538626 -39.6 
L 627.896544 -39.6 
L 630.254461 -39.6 
L 632.612379 -39.6 
L 634.970297 -39.6 
L 637.328215 -39.6 
L 639.686132 -39.6 
L 642.04405 -39.6 
L 644.401968 -39.6 
L 646.759886 -39.6 
L 649.117803 -39.6 
L 651.475721 -39.6 
L 653.833639 -39.6 
L 656.191557 -39.6 
L 658.549474 -39.6 
L 660.907392 -39.6 
L 663.26531 -39.6 
L 665.623228 -39.6 
L 667.981145 -39.6 
L 670.339063 -39.6 
L 672.696981 -39.6 
L 675.054899 -39.6 
L 677.412816 -39.6 
L 677.412816 -39.672414 
L 677.412816 -39.672414 
L 675.054899 -39.740077 
L 672.696981 -39.860812 
L 670.339063 -40.067591 
L 667.981145 -40.407555 
L 665.623228 -40.94417 
L 663.26531 -41.757477 
L 660.907392 -42.941255 
L 658.549474 -44.596183 
L 656.191557 -46.818724 
L 653.833639 -49.686565 
L 651.475721 -53.242588 
L 649.117803 -57.480385 
L 646.759886 -62.334679 
L 644.401968 -67.679504 
L 642.04405 -73.335561 
L 639.686132 -79.086224 
L 637.328215 -84.699697 
L 634.970297 -89.953492 
L 632.612379 -94.657064 
L 630.254461 -98.669186 
L 627.896544 -101.908038 
L 625.538626 -104.353634 
L 623.180708 -106.04346 
L 620.82279 -107.062961 
L 618.464873 -107.532641 
L 616.106955 -107.593469 
L 613.749037 -107.392046 
L 611.391119 -107.066879 
L 609.033202 -106.736954 
L 606.675284 -106.493543 
L 604.317366 -106.395796 
L 601.959448 -106.470104 
L 599.601531 -106.712801 
L 597.243613 -107.095567 
L 594.885695 -107.572899 
L 592.527777 -108.091135 
L 590.169859 -108.598456 
L 587.811942 -109.054913 
L 585.454024 -109.441014 
L 583.096106 -109.763023 
L 580.738188 -110.05331 
L 578.380271 -110.365013 
L 576.022353 -110.761714 
L 573.664435 -111.304331 
L 571.306517 -112.038247 
L 568.9486 -112.983513 
L 566.590682 -114.129855 
L 564.232764 -115.436559 
L 561.874846 -116.836044 
L 559.516929 -118.239406 
L 557.159011 -119.542657 
L 554.801093 -120.633377 
L 552.443175 -121.398313 
L 550.085258 -121.732651 
L 547.72734 -121.550968 
L 545.369422 -120.798767 
L 543.011504 -119.462451 
L 540.653587 -117.575365 
L 538.295669 -115.218217 
L 535.937751 -112.513478 
L 533.579833 -109.614709 
L 531.221916 -106.69259 
L 528.863998 -103.91957 
L 526.50608 -101.454642 
L 524.148162 -99.429398 
L 521.790245 -97.936327 
L 519.432327 -97.020516 
L 517.074409 -96.676053 
L 514.716491 -96.848202 
L 512.358574 -97.441626 
L 510.000656 -98.333804 
L 507.642738 -99.39168 
L 505.28482 -100.489031 
L 502.926903 -101.522075 
L 500.568985 -102.421414 
L 498.211067 -103.159078 
L 495.853149 -103.750083 
L 493.495232 -104.248346 
L 491.137314 -104.737291 
L 488.779396 -105.316113 
L 486.421478 -106.083535 
L 484.063561 -107.121689 
L 481.705643 -108.483186 
L 479.347725 -110.184165 
L 476.989807 -112.205062 
L 474.63189 -114.499104 
L 472.273972 -117.006589 
L 469.916054 -119.671353 
L 467.558136 -122.454808 
L 465.200219 -125.343154 
L 462.842301 -128.344701 
L 460.484383 -131.476736 
L 458.126465 -134.744453 
L 455.768548 -138.11731 
L 453.41063 -141.509926 
L 451.052712 -144.774422 
L 448.694794 -147.708678 
L 446.336877 -150.080809 
L 443.978959 -151.665474 
L 441.621041 -152.283872 
L 439.263123 -151.837901 
L 436.905206 -150.330415 
L 434.547288 -147.867308 
L 432.18937 -144.641974 
L 429.831452 -140.906858 
L 427.473535 -136.939096 
L 425.115617 -133.007237 
L 422.757699 -129.344197 
L 420.399781 -126.128933 
L 418.041864 -123.47696 
L 415.683946 -121.438367 
L 413.326028 -120.001594 
L 410.96811 -119.101646 
L 408.610193 -118.631933 
L 406.252275 -118.459239 
L 403.894357 -118.441024 
L 401.536439 -118.443544 
L 399.178522 -118.358422 
L 396.820604 -118.114869 
L 394.462686 -117.685136 
L 392.104768 -117.082123 
L 389.746851 -116.349988 
L 387.388933 -115.550548 
L 385.031015 -114.749308 
L 382.673097 -114.004819 
L 380.31518 -113.363566 
L 377.957262 -112.860502 
L 375.599344 -112.523355 
L 373.241426 -112.377803 
L 370.883509 -112.450684 
L 368.525591 -112.769553 
L 366.167673 -113.358376 
L 363.809755 -114.230547 
L 361.451838 -115.381205 
L 359.09392 -116.781049 
L 356.736002 -118.373507 
L 354.378084 -120.076424 
L 352.020167 -121.788597 
L 349.662249 -123.400454 
L 347.304331 -124.807187 
L 344.946413 -125.921907 
L 342.588496 -126.686067 
L 340.230578 -127.074847 
L 337.87266 -127.096374 
L 335.514742 -126.785266 
L 333.156825 -126.192635 
L 330.798907 -125.375649 
L 328.440989 -124.389674 
L 326.083071 -123.284951 
L 323.725154 -122.107866 
L 321.367236 -120.905154 
L 319.009318 -119.728193 
L 316.6514 -118.634645 
L 314.293483 -117.685748 
L 311.935565 -116.939341 
L 309.577647 -116.440323 
L 307.219729 -116.211313 
L 304.861812 -116.246258 
L 302.503894 -116.508986 
L 300.145976 -116.937319 
L 297.788058 -117.452083 
L 295.430141 -117.969249 
L 293.072223 -118.412906 
L 290.714305 -118.726676 
L 288.356387 -118.881428 
L 285.998469 -118.877811 
L 283.640552 -118.743048 
L 281.282634 -118.522565 
L 278.924716 -118.268103 
L 276.566798 -118.024735 
L 274.208881 -117.819227 
L 271.850963 -117.651537 
L 269.493045 -117.490104 
L 267.135127 -117.270548 
L 264.77721 -116.897045 
L 262.419292 -116.246067 
L 260.061374 -115.173186 
L 257.703456 -113.524385 
L 255.345539 -111.153094 
L 252.987621 -107.942605 
L 250.629703 -103.830984 
L 248.271785 -98.833209 
L 245.913868 -93.054142 
L 243.55595 -86.68707 
L 241.198032 -79.995759 
L 238.840114 -73.282427 
L 236.482197 -66.848006 
L 234.124279 -60.953296 
L 231.766361 -55.789175 
L 229.408443 -51.461219 
L 227.050526 -47.9901 
L 224.692608 -45.325177 
L 222.33469 -43.366156 
L 219.976772 -41.986947 
L 217.618855 -41.056824 
L 215.260937 -40.455868 
L 212.903019 -40.083819 
L 210.545101 -39.863086 
L 208.187184 -39.737573 
z
" style="stroke: #ff00ff"/>
    </defs>
    <g clip-path="url(#pa5fc499862)">
     <use xlink:href="#m17adf5eb63" x="0" y="360" style="fill: #ff00ff; fill-opacity: 0.25; stroke: #ff00ff"/>
    </g>
   </g>
   <g id="PolyCollection_2">
    <defs>
     <path id="m90579bc8c3" d="M 146.991839 -39.742548 
L 146.991839 -39.6 
L 149.960364 -39.6 
L 152.92889 -39.6 
L 155.897415 -39.6 
L 158.86594 -39.6 
L 161.834465 -39.6 
L 164.802991 -39.6 
L 167.771516 -39.6 
L 170.740041 -39.6 
L 173.708566 -39.6 
L 176.677092 -39.6 
L 179.645617 -39.6 
L 182.614142 -39.6 
L 185.582667 -39.6 
L 188.551193 -39.6 
L 191.519718 -39.6 
L 194.488243 -39.6 
L 197.456768 -39.6 
L 200.425294 -39.6 
L 203.393819 -39.6 
L 206.362344 -39.6 
L 209.330869 -39.6 
L 212.299395 -39.6 
L 215.26792 -39.6 
L 218.236445 -39.6 
L 221.20497 -39.6 
L 224.173495 -39.6 
L 227.142021 -39.6 
L 230.110546 -39.6 
L 233.079071 -39.6 
L 236.047596 -39.6 
L 239.016122 -39.6 
L 241.984647 -39.6 
L 244.953172 -39.6 
L 247.921697 -39.6 
L 250.890223 -39.6 
L 253.858748 -39.6 
L 256.827273 -39.6 
L 259.795798 -39.6 
L 262.764324 -39.6 
L 265.732849 -39.6 
L 268.701374 -39.6 
L 271.669899 -39.6 
L 274.638425 -39.6 
L 277.60695 -39.6 
L 280.575475 -39.6 
L 283.544 -39.6 
L 286.512526 -39.6 
L 289.481051 -39.6 
L 292.449576 -39.6 
L 295.418101 -39.6 
L 298.386627 -39.6 
L 301.355152 -39.6 
L 304.323677 -39.6 
L 307.292202 -39.6 
L 310.260728 -39.6 
L 313.229253 -39.6 
L 316.197778 -39.6 
L 319.166303 -39.6 
L 322.134829 -39.6 
L 325.103354 -39.6 
L 328.071879 -39.6 
L 331.040404 -39.6 
L 334.00893 -39.6 
L 336.977455 -39.6 
L 339.94598 -39.6 
L 342.914505 -39.6 
L 345.883031 -39.6 
L 348.851556 -39.6 
L 351.820081 -39.6 
L 354.788606 -39.6 
L 357.757132 -39.6 
L 360.725657 -39.6 
L 363.694182 -39.6 
L 366.662707 -39.6 
L 369.631233 -39.6 
L 372.599758 -39.6 
L 375.568283 -39.6 
L 378.536808 -39.6 
L 381.505333 -39.6 
L 384.473859 -39.6 
L 387.442384 -39.6 
L 390.410909 -39.6 
L 393.379434 -39.6 
L 396.34796 -39.6 
L 399.316485 -39.6 
L 402.28501 -39.6 
L 405.253535 -39.6 
L 408.222061 -39.6 
L 411.190586 -39.6 
L 414.159111 -39.6 
L 417.127636 -39.6 
L 420.096162 -39.6 
L 423.064687 -39.6 
L 426.033212 -39.6 
L 429.001737 -39.6 
L 431.970263 -39.6 
L 434.938788 -39.6 
L 437.907313 -39.6 
L 440.875838 -39.6 
L 443.844364 -39.6 
L 446.812889 -39.6 
L 449.781414 -39.6 
L 452.749939 -39.6 
L 455.718465 -39.6 
L 458.68699 -39.6 
L 461.655515 -39.6 
L 464.62404 -39.6 
L 467.592566 -39.6 
L 470.561091 -39.6 
L 473.529616 -39.6 
L 476.498141 -39.6 
L 479.466667 -39.6 
L 482.435192 -39.6 
L 485.403717 -39.6 
L 488.372242 -39.6 
L 491.340768 -39.6 
L 494.309293 -39.6 
L 497.277818 -39.6 
L 500.246343 -39.6 
L 503.214869 -39.6 
L 506.183394 -39.6 
L 509.151919 -39.6 
L 512.120444 -39.6 
L 515.08897 -39.6 
L 518.057495 -39.6 
L 521.02602 -39.6 
L 523.994545 -39.6 
L 526.96307 -39.6 
L 529.931596 -39.6 
L 532.900121 -39.6 
L 535.868646 -39.6 
L 538.837171 -39.6 
L 541.805697 -39.6 
L 544.774222 -39.6 
L 547.742747 -39.6 
L 550.711272 -39.6 
L 553.679798 -39.6 
L 556.648323 -39.6 
L 559.616848 -39.6 
L 562.585373 -39.6 
L 565.553899 -39.6 
L 568.522424 -39.6 
L 571.490949 -39.6 
L 574.459474 -39.6 
L 577.428 -39.6 
L 580.396525 -39.6 
L 583.36505 -39.6 
L 586.333575 -39.6 
L 589.302101 -39.6 
L 592.270626 -39.6 
L 595.239151 -39.6 
L 598.207676 -39.6 
L 601.176202 -39.6 
L 604.144727 -39.6 
L 607.113252 -39.6 
L 610.081777 -39.6 
L 613.050303 -39.6 
L 616.018828 -39.6 
L 618.987353 -39.6 
L 621.955878 -39.6 
L 624.924404 -39.6 
L 627.892929 -39.6 
L 630.861454 -39.6 
L 633.829979 -39.6 
L 636.798505 -39.6 
L 639.76703 -39.6 
L 642.735555 -39.6 
L 645.70408 -39.6 
L 648.672606 -39.6 
L 651.641131 -39.6 
L 654.609656 -39.6 
L 657.578181 -39.6 
L 660.546707 -39.6 
L 663.515232 -39.6 
L 666.483757 -39.6 
L 669.452282 -39.6 
L 672.420808 -39.6 
L 675.389333 -39.6 
L 678.357858 -39.6 
L 681.326383 -39.6 
L 684.294908 -39.6 
L 687.263434 -39.6 
L 690.231959 -39.6 
L 693.200484 -39.6 
L 696.169009 -39.6 
L 699.137535 -39.6 
L 702.10606 -39.6 
L 705.074585 -39.6 
L 708.04311 -39.6 
L 711.011636 -39.6 
L 713.980161 -39.6 
L 716.948686 -39.6 
L 719.917211 -39.6 
L 722.885737 -39.6 
L 725.854262 -39.6 
L 728.822787 -39.6 
L 731.791312 -39.6 
L 734.759838 -39.6 
L 737.728363 -39.6 
L 737.728363 -39.687082 
L 737.728363 -39.687082 
L 734.759838 -39.717688 
L 731.791312 -39.757796 
L 728.822787 -39.809908 
L 725.854262 -39.877044 
L 722.885737 -39.962798 
L 719.917211 -40.071406 
L 716.948686 -40.207791 
L 713.980161 -40.377604 
L 711.011636 -40.587246 
L 708.04311 -40.843868 
L 705.074585 -41.155334 
L 702.10606 -41.530166 
L 699.137535 -41.977436 
L 696.169009 -42.506629 
L 693.200484 -43.127452 
L 690.231959 -43.849614 
L 687.263434 -44.682556 
L 684.294908 -45.635152 
L 681.326383 -46.715387 
L 678.357858 -47.930018 
L 675.389333 -49.284234 
L 672.420808 -50.781334 
L 669.452282 -52.422427 
L 666.483757 -54.20619 
L 663.515232 -56.128682 
L 660.546707 -58.183236 
L 657.578181 -60.360442 
L 654.609656 -62.648223 
L 651.641131 -65.032013 
L 648.672606 -67.495029 
L 645.70408 -70.018642 
L 642.735555 -72.582815 
L 639.76703 -75.166612 
L 636.798505 -77.748745 
L 633.829979 -80.308138 
L 630.861454 -82.824487 
L 627.892929 -85.278785 
L 624.924404 -87.653792 
L 621.955878 -89.93443 
L 618.987353 -92.108079 
L 616.018828 -94.164775 
L 613.050303 -96.097284 
L 610.081777 -97.901075 
L 607.113252 -99.574176 
L 604.144727 -101.116938 
L 601.176202 -102.53172 
L 598.207676 -103.822514 
L 595.239151 -104.994532 
L 592.270626 -106.053789 
L 589.302101 -107.006689 
L 586.333575 -107.85966 
L 583.36505 -108.618837 
L 580.396525 -109.289822 
L 577.428 -109.87753 
L 574.459474 -110.386124 
L 571.490949 -110.819035 
L 568.522424 -111.179069 
L 565.553899 -111.468586 
L 562.585373 -111.689728 
L 559.616848 -111.844686 
L 556.648323 -111.935976 
L 553.679798 -111.96671 
L 550.711272 -111.940835 
L 547.742747 -111.863322 
L 544.774222 -111.740293 
L 541.805697 -111.579082 
L 538.837171 -111.388205 
L 535.868646 -111.17727 
L 532.900121 -110.956804 
L 529.931596 -110.738027 
L 526.96307 -110.532576 
L 523.994545 -110.352201 
L 521.02602 -110.208441 
L 518.057495 -110.112305 
L 515.08897 -110.073967 
L 512.120444 -110.102487 
L 509.151919 -110.205567 
L 506.183394 -110.38935 
L 503.214869 -110.658262 
L 500.246343 -111.014899 
L 497.277818 -111.459962 
L 494.309293 -111.992222 
L 491.340768 -112.608539 
L 488.372242 -113.303901 
L 485.403717 -114.071511 
L 482.435192 -114.902899 
L 479.466667 -115.788069 
L 476.498141 -116.715683 
L 473.529616 -117.673273 
L 470.561091 -118.647491 
L 467.592566 -119.624389 
L 464.62404 -120.589726 
L 461.655515 -121.529299 
L 458.68699 -122.429282 
L 455.718465 -123.27658 
L 452.749939 -124.059158 
L 449.781414 -124.766362 
L 446.812889 -125.389193 
L 443.844364 -125.920542 
L 440.875838 -126.355353 
L 437.907313 -126.690731 
L 434.938788 -126.925964 
L 431.970263 -127.062481 
L 429.001737 -127.103728 
L 426.033212 -127.054989 
L 423.064687 -126.923139 
L 420.096162 -126.716367 
L 417.127636 -126.443858 
L 414.159111 -126.115468 
L 411.190586 -125.741399 
L 408.222061 -125.331879 
L 405.253535 -124.896883 
L 402.28501 -124.445873 
L 399.316485 -123.987591 
L 396.34796 -123.529892 
L 393.379434 -123.079624 
L 390.410909 -122.642558 
L 387.442384 -122.223355 
L 384.473859 -121.825582 
L 381.505333 -121.451748 
L 378.536808 -121.103386 
L 375.568283 -120.781139 
L 372.599758 -120.48488 
L 369.631233 -120.213832 
L 366.662707 -119.966696 
L 363.694182 -119.741782 
L 360.725657 -119.537134 
L 357.757132 -119.350642 
L 354.788606 -119.180145 
L 351.820081 -119.023514 
L 348.851556 -118.878709 
L 345.883031 -118.743818 
L 342.914505 -118.61706 
L 339.94598 -118.496761 
L 336.977455 -118.381299 
L 334.00893 -118.269024 
L 331.040404 -118.158139 
L 328.071879 -118.046575 
L 325.103354 -117.931827 
L 322.134829 -117.810803 
L 319.166303 -117.679648 
L 316.197778 -117.533595 
L 313.229253 -117.366823 
L 310.260728 -117.172348 
L 307.292202 -116.941952 
L 304.323677 -116.666167 
L 301.355152 -116.334314 
L 298.386627 -115.934605 
L 295.418101 -115.454324 
L 292.449576 -114.880072 
L 289.481051 -114.198082 
L 286.512526 -113.394603 
L 283.544 -112.456334 
L 280.575475 -111.370899 
L 277.60695 -110.127344 
L 274.638425 -108.716642 
L 271.669899 -107.13217 
L 268.701374 -105.370152 
L 265.732849 -103.43003 
L 262.764324 -101.314752 
L 259.795798 -99.030941 
L 256.827273 -96.588958 
L 253.858748 -94.002818 
L 250.890223 -91.289976 
L 247.921697 -88.470987 
L 244.953172 -85.56903 
L 241.984647 -82.609341 
L 239.016122 -79.618554 
L 236.047596 -76.623997 
L 233.079071 -73.652953 
L 230.110546 -70.731934 
L 227.142021 -67.885998 
L 224.173495 -65.138127 
L 221.20497 -62.508696 
L 218.236445 -60.01506 
L 215.26792 -57.671261 
L 212.299395 -55.48786 
L 209.330869 -53.471908 
L 206.362344 -51.627028 
L 203.393819 -49.953614 
L 200.425294 -48.449115 
L 197.456768 -47.108393 
L 194.488243 -45.924129 
L 191.519718 -44.887256 
L 188.551193 -43.9874 
L 185.582667 -43.213304 
L 182.614142 -42.553228 
L 179.645617 -41.995307 
L 176.677092 -41.527857 
L 173.708566 -41.139634 
L 170.740041 -40.820027 
L 167.771516 -40.559208 
L 164.802991 -40.348222 
L 161.834465 -40.179036 
L 158.86594 -40.044554 
L 155.897415 -39.938589 
L 152.92889 -39.855821 
L 149.960364 -39.791736 
L 146.991839 -39.742548 
z
" style="stroke: #1e90ff"/>
    </defs>
    <g clip-path="url(#pa5fc499862)">
     <use xlink:href="#m90579bc8c3" x="0" y="360" style="fill: #1e90ff; fill-opacity: 0.25; stroke: #1e90ff"/>
    </g>
   </g>
   <g id="PolyCollection_3">
    <defs>
     <path id="m9b941cc699" d="M 180.542663 -39.711543 
L 180.542663 -39.6 
L 183.178415 -39.6 
L 185.814167 -39.6 
L 188.449919 -39.6 
L 191.085671 -39.6 
L 193.721424 -39.6 
L 196.357176 -39.6 
L 198.992928 -39.6 
L 201.62868 -39.6 
L 204.264432 -39.6 
L 206.900184 -39.6 
L 209.535936 -39.6 
L 212.171689 -39.6 
L 214.807441 -39.6 
L 217.443193 -39.6 
L 220.078945 -39.6 
L 222.714697 -39.6 
L 225.350449 -39.6 
L 227.986201 -39.6 
L 230.621953 -39.6 
L 233.257706 -39.6 
L 235.893458 -39.6 
L 238.52921 -39.6 
L 241.164962 -39.6 
L 243.800714 -39.6 
L 246.436466 -39.6 
L 249.072218 -39.6 
L 251.70797 -39.6 
L 254.343723 -39.6 
L 256.979475 -39.6 
L 259.615227 -39.6 
L 262.250979 -39.6 
L 264.886731 -39.6 
L 267.522483 -39.6 
L 270.158235 -39.6 
L 272.793988 -39.6 
L 275.42974 -39.6 
L 278.065492 -39.6 
L 280.701244 -39.6 
L 283.336996 -39.6 
L 285.972748 -39.6 
L 288.6085 -39.6 
L 291.244252 -39.6 
L 293.880005 -39.6 
L 296.515757 -39.6 
L 299.151509 -39.6 
L 301.787261 -39.6 
L 304.423013 -39.6 
L 307.058765 -39.6 
L 309.694517 -39.6 
L 312.33027 -39.6 
L 314.966022 -39.6 
L 317.601774 -39.6 
L 320.237526 -39.6 
L 322.873278 -39.6 
L 325.50903 -39.6 
L 328.144782 -39.6 
L 330.780534 -39.6 
L 333.416287 -39.6 
L 336.052039 -39.6 
L 338.687791 -39.6 
L 341.323543 -39.6 
L 343.959295 -39.6 
L 346.595047 -39.6 
L 349.230799 -39.6 
L 351.866551 -39.6 
L 354.502304 -39.6 
L 357.138056 -39.6 
L 359.773808 -39.6 
L 362.40956 -39.6 
L 365.045312 -39.6 
L 367.681064 -39.6 
L 370.316816 -39.6 
L 372.952569 -39.6 
L 375.588321 -39.6 
L 378.224073 -39.6 
L 380.859825 -39.6 
L 383.495577 -39.6 
L 386.131329 -39.6 
L 388.767081 -39.6 
L 391.402833 -39.6 
L 394.038586 -39.6 
L 396.674338 -39.6 
L 399.31009 -39.6 
L 401.945842 -39.6 
L 404.581594 -39.6 
L 407.217346 -39.6 
L 409.853098 -39.6 
L 412.48885 -39.6 
L 415.124603 -39.6 
L 417.760355 -39.6 
L 420.396107 -39.6 
L 423.031859 -39.6 
L 425.667611 -39.6 
L 428.303363 -39.6 
L 430.939115 -39.6 
L 433.574868 -39.6 
L 436.21062 -39.6 
L 438.846372 -39.6 
L 441.482124 -39.6 
L 444.117876 -39.6 
L 446.753628 -39.6 
L 449.38938 -39.6 
L 452.025132 -39.6 
L 454.660885 -39.6 
L 457.296637 -39.6 
L 459.932389 -39.6 
L 462.568141 -39.6 
L 465.203893 -39.6 
L 467.839645 -39.6 
L 470.475397 -39.6 
L 473.11115 -39.6 
L 475.746902 -39.6 
L 478.382654 -39.6 
L 481.018406 -39.6 
L 483.654158 -39.6 
L 486.28991 -39.6 
L 488.925662 -39.6 
L 491.561414 -39.6 
L 494.197167 -39.6 
L 496.832919 -39.6 
L 499.468671 -39.6 
L 502.104423 -39.6 
L 504.740175 -39.6 
L 507.375927 -39.6 
L 510.011679 -39.6 
L 512.647431 -39.6 
L 515.283184 -39.6 
L 517.918936 -39.6 
L 520.554688 -39.6 
L 523.19044 -39.6 
L 525.826192 -39.6 
L 528.461944 -39.6 
L 531.097696 -39.6 
L 533.733449 -39.6 
L 536.369201 -39.6 
L 539.004953 -39.6 
L 541.640705 -39.6 
L 544.276457 -39.6 
L 546.912209 -39.6 
L 549.547961 -39.6 
L 552.183713 -39.6 
L 554.819466 -39.6 
L 557.455218 -39.6 
L 560.09097 -39.6 
L 562.726722 -39.6 
L 565.362474 -39.6 
L 567.998226 -39.6 
L 570.633978 -39.6 
L 573.26973 -39.6 
L 575.905483 -39.6 
L 578.541235 -39.6 
L 581.176987 -39.6 
L 583.812739 -39.6 
L 586.448491 -39.6 
L 589.084243 -39.6 
L 591.719995 -39.6 
L 594.355748 -39.6 
L 596.9915 -39.6 
L 599.627252 -39.6 
L 602.263004 -39.6 
L 604.898756 -39.6 
L 607.534508 -39.6 
L 610.17026 -39.6 
L 612.806012 -39.6 
L 615.441765 -39.6 
L 618.077517 -39.6 
L 620.713269 -39.6 
L 623.349021 -39.6 
L 625.984773 -39.6 
L 628.620525 -39.6 
L 631.256277 -39.6 
L 633.89203 -39.6 
L 636.527782 -39.6 
L 639.163534 -39.6 
L 641.799286 -39.6 
L 644.435038 -39.6 
L 647.07079 -39.6 
L 649.706542 -39.6 
L 652.342294 -39.6 
L 654.978047 -39.6 
L 657.613799 -39.6 
L 660.249551 -39.6 
L 662.885303 -39.6 
L 665.521055 -39.6 
L 668.156807 -39.6 
L 670.792559 -39.6 
L 673.428311 -39.6 
L 676.064064 -39.6 
L 678.699816 -39.6 
L 681.335568 -39.6 
L 683.97132 -39.6 
L 686.607072 -39.6 
L 689.242824 -39.6 
L 691.878576 -39.6 
L 694.514329 -39.6 
L 697.150081 -39.6 
L 699.785833 -39.6 
L 702.421585 -39.6 
L 705.057337 -39.6 
L 705.057337 -39.662738 
L 705.057337 -39.662738 
L 702.421585 -39.695052 
L 699.785833 -39.741922 
L 697.150081 -39.808847 
L 694.514329 -39.902924 
L 691.878576 -40.033118 
L 689.242824 -40.210508 
L 686.607072 -40.448465 
L 683.97132 -40.762743 
L 681.335568 -41.171428 
L 678.699816 -41.694712 
L 676.064064 -42.354457 
L 673.428311 -43.173525 
L 670.792559 -44.174888 
L 668.156807 -45.380516 
L 665.521055 -46.810106 
L 662.885303 -48.479722 
L 660.249551 -50.400441 
L 657.613799 -52.577122 
L 654.978047 -55.007404 
L 652.342294 -57.681052 
L 649.706542 -60.579734 
L 647.07079 -63.677279 
L 644.435038 -66.940425 
L 641.799286 -70.330014 
L 639.163534 -73.802556 
L 636.527782 -77.312028 
L 633.89203 -80.811766 
L 631.256277 -84.256292 
L 628.620525 -87.602947 
L 625.984773 -90.813197 
L 623.349021 -93.853564 
L 620.713269 -96.69616 
L 618.077517 -99.318843 
L 615.441765 -101.705091 
L 612.806012 -103.843672 
L 610.17026 -105.728234 
L 607.534508 -107.356926 
L 604.898756 -108.732092 
L 602.263004 -109.860117 
L 599.627252 -110.75137 
L 596.9915 -111.420226 
L 594.355748 -111.885048 
L 591.719995 -112.168044 
L 589.084243 -112.294871 
L 586.448491 -112.293925 
L 583.812739 -112.195256 
L 581.176987 -112.029142 
L 578.541235 -111.824392 
L 575.905483 -111.606507 
L 573.26973 -111.395902 
L 570.633978 -111.206356 
L 567.998226 -111.043923 
L 565.362474 -110.906435 
L 562.726722 -110.783721 
L 560.09097 -110.658562 
L 557.455218 -110.508319 
L 554.819466 -110.30711 
L 552.183713 -110.028319 
L 549.547961 -109.647195 
L 546.912209 -109.143298 
L 544.276457 -108.502531 
L 541.640705 -107.7186 
L 539.004953 -106.793771 
L 536.369201 -105.738892 
L 533.733449 -104.572751 
L 531.097696 -103.320882 
L 528.461944 -102.014016 
L 525.826192 -100.686394 
L 523.19044 -99.374153 
L 520.554688 -98.113987 
L 517.918936 -96.94223 
L 515.283184 -95.894428 
L 512.647431 -95.005411 
L 510.011679 -94.309798 
L 507.375927 -93.842785 
L 504.740175 -93.641039 
L 502.104423 -93.743479 
L 499.468671 -94.191716 
L 496.832919 -95.029935 
L 494.197167 -96.304066 
L 491.561414 -98.060114 
L 488.925662 -100.341611 
L 486.28991 -103.186242 
L 483.654158 -106.621786 
L 481.018406 -110.661596 
L 478.382654 -115.299961 
L 475.746902 -120.507763 
L 473.11115 -126.228863 
L 470.475397 -132.377742 
L 467.839645 -138.838819 
L 465.203893 -145.467851 
L 462.568141 -152.09565 
L 459.932389 -158.534173 
L 457.296637 -164.58482 
L 454.660885 -170.048513 
L 452.025132 -174.736912 
L 449.38938 -178.483907 
L 446.753628 -181.156439 
L 444.117876 -182.663661 
L 441.482124 -182.963553 
L 438.846372 -182.066306 
L 436.21062 -180.034088 
L 433.574868 -176.977152 
L 430.939115 -173.0466 
L 428.303363 -168.424457 
L 425.667611 -163.311967 
L 423.031859 -157.917141 
L 420.396107 -152.442648 
L 417.760355 -147.075018 
L 415.124603 -141.975933 
L 412.48885 -137.276122 
L 409.853098 -133.072062 
L 407.217346 -129.425413 
L 404.581594 -126.364849 
L 401.945842 -123.889783 
L 399.31009 -121.97537 
L 396.674338 -120.578165 
L 394.038586 -119.641847 
L 391.402833 -119.102545 
L 388.767081 -118.893409 
L 386.131329 -118.948231 
L 383.495577 -119.204054 
L 380.859825 -119.602815 
L 378.224073 -120.092159 
L 375.588321 -120.625604 
L 372.952569 -121.162286 
L 370.316816 -121.666467 
L 367.681064 -122.107 
L 365.045312 -122.456899 
L 362.40956 -122.693078 
L 359.773808 -122.79632 
L 357.138056 -122.751447 
L 354.502304 -122.547636 
L 351.866551 -122.178796 
L 349.230799 -121.643884 
L 346.595047 -120.947083 
L 343.959295 -120.097731 
L 341.323543 -119.109959 
L 338.687791 -118.002033 
L 336.052039 -116.795412 
L 333.416287 -115.513613 
L 330.780534 -114.180973 
L 328.144782 -112.82143 
L 325.50903 -111.45744 
L 322.873278 -110.109118 
L 320.237526 -108.793683 
L 317.601774 -107.525229 
L 314.966022 -106.314802 
L 312.33027 -105.170718 
L 309.694517 -104.099057 
L 307.058765 -103.104184 
L 304.423013 -102.189215 
L 301.787261 -101.356291 
L 299.151509 -100.606602 
L 296.515757 -99.940105 
L 293.880005 -99.354934 
L 291.244252 -98.846579 
L 288.6085 -98.406907 
L 285.972748 -98.023189 
L 283.336996 -97.677276 
L 280.701244 -97.345108 
L 278.065492 -96.996692 
L 275.42974 -96.596664 
L 272.793988 -96.105482 
L 270.158235 -95.481238 
L 267.522483 -94.681989 
L 264.886731 -93.668453 
L 262.250979 -92.40684 
L 259.615227 -90.871589 
L 256.979475 -89.047718 
L 254.343723 -86.932583 
L 251.70797 -84.536835 
L 249.072218 -81.884461 
L 246.436466 -79.011874 
L 243.800714 -75.96612 
L 241.164962 -72.802332 
L 238.52921 -69.580649 
L 235.893458 -66.362861 
L 233.257706 -63.209066 
L 230.621953 -60.174587 
L 227.986201 -57.307402 
L 225.350449 -54.646233 
L 222.714697 -52.219407 
L 220.078945 -50.044491 
L 217.443193 -48.128657 
L 214.807441 -46.469654 
L 212.171689 -45.05724 
L 209.535936 -43.874887 
L 206.900184 -42.901604 
L 204.264432 -42.113708 
L 201.62868 -41.486425 
L 198.992928 -40.99524 
L 196.357176 -40.616944 
L 193.721424 -40.330368 
L 191.085671 -40.116825 
L 188.449919 -39.960302 
L 185.814167 -39.847444 
L 183.178415 -39.767396 
L 180.542663 -39.711543 
z
" style="stroke: #9400d3"/>
    </defs>
    <g clip-path="url(#pa5fc499862)">
     <use xlink:href="#m9b941cc699" x="0" y="360" style="fill: #9400d3; fill-opacity: 0.25; stroke: #9400d3"/>
    </g>
   </g>
   <g id="PolyCollection_4">
    <defs>
     <path id="m9f45a3011b" d="M 138.436364 -40.18053 
L 138.436364 -39.6 
L 141.495295 -39.6 
L 144.554226 -39.6 
L 147.613157 -39.6 
L 150.672088 -39.6 
L 153.731019 -39.6 
L 156.78995 -39.6 
L 159.848881 -39.6 
L 162.907812 -39.6 
L 165.966743 -39.6 
L 169.025674 -39.6 
L 172.084605 -39.6 
L 175.143536 -39.6 
L 178.202467 -39.6 
L 181.261398 -39.6 
L 184.320329 -39.6 
L 187.37926 -39.6 
L 190.438191 -39.6 
L 193.497122 -39.6 
L 196.556053 -39.6 
L 199.614984 -39.6 
L 202.673915 -39.6 
L 205.732846 -39.6 
L 208.791777 -39.6 
L 211.850708 -39.6 
L 214.909639 -39.6 
L 217.96857 -39.6 
L 221.027501 -39.6 
L 224.086432 -39.6 
L 227.145363 -39.6 
L 230.204294 -39.6 
L 233.263225 -39.6 
L 236.322156 -39.6 
L 239.381087 -39.6 
L 242.440018 -39.6 
L 245.498949 -39.6 
L 248.55788 -39.6 
L 251.616811 -39.6 
L 254.675742 -39.6 
L 257.734673 -39.6 
L 260.793604 -39.6 
L 263.852535 -39.6 
L 266.911466 -39.6 
L 269.970397 -39.6 
L 273.029328 -39.6 
L 276.088259 -39.6 
L 279.14719 -39.6 
L 282.206122 -39.6 
L 285.265053 -39.6 
L 288.323984 -39.6 
L 291.382915 -39.6 
L 294.441846 -39.6 
L 297.500777 -39.6 
L 300.559708 -39.6 
L 303.618639 -39.6 
L 306.67757 -39.6 
L 309.736501 -39.6 
L 312.795432 -39.6 
L 315.854363 -39.6 
L 318.913294 -39.6 
L 321.972225 -39.6 
L 325.031156 -39.6 
L 328.090087 -39.6 
L 331.149018 -39.6 
L 334.207949 -39.6 
L 337.26688 -39.6 
L 340.325811 -39.6 
L 343.384742 -39.6 
L 346.443673 -39.6 
L 349.502604 -39.6 
L 352.561535 -39.6 
L 355.620466 -39.6 
L 358.679397 -39.6 
L 361.738328 -39.6 
L 364.797259 -39.6 
L 367.85619 -39.6 
L 370.915121 -39.6 
L 373.974052 -39.6 
L 377.032983 -39.6 
L 380.091914 -39.6 
L 383.150845 -39.6 
L 386.209776 -39.6 
L 389.268707 -39.6 
L 392.327638 -39.6 
L 395.386569 -39.6 
L 398.4455 -39.6 
L 401.504431 -39.6 
L 404.563362 -39.6 
L 407.622293 -39.6 
L 410.681224 -39.6 
L 413.740155 -39.6 
L 416.799086 -39.6 
L 419.858017 -39.6 
L 422.916948 -39.6 
L 425.975879 -39.6 
L 429.03481 -39.6 
L 432.093741 -39.6 
L 435.152672 -39.6 
L 438.211603 -39.6 
L 441.270534 -39.6 
L 444.329466 -39.6 
L 447.388397 -39.6 
L 450.447328 -39.6 
L 453.506259 -39.6 
L 456.56519 -39.6 
L 459.624121 -39.6 
L 462.683052 -39.6 
L 465.741983 -39.6 
L 468.800914 -39.6 
L 471.859845 -39.6 
L 474.918776 -39.6 
L 477.977707 -39.6 
L 481.036638 -39.6 
L 484.095569 -39.6 
L 487.1545 -39.6 
L 490.213431 -39.6 
L 493.272362 -39.6 
L 496.331293 -39.6 
L 499.390224 -39.6 
L 502.449155 -39.6 
L 505.508086 -39.6 
L 508.567017 -39.6 
L 511.625948 -39.6 
L 514.684879 -39.6 
L 517.74381 -39.6 
L 520.802741 -39.6 
L 523.861672 -39.6 
L 526.920603 -39.6 
L 529.979534 -39.6 
L 533.038465 -39.6 
L 536.097396 -39.6 
L 539.156327 -39.6 
L 542.215258 -39.6 
L 545.274189 -39.6 
L 548.33312 -39.6 
L 551.392051 -39.6 
L 554.450982 -39.6 
L 557.509913 -39.6 
L 560.568844 -39.6 
L 563.627775 -39.6 
L 566.686706 -39.6 
L 569.745637 -39.6 
L 572.804568 -39.6 
L 575.863499 -39.6 
L 578.92243 -39.6 
L 581.981361 -39.6 
L 585.040292 -39.6 
L 588.099223 -39.6 
L 591.158154 -39.6 
L 594.217085 -39.6 
L 597.276016 -39.6 
L 600.334947 -39.6 
L 603.393878 -39.6 
L 606.45281 -39.6 
L 609.511741 -39.6 
L 612.570672 -39.6 
L 615.629603 -39.6 
L 618.688534 -39.6 
L 621.747465 -39.6 
L 624.806396 -39.6 
L 627.865327 -39.6 
L 630.924258 -39.6 
L 633.983189 -39.6 
L 637.04212 -39.6 
L 640.101051 -39.6 
L 643.159982 -39.6 
L 646.218913 -39.6 
L 649.277844 -39.6 
L 652.336775 -39.6 
L 655.395706 -39.6 
L 658.454637 -39.6 
L 661.513568 -39.6 
L 664.572499 -39.6 
L 667.63143 -39.6 
L 670.690361 -39.6 
L 673.749292 -39.6 
L 676.808223 -39.6 
L 679.867154 -39.6 
L 682.926085 -39.6 
L 685.985016 -39.6 
L 689.043947 -39.6 
L 692.102878 -39.6 
L 695.161809 -39.6 
L 698.22074 -39.6 
L 701.279671 -39.6 
L 704.338602 -39.6 
L 707.397533 -39.6 
L 710.456464 -39.6 
L 713.515395 -39.6 
L 716.574326 -39.6 
L 719.633257 -39.6 
L 722.692188 -39.6 
L 725.751119 -39.6 
L 728.81005 -39.6 
L 731.868981 -39.6 
L 734.927912 -39.6 
L 737.986843 -39.6 
L 741.045774 -39.6 
L 744.104705 -39.6 
L 747.163636 -39.6 
L 747.163636 -39.858137 
L 747.163636 -39.858137 
L 744.104705 -39.936009 
L 741.045774 -40.034005 
L 737.986843 -40.156262 
L 734.927912 -40.307467 
L 731.868981 -40.492842 
L 728.81005 -40.718112 
L 725.751119 -40.989432 
L 722.692188 -41.313292 
L 719.633257 -41.696367 
L 716.574326 -42.145335 
L 713.515395 -42.666651 
L 710.456464 -43.26628 
L 707.397533 -43.949393 
L 704.338602 -44.720043 
L 701.279671 -45.580814 
L 698.22074 -46.532483 
L 695.161809 -47.573687 
L 692.102878 -48.700627 
L 689.043947 -49.906835 
L 685.985016 -51.183001 
L 682.926085 -52.516912 
L 679.867154 -53.893485 
L 676.808223 -55.29493 
L 673.749292 -56.701037 
L 670.690361 -58.089593 
L 667.63143 -59.436911 
L 664.572499 -60.718477 
L 661.513568 -61.90966 
L 658.454637 -62.986496 
L 655.395706 -63.926476 
L 652.336775 -64.709328 
L 649.277844 -65.317743 
L 646.218913 -65.73801 
L 643.159982 -65.960529 
L 640.101051 -65.980179 
L 637.04212 -65.796512 
L 633.983189 -65.413774 
L 630.924258 -64.840741 
L 627.865327 -64.090392 
L 624.806396 -63.179418 
L 621.747465 -62.12762 
L 618.688534 -60.957196 
L 615.629603 -59.691982 
L 612.570672 -58.356665 
L 609.511741 -56.976018 
L 606.45281 -55.574188 
L 603.393878 -54.174061 
L 600.334947 -52.796744 
L 597.276016 -51.461171 
L 594.217085 -50.183843 
L 591.158154 -48.97872 
L 588.099223 -47.85725 
L 585.040292 -46.828529 
L 581.981361 -45.899591 
L 578.92243 -45.075806 
L 575.863499 -44.361361 
L 572.804568 -43.759827 
L 569.745637 -43.274779 
L 566.686706 -42.910453 
L 563.627775 -42.672429 
L 560.568844 -42.568324 
L 557.509913 -42.608468 
L 554.450982 -42.806559 
L 551.392051 -43.180262 
L 548.33312 -43.751747 
L 545.274189 -44.548125 
L 542.215258 -45.601756 
L 539.156327 -46.950403 
L 536.097396 -48.637186 
L 533.038465 -50.710304 
L 529.979534 -53.22248 
L 526.920603 -56.230103 
L 523.861672 -59.792027 
L 520.802741 -63.96802 
L 517.74381 -68.816841 
L 514.684879 -74.393978 
L 511.625948 -80.74906 
L 508.567017 -87.923014 
L 505.508086 -95.945051 
L 502.449155 -104.829576 
L 499.390224 -114.573174 
L 496.331293 -125.151806 
L 493.272362 -136.518396 
L 490.213431 -148.60097 
L 487.1545 -161.301508 
L 484.095569 -174.495681 
L 481.036638 -188.03357 
L 477.977707 -201.74146 
L 474.918776 -215.424758 
L 471.859845 -228.871994 
L 468.800914 -241.859835 
L 465.741983 -254.158965 
L 462.683052 -265.54064 
L 459.624121 -275.783646 
L 456.56519 -284.681393 
L 453.506259 -292.048815 
L 450.447328 -297.728758 
L 447.388397 -301.597553 
L 444.329466 -303.569494 
L 441.270534 -303.6 
L 438.211603 -301.687284 
L 435.152672 -297.872464 
L 432.093741 -292.238083 
L 429.03481 -284.905137 
L 425.975879 -276.028739 
L 422.916948 -265.792654 
L 419.858017 -254.402965 
L 416.799086 -242.081177 
L 413.740155 -229.057084 
L 410.681224 -215.561717 
L 407.622293 -201.820669 
L 404.563362 -188.048068 
L 401.504431 -174.441396 
L 398.4455 -161.177329 
L 395.386569 -148.408667 
L 392.327638 -136.262405 
L 389.268707 -124.838908 
L 386.209776 -114.212113 
L 383.150845 -104.430633 
L 380.091914 -95.519625 
L 377.032983 -87.483243 
L 373.974052 -80.307508 
L 370.915121 -73.963421 
L 367.85619 -68.41016 
L 364.797259 -63.598232 
L 361.738328 -59.472442 
L 358.679397 -55.974622 
L 355.620466 -53.046024 
L 352.561535 -50.62936 
L 349.502604 -48.670465 
L 346.443673 -47.11958 
L 343.384742 -45.932284 
L 340.325811 -45.070077 
L 337.26688 -44.50067 
L 334.207949 -44.198003 
L 331.149018 -44.14202 
L 328.090087 -44.31825 
L 325.031156 -44.717205 
L 321.972225 -45.333636 
L 318.913294 -46.165666 
L 315.854363 -47.213826 
L 312.795432 -48.480013 
L 309.736501 -49.966404 
L 306.67757 -51.674344 
L 303.618639 -53.603252 
L 300.559708 -55.749561 
L 297.500777 -58.105755 
L 294.441846 -60.659521 
L 291.382915 -63.393078 
L 288.323984 -66.282704 
L 285.265053 -69.298517 
L 282.206122 -72.404532 
L 279.14719 -75.559 
L 276.088259 -78.715069 
L 273.029328 -81.821723 
L 269.970397 -84.825006 
L 266.911466 -87.669472 
L 263.852535 -90.299817 
L 260.793604 -92.662618 
L 257.734673 -94.708114 
L 254.675742 -96.391927 
L 251.616811 -97.676655 
L 248.55788 -98.533245 
L 245.498949 -98.942084 
L 242.440018 -98.893738 
L 239.381087 -98.38932 
L 236.322156 -97.440439 
L 233.263225 -96.068759 
L 230.204294 -94.305174 
L 227.145363 -92.188654 
L 224.086432 -89.764812 
L 221.027501 -87.084273 
L 217.96857 -84.200924 
L 214.909639 -81.17013 
L 211.850708 -78.046992 
L 208.791777 -74.884729 
L 205.732846 -71.73325 
L 202.673915 -68.637949 
L 199.614984 -65.638781 
L 196.556053 -62.769614 
L 193.497122 -60.057866 
L 190.438191 -57.524427 
L 187.37926 -55.18381 
L 184.320329 -53.044523 
L 181.261398 -51.109608 
L 178.202467 -49.377302 
L 175.143536 -47.841778 
L 172.084605 -46.493919 
L 169.025674 -45.322092 
L 165.966743 -44.312884 
L 162.907812 -43.451786 
L 159.848881 -42.723782 
L 156.78995 -42.11387 
L 153.731019 -41.607466 
L 150.672088 -41.190731 
L 147.613157 -40.850802 
L 144.554226 -40.575942 
L 141.495295 -40.355619 
L 138.436364 -40.18053 
z
" style="stroke: #0000ff"/>
    </defs>
    <g clip-path="url(#pa5fc499862)">
     <use xlink:href="#m9f45a3011b" x="0" y="360" style="fill: #0000ff; fill-opacity: 0.25; stroke: #0000ff"/>
    </g>
   </g>
   <g id="matplotlib.axis_1">
    <g id="xtick_1">
     <g id="line2d_1">
      <defs>
       <path id="me4f8a7e6be" d="M 0 0 
L 0 3.5 
" style="stroke: #000000; stroke-width: 0.8"/>
      </defs>
      <g>
       <use xlink:href="#me4f8a7e6be" x="122.71144" y="320.4" style="stroke: #000000; stroke-width: 0.8"/>
      </g>
     </g>
     <g id="text_1">
      <!-- −4 -->
      <g transform="translate(115.340346 334.998438) scale(0.1 -0.1)">
       <defs>
        <path id="DejaVuSans-2212" d="M 678 2272 
L 4684 2272 
L 4684 1741 
L 678 1741 
L 678 2272 
z
" transform="scale(0.015625)"/>
        <path id="DejaVuSans-34" d="M 2419 4116 
L 825 1625 
L 2419 1625 
L 2419 4116 
z
M 2253 4666 
L 3047 4666 
L 3047 1625 
L 3713 1625 
L 3713 1100 
L 3047 1100 
L 3047 0 
L 2419 0 
L 2419 1100 
L 313 1100 
L 313 1709 
L 2253 4666 
z
" transform="scale(0.015625)"/>
       </defs>
       <use xlink:href="#DejaVuSans-2212"/>
       <use xlink:href="#DejaVuSans-34" x="83.789062"/>
      </g>
     </g>
    </g>
    <g id="xtick_2">
     <g id="line2d_2">
      <g>
       <use xlink:href="#me4f8a7e6be" x="202.744004" y="320.4" style="stroke: #000000; stroke-width: 0.8"/>
      </g>
     </g>
     <g id="text_2">
      <!-- −3 -->
      <g transform="translate(195.37291 334.998438) scale(0.1 -0.1)">
       <defs>
        <path id="DejaVuSans-33" d="M 2597 2516 
Q 3050 2419 3304 2112 
Q 3559 1806 3559 1356 
Q 3559 666 3084 287 
Q 2609 -91 1734 -91 
Q 1441 -91 1130 -33 
Q 819 25 488 141 
L 488 750 
Q 750 597 1062 519 
Q 1375 441 1716 441 
Q 2309 441 2620 675 
Q 2931 909 2931 1356 
Q 2931 1769 2642 2001 
Q 2353 2234 1838 2234 
L 1294 2234 
L 1294 2753 
L 1863 2753 
Q 2328 2753 2575 2939 
Q 2822 3125 2822 3475 
Q 2822 3834 2567 4026 
Q 2313 4219 1838 4219 
Q 1578 4219 1281 4162 
Q 984 4106 628 3988 
L 628 4550 
Q 988 4650 1302 4700 
Q 1616 4750 1894 4750 
Q 2613 4750 3031 4423 
Q 3450 4097 3450 3541 
Q 3450 3153 3228 2886 
Q 3006 2619 2597 2516 
z
" transform="scale(0.015625)"/>
       </defs>
       <use xlink:href="#DejaVuSans-2212"/>
       <use xlink:href="#DejaVuSans-33" x="83.789062"/>
      </g>
     </g>
    </g>
    <g id="xtick_3">
     <g id="line2d_3">
      <g>
       <use xlink:href="#me4f8a7e6be" x="282.776568" y="320.4" style="stroke: #000000; stroke-width: 0.8"/>
      </g>
     </g>
     <g id="text_3">
      <!-- −2 -->
      <g transform="translate(275.405475 334.998438) scale(0.1 -0.1)">
       <defs>
        <path id="DejaVuSans-32" d="M 1228 531 
L 3431 531 
L 3431 0 
L 469 0 
L 469 531 
Q 828 903 1448 1529 
Q 2069 2156 2228 2338 
Q 2531 2678 2651 2914 
Q 2772 3150 2772 3378 
Q 2772 3750 2511 3984 
Q 2250 4219 1831 4219 
Q 1534 4219 1204 4116 
Q 875 4013 500 3803 
L 500 4441 
Q 881 4594 1212 4672 
Q 1544 4750 1819 4750 
Q 2544 4750 2975 4387 
Q 3406 4025 3406 3419 
Q 3406 3131 3298 2873 
Q 3191 2616 2906 2266 
Q 2828 2175 2409 1742 
Q 1991 1309 1228 531 
z
" transform="scale(0.015625)"/>
       </defs>
       <use xlink:href="#DejaVuSans-2212"/>
       <use xlink:href="#DejaVuSans-32" x="83.789062"/>
      </g>
     </g>
    </g>
    <g id="xtick_4">
     <g id="line2d_4">
      <g>
       <use xlink:href="#me4f8a7e6be" x="362.809133" y="320.4" style="stroke: #000000; stroke-width: 0.8"/>
      </g>
     </g>
     <g id="text_4">
      <!-- −1 -->
      <g transform="translate(355.438039 334.998438) scale(0.1 -0.1)">
       <defs>
        <path id="DejaVuSans-31" d="M 794 531 
L 1825 531 
L 1825 4091 
L 703 3866 
L 703 4441 
L 1819 4666 
L 2450 4666 
L 2450 531 
L 3481 531 
L 3481 0 
L 794 0 
L 794 531 
z
" transform="scale(0.015625)"/>
       </defs>
       <use xlink:href="#DejaVuSans-2212"/>
       <use xlink:href="#DejaVuSans-31" x="83.789062"/>
      </g>
     </g>
    </g>
    <g id="xtick_5">
     <g id="line2d_5">
      <g>
       <use xlink:href="#me4f8a7e6be" x="442.841697" y="320.4" style="stroke: #000000; stroke-width: 0.8"/>
      </g>
     </g>
     <g id="text_5">
      <!-- 0 -->
      <g transform="translate(439.660447 334.998438) scale(0.1 -0.1)">
       <defs>
        <path id="DejaVuSans-30" d="M 2034 4250 
Q 1547 4250 1301 3770 
Q 1056 3291 1056 2328 
Q 1056 1369 1301 889 
Q 1547 409 2034 409 
Q 2525 409 2770 889 
Q 3016 1369 3016 2328 
Q 3016 3291 2770 3770 
Q 2525 4250 2034 4250 
z
M 2034 4750 
Q 2819 4750 3233 4129 
Q 3647 3509 3647 2328 
Q 3647 1150 3233 529 
Q 2819 -91 2034 -91 
Q 1250 -91 836 529 
Q 422 1150 422 2328 
Q 422 3509 836 4129 
Q 1250 4750 2034 4750 
z
" transform="scale(0.015625)"/>
       </defs>
       <use xlink:href="#DejaVuSans-30"/>
      </g>
     </g>
    </g>
    <g id="xtick_6">
     <g id="line2d_6">
      <g>
       <use xlink:href="#me4f8a7e6be" x="522.874261" y="320.4" style="stroke: #000000; stroke-width: 0.8"/>
      </g>
     </g>
     <g id="text_6">
      <!-- 1 -->
      <g transform="translate(519.693011 334.998438) scale(0.1 -0.1)">
       <use xlink:href="#DejaVuSans-31"/>
      </g>
     </g>
    </g>
    <g id="xtick_7">
     <g id="line2d_7">
      <g>
       <use xlink:href="#me4f8a7e6be" x="602.906826" y="320.4" style="stroke: #000000; stroke-width: 0.8"/>
      </g>
     </g>
     <g id="text_7">
      <!-- 2 -->
      <g transform="translate(599.725576 334.998438) scale(0.1 -0.1)">
       <use xlink:href="#DejaVuSans-32"/>
      </g>
     </g>
    </g>
    <g id="xtick_8">
     <g id="line2d_8">
      <g>
       <use xlink:href="#me4f8a7e6be" x="682.93939" y="320.4" style="stroke: #000000; stroke-width: 0.8"/>
      </g>
     </g>
     <g id="text_8">
      <!-- 3 -->
      <g transform="translate(679.75814 334.998438) scale(0.1 -0.1)">
       <use xlink:href="#DejaVuSans-33"/>
      </g>
     </g>
    </g>
    <g id="xtick_9">
     <g id="line2d_9">
      <g>
       <use xlink:href="#me4f8a7e6be" x="762.971954" y="320.4" style="stroke: #000000; stroke-width: 0.8"/>
      </g>
     </g>
     <g id="text_9">
      <!-- 4 -->
      <g transform="translate(759.790704 334.998438) scale(0.1 -0.1)">
       <use xlink:href="#DejaVuSans-34"/>
      </g>
     </g>
    </g>
    <g id="text_10">
     <!-- delta_sweep -->
     <g transform="translate(411.614844 348.676562) scale(0.1 -0.1)">
      <defs>
       <path id="DejaVuSans-64" d="M 2906 2969 
L 2906 4863 
L 3481 4863 
L 3481 0 
L 2906 0 
L 2906 525 
Q 2725 213 2448 61 
Q 2172 -91 1784 -91 
Q 1150 -91 751 415 
Q 353 922 353 1747 
Q 353 2572 751 3078 
Q 1150 3584 1784 3584 
Q 2172 3584 2448 3432 
Q 2725 3281 2906 2969 
z
M 947 1747 
Q 947 1113 1208 752 
Q 1469 391 1925 391 
Q 2381 391 2643 752 
Q 2906 1113 2906 1747 
Q 2906 2381 2643 2742 
Q 2381 3103 1925 3103 
Q 1469 3103 1208 2742 
Q 947 2381 947 1747 
z
" transform="scale(0.015625)"/>
       <path id="DejaVuSans-65" d="M 3597 1894 
L 3597 1613 
L 953 1613 
Q 991 1019 1311 708 
Q 1631 397 2203 397 
Q 2534 397 2845 478 
Q 3156 559 3463 722 
L 3463 178 
Q 3153 47 2828 -22 
Q 2503 -91 2169 -91 
Q 1331 -91 842 396 
Q 353 884 353 1716 
Q 353 2575 817 3079 
Q 1281 3584 2069 3584 
Q 2775 3584 3186 3129 
Q 3597 2675 3597 1894 
z
M 3022 2063 
Q 3016 2534 2758 2815 
Q 2500 3097 2075 3097 
Q 1594 3097 1305 2825 
Q 1016 2553 972 2059 
L 3022 2063 
z
" transform="scale(0.015625)"/>
       <path id="DejaVuSans-6c" d="M 603 4863 
L 1178 4863 
L 1178 0 
L 603 0 
L 603 4863 
z
" transform="scale(0.015625)"/>
       <path id="DejaVuSans-74" d="M 1172 4494 
L 1172 3500 
L 2356 3500 
L 2356 3053 
L 1172 3053 
L 1172 1153 
Q 1172 725 1289 603 
Q 1406 481 1766 481 
L 2356 481 
L 2356 0 
L 1766 0 
Q 1100 0 847 248 
Q 594 497 594 1153 
L 594 3053 
L 172 3053 
L 172 3500 
L 594 3500 
L 594 4494 
L 1172 4494 
z
" transform="scale(0.015625)"/>
       <path id="DejaVuSans-61" d="M 2194 1759 
Q 1497 1759 1228 1600 
Q 959 1441 959 1056 
Q 959 750 1161 570 
Q 1363 391 1709 391 
Q 2188 391 2477 730 
Q 2766 1069 2766 1631 
L 2766 1759 
L 2194 1759 
z
M 3341 1997 
L 3341 0 
L 2766 0 
L 2766 531 
Q 2569 213 2275 61 
Q 1981 -91 1556 -91 
Q 1019 -91 701 211 
Q 384 513 384 1019 
Q 384 1609 779 1909 
Q 1175 2209 1959 2209 
L 2766 2209 
L 2766 2266 
Q 2766 2663 2505 2880 
Q 2244 3097 1772 3097 
Q 1472 3097 1187 3025 
Q 903 2953 641 2809 
L 641 3341 
Q 956 3463 1253 3523 
Q 1550 3584 1831 3584 
Q 2591 3584 2966 3190 
Q 3341 2797 3341 1997 
z
" transform="scale(0.015625)"/>
       <path id="DejaVuSans-5f" d="M 3263 -1063 
L 3263 -1509 
L -63 -1509 
L -63 -1063 
L 3263 -1063 
z
" transform="scale(0.015625)"/>
       <path id="DejaVuSans-73" d="M 2834 3397 
L 2834 2853 
Q 2591 2978 2328 3040 
Q 2066 3103 1784 3103 
Q 1356 3103 1142 2972 
Q 928 2841 928 2578 
Q 928 2378 1081 2264 
Q 1234 2150 1697 2047 
L 1894 2003 
Q 2506 1872 2764 1633 
Q 3022 1394 3022 966 
Q 3022 478 2636 193 
Q 2250 -91 1575 -91 
Q 1294 -91 989 -36 
Q 684 19 347 128 
L 347 722 
Q 666 556 975 473 
Q 1284 391 1588 391 
Q 1994 391 2212 530 
Q 2431 669 2431 922 
Q 2431 1156 2273 1281 
Q 2116 1406 1581 1522 
L 1381 1569 
Q 847 1681 609 1914 
Q 372 2147 372 2553 
Q 372 3047 722 3315 
Q 1072 3584 1716 3584 
Q 2034 3584 2315 3537 
Q 2597 3491 2834 3397 
z
" transform="scale(0.015625)"/>
       <path id="DejaVuSans-77" d="M 269 3500 
L 844 3500 
L 1563 769 
L 2278 3500 
L 2956 3500 
L 3675 769 
L 4391 3500 
L 4966 3500 
L 4050 0 
L 3372 0 
L 2619 2869 
L 1863 0 
L 1184 0 
L 269 3500 
z
" transform="scale(0.015625)"/>
       <path id="DejaVuSans-70" d="M 1159 525 
L 1159 -1331 
L 581 -1331 
L 581 3500 
L 1159 3500 
L 1159 2969 
Q 1341 3281 1617 3432 
Q 1894 3584 2278 3584 
Q 2916 3584 3314 3078 
Q 3713 2572 3713 1747 
Q 3713 922 3314 415 
Q 2916 -91 2278 -91 
Q 1894 -91 1617 61 
Q 1341 213 1159 525 
z
M 3116 1747 
Q 3116 2381 2855 2742 
Q 2594 3103 2138 3103 
Q 1681 3103 1420 2742 
Q 1159 2381 1159 1747 
Q 1159 1113 1420 752 
Q 1681 391 2138 391 
Q 2594 391 2855 752 
Q 3116 1113 3116 1747 
z
" transform="scale(0.015625)"/>
      </defs>
      <use xlink:href="#DejaVuSans-64"/>
      <use xlink:href="#DejaVuSans-65" x="63.476562"/>
      <use xlink:href="#DejaVuSans-6c" x="125"/>
      <use xlink:href="#DejaVuSans-74" x="152.783203"/>
      <use xlink:href="#DejaVuSans-61" x="191.992188"/>
      <use xlink:href="#DejaVuSans-5f" x="253.271484"/>
      <use xlink:href="#DejaVuSans-73" x="303.271484"/>
      <use xlink:href="#DejaVuSans-77" x="355.371094"/>
      <use xlink:href="#DejaVuSans-65" x="437.158203"/>
      <use xlink:href="#DejaVuSans-65" x="498.681641"/>
      <use xlink:href="#DejaVuSans-70" x="560.205078"/>
     </g>
    </g>
    <g id="text_11">
     <!-- 1e6 -->
     <g transform="translate(758.721875 347.676562) scale(0.1 -0.1)">
      <defs>
       <path id="DejaVuSans-36" d="M 2113 2584 
Q 1688 2584 1439 2293 
Q 1191 2003 1191 1497 
Q 1191 994 1439 701 
Q 1688 409 2113 409 
Q 2538 409 2786 701 
Q 3034 994 3034 1497 
Q 3034 2003 2786 2293 
Q 2538 2584 2113 2584 
z
M 3366 4563 
L 3366 3988 
Q 3128 4100 2886 4159 
Q 2644 4219 2406 4219 
Q 1781 4219 1451 3797 
Q 1122 3375 1075 2522 
Q 1259 2794 1537 2939 
Q 1816 3084 2150 3084 
Q 2853 3084 3261 2657 
Q 3669 2231 3669 1497 
Q 3669 778 3244 343 
Q 2819 -91 2113 -91 
Q 1303 -91 875 529 
Q 447 1150 447 2328 
Q 447 3434 972 4092 
Q 1497 4750 2381 4750 
Q 2619 4750 2861 4703 
Q 3103 4656 3366 4563 
z
" transform="scale(0.015625)"/>
      </defs>
      <use xlink:href="#DejaVuSans-31"/>
      <use xlink:href="#DejaVuSans-65" x="63.623047"/>
      <use xlink:href="#DejaVuSans-36" x="125.146484"/>
     </g>
    </g>
   </g>
   <g id="matplotlib.axis_2">
    <g id="ytick_1">
     <g id="line2d_10">
      <defs>
       <path id="m86332ac3df" d="M 0 0 
L -3.5 0 
" style="stroke: #000000; stroke-width: 0.8"/>
      </defs>
      <g>
       <use xlink:href="#m86332ac3df" x="108" y="320.4" style="stroke: #000000; stroke-width: 0.8"/>
      </g>
     </g>
     <g id="text_12">
      <!-- 0 -->
      <g transform="translate(94.6375 324.199219) scale(0.1 -0.1)">
       <use xlink:href="#DejaVuSans-30"/>
      </g>
     </g>
    </g>
    <g id="ytick_2">
     <g id="line2d_11">
      <g>
       <use xlink:href="#m86332ac3df" x="108" y="281.574475" style="stroke: #000000; stroke-width: 0.8"/>
      </g>
     </g>
     <g id="text_13">
      <!-- 1 -->
      <g transform="translate(94.6375 285.373694) scale(0.1 -0.1)">
       <use xlink:href="#DejaVuSans-31"/>
      </g>
     </g>
    </g>
    <g id="ytick_3">
     <g id="line2d_12">
      <g>
       <use xlink:href="#m86332ac3df" x="108" y="242.74895" style="stroke: #000000; stroke-width: 0.8"/>
      </g>
     </g>
     <g id="text_14">
      <!-- 2 -->
      <g transform="translate(94.6375 246.548168) scale(0.1 -0.1)">
       <use xlink:href="#DejaVuSans-32"/>
      </g>
     </g>
    </g>
    <g id="ytick_4">
     <g id="line2d_13">
      <g>
       <use xlink:href="#m86332ac3df" x="108" y="203.923424" style="stroke: #000000; stroke-width: 0.8"/>
      </g>
     </g>
     <g id="text_15">
      <!-- 3 -->
      <g transform="translate(94.6375 207.722643) scale(0.1 -0.1)">
       <use xlink:href="#DejaVuSans-33"/>
      </g>
     </g>
    </g>
    <g id="ytick_5">
     <g id="line2d_14">
      <g>
       <use xlink:href="#m86332ac3df" x="108" y="165.097899" style="stroke: #000000; stroke-width: 0.8"/>
      </g>
     </g>
     <g id="text_16">
      <!-- 4 -->
      <g transform="translate(94.6375 168.897118) scale(0.1 -0.1)">
       <use xlink:href="#DejaVuSans-34"/>
      </g>
     </g>
    </g>
    <g id="ytick_6">
     <g id="line2d_15">
      <g>
       <use xlink:href="#m86332ac3df" x="108" y="126.272374" style="stroke: #000000; stroke-width: 0.8"/>
      </g>
     </g>
     <g id="text_17">
      <!-- 5 -->
      <g transform="translate(94.6375 130.071593) scale(0.1 -0.1)">
       <defs>
        <path id="DejaVuSans-35" d="M 691 4666 
L 3169 4666 
L 3169 4134 
L 1269 4134 
L 1269 2991 
Q 1406 3038 1543 3061 
Q 1681 3084 1819 3084 
Q 2600 3084 3056 2656 
Q 3513 2228 3513 1497 
Q 3513 744 3044 326 
Q 2575 -91 1722 -91 
Q 1428 -91 1123 -41 
Q 819 9 494 109 
L 494 744 
Q 775 591 1075 516 
Q 1375 441 1709 441 
Q 2250 441 2565 725 
Q 2881 1009 2881 1497 
Q 2881 1984 2565 2268 
Q 2250 2553 1709 2553 
Q 1456 2553 1204 2497 
Q 953 2441 691 2322 
L 691 4666 
z
" transform="scale(0.015625)"/>
       </defs>
       <use xlink:href="#DejaVuSans-35"/>
      </g>
     </g>
    </g>
    <g id="ytick_7">
     <g id="line2d_16">
      <g>
       <use xlink:href="#m86332ac3df" x="108" y="87.446849" style="stroke: #000000; stroke-width: 0.8"/>
      </g>
     </g>
     <g id="text_18">
      <!-- 6 -->
      <g transform="translate(94.6375 91.246068) scale(0.1 -0.1)">
       <use xlink:href="#DejaVuSans-36"/>
      </g>
     </g>
    </g>
    <g id="ytick_8">
     <g id="line2d_17">
      <g>
       <use xlink:href="#m86332ac3df" x="108" y="48.621324" style="stroke: #000000; stroke-width: 0.8"/>
      </g>
     </g>
     <g id="text_19">
      <!-- 7 -->
      <g transform="translate(94.6375 52.420542) scale(0.1 -0.1)">
       <defs>
        <path id="DejaVuSans-37" d="M 525 4666 
L 3525 4666 
L 3525 4397 
L 1831 0 
L 1172 0 
L 2766 4134 
L 525 4134 
L 525 4666 
z
" transform="scale(0.015625)"/>
       </defs>
       <use xlink:href="#DejaVuSans-37"/>
      </g>
     </g>
    </g>
    <g id="text_20">
     <!-- Density -->
     <g transform="translate(88.557812 200.808594) rotate(-90) scale(0.1 -0.1)">
      <defs>
       <path id="DejaVuSans-44" d="M 1259 4147 
L 1259 519 
L 2022 519 
Q 2988 519 3436 956 
Q 3884 1394 3884 2338 
Q 3884 3275 3436 3711 
Q 2988 4147 2022 4147 
L 1259 4147 
z
M 628 4666 
L 1925 4666 
Q 3281 4666 3915 4102 
Q 4550 3538 4550 2338 
Q 4550 1131 3912 565 
Q 3275 0 1925 0 
L 628 0 
L 628 4666 
z
" transform="scale(0.015625)"/>
       <path id="DejaVuSans-6e" d="M 3513 2113 
L 3513 0 
L 2938 0 
L 2938 2094 
Q 2938 2591 2744 2837 
Q 2550 3084 2163 3084 
Q 1697 3084 1428 2787 
Q 1159 2491 1159 1978 
L 1159 0 
L 581 0 
L 581 3500 
L 1159 3500 
L 1159 2956 
Q 1366 3272 1645 3428 
Q 1925 3584 2291 3584 
Q 2894 3584 3203 3211 
Q 3513 2838 3513 2113 
z
" transform="scale(0.015625)"/>
       <path id="DejaVuSans-69" d="M 603 3500 
L 1178 3500 
L 1178 0 
L 603 0 
L 603 3500 
z
M 603 4863 
L 1178 4863 
L 1178 4134 
L 603 4134 
L 603 4863 
z
" transform="scale(0.015625)"/>
       <path id="DejaVuSans-79" d="M 2059 -325 
Q 1816 -950 1584 -1140 
Q 1353 -1331 966 -1331 
L 506 -1331 
L 506 -850 
L 844 -850 
Q 1081 -850 1212 -737 
Q 1344 -625 1503 -206 
L 1606 56 
L 191 3500 
L 800 3500 
L 1894 763 
L 2988 3500 
L 3597 3500 
L 2059 -325 
z
" transform="scale(0.015625)"/>
      </defs>
      <use xlink:href="#DejaVuSans-44"/>
      <use xlink:href="#DejaVuSans-65" x="77.001953"/>
      <use xlink:href="#DejaVuSans-6e" x="138.525391"/>
      <use xlink:href="#DejaVuSans-73" x="201.904297"/>
      <use xlink:href="#DejaVuSans-69" x="254.003906"/>
      <use xlink:href="#DejaVuSans-74" x="281.787109"/>
      <use xlink:href="#DejaVuSans-79" x="320.996094"/>
     </g>
    </g>
    <g id="text_21">
     <!-- 1e−7 -->
     <g transform="translate(108 40.2) scale(0.1 -0.1)">
      <use xlink:href="#DejaVuSans-31"/>
      <use xlink:href="#DejaVuSans-65" x="63.623047"/>
      <use xlink:href="#DejaVuSans-2212" x="125.146484"/>
      <use xlink:href="#DejaVuSans-37" x="208.935547"/>
     </g>
    </g>
   </g>
   <g id="patch_3">
    <path d="M 108 320.4 
L 108 43.2 
" style="fill: none; stroke: #000000; stroke-width: 0.8; stroke-linejoin: miter; stroke-linecap: square"/>
   </g>
   <g id="patch_4">
    <path d="M 777.6 320.4 
L 777.6 43.2 
" style="fill: none; stroke: #000000; stroke-width: 0.8; stroke-linejoin: miter; stroke-linecap: square"/>
   </g>
   <g id="patch_5">
    <path d="M 108 320.4 
L 777.6 320.4 
" style="fill: none; stroke: #000000; stroke-width: 0.8; stroke-linejoin: miter; stroke-linecap: square"/>
   </g>
   <g id="patch_6">
    <path d="M 108 43.2 
L 777.6 43.2 
" style="fill: none; stroke: #000000; stroke-width: 0.8; stroke-linejoin: miter; stroke-linecap: square"/>
   </g>
   <g id="text_22">
    <!-- Fst Delta Distribution from Sweep Actual -->
    <g transform="translate(320.661563 37.2) scale(0.12 -0.12)">
     <defs>
      <path id="DejaVuSans-46" d="M 628 4666 
L 3309 4666 
L 3309 4134 
L 1259 4134 
L 1259 2759 
L 3109 2759 
L 3109 2228 
L 1259 2228 
L 1259 0 
L 628 0 
L 628 4666 
z
" transform="scale(0.015625)"/>
      <path id="DejaVuSans-20" transform="scale(0.015625)"/>
      <path id="DejaVuSans-72" d="M 2631 2963 
Q 2534 3019 2420 3045 
Q 2306 3072 2169 3072 
Q 1681 3072 1420 2755 
Q 1159 2438 1159 1844 
L 1159 0 
L 581 0 
L 581 3500 
L 1159 3500 
L 1159 2956 
Q 1341 3275 1631 3429 
Q 1922 3584 2338 3584 
Q 2397 3584 2469 3576 
Q 2541 3569 2628 3553 
L 2631 2963 
z
" transform="scale(0.015625)"/>
      <path id="DejaVuSans-62" d="M 3116 1747 
Q 3116 2381 2855 2742 
Q 2594 3103 2138 3103 
Q 1681 3103 1420 2742 
Q 1159 2381 1159 1747 
Q 1159 1113 1420 752 
Q 1681 391 2138 391 
Q 2594 391 2855 752 
Q 3116 1113 3116 1747 
z
M 1159 2969 
Q 1341 3281 1617 3432 
Q 1894 3584 2278 3584 
Q 2916 3584 3314 3078 
Q 3713 2572 3713 1747 
Q 3713 922 3314 415 
Q 2916 -91 2278 -91 
Q 1894 -91 1617 61 
Q 1341 213 1159 525 
L 1159 0 
L 581 0 
L 581 4863 
L 1159 4863 
L 1159 2969 
z
" transform="scale(0.015625)"/>
      <path id="DejaVuSans-75" d="M 544 1381 
L 544 3500 
L 1119 3500 
L 1119 1403 
Q 1119 906 1312 657 
Q 1506 409 1894 409 
Q 2359 409 2629 706 
Q 2900 1003 2900 1516 
L 2900 3500 
L 3475 3500 
L 3475 0 
L 2900 0 
L 2900 538 
Q 2691 219 2414 64 
Q 2138 -91 1772 -91 
Q 1169 -91 856 284 
Q 544 659 544 1381 
z
M 1991 3584 
L 1991 3584 
z
" transform="scale(0.015625)"/>
      <path id="DejaVuSans-6f" d="M 1959 3097 
Q 1497 3097 1228 2736 
Q 959 2375 959 1747 
Q 959 1119 1226 758 
Q 1494 397 1959 397 
Q 2419 397 2687 759 
Q 2956 1122 2956 1747 
Q 2956 2369 2687 2733 
Q 2419 3097 1959 3097 
z
M 1959 3584 
Q 2709 3584 3137 3096 
Q 3566 2609 3566 1747 
Q 3566 888 3137 398 
Q 2709 -91 1959 -91 
Q 1206 -91 779 398 
Q 353 888 353 1747 
Q 353 2609 779 3096 
Q 1206 3584 1959 3584 
z
" transform="scale(0.015625)"/>
      <path id="DejaVuSans-66" d="M 2375 4863 
L 2375 4384 
L 1825 4384 
Q 1516 4384 1395 4259 
Q 1275 4134 1275 3809 
L 1275 3500 
L 2222 3500 
L 2222 3053 
L 1275 3053 
L 1275 0 
L 697 0 
L 697 3053 
L 147 3053 
L 147 3500 
L 697 3500 
L 697 3744 
Q 697 4328 969 4595 
Q 1241 4863 1831 4863 
L 2375 4863 
z
" transform="scale(0.015625)"/>
      <path id="DejaVuSans-6d" d="M 3328 2828 
Q 3544 3216 3844 3400 
Q 4144 3584 4550 3584 
Q 5097 3584 5394 3201 
Q 5691 2819 5691 2113 
L 5691 0 
L 5113 0 
L 5113 2094 
Q 5113 2597 4934 2840 
Q 4756 3084 4391 3084 
Q 3944 3084 3684 2787 
Q 3425 2491 3425 1978 
L 3425 0 
L 2847 0 
L 2847 2094 
Q 2847 2600 2669 2842 
Q 2491 3084 2119 3084 
Q 1678 3084 1418 2786 
Q 1159 2488 1159 1978 
L 1159 0 
L 581 0 
L 581 3500 
L 1159 3500 
L 1159 2956 
Q 1356 3278 1631 3431 
Q 1906 3584 2284 3584 
Q 2666 3584 2933 3390 
Q 3200 3197 3328 2828 
z
" transform="scale(0.015625)"/>
      <path id="DejaVuSans-53" d="M 3425 4513 
L 3425 3897 
Q 3066 4069 2747 4153 
Q 2428 4238 2131 4238 
Q 1616 4238 1336 4038 
Q 1056 3838 1056 3469 
Q 1056 3159 1242 3001 
Q 1428 2844 1947 2747 
L 2328 2669 
Q 3034 2534 3370 2195 
Q 3706 1856 3706 1288 
Q 3706 609 3251 259 
Q 2797 -91 1919 -91 
Q 1588 -91 1214 -16 
Q 841 59 441 206 
L 441 856 
Q 825 641 1194 531 
Q 1563 422 1919 422 
Q 2459 422 2753 634 
Q 3047 847 3047 1241 
Q 3047 1584 2836 1778 
Q 2625 1972 2144 2069 
L 1759 2144 
Q 1053 2284 737 2584 
Q 422 2884 422 3419 
Q 422 4038 858 4394 
Q 1294 4750 2059 4750 
Q 2388 4750 2728 4690 
Q 3069 4631 3425 4513 
z
" transform="scale(0.015625)"/>
      <path id="DejaVuSans-41" d="M 2188 4044 
L 1331 1722 
L 3047 1722 
L 2188 4044 
z
M 1831 4666 
L 2547 4666 
L 4325 0 
L 3669 0 
L 3244 1197 
L 1141 1197 
L 716 0 
L 50 0 
L 1831 4666 
z
" transform="scale(0.015625)"/>
      <path id="DejaVuSans-63" d="M 3122 3366 
L 3122 2828 
Q 2878 2963 2633 3030 
Q 2388 3097 2138 3097 
Q 1578 3097 1268 2742 
Q 959 2388 959 1747 
Q 959 1106 1268 751 
Q 1578 397 2138 397 
Q 2388 397 2633 464 
Q 2878 531 3122 666 
L 3122 134 
Q 2881 22 2623 -34 
Q 2366 -91 2075 -91 
Q 1284 -91 818 406 
Q 353 903 353 1747 
Q 353 2603 823 3093 
Q 1294 3584 2113 3584 
Q 2378 3584 2631 3529 
Q 2884 3475 3122 3366 
z
" transform="scale(0.015625)"/>
     </defs>
     <use xlink:href="#DejaVuSans-46"/>
     <use xlink:href="#DejaVuSans-73" x="57.519531"/>
     <use xlink:href="#DejaVuSans-74" x="109.619141"/>
     <use xlink:href="#DejaVuSans-20" x="148.828125"/>
     <use xlink:href="#DejaVuSans-44" x="180.615234"/>
     <use xlink:href="#DejaVuSans-65" x="257.617188"/>
     <use xlink:href="#DejaVuSans-6c" x="319.140625"/>
     <use xlink:href="#DejaVuSans-74" x="346.923828"/>
     <use xlink:href="#DejaVuSans-61" x="386.132812"/>
     <use xlink:href="#DejaVuSans-20" x="447.412109"/>
     <use xlink:href="#DejaVuSans-44" x="479.199219"/>
     <use xlink:href="#DejaVuSans-69" x="556.201172"/>
     <use xlink:href="#DejaVuSans-73" x="583.984375"/>
     <use xlink:href="#DejaVuSans-74" x="636.083984"/>
     <use xlink:href="#DejaVuSans-72" x="675.292969"/>
     <use xlink:href="#DejaVuSans-69" x="716.40625"/>
     <use xlink:href="#DejaVuSans-62" x="744.189453"/>
     <use xlink:href="#DejaVuSans-75" x="807.666016"/>
     <use xlink:href="#DejaVuSans-74" x="871.044922"/>
     <use xlink:href="#DejaVuSans-69" x="910.253906"/>
     <use xlink:href="#DejaVuSans-6f" x="938.037109"/>
     <use xlink:href="#DejaVuSans-6e" x="999.21875"/>
     <use xlink:href="#DejaVuSans-20" x="1062.597656"/>
     <use xlink:href="#DejaVuSans-66" x="1094.384766"/>
     <use xlink:href="#DejaVuSans-72" x="1129.589844"/>
     <use xlink:href="#DejaVuSans-6f" x="1168.453125"/>
     <use xlink:href="#DejaVuSans-6d" x="1229.634766"/>
     <use xlink:href="#DejaVuSans-20" x="1327.046875"/>
     <use xlink:href="#DejaVuSans-53" x="1358.833984"/>
     <use xlink:href="#DejaVuSans-77" x="1422.310547"/>
     <use xlink:href="#DejaVuSans-65" x="1504.097656"/>
     <use xlink:href="#DejaVuSans-65" x="1565.621094"/>
     <use xlink:href="#DejaVuSans-70" x="1627.144531"/>
     <use xlink:href="#DejaVuSans-20" x="1690.621094"/>
     <use xlink:href="#DejaVuSans-41" x="1722.408203"/>
     <use xlink:href="#DejaVuSans-63" x="1789.066406"/>
     <use xlink:href="#DejaVuSans-74" x="1844.046875"/>
     <use xlink:href="#DejaVuSans-75" x="1883.255859"/>
     <use xlink:href="#DejaVuSans-61" x="1946.634766"/>
     <use xlink:href="#DejaVuSans-6c" x="2007.914062"/>
    </g>
   </g>
   <g id="legend_1">
    <g id="patch_7">
     <path d="M 633.575 109.9125 
L 770.6 109.9125 
Q 772.6 109.9125 772.6 107.9125 
L 772.6 50.2 
Q 772.6 48.2 770.6 48.2 
L 633.575 48.2 
Q 631.575 48.2 631.575 50.2 
L 631.575 107.9125 
Q 631.575 109.9125 633.575 109.9125 
z
" style="fill: #ffffff; opacity: 0.8; stroke: #cccccc; stroke-linejoin: miter"/>
    </g>
    <g id="patch_8">
     <path d="M 635.575 59.798437 
L 655.575 59.798437 
L 655.575 52.798437 
L 635.575 52.798437 
z
" style="fill: #ff00ff; fill-opacity: 0.25; stroke: #ff00ff; stroke-linejoin: miter"/>
    </g>
    <g id="text_23">
     <!-- Stochastic Backtrace -->
     <g transform="translate(663.575 59.798437) scale(0.1 -0.1)">
      <defs>
       <path id="DejaVuSans-68" d="M 3513 2113 
L 3513 0 
L 2938 0 
L 2938 2094 
Q 2938 2591 2744 2837 
Q 2550 3084 2163 3084 
Q 1697 3084 1428 2787 
Q 1159 2491 1159 1978 
L 1159 0 
L 581 0 
L 581 4863 
L 1159 4863 
L 1159 2956 
Q 1366 3272 1645 3428 
Q 1925 3584 2291 3584 
Q 2894 3584 3203 3211 
Q 3513 2838 3513 2113 
z
" transform="scale(0.015625)"/>
       <path id="DejaVuSans-42" d="M 1259 2228 
L 1259 519 
L 2272 519 
Q 2781 519 3026 730 
Q 3272 941 3272 1375 
Q 3272 1813 3026 2020 
Q 2781 2228 2272 2228 
L 1259 2228 
z
M 1259 4147 
L 1259 2741 
L 2194 2741 
Q 2656 2741 2882 2914 
Q 3109 3088 3109 3444 
Q 3109 3797 2882 3972 
Q 2656 4147 2194 4147 
L 1259 4147 
z
M 628 4666 
L 2241 4666 
Q 2963 4666 3353 4366 
Q 3744 4066 3744 3513 
Q 3744 3084 3544 2831 
Q 3344 2578 2956 2516 
Q 3422 2416 3680 2098 
Q 3938 1781 3938 1306 
Q 3938 681 3513 340 
Q 3088 0 2303 0 
L 628 0 
L 628 4666 
z
" transform="scale(0.015625)"/>
       <path id="DejaVuSans-6b" d="M 581 4863 
L 1159 4863 
L 1159 1991 
L 2875 3500 
L 3609 3500 
L 1753 1863 
L 3688 0 
L 2938 0 
L 1159 1709 
L 1159 0 
L 581 0 
L 581 4863 
z
" transform="scale(0.015625)"/>
      </defs>
      <use xlink:href="#DejaVuSans-53"/>
      <use xlink:href="#DejaVuSans-74" x="63.476562"/>
      <use xlink:href="#DejaVuSans-6f" x="102.685547"/>
      <use xlink:href="#DejaVuSans-63" x="163.867188"/>
      <use xlink:href="#DejaVuSans-68" x="218.847656"/>
      <use xlink:href="#DejaVuSans-61" x="282.226562"/>
      <use xlink:href="#DejaVuSans-73" x="343.505859"/>
      <use xlink:href="#DejaVuSans-74" x="395.605469"/>
      <use xlink:href="#DejaVuSans-69" x="434.814453"/>
      <use xlink:href="#DejaVuSans-63" x="462.597656"/>
      <use xlink:href="#DejaVuSans-20" x="517.578125"/>
      <use xlink:href="#DejaVuSans-42" x="549.365234"/>
      <use xlink:href="#DejaVuSans-61" x="617.96875"/>
      <use xlink:href="#DejaVuSans-63" x="679.248047"/>
      <use xlink:href="#DejaVuSans-6b" x="734.228516"/>
      <use xlink:href="#DejaVuSans-74" x="792.138672"/>
      <use xlink:href="#DejaVuSans-72" x="831.347656"/>
      <use xlink:href="#DejaVuSans-61" x="872.460938"/>
      <use xlink:href="#DejaVuSans-63" x="933.740234"/>
      <use xlink:href="#DejaVuSans-65" x="988.720703"/>
     </g>
    </g>
    <g id="patch_9">
     <path d="M 635.575 74.476562 
L 655.575 74.476562 
L 655.575 67.476562 
L 635.575 67.476562 
z
" style="fill: #1e90ff; fill-opacity: 0.25; stroke: #1e90ff; stroke-linejoin: miter"/>
    </g>
    <g id="text_24">
     <!-- Viterbi Path -->
     <g transform="translate(663.575 74.476562) scale(0.1 -0.1)">
      <defs>
       <path id="DejaVuSans-56" d="M 1831 0 
L 50 4666 
L 709 4666 
L 2188 738 
L 3669 4666 
L 4325 4666 
L 2547 0 
L 1831 0 
z
" transform="scale(0.015625)"/>
       <path id="DejaVuSans-50" d="M 1259 4147 
L 1259 2394 
L 2053 2394 
Q 2494 2394 2734 2622 
Q 2975 2850 2975 3272 
Q 2975 3691 2734 3919 
Q 2494 4147 2053 4147 
L 1259 4147 
z
M 628 4666 
L 2053 4666 
Q 2838 4666 3239 4311 
Q 3641 3956 3641 3272 
Q 3641 2581 3239 2228 
Q 2838 1875 2053 1875 
L 1259 1875 
L 1259 0 
L 628 0 
L 628 4666 
z
" transform="scale(0.015625)"/>
      </defs>
      <use xlink:href="#DejaVuSans-56"/>
      <use xlink:href="#DejaVuSans-69" x="66.158203"/>
      <use xlink:href="#DejaVuSans-74" x="93.941406"/>
      <use xlink:href="#DejaVuSans-65" x="133.150391"/>
      <use xlink:href="#DejaVuSans-72" x="194.673828"/>
      <use xlink:href="#DejaVuSans-62" x="235.787109"/>
      <use xlink:href="#DejaVuSans-69" x="299.263672"/>
      <use xlink:href="#DejaVuSans-20" x="327.046875"/>
      <use xlink:href="#DejaVuSans-50" x="358.833984"/>
      <use xlink:href="#DejaVuSans-61" x="414.636719"/>
      <use xlink:href="#DejaVuSans-74" x="475.916016"/>
      <use xlink:href="#DejaVuSans-68" x="515.125"/>
     </g>
    </g>
    <g id="patch_10">
     <path d="M 635.575 89.154687 
L 655.575 89.154687 
L 655.575 82.154687 
L 635.575 82.154687 
z
" style="fill: #9400d3; fill-opacity: 0.25; stroke: #9400d3; stroke-linejoin: miter"/>
    </g>
    <g id="text_25">
     <!-- SWIF(r) 1-Stat -->
     <g transform="translate(663.575 89.154687) scale(0.1 -0.1)">
      <defs>
       <path id="DejaVuSans-57" d="M 213 4666 
L 850 4666 
L 1831 722 
L 2809 4666 
L 3519 4666 
L 4500 722 
L 5478 4666 
L 6119 4666 
L 4947 0 
L 4153 0 
L 3169 4050 
L 2175 0 
L 1381 0 
L 213 4666 
z
" transform="scale(0.015625)"/>
       <path id="DejaVuSans-49" d="M 628 4666 
L 1259 4666 
L 1259 0 
L 628 0 
L 628 4666 
z
" transform="scale(0.015625)"/>
       <path id="DejaVuSans-28" d="M 1984 4856 
Q 1566 4138 1362 3434 
Q 1159 2731 1159 2009 
Q 1159 1288 1364 580 
Q 1569 -128 1984 -844 
L 1484 -844 
Q 1016 -109 783 600 
Q 550 1309 550 2009 
Q 550 2706 781 3412 
Q 1013 4119 1484 4856 
L 1984 4856 
z
" transform="scale(0.015625)"/>
       <path id="DejaVuSans-29" d="M 513 4856 
L 1013 4856 
Q 1481 4119 1714 3412 
Q 1947 2706 1947 2009 
Q 1947 1309 1714 600 
Q 1481 -109 1013 -844 
L 513 -844 
Q 928 -128 1133 580 
Q 1338 1288 1338 2009 
Q 1338 2731 1133 3434 
Q 928 4138 513 4856 
z
" transform="scale(0.015625)"/>
       <path id="DejaVuSans-2d" d="M 313 2009 
L 1997 2009 
L 1997 1497 
L 313 1497 
L 313 2009 
z
" transform="scale(0.015625)"/>
      </defs>
      <use xlink:href="#DejaVuSans-53"/>
      <use xlink:href="#DejaVuSans-57" x="63.476562"/>
      <use xlink:href="#DejaVuSans-49" x="162.353516"/>
      <use xlink:href="#DejaVuSans-46" x="191.845703"/>
      <use xlink:href="#DejaVuSans-28" x="249.365234"/>
      <use xlink:href="#DejaVuSans-72" x="288.378906"/>
      <use xlink:href="#DejaVuSans-29" x="329.492188"/>
      <use xlink:href="#DejaVuSans-20" x="368.505859"/>
      <use xlink:href="#DejaVuSans-31" x="400.292969"/>
      <use xlink:href="#DejaVuSans-2d" x="463.916016"/>
      <use xlink:href="#DejaVuSans-53" x="500"/>
      <use xlink:href="#DejaVuSans-74" x="563.476562"/>
      <use xlink:href="#DejaVuSans-61" x="602.685547"/>
      <use xlink:href="#DejaVuSans-74" x="663.964844"/>
     </g>
    </g>
    <g id="patch_11">
     <path d="M 635.575 103.832812 
L 655.575 103.832812 
L 655.575 96.832812 
L 635.575 96.832812 
z
" style="fill: #0000ff; fill-opacity: 0.25; stroke: #0000ff; stroke-linejoin: miter"/>
    </g>
    <g id="text_26">
     <!-- SWIF(r) All-Stats -->
     <g transform="translate(663.575 103.832812) scale(0.1 -0.1)">
      <use xlink:href="#DejaVuSans-53"/>
      <use xlink:href="#DejaVuSans-57" x="63.476562"/>
      <use xlink:href="#DejaVuSans-49" x="162.353516"/>
      <use xlink:href="#DejaVuSans-46" x="191.845703"/>
      <use xlink:href="#DejaVuSans-28" x="249.365234"/>
      <use xlink:href="#DejaVuSans-72" x="288.378906"/>
      <use xlink:href="#DejaVuSans-29" x="329.492188"/>
      <use xlink:href="#DejaVuSans-20" x="368.505859"/>
      <use xlink:href="#DejaVuSans-41" x="400.292969"/>
      <use xlink:href="#DejaVuSans-6c" x="468.701172"/>
      <use xlink:href="#DejaVuSans-6c" x="496.484375"/>
      <use xlink:href="#DejaVuSans-2d" x="524.267578"/>
      <use xlink:href="#DejaVuSans-53" x="560.351562"/>
      <use xlink:href="#DejaVuSans-74" x="623.828125"/>
      <use xlink:href="#DejaVuSans-61" x="663.037109"/>
      <use xlink:href="#DejaVuSans-74" x="724.316406"/>
      <use xlink:href="#DejaVuSans-73" x="763.525391"/>
     </g>
    </g>
   </g>
  </g>
 </g>
 <defs>
  <clipPath id="pa5fc499862">
   <rect x="108" y="43.2" width="669.6" height="277.2"/>
  </clipPath>
 </defs>
</svg>
