<?xml version="1.0" encoding="utf-8" standalone="no"?>
<!DOCTYPE svg PUBLIC "-//W3C//DTD SVG 1.1//EN"
  "http://www.w3.org/Graphics/SVG/1.1/DTD/svg11.dtd">
<svg xmlns:xlink="http://www.w3.org/1999/xlink" width="864pt" height="360pt" viewBox="0 0 864 360" xmlns="http://www.w3.org/2000/svg" version="1.1">
 <metadata>
  <rdf:RDF xmlns:dc="http://purl.org/dc/elements/1.1/" xmlns:cc="http://creativecommons.org/ns#" xmlns:rdf="http://www.w3.org/1999/02/22-rdf-syntax-ns#">
   <cc:Work>
    <dc:type rdf:resource="http://purl.org/dc/dcmitype/StillImage"/>
    <dc:date>2024-06-01T10:56:00.258303</dc:date>
    <dc:format>image/svg+xml</dc:format>
    <dc:creator>
     <cc:Agent>
      <dc:title>Matplotlib v3.8.0, https://matplotlib.org/</dc:title>
     </cc:Agent>
    </dc:creator>
   </cc:Work>
  </rdf:RDF>
 </metadata>
 <defs>
  <style type="text/css">*{stroke-linejoin: round; stroke-linecap: butt}</style>
 </defs>
 <g id="figure_1">
  <g id="patch_1">
   <path d="M 0 360 
L 864 360 
L 864 0 
L 0 0 
z
" style="fill: #ffffff"/>
  </g>
  <g id="axes_1">
   <g id="patch_2">
    <path d="M 108 320.4 
L 777.6 320.4 
L 777.6 43.2 
L 108 43.2 
z
" style="fill: #ffffff"/>
   </g>
   <g id="PolyCollection_1">
    <defs>
     <path id="m7f20824335" d="M 205.174926 -39.682442 
L 205.174926 -39.6 
L 207.566684 -39.6 
L 209.958443 -39.6 
L 212.350201 -39.6 
L 214.74196 -39.6 
L 217.133719 -39.6 
L 219.525477 -39.6 
L 221.917236 -39.6 
L 224.308994 -39.6 
L 226.700753 -39.6 
L 229.092511 -39.6 
L 231.48427 -39.6 
L 233.876029 -39.6 
L 236.267787 -39.6 
L 238.659546 -39.6 
L 241.051304 -39.6 
L 243.443063 -39.6 
L 245.834822 -39.6 
L 248.22658 -39.6 
L 250.618339 -39.6 
L 253.010097 -39.6 
L 255.401856 -39.6 
L 257.793614 -39.6 
L 260.185373 -39.6 
L 262.577132 -39.6 
L 264.96889 -39.6 
L 267.360649 -39.6 
L 269.752407 -39.6 
L 272.144166 -39.6 
L 274.535924 -39.6 
L 276.927683 -39.6 
L 279.319442 -39.6 
L 281.7112 -39.6 
L 284.102959 -39.6 
L 286.494717 -39.6 
L 288.886476 -39.6 
L 291.278235 -39.6 
L 293.669993 -39.6 
L 296.061752 -39.6 
L 298.45351 -39.6 
L 300.845269 -39.6 
L 303.237027 -39.6 
L 305.628786 -39.6 
L 308.020545 -39.6 
L 310.412303 -39.6 
L 312.804062 -39.6 
L 315.19582 -39.6 
L 317.587579 -39.6 
L 319.979338 -39.6 
L 322.371096 -39.6 
L 324.762855 -39.6 
L 327.154613 -39.6 
L 329.546372 -39.6 
L 331.93813 -39.6 
L 334.329889 -39.6 
L 336.721648 -39.6 
L 339.113406 -39.6 
L 341.505165 -39.6 
L 343.896923 -39.6 
L 346.288682 -39.6 
L 348.68044 -39.6 
L 351.072199 -39.6 
L 353.463958 -39.6 
L 355.855716 -39.6 
L 358.247475 -39.6 
L 360.639233 -39.6 
L 363.030992 -39.6 
L 365.422751 -39.6 
L 367.814509 -39.6 
L 370.206268 -39.6 
L 372.598026 -39.6 
L 374.989785 -39.6 
L 377.381543 -39.6 
L 379.773302 -39.6 
L 382.165061 -39.6 
L 384.556819 -39.6 
L 386.948578 -39.6 
L 389.340336 -39.6 
L 391.732095 -39.6 
L 394.123854 -39.6 
L 396.515612 -39.6 
L 398.907371 -39.6 
L 401.299129 -39.6 
L 403.690888 -39.6 
L 406.082646 -39.6 
L 408.474405 -39.6 
L 410.866164 -39.6 
L 413.257922 -39.6 
L 415.649681 -39.6 
L 418.041439 -39.6 
L 420.433198 -39.6 
L 422.824956 -39.6 
L 425.216715 -39.6 
L 427.608474 -39.6 
L 430.000232 -39.6 
L 432.391991 -39.6 
L 434.783749 -39.6 
L 437.175508 -39.6 
L 439.567267 -39.6 
L 441.959025 -39.6 
L 444.350784 -39.6 
L 446.742542 -39.6 
L 449.134301 -39.6 
L 451.526059 -39.6 
L 453.917818 -39.6 
L 456.309577 -39.6 
L 458.701335 -39.6 
L 461.093094 -39.6 
L 463.484852 -39.6 
L 465.876611 -39.6 
L 468.26837 -39.6 
L 470.660128 -39.6 
L 473.051887 -39.6 
L 475.443645 -39.6 
L 477.835404 -39.6 
L 480.227162 -39.6 
L 482.618921 -39.6 
L 485.01068 -39.6 
L 487.402438 -39.6 
L 489.794197 -39.6 
L 492.185955 -39.6 
L 494.577714 -39.6 
L 496.969472 -39.6 
L 499.361231 -39.6 
L 501.75299 -39.6 
L 504.144748 -39.6 
L 506.536507 -39.6 
L 508.928265 -39.6 
L 511.320024 -39.6 
L 513.711783 -39.6 
L 516.103541 -39.6 
L 518.4953 -39.6 
L 520.887058 -39.6 
L 523.278817 -39.6 
L 525.670575 -39.6 
L 528.062334 -39.6 
L 530.454093 -39.6 
L 532.845851 -39.6 
L 535.23761 -39.6 
L 537.629368 -39.6 
L 540.021127 -39.6 
L 542.412886 -39.6 
L 544.804644 -39.6 
L 547.196403 -39.6 
L 549.588161 -39.6 
L 551.97992 -39.6 
L 554.371678 -39.6 
L 556.763437 -39.6 
L 559.155196 -39.6 
L 561.546954 -39.6 
L 563.938713 -39.6 
L 566.330471 -39.6 
L 568.72223 -39.6 
L 571.113988 -39.6 
L 573.505747 -39.6 
L 575.897506 -39.6 
L 578.289264 -39.6 
L 580.681023 -39.6 
L 583.072781 -39.6 
L 585.46454 -39.6 
L 587.856299 -39.6 
L 590.248057 -39.6 
L 592.639816 -39.6 
L 595.031574 -39.6 
L 597.423333 -39.6 
L 599.815091 -39.6 
L 602.20685 -39.6 
L 604.598609 -39.6 
L 606.990367 -39.6 
L 609.382126 -39.6 
L 611.773884 -39.6 
L 614.165643 -39.6 
L 616.557402 -39.6 
L 618.94916 -39.6 
L 621.340919 -39.6 
L 623.732677 -39.6 
L 626.124436 -39.6 
L 628.516194 -39.6 
L 630.907953 -39.6 
L 633.299712 -39.6 
L 635.69147 -39.6 
L 638.083229 -39.6 
L 640.474987 -39.6 
L 642.866746 -39.6 
L 645.258504 -39.6 
L 647.650263 -39.6 
L 650.042022 -39.6 
L 652.43378 -39.6 
L 654.825539 -39.6 
L 657.217297 -39.6 
L 659.609056 -39.6 
L 662.000815 -39.6 
L 664.392573 -39.6 
L 666.784332 -39.6 
L 669.17609 -39.6 
L 671.567849 -39.6 
L 673.959607 -39.6 
L 676.351366 -39.6 
L 678.743125 -39.6 
L 681.134883 -39.6 
L 681.134883 -39.678917 
L 681.134883 -39.678917 
L 678.743125 -39.73906 
L 676.351366 -39.838053 
L 673.959607 -39.996024 
L 671.567849 -40.24047 
L 669.17609 -40.607344 
L 666.784332 -41.141548 
L 664.392573 -41.896479 
L 662.000815 -42.932336 
L 659.609056 -44.313059 
L 657.217297 -46.101957 
L 654.825539 -48.356378 
L 652.43378 -51.121956 
L 650.042022 -54.427134 
L 647.650263 -58.278585 
L 645.258504 -62.657987 
L 642.866746 -67.520311 
L 640.474987 -72.793498 
L 638.083229 -78.379279 
L 635.69147 -84.154916 
L 633.299712 -89.975951 
L 630.907953 -95.680338 
L 628.516194 -101.094625 
L 626.124436 -106.042797 
L 623.732677 -110.358001 
L 621.340919 -113.896596 
L 618.94916 -116.553062 
L 616.557402 -118.273506 
L 614.165643 -119.065106 
L 611.773884 -118.999072 
L 609.382126 -118.205606 
L 606.990367 -116.860723 
L 604.598609 -115.166388 
L 602.20685 -113.326802 
L 599.815091 -111.524577 
L 597.423333 -109.900635 
L 595.031574 -108.541016 
L 592.639816 -107.472478 
L 590.248057 -106.667117 
L 587.856299 -106.054587 
L 585.46454 -105.539228 
L 583.072781 -105.01879 
L 580.681023 -104.4015 
L 578.289264 -103.618966 
L 575.897506 -102.633588 
L 573.505747 -101.440361 
L 571.113988 -100.064022 
L 568.72223 -98.553117 
L 566.330471 -96.972635 
L 563.938713 -95.39661 
L 561.546954 -93.901499 
L 559.155196 -92.56063 
L 556.763437 -91.439643 
L 554.371678 -90.592738 
L 551.97992 -90.059718 
L 549.588161 -89.864089 
L 547.196403 -90.012738 
L 544.804644 -90.497725 
L 542.412886 -91.300514 
L 540.021127 -92.398344 
L 537.629368 -93.771814 
L 535.23761 -95.412043 
L 532.845851 -97.325522 
L 530.454093 -99.534912 
L 528.062334 -102.074849 
L 525.670575 -104.982957 
L 523.278817 -108.287593 
L 520.887058 -111.994898 
L 518.4953 -116.078164 
L 516.103541 -120.472253 
L 513.711783 -125.074767 
L 511.320024 -129.754179 
L 508.928265 -134.363644 
L 506.536507 -138.757941 
L 504.144748 -142.810435 
L 501.75299 -146.427033 
L 499.361231 -149.554763 
L 496.969472 -152.183708 
L 494.577714 -154.342146 
L 492.185955 -156.085845 
L 489.794197 -157.48323 
L 487.402438 -158.598701 
L 485.01068 -159.476616 
L 482.618921 -160.128465 
L 480.227162 -160.525528 
L 477.835404 -160.598775 
L 475.443645 -160.246931 
L 473.051887 -159.35245 
L 470.660128 -157.803751 
L 468.26837 -155.520684 
L 465.876611 -152.479061 
L 463.484852 -148.729659 
L 461.093094 -144.407463 
L 458.701335 -139.728304 
L 456.309577 -134.972088 
L 453.917818 -130.454311 
L 451.526059 -126.489802 
L 449.134301 -123.354278 
L 446.742542 -121.249881 
L 444.350784 -120.280292 
L 441.959025 -120.439388 
L 439.567267 -121.615073 
L 437.175508 -123.607317 
L 434.783749 -126.157021 
L 432.391991 -128.980658 
L 430.000232 -131.804862 
L 427.608474 -134.395547 
L 425.216715 -136.577463 
L 422.824956 -138.242211 
L 420.433198 -139.345038 
L 418.041439 -139.892849 
L 415.649681 -139.927234 
L 413.257922 -139.506793 
L 410.866164 -138.692511 
L 408.474405 -137.538666 
L 406.082646 -136.090076 
L 403.690888 -134.38492 
L 401.299129 -132.461094 
L 398.907371 -130.363568 
L 396.515612 -128.150202 
L 394.123854 -125.894141 
L 391.732095 -123.681761 
L 389.340336 -121.606137 
L 386.948578 -119.756913 
L 384.556819 -118.208131 
L 382.165061 -117.00608 
L 379.773302 -116.159418 
L 377.381543 -115.633687 
L 374.989785 -115.351842 
L 372.598026 -115.201496 
L 370.206268 -115.048388 
L 367.814509 -114.754278 
L 365.422751 -114.196419 
L 363.030992 -113.28524 
L 360.639233 -111.977135 
L 358.247475 -110.280224 
L 355.855716 -108.252499 
L 353.463958 -105.993381 
L 351.072199 -103.630997 
L 348.68044 -101.3081 
L 346.288682 -99.169305 
L 343.896923 -97.351421 
L 341.505165 -95.977339 
L 339.113406 -95.152699 
L 336.721648 -94.963724 
L 334.329889 -95.474461 
L 331.93813 -96.722174 
L 329.546372 -98.710682 
L 327.154613 -101.402618 
L 324.762855 -104.712641 
L 322.371096 -108.504098 
L 319.979338 -112.591485 
L 317.587579 -116.750167 
L 315.19582 -120.733427 
L 312.804062 -124.295312 
L 310.412303 -127.216274 
L 308.020545 -129.32761 
L 305.628786 -130.53052 
L 303.237027 -130.806189 
L 300.845269 -130.214788 
L 298.45351 -128.883249 
L 296.061752 -126.983873 
L 293.669993 -124.70762 
L 291.278235 -122.237032 
L 288.886476 -119.723654 
L 286.494717 -117.273741 
L 284.102959 -114.943938 
L 281.7112 -112.746318 
L 279.319442 -110.660033 
L 276.927683 -108.645588 
L 274.535924 -106.657661 
L 272.144166 -104.653475 
L 269.752407 -102.595548 
L 267.360649 -100.449685 
L 264.96889 -98.180645 
L 262.577132 -95.748551 
L 260.185373 -93.108681 
L 257.793614 -90.215922 
L 255.401856 -87.03341 
L 253.010097 -83.543278 
L 250.618339 -79.7565 
L 248.22658 -75.718845 
L 245.834822 -71.510883 
L 243.443063 -67.241518 
L 241.051304 -63.036142 
L 238.659546 -59.021803 
L 236.267787 -55.312349 
L 233.876029 -51.996308 
L 231.48427 -49.129437 
L 229.092511 -46.732662 
L 226.700753 -44.79497 
L 224.308994 -43.279953 
L 221.917236 -42.134225 
L 219.525477 -41.296041 
L 217.133719 -40.702769 
L 214.74196 -40.29643 
L 212.350201 -40.027089 
L 209.958443 -39.854287 
L 207.566684 -39.746968 
L 205.174926 -39.682442 
z
" style="stroke: #ff00ff"/>
    </defs>
    <g clip-path="url(#pe83f5bc581)">
     <use xlink:href="#m7f20824335" x="0" y="360" style="fill: #ff00ff; fill-opacity: 0.25; stroke: #ff00ff"/>
    </g>
   </g>
   <g id="PolyCollection_2">
    <defs>
     <path id="mfc508337ca" d="M 147.897799 -39.684381 
L 147.897799 -39.6 
L 150.886292 -39.6 
L 153.874785 -39.6 
L 156.863278 -39.6 
L 159.85177 -39.6 
L 162.840263 -39.6 
L 165.828756 -39.6 
L 168.817249 -39.6 
L 171.805742 -39.6 
L 174.794235 -39.6 
L 177.782728 -39.6 
L 180.77122 -39.6 
L 183.759713 -39.6 
L 186.748206 -39.6 
L 189.736699 -39.6 
L 192.725192 -39.6 
L 195.713685 -39.6 
L 198.702178 -39.6 
L 201.69067 -39.6 
L 204.679163 -39.6 
L 207.667656 -39.6 
L 210.656149 -39.6 
L 213.644642 -39.6 
L 216.633135 -39.6 
L 219.621627 -39.6 
L 222.61012 -39.6 
L 225.598613 -39.6 
L 228.587106 -39.6 
L 231.575599 -39.6 
L 234.564092 -39.6 
L 237.552585 -39.6 
L 240.541077 -39.6 
L 243.52957 -39.6 
L 246.518063 -39.6 
L 249.506556 -39.6 
L 252.495049 -39.6 
L 255.483542 -39.6 
L 258.472035 -39.6 
L 261.460527 -39.6 
L 264.44902 -39.6 
L 267.437513 -39.6 
L 270.426006 -39.6 
L 273.414499 -39.6 
L 276.402992 -39.6 
L 279.391485 -39.6 
L 282.379977 -39.6 
L 285.36847 -39.6 
L 288.356963 -39.6 
L 291.345456 -39.6 
L 294.333949 -39.6 
L 297.322442 -39.6 
L 300.310935 -39.6 
L 303.299427 -39.6 
L 306.28792 -39.6 
L 309.276413 -39.6 
L 312.264906 -39.6 
L 315.253399 -39.6 
L 318.241892 -39.6 
L 321.230385 -39.6 
L 324.218877 -39.6 
L 327.20737 -39.6 
L 330.195863 -39.6 
L 333.184356 -39.6 
L 336.172849 -39.6 
L 339.161342 -39.6 
L 342.149835 -39.6 
L 345.138327 -39.6 
L 348.12682 -39.6 
L 351.115313 -39.6 
L 354.103806 -39.6 
L 357.092299 -39.6 
L 360.080792 -39.6 
L 363.069285 -39.6 
L 366.057777 -39.6 
L 369.04627 -39.6 
L 372.034763 -39.6 
L 375.023256 -39.6 
L 378.011749 -39.6 
L 381.000242 -39.6 
L 383.988735 -39.6 
L 386.977227 -39.6 
L 389.96572 -39.6 
L 392.954213 -39.6 
L 395.942706 -39.6 
L 398.931199 -39.6 
L 401.919692 -39.6 
L 404.908184 -39.6 
L 407.896677 -39.6 
L 410.88517 -39.6 
L 413.873663 -39.6 
L 416.862156 -39.6 
L 419.850649 -39.6 
L 422.839142 -39.6 
L 425.827634 -39.6 
L 428.816127 -39.6 
L 431.80462 -39.6 
L 434.793113 -39.6 
L 437.781606 -39.6 
L 440.770099 -39.6 
L 443.758592 -39.6 
L 446.747084 -39.6 
L 449.735577 -39.6 
L 452.72407 -39.6 
L 455.712563 -39.6 
L 458.701056 -39.6 
L 461.689549 -39.6 
L 464.678042 -39.6 
L 467.666534 -39.6 
L 470.655027 -39.6 
L 473.64352 -39.6 
L 476.632013 -39.6 
L 479.620506 -39.6 
L 482.608999 -39.6 
L 485.597492 -39.6 
L 488.585984 -39.6 
L 491.574477 -39.6 
L 494.56297 -39.6 
L 497.551463 -39.6 
L 500.539956 -39.6 
L 503.528449 -39.6 
L 506.516942 -39.6 
L 509.505434 -39.6 
L 512.493927 -39.6 
L 515.48242 -39.6 
L 518.470913 -39.6 
L 521.459406 -39.6 
L 524.447899 -39.6 
L 527.436392 -39.6 
L 530.424884 -39.6 
L 533.413377 -39.6 
L 536.40187 -39.6 
L 539.390363 -39.6 
L 542.378856 -39.6 
L 545.367349 -39.6 
L 548.355842 -39.6 
L 551.344334 -39.6 
L 554.332827 -39.6 
L 557.32132 -39.6 
L 560.309813 -39.6 
L 563.298306 -39.6 
L 566.286799 -39.6 
L 569.275292 -39.6 
L 572.263784 -39.6 
L 575.252277 -39.6 
L 578.24077 -39.6 
L 581.229263 -39.6 
L 584.217756 -39.6 
L 587.206249 -39.6 
L 590.194741 -39.6 
L 593.183234 -39.6 
L 596.171727 -39.6 
L 599.16022 -39.6 
L 602.148713 -39.6 
L 605.137206 -39.6 
L 608.125699 -39.6 
L 611.114191 -39.6 
L 614.102684 -39.6 
L 617.091177 -39.6 
L 620.07967 -39.6 
L 623.068163 -39.6 
L 626.056656 -39.6 
L 629.045149 -39.6 
L 632.033641 -39.6 
L 635.022134 -39.6 
L 638.010627 -39.6 
L 640.99912 -39.6 
L 643.987613 -39.6 
L 646.976106 -39.6 
L 649.964599 -39.6 
L 652.953091 -39.6 
L 655.941584 -39.6 
L 658.930077 -39.6 
L 661.91857 -39.6 
L 664.907063 -39.6 
L 667.895556 -39.6 
L 670.884049 -39.6 
L 673.872541 -39.6 
L 676.861034 -39.6 
L 679.849527 -39.6 
L 682.83802 -39.6 
L 685.826513 -39.6 
L 688.815006 -39.6 
L 691.803499 -39.6 
L 694.791991 -39.6 
L 697.780484 -39.6 
L 700.768977 -39.6 
L 703.75747 -39.6 
L 706.745963 -39.6 
L 709.734456 -39.6 
L 712.722949 -39.6 
L 715.711441 -39.6 
L 718.699934 -39.6 
L 721.688427 -39.6 
L 724.67692 -39.6 
L 727.665413 -39.6 
L 730.653906 -39.6 
L 733.642399 -39.6 
L 736.630891 -39.6 
L 739.619384 -39.6 
L 742.607877 -39.6 
L 742.607877 -39.690379 
L 742.607877 -39.690379 
L 739.619384 -39.720484 
L 736.630891 -39.759492 
L 733.642399 -39.809655 
L 730.653906 -39.873676 
L 727.665413 -39.954768 
L 724.67692 -40.056706 
L 721.688427 -40.183878 
L 718.699934 -40.34133 
L 715.711441 -40.534794 
L 712.722949 -40.770698 
L 709.734456 -41.056164 
L 706.745963 -41.39897 
L 703.75747 -41.807483 
L 700.768977 -42.290565 
L 697.780484 -42.857433 
L 694.791991 -43.517485 
L 691.803499 -44.280083 
L 688.815006 -45.154303 
L 685.826513 -46.148647 
L 682.83802 -47.27073 
L 679.849527 -48.526953 
L 676.861034 -49.922157 
L 673.872541 -51.4593 
L 670.884049 -53.139135 
L 667.895556 -54.959942 
L 664.907063 -56.917299 
L 661.91857 -59.003929 
L 658.930077 -61.209616 
L 655.941584 -63.521227 
L 652.953091 -65.922819 
L 649.964599 -68.39586 
L 646.976106 -70.91954 
L 643.987613 -73.471193 
L 640.99912 -76.026789 
L 638.010627 -78.561505 
L 635.022134 -81.050346 
L 632.033641 -83.468794 
L 629.045149 -85.793464 
L 626.056656 -88.002734 
L 623.068163 -90.077341 
L 620.07967 -92.000904 
L 617.091177 -93.760363 
L 614.102684 -95.34632 
L 611.114191 -96.753262 
L 608.125699 -97.979678 
L 605.137206 -99.028046 
L 602.148713 -99.90472 
L 599.16022 -100.619703 
L 596.171727 -101.186333 
L 593.183234 -101.620899 
L 590.194741 -101.942183 
L 587.206249 -102.170977 
L 584.217756 -102.329562 
L 581.229263 -102.441185 
L 578.24077 -102.529537 
L 575.252277 -102.618245 
L 572.263784 -102.730397 
L 569.275292 -102.888084 
L 566.286799 -103.111993 
L 563.298306 -103.421024 
L 560.309813 -103.831957 
L 557.32132 -104.359154 
L 554.332827 -105.014299 
L 551.344334 -105.806187 
L 548.355842 -106.740552 
L 545.367349 -107.819937 
L 542.378856 -109.043622 
L 539.390363 -110.407596 
L 536.40187 -111.904595 
L 533.413377 -113.524198 
L 530.424884 -115.25299 
L 527.436392 -117.0748 
L 524.447899 -118.971001 
L 521.459406 -120.92089 
L 518.470913 -122.902131 
L 515.48242 -124.891252 
L 512.493927 -126.864199 
L 509.505434 -128.796923 
L 506.516942 -130.665981 
L 503.528449 -132.449149 
L 500.539956 -134.126002 
L 497.551463 -135.67846 
L 494.56297 -137.091268 
L 491.574477 -138.352389 
L 488.585984 -139.453301 
L 485.597492 -140.389171 
L 482.608999 -141.158902 
L 479.620506 -141.765053 
L 476.632013 -142.213617 
L 473.64352 -142.513682 
L 470.655027 -142.676978 
L 467.666534 -142.717321 
L 464.678042 -142.650002 
L 461.689549 -142.491117 
L 458.701056 -142.256892 
L 455.712563 -141.963027 
L 452.72407 -141.624079 
L 449.735577 -141.25293 
L 446.747084 -140.860351 
L 443.758592 -140.45468 
L 440.770099 -140.041638 
L 437.781606 -139.624275 
L 434.793113 -139.203053 
L 431.80462 -138.776051 
L 428.816127 -138.339284 
L 425.827634 -137.887108 
L 422.839142 -137.412688 
L 419.850649 -136.908512 
L 416.862156 -136.366914 
L 413.873663 -135.780574 
L 410.88517 -135.142998 
L 407.896677 -134.448924 
L 404.908184 -133.694666 
L 401.919692 -132.878366 
L 398.931199 -132.000166 
L 395.942706 -131.062276 
L 392.954213 -130.068963 
L 389.96572 -129.026455 
L 386.977227 -127.94276 
L 383.988735 -126.827436 
L 381.000242 -125.691285 
L 378.011749 -124.546019 
L 375.023256 -123.403879 
L 372.034763 -122.277239 
L 369.04627 -121.178183 
L 366.057777 -120.118091 
L 363.069285 -119.107222 
L 360.080792 -118.154316 
L 357.092299 -117.266228 
L 354.103806 -116.447596 
L 351.115313 -115.700568 
L 348.12682 -115.024597 
L 345.138327 -114.416306 
L 342.149835 -113.869452 
L 339.161342 -113.37498 
L 336.172849 -112.921182 
L 333.184356 -112.493959 
L 330.195863 -112.077182 
L 327.20737 -111.653137 
L 324.218877 -111.203054 
L 321.230385 -110.707684 
L 318.241892 -110.147916 
L 315.253399 -109.505393 
L 312.264906 -108.763124 
L 309.276413 -107.906036 
L 306.28792 -106.921464 
L 303.299427 -105.799557 
L 300.310935 -104.533565 
L 297.322442 -103.120024 
L 294.333949 -101.55881 
L 291.345456 -99.853083 
L 288.356963 -98.00912 
L 285.36847 -96.036045 
L 282.379977 -93.945493 
L 279.391485 -91.751201 
L 276.402992 -89.468577 
L 273.414499 -87.114237 
L 270.426006 -84.705562 
L 267.437513 -82.260262 
L 264.44902 -79.795985 
L 261.460527 -77.329962 
L 258.472035 -74.878718 
L 255.483542 -72.457816 
L 252.495049 -70.081676 
L 249.506556 -67.763426 
L 246.518063 -65.514811 
L 243.52957 -63.346134 
L 240.541077 -61.266229 
L 237.552585 -59.282464 
L 234.564092 -57.400762 
L 231.575599 -55.625636 
L 228.587106 -53.960242 
L 225.598613 -52.406438 
L 222.61012 -50.964852 
L 219.621627 -49.634962 
L 216.633135 -48.41518 
L 213.644642 -47.302947 
L 210.656149 -46.294835 
L 207.667656 -45.386656 
L 204.679163 -44.573576 
L 201.69067 -43.850233 
L 198.702178 -43.210861 
L 195.713685 -42.649408 
L 192.725192 -42.159656 
L 189.736699 -41.735333 
L 186.748206 -41.370214 
L 183.759713 -41.05822 
L 180.77122 -40.793493 
L 177.782728 -40.570467 
L 174.794235 -40.383922 
L 171.805742 -40.22902 
L 168.817249 -40.101334 
L 165.828756 -39.996855 
L 162.840263 -39.912 
L 159.85177 -39.843596 
L 156.863278 -39.788868 
L 153.874785 -39.74541 
L 150.886292 -39.711164 
L 147.897799 -39.684381 
z
" style="stroke: #1e90ff"/>
    </defs>
    <g clip-path="url(#pe83f5bc581)">
     <use xlink:href="#mfc508337ca" x="0" y="360" style="fill: #1e90ff; fill-opacity: 0.25; stroke: #1e90ff"/>
    </g>
   </g>
   <g id="PolyCollection_3">
    <defs>
     <path id="mfdd3359138" d="M 138.436364 -40.18053 
L 138.436364 -39.6 
L 141.495295 -39.6 
L 144.554226 -39.6 
L 147.613157 -39.6 
L 150.672088 -39.6 
L 153.731019 -39.6 
L 156.78995 -39.6 
L 159.848881 -39.6 
L 162.907812 -39.6 
L 165.966743 -39.6 
L 169.025674 -39.6 
L 172.084605 -39.6 
L 175.143536 -39.6 
L 178.202467 -39.6 
L 181.261398 -39.6 
L 184.320329 -39.6 
L 187.37926 -39.6 
L 190.438191 -39.6 
L 193.497122 -39.6 
L 196.556053 -39.6 
L 199.614984 -39.6 
L 202.673915 -39.6 
L 205.732846 -39.6 
L 208.791777 -39.6 
L 211.850708 -39.6 
L 214.909639 -39.6 
L 217.96857 -39.6 
L 221.027501 -39.6 
L 224.086432 -39.6 
L 227.145363 -39.6 
L 230.204294 -39.6 
L 233.263225 -39.6 
L 236.322156 -39.6 
L 239.381087 -39.6 
L 242.440018 -39.6 
L 245.498949 -39.6 
L 248.55788 -39.6 
L 251.616811 -39.6 
L 254.675742 -39.6 
L 257.734673 -39.6 
L 260.793604 -39.6 
L 263.852535 -39.6 
L 266.911466 -39.6 
L 269.970397 -39.6 
L 273.029328 -39.6 
L 276.088259 -39.6 
L 279.14719 -39.6 
L 282.206122 -39.6 
L 285.265053 -39.6 
L 288.323984 -39.6 
L 291.382915 -39.6 
L 294.441846 -39.6 
L 297.500777 -39.6 
L 300.559708 -39.6 
L 303.618639 -39.6 
L 306.67757 -39.6 
L 309.736501 -39.6 
L 312.795432 -39.6 
L 315.854363 -39.6 
L 318.913294 -39.6 
L 321.972225 -39.6 
L 325.031156 -39.6 
L 328.090087 -39.6 
L 331.149018 -39.6 
L 334.207949 -39.6 
L 337.26688 -39.6 
L 340.325811 -39.6 
L 343.384742 -39.6 
L 346.443673 -39.6 
L 349.502604 -39.6 
L 352.561535 -39.6 
L 355.620466 -39.6 
L 358.679397 -39.6 
L 361.738328 -39.6 
L 364.797259 -39.6 
L 367.85619 -39.6 
L 370.915121 -39.6 
L 373.974052 -39.6 
L 377.032983 -39.6 
L 380.091914 -39.6 
L 383.150845 -39.6 
L 386.209776 -39.6 
L 389.268707 -39.6 
L 392.327638 -39.6 
L 395.386569 -39.6 
L 398.4455 -39.6 
L 401.504431 -39.6 
L 404.563362 -39.6 
L 407.622293 -39.6 
L 410.681224 -39.6 
L 413.740155 -39.6 
L 416.799086 -39.6 
L 419.858017 -39.6 
L 422.916948 -39.6 
L 425.975879 -39.6 
L 429.03481 -39.6 
L 432.093741 -39.6 
L 435.152672 -39.6 
L 438.211603 -39.6 
L 441.270534 -39.6 
L 444.329466 -39.6 
L 447.388397 -39.6 
L 450.447328 -39.6 
L 453.506259 -39.6 
L 456.56519 -39.6 
L 459.624121 -39.6 
L 462.683052 -39.6 
L 465.741983 -39.6 
L 468.800914 -39.6 
L 471.859845 -39.6 
L 474.918776 -39.6 
L 477.977707 -39.6 
L 481.036638 -39.6 
L 484.095569 -39.6 
L 487.1545 -39.6 
L 490.213431 -39.6 
L 493.272362 -39.6 
L 496.331293 -39.6 
L 499.390224 -39.6 
L 502.449155 -39.6 
L 505.508086 -39.6 
L 508.567017 -39.6 
L 511.625948 -39.6 
L 514.684879 -39.6 
L 517.74381 -39.6 
L 520.802741 -39.6 
L 523.861672 -39.6 
L 526.920603 -39.6 
L 529.979534 -39.6 
L 533.038465 -39.6 
L 536.097396 -39.6 
L 539.156327 -39.6 
L 542.215258 -39.6 
L 545.274189 -39.6 
L 548.33312 -39.6 
L 551.392051 -39.6 
L 554.450982 -39.6 
L 557.509913 -39.6 
L 560.568844 -39.6 
L 563.627775 -39.6 
L 566.686706 -39.6 
L 569.745637 -39.6 
L 572.804568 -39.6 
L 575.863499 -39.6 
L 578.92243 -39.6 
L 581.981361 -39.6 
L 585.040292 -39.6 
L 588.099223 -39.6 
L 591.158154 -39.6 
L 594.217085 -39.6 
L 597.276016 -39.6 
L 600.334947 -39.6 
L 603.393878 -39.6 
L 606.45281 -39.6 
L 609.511741 -39.6 
L 612.570672 -39.6 
L 615.629603 -39.6 
L 618.688534 -39.6 
L 621.747465 -39.6 
L 624.806396 -39.6 
L 627.865327 -39.6 
L 630.924258 -39.6 
L 633.983189 -39.6 
L 637.04212 -39.6 
L 640.101051 -39.6 
L 643.159982 -39.6 
L 646.218913 -39.6 
L 649.277844 -39.6 
L 652.336775 -39.6 
L 655.395706 -39.6 
L 658.454637 -39.6 
L 661.513568 -39.6 
L 664.572499 -39.6 
L 667.63143 -39.6 
L 670.690361 -39.6 
L 673.749292 -39.6 
L 676.808223 -39.6 
L 679.867154 -39.6 
L 682.926085 -39.6 
L 685.985016 -39.6 
L 689.043947 -39.6 
L 692.102878 -39.6 
L 695.161809 -39.6 
L 698.22074 -39.6 
L 701.279671 -39.6 
L 704.338602 -39.6 
L 707.397533 -39.6 
L 710.456464 -39.6 
L 713.515395 -39.6 
L 716.574326 -39.6 
L 719.633257 -39.6 
L 722.692188 -39.6 
L 725.751119 -39.6 
L 728.81005 -39.6 
L 731.868981 -39.6 
L 734.927912 -39.6 
L 737.986843 -39.6 
L 741.045774 -39.6 
L 744.104705 -39.6 
L 747.163636 -39.6 
L 747.163636 -39.858137 
L 747.163636 -39.858137 
L 744.104705 -39.936009 
L 741.045774 -40.034005 
L 737.986843 -40.156262 
L 734.927912 -40.307467 
L 731.868981 -40.492842 
L 728.81005 -40.718112 
L 725.751119 -40.989432 
L 722.692188 -41.313292 
L 719.633257 -41.696367 
L 716.574326 -42.145335 
L 713.515395 -42.666651 
L 710.456464 -43.26628 
L 707.397533 -43.949393 
L 704.338602 -44.720043 
L 701.279671 -45.580814 
L 698.22074 -46.532483 
L 695.161809 -47.573687 
L 692.102878 -48.700627 
L 689.043947 -49.906835 
L 685.985016 -51.183001 
L 682.926085 -52.516912 
L 679.867154 -53.893485 
L 676.808223 -55.29493 
L 673.749292 -56.701037 
L 670.690361 -58.089593 
L 667.63143 -59.436911 
L 664.572499 -60.718477 
L 661.513568 -61.90966 
L 658.454637 -62.986496 
L 655.395706 -63.926476 
L 652.336775 -64.709328 
L 649.277844 -65.317743 
L 646.218913 -65.73801 
L 643.159982 -65.960529 
L 640.101051 -65.980179 
L 637.04212 -65.796512 
L 633.983189 -65.413774 
L 630.924258 -64.840741 
L 627.865327 -64.090392 
L 624.806396 -63.179418 
L 621.747465 -62.12762 
L 618.688534 -60.957196 
L 615.629603 -59.691982 
L 612.570672 -58.356665 
L 609.511741 -56.976018 
L 606.45281 -55.574188 
L 603.393878 -54.174061 
L 600.334947 -52.796744 
L 597.276016 -51.461171 
L 594.217085 -50.183843 
L 591.158154 -48.97872 
L 588.099223 -47.85725 
L 585.040292 -46.828529 
L 581.981361 -45.899591 
L 578.92243 -45.075806 
L 575.863499 -44.361361 
L 572.804568 -43.759827 
L 569.745637 -43.274779 
L 566.686706 -42.910453 
L 563.627775 -42.672429 
L 560.568844 -42.568324 
L 557.509913 -42.608468 
L 554.450982 -42.806559 
L 551.392051 -43.180262 
L 548.33312 -43.751747 
L 545.274189 -44.548125 
L 542.215258 -45.601756 
L 539.156327 -46.950403 
L 536.097396 -48.637186 
L 533.038465 -50.710304 
L 529.979534 -53.22248 
L 526.920603 -56.230103 
L 523.861672 -59.792027 
L 520.802741 -63.96802 
L 517.74381 -68.816841 
L 514.684879 -74.393978 
L 511.625948 -80.74906 
L 508.567017 -87.923014 
L 505.508086 -95.945051 
L 502.449155 -104.829576 
L 499.390224 -114.573174 
L 496.331293 -125.151806 
L 493.272362 -136.518396 
L 490.213431 -148.60097 
L 487.1545 -161.301508 
L 484.095569 -174.495681 
L 481.036638 -188.03357 
L 477.977707 -201.74146 
L 474.918776 -215.424758 
L 471.859845 -228.871994 
L 468.800914 -241.859835 
L 465.741983 -254.158965 
L 462.683052 -265.54064 
L 459.624121 -275.783646 
L 456.56519 -284.681393 
L 453.506259 -292.048815 
L 450.447328 -297.728758 
L 447.388397 -301.597553 
L 444.329466 -303.569494 
L 441.270534 -303.6 
L 438.211603 -301.687284 
L 435.152672 -297.872464 
L 432.093741 -292.238083 
L 429.03481 -284.905137 
L 425.975879 -276.028739 
L 422.916948 -265.792654 
L 419.858017 -254.402965 
L 416.799086 -242.081177 
L 413.740155 -229.057084 
L 410.681224 -215.561717 
L 407.622293 -201.820669 
L 404.563362 -188.048068 
L 401.504431 -174.441396 
L 398.4455 -161.177329 
L 395.386569 -148.408667 
L 392.327638 -136.262405 
L 389.268707 -124.838908 
L 386.209776 -114.212113 
L 383.150845 -104.430633 
L 380.091914 -95.519625 
L 377.032983 -87.483243 
L 373.974052 -80.307508 
L 370.915121 -73.963421 
L 367.85619 -68.41016 
L 364.797259 -63.598232 
L 361.738328 -59.472442 
L 358.679397 -55.974622 
L 355.620466 -53.046024 
L 352.561535 -50.62936 
L 349.502604 -48.670465 
L 346.443673 -47.11958 
L 343.384742 -45.932284 
L 340.325811 -45.070077 
L 337.26688 -44.50067 
L 334.207949 -44.198003 
L 331.149018 -44.14202 
L 328.090087 -44.31825 
L 325.031156 -44.717205 
L 321.972225 -45.333636 
L 318.913294 -46.165666 
L 315.854363 -47.213826 
L 312.795432 -48.480013 
L 309.736501 -49.966404 
L 306.67757 -51.674344 
L 303.618639 -53.603252 
L 300.559708 -55.749561 
L 297.500777 -58.105755 
L 294.441846 -60.659521 
L 291.382915 -63.393078 
L 288.323984 -66.282704 
L 285.265053 -69.298517 
L 282.206122 -72.404532 
L 279.14719 -75.559 
L 276.088259 -78.715069 
L 273.029328 -81.821723 
L 269.970397 -84.825006 
L 266.911466 -87.669472 
L 263.852535 -90.299817 
L 260.793604 -92.662618 
L 257.734673 -94.708114 
L 254.675742 -96.391927 
L 251.616811 -97.676655 
L 248.55788 -98.533245 
L 245.498949 -98.942084 
L 242.440018 -98.893738 
L 239.381087 -98.38932 
L 236.322156 -97.440439 
L 233.263225 -96.068759 
L 230.204294 -94.305174 
L 227.145363 -92.188654 
L 224.086432 -89.764812 
L 221.027501 -87.084273 
L 217.96857 -84.200924 
L 214.909639 -81.17013 
L 211.850708 -78.046992 
L 208.791777 -74.884729 
L 205.732846 -71.73325 
L 202.673915 -68.637949 
L 199.614984 -65.638781 
L 196.556053 -62.769614 
L 193.497122 -60.057866 
L 190.438191 -57.524427 
L 187.37926 -55.18381 
L 184.320329 -53.044523 
L 181.261398 -51.109608 
L 178.202467 -49.377302 
L 175.143536 -47.841778 
L 172.084605 -46.493919 
L 169.025674 -45.322092 
L 165.966743 -44.312884 
L 162.907812 -43.451786 
L 159.848881 -42.723782 
L 156.78995 -42.11387 
L 153.731019 -41.607466 
L 150.672088 -41.190731 
L 147.613157 -40.850802 
L 144.554226 -40.575942 
L 141.495295 -40.355619 
L 138.436364 -40.18053 
z
" style="stroke: #0000ff"/>
    </defs>
    <g clip-path="url(#pe83f5bc581)">
     <use xlink:href="#mfdd3359138" x="0" y="360" style="fill: #0000ff; fill-opacity: 0.25; stroke: #0000ff"/>
    </g>
   </g>
   <g id="matplotlib.axis_1">
    <g id="xtick_1">
     <g id="line2d_1">
      <defs>
       <path id="m57cbe9915e" d="M 0 0 
L 0 3.5 
" style="stroke: #000000; stroke-width: 0.8"/>
      </defs>
      <g>
       <use xlink:href="#m57cbe9915e" x="122.71144" y="320.4" style="stroke: #000000; stroke-width: 0.8"/>
      </g>
     </g>
     <g id="text_1">
      <!-- −4 -->
      <g transform="translate(115.340346 334.998438) scale(0.1 -0.1)">
       <defs>
        <path id="DejaVuSans-2212" d="M 678 2272 
L 4684 2272 
L 4684 1741 
L 678 1741 
L 678 2272 
z
" transform="scale(0.015625)"/>
        <path id="DejaVuSans-34" d="M 2419 4116 
L 825 1625 
L 2419 1625 
L 2419 4116 
z
M 2253 4666 
L 3047 4666 
L 3047 1625 
L 3713 1625 
L 3713 1100 
L 3047 1100 
L 3047 0 
L 2419 0 
L 2419 1100 
L 313 1100 
L 313 1709 
L 2253 4666 
z
" transform="scale(0.015625)"/>
       </defs>
       <use xlink:href="#DejaVuSans-2212"/>
       <use xlink:href="#DejaVuSans-34" x="83.789062"/>
      </g>
     </g>
    </g>
    <g id="xtick_2">
     <g id="line2d_2">
      <g>
       <use xlink:href="#m57cbe9915e" x="202.744004" y="320.4" style="stroke: #000000; stroke-width: 0.8"/>
      </g>
     </g>
     <g id="text_2">
      <!-- −3 -->
      <g transform="translate(195.37291 334.998438) scale(0.1 -0.1)">
       <defs>
        <path id="DejaVuSans-33" d="M 2597 2516 
Q 3050 2419 3304 2112 
Q 3559 1806 3559 1356 
Q 3559 666 3084 287 
Q 2609 -91 1734 -91 
Q 1441 -91 1130 -33 
Q 819 25 488 141 
L 488 750 
Q 750 597 1062 519 
Q 1375 441 1716 441 
Q 2309 441 2620 675 
Q 2931 909 2931 1356 
Q 2931 1769 2642 2001 
Q 2353 2234 1838 2234 
L 1294 2234 
L 1294 2753 
L 1863 2753 
Q 2328 2753 2575 2939 
Q 2822 3125 2822 3475 
Q 2822 3834 2567 4026 
Q 2313 4219 1838 4219 
Q 1578 4219 1281 4162 
Q 984 4106 628 3988 
L 628 4550 
Q 988 4650 1302 4700 
Q 1616 4750 1894 4750 
Q 2613 4750 3031 4423 
Q 3450 4097 3450 3541 
Q 3450 3153 3228 2886 
Q 3006 2619 2597 2516 
z
" transform="scale(0.015625)"/>
       </defs>
       <use xlink:href="#DejaVuSans-2212"/>
       <use xlink:href="#DejaVuSans-33" x="83.789062"/>
      </g>
     </g>
    </g>
    <g id="xtick_3">
     <g id="line2d_3">
      <g>
       <use xlink:href="#m57cbe9915e" x="282.776568" y="320.4" style="stroke: #000000; stroke-width: 0.8"/>
      </g>
     </g>
     <g id="text_3">
      <!-- −2 -->
      <g transform="translate(275.405475 334.998438) scale(0.1 -0.1)">
       <defs>
        <path id="DejaVuSans-32" d="M 1228 531 
L 3431 531 
L 3431 0 
L 469 0 
L 469 531 
Q 828 903 1448 1529 
Q 2069 2156 2228 2338 
Q 2531 2678 2651 2914 
Q 2772 3150 2772 3378 
Q 2772 3750 2511 3984 
Q 2250 4219 1831 4219 
Q 1534 4219 1204 4116 
Q 875 4013 500 3803 
L 500 4441 
Q 881 4594 1212 4672 
Q 1544 4750 1819 4750 
Q 2544 4750 2975 4387 
Q 3406 4025 3406 3419 
Q 3406 3131 3298 2873 
Q 3191 2616 2906 2266 
Q 2828 2175 2409 1742 
Q 1991 1309 1228 531 
z
" transform="scale(0.015625)"/>
       </defs>
       <use xlink:href="#DejaVuSans-2212"/>
       <use xlink:href="#DejaVuSans-32" x="83.789062"/>
      </g>
     </g>
    </g>
    <g id="xtick_4">
     <g id="line2d_4">
      <g>
       <use xlink:href="#m57cbe9915e" x="362.809133" y="320.4" style="stroke: #000000; stroke-width: 0.8"/>
      </g>
     </g>
     <g id="text_4">
      <!-- −1 -->
      <g transform="translate(355.438039 334.998438) scale(0.1 -0.1)">
       <defs>
        <path id="DejaVuSans-31" d="M 794 531 
L 1825 531 
L 1825 4091 
L 703 3866 
L 703 4441 
L 1819 4666 
L 2450 4666 
L 2450 531 
L 3481 531 
L 3481 0 
L 794 0 
L 794 531 
z
" transform="scale(0.015625)"/>
       </defs>
       <use xlink:href="#DejaVuSans-2212"/>
       <use xlink:href="#DejaVuSans-31" x="83.789062"/>
      </g>
     </g>
    </g>
    <g id="xtick_5">
     <g id="line2d_5">
      <g>
       <use xlink:href="#m57cbe9915e" x="442.841697" y="320.4" style="stroke: #000000; stroke-width: 0.8"/>
      </g>
     </g>
     <g id="text_5">
      <!-- 0 -->
      <g transform="translate(439.660447 334.998438) scale(0.1 -0.1)">
       <defs>
        <path id="DejaVuSans-30" d="M 2034 4250 
Q 1547 4250 1301 3770 
Q 1056 3291 1056 2328 
Q 1056 1369 1301 889 
Q 1547 409 2034 409 
Q 2525 409 2770 889 
Q 3016 1369 3016 2328 
Q 3016 3291 2770 3770 
Q 2525 4250 2034 4250 
z
M 2034 4750 
Q 2819 4750 3233 4129 
Q 3647 3509 3647 2328 
Q 3647 1150 3233 529 
Q 2819 -91 2034 -91 
Q 1250 -91 836 529 
Q 422 1150 422 2328 
Q 422 3509 836 4129 
Q 1250 4750 2034 4750 
z
" transform="scale(0.015625)"/>
       </defs>
       <use xlink:href="#DejaVuSans-30"/>
      </g>
     </g>
    </g>
    <g id="xtick_6">
     <g id="line2d_6">
      <g>
       <use xlink:href="#m57cbe9915e" x="522.874261" y="320.4" style="stroke: #000000; stroke-width: 0.8"/>
      </g>
     </g>
     <g id="text_6">
      <!-- 1 -->
      <g transform="translate(519.693011 334.998438) scale(0.1 -0.1)">
       <use xlink:href="#DejaVuSans-31"/>
      </g>
     </g>
    </g>
    <g id="xtick_7">
     <g id="line2d_7">
      <g>
       <use xlink:href="#m57cbe9915e" x="602.906826" y="320.4" style="stroke: #000000; stroke-width: 0.8"/>
      </g>
     </g>
     <g id="text_7">
      <!-- 2 -->
      <g transform="translate(599.725576 334.998438) scale(0.1 -0.1)">
       <use xlink:href="#DejaVuSans-32"/>
      </g>
     </g>
    </g>
    <g id="xtick_8">
     <g id="line2d_8">
      <g>
       <use xlink:href="#m57cbe9915e" x="682.93939" y="320.4" style="stroke: #000000; stroke-width: 0.8"/>
      </g>
     </g>
     <g id="text_8">
      <!-- 3 -->
      <g transform="translate(679.75814 334.998438) scale(0.1 -0.1)">
       <use xlink:href="#DejaVuSans-33"/>
      </g>
     </g>
    </g>
    <g id="xtick_9">
     <g id="line2d_9">
      <g>
       <use xlink:href="#m57cbe9915e" x="762.971954" y="320.4" style="stroke: #000000; stroke-width: 0.8"/>
      </g>
     </g>
     <g id="text_9">
      <!-- 4 -->
      <g transform="translate(759.790704 334.998438) scale(0.1 -0.1)">
       <use xlink:href="#DejaVuSans-34"/>
      </g>
     </g>
    </g>
    <g id="text_10">
     <!-- delta_sweep -->
     <g transform="translate(411.614844 348.676562) scale(0.1 -0.1)">
      <defs>
       <path id="DejaVuSans-64" d="M 2906 2969 
L 2906 4863 
L 3481 4863 
L 3481 0 
L 2906 0 
L 2906 525 
Q 2725 213 2448 61 
Q 2172 -91 1784 -91 
Q 1150 -91 751 415 
Q 353 922 353 1747 
Q 353 2572 751 3078 
Q 1150 3584 1784 3584 
Q 2172 3584 2448 3432 
Q 2725 3281 2906 2969 
z
M 947 1747 
Q 947 1113 1208 752 
Q 1469 391 1925 391 
Q 2381 391 2643 752 
Q 2906 1113 2906 1747 
Q 2906 2381 2643 2742 
Q 2381 3103 1925 3103 
Q 1469 3103 1208 2742 
Q 947 2381 947 1747 
z
" transform="scale(0.015625)"/>
       <path id="DejaVuSans-65" d="M 3597 1894 
L 3597 1613 
L 953 1613 
Q 991 1019 1311 708 
Q 1631 397 2203 397 
Q 2534 397 2845 478 
Q 3156 559 3463 722 
L 3463 178 
Q 3153 47 2828 -22 
Q 2503 -91 2169 -91 
Q 1331 -91 842 396 
Q 353 884 353 1716 
Q 353 2575 817 3079 
Q 1281 3584 2069 3584 
Q 2775 3584 3186 3129 
Q 3597 2675 3597 1894 
z
M 3022 2063 
Q 3016 2534 2758 2815 
Q 2500 3097 2075 3097 
Q 1594 3097 1305 2825 
Q 1016 2553 972 2059 
L 3022 2063 
z
" transform="scale(0.015625)"/>
       <path id="DejaVuSans-6c" d="M 603 4863 
L 1178 4863 
L 1178 0 
L 603 0 
L 603 4863 
z
" transform="scale(0.015625)"/>
       <path id="DejaVuSans-74" d="M 1172 4494 
L 1172 3500 
L 2356 3500 
L 2356 3053 
L 1172 3053 
L 1172 1153 
Q 1172 725 1289 603 
Q 1406 481 1766 481 
L 2356 481 
L 2356 0 
L 1766 0 
Q 1100 0 847 248 
Q 594 497 594 1153 
L 594 3053 
L 172 3053 
L 172 3500 
L 594 3500 
L 594 4494 
L 1172 4494 
z
" transform="scale(0.015625)"/>
       <path id="DejaVuSans-61" d="M 2194 1759 
Q 1497 1759 1228 1600 
Q 959 1441 959 1056 
Q 959 750 1161 570 
Q 1363 391 1709 391 
Q 2188 391 2477 730 
Q 2766 1069 2766 1631 
L 2766 1759 
L 2194 1759 
z
M 3341 1997 
L 3341 0 
L 2766 0 
L 2766 531 
Q 2569 213 2275 61 
Q 1981 -91 1556 -91 
Q 1019 -91 701 211 
Q 384 513 384 1019 
Q 384 1609 779 1909 
Q 1175 2209 1959 2209 
L 2766 2209 
L 2766 2266 
Q 2766 2663 2505 2880 
Q 2244 3097 1772 3097 
Q 1472 3097 1187 3025 
Q 903 2953 641 2809 
L 641 3341 
Q 956 3463 1253 3523 
Q 1550 3584 1831 3584 
Q 2591 3584 2966 3190 
Q 3341 2797 3341 1997 
z
" transform="scale(0.015625)"/>
       <path id="DejaVuSans-5f" d="M 3263 -1063 
L 3263 -1509 
L -63 -1509 
L -63 -1063 
L 3263 -1063 
z
" transform="scale(0.015625)"/>
       <path id="DejaVuSans-73" d="M 2834 3397 
L 2834 2853 
Q 2591 2978 2328 3040 
Q 2066 3103 1784 3103 
Q 1356 3103 1142 2972 
Q 928 2841 928 2578 
Q 928 2378 1081 2264 
Q 1234 2150 1697 2047 
L 1894 2003 
Q 2506 1872 2764 1633 
Q 3022 1394 3022 966 
Q 3022 478 2636 193 
Q 2250 -91 1575 -91 
Q 1294 -91 989 -36 
Q 684 19 347 128 
L 347 722 
Q 666 556 975 473 
Q 1284 391 1588 391 
Q 1994 391 2212 530 
Q 2431 669 2431 922 
Q 2431 1156 2273 1281 
Q 2116 1406 1581 1522 
L 1381 1569 
Q 847 1681 609 1914 
Q 372 2147 372 2553 
Q 372 3047 722 3315 
Q 1072 3584 1716 3584 
Q 2034 3584 2315 3537 
Q 2597 3491 2834 3397 
z
" transform="scale(0.015625)"/>
       <path id="DejaVuSans-77" d="M 269 3500 
L 844 3500 
L 1563 769 
L 2278 3500 
L 2956 3500 
L 3675 769 
L 4391 3500 
L 4966 3500 
L 4050 0 
L 3372 0 
L 2619 2869 
L 1863 0 
L 1184 0 
L 269 3500 
z
" transform="scale(0.015625)"/>
       <path id="DejaVuSans-70" d="M 1159 525 
L 1159 -1331 
L 581 -1331 
L 581 3500 
L 1159 3500 
L 1159 2969 
Q 1341 3281 1617 3432 
Q 1894 3584 2278 3584 
Q 2916 3584 3314 3078 
Q 3713 2572 3713 1747 
Q 3713 922 3314 415 
Q 2916 -91 2278 -91 
Q 1894 -91 1617 61 
Q 1341 213 1159 525 
z
M 3116 1747 
Q 3116 2381 2855 2742 
Q 2594 3103 2138 3103 
Q 1681 3103 1420 2742 
Q 1159 2381 1159 1747 
Q 1159 1113 1420 752 
Q 1681 391 2138 391 
Q 2594 391 2855 752 
Q 3116 1113 3116 1747 
z
" transform="scale(0.015625)"/>
      </defs>
      <use xlink:href="#DejaVuSans-64"/>
      <use xlink:href="#DejaVuSans-65" x="63.476562"/>
      <use xlink:href="#DejaVuSans-6c" x="125"/>
      <use xlink:href="#DejaVuSans-74" x="152.783203"/>
      <use xlink:href="#DejaVuSans-61" x="191.992188"/>
      <use xlink:href="#DejaVuSans-5f" x="253.271484"/>
      <use xlink:href="#DejaVuSans-73" x="303.271484"/>
      <use xlink:href="#DejaVuSans-77" x="355.371094"/>
      <use xlink:href="#DejaVuSans-65" x="437.158203"/>
      <use xlink:href="#DejaVuSans-65" x="498.681641"/>
      <use xlink:href="#DejaVuSans-70" x="560.205078"/>
     </g>
    </g>
    <g id="text_11">
     <!-- 1e6 -->
     <g transform="translate(758.721875 347.676562) scale(0.1 -0.1)">
      <defs>
       <path id="DejaVuSans-36" d="M 2113 2584 
Q 1688 2584 1439 2293 
Q 1191 2003 1191 1497 
Q 1191 994 1439 701 
Q 1688 409 2113 409 
Q 2538 409 2786 701 
Q 3034 994 3034 1497 
Q 3034 2003 2786 2293 
Q 2538 2584 2113 2584 
z
M 3366 4563 
L 3366 3988 
Q 3128 4100 2886 4159 
Q 2644 4219 2406 4219 
Q 1781 4219 1451 3797 
Q 1122 3375 1075 2522 
Q 1259 2794 1537 2939 
Q 1816 3084 2150 3084 
Q 2853 3084 3261 2657 
Q 3669 2231 3669 1497 
Q 3669 778 3244 343 
Q 2819 -91 2113 -91 
Q 1303 -91 875 529 
Q 447 1150 447 2328 
Q 447 3434 972 4092 
Q 1497 4750 2381 4750 
Q 2619 4750 2861 4703 
Q 3103 4656 3366 4563 
z
" transform="scale(0.015625)"/>
      </defs>
      <use xlink:href="#DejaVuSans-31"/>
      <use xlink:href="#DejaVuSans-65" x="63.623047"/>
      <use xlink:href="#DejaVuSans-36" x="125.146484"/>
     </g>
    </g>
   </g>
   <g id="matplotlib.axis_2">
    <g id="ytick_1">
     <g id="line2d_10">
      <defs>
       <path id="maa1743fc34" d="M 0 0 
L -3.5 0 
" style="stroke: #000000; stroke-width: 0.8"/>
      </defs>
      <g>
       <use xlink:href="#maa1743fc34" x="108" y="320.4" style="stroke: #000000; stroke-width: 0.8"/>
      </g>
     </g>
     <g id="text_12">
      <!-- 0 -->
      <g transform="translate(94.6375 324.199219) scale(0.1 -0.1)">
       <use xlink:href="#DejaVuSans-30"/>
      </g>
     </g>
    </g>
    <g id="ytick_2">
     <g id="line2d_11">
      <g>
       <use xlink:href="#maa1743fc34" x="108" y="281.574475" style="stroke: #000000; stroke-width: 0.8"/>
      </g>
     </g>
     <g id="text_13">
      <!-- 1 -->
      <g transform="translate(94.6375 285.373694) scale(0.1 -0.1)">
       <use xlink:href="#DejaVuSans-31"/>
      </g>
     </g>
    </g>
    <g id="ytick_3">
     <g id="line2d_12">
      <g>
       <use xlink:href="#maa1743fc34" x="108" y="242.74895" style="stroke: #000000; stroke-width: 0.8"/>
      </g>
     </g>
     <g id="text_14">
      <!-- 2 -->
      <g transform="translate(94.6375 246.548168) scale(0.1 -0.1)">
       <use xlink:href="#DejaVuSans-32"/>
      </g>
     </g>
    </g>
    <g id="ytick_4">
     <g id="line2d_13">
      <g>
       <use xlink:href="#maa1743fc34" x="108" y="203.923424" style="stroke: #000000; stroke-width: 0.8"/>
      </g>
     </g>
     <g id="text_15">
      <!-- 3 -->
      <g transform="translate(94.6375 207.722643) scale(0.1 -0.1)">
       <use xlink:href="#DejaVuSans-33"/>
      </g>
     </g>
    </g>
    <g id="ytick_5">
     <g id="line2d_14">
      <g>
       <use xlink:href="#maa1743fc34" x="108" y="165.097899" style="stroke: #000000; stroke-width: 0.8"/>
      </g>
     </g>
     <g id="text_16">
      <!-- 4 -->
      <g transform="translate(94.6375 168.897118) scale(0.1 -0.1)">
       <use xlink:href="#DejaVuSans-34"/>
      </g>
     </g>
    </g>
    <g id="ytick_6">
     <g id="line2d_15">
      <g>
       <use xlink:href="#maa1743fc34" x="108" y="126.272374" style="stroke: #000000; stroke-width: 0.8"/>
      </g>
     </g>
     <g id="text_17">
      <!-- 5 -->
      <g transform="translate(94.6375 130.071593) scale(0.1 -0.1)">
       <defs>
        <path id="DejaVuSans-35" d="M 691 4666 
L 3169 4666 
L 3169 4134 
L 1269 4134 
L 1269 2991 
Q 1406 3038 1543 3061 
Q 1681 3084 1819 3084 
Q 2600 3084 3056 2656 
Q 3513 2228 3513 1497 
Q 3513 744 3044 326 
Q 2575 -91 1722 -91 
Q 1428 -91 1123 -41 
Q 819 9 494 109 
L 494 744 
Q 775 591 1075 516 
Q 1375 441 1709 441 
Q 2250 441 2565 725 
Q 2881 1009 2881 1497 
Q 2881 1984 2565 2268 
Q 2250 2553 1709 2553 
Q 1456 2553 1204 2497 
Q 953 2441 691 2322 
L 691 4666 
z
" transform="scale(0.015625)"/>
       </defs>
       <use xlink:href="#DejaVuSans-35"/>
      </g>
     </g>
    </g>
    <g id="ytick_7">
     <g id="line2d_16">
      <g>
       <use xlink:href="#maa1743fc34" x="108" y="87.446849" style="stroke: #000000; stroke-width: 0.8"/>
      </g>
     </g>
     <g id="text_18">
      <!-- 6 -->
      <g transform="translate(94.6375 91.246068) scale(0.1 -0.1)">
       <use xlink:href="#DejaVuSans-36"/>
      </g>
     </g>
    </g>
    <g id="ytick_8">
     <g id="line2d_17">
      <g>
       <use xlink:href="#maa1743fc34" x="108" y="48.621324" style="stroke: #000000; stroke-width: 0.8"/>
      </g>
     </g>
     <g id="text_19">
      <!-- 7 -->
      <g transform="translate(94.6375 52.420542) scale(0.1 -0.1)">
       <defs>
        <path id="DejaVuSans-37" d="M 525 4666 
L 3525 4666 
L 3525 4397 
L 1831 0 
L 1172 0 
L 2766 4134 
L 525 4134 
L 525 4666 
z
" transform="scale(0.015625)"/>
       </defs>
       <use xlink:href="#DejaVuSans-37"/>
      </g>
     </g>
    </g>
    <g id="text_20">
     <!-- Density -->
     <g transform="translate(88.557812 200.808594) rotate(-90) scale(0.1 -0.1)">
      <defs>
       <path id="DejaVuSans-44" d="M 1259 4147 
L 1259 519 
L 2022 519 
Q 2988 519 3436 956 
Q 3884 1394 3884 2338 
Q 3884 3275 3436 3711 
Q 2988 4147 2022 4147 
L 1259 4147 
z
M 628 4666 
L 1925 4666 
Q 3281 4666 3915 4102 
Q 4550 3538 4550 2338 
Q 4550 1131 3912 565 
Q 3275 0 1925 0 
L 628 0 
L 628 4666 
z
" transform="scale(0.015625)"/>
       <path id="DejaVuSans-6e" d="M 3513 2113 
L 3513 0 
L 2938 0 
L 2938 2094 
Q 2938 2591 2744 2837 
Q 2550 3084 2163 3084 
Q 1697 3084 1428 2787 
Q 1159 2491 1159 1978 
L 1159 0 
L 581 0 
L 581 3500 
L 1159 3500 
L 1159 2956 
Q 1366 3272 1645 3428 
Q 1925 3584 2291 3584 
Q 2894 3584 3203 3211 
Q 3513 2838 3513 2113 
z
" transform="scale(0.015625)"/>
       <path id="DejaVuSans-69" d="M 603 3500 
L 1178 3500 
L 1178 0 
L 603 0 
L 603 3500 
z
M 603 4863 
L 1178 4863 
L 1178 4134 
L 603 4134 
L 603 4863 
z
" transform="scale(0.015625)"/>
       <path id="DejaVuSans-79" d="M 2059 -325 
Q 1816 -950 1584 -1140 
Q 1353 -1331 966 -1331 
L 506 -1331 
L 506 -850 
L 844 -850 
Q 1081 -850 1212 -737 
Q 1344 -625 1503 -206 
L 1606 56 
L 191 3500 
L 800 3500 
L 1894 763 
L 2988 3500 
L 3597 3500 
L 2059 -325 
z
" transform="scale(0.015625)"/>
      </defs>
      <use xlink:href="#DejaVuSans-44"/>
      <use xlink:href="#DejaVuSans-65" x="77.001953"/>
      <use xlink:href="#DejaVuSans-6e" x="138.525391"/>
      <use xlink:href="#DejaVuSans-73" x="201.904297"/>
      <use xlink:href="#DejaVuSans-69" x="254.003906"/>
      <use xlink:href="#DejaVuSans-74" x="281.787109"/>
      <use xlink:href="#DejaVuSans-79" x="320.996094"/>
     </g>
    </g>
    <g id="text_21">
     <!-- 1e−7 -->
     <g transform="translate(108 40.2) scale(0.1 -0.1)">
      <use xlink:href="#DejaVuSans-31"/>
      <use xlink:href="#DejaVuSans-65" x="63.623047"/>
      <use xlink:href="#DejaVuSans-2212" x="125.146484"/>
      <use xlink:href="#DejaVuSans-37" x="208.935547"/>
     </g>
    </g>
   </g>
   <g id="patch_3">
    <path d="M 108 320.4 
L 108 43.2 
" style="fill: none; stroke: #000000; stroke-width: 0.8; stroke-linejoin: miter; stroke-linecap: square"/>
   </g>
   <g id="patch_4">
    <path d="M 777.6 320.4 
L 777.6 43.2 
" style="fill: none; stroke: #000000; stroke-width: 0.8; stroke-linejoin: miter; stroke-linecap: square"/>
   </g>
   <g id="patch_5">
    <path d="M 108 320.4 
L 777.6 320.4 
" style="fill: none; stroke: #000000; stroke-width: 0.8; stroke-linejoin: miter; stroke-linecap: square"/>
   </g>
   <g id="patch_6">
    <path d="M 108 43.2 
L 777.6 43.2 
" style="fill: none; stroke: #000000; stroke-width: 0.8; stroke-linejoin: miter; stroke-linecap: square"/>
   </g>
   <g id="text_22">
    <!-- XP-EHH Delta Distribution from Sweep Actual -->
    <g transform="translate(307.017187 37.2) scale(0.12 -0.12)">
     <defs>
      <path id="DejaVuSans-58" d="M 403 4666 
L 1081 4666 
L 2241 2931 
L 3406 4666 
L 4084 4666 
L 2584 2425 
L 4184 0 
L 3506 0 
L 2194 1984 
L 872 0 
L 191 0 
L 1856 2491 
L 403 4666 
z
" transform="scale(0.015625)"/>
      <path id="DejaVuSans-50" d="M 1259 4147 
L 1259 2394 
L 2053 2394 
Q 2494 2394 2734 2622 
Q 2975 2850 2975 3272 
Q 2975 3691 2734 3919 
Q 2494 4147 2053 4147 
L 1259 4147 
z
M 628 4666 
L 2053 4666 
Q 2838 4666 3239 4311 
Q 3641 3956 3641 3272 
Q 3641 2581 3239 2228 
Q 2838 1875 2053 1875 
L 1259 1875 
L 1259 0 
L 628 0 
L 628 4666 
z
" transform="scale(0.015625)"/>
      <path id="DejaVuSans-2d" d="M 313 2009 
L 1997 2009 
L 1997 1497 
L 313 1497 
L 313 2009 
z
" transform="scale(0.015625)"/>
      <path id="DejaVuSans-45" d="M 628 4666 
L 3578 4666 
L 3578 4134 
L 1259 4134 
L 1259 2753 
L 3481 2753 
L 3481 2222 
L 1259 2222 
L 1259 531 
L 3634 531 
L 3634 0 
L 628 0 
L 628 4666 
z
" transform="scale(0.015625)"/>
      <path id="DejaVuSans-48" d="M 628 4666 
L 1259 4666 
L 1259 2753 
L 3553 2753 
L 3553 4666 
L 4184 4666 
L 4184 0 
L 3553 0 
L 3553 2222 
L 1259 2222 
L 1259 0 
L 628 0 
L 628 4666 
z
" transform="scale(0.015625)"/>
      <path id="DejaVuSans-20" transform="scale(0.015625)"/>
      <path id="DejaVuSans-72" d="M 2631 2963 
Q 2534 3019 2420 3045 
Q 2306 3072 2169 3072 
Q 1681 3072 1420 2755 
Q 1159 2438 1159 1844 
L 1159 0 
L 581 0 
L 581 3500 
L 1159 3500 
L 1159 2956 
Q 1341 3275 1631 3429 
Q 1922 3584 2338 3584 
Q 2397 3584 2469 3576 
Q 2541 3569 2628 3553 
L 2631 2963 
z
" transform="scale(0.015625)"/>
      <path id="DejaVuSans-62" d="M 3116 1747 
Q 3116 2381 2855 2742 
Q 2594 3103 2138 3103 
Q 1681 3103 1420 2742 
Q 1159 2381 1159 1747 
Q 1159 1113 1420 752 
Q 1681 391 2138 391 
Q 2594 391 2855 752 
Q 3116 1113 3116 1747 
z
M 1159 2969 
Q 1341 3281 1617 3432 
Q 1894 3584 2278 3584 
Q 2916 3584 3314 3078 
Q 3713 2572 3713 1747 
Q 3713 922 3314 415 
Q 2916 -91 2278 -91 
Q 1894 -91 1617 61 
Q 1341 213 1159 525 
L 1159 0 
L 581 0 
L 581 4863 
L 1159 4863 
L 1159 2969 
z
" transform="scale(0.015625)"/>
      <path id="DejaVuSans-75" d="M 544 1381 
L 544 3500 
L 1119 3500 
L 1119 1403 
Q 1119 906 1312 657 
Q 1506 409 1894 409 
Q 2359 409 2629 706 
Q 2900 1003 2900 1516 
L 2900 3500 
L 3475 3500 
L 3475 0 
L 2900 0 
L 2900 538 
Q 2691 219 2414 64 
Q 2138 -91 1772 -91 
Q 1169 -91 856 284 
Q 544 659 544 1381 
z
M 1991 3584 
L 1991 3584 
z
" transform="scale(0.015625)"/>
      <path id="DejaVuSans-6f" d="M 1959 3097 
Q 1497 3097 1228 2736 
Q 959 2375 959 1747 
Q 959 1119 1226 758 
Q 1494 397 1959 397 
Q 2419 397 2687 759 
Q 2956 1122 2956 1747 
Q 2956 2369 2687 2733 
Q 2419 3097 1959 3097 
z
M 1959 3584 
Q 2709 3584 3137 3096 
Q 3566 2609 3566 1747 
Q 3566 888 3137 398 
Q 2709 -91 1959 -91 
Q 1206 -91 779 398 
Q 353 888 353 1747 
Q 353 2609 779 3096 
Q 1206 3584 1959 3584 
z
" transform="scale(0.015625)"/>
      <path id="DejaVuSans-66" d="M 2375 4863 
L 2375 4384 
L 1825 4384 
Q 1516 4384 1395 4259 
Q 1275 4134 1275 3809 
L 1275 3500 
L 2222 3500 
L 2222 3053 
L 1275 3053 
L 1275 0 
L 697 0 
L 697 3053 
L 147 3053 
L 147 3500 
L 697 3500 
L 697 3744 
Q 697 4328 969 4595 
Q 1241 4863 1831 4863 
L 2375 4863 
z
" transform="scale(0.015625)"/>
      <path id="DejaVuSans-6d" d="M 3328 2828 
Q 3544 3216 3844 3400 
Q 4144 3584 4550 3584 
Q 5097 3584 5394 3201 
Q 5691 2819 5691 2113 
L 5691 0 
L 5113 0 
L 5113 2094 
Q 5113 2597 4934 2840 
Q 4756 3084 4391 3084 
Q 3944 3084 3684 2787 
Q 3425 2491 3425 1978 
L 3425 0 
L 2847 0 
L 2847 2094 
Q 2847 2600 2669 2842 
Q 2491 3084 2119 3084 
Q 1678 3084 1418 2786 
Q 1159 2488 1159 1978 
L 1159 0 
L 581 0 
L 581 3500 
L 1159 3500 
L 1159 2956 
Q 1356 3278 1631 3431 
Q 1906 3584 2284 3584 
Q 2666 3584 2933 3390 
Q 3200 3197 3328 2828 
z
" transform="scale(0.015625)"/>
      <path id="DejaVuSans-53" d="M 3425 4513 
L 3425 3897 
Q 3066 4069 2747 4153 
Q 2428 4238 2131 4238 
Q 1616 4238 1336 4038 
Q 1056 3838 1056 3469 
Q 1056 3159 1242 3001 
Q 1428 2844 1947 2747 
L 2328 2669 
Q 3034 2534 3370 2195 
Q 3706 1856 3706 1288 
Q 3706 609 3251 259 
Q 2797 -91 1919 -91 
Q 1588 -91 1214 -16 
Q 841 59 441 206 
L 441 856 
Q 825 641 1194 531 
Q 1563 422 1919 422 
Q 2459 422 2753 634 
Q 3047 847 3047 1241 
Q 3047 1584 2836 1778 
Q 2625 1972 2144 2069 
L 1759 2144 
Q 1053 2284 737 2584 
Q 422 2884 422 3419 
Q 422 4038 858 4394 
Q 1294 4750 2059 4750 
Q 2388 4750 2728 4690 
Q 3069 4631 3425 4513 
z
" transform="scale(0.015625)"/>
      <path id="DejaVuSans-41" d="M 2188 4044 
L 1331 1722 
L 3047 1722 
L 2188 4044 
z
M 1831 4666 
L 2547 4666 
L 4325 0 
L 3669 0 
L 3244 1197 
L 1141 1197 
L 716 0 
L 50 0 
L 1831 4666 
z
" transform="scale(0.015625)"/>
      <path id="DejaVuSans-63" d="M 3122 3366 
L 3122 2828 
Q 2878 2963 2633 3030 
Q 2388 3097 2138 3097 
Q 1578 3097 1268 2742 
Q 959 2388 959 1747 
Q 959 1106 1268 751 
Q 1578 397 2138 397 
Q 2388 397 2633 464 
Q 2878 531 3122 666 
L 3122 134 
Q 2881 22 2623 -34 
Q 2366 -91 2075 -91 
Q 1284 -91 818 406 
Q 353 903 353 1747 
Q 353 2603 823 3093 
Q 1294 3584 2113 3584 
Q 2378 3584 2631 3529 
Q 2884 3475 3122 3366 
z
" transform="scale(0.015625)"/>
     </defs>
     <use xlink:href="#DejaVuSans-58"/>
     <use xlink:href="#DejaVuSans-50" x="68.505859"/>
     <use xlink:href="#DejaVuSans-2d" x="126.558594"/>
     <use xlink:href="#DejaVuSans-45" x="162.642578"/>
     <use xlink:href="#DejaVuSans-48" x="225.826172"/>
     <use xlink:href="#DejaVuSans-48" x="301.021484"/>
     <use xlink:href="#DejaVuSans-20" x="376.216797"/>
     <use xlink:href="#DejaVuSans-44" x="408.003906"/>
     <use xlink:href="#DejaVuSans-65" x="485.005859"/>
     <use xlink:href="#DejaVuSans-6c" x="546.529297"/>
     <use xlink:href="#DejaVuSans-74" x="574.3125"/>
     <use xlink:href="#DejaVuSans-61" x="613.521484"/>
     <use xlink:href="#DejaVuSans-20" x="674.800781"/>
     <use xlink:href="#DejaVuSans-44" x="706.587891"/>
     <use xlink:href="#DejaVuSans-69" x="783.589844"/>
     <use xlink:href="#DejaVuSans-73" x="811.373047"/>
     <use xlink:href="#DejaVuSans-74" x="863.472656"/>
     <use xlink:href="#DejaVuSans-72" x="902.681641"/>
     <use xlink:href="#DejaVuSans-69" x="943.794922"/>
     <use xlink:href="#DejaVuSans-62" x="971.578125"/>
     <use xlink:href="#DejaVuSans-75" x="1035.054688"/>
     <use xlink:href="#DejaVuSans-74" x="1098.433594"/>
     <use xlink:href="#DejaVuSans-69" x="1137.642578"/>
     <use xlink:href="#DejaVuSans-6f" x="1165.425781"/>
     <use xlink:href="#DejaVuSans-6e" x="1226.607422"/>
     <use xlink:href="#DejaVuSans-20" x="1289.986328"/>
     <use xlink:href="#DejaVuSans-66" x="1321.773438"/>
     <use xlink:href="#DejaVuSans-72" x="1356.978516"/>
     <use xlink:href="#DejaVuSans-6f" x="1395.841797"/>
     <use xlink:href="#DejaVuSans-6d" x="1457.023438"/>
     <use xlink:href="#DejaVuSans-20" x="1554.435547"/>
     <use xlink:href="#DejaVuSans-53" x="1586.222656"/>
     <use xlink:href="#DejaVuSans-77" x="1649.699219"/>
     <use xlink:href="#DejaVuSans-65" x="1731.486328"/>
     <use xlink:href="#DejaVuSans-65" x="1793.009766"/>
     <use xlink:href="#DejaVuSans-70" x="1854.533203"/>
     <use xlink:href="#DejaVuSans-20" x="1918.009766"/>
     <use xlink:href="#DejaVuSans-41" x="1949.796875"/>
     <use xlink:href="#DejaVuSans-63" x="2016.455078"/>
     <use xlink:href="#DejaVuSans-74" x="2071.435547"/>
     <use xlink:href="#DejaVuSans-75" x="2110.644531"/>
     <use xlink:href="#DejaVuSans-61" x="2174.023438"/>
     <use xlink:href="#DejaVuSans-6c" x="2235.302734"/>
    </g>
   </g>
   <g id="legend_1">
    <g id="patch_7">
     <path d="M 633.575 95.234375 
L 770.6 95.234375 
Q 772.6 95.234375 772.6 93.234375 
L 772.6 50.2 
Q 772.6 48.2 770.6 48.2 
L 633.575 48.2 
Q 631.575 48.2 631.575 50.2 
L 631.575 93.234375 
Q 631.575 95.234375 633.575 95.234375 
z
" style="fill: #ffffff; opacity: 0.8; stroke: #cccccc; stroke-linejoin: miter"/>
    </g>
    <g id="patch_8">
     <path d="M 635.575 59.798437 
L 655.575 59.798437 
L 655.575 52.798437 
L 635.575 52.798437 
z
" style="fill: #ff00ff; fill-opacity: 0.25; stroke: #ff00ff; stroke-linejoin: miter"/>
    </g>
    <g id="text_23">
     <!-- Stochastic Backtrace -->
     <g transform="translate(663.575 59.798437) scale(0.1 -0.1)">
      <defs>
       <path id="DejaVuSans-68" d="M 3513 2113 
L 3513 0 
L 2938 0 
L 2938 2094 
Q 2938 2591 2744 2837 
Q 2550 3084 2163 3084 
Q 1697 3084 1428 2787 
Q 1159 2491 1159 1978 
L 1159 0 
L 581 0 
L 581 4863 
L 1159 4863 
L 1159 2956 
Q 1366 3272 1645 3428 
Q 1925 3584 2291 3584 
Q 2894 3584 3203 3211 
Q 3513 2838 3513 2113 
z
" transform="scale(0.015625)"/>
       <path id="DejaVuSans-42" d="M 1259 2228 
L 1259 519 
L 2272 519 
Q 2781 519 3026 730 
Q 3272 941 3272 1375 
Q 3272 1813 3026 2020 
Q 2781 2228 2272 2228 
L 1259 2228 
z
M 1259 4147 
L 1259 2741 
L 2194 2741 
Q 2656 2741 2882 2914 
Q 3109 3088 3109 3444 
Q 3109 3797 2882 3972 
Q 2656 4147 2194 4147 
L 1259 4147 
z
M 628 4666 
L 2241 4666 
Q 2963 4666 3353 4366 
Q 3744 4066 3744 3513 
Q 3744 3084 3544 2831 
Q 3344 2578 2956 2516 
Q 3422 2416 3680 2098 
Q 3938 1781 3938 1306 
Q 3938 681 3513 340 
Q 3088 0 2303 0 
L 628 0 
L 628 4666 
z
" transform="scale(0.015625)"/>
       <path id="DejaVuSans-6b" d="M 581 4863 
L 1159 4863 
L 1159 1991 
L 2875 3500 
L 3609 3500 
L 1753 1863 
L 3688 0 
L 2938 0 
L 1159 1709 
L 1159 0 
L 581 0 
L 581 4863 
z
" transform="scale(0.015625)"/>
      </defs>
      <use xlink:href="#DejaVuSans-53"/>
      <use xlink:href="#DejaVuSans-74" x="63.476562"/>
      <use xlink:href="#DejaVuSans-6f" x="102.685547"/>
      <use xlink:href="#DejaVuSans-63" x="163.867188"/>
      <use xlink:href="#DejaVuSans-68" x="218.847656"/>
      <use xlink:href="#DejaVuSans-61" x="282.226562"/>
      <use xlink:href="#DejaVuSans-73" x="343.505859"/>
      <use xlink:href="#DejaVuSans-74" x="395.605469"/>
      <use xlink:href="#DejaVuSans-69" x="434.814453"/>
      <use xlink:href="#DejaVuSans-63" x="462.597656"/>
      <use xlink:href="#DejaVuSans-20" x="517.578125"/>
      <use xlink:href="#DejaVuSans-42" x="549.365234"/>
      <use xlink:href="#DejaVuSans-61" x="617.96875"/>
      <use xlink:href="#DejaVuSans-63" x="679.248047"/>
      <use xlink:href="#DejaVuSans-6b" x="734.228516"/>
      <use xlink:href="#DejaVuSans-74" x="792.138672"/>
      <use xlink:href="#DejaVuSans-72" x="831.347656"/>
      <use xlink:href="#DejaVuSans-61" x="872.460938"/>
      <use xlink:href="#DejaVuSans-63" x="933.740234"/>
      <use xlink:href="#DejaVuSans-65" x="988.720703"/>
     </g>
    </g>
    <g id="patch_9">
     <path d="M 635.575 74.476562 
L 655.575 74.476562 
L 655.575 67.476562 
L 635.575 67.476562 
z
" style="fill: #1e90ff; fill-opacity: 0.25; stroke: #1e90ff; stroke-linejoin: miter"/>
    </g>
    <g id="text_24">
     <!-- Viterbi Path -->
     <g transform="translate(663.575 74.476562) scale(0.1 -0.1)">
      <defs>
       <path id="DejaVuSans-56" d="M 1831 0 
L 50 4666 
L 709 4666 
L 2188 738 
L 3669 4666 
L 4325 4666 
L 2547 0 
L 1831 0 
z
" transform="scale(0.015625)"/>
      </defs>
      <use xlink:href="#DejaVuSans-56"/>
      <use xlink:href="#DejaVuSans-69" x="66.158203"/>
      <use xlink:href="#DejaVuSans-74" x="93.941406"/>
      <use xlink:href="#DejaVuSans-65" x="133.150391"/>
      <use xlink:href="#DejaVuSans-72" x="194.673828"/>
      <use xlink:href="#DejaVuSans-62" x="235.787109"/>
      <use xlink:href="#DejaVuSans-69" x="299.263672"/>
      <use xlink:href="#DejaVuSans-20" x="327.046875"/>
      <use xlink:href="#DejaVuSans-50" x="358.833984"/>
      <use xlink:href="#DejaVuSans-61" x="414.636719"/>
      <use xlink:href="#DejaVuSans-74" x="475.916016"/>
      <use xlink:href="#DejaVuSans-68" x="515.125"/>
     </g>
    </g>
    <g id="patch_10">
     <path d="M 635.575 89.154687 
L 655.575 89.154687 
L 655.575 82.154687 
L 635.575 82.154687 
z
" style="fill: #0000ff; fill-opacity: 0.25; stroke: #0000ff; stroke-linejoin: miter"/>
    </g>
    <g id="text_25">
     <!-- SWIF(r) All-Stats -->
     <g transform="translate(663.575 89.154687) scale(0.1 -0.1)">
      <defs>
       <path id="DejaVuSans-57" d="M 213 4666 
L 850 4666 
L 1831 722 
L 2809 4666 
L 3519 4666 
L 4500 722 
L 5478 4666 
L 6119 4666 
L 4947 0 
L 4153 0 
L 3169 4050 
L 2175 0 
L 1381 0 
L 213 4666 
z
" transform="scale(0.015625)"/>
       <path id="DejaVuSans-49" d="M 628 4666 
L 1259 4666 
L 1259 0 
L 628 0 
L 628 4666 
z
" transform="scale(0.015625)"/>
       <path id="DejaVuSans-46" d="M 628 4666 
L 3309 4666 
L 3309 4134 
L 1259 4134 
L 1259 2759 
L 3109 2759 
L 3109 2228 
L 1259 2228 
L 1259 0 
L 628 0 
L 628 4666 
z
" transform="scale(0.015625)"/>
       <path id="DejaVuSans-28" d="M 1984 4856 
Q 1566 4138 1362 3434 
Q 1159 2731 1159 2009 
Q 1159 1288 1364 580 
Q 1569 -128 1984 -844 
L 1484 -844 
Q 1016 -109 783 600 
Q 550 1309 550 2009 
Q 550 2706 781 3412 
Q 1013 4119 1484 4856 
L 1984 4856 
z
" transform="scale(0.015625)"/>
       <path id="DejaVuSans-29" d="M 513 4856 
L 1013 4856 
Q 1481 4119 1714 3412 
Q 1947 2706 1947 2009 
Q 1947 1309 1714 600 
Q 1481 -109 1013 -844 
L 513 -844 
Q 928 -128 1133 580 
Q 1338 1288 1338 2009 
Q 1338 2731 1133 3434 
Q 928 4138 513 4856 
z
" transform="scale(0.015625)"/>
      </defs>
      <use xlink:href="#DejaVuSans-53"/>
      <use xlink:href="#DejaVuSans-57" x="63.476562"/>
      <use xlink:href="#DejaVuSans-49" x="162.353516"/>
      <use xlink:href="#DejaVuSans-46" x="191.845703"/>
      <use xlink:href="#DejaVuSans-28" x="249.365234"/>
      <use xlink:href="#DejaVuSans-72" x="288.378906"/>
      <use xlink:href="#DejaVuSans-29" x="329.492188"/>
      <use xlink:href="#DejaVuSans-20" x="368.505859"/>
      <use xlink:href="#DejaVuSans-41" x="400.292969"/>
      <use xlink:href="#DejaVuSans-6c" x="468.701172"/>
      <use xlink:href="#DejaVuSans-6c" x="496.484375"/>
      <use xlink:href="#DejaVuSans-2d" x="524.267578"/>
      <use xlink:href="#DejaVuSans-53" x="560.351562"/>
      <use xlink:href="#DejaVuSans-74" x="623.828125"/>
      <use xlink:href="#DejaVuSans-61" x="663.037109"/>
      <use xlink:href="#DejaVuSans-74" x="724.316406"/>
      <use xlink:href="#DejaVuSans-73" x="763.525391"/>
     </g>
    </g>
   </g>
  </g>
 </g>
 <defs>
  <clipPath id="pe83f5bc581">
   <rect x="108" y="43.2" width="669.6" height="277.2"/>
  </clipPath>
 </defs>
</svg>
