<?xml version="1.0" encoding="utf-8" standalone="no"?>
<!DOCTYPE svg PUBLIC "-//W3C//DTD SVG 1.1//EN"
  "http://www.w3.org/Graphics/SVG/1.1/DTD/svg11.dtd">
<svg xmlns:xlink="http://www.w3.org/1999/xlink" width="864pt" height="360pt" viewBox="0 0 864 360" xmlns="http://www.w3.org/2000/svg" version="1.1">
 <metadata>
  <rdf:RDF xmlns:dc="http://purl.org/dc/elements/1.1/" xmlns:cc="http://creativecommons.org/ns#" xmlns:rdf="http://www.w3.org/1999/02/22-rdf-syntax-ns#">
   <cc:Work>
    <dc:type rdf:resource="http://purl.org/dc/dcmitype/StillImage"/>
    <dc:date>2024-06-01T10:56:16.804120</dc:date>
    <dc:format>image/svg+xml</dc:format>
    <dc:creator>
     <cc:Agent>
      <dc:title>Matplotlib v3.8.0, https://matplotlib.org/</dc:title>
     </cc:Agent>
    </dc:creator>
   </cc:Work>
  </rdf:RDF>
 </metadata>
 <defs>
  <style type="text/css">*{stroke-linejoin: round; stroke-linecap: butt}</style>
 </defs>
 <g id="figure_1">
  <g id="patch_1">
   <path d="M 0 360 
L 864 360 
L 864 0 
L 0 0 
z
" style="fill: #ffffff"/>
  </g>
  <g id="axes_1">
   <g id="patch_2">
    <path d="M 108 320.4 
L 777.6 320.4 
L 777.6 43.2 
L 108 43.2 
z
" style="fill: #ffffff"/>
   </g>
   <g id="PolyCollection_1">
    <defs>
     <path id="m77ef1c571c" d="M 237.781206 -39.706393 
L 237.781206 -39.6 
L 239.752127 -39.6 
L 241.723047 -39.6 
L 243.693967 -39.6 
L 245.664887 -39.6 
L 247.635808 -39.6 
L 249.606728 -39.6 
L 251.577648 -39.6 
L 253.548568 -39.6 
L 255.519489 -39.6 
L 257.490409 -39.6 
L 259.461329 -39.6 
L 261.43225 -39.6 
L 263.40317 -39.6 
L 265.37409 -39.6 
L 267.34501 -39.6 
L 269.315931 -39.6 
L 271.286851 -39.6 
L 273.257771 -39.6 
L 275.228691 -39.6 
L 277.199612 -39.6 
L 279.170532 -39.6 
L 281.141452 -39.6 
L 283.112373 -39.6 
L 285.083293 -39.6 
L 287.054213 -39.6 
L 289.025133 -39.6 
L 290.996054 -39.6 
L 292.966974 -39.6 
L 294.937894 -39.6 
L 296.908815 -39.6 
L 298.879735 -39.6 
L 300.850655 -39.6 
L 302.821575 -39.6 
L 304.792496 -39.6 
L 306.763416 -39.6 
L 308.734336 -39.6 
L 310.705256 -39.6 
L 312.676177 -39.6 
L 314.647097 -39.6 
L 316.618017 -39.6 
L 318.588938 -39.6 
L 320.559858 -39.6 
L 322.530778 -39.6 
L 324.501698 -39.6 
L 326.472619 -39.6 
L 328.443539 -39.6 
L 330.414459 -39.6 
L 332.385379 -39.6 
L 334.3563 -39.6 
L 336.32722 -39.6 
L 338.29814 -39.6 
L 340.269061 -39.6 
L 342.239981 -39.6 
L 344.210901 -39.6 
L 346.181821 -39.6 
L 348.152742 -39.6 
L 350.123662 -39.6 
L 352.094582 -39.6 
L 354.065503 -39.6 
L 356.036423 -39.6 
L 358.007343 -39.6 
L 359.978263 -39.6 
L 361.949184 -39.6 
L 363.920104 -39.6 
L 365.891024 -39.6 
L 367.861944 -39.6 
L 369.832865 -39.6 
L 371.803785 -39.6 
L 373.774705 -39.6 
L 375.745626 -39.6 
L 377.716546 -39.6 
L 379.687466 -39.6 
L 381.658386 -39.6 
L 383.629307 -39.6 
L 385.600227 -39.6 
L 387.571147 -39.6 
L 389.542068 -39.6 
L 391.512988 -39.6 
L 393.483908 -39.6 
L 395.454828 -39.6 
L 397.425749 -39.6 
L 399.396669 -39.6 
L 401.367589 -39.6 
L 403.338509 -39.6 
L 405.30943 -39.6 
L 407.28035 -39.6 
L 409.25127 -39.6 
L 411.222191 -39.6 
L 413.193111 -39.6 
L 415.164031 -39.6 
L 417.134951 -39.6 
L 419.105872 -39.6 
L 421.076792 -39.6 
L 423.047712 -39.6 
L 425.018632 -39.6 
L 426.989553 -39.6 
L 428.960473 -39.6 
L 430.931393 -39.6 
L 432.902314 -39.6 
L 434.873234 -39.6 
L 436.844154 -39.6 
L 438.815074 -39.6 
L 440.785995 -39.6 
L 442.756915 -39.6 
L 444.727835 -39.6 
L 446.698756 -39.6 
L 448.669676 -39.6 
L 450.640596 -39.6 
L 452.611516 -39.6 
L 454.582437 -39.6 
L 456.553357 -39.6 
L 458.524277 -39.6 
L 460.495197 -39.6 
L 462.466118 -39.6 
L 464.437038 -39.6 
L 466.407958 -39.6 
L 468.378879 -39.6 
L 470.349799 -39.6 
L 472.320719 -39.6 
L 474.291639 -39.6 
L 476.26256 -39.6 
L 478.23348 -39.6 
L 480.2044 -39.6 
L 482.17532 -39.6 
L 484.146241 -39.6 
L 486.117161 -39.6 
L 488.088081 -39.6 
L 490.059002 -39.6 
L 492.029922 -39.6 
L 494.000842 -39.6 
L 495.971762 -39.6 
L 497.942683 -39.6 
L 499.913603 -39.6 
L 501.884523 -39.6 
L 503.855444 -39.6 
L 505.826364 -39.6 
L 507.797284 -39.6 
L 509.768204 -39.6 
L 511.739125 -39.6 
L 513.710045 -39.6 
L 515.680965 -39.6 
L 517.651885 -39.6 
L 519.622806 -39.6 
L 521.593726 -39.6 
L 523.564646 -39.6 
L 525.535567 -39.6 
L 527.506487 -39.6 
L 529.477407 -39.6 
L 531.448327 -39.6 
L 533.419248 -39.6 
L 535.390168 -39.6 
L 537.361088 -39.6 
L 539.332009 -39.6 
L 541.302929 -39.6 
L 543.273849 -39.6 
L 545.244769 -39.6 
L 547.21569 -39.6 
L 549.18661 -39.6 
L 551.15753 -39.6 
L 553.12845 -39.6 
L 555.099371 -39.6 
L 557.070291 -39.6 
L 559.041211 -39.6 
L 561.012132 -39.6 
L 562.983052 -39.6 
L 564.953972 -39.6 
L 566.924892 -39.6 
L 568.895813 -39.6 
L 570.866733 -39.6 
L 572.837653 -39.6 
L 574.808573 -39.6 
L 576.779494 -39.6 
L 578.750414 -39.6 
L 580.721334 -39.6 
L 582.692255 -39.6 
L 584.663175 -39.6 
L 586.634095 -39.6 
L 588.605015 -39.6 
L 590.575936 -39.6 
L 592.546856 -39.6 
L 594.517776 -39.6 
L 596.488697 -39.6 
L 598.459617 -39.6 
L 600.430537 -39.6 
L 602.401457 -39.6 
L 604.372378 -39.6 
L 606.343298 -39.6 
L 608.314218 -39.6 
L 610.285138 -39.6 
L 612.256059 -39.6 
L 614.226979 -39.6 
L 616.197899 -39.6 
L 618.16882 -39.6 
L 620.13974 -39.6 
L 622.11066 -39.6 
L 624.08158 -39.6 
L 626.052501 -39.6 
L 628.023421 -39.6 
L 629.994341 -39.6 
L 629.994341 -39.602591 
L 629.994341 -39.602591 
L 628.023421 -39.605816 
L 626.052501 -39.612054 
L 624.08158 -39.62306 
L 622.11066 -39.64072 
L 620.13974 -39.666373 
L 618.16882 -39.699864 
L 616.197899 -39.738694 
L 614.226979 -39.777803 
L 612.256059 -39.810405 
L 610.285138 -39.829829 
L 608.314218 -39.831732 
L 606.343298 -39.815676 
L 604.372378 -39.785289 
L 602.401457 -39.746937 
L 600.430537 -39.707558 
L 598.459617 -39.672676 
L 596.488697 -39.645328 
L 594.517776 -39.626097 
L 592.546856 -39.61387 
L 590.575936 -39.606809 
L 588.605015 -39.603108 
L 586.634095 -39.601405 
L 584.663175 -39.600951 
L 582.692255 -39.601806 
L 580.721334 -39.605449 
L 578.750414 -39.616485 
L 576.779494 -39.646443 
L 574.808573 -39.720906 
L 572.837653 -39.890616 
L 570.866733 -40.244906 
L 568.895813 -40.921225 
L 566.924892 -42.098948 
L 564.953972 -43.963515 
L 562.983052 -46.634163 
L 561.012132 -50.068475 
L 559.041211 -53.982941 
L 557.070291 -57.843309 
L 555.099371 -60.962378 
L 553.12845 -62.693208 
L 551.15753 -62.646607 
L 549.18661 -60.833402 
L 547.21569 -57.660604 
L 545.244769 -53.783552 
L 543.273849 -49.887781 
L 541.302929 -46.500021 
L 539.332009 -43.896788 
L 537.361088 -42.119125 
L 535.390168 -41.053348 
L 533.419248 -40.523325 
L 531.448327 -40.356131 
L 529.477407 -40.410373 
L 527.506487 -40.577328 
L 525.535567 -40.772136 
L 523.564646 -40.928189 
L 521.593726 -40.998861 
L 519.622806 -40.963014 
L 517.651885 -40.827794 
L 515.680965 -40.624472 
L 513.710045 -40.398212 
L 511.739125 -40.196788 
L 509.768204 -40.063961 
L 507.797284 -40.040374 
L 505.826364 -40.170525 
L 503.855444 -40.511285 
L 501.884523 -41.136846 
L 499.913603 -42.136814 
L 497.942683 -43.607111 
L 495.971762 -45.636128 
L 494.000842 -48.290603 
L 492.029922 -51.607405 
L 490.059002 -55.599061 
L 488.088081 -60.280261 
L 486.117161 -65.715265 
L 484.146241 -72.069676 
L 482.17532 -79.631576 
L 480.2044 -88.764006 
L 478.23348 -99.779038 
L 476.26256 -112.777149 
L 474.291639 -127.539543 
L 472.320719 -143.552759 
L 470.349799 -160.173763 
L 468.378879 -176.851752 
L 466.407958 -193.279506 
L 464.437038 -209.391109 
L 462.466118 -225.224209 
L 460.495197 -240.746271 
L 458.524277 -255.74565 
L 456.553357 -269.817753 
L 454.582437 -282.400249 
L 452.611516 -292.795101 
L 450.640596 -300.169513 
L 448.669676 -303.6 
L 446.698756 -302.241921 
L 444.727835 -295.638828 
L 442.756915 -284.069149 
L 440.785995 -268.745014 
L 438.815074 -251.698444 
L 436.844154 -235.31771 
L 434.873234 -221.667505 
L 432.902314 -211.850564 
L 430.931393 -205.6812 
L 428.960473 -201.831182 
L 426.989553 -198.415565 
L 425.018632 -193.788884 
L 423.047712 -187.212654 
L 421.076792 -179.100115 
L 419.105872 -170.737645 
L 417.134951 -163.631192 
L 415.164031 -158.795523 
L 413.193111 -156.304349 
L 411.222191 -155.265497 
L 409.25127 -154.180112 
L 407.28035 -151.498767 
L 405.30943 -146.149161 
L 403.338509 -137.860106 
L 401.367589 -127.199837 
L 399.396669 -115.348293 
L 397.425749 -103.707928 
L 395.454828 -93.499385 
L 393.483908 -85.469769 
L 391.512988 -79.776302 
L 389.542068 -76.038665 
L 387.571147 -73.514179 
L 385.600227 -71.340595 
L 383.629307 -68.788003 
L 381.658386 -65.453686 
L 379.687466 -61.338488 
L 377.716546 -56.780261 
L 375.745626 -52.28013 
L 373.774705 -48.303873 
L 371.803785 -45.141715 
L 369.832865 -42.867225 
L 367.861944 -41.381723 
L 365.891024 -40.498088 
L 363.920104 -40.018229 
L 361.949184 -39.779886 
L 359.978263 -39.671446 
L 358.007343 -39.626201 
L 356.036423 -39.60887 
L 354.065503 -39.602772 
L 352.094582 -39.6008 
L 350.123662 -39.600213 
L 348.152742 -39.600052 
L 346.181821 -39.600012 
L 344.210901 -39.600002 
L 342.239981 -39.6 
L 340.269061 -39.6 
L 338.29814 -39.6 
L 336.32722 -39.6 
L 334.3563 -39.6 
L 332.385379 -39.6 
L 330.414459 -39.6 
L 328.443539 -39.6 
L 326.472619 -39.6 
L 324.501698 -39.6 
L 322.530778 -39.6 
L 320.559858 -39.6 
L 318.588938 -39.600001 
L 316.618017 -39.600003 
L 314.647097 -39.60001 
L 312.676177 -39.600037 
L 310.705256 -39.60012 
L 308.734336 -39.600365 
L 306.763416 -39.601022 
L 304.792496 -39.602642 
L 302.821575 -39.606307 
L 300.850655 -39.613898 
L 298.879735 -39.628268 
L 296.908815 -39.653074 
L 294.937894 -39.69199 
L 292.966974 -39.747201 
L 290.996054 -39.81753 
L 289.025133 -39.897095 
L 287.054213 -39.975733 
L 285.083293 -40.042187 
L 283.112373 -40.090184 
L 281.141452 -40.12642 
L 279.170532 -40.178628 
L 277.199612 -40.301301 
L 275.228691 -40.575852 
L 273.257771 -41.100959 
L 271.286851 -41.968847 
L 269.315931 -43.2272 
L 267.34501 -44.83534 
L 265.37409 -46.634122 
L 263.40317 -48.353087 
L 261.43225 -49.66772 
L 259.461329 -50.295026 
L 257.490409 -50.090165 
L 255.519489 -49.099086 
L 253.548568 -47.540729 
L 251.577648 -45.727879 
L 249.606728 -43.965439 
L 247.635808 -42.470862 
L 245.664887 -41.34286 
L 243.693967 -40.576738 
L 241.723047 -40.10531 
L 239.752127 -39.841326 
L 237.781206 -39.706393 
z
" style="stroke: #ff00ff"/>
    </defs>
    <g clip-path="url(#pdce604d4fd)">
     <use xlink:href="#m77ef1c571c" x="0" y="360" style="fill: #ff00ff; fill-opacity: 0.25; stroke: #ff00ff"/>
    </g>
   </g>
   <g id="PolyCollection_2">
    <defs>
     <path id="m74ac73c48d" d="M 337.188761 -39.741192 
L 337.188761 -39.6 
L 338.502548 -39.6 
L 339.816334 -39.6 
L 341.130121 -39.6 
L 342.443908 -39.6 
L 343.757694 -39.6 
L 345.071481 -39.6 
L 346.385268 -39.6 
L 347.699055 -39.6 
L 349.012841 -39.6 
L 350.326628 -39.6 
L 351.640415 -39.6 
L 352.954201 -39.6 
L 354.267988 -39.6 
L 355.581775 -39.6 
L 356.895561 -39.6 
L 358.209348 -39.6 
L 359.523135 -39.6 
L 360.836921 -39.6 
L 362.150708 -39.6 
L 363.464495 -39.6 
L 364.778282 -39.6 
L 366.092068 -39.6 
L 367.405855 -39.6 
L 368.719642 -39.6 
L 370.033428 -39.6 
L 371.347215 -39.6 
L 372.661002 -39.6 
L 373.974788 -39.6 
L 375.288575 -39.6 
L 376.602362 -39.6 
L 377.916149 -39.6 
L 379.229935 -39.6 
L 380.543722 -39.6 
L 381.857509 -39.6 
L 383.171295 -39.6 
L 384.485082 -39.6 
L 385.798869 -39.6 
L 387.112655 -39.6 
L 388.426442 -39.6 
L 389.740229 -39.6 
L 391.054015 -39.6 
L 392.367802 -39.6 
L 393.681589 -39.6 
L 394.995376 -39.6 
L 396.309162 -39.6 
L 397.622949 -39.6 
L 398.936736 -39.6 
L 400.250522 -39.6 
L 401.564309 -39.6 
L 402.878096 -39.6 
L 404.191882 -39.6 
L 405.505669 -39.6 
L 406.819456 -39.6 
L 408.133243 -39.6 
L 409.447029 -39.6 
L 410.760816 -39.6 
L 412.074603 -39.6 
L 413.388389 -39.6 
L 414.702176 -39.6 
L 416.015963 -39.6 
L 417.329749 -39.6 
L 418.643536 -39.6 
L 419.957323 -39.6 
L 421.271109 -39.6 
L 422.584896 -39.6 
L 423.898683 -39.6 
L 425.21247 -39.6 
L 426.526256 -39.6 
L 427.840043 -39.6 
L 429.15383 -39.6 
L 430.467616 -39.6 
L 431.781403 -39.6 
L 433.09519 -39.6 
L 434.408976 -39.6 
L 435.722763 -39.6 
L 437.03655 -39.6 
L 438.350337 -39.6 
L 439.664123 -39.6 
L 440.97791 -39.6 
L 442.291697 -39.6 
L 443.605483 -39.6 
L 444.91927 -39.6 
L 446.233057 -39.6 
L 447.546843 -39.6 
L 448.86063 -39.6 
L 450.174417 -39.6 
L 451.488203 -39.6 
L 452.80199 -39.6 
L 454.115777 -39.6 
L 455.429564 -39.6 
L 456.74335 -39.6 
L 458.057137 -39.6 
L 459.370924 -39.6 
L 460.68471 -39.6 
L 461.998497 -39.6 
L 463.312284 -39.6 
L 464.62607 -39.6 
L 465.939857 -39.6 
L 467.253644 -39.6 
L 468.567431 -39.6 
L 469.881217 -39.6 
L 471.195004 -39.6 
L 472.508791 -39.6 
L 473.822577 -39.6 
L 475.136364 -39.6 
L 476.450151 -39.6 
L 477.763937 -39.6 
L 479.077724 -39.6 
L 480.391511 -39.6 
L 481.705297 -39.6 
L 483.019084 -39.6 
L 484.332871 -39.6 
L 485.646658 -39.6 
L 486.960444 -39.6 
L 488.274231 -39.6 
L 489.588018 -39.6 
L 490.901804 -39.6 
L 492.215591 -39.6 
L 493.529378 -39.6 
L 494.843164 -39.6 
L 496.156951 -39.6 
L 497.470738 -39.6 
L 498.784525 -39.6 
L 500.098311 -39.6 
L 501.412098 -39.6 
L 502.725885 -39.6 
L 504.039671 -39.6 
L 505.353458 -39.6 
L 506.667245 -39.6 
L 507.981031 -39.6 
L 509.294818 -39.6 
L 510.608605 -39.6 
L 511.922391 -39.6 
L 513.236178 -39.6 
L 514.549965 -39.6 
L 515.863752 -39.6 
L 517.177538 -39.6 
L 518.491325 -39.6 
L 519.805112 -39.6 
L 521.118898 -39.6 
L 522.432685 -39.6 
L 523.746472 -39.6 
L 525.060258 -39.6 
L 526.374045 -39.6 
L 527.687832 -39.6 
L 529.001619 -39.6 
L 530.315405 -39.6 
L 531.629192 -39.6 
L 532.942979 -39.6 
L 534.256765 -39.6 
L 535.570552 -39.6 
L 536.884339 -39.6 
L 538.198125 -39.6 
L 539.511912 -39.6 
L 540.825699 -39.6 
L 542.139485 -39.6 
L 543.453272 -39.6 
L 544.767059 -39.6 
L 546.080846 -39.6 
L 547.394632 -39.6 
L 548.708419 -39.6 
L 550.022206 -39.6 
L 551.335992 -39.6 
L 552.649779 -39.6 
L 553.963566 -39.6 
L 555.277352 -39.6 
L 556.591139 -39.6 
L 557.904926 -39.6 
L 559.218713 -39.6 
L 560.532499 -39.6 
L 561.846286 -39.6 
L 563.160073 -39.6 
L 564.473859 -39.6 
L 565.787646 -39.6 
L 567.101433 -39.6 
L 568.415219 -39.6 
L 569.729006 -39.6 
L 571.042793 -39.6 
L 572.356579 -39.6 
L 573.670366 -39.6 
L 574.984153 -39.6 
L 576.29794 -39.6 
L 577.611726 -39.6 
L 578.925513 -39.6 
L 580.2393 -39.6 
L 581.553086 -39.6 
L 582.866873 -39.6 
L 584.18066 -39.6 
L 585.494446 -39.6 
L 586.808233 -39.6 
L 588.12202 -39.6 
L 589.435807 -39.6 
L 590.749593 -39.6 
L 592.06338 -39.6 
L 593.377167 -39.6 
L 594.690953 -39.6 
L 596.00474 -39.6 
L 597.318527 -39.6 
L 598.632313 -39.6 
L 598.632313 -39.738404 
L 598.632313 -39.738404 
L 597.318527 -39.777803 
L 596.00474 -39.826786 
L 594.690953 -39.887195 
L 593.377167 -39.961095 
L 592.06338 -40.050767 
L 590.749593 -40.158685 
L 589.435807 -40.28749 
L 588.12202 -40.439944 
L 586.808233 -40.61887 
L 585.494446 -40.827077 
L 584.18066 -41.067269 
L 582.866873 -41.341935 
L 581.553086 -41.653236 
L 580.2393 -42.002871 
L 578.925513 -42.391944 
L 577.611726 -42.820828 
L 576.29794 -43.289036 
L 574.984153 -43.795106 
L 573.670366 -44.3365 
L 572.356579 -44.909538 
L 571.042793 -45.509362 
L 569.729006 -46.129938 
L 568.415219 -46.764109 
L 567.101433 -47.40369 
L 565.787646 -48.039611 
L 564.473859 -48.662116 
L 563.160073 -49.260988 
L 561.846286 -49.825824 
L 560.532499 -50.346327 
L 559.218713 -50.812614 
L 557.904926 -51.21553 
L 556.591139 -51.546945 
L 555.277352 -51.800029 
L 553.963566 -51.969488 
L 552.649779 -52.051753 
L 551.335992 -52.045108 
L 550.022206 -51.949759 
L 548.708419 -51.767831 
L 547.394632 -51.503303 
L 546.080846 -51.161876 
L 544.767059 -50.750794 
L 543.453272 -50.278611 
L 542.139485 -49.754928 
L 540.825699 -49.190117 
L 539.511912 -48.595025 
L 538.198125 -47.980701 
L 536.884339 -47.358133 
L 535.570552 -46.738027 
L 534.256765 -46.130623 
L 532.942979 -45.545557 
L 531.629192 -44.991785 
L 530.315405 -44.477553 
L 529.001619 -44.010427 
L 527.687832 -43.597362 
L 526.374045 -43.244829 
L 525.060258 -42.958961 
L 523.746472 -42.745742 
L 522.432685 -42.611205 
L 521.118898 -42.561634 
L 519.805112 -42.60378 
L 518.491325 -42.745051 
L 517.177538 -42.993692 
L 515.863752 -43.358942 
L 514.549965 -43.851157 
L 513.236178 -44.481895 
L 511.922391 -45.263972 
L 510.608605 -46.211467 
L 509.294818 -47.339695 
L 507.981031 -48.665125 
L 506.667245 -50.205269 
L 505.353458 -51.978517 
L 504.039671 -54.003935 
L 502.725885 -56.301021 
L 501.412098 -58.889417 
L 500.098311 -61.788578 
L 498.784525 -65.017403 
L 497.470738 -68.593818 
L 496.156951 -72.534324 
L 494.843164 -76.853496 
L 493.529378 -81.563455 
L 492.215591 -86.673294 
L 490.901804 -92.188489 
L 489.588018 -98.110286 
L 488.274231 -104.435085 
L 486.960444 -111.15384 
L 485.646658 -118.251484 
L 484.332871 -125.706421 
L 483.019084 -133.490084 
L 481.705297 -141.566617 
L 480.391511 -149.892682 
L 479.077724 -158.417438 
L 477.763937 -167.082704 
L 476.450151 -175.823341 
L 475.136364 -184.567849 
L 473.822577 -193.23921 
L 472.508791 -201.755954 
L 471.195004 -210.033459 
L 469.881217 -217.985443 
L 468.567431 -225.525631 
L 467.253644 -232.569558 
L 465.939857 -239.03644 
L 464.62607 -244.851076 
L 463.312284 -249.945707 
L 461.998497 -254.261766 
L 460.68471 -257.751465 
L 459.370924 -260.379137 
L 458.057137 -262.122305 
L 456.74335 -262.972403 
L 455.429564 -262.935134 
L 454.115777 -262.030436 
L 452.80199 -260.292046 
L 451.488203 -257.766681 
L 450.174417 -254.512843 
L 448.86063 -250.599312 
L 447.546843 -246.103346 
L 446.233057 -241.108681 
L 444.91927 -235.703379 
L 443.605483 -229.977613 
L 442.291697 -224.021449 
L 440.97791 -217.922717 
L 439.664123 -211.765024 
L 438.350337 -205.625976 
L 437.03655 -199.57566 
L 435.722763 -193.675417 
L 434.408976 -187.97694 
L 433.09519 -182.521698 
L 431.781403 -177.340697 
L 430.467616 -172.454546 
L 429.15383 -167.873832 
L 427.840043 -163.599741 
L 426.526256 -159.624909 
L 425.21247 -155.934451 
L 423.898683 -152.507125 
L 422.584896 -149.316583 
L 421.271109 -146.332672 
L 419.957323 -143.522733 
L 418.643536 -140.852866 
L 417.329749 -138.28913 
L 416.015963 -135.798641 
L 414.702176 -133.350548 
L 413.388389 -130.916869 
L 412.074603 -128.473164 
L 410.760816 -125.999044 
L 409.447029 -123.478513 
L 408.133243 -120.900133 
L 406.819456 -118.257025 
L 405.505669 -115.546717 
L 404.191882 -112.770849 
L 402.878096 -109.934762 
L 401.564309 -107.046982 
L 400.250522 -104.118642 
L 398.936736 -101.16285 
L 397.622949 -98.194046 
L 396.309162 -95.227373 
L 394.995376 -92.278079 
L 393.681589 -89.360985 
L 392.367802 -86.490026 
L 391.054015 -83.677889 
L 389.740229 -80.935747 
L 388.426442 -78.273092 
L 387.112655 -75.697666 
L 385.798869 -73.215484 
L 384.485082 -70.830924 
L 383.171295 -68.546883 
L 381.857509 -66.364972 
L 380.543722 -64.28573 
L 379.229935 -62.308852 
L 377.916149 -60.433404 
L 376.602362 -58.658008 
L 375.288575 -56.981012 
L 373.974788 -55.400607 
L 372.661002 -53.914917 
L 371.347215 -52.522041 
L 370.033428 -51.220071 
L 368.719642 -50.007075 
L 367.405855 -48.881063 
L 366.092068 -47.839937 
L 364.778282 -46.881445 
L 363.464495 -46.003127 
L 362.150708 -45.202279 
L 360.836921 -44.475923 
L 359.523135 -43.820794 
L 358.209348 -43.233354 
L 356.895561 -42.709802 
L 355.581775 -42.246122 
L 354.267988 -41.838123 
L 352.954201 -41.481501 
L 351.640415 -41.171903 
L 350.326628 -40.904985 
L 349.012841 -40.67648 
L 347.699055 -40.482251 
L 346.385268 -40.318345 
L 345.071481 -40.181033 
L 343.757694 -40.066842 
L 342.443908 -39.972578 
L 341.130121 -39.89534 
L 339.816334 -39.832523 
L 338.502548 -39.781817 
L 337.188761 -39.741192 
z
" style="stroke: #1e90ff"/>
    </defs>
    <g clip-path="url(#pdce604d4fd)">
     <use xlink:href="#m74ac73c48d" x="0" y="360" style="fill: #1e90ff; fill-opacity: 0.25; stroke: #1e90ff"/>
    </g>
   </g>
   <g id="PolyCollection_3">
    <defs>
     <path id="m8f1ff75678" d="M 138.436364 -39.88056 
L 138.436364 -39.6 
L 141.495295 -39.6 
L 144.554226 -39.6 
L 147.613157 -39.6 
L 150.672088 -39.6 
L 153.731019 -39.6 
L 156.78995 -39.6 
L 159.848881 -39.6 
L 162.907812 -39.6 
L 165.966743 -39.6 
L 169.025674 -39.6 
L 172.084605 -39.6 
L 175.143536 -39.6 
L 178.202467 -39.6 
L 181.261398 -39.6 
L 184.320329 -39.6 
L 187.37926 -39.6 
L 190.438191 -39.6 
L 193.497122 -39.6 
L 196.556053 -39.6 
L 199.614984 -39.6 
L 202.673915 -39.6 
L 205.732846 -39.6 
L 208.791777 -39.6 
L 211.850708 -39.6 
L 214.909639 -39.6 
L 217.96857 -39.6 
L 221.027501 -39.6 
L 224.086432 -39.6 
L 227.145363 -39.6 
L 230.204294 -39.6 
L 233.263225 -39.6 
L 236.322156 -39.6 
L 239.381087 -39.6 
L 242.440018 -39.6 
L 245.498949 -39.6 
L 248.55788 -39.6 
L 251.616811 -39.6 
L 254.675742 -39.6 
L 257.734673 -39.6 
L 260.793604 -39.6 
L 263.852535 -39.6 
L 266.911466 -39.6 
L 269.970397 -39.6 
L 273.029328 -39.6 
L 276.088259 -39.6 
L 279.14719 -39.6 
L 282.206122 -39.6 
L 285.265053 -39.6 
L 288.323984 -39.6 
L 291.382915 -39.6 
L 294.441846 -39.6 
L 297.500777 -39.6 
L 300.559708 -39.6 
L 303.618639 -39.6 
L 306.67757 -39.6 
L 309.736501 -39.6 
L 312.795432 -39.6 
L 315.854363 -39.6 
L 318.913294 -39.6 
L 321.972225 -39.6 
L 325.031156 -39.6 
L 328.090087 -39.6 
L 331.149018 -39.6 
L 334.207949 -39.6 
L 337.26688 -39.6 
L 340.325811 -39.6 
L 343.384742 -39.6 
L 346.443673 -39.6 
L 349.502604 -39.6 
L 352.561535 -39.6 
L 355.620466 -39.6 
L 358.679397 -39.6 
L 361.738328 -39.6 
L 364.797259 -39.6 
L 367.85619 -39.6 
L 370.915121 -39.6 
L 373.974052 -39.6 
L 377.032983 -39.6 
L 380.091914 -39.6 
L 383.150845 -39.6 
L 386.209776 -39.6 
L 389.268707 -39.6 
L 392.327638 -39.6 
L 395.386569 -39.6 
L 398.4455 -39.6 
L 401.504431 -39.6 
L 404.563362 -39.6 
L 407.622293 -39.6 
L 410.681224 -39.6 
L 413.740155 -39.6 
L 416.799086 -39.6 
L 419.858017 -39.6 
L 422.916948 -39.6 
L 425.975879 -39.6 
L 429.03481 -39.6 
L 432.093741 -39.6 
L 435.152672 -39.6 
L 438.211603 -39.6 
L 441.270534 -39.6 
L 444.329466 -39.6 
L 447.388397 -39.6 
L 450.447328 -39.6 
L 453.506259 -39.6 
L 456.56519 -39.6 
L 459.624121 -39.6 
L 462.683052 -39.6 
L 465.741983 -39.6 
L 468.800914 -39.6 
L 471.859845 -39.6 
L 474.918776 -39.6 
L 477.977707 -39.6 
L 481.036638 -39.6 
L 484.095569 -39.6 
L 487.1545 -39.6 
L 490.213431 -39.6 
L 493.272362 -39.6 
L 496.331293 -39.6 
L 499.390224 -39.6 
L 502.449155 -39.6 
L 505.508086 -39.6 
L 508.567017 -39.6 
L 511.625948 -39.6 
L 514.684879 -39.6 
L 517.74381 -39.6 
L 520.802741 -39.6 
L 523.861672 -39.6 
L 526.920603 -39.6 
L 529.979534 -39.6 
L 533.038465 -39.6 
L 536.097396 -39.6 
L 539.156327 -39.6 
L 542.215258 -39.6 
L 545.274189 -39.6 
L 548.33312 -39.6 
L 551.392051 -39.6 
L 554.450982 -39.6 
L 557.509913 -39.6 
L 560.568844 -39.6 
L 563.627775 -39.6 
L 566.686706 -39.6 
L 569.745637 -39.6 
L 572.804568 -39.6 
L 575.863499 -39.6 
L 578.92243 -39.6 
L 581.981361 -39.6 
L 585.040292 -39.6 
L 588.099223 -39.6 
L 591.158154 -39.6 
L 594.217085 -39.6 
L 597.276016 -39.6 
L 600.334947 -39.6 
L 603.393878 -39.6 
L 606.45281 -39.6 
L 609.511741 -39.6 
L 612.570672 -39.6 
L 615.629603 -39.6 
L 618.688534 -39.6 
L 621.747465 -39.6 
L 624.806396 -39.6 
L 627.865327 -39.6 
L 630.924258 -39.6 
L 633.983189 -39.6 
L 637.04212 -39.6 
L 640.101051 -39.6 
L 643.159982 -39.6 
L 646.218913 -39.6 
L 649.277844 -39.6 
L 652.336775 -39.6 
L 655.395706 -39.6 
L 658.454637 -39.6 
L 661.513568 -39.6 
L 664.572499 -39.6 
L 667.63143 -39.6 
L 670.690361 -39.6 
L 673.749292 -39.6 
L 676.808223 -39.6 
L 679.867154 -39.6 
L 682.926085 -39.6 
L 685.985016 -39.6 
L 689.043947 -39.6 
L 692.102878 -39.6 
L 695.161809 -39.6 
L 698.22074 -39.6 
L 701.279671 -39.6 
L 704.338602 -39.6 
L 707.397533 -39.6 
L 710.456464 -39.6 
L 713.515395 -39.6 
L 716.574326 -39.6 
L 719.633257 -39.6 
L 722.692188 -39.6 
L 725.751119 -39.6 
L 728.81005 -39.6 
L 731.868981 -39.6 
L 734.927912 -39.6 
L 737.986843 -39.6 
L 741.045774 -39.6 
L 744.104705 -39.6 
L 747.163636 -39.6 
L 747.163636 -39.724753 
L 747.163636 -39.724753 
L 744.104705 -39.762387 
L 741.045774 -39.809747 
L 737.986843 -39.868831 
L 734.927912 -39.941906 
L 731.868981 -40.031494 
L 728.81005 -40.140363 
L 725.751119 -40.271487 
L 722.692188 -40.428003 
L 719.633257 -40.613136 
L 716.574326 -40.830114 
L 713.515395 -41.082057 
L 710.456464 -41.371847 
L 707.397533 -41.701983 
L 704.338602 -42.074424 
L 701.279671 -42.490419 
L 698.22074 -42.950343 
L 695.161809 -43.453538 
L 692.102878 -43.998168 
L 689.043947 -44.581106 
L 685.985016 -45.197854 
L 682.926085 -45.842509 
L 679.867154 -46.507782 
L 676.808223 -47.185075 
L 673.749292 -47.864621 
L 670.690361 -48.535685 
L 667.63143 -49.186819 
L 664.572499 -49.806177 
L 661.513568 -50.381854 
L 658.454637 -50.902269 
L 655.395706 -51.356545 
L 652.336775 -51.734883 
L 649.277844 -52.028919 
L 646.218913 -52.232026 
L 643.159982 -52.339565 
L 640.101051 -52.349062 
L 637.04212 -52.260299 
L 633.983189 -52.075329 
L 630.924258 -51.798392 
L 627.865327 -51.435762 
L 624.806396 -50.995505 
L 621.747465 -50.48719 
L 618.688534 -49.921546 
L 615.629603 -49.31009 
L 612.570672 -48.664756 
L 609.511741 -47.997514 
L 606.45281 -47.320035 
L 603.393878 -46.643379 
L 600.334947 -45.977747 
L 597.276016 -45.332289 
L 594.217085 -44.714979 
L 591.158154 -44.132565 
L 588.099223 -43.590579 
L 585.040292 -43.093417 
L 581.981361 -42.644478 
L 578.92243 -42.246358 
L 575.863499 -41.901079 
L 572.804568 -41.610369 
L 569.745637 -41.375954 
L 566.686706 -41.199882 
L 563.627775 -41.084849 
L 560.568844 -41.034537 
L 557.509913 -41.053938 
L 554.450982 -41.149672 
L 551.392051 -41.330276 
L 548.33312 -41.606464 
L 545.274189 -41.991339 
L 542.215258 -42.50054 
L 539.156327 -43.152316 
L 536.097396 -43.967508 
L 533.038465 -44.969408 
L 529.979534 -46.183498 
L 526.920603 -47.637027 
L 523.861672 -49.358441 
L 520.802741 -51.376622 
L 517.74381 -53.719969 
L 514.684879 -56.415298 
L 511.625948 -59.486594 
L 508.567017 -62.953636 
L 505.508086 -66.830541 
L 502.449155 -71.124271 
L 499.390224 -75.833175 
L 496.331293 -80.945636 
L 493.272362 -86.438903 
L 490.213431 -92.278191 
L 487.1545 -98.416131 
L 484.095569 -104.792636 
L 481.036638 -111.335252 
L 477.977707 -117.960026 
L 474.918776 -124.572916 
L 471.859845 -131.071721 
L 468.800914 -137.348509 
L 465.741983 -143.292456 
L 462.683052 -148.793012 
L 459.624121 -153.743271 
L 456.56519 -158.043391 
L 453.506259 -161.603933 
L 450.447328 -164.348946 
L 447.388397 -166.218664 
L 444.329466 -167.171668 
L 441.270534 -167.186411 
L 438.211603 -166.26203 
L 435.152672 -164.418397 
L 432.093741 -161.695403 
L 429.03481 -158.151523 
L 425.975879 -153.86172 
L 422.916948 -148.914806 
L 419.858017 -143.410376 
L 416.799086 -137.45548 
L 413.740155 -131.161172 
L 410.681224 -124.639106 
L 407.622293 -117.998307 
L 404.563362 -111.342258 
L 401.504431 -104.766401 
L 398.4455 -98.356118 
L 395.386569 -92.185255 
L 392.327638 -86.315187 
L 389.268707 -80.794418 
L 386.209776 -75.658681 
L 383.150845 -70.931469 
L 380.091914 -66.62494 
L 377.032983 -62.741103 
L 373.974052 -59.2732 
L 370.915121 -56.207218 
L 367.85619 -53.523428 
L 364.797259 -51.19791 
L 361.738328 -49.203991 
L 358.679397 -47.513558 
L 355.620466 -46.09822 
L 352.561535 -44.93029 
L 349.502604 -43.983591 
L 346.443673 -43.234077 
L 343.384742 -42.660278 
L 340.325811 -42.243589 
L 337.26688 -41.968405 
L 334.207949 -41.822131 
L 331.149018 -41.795076 
L 328.090087 -41.880245 
L 325.031156 -42.073052 
L 321.972225 -42.370962 
L 318.913294 -42.773068 
L 315.854363 -43.279624 
L 312.795432 -43.891549 
L 309.736501 -44.609895 
L 306.67757 -45.435311 
L 303.618639 -46.367517 
L 300.559708 -47.40479 
L 297.500777 -48.543496 
L 294.441846 -49.777685 
L 291.382915 -51.098763 
L 288.323984 -52.495267 
L 285.265053 -53.952755 
L 282.206122 -55.453835 
L 279.14719 -56.978332 
L 276.088259 -58.503603 
L 273.029328 -60.004993 
L 269.970397 -61.456425 
L 266.911466 -62.831104 
L 263.852535 -64.102302 
L 260.793604 -65.244201 
L 257.734673 -66.232752 
L 254.675742 -67.046508 
L 251.616811 -67.667394 
L 248.55788 -68.081368 
L 245.498949 -68.278953 
L 242.440018 -68.255588 
L 239.381087 -68.011812 
L 236.322156 -67.553235 
L 233.263225 -66.890327 
L 230.204294 -66.038018 
L 227.145363 -65.015142 
L 224.086432 -63.843743 
L 221.027501 -62.548288 
L 217.96857 -61.154818 
L 214.909639 -59.69009 
L 211.850708 -58.180734 
L 208.791777 -56.652469 
L 205.732846 -55.129417 
L 202.673915 -53.633514 
L 199.614984 -52.184071 
L 196.556053 -50.797454 
L 193.497122 -49.486916 
L 190.438191 -48.262551 
L 187.37926 -47.131373 
L 184.320329 -46.097494 
L 181.261398 -45.162385 
L 178.202467 -44.325193 
L 175.143536 -43.583102 
L 172.084605 -42.931706 
L 169.025674 -42.365383 
L 165.966743 -41.877652 
L 162.907812 -41.461498 
L 159.848881 -41.109667 
L 156.78995 -40.814908 
L 153.731019 -40.570172 
L 150.672088 -40.368771 
L 147.613157 -40.20449 
L 144.554226 -40.071655 
L 141.495295 -39.965177 
L 138.436364 -39.88056 
z
" style="stroke: #0000ff"/>
    </defs>
    <g clip-path="url(#pdce604d4fd)">
     <use xlink:href="#m8f1ff75678" x="0" y="360" style="fill: #0000ff; fill-opacity: 0.25; stroke: #0000ff"/>
    </g>
   </g>
   <g id="matplotlib.axis_1">
    <g id="xtick_1">
     <g id="line2d_1">
      <defs>
       <path id="m901cd18ace" d="M 0 0 
L 0 3.5 
" style="stroke: #000000; stroke-width: 0.8"/>
      </defs>
      <g>
       <use xlink:href="#m901cd18ace" x="122.71144" y="320.4" style="stroke: #000000; stroke-width: 0.8"/>
      </g>
     </g>
     <g id="text_1">
      <!-- −4 -->
      <g transform="translate(115.340346 334.998438) scale(0.1 -0.1)">
       <defs>
        <path id="DejaVuSans-2212" d="M 678 2272 
L 4684 2272 
L 4684 1741 
L 678 1741 
L 678 2272 
z
" transform="scale(0.015625)"/>
        <path id="DejaVuSans-34" d="M 2419 4116 
L 825 1625 
L 2419 1625 
L 2419 4116 
z
M 2253 4666 
L 3047 4666 
L 3047 1625 
L 3713 1625 
L 3713 1100 
L 3047 1100 
L 3047 0 
L 2419 0 
L 2419 1100 
L 313 1100 
L 313 1709 
L 2253 4666 
z
" transform="scale(0.015625)"/>
       </defs>
       <use xlink:href="#DejaVuSans-2212"/>
       <use xlink:href="#DejaVuSans-34" x="83.789062"/>
      </g>
     </g>
    </g>
    <g id="xtick_2">
     <g id="line2d_2">
      <g>
       <use xlink:href="#m901cd18ace" x="202.744004" y="320.4" style="stroke: #000000; stroke-width: 0.8"/>
      </g>
     </g>
     <g id="text_2">
      <!-- −3 -->
      <g transform="translate(195.37291 334.998438) scale(0.1 -0.1)">
       <defs>
        <path id="DejaVuSans-33" d="M 2597 2516 
Q 3050 2419 3304 2112 
Q 3559 1806 3559 1356 
Q 3559 666 3084 287 
Q 2609 -91 1734 -91 
Q 1441 -91 1130 -33 
Q 819 25 488 141 
L 488 750 
Q 750 597 1062 519 
Q 1375 441 1716 441 
Q 2309 441 2620 675 
Q 2931 909 2931 1356 
Q 2931 1769 2642 2001 
Q 2353 2234 1838 2234 
L 1294 2234 
L 1294 2753 
L 1863 2753 
Q 2328 2753 2575 2939 
Q 2822 3125 2822 3475 
Q 2822 3834 2567 4026 
Q 2313 4219 1838 4219 
Q 1578 4219 1281 4162 
Q 984 4106 628 3988 
L 628 4550 
Q 988 4650 1302 4700 
Q 1616 4750 1894 4750 
Q 2613 4750 3031 4423 
Q 3450 4097 3450 3541 
Q 3450 3153 3228 2886 
Q 3006 2619 2597 2516 
z
" transform="scale(0.015625)"/>
       </defs>
       <use xlink:href="#DejaVuSans-2212"/>
       <use xlink:href="#DejaVuSans-33" x="83.789062"/>
      </g>
     </g>
    </g>
    <g id="xtick_3">
     <g id="line2d_3">
      <g>
       <use xlink:href="#m901cd18ace" x="282.776568" y="320.4" style="stroke: #000000; stroke-width: 0.8"/>
      </g>
     </g>
     <g id="text_3">
      <!-- −2 -->
      <g transform="translate(275.405475 334.998438) scale(0.1 -0.1)">
       <defs>
        <path id="DejaVuSans-32" d="M 1228 531 
L 3431 531 
L 3431 0 
L 469 0 
L 469 531 
Q 828 903 1448 1529 
Q 2069 2156 2228 2338 
Q 2531 2678 2651 2914 
Q 2772 3150 2772 3378 
Q 2772 3750 2511 3984 
Q 2250 4219 1831 4219 
Q 1534 4219 1204 4116 
Q 875 4013 500 3803 
L 500 4441 
Q 881 4594 1212 4672 
Q 1544 4750 1819 4750 
Q 2544 4750 2975 4387 
Q 3406 4025 3406 3419 
Q 3406 3131 3298 2873 
Q 3191 2616 2906 2266 
Q 2828 2175 2409 1742 
Q 1991 1309 1228 531 
z
" transform="scale(0.015625)"/>
       </defs>
       <use xlink:href="#DejaVuSans-2212"/>
       <use xlink:href="#DejaVuSans-32" x="83.789062"/>
      </g>
     </g>
    </g>
    <g id="xtick_4">
     <g id="line2d_4">
      <g>
       <use xlink:href="#m901cd18ace" x="362.809133" y="320.4" style="stroke: #000000; stroke-width: 0.8"/>
      </g>
     </g>
     <g id="text_4">
      <!-- −1 -->
      <g transform="translate(355.438039 334.998438) scale(0.1 -0.1)">
       <defs>
        <path id="DejaVuSans-31" d="M 794 531 
L 1825 531 
L 1825 4091 
L 703 3866 
L 703 4441 
L 1819 4666 
L 2450 4666 
L 2450 531 
L 3481 531 
L 3481 0 
L 794 0 
L 794 531 
z
" transform="scale(0.015625)"/>
       </defs>
       <use xlink:href="#DejaVuSans-2212"/>
       <use xlink:href="#DejaVuSans-31" x="83.789062"/>
      </g>
     </g>
    </g>
    <g id="xtick_5">
     <g id="line2d_5">
      <g>
       <use xlink:href="#m901cd18ace" x="442.841697" y="320.4" style="stroke: #000000; stroke-width: 0.8"/>
      </g>
     </g>
     <g id="text_5">
      <!-- 0 -->
      <g transform="translate(439.660447 334.998438) scale(0.1 -0.1)">
       <defs>
        <path id="DejaVuSans-30" d="M 2034 4250 
Q 1547 4250 1301 3770 
Q 1056 3291 1056 2328 
Q 1056 1369 1301 889 
Q 1547 409 2034 409 
Q 2525 409 2770 889 
Q 3016 1369 3016 2328 
Q 3016 3291 2770 3770 
Q 2525 4250 2034 4250 
z
M 2034 4750 
Q 2819 4750 3233 4129 
Q 3647 3509 3647 2328 
Q 3647 1150 3233 529 
Q 2819 -91 2034 -91 
Q 1250 -91 836 529 
Q 422 1150 422 2328 
Q 422 3509 836 4129 
Q 1250 4750 2034 4750 
z
" transform="scale(0.015625)"/>
       </defs>
       <use xlink:href="#DejaVuSans-30"/>
      </g>
     </g>
    </g>
    <g id="xtick_6">
     <g id="line2d_6">
      <g>
       <use xlink:href="#m901cd18ace" x="522.874261" y="320.4" style="stroke: #000000; stroke-width: 0.8"/>
      </g>
     </g>
     <g id="text_6">
      <!-- 1 -->
      <g transform="translate(519.693011 334.998438) scale(0.1 -0.1)">
       <use xlink:href="#DejaVuSans-31"/>
      </g>
     </g>
    </g>
    <g id="xtick_7">
     <g id="line2d_7">
      <g>
       <use xlink:href="#m901cd18ace" x="602.906826" y="320.4" style="stroke: #000000; stroke-width: 0.8"/>
      </g>
     </g>
     <g id="text_7">
      <!-- 2 -->
      <g transform="translate(599.725576 334.998438) scale(0.1 -0.1)">
       <use xlink:href="#DejaVuSans-32"/>
      </g>
     </g>
    </g>
    <g id="xtick_8">
     <g id="line2d_8">
      <g>
       <use xlink:href="#m901cd18ace" x="682.93939" y="320.4" style="stroke: #000000; stroke-width: 0.8"/>
      </g>
     </g>
     <g id="text_8">
      <!-- 3 -->
      <g transform="translate(679.75814 334.998438) scale(0.1 -0.1)">
       <use xlink:href="#DejaVuSans-33"/>
      </g>
     </g>
    </g>
    <g id="xtick_9">
     <g id="line2d_9">
      <g>
       <use xlink:href="#m901cd18ace" x="762.971954" y="320.4" style="stroke: #000000; stroke-width: 0.8"/>
      </g>
     </g>
     <g id="text_9">
      <!-- 4 -->
      <g transform="translate(759.790704 334.998438) scale(0.1 -0.1)">
       <use xlink:href="#DejaVuSans-34"/>
      </g>
     </g>
    </g>
    <g id="text_10">
     <!-- delta_sweep -->
     <g transform="translate(411.614844 348.676562) scale(0.1 -0.1)">
      <defs>
       <path id="DejaVuSans-64" d="M 2906 2969 
L 2906 4863 
L 3481 4863 
L 3481 0 
L 2906 0 
L 2906 525 
Q 2725 213 2448 61 
Q 2172 -91 1784 -91 
Q 1150 -91 751 415 
Q 353 922 353 1747 
Q 353 2572 751 3078 
Q 1150 3584 1784 3584 
Q 2172 3584 2448 3432 
Q 2725 3281 2906 2969 
z
M 947 1747 
Q 947 1113 1208 752 
Q 1469 391 1925 391 
Q 2381 391 2643 752 
Q 2906 1113 2906 1747 
Q 2906 2381 2643 2742 
Q 2381 3103 1925 3103 
Q 1469 3103 1208 2742 
Q 947 2381 947 1747 
z
" transform="scale(0.015625)"/>
       <path id="DejaVuSans-65" d="M 3597 1894 
L 3597 1613 
L 953 1613 
Q 991 1019 1311 708 
Q 1631 397 2203 397 
Q 2534 397 2845 478 
Q 3156 559 3463 722 
L 3463 178 
Q 3153 47 2828 -22 
Q 2503 -91 2169 -91 
Q 1331 -91 842 396 
Q 353 884 353 1716 
Q 353 2575 817 3079 
Q 1281 3584 2069 3584 
Q 2775 3584 3186 3129 
Q 3597 2675 3597 1894 
z
M 3022 2063 
Q 3016 2534 2758 2815 
Q 2500 3097 2075 3097 
Q 1594 3097 1305 2825 
Q 1016 2553 972 2059 
L 3022 2063 
z
" transform="scale(0.015625)"/>
       <path id="DejaVuSans-6c" d="M 603 4863 
L 1178 4863 
L 1178 0 
L 603 0 
L 603 4863 
z
" transform="scale(0.015625)"/>
       <path id="DejaVuSans-74" d="M 1172 4494 
L 1172 3500 
L 2356 3500 
L 2356 3053 
L 1172 3053 
L 1172 1153 
Q 1172 725 1289 603 
Q 1406 481 1766 481 
L 2356 481 
L 2356 0 
L 1766 0 
Q 1100 0 847 248 
Q 594 497 594 1153 
L 594 3053 
L 172 3053 
L 172 3500 
L 594 3500 
L 594 4494 
L 1172 4494 
z
" transform="scale(0.015625)"/>
       <path id="DejaVuSans-61" d="M 2194 1759 
Q 1497 1759 1228 1600 
Q 959 1441 959 1056 
Q 959 750 1161 570 
Q 1363 391 1709 391 
Q 2188 391 2477 730 
Q 2766 1069 2766 1631 
L 2766 1759 
L 2194 1759 
z
M 3341 1997 
L 3341 0 
L 2766 0 
L 2766 531 
Q 2569 213 2275 61 
Q 1981 -91 1556 -91 
Q 1019 -91 701 211 
Q 384 513 384 1019 
Q 384 1609 779 1909 
Q 1175 2209 1959 2209 
L 2766 2209 
L 2766 2266 
Q 2766 2663 2505 2880 
Q 2244 3097 1772 3097 
Q 1472 3097 1187 3025 
Q 903 2953 641 2809 
L 641 3341 
Q 956 3463 1253 3523 
Q 1550 3584 1831 3584 
Q 2591 3584 2966 3190 
Q 3341 2797 3341 1997 
z
" transform="scale(0.015625)"/>
       <path id="DejaVuSans-5f" d="M 3263 -1063 
L 3263 -1509 
L -63 -1509 
L -63 -1063 
L 3263 -1063 
z
" transform="scale(0.015625)"/>
       <path id="DejaVuSans-73" d="M 2834 3397 
L 2834 2853 
Q 2591 2978 2328 3040 
Q 2066 3103 1784 3103 
Q 1356 3103 1142 2972 
Q 928 2841 928 2578 
Q 928 2378 1081 2264 
Q 1234 2150 1697 2047 
L 1894 2003 
Q 2506 1872 2764 1633 
Q 3022 1394 3022 966 
Q 3022 478 2636 193 
Q 2250 -91 1575 -91 
Q 1294 -91 989 -36 
Q 684 19 347 128 
L 347 722 
Q 666 556 975 473 
Q 1284 391 1588 391 
Q 1994 391 2212 530 
Q 2431 669 2431 922 
Q 2431 1156 2273 1281 
Q 2116 1406 1581 1522 
L 1381 1569 
Q 847 1681 609 1914 
Q 372 2147 372 2553 
Q 372 3047 722 3315 
Q 1072 3584 1716 3584 
Q 2034 3584 2315 3537 
Q 2597 3491 2834 3397 
z
" transform="scale(0.015625)"/>
       <path id="DejaVuSans-77" d="M 269 3500 
L 844 3500 
L 1563 769 
L 2278 3500 
L 2956 3500 
L 3675 769 
L 4391 3500 
L 4966 3500 
L 4050 0 
L 3372 0 
L 2619 2869 
L 1863 0 
L 1184 0 
L 269 3500 
z
" transform="scale(0.015625)"/>
       <path id="DejaVuSans-70" d="M 1159 525 
L 1159 -1331 
L 581 -1331 
L 581 3500 
L 1159 3500 
L 1159 2969 
Q 1341 3281 1617 3432 
Q 1894 3584 2278 3584 
Q 2916 3584 3314 3078 
Q 3713 2572 3713 1747 
Q 3713 922 3314 415 
Q 2916 -91 2278 -91 
Q 1894 -91 1617 61 
Q 1341 213 1159 525 
z
M 3116 1747 
Q 3116 2381 2855 2742 
Q 2594 3103 2138 3103 
Q 1681 3103 1420 2742 
Q 1159 2381 1159 1747 
Q 1159 1113 1420 752 
Q 1681 391 2138 391 
Q 2594 391 2855 752 
Q 3116 1113 3116 1747 
z
" transform="scale(0.015625)"/>
      </defs>
      <use xlink:href="#DejaVuSans-64"/>
      <use xlink:href="#DejaVuSans-65" x="63.476562"/>
      <use xlink:href="#DejaVuSans-6c" x="125"/>
      <use xlink:href="#DejaVuSans-74" x="152.783203"/>
      <use xlink:href="#DejaVuSans-61" x="191.992188"/>
      <use xlink:href="#DejaVuSans-5f" x="253.271484"/>
      <use xlink:href="#DejaVuSans-73" x="303.271484"/>
      <use xlink:href="#DejaVuSans-77" x="355.371094"/>
      <use xlink:href="#DejaVuSans-65" x="437.158203"/>
      <use xlink:href="#DejaVuSans-65" x="498.681641"/>
      <use xlink:href="#DejaVuSans-70" x="560.205078"/>
     </g>
    </g>
    <g id="text_11">
     <!-- 1e6 -->
     <g transform="translate(758.721875 347.676562) scale(0.1 -0.1)">
      <defs>
       <path id="DejaVuSans-36" d="M 2113 2584 
Q 1688 2584 1439 2293 
Q 1191 2003 1191 1497 
Q 1191 994 1439 701 
Q 1688 409 2113 409 
Q 2538 409 2786 701 
Q 3034 994 3034 1497 
Q 3034 2003 2786 2293 
Q 2538 2584 2113 2584 
z
M 3366 4563 
L 3366 3988 
Q 3128 4100 2886 4159 
Q 2644 4219 2406 4219 
Q 1781 4219 1451 3797 
Q 1122 3375 1075 2522 
Q 1259 2794 1537 2939 
Q 1816 3084 2150 3084 
Q 2853 3084 3261 2657 
Q 3669 2231 3669 1497 
Q 3669 778 3244 343 
Q 2819 -91 2113 -91 
Q 1303 -91 875 529 
Q 447 1150 447 2328 
Q 447 3434 972 4092 
Q 1497 4750 2381 4750 
Q 2619 4750 2861 4703 
Q 3103 4656 3366 4563 
z
" transform="scale(0.015625)"/>
      </defs>
      <use xlink:href="#DejaVuSans-31"/>
      <use xlink:href="#DejaVuSans-65" x="63.623047"/>
      <use xlink:href="#DejaVuSans-36" x="125.146484"/>
     </g>
    </g>
   </g>
   <g id="matplotlib.axis_2">
    <g id="ytick_1">
     <g id="line2d_10">
      <defs>
       <path id="m9a2ee2425d" d="M 0 0 
L -3.5 0 
" style="stroke: #000000; stroke-width: 0.8"/>
      </defs>
      <g>
       <use xlink:href="#m9a2ee2425d" x="108" y="320.4" style="stroke: #000000; stroke-width: 0.8"/>
      </g>
     </g>
     <g id="text_12">
      <!-- 0.0 -->
      <g transform="translate(85.096875 324.199219) scale(0.1 -0.1)">
       <defs>
        <path id="DejaVuSans-2e" d="M 684 794 
L 1344 794 
L 1344 0 
L 684 0 
L 684 794 
z
" transform="scale(0.015625)"/>
       </defs>
       <use xlink:href="#DejaVuSans-30"/>
       <use xlink:href="#DejaVuSans-2e" x="63.623047"/>
       <use xlink:href="#DejaVuSans-30" x="95.410156"/>
      </g>
     </g>
    </g>
    <g id="ytick_2">
     <g id="line2d_11">
      <g>
       <use xlink:href="#m9a2ee2425d" x="108" y="282.872656" style="stroke: #000000; stroke-width: 0.8"/>
      </g>
     </g>
     <g id="text_13">
      <!-- 0.2 -->
      <g transform="translate(85.096875 286.671875) scale(0.1 -0.1)">
       <use xlink:href="#DejaVuSans-30"/>
       <use xlink:href="#DejaVuSans-2e" x="63.623047"/>
       <use xlink:href="#DejaVuSans-32" x="95.410156"/>
      </g>
     </g>
    </g>
    <g id="ytick_3">
     <g id="line2d_12">
      <g>
       <use xlink:href="#m9a2ee2425d" x="108" y="245.345312" style="stroke: #000000; stroke-width: 0.8"/>
      </g>
     </g>
     <g id="text_14">
      <!-- 0.4 -->
      <g transform="translate(85.096875 249.144531) scale(0.1 -0.1)">
       <use xlink:href="#DejaVuSans-30"/>
       <use xlink:href="#DejaVuSans-2e" x="63.623047"/>
       <use xlink:href="#DejaVuSans-34" x="95.410156"/>
      </g>
     </g>
    </g>
    <g id="ytick_4">
     <g id="line2d_13">
      <g>
       <use xlink:href="#m9a2ee2425d" x="108" y="207.817968" style="stroke: #000000; stroke-width: 0.8"/>
      </g>
     </g>
     <g id="text_15">
      <!-- 0.6 -->
      <g transform="translate(85.096875 211.617187) scale(0.1 -0.1)">
       <use xlink:href="#DejaVuSans-30"/>
       <use xlink:href="#DejaVuSans-2e" x="63.623047"/>
       <use xlink:href="#DejaVuSans-36" x="95.410156"/>
      </g>
     </g>
    </g>
    <g id="ytick_5">
     <g id="line2d_14">
      <g>
       <use xlink:href="#m9a2ee2425d" x="108" y="170.290624" style="stroke: #000000; stroke-width: 0.8"/>
      </g>
     </g>
     <g id="text_16">
      <!-- 0.8 -->
      <g transform="translate(85.096875 174.089843) scale(0.1 -0.1)">
       <defs>
        <path id="DejaVuSans-38" d="M 2034 2216 
Q 1584 2216 1326 1975 
Q 1069 1734 1069 1313 
Q 1069 891 1326 650 
Q 1584 409 2034 409 
Q 2484 409 2743 651 
Q 3003 894 3003 1313 
Q 3003 1734 2745 1975 
Q 2488 2216 2034 2216 
z
M 1403 2484 
Q 997 2584 770 2862 
Q 544 3141 544 3541 
Q 544 4100 942 4425 
Q 1341 4750 2034 4750 
Q 2731 4750 3128 4425 
Q 3525 4100 3525 3541 
Q 3525 3141 3298 2862 
Q 3072 2584 2669 2484 
Q 3125 2378 3379 2068 
Q 3634 1759 3634 1313 
Q 3634 634 3220 271 
Q 2806 -91 2034 -91 
Q 1263 -91 848 271 
Q 434 634 434 1313 
Q 434 1759 690 2068 
Q 947 2378 1403 2484 
z
M 1172 3481 
Q 1172 3119 1398 2916 
Q 1625 2713 2034 2713 
Q 2441 2713 2670 2916 
Q 2900 3119 2900 3481 
Q 2900 3844 2670 4047 
Q 2441 4250 2034 4250 
Q 1625 4250 1398 4047 
Q 1172 3844 1172 3481 
z
" transform="scale(0.015625)"/>
       </defs>
       <use xlink:href="#DejaVuSans-30"/>
       <use xlink:href="#DejaVuSans-2e" x="63.623047"/>
       <use xlink:href="#DejaVuSans-38" x="95.410156"/>
      </g>
     </g>
    </g>
    <g id="ytick_6">
     <g id="line2d_15">
      <g>
       <use xlink:href="#m9a2ee2425d" x="108" y="132.76328" style="stroke: #000000; stroke-width: 0.8"/>
      </g>
     </g>
     <g id="text_17">
      <!-- 1.0 -->
      <g transform="translate(85.096875 136.562499) scale(0.1 -0.1)">
       <use xlink:href="#DejaVuSans-31"/>
       <use xlink:href="#DejaVuSans-2e" x="63.623047"/>
       <use xlink:href="#DejaVuSans-30" x="95.410156"/>
      </g>
     </g>
    </g>
    <g id="ytick_7">
     <g id="line2d_16">
      <g>
       <use xlink:href="#m9a2ee2425d" x="108" y="95.235936" style="stroke: #000000; stroke-width: 0.8"/>
      </g>
     </g>
     <g id="text_18">
      <!-- 1.2 -->
      <g transform="translate(85.096875 99.035155) scale(0.1 -0.1)">
       <use xlink:href="#DejaVuSans-31"/>
       <use xlink:href="#DejaVuSans-2e" x="63.623047"/>
       <use xlink:href="#DejaVuSans-32" x="95.410156"/>
      </g>
     </g>
    </g>
    <g id="ytick_8">
     <g id="line2d_17">
      <g>
       <use xlink:href="#m9a2ee2425d" x="108" y="57.708592" style="stroke: #000000; stroke-width: 0.8"/>
      </g>
     </g>
     <g id="text_19">
      <!-- 1.4 -->
      <g transform="translate(85.096875 61.507811) scale(0.1 -0.1)">
       <use xlink:href="#DejaVuSans-31"/>
       <use xlink:href="#DejaVuSans-2e" x="63.623047"/>
       <use xlink:href="#DejaVuSans-34" x="95.410156"/>
      </g>
     </g>
    </g>
    <g id="text_20">
     <!-- Density -->
     <g transform="translate(79.017187 200.808594) rotate(-90) scale(0.1 -0.1)">
      <defs>
       <path id="DejaVuSans-44" d="M 1259 4147 
L 1259 519 
L 2022 519 
Q 2988 519 3436 956 
Q 3884 1394 3884 2338 
Q 3884 3275 3436 3711 
Q 2988 4147 2022 4147 
L 1259 4147 
z
M 628 4666 
L 1925 4666 
Q 3281 4666 3915 4102 
Q 4550 3538 4550 2338 
Q 4550 1131 3912 565 
Q 3275 0 1925 0 
L 628 0 
L 628 4666 
z
" transform="scale(0.015625)"/>
       <path id="DejaVuSans-6e" d="M 3513 2113 
L 3513 0 
L 2938 0 
L 2938 2094 
Q 2938 2591 2744 2837 
Q 2550 3084 2163 3084 
Q 1697 3084 1428 2787 
Q 1159 2491 1159 1978 
L 1159 0 
L 581 0 
L 581 3500 
L 1159 3500 
L 1159 2956 
Q 1366 3272 1645 3428 
Q 1925 3584 2291 3584 
Q 2894 3584 3203 3211 
Q 3513 2838 3513 2113 
z
" transform="scale(0.015625)"/>
       <path id="DejaVuSans-69" d="M 603 3500 
L 1178 3500 
L 1178 0 
L 603 0 
L 603 3500 
z
M 603 4863 
L 1178 4863 
L 1178 4134 
L 603 4134 
L 603 4863 
z
" transform="scale(0.015625)"/>
       <path id="DejaVuSans-79" d="M 2059 -325 
Q 1816 -950 1584 -1140 
Q 1353 -1331 966 -1331 
L 506 -1331 
L 506 -850 
L 844 -850 
Q 1081 -850 1212 -737 
Q 1344 -625 1503 -206 
L 1606 56 
L 191 3500 
L 800 3500 
L 1894 763 
L 2988 3500 
L 3597 3500 
L 2059 -325 
z
" transform="scale(0.015625)"/>
      </defs>
      <use xlink:href="#DejaVuSans-44"/>
      <use xlink:href="#DejaVuSans-65" x="77.001953"/>
      <use xlink:href="#DejaVuSans-6e" x="138.525391"/>
      <use xlink:href="#DejaVuSans-73" x="201.904297"/>
      <use xlink:href="#DejaVuSans-69" x="254.003906"/>
      <use xlink:href="#DejaVuSans-74" x="281.787109"/>
      <use xlink:href="#DejaVuSans-79" x="320.996094"/>
     </g>
    </g>
    <g id="text_21">
     <!-- 1e−6 -->
     <g transform="translate(108 40.2) scale(0.1 -0.1)">
      <use xlink:href="#DejaVuSans-31"/>
      <use xlink:href="#DejaVuSans-65" x="63.623047"/>
      <use xlink:href="#DejaVuSans-2212" x="125.146484"/>
      <use xlink:href="#DejaVuSans-36" x="208.935547"/>
     </g>
    </g>
   </g>
   <g id="patch_3">
    <path d="M 108 320.4 
L 108 43.2 
" style="fill: none; stroke: #000000; stroke-width: 0.8; stroke-linejoin: miter; stroke-linecap: square"/>
   </g>
   <g id="patch_4">
    <path d="M 777.6 320.4 
L 777.6 43.2 
" style="fill: none; stroke: #000000; stroke-width: 0.8; stroke-linejoin: miter; stroke-linecap: square"/>
   </g>
   <g id="patch_5">
    <path d="M 108 320.4 
L 777.6 320.4 
" style="fill: none; stroke: #000000; stroke-width: 0.8; stroke-linejoin: miter; stroke-linecap: square"/>
   </g>
   <g id="patch_6">
    <path d="M 108 43.2 
L 777.6 43.2 
" style="fill: none; stroke: #000000; stroke-width: 0.8; stroke-linejoin: miter; stroke-linecap: square"/>
   </g>
   <g id="text_22">
    <!-- iHS Delta Distribution from Sweep Actual -->
    <g transform="translate(319.602188 37.2) scale(0.12 -0.12)">
     <defs>
      <path id="DejaVuSans-48" d="M 628 4666 
L 1259 4666 
L 1259 2753 
L 3553 2753 
L 3553 4666 
L 4184 4666 
L 4184 0 
L 3553 0 
L 3553 2222 
L 1259 2222 
L 1259 0 
L 628 0 
L 628 4666 
z
" transform="scale(0.015625)"/>
      <path id="DejaVuSans-53" d="M 3425 4513 
L 3425 3897 
Q 3066 4069 2747 4153 
Q 2428 4238 2131 4238 
Q 1616 4238 1336 4038 
Q 1056 3838 1056 3469 
Q 1056 3159 1242 3001 
Q 1428 2844 1947 2747 
L 2328 2669 
Q 3034 2534 3370 2195 
Q 3706 1856 3706 1288 
Q 3706 609 3251 259 
Q 2797 -91 1919 -91 
Q 1588 -91 1214 -16 
Q 841 59 441 206 
L 441 856 
Q 825 641 1194 531 
Q 1563 422 1919 422 
Q 2459 422 2753 634 
Q 3047 847 3047 1241 
Q 3047 1584 2836 1778 
Q 2625 1972 2144 2069 
L 1759 2144 
Q 1053 2284 737 2584 
Q 422 2884 422 3419 
Q 422 4038 858 4394 
Q 1294 4750 2059 4750 
Q 2388 4750 2728 4690 
Q 3069 4631 3425 4513 
z
" transform="scale(0.015625)"/>
      <path id="DejaVuSans-20" transform="scale(0.015625)"/>
      <path id="DejaVuSans-72" d="M 2631 2963 
Q 2534 3019 2420 3045 
Q 2306 3072 2169 3072 
Q 1681 3072 1420 2755 
Q 1159 2438 1159 1844 
L 1159 0 
L 581 0 
L 581 3500 
L 1159 3500 
L 1159 2956 
Q 1341 3275 1631 3429 
Q 1922 3584 2338 3584 
Q 2397 3584 2469 3576 
Q 2541 3569 2628 3553 
L 2631 2963 
z
" transform="scale(0.015625)"/>
      <path id="DejaVuSans-62" d="M 3116 1747 
Q 3116 2381 2855 2742 
Q 2594 3103 2138 3103 
Q 1681 3103 1420 2742 
Q 1159 2381 1159 1747 
Q 1159 1113 1420 752 
Q 1681 391 2138 391 
Q 2594 391 2855 752 
Q 3116 1113 3116 1747 
z
M 1159 2969 
Q 1341 3281 1617 3432 
Q 1894 3584 2278 3584 
Q 2916 3584 3314 3078 
Q 3713 2572 3713 1747 
Q 3713 922 3314 415 
Q 2916 -91 2278 -91 
Q 1894 -91 1617 61 
Q 1341 213 1159 525 
L 1159 0 
L 581 0 
L 581 4863 
L 1159 4863 
L 1159 2969 
z
" transform="scale(0.015625)"/>
      <path id="DejaVuSans-75" d="M 544 1381 
L 544 3500 
L 1119 3500 
L 1119 1403 
Q 1119 906 1312 657 
Q 1506 409 1894 409 
Q 2359 409 2629 706 
Q 2900 1003 2900 1516 
L 2900 3500 
L 3475 3500 
L 3475 0 
L 2900 0 
L 2900 538 
Q 2691 219 2414 64 
Q 2138 -91 1772 -91 
Q 1169 -91 856 284 
Q 544 659 544 1381 
z
M 1991 3584 
L 1991 3584 
z
" transform="scale(0.015625)"/>
      <path id="DejaVuSans-6f" d="M 1959 3097 
Q 1497 3097 1228 2736 
Q 959 2375 959 1747 
Q 959 1119 1226 758 
Q 1494 397 1959 397 
Q 2419 397 2687 759 
Q 2956 1122 2956 1747 
Q 2956 2369 2687 2733 
Q 2419 3097 1959 3097 
z
M 1959 3584 
Q 2709 3584 3137 3096 
Q 3566 2609 3566 1747 
Q 3566 888 3137 398 
Q 2709 -91 1959 -91 
Q 1206 -91 779 398 
Q 353 888 353 1747 
Q 353 2609 779 3096 
Q 1206 3584 1959 3584 
z
" transform="scale(0.015625)"/>
      <path id="DejaVuSans-66" d="M 2375 4863 
L 2375 4384 
L 1825 4384 
Q 1516 4384 1395 4259 
Q 1275 4134 1275 3809 
L 1275 3500 
L 2222 3500 
L 2222 3053 
L 1275 3053 
L 1275 0 
L 697 0 
L 697 3053 
L 147 3053 
L 147 3500 
L 697 3500 
L 697 3744 
Q 697 4328 969 4595 
Q 1241 4863 1831 4863 
L 2375 4863 
z
" transform="scale(0.015625)"/>
      <path id="DejaVuSans-6d" d="M 3328 2828 
Q 3544 3216 3844 3400 
Q 4144 3584 4550 3584 
Q 5097 3584 5394 3201 
Q 5691 2819 5691 2113 
L 5691 0 
L 5113 0 
L 5113 2094 
Q 5113 2597 4934 2840 
Q 4756 3084 4391 3084 
Q 3944 3084 3684 2787 
Q 3425 2491 3425 1978 
L 3425 0 
L 2847 0 
L 2847 2094 
Q 2847 2600 2669 2842 
Q 2491 3084 2119 3084 
Q 1678 3084 1418 2786 
Q 1159 2488 1159 1978 
L 1159 0 
L 581 0 
L 581 3500 
L 1159 3500 
L 1159 2956 
Q 1356 3278 1631 3431 
Q 1906 3584 2284 3584 
Q 2666 3584 2933 3390 
Q 3200 3197 3328 2828 
z
" transform="scale(0.015625)"/>
      <path id="DejaVuSans-41" d="M 2188 4044 
L 1331 1722 
L 3047 1722 
L 2188 4044 
z
M 1831 4666 
L 2547 4666 
L 4325 0 
L 3669 0 
L 3244 1197 
L 1141 1197 
L 716 0 
L 50 0 
L 1831 4666 
z
" transform="scale(0.015625)"/>
      <path id="DejaVuSans-63" d="M 3122 3366 
L 3122 2828 
Q 2878 2963 2633 3030 
Q 2388 3097 2138 3097 
Q 1578 3097 1268 2742 
Q 959 2388 959 1747 
Q 959 1106 1268 751 
Q 1578 397 2138 397 
Q 2388 397 2633 464 
Q 2878 531 3122 666 
L 3122 134 
Q 2881 22 2623 -34 
Q 2366 -91 2075 -91 
Q 1284 -91 818 406 
Q 353 903 353 1747 
Q 353 2603 823 3093 
Q 1294 3584 2113 3584 
Q 2378 3584 2631 3529 
Q 2884 3475 3122 3366 
z
" transform="scale(0.015625)"/>
     </defs>
     <use xlink:href="#DejaVuSans-69"/>
     <use xlink:href="#DejaVuSans-48" x="27.783203"/>
     <use xlink:href="#DejaVuSans-53" x="102.978516"/>
     <use xlink:href="#DejaVuSans-20" x="166.455078"/>
     <use xlink:href="#DejaVuSans-44" x="198.242188"/>
     <use xlink:href="#DejaVuSans-65" x="275.244141"/>
     <use xlink:href="#DejaVuSans-6c" x="336.767578"/>
     <use xlink:href="#DejaVuSans-74" x="364.550781"/>
     <use xlink:href="#DejaVuSans-61" x="403.759766"/>
     <use xlink:href="#DejaVuSans-20" x="465.039062"/>
     <use xlink:href="#DejaVuSans-44" x="496.826172"/>
     <use xlink:href="#DejaVuSans-69" x="573.828125"/>
     <use xlink:href="#DejaVuSans-73" x="601.611328"/>
     <use xlink:href="#DejaVuSans-74" x="653.710938"/>
     <use xlink:href="#DejaVuSans-72" x="692.919922"/>
     <use xlink:href="#DejaVuSans-69" x="734.033203"/>
     <use xlink:href="#DejaVuSans-62" x="761.816406"/>
     <use xlink:href="#DejaVuSans-75" x="825.292969"/>
     <use xlink:href="#DejaVuSans-74" x="888.671875"/>
     <use xlink:href="#DejaVuSans-69" x="927.880859"/>
     <use xlink:href="#DejaVuSans-6f" x="955.664062"/>
     <use xlink:href="#DejaVuSans-6e" x="1016.845703"/>
     <use xlink:href="#DejaVuSans-20" x="1080.224609"/>
     <use xlink:href="#DejaVuSans-66" x="1112.011719"/>
     <use xlink:href="#DejaVuSans-72" x="1147.216797"/>
     <use xlink:href="#DejaVuSans-6f" x="1186.080078"/>
     <use xlink:href="#DejaVuSans-6d" x="1247.261719"/>
     <use xlink:href="#DejaVuSans-20" x="1344.673828"/>
     <use xlink:href="#DejaVuSans-53" x="1376.460938"/>
     <use xlink:href="#DejaVuSans-77" x="1439.9375"/>
     <use xlink:href="#DejaVuSans-65" x="1521.724609"/>
     <use xlink:href="#DejaVuSans-65" x="1583.248047"/>
     <use xlink:href="#DejaVuSans-70" x="1644.771484"/>
     <use xlink:href="#DejaVuSans-20" x="1708.248047"/>
     <use xlink:href="#DejaVuSans-41" x="1740.035156"/>
     <use xlink:href="#DejaVuSans-63" x="1806.693359"/>
     <use xlink:href="#DejaVuSans-74" x="1861.673828"/>
     <use xlink:href="#DejaVuSans-75" x="1900.882812"/>
     <use xlink:href="#DejaVuSans-61" x="1964.261719"/>
     <use xlink:href="#DejaVuSans-6c" x="2025.541016"/>
    </g>
   </g>
   <g id="legend_1">
    <g id="patch_7">
     <path d="M 633.575 95.234375 
L 770.6 95.234375 
Q 772.6 95.234375 772.6 93.234375 
L 772.6 50.2 
Q 772.6 48.2 770.6 48.2 
L 633.575 48.2 
Q 631.575 48.2 631.575 50.2 
L 631.575 93.234375 
Q 631.575 95.234375 633.575 95.234375 
z
" style="fill: #ffffff; opacity: 0.8; stroke: #cccccc; stroke-linejoin: miter"/>
    </g>
    <g id="patch_8">
     <path d="M 635.575 59.798437 
L 655.575 59.798437 
L 655.575 52.798437 
L 635.575 52.798437 
z
" style="fill: #ff00ff; fill-opacity: 0.25; stroke: #ff00ff; stroke-linejoin: miter"/>
    </g>
    <g id="text_23">
     <!-- Stochastic Backtrace -->
     <g transform="translate(663.575 59.798437) scale(0.1 -0.1)">
      <defs>
       <path id="DejaVuSans-68" d="M 3513 2113 
L 3513 0 
L 2938 0 
L 2938 2094 
Q 2938 2591 2744 2837 
Q 2550 3084 2163 3084 
Q 1697 3084 1428 2787 
Q 1159 2491 1159 1978 
L 1159 0 
L 581 0 
L 581 4863 
L 1159 4863 
L 1159 2956 
Q 1366 3272 1645 3428 
Q 1925 3584 2291 3584 
Q 2894 3584 3203 3211 
Q 3513 2838 3513 2113 
z
" transform="scale(0.015625)"/>
       <path id="DejaVuSans-42" d="M 1259 2228 
L 1259 519 
L 2272 519 
Q 2781 519 3026 730 
Q 3272 941 3272 1375 
Q 3272 1813 3026 2020 
Q 2781 2228 2272 2228 
L 1259 2228 
z
M 1259 4147 
L 1259 2741 
L 2194 2741 
Q 2656 2741 2882 2914 
Q 3109 3088 3109 3444 
Q 3109 3797 2882 3972 
Q 2656 4147 2194 4147 
L 1259 4147 
z
M 628 4666 
L 2241 4666 
Q 2963 4666 3353 4366 
Q 3744 4066 3744 3513 
Q 3744 3084 3544 2831 
Q 3344 2578 2956 2516 
Q 3422 2416 3680 2098 
Q 3938 1781 3938 1306 
Q 3938 681 3513 340 
Q 3088 0 2303 0 
L 628 0 
L 628 4666 
z
" transform="scale(0.015625)"/>
       <path id="DejaVuSans-6b" d="M 581 4863 
L 1159 4863 
L 1159 1991 
L 2875 3500 
L 3609 3500 
L 1753 1863 
L 3688 0 
L 2938 0 
L 1159 1709 
L 1159 0 
L 581 0 
L 581 4863 
z
" transform="scale(0.015625)"/>
      </defs>
      <use xlink:href="#DejaVuSans-53"/>
      <use xlink:href="#DejaVuSans-74" x="63.476562"/>
      <use xlink:href="#DejaVuSans-6f" x="102.685547"/>
      <use xlink:href="#DejaVuSans-63" x="163.867188"/>
      <use xlink:href="#DejaVuSans-68" x="218.847656"/>
      <use xlink:href="#DejaVuSans-61" x="282.226562"/>
      <use xlink:href="#DejaVuSans-73" x="343.505859"/>
      <use xlink:href="#DejaVuSans-74" x="395.605469"/>
      <use xlink:href="#DejaVuSans-69" x="434.814453"/>
      <use xlink:href="#DejaVuSans-63" x="462.597656"/>
      <use xlink:href="#DejaVuSans-20" x="517.578125"/>
      <use xlink:href="#DejaVuSans-42" x="549.365234"/>
      <use xlink:href="#DejaVuSans-61" x="617.96875"/>
      <use xlink:href="#DejaVuSans-63" x="679.248047"/>
      <use xlink:href="#DejaVuSans-6b" x="734.228516"/>
      <use xlink:href="#DejaVuSans-74" x="792.138672"/>
      <use xlink:href="#DejaVuSans-72" x="831.347656"/>
      <use xlink:href="#DejaVuSans-61" x="872.460938"/>
      <use xlink:href="#DejaVuSans-63" x="933.740234"/>
      <use xlink:href="#DejaVuSans-65" x="988.720703"/>
     </g>
    </g>
    <g id="patch_9">
     <path d="M 635.575 74.476562 
L 655.575 74.476562 
L 655.575 67.476562 
L 635.575 67.476562 
z
" style="fill: #1e90ff; fill-opacity: 0.25; stroke: #1e90ff; stroke-linejoin: miter"/>
    </g>
    <g id="text_24">
     <!-- Viterbi Path -->
     <g transform="translate(663.575 74.476562) scale(0.1 -0.1)">
      <defs>
       <path id="DejaVuSans-56" d="M 1831 0 
L 50 4666 
L 709 4666 
L 2188 738 
L 3669 4666 
L 4325 4666 
L 2547 0 
L 1831 0 
z
" transform="scale(0.015625)"/>
       <path id="DejaVuSans-50" d="M 1259 4147 
L 1259 2394 
L 2053 2394 
Q 2494 2394 2734 2622 
Q 2975 2850 2975 3272 
Q 2975 3691 2734 3919 
Q 2494 4147 2053 4147 
L 1259 4147 
z
M 628 4666 
L 2053 4666 
Q 2838 4666 3239 4311 
Q 3641 3956 3641 3272 
Q 3641 2581 3239 2228 
Q 2838 1875 2053 1875 
L 1259 1875 
L 1259 0 
L 628 0 
L 628 4666 
z
" transform="scale(0.015625)"/>
      </defs>
      <use xlink:href="#DejaVuSans-56"/>
      <use xlink:href="#DejaVuSans-69" x="66.158203"/>
      <use xlink:href="#DejaVuSans-74" x="93.941406"/>
      <use xlink:href="#DejaVuSans-65" x="133.150391"/>
      <use xlink:href="#DejaVuSans-72" x="194.673828"/>
      <use xlink:href="#DejaVuSans-62" x="235.787109"/>
      <use xlink:href="#DejaVuSans-69" x="299.263672"/>
      <use xlink:href="#DejaVuSans-20" x="327.046875"/>
      <use xlink:href="#DejaVuSans-50" x="358.833984"/>
      <use xlink:href="#DejaVuSans-61" x="414.636719"/>
      <use xlink:href="#DejaVuSans-74" x="475.916016"/>
      <use xlink:href="#DejaVuSans-68" x="515.125"/>
     </g>
    </g>
    <g id="patch_10">
     <path d="M 635.575 89.154687 
L 655.575 89.154687 
L 655.575 82.154687 
L 635.575 82.154687 
z
" style="fill: #0000ff; fill-opacity: 0.25; stroke: #0000ff; stroke-linejoin: miter"/>
    </g>
    <g id="text_25">
     <!-- SWIF(r) All-Stats -->
     <g transform="translate(663.575 89.154687) scale(0.1 -0.1)">
      <defs>
       <path id="DejaVuSans-57" d="M 213 4666 
L 850 4666 
L 1831 722 
L 2809 4666 
L 3519 4666 
L 4500 722 
L 5478 4666 
L 6119 4666 
L 4947 0 
L 4153 0 
L 3169 4050 
L 2175 0 
L 1381 0 
L 213 4666 
z
" transform="scale(0.015625)"/>
       <path id="DejaVuSans-49" d="M 628 4666 
L 1259 4666 
L 1259 0 
L 628 0 
L 628 4666 
z
" transform="scale(0.015625)"/>
       <path id="DejaVuSans-46" d="M 628 4666 
L 3309 4666 
L 3309 4134 
L 1259 4134 
L 1259 2759 
L 3109 2759 
L 3109 2228 
L 1259 2228 
L 1259 0 
L 628 0 
L 628 4666 
z
" transform="scale(0.015625)"/>
       <path id="DejaVuSans-28" d="M 1984 4856 
Q 1566 4138 1362 3434 
Q 1159 2731 1159 2009 
Q 1159 1288 1364 580 
Q 1569 -128 1984 -844 
L 1484 -844 
Q 1016 -109 783 600 
Q 550 1309 550 2009 
Q 550 2706 781 3412 
Q 1013 4119 1484 4856 
L 1984 4856 
z
" transform="scale(0.015625)"/>
       <path id="DejaVuSans-29" d="M 513 4856 
L 1013 4856 
Q 1481 4119 1714 3412 
Q 1947 2706 1947 2009 
Q 1947 1309 1714 600 
Q 1481 -109 1013 -844 
L 513 -844 
Q 928 -128 1133 580 
Q 1338 1288 1338 2009 
Q 1338 2731 1133 3434 
Q 928 4138 513 4856 
z
" transform="scale(0.015625)"/>
       <path id="DejaVuSans-2d" d="M 313 2009 
L 1997 2009 
L 1997 1497 
L 313 1497 
L 313 2009 
z
" transform="scale(0.015625)"/>
      </defs>
      <use xlink:href="#DejaVuSans-53"/>
      <use xlink:href="#DejaVuSans-57" x="63.476562"/>
      <use xlink:href="#DejaVuSans-49" x="162.353516"/>
      <use xlink:href="#DejaVuSans-46" x="191.845703"/>
      <use xlink:href="#DejaVuSans-28" x="249.365234"/>
      <use xlink:href="#DejaVuSans-72" x="288.378906"/>
      <use xlink:href="#DejaVuSans-29" x="329.492188"/>
      <use xlink:href="#DejaVuSans-20" x="368.505859"/>
      <use xlink:href="#DejaVuSans-41" x="400.292969"/>
      <use xlink:href="#DejaVuSans-6c" x="468.701172"/>
      <use xlink:href="#DejaVuSans-6c" x="496.484375"/>
      <use xlink:href="#DejaVuSans-2d" x="524.267578"/>
      <use xlink:href="#DejaVuSans-53" x="560.351562"/>
      <use xlink:href="#DejaVuSans-74" x="623.828125"/>
      <use xlink:href="#DejaVuSans-61" x="663.037109"/>
      <use xlink:href="#DejaVuSans-74" x="724.316406"/>
      <use xlink:href="#DejaVuSans-73" x="763.525391"/>
     </g>
    </g>
   </g>
  </g>
 </g>
 <defs>
  <clipPath id="pdce604d4fd">
   <rect x="108" y="43.2" width="669.6" height="277.2"/>
  </clipPath>
 </defs>
</svg>
