<?xml version="1.0" encoding="utf-8" standalone="no"?>
<!DOCTYPE svg PUBLIC "-//W3C//DTD SVG 1.1//EN"
  "http://www.w3.org/Graphics/SVG/1.1/DTD/svg11.dtd">
<svg xmlns:xlink="http://www.w3.org/1999/xlink" width="864pt" height="360pt" viewBox="0 0 864 360" xmlns="http://www.w3.org/2000/svg" version="1.1">
 <metadata>
  <rdf:RDF xmlns:dc="http://purl.org/dc/elements/1.1/" xmlns:cc="http://creativecommons.org/ns#" xmlns:rdf="http://www.w3.org/1999/02/22-rdf-syntax-ns#">
   <cc:Work>
    <dc:type rdf:resource="http://purl.org/dc/dcmitype/StillImage"/>
    <dc:date>2024-05-27T13:25:28.393622</dc:date>
    <dc:format>image/svg+xml</dc:format>
    <dc:creator>
     <cc:Agent>
      <dc:title>Matplotlib v3.8.0, https://matplotlib.org/</dc:title>
     </cc:Agent>
    </dc:creator>
   </cc:Work>
  </rdf:RDF>
 </metadata>
 <defs>
  <style type="text/css">*{stroke-linejoin: round; stroke-linecap: butt}</style>
 </defs>
 <g id="figure_1">
  <g id="patch_1">
   <path d="M 0 360 
L 864 360 
L 864 0 
L 0 0 
z
" style="fill: #ffffff"/>
  </g>
  <g id="axes_1">
   <g id="patch_2">
    <path d="M 108 320.4 
L 777.6 320.4 
L 777.6 43.2 
L 108 43.2 
z
" style="fill: #ffffff"/>
   </g>
   <g id="PolyCollection_1">
    <defs>
     <path id="m70645a6a70" d="M 178.51745 -39.694438 
L 178.51745 -39.6 
L 181.343025 -39.6 
L 184.168601 -39.6 
L 186.994177 -39.6 
L 189.819753 -39.6 
L 192.645329 -39.6 
L 195.470905 -39.6 
L 198.29648 -39.6 
L 201.122056 -39.6 
L 203.947632 -39.6 
L 206.773208 -39.6 
L 209.598784 -39.6 
L 212.424359 -39.6 
L 215.249935 -39.6 
L 218.075511 -39.6 
L 220.901087 -39.6 
L 223.726663 -39.6 
L 226.552239 -39.6 
L 229.377814 -39.6 
L 232.20339 -39.6 
L 235.028966 -39.6 
L 237.854542 -39.6 
L 240.680118 -39.6 
L 243.505694 -39.6 
L 246.331269 -39.6 
L 249.156845 -39.6 
L 251.982421 -39.6 
L 254.807997 -39.6 
L 257.633573 -39.6 
L 260.459149 -39.6 
L 263.284724 -39.6 
L 266.1103 -39.6 
L 268.935876 -39.6 
L 271.761452 -39.6 
L 274.587028 -39.6 
L 277.412604 -39.6 
L 280.238179 -39.6 
L 283.063755 -39.6 
L 285.889331 -39.6 
L 288.714907 -39.6 
L 291.540483 -39.6 
L 294.366059 -39.6 
L 297.191634 -39.6 
L 300.01721 -39.6 
L 302.842786 -39.6 
L 305.668362 -39.6 
L 308.493938 -39.6 
L 311.319513 -39.6 
L 314.145089 -39.6 
L 316.970665 -39.6 
L 319.796241 -39.6 
L 322.621817 -39.6 
L 325.447393 -39.6 
L 328.272968 -39.6 
L 331.098544 -39.6 
L 333.92412 -39.6 
L 336.749696 -39.6 
L 339.575272 -39.6 
L 342.400848 -39.6 
L 345.226423 -39.6 
L 348.051999 -39.6 
L 350.877575 -39.6 
L 353.703151 -39.6 
L 356.528727 -39.6 
L 359.354303 -39.6 
L 362.179878 -39.6 
L 365.005454 -39.6 
L 367.83103 -39.6 
L 370.656606 -39.6 
L 373.482182 -39.6 
L 376.307758 -39.6 
L 379.133333 -39.6 
L 381.958909 -39.6 
L 384.784485 -39.6 
L 387.610061 -39.6 
L 390.435637 -39.6 
L 393.261212 -39.6 
L 396.086788 -39.6 
L 398.912364 -39.6 
L 401.73794 -39.6 
L 404.563516 -39.6 
L 407.389092 -39.6 
L 410.214667 -39.6 
L 413.040243 -39.6 
L 415.865819 -39.6 
L 418.691395 -39.6 
L 421.516971 -39.6 
L 424.342547 -39.6 
L 427.168122 -39.6 
L 429.993698 -39.6 
L 432.819274 -39.6 
L 435.64485 -39.6 
L 438.470426 -39.6 
L 441.296002 -39.6 
L 444.121577 -39.6 
L 446.947153 -39.6 
L 449.772729 -39.6 
L 452.598305 -39.6 
L 455.423881 -39.6 
L 458.249457 -39.6 
L 461.075032 -39.6 
L 463.900608 -39.6 
L 466.726184 -39.6 
L 469.55176 -39.6 
L 472.377336 -39.6 
L 475.202912 -39.6 
L 478.028487 -39.6 
L 480.854063 -39.6 
L 483.679639 -39.6 
L 486.505215 -39.6 
L 489.330791 -39.6 
L 492.156366 -39.6 
L 494.981942 -39.6 
L 497.807518 -39.6 
L 500.633094 -39.6 
L 503.45867 -39.6 
L 506.284246 -39.6 
L 509.109821 -39.6 
L 511.935397 -39.6 
L 514.760973 -39.6 
L 517.586549 -39.6 
L 520.412125 -39.6 
L 523.237701 -39.6 
L 526.063276 -39.6 
L 528.888852 -39.6 
L 531.714428 -39.6 
L 534.540004 -39.6 
L 537.36558 -39.6 
L 540.191156 -39.6 
L 543.016731 -39.6 
L 545.842307 -39.6 
L 548.667883 -39.6 
L 551.493459 -39.6 
L 554.319035 -39.6 
L 557.144611 -39.6 
L 559.970186 -39.6 
L 562.795762 -39.6 
L 565.621338 -39.6 
L 568.446914 -39.6 
L 571.27249 -39.6 
L 574.098066 -39.6 
L 576.923641 -39.6 
L 579.749217 -39.6 
L 582.574793 -39.6 
L 585.400369 -39.6 
L 588.225945 -39.6 
L 591.05152 -39.6 
L 593.877096 -39.6 
L 596.702672 -39.6 
L 599.528248 -39.6 
L 602.353824 -39.6 
L 605.1794 -39.6 
L 608.004975 -39.6 
L 610.830551 -39.6 
L 613.656127 -39.6 
L 616.481703 -39.6 
L 619.307279 -39.6 
L 622.132855 -39.6 
L 624.95843 -39.6 
L 627.784006 -39.6 
L 630.609582 -39.6 
L 633.435158 -39.6 
L 636.260734 -39.6 
L 639.08631 -39.6 
L 641.911885 -39.6 
L 644.737461 -39.6 
L 647.563037 -39.6 
L 650.388613 -39.6 
L 653.214189 -39.6 
L 656.039765 -39.6 
L 658.86534 -39.6 
L 661.690916 -39.6 
L 664.516492 -39.6 
L 667.342068 -39.6 
L 670.167644 -39.6 
L 672.993219 -39.6 
L 675.818795 -39.6 
L 678.644371 -39.6 
L 681.469947 -39.6 
L 684.295523 -39.6 
L 687.121099 -39.6 
L 689.946674 -39.6 
L 692.77225 -39.6 
L 695.597826 -39.6 
L 698.423402 -39.6 
L 701.248978 -39.6 
L 704.074554 -39.6 
L 706.900129 -39.6 
L 709.725705 -39.6 
L 712.551281 -39.6 
L 715.376857 -39.6 
L 718.202433 -39.6 
L 721.028009 -39.6 
L 723.853584 -39.6 
L 726.67916 -39.6 
L 729.504736 -39.6 
L 732.330312 -39.6 
L 735.155888 -39.6 
L 737.981464 -39.6 
L 740.807039 -39.6 
L 740.807039 -39.600001 
L 740.807039 -39.600001 
L 737.981464 -39.600024 
L 735.155888 -39.600106 
L 732.330312 -39.600186 
L 729.504736 -39.600207 
L 726.67916 -39.600178 
L 723.853584 -39.600296 
L 721.028009 -39.600664 
L 718.202433 -39.601168 
L 715.376857 -39.600988 
L 712.551281 -39.600933 
L 709.725705 -39.601142 
L 706.900129 -39.601534 
L 704.074554 -39.601525 
L 701.248978 -39.601805 
L 698.423402 -39.602606 
L 695.597826 -39.603379 
L 692.77225 -39.60353 
L 689.946674 -39.603906 
L 687.121099 -39.603591 
L 684.295523 -39.604054 
L 681.469947 -39.604695 
L 678.644371 -39.605115 
L 675.818795 -39.606093 
L 672.993219 -39.607413 
L 670.167644 -39.609143 
L 667.342068 -39.608953 
L 664.516492 -39.608619 
L 661.690916 -39.608883 
L 658.86534 -39.610013 
L 656.039765 -39.611126 
L 653.214189 -39.612646 
L 650.388613 -39.614143 
L 647.563037 -39.614858 
L 644.737461 -39.615379 
L 641.911885 -39.615779 
L 639.08631 -39.617394 
L 636.260734 -39.618724 
L 633.435158 -39.62114 
L 630.609582 -39.62168 
L 627.784006 -39.622759 
L 624.95843 -39.623599 
L 622.132855 -39.62548 
L 619.307279 -39.627836 
L 616.481703 -39.629689 
L 613.656127 -39.632325 
L 610.830551 -39.634128 
L 608.004975 -39.635471 
L 605.1794 -39.636592 
L 602.353824 -39.640068 
L 599.528248 -39.644341 
L 596.702672 -39.647465 
L 593.877096 -39.649369 
L 591.05152 -39.651583 
L 588.225945 -39.653761 
L 585.400369 -39.658989 
L 582.574793 -39.663595 
L 579.749217 -39.663301 
L 576.923641 -39.667471 
L 574.098066 -39.672223 
L 571.27249 -39.675731 
L 568.446914 -39.677567 
L 565.621338 -39.678835 
L 562.795762 -39.682646 
L 559.970186 -39.689966 
L 557.144611 -39.6926 
L 554.319035 -39.696681 
L 551.493459 -39.703351 
L 548.667883 -39.704274 
L 545.842307 -39.707525 
L 543.016731 -39.712806 
L 540.191156 -39.718522 
L 537.36558 -39.727803 
L 534.540004 -39.729518 
L 531.714428 -39.730777 
L 528.888852 -39.73787 
L 526.063276 -39.745496 
L 523.237701 -39.749348 
L 520.412125 -39.754398 
L 517.586549 -39.76145 
L 514.760973 -39.769104 
L 511.935397 -39.777566 
L 509.109821 -39.782925 
L 506.284246 -39.788115 
L 503.45867 -39.798272 
L 500.633094 -39.80659 
L 497.807518 -39.811971 
L 494.981942 -39.81926 
L 492.156366 -39.828305 
L 489.330791 -39.836932 
L 486.505215 -39.849474 
L 483.679639 -39.860998 
L 480.854063 -39.869803 
L 478.028487 -39.877286 
L 475.202912 -39.884232 
L 472.377336 -39.893693 
L 469.55176 -39.905374 
L 466.726184 -39.914959 
L 463.900608 -39.930533 
L 461.075032 -39.944397 
L 458.249457 -39.952615 
L 455.423881 -39.962842 
L 452.598305 -39.975957 
L 449.772729 -39.986223 
L 446.947153 -40.004847 
L 444.121577 -40.019637 
L 441.296002 -40.033728 
L 438.470426 -40.047047 
L 435.64485 -40.065917 
L 432.819274 -40.085355 
L 429.993698 -40.099699 
L 427.168122 -40.11324 
L 424.342547 -40.128058 
L 421.516971 -40.146611 
L 418.691395 -40.161589 
L 415.865819 -40.18568 
L 413.040243 -40.208089 
L 410.214667 -40.222749 
L 407.389092 -40.244838 
L 404.563516 -40.273638 
L 401.73794 -40.292638 
L 398.912364 -40.301645 
L 396.086788 -40.323695 
L 393.261212 -40.34086 
L 390.435637 -40.364288 
L 387.610061 -40.393035 
L 384.784485 -40.416454 
L 381.958909 -40.447502 
L 379.133333 -40.480105 
L 376.307758 -40.509575 
L 373.482182 -40.536628 
L 370.656606 -40.56896 
L 367.83103 -40.609927 
L 365.005454 -40.650445 
L 362.179878 -40.682047 
L 359.354303 -40.709118 
L 356.528727 -40.749339 
L 353.703151 -40.784423 
L 350.877575 -40.826767 
L 348.051999 -40.87446 
L 345.226423 -40.919601 
L 342.400848 -40.972697 
L 339.575272 -41.028849 
L 336.749696 -41.07306 
L 333.92412 -41.11805 
L 331.098544 -41.177321 
L 328.272968 -41.228969 
L 325.447393 -41.280619 
L 322.621817 -41.345923 
L 319.796241 -41.42025 
L 316.970665 -41.484284 
L 314.145089 -41.547642 
L 311.319513 -41.628337 
L 308.493938 -41.703236 
L 305.668362 -41.784166 
L 302.842786 -41.874328 
L 300.01721 -41.962953 
L 297.191634 -42.050179 
L 294.366059 -42.135119 
L 291.540483 -42.24945 
L 288.714907 -42.378583 
L 285.889331 -42.497465 
L 283.063755 -42.622995 
L 280.238179 -42.755895 
L 277.412604 -42.901092 
L 274.587028 -43.050588 
L 271.761452 -43.218345 
L 268.935876 -43.402689 
L 266.1103 -43.586663 
L 263.284724 -43.781166 
L 260.459149 -44.011909 
L 257.633573 -44.252132 
L 254.807997 -44.502966 
L 251.982421 -44.783056 
L 249.156845 -45.092141 
L 246.331269 -45.437092 
L 243.505694 -45.8052 
L 240.680118 -46.244196 
L 237.854542 -46.725762 
L 235.028966 -47.253659 
L 232.20339 -47.832803 
L 229.377814 -48.498048 
L 226.552239 -49.269034 
L 223.726663 -50.163062 
L 220.901087 -51.204298 
L 218.075511 -52.449586 
L 215.249935 -53.896931 
L 212.424359 -55.689272 
L 209.598784 -57.877644 
L 206.773208 -60.658594 
L 203.947632 -64.29229 
L 201.122056 -69.261784 
L 198.29648 -76.393897 
L 195.470905 -87.526168 
L 192.645329 -108.240459 
L 189.819753 -172.761236 
L 186.994177 -303.6 
L 184.168601 -145.31424 
L 181.343025 -46.19797 
L 178.51745 -39.694438 
z
" style="stroke: #ff00ff"/>
    </defs>
    <g clip-path="url(#p4e48365929)">
     <use xlink:href="#m70645a6a70" x="0" y="360" style="fill: #ff00ff; fill-opacity: 0.25; stroke: #ff00ff"/>
    </g>
   </g>
   <g id="PolyCollection_2">
    <defs>
     <path id="mcbcbeb8160" d="M 172.191227 -39.768129 
L 172.191227 -39.6 
L 174.979999 -39.6 
L 177.76877 -39.6 
L 180.557542 -39.6 
L 183.346313 -39.6 
L 186.135084 -39.6 
L 188.923856 -39.6 
L 191.712627 -39.6 
L 194.501398 -39.6 
L 197.29017 -39.6 
L 200.078941 -39.6 
L 202.867713 -39.6 
L 205.656484 -39.6 
L 208.445255 -39.6 
L 211.234027 -39.6 
L 214.022798 -39.6 
L 216.81157 -39.6 
L 219.600341 -39.6 
L 222.389112 -39.6 
L 225.177884 -39.6 
L 227.966655 -39.6 
L 230.755427 -39.6 
L 233.544198 -39.6 
L 236.332969 -39.6 
L 239.121741 -39.6 
L 241.910512 -39.6 
L 244.699284 -39.6 
L 247.488055 -39.6 
L 250.276826 -39.6 
L 253.065598 -39.6 
L 255.854369 -39.6 
L 258.643141 -39.6 
L 261.431912 -39.6 
L 264.220683 -39.6 
L 267.009455 -39.6 
L 269.798226 -39.6 
L 272.586998 -39.6 
L 275.375769 -39.6 
L 278.16454 -39.6 
L 280.953312 -39.6 
L 283.742083 -39.6 
L 286.530854 -39.6 
L 289.319626 -39.6 
L 292.108397 -39.6 
L 294.897169 -39.6 
L 297.68594 -39.6 
L 300.474711 -39.6 
L 303.263483 -39.6 
L 306.052254 -39.6 
L 308.841026 -39.6 
L 311.629797 -39.6 
L 314.418568 -39.6 
L 317.20734 -39.6 
L 319.996111 -39.6 
L 322.784883 -39.6 
L 325.573654 -39.6 
L 328.362425 -39.6 
L 331.151197 -39.6 
L 333.939968 -39.6 
L 336.72874 -39.6 
L 339.517511 -39.6 
L 342.306282 -39.6 
L 345.095054 -39.6 
L 347.883825 -39.6 
L 350.672597 -39.6 
L 353.461368 -39.6 
L 356.250139 -39.6 
L 359.038911 -39.6 
L 361.827682 -39.6 
L 364.616454 -39.6 
L 367.405225 -39.6 
L 370.193996 -39.6 
L 372.982768 -39.6 
L 375.771539 -39.6 
L 378.56031 -39.6 
L 381.349082 -39.6 
L 384.137853 -39.6 
L 386.926625 -39.6 
L 389.715396 -39.6 
L 392.504167 -39.6 
L 395.292939 -39.6 
L 398.08171 -39.6 
L 400.870482 -39.6 
L 403.659253 -39.6 
L 406.448024 -39.6 
L 409.236796 -39.6 
L 412.025567 -39.6 
L 414.814339 -39.6 
L 417.60311 -39.6 
L 420.391881 -39.6 
L 423.180653 -39.6 
L 425.969424 -39.6 
L 428.758196 -39.6 
L 431.546967 -39.6 
L 434.335738 -39.6 
L 437.12451 -39.6 
L 439.913281 -39.6 
L 442.702053 -39.6 
L 445.490824 -39.6 
L 448.279595 -39.6 
L 451.068367 -39.6 
L 453.857138 -39.6 
L 456.645909 -39.6 
L 459.434681 -39.6 
L 462.223452 -39.6 
L 465.012224 -39.6 
L 467.800995 -39.6 
L 470.589766 -39.6 
L 473.378538 -39.6 
L 476.167309 -39.6 
L 478.956081 -39.6 
L 481.744852 -39.6 
L 484.533623 -39.6 
L 487.322395 -39.6 
L 490.111166 -39.6 
L 492.899938 -39.6 
L 495.688709 -39.6 
L 498.47748 -39.6 
L 501.266252 -39.6 
L 504.055023 -39.6 
L 506.843795 -39.6 
L 509.632566 -39.6 
L 512.421337 -39.6 
L 515.210109 -39.6 
L 517.99888 -39.6 
L 520.787652 -39.6 
L 523.576423 -39.6 
L 526.365194 -39.6 
L 529.153966 -39.6 
L 531.942737 -39.6 
L 534.731509 -39.6 
L 537.52028 -39.6 
L 540.309051 -39.6 
L 543.097823 -39.6 
L 545.886594 -39.6 
L 548.675365 -39.6 
L 551.464137 -39.6 
L 554.252908 -39.6 
L 557.04168 -39.6 
L 559.830451 -39.6 
L 562.619222 -39.6 
L 565.407994 -39.6 
L 568.196765 -39.6 
L 570.985537 -39.6 
L 573.774308 -39.6 
L 576.563079 -39.6 
L 579.351851 -39.6 
L 582.140622 -39.6 
L 584.929394 -39.6 
L 587.718165 -39.6 
L 590.506936 -39.6 
L 593.295708 -39.6 
L 596.084479 -39.6 
L 598.873251 -39.6 
L 601.662022 -39.6 
L 604.450793 -39.6 
L 607.239565 -39.6 
L 610.028336 -39.6 
L 612.817108 -39.6 
L 615.605879 -39.6 
L 618.39465 -39.6 
L 621.183422 -39.6 
L 623.972193 -39.6 
L 626.760965 -39.6 
L 629.549736 -39.6 
L 632.338507 -39.6 
L 635.127279 -39.6 
L 637.91605 -39.6 
L 640.704821 -39.6 
L 643.493593 -39.6 
L 646.282364 -39.6 
L 649.071136 -39.6 
L 651.859907 -39.6 
L 654.648678 -39.6 
L 657.43745 -39.6 
L 660.226221 -39.6 
L 663.014993 -39.6 
L 665.803764 -39.6 
L 668.592535 -39.6 
L 671.381307 -39.6 
L 674.170078 -39.6 
L 676.95885 -39.6 
L 679.747621 -39.6 
L 682.536392 -39.6 
L 685.325164 -39.6 
L 688.113935 -39.6 
L 690.902707 -39.6 
L 693.691478 -39.6 
L 696.480249 -39.6 
L 699.269021 -39.6 
L 702.057792 -39.6 
L 704.846564 -39.6 
L 707.635335 -39.6 
L 710.424106 -39.6 
L 713.212878 -39.6 
L 716.001649 -39.6 
L 718.79042 -39.6 
L 721.579192 -39.6 
L 724.367963 -39.6 
L 727.156735 -39.6 
L 727.156735 -39.60001 
L 727.156735 -39.60001 
L 724.367963 -39.600069 
L 721.579192 -39.600308 
L 718.79042 -39.60087 
L 716.001649 -39.601612 
L 713.212878 -39.602105 
L 710.424106 -39.602271 
L 707.635335 -39.602504 
L 704.846564 -39.602978 
L 702.057792 -39.603555 
L 699.269021 -39.604104 
L 696.480249 -39.604625 
L 693.691478 -39.605378 
L 690.902707 -39.606566 
L 688.113935 -39.608066 
L 685.325164 -39.609671 
L 682.536392 -39.61106 
L 679.747621 -39.611897 
L 676.95885 -39.612636 
L 674.170078 -39.614137 
L 671.381307 -39.616138 
L 668.592535 -39.617747 
L 665.803764 -39.618905 
L 663.014993 -39.620167 
L 660.226221 -39.62226 
L 657.43745 -39.625329 
L 654.648678 -39.628296 
L 651.859907 -39.630043 
L 649.071136 -39.630332 
L 646.282364 -39.630118 
L 643.493593 -39.631205 
L 640.704821 -39.634382 
L 637.91605 -39.638781 
L 635.127279 -39.643398 
L 632.338507 -39.647554 
L 629.549736 -39.650392 
L 626.760965 -39.651739 
L 623.972193 -39.652154 
L 621.183422 -39.652377 
L 618.39465 -39.65411 
L 615.605879 -39.659451 
L 612.817108 -39.668076 
L 610.028336 -39.676377 
L 607.239565 -39.681036 
L 604.450793 -39.683456 
L 601.662022 -39.687892 
L 598.873251 -39.695709 
L 596.084479 -39.706262 
L 593.295708 -39.719447 
L 590.506936 -39.733394 
L 587.718165 -39.744958 
L 584.929394 -39.752338 
L 582.140622 -39.754684 
L 579.351851 -39.754011 
L 576.563079 -39.755568 
L 573.774308 -39.761351 
L 570.985537 -39.768899 
L 568.196765 -39.776152 
L 565.407994 -39.782958 
L 562.619222 -39.790277 
L 559.830451 -39.799358 
L 557.04168 -39.811512 
L 554.252908 -39.82529 
L 551.464137 -39.835775 
L 548.675365 -39.841083 
L 545.886594 -39.845537 
L 543.097823 -39.853317 
L 540.309051 -39.863222 
L 537.52028 -39.872689 
L 534.731509 -39.881338 
L 531.942737 -39.889955 
L 529.153966 -39.900697 
L 526.365194 -39.913676 
L 523.576423 -39.927155 
L 520.787652 -39.941094 
L 517.99888 -39.952384 
L 515.210109 -39.957716 
L 512.421337 -39.962043 
L 509.632566 -39.969523 
L 506.843795 -39.976353 
L 504.055023 -39.982807 
L 501.266252 -39.99615 
L 498.47748 -40.018171 
L 495.688709 -40.042017 
L 492.899938 -40.062683 
L 490.111166 -40.081095 
L 487.322395 -40.096504 
L 484.533623 -40.107138 
L 481.744852 -40.114951 
L 478.956081 -40.121962 
L 476.167309 -40.130408 
L 473.378538 -40.144645 
L 470.589766 -40.164224 
L 467.800995 -40.182316 
L 465.012224 -40.195175 
L 462.223452 -40.208688 
L 459.434681 -40.230391 
L 456.645909 -40.25445 
L 453.857138 -40.270047 
L 451.068367 -40.281913 
L 448.279595 -40.301354 
L 445.490824 -40.323656 
L 442.702053 -40.337359 
L 439.913281 -40.3472 
L 437.12451 -40.367599 
L 434.335738 -40.401829 
L 431.546967 -40.437893 
L 428.758196 -40.458508 
L 425.969424 -40.458483 
L 423.180653 -40.45264 
L 420.391881 -40.458939 
L 417.60311 -40.482989 
L 414.814339 -40.520275 
L 412.025567 -40.560791 
L 409.236796 -40.592794 
L 406.448024 -40.610933 
L 403.659253 -40.620863 
L 400.870482 -40.629904 
L 398.08171 -40.63793 
L 395.292939 -40.646242 
L 392.504167 -40.662266 
L 389.715396 -40.687445 
L 386.926625 -40.715061 
L 384.137853 -40.740305 
L 381.349082 -40.762882 
L 378.56031 -40.781291 
L 375.771539 -40.794631 
L 372.982768 -40.811229 
L 370.193996 -40.842165 
L 367.405225 -40.883739 
L 364.616454 -40.921202 
L 361.827682 -40.948005 
L 359.038911 -40.970044 
L 356.250139 -40.994657 
L 353.461368 -41.023707 
L 350.672597 -41.053285 
L 347.883825 -41.076418 
L 345.095054 -41.094581 
L 342.306282 -41.119466 
L 339.517511 -41.157451 
L 336.72874 -41.205007 
L 333.939968 -41.255199 
L 331.151197 -41.303128 
L 328.362425 -41.347597 
L 325.573654 -41.38836 
L 322.784883 -41.425175 
L 319.996111 -41.458708 
L 317.20734 -41.486149 
L 314.418568 -41.509099 
L 311.629797 -41.542148 
L 308.841026 -41.593921 
L 306.052254 -41.658135 
L 303.263483 -41.726207 
L 300.474711 -41.795704 
L 297.68594 -41.866743 
L 294.897169 -41.936218 
L 292.108397 -42.005747 
L 289.319626 -42.08253 
L 286.530854 -42.165865 
L 283.742083 -42.24832 
L 280.953312 -42.334118 
L 278.16454 -42.438853 
L 275.375769 -42.566454 
L 272.586998 -42.702393 
L 269.798226 -42.83433 
L 267.009455 -42.96366 
L 264.220683 -43.101705 
L 261.431912 -43.268795 
L 258.643141 -43.475667 
L 255.854369 -43.704051 
L 253.065598 -43.939134 
L 250.276826 -44.196212 
L 247.488055 -44.479007 
L 244.699284 -44.767752 
L 241.910512 -45.075786 
L 239.121741 -45.452733 
L 236.332969 -45.912053 
L 233.544198 -46.416631 
L 230.755427 -46.957545 
L 227.966655 -47.579379 
L 225.177884 -48.318114 
L 222.389112 -49.182055 
L 219.600341 -50.200405 
L 216.81157 -51.445725 
L 214.022798 -52.992258 
L 211.234027 -54.912945 
L 208.445255 -57.356259 
L 205.656484 -60.614259 
L 202.867713 -65.199124 
L 200.078941 -72.167738 
L 197.29017 -84.308309 
L 194.501398 -108.007357 
L 191.712627 -148.335596 
L 188.923856 -188.17171 
L 186.135084 -186.820747 
L 183.346313 -135.997709 
L 180.557542 -79.619076 
L 177.76877 -49.968715 
L 174.979999 -41.271313 
L 172.191227 -39.768129 
z
" style="stroke: #1e90ff"/>
    </defs>
    <g clip-path="url(#p4e48365929)">
     <use xlink:href="#mcbcbeb8160" x="0" y="360" style="fill: #1e90ff; fill-opacity: 0.25; stroke: #1e90ff"/>
    </g>
   </g>
   <g id="PolyCollection_3">
    <defs>
     <path id="m5f1f5689c8" d="M 172.160853 -39.769087 
L 172.160853 -39.6 
L 175.050314 -39.6 
L 177.939775 -39.6 
L 180.829236 -39.6 
L 183.718697 -39.6 
L 186.608159 -39.6 
L 189.49762 -39.6 
L 192.387081 -39.6 
L 195.276542 -39.6 
L 198.166004 -39.6 
L 201.055465 -39.6 
L 203.944926 -39.6 
L 206.834387 -39.6 
L 209.723848 -39.6 
L 212.61331 -39.6 
L 215.502771 -39.6 
L 218.392232 -39.6 
L 221.281693 -39.6 
L 224.171155 -39.6 
L 227.060616 -39.6 
L 229.950077 -39.6 
L 232.839538 -39.6 
L 235.729 -39.6 
L 238.618461 -39.6 
L 241.507922 -39.6 
L 244.397383 -39.6 
L 247.286844 -39.6 
L 250.176306 -39.6 
L 253.065767 -39.6 
L 255.955228 -39.6 
L 258.844689 -39.6 
L 261.734151 -39.6 
L 264.623612 -39.6 
L 267.513073 -39.6 
L 270.402534 -39.6 
L 273.291995 -39.6 
L 276.181457 -39.6 
L 279.070918 -39.6 
L 281.960379 -39.6 
L 284.84984 -39.6 
L 287.739302 -39.6 
L 290.628763 -39.6 
L 293.518224 -39.6 
L 296.407685 -39.6 
L 299.297146 -39.6 
L 302.186608 -39.6 
L 305.076069 -39.6 
L 307.96553 -39.6 
L 310.854991 -39.6 
L 313.744453 -39.6 
L 316.633914 -39.6 
L 319.523375 -39.6 
L 322.412836 -39.6 
L 325.302297 -39.6 
L 328.191759 -39.6 
L 331.08122 -39.6 
L 333.970681 -39.6 
L 336.860142 -39.6 
L 339.749604 -39.6 
L 342.639065 -39.6 
L 345.528526 -39.6 
L 348.417987 -39.6 
L 351.307449 -39.6 
L 354.19691 -39.6 
L 357.086371 -39.6 
L 359.975832 -39.6 
L 362.865293 -39.6 
L 365.754755 -39.6 
L 368.644216 -39.6 
L 371.533677 -39.6 
L 374.423138 -39.6 
L 377.3126 -39.6 
L 380.202061 -39.6 
L 383.091522 -39.6 
L 385.980983 -39.6 
L 388.870444 -39.6 
L 391.759906 -39.6 
L 394.649367 -39.6 
L 397.538828 -39.6 
L 400.428289 -39.6 
L 403.317751 -39.6 
L 406.207212 -39.6 
L 409.096673 -39.6 
L 411.986134 -39.6 
L 414.875595 -39.6 
L 417.765057 -39.6 
L 420.654518 -39.6 
L 423.543979 -39.6 
L 426.43344 -39.6 
L 429.322902 -39.6 
L 432.212363 -39.6 
L 435.101824 -39.6 
L 437.991285 -39.6 
L 440.880746 -39.6 
L 443.770208 -39.6 
L 446.659669 -39.6 
L 449.54913 -39.6 
L 452.438591 -39.6 
L 455.328053 -39.6 
L 458.217514 -39.6 
L 461.106975 -39.6 
L 463.996436 -39.6 
L 466.885898 -39.6 
L 469.775359 -39.6 
L 472.66482 -39.6 
L 475.554281 -39.6 
L 478.443742 -39.6 
L 481.333204 -39.6 
L 484.222665 -39.6 
L 487.112126 -39.6 
L 490.001587 -39.6 
L 492.891049 -39.6 
L 495.78051 -39.6 
L 498.669971 -39.6 
L 501.559432 -39.6 
L 504.448893 -39.6 
L 507.338355 -39.6 
L 510.227816 -39.6 
L 513.117277 -39.6 
L 516.006738 -39.6 
L 518.8962 -39.6 
L 521.785661 -39.6 
L 524.675122 -39.6 
L 527.564583 -39.6 
L 530.454044 -39.6 
L 533.343506 -39.6 
L 536.232967 -39.6 
L 539.122428 -39.6 
L 542.011889 -39.6 
L 544.901351 -39.6 
L 547.790812 -39.6 
L 550.680273 -39.6 
L 553.569734 -39.6 
L 556.459196 -39.6 
L 559.348657 -39.6 
L 562.238118 -39.6 
L 565.127579 -39.6 
L 568.01704 -39.6 
L 570.906502 -39.6 
L 573.795963 -39.6 
L 576.685424 -39.6 
L 579.574885 -39.6 
L 582.464347 -39.6 
L 585.353808 -39.6 
L 588.243269 -39.6 
L 591.13273 -39.6 
L 594.022191 -39.6 
L 596.911653 -39.6 
L 599.801114 -39.6 
L 602.690575 -39.6 
L 605.580036 -39.6 
L 608.469498 -39.6 
L 611.358959 -39.6 
L 614.24842 -39.6 
L 617.137881 -39.6 
L 620.027342 -39.6 
L 622.916804 -39.6 
L 625.806265 -39.6 
L 628.695726 -39.6 
L 631.585187 -39.6 
L 634.474649 -39.6 
L 637.36411 -39.6 
L 640.253571 -39.6 
L 643.143032 -39.6 
L 646.032493 -39.6 
L 648.921955 -39.6 
L 651.811416 -39.6 
L 654.700877 -39.6 
L 657.590338 -39.6 
L 660.4798 -39.6 
L 663.369261 -39.6 
L 666.258722 -39.6 
L 669.148183 -39.6 
L 672.037645 -39.6 
L 674.927106 -39.6 
L 677.816567 -39.6 
L 680.706028 -39.6 
L 683.595489 -39.6 
L 686.484951 -39.6 
L 689.374412 -39.6 
L 692.263873 -39.6 
L 695.153334 -39.6 
L 698.042796 -39.6 
L 700.932257 -39.6 
L 703.821718 -39.6 
L 706.711179 -39.6 
L 709.60064 -39.6 
L 712.490102 -39.6 
L 715.379563 -39.6 
L 718.269024 -39.6 
L 721.158485 -39.6 
L 724.047947 -39.6 
L 726.937408 -39.6 
L 729.826869 -39.6 
L 732.71633 -39.6 
L 735.605791 -39.6 
L 738.495253 -39.6 
L 741.384714 -39.6 
L 744.274175 -39.6 
L 747.163636 -39.6 
L 747.163636 -39.600003 
L 747.163636 -39.600003 
L 744.274175 -39.60002 
L 741.384714 -39.600085 
L 738.495253 -39.600218 
L 735.605791 -39.600378 
L 732.71633 -39.600554 
L 729.826869 -39.600829 
L 726.937408 -39.601253 
L 724.047947 -39.601759 
L 721.158485 -39.60215 
L 718.269024 -39.602157 
L 715.379563 -39.601723 
L 712.490102 -39.60131 
L 709.60064 -39.601553 
L 706.711179 -39.602596 
L 703.821718 -39.604291 
L 700.932257 -39.606385 
L 698.042796 -39.60829 
L 695.153334 -39.609561 
L 692.263873 -39.610372 
L 689.374412 -39.611101 
L 686.484951 -39.611874 
L 683.595489 -39.612833 
L 680.706028 -39.613928 
L 677.816567 -39.61513 
L 674.927106 -39.617032 
L 672.037645 -39.619637 
L 669.148183 -39.62227 
L 666.258722 -39.624633 
L 663.369261 -39.626353 
L 660.4798 -39.627523 
L 657.590338 -39.629266 
L 654.700877 -39.631658 
L 651.811416 -39.633427 
L 648.921955 -39.634255 
L 646.032493 -39.635057 
L 643.143032 -39.636351 
L 640.253571 -39.638298 
L 637.36411 -39.641337 
L 634.474649 -39.645778 
L 631.585187 -39.650627 
L 628.695726 -39.654255 
L 625.806265 -39.656639 
L 622.916804 -39.658625 
L 620.027342 -39.660592 
L 617.137881 -39.663333 
L 614.24842 -39.66776 
L 611.358959 -39.673925 
L 608.469498 -39.680922 
L 605.580036 -39.686755 
L 602.690575 -39.690996 
L 599.801114 -39.695821 
L 596.911653 -39.702013 
L 594.022191 -39.707766 
L 591.13273 -39.712158 
L 588.243269 -39.717069 
L 585.353808 -39.724017 
L 582.464347 -39.731748 
L 579.574885 -39.738676 
L 576.685424 -39.744513 
L 573.795963 -39.750349 
L 570.906502 -39.758454 
L 568.01704 -39.77048 
L 565.127579 -39.786537 
L 562.238118 -39.803063 
L 559.348657 -39.815131 
L 556.459196 -39.823462 
L 553.569734 -39.831861 
L 550.680273 -39.839297 
L 547.790812 -39.843696 
L 544.901351 -39.846975 
L 542.011889 -39.850612 
L 539.122428 -39.855881 
L 536.232967 -39.86418 
L 533.343506 -39.872803 
L 530.454044 -39.880891 
L 527.564583 -39.893143 
L 524.675122 -39.911431 
L 521.785661 -39.931344 
L 518.8962 -39.949405 
L 516.006738 -39.966329 
L 513.117277 -39.981436 
L 510.227816 -39.993769 
L 507.338355 -40.006315 
L 504.448893 -40.020964 
L 501.559432 -40.036668 
L 498.669971 -40.053222 
L 495.78051 -40.068658 
L 492.891049 -40.078756 
L 490.001587 -40.082341 
L 487.112126 -40.083763 
L 484.222665 -40.089675 
L 481.333204 -40.103665 
L 478.443742 -40.123931 
L 475.554281 -40.145581 
L 472.66482 -40.16562 
L 469.775359 -40.183768 
L 466.885898 -40.201958 
L 463.996436 -40.220592 
L 461.106975 -40.233821 
L 458.217514 -40.24044 
L 455.328053 -40.248714 
L 452.438591 -40.264125 
L 449.54913 -40.285961 
L 446.659669 -40.310522 
L 443.770208 -40.33521 
L 440.880746 -40.359871 
L 437.991285 -40.383416 
L 435.101824 -40.402166 
L 432.212363 -40.414716 
L 429.322902 -40.42434 
L 426.43344 -40.437593 
L 423.543979 -40.458262 
L 420.654518 -40.478987 
L 417.765057 -40.492287 
L 414.875595 -40.502893 
L 411.986134 -40.516865 
L 409.096673 -40.535551 
L 406.207212 -40.562318 
L 403.317751 -40.595711 
L 400.428289 -40.625265 
L 397.538828 -40.643437 
L 394.649367 -40.651086 
L 391.759906 -40.659744 
L 388.870444 -40.683028 
L 385.980983 -40.719784 
L 383.091522 -40.757984 
L 380.202061 -40.785351 
L 377.3126 -40.800884 
L 374.423138 -40.819109 
L 371.533677 -40.850103 
L 368.644216 -40.886827 
L 365.754755 -40.92087 
L 362.865293 -40.949458 
L 359.975832 -40.969025 
L 357.086371 -40.982011 
L 354.19691 -41.000731 
L 351.307449 -41.026906 
L 348.417987 -41.053176 
L 345.528526 -41.083883 
L 342.639065 -41.123753 
L 339.749604 -41.164145 
L 336.860142 -41.195687 
L 333.970681 -41.220903 
L 331.08122 -41.250218 
L 328.191759 -41.292246 
L 325.302297 -41.345052 
L 322.412836 -41.39839 
L 319.523375 -41.446577 
L 316.633914 -41.492031 
L 313.744453 -41.537618 
L 310.854991 -41.587756 
L 307.96553 -41.648614 
L 305.076069 -41.715316 
L 302.186608 -41.777342 
L 299.297146 -41.836403 
L 296.407685 -41.901385 
L 293.518224 -41.970371 
L 290.628763 -42.040212 
L 287.739302 -42.122893 
L 284.84984 -42.223038 
L 281.960379 -42.328588 
L 279.070918 -42.433784 
L 276.181457 -42.544038 
L 273.291995 -42.666692 
L 270.402534 -42.803017 
L 267.513073 -42.948909 
L 264.623612 -43.111193 
L 261.734151 -43.299093 
L 258.844689 -43.496488 
L 255.955228 -43.685854 
L 253.065767 -43.890981 
L 250.176306 -44.15254 
L 247.286844 -44.471811 
L 244.397383 -44.814798 
L 241.507922 -45.1682 
L 238.618461 -45.554037 
L 235.729 -45.998049 
L 232.839538 -46.50797 
L 229.950077 -47.08844 
L 227.060616 -47.771611 
L 224.171155 -48.579137 
L 221.281693 -49.507839 
L 218.392232 -50.624421 
L 215.502771 -52.041384 
L 212.61331 -53.835448 
L 209.723848 -56.12545 
L 206.834387 -59.133927 
L 203.944926 -63.241514 
L 201.055465 -69.295695 
L 198.166004 -79.531506 
L 195.276542 -99.6934 
L 192.387081 -137.339661 
L 189.49762 -181.948622 
L 186.608159 -191.145989 
L 183.718697 -144.474059 
L 180.829236 -84.380561 
L 177.939775 -51.166498 
L 175.050314 -41.399213 
L 172.160853 -39.769087 
z
" style="stroke: #9400d3"/>
    </defs>
    <g clip-path="url(#p4e48365929)">
     <use xlink:href="#m5f1f5689c8" x="0" y="360" style="fill: #9400d3; fill-opacity: 0.25; stroke: #9400d3"/>
    </g>
   </g>
   <g id="PolyCollection_4">
    <defs>
     <path id="m04106ec592" d="M 138.436364 -39.600797 
L 138.436364 -39.6 
L 141.034896 -39.6 
L 143.633428 -39.6 
L 146.23196 -39.6 
L 148.830492 -39.6 
L 151.429024 -39.6 
L 154.027555 -39.6 
L 156.626087 -39.6 
L 159.224619 -39.6 
L 161.823151 -39.6 
L 164.421683 -39.6 
L 167.020215 -39.6 
L 169.618747 -39.6 
L 172.217279 -39.6 
L 174.815811 -39.6 
L 177.414343 -39.6 
L 180.012875 -39.6 
L 182.611407 -39.6 
L 185.209939 -39.6 
L 187.808471 -39.6 
L 190.407003 -39.6 
L 193.005535 -39.6 
L 195.604067 -39.6 
L 198.202599 -39.6 
L 200.801131 -39.6 
L 203.399663 -39.6 
L 205.998195 -39.6 
L 208.596727 -39.6 
L 211.195259 -39.6 
L 213.793791 -39.6 
L 216.392323 -39.6 
L 218.990855 -39.6 
L 221.589387 -39.6 
L 224.187919 -39.6 
L 226.786451 -39.6 
L 229.384983 -39.6 
L 231.983515 -39.6 
L 234.582047 -39.6 
L 237.180579 -39.6 
L 239.779111 -39.6 
L 242.377643 -39.6 
L 244.976175 -39.6 
L 247.574707 -39.6 
L 250.173238 -39.6 
L 252.77177 -39.6 
L 255.370302 -39.6 
L 257.968834 -39.6 
L 260.567366 -39.6 
L 263.165898 -39.6 
L 265.76443 -39.6 
L 268.362962 -39.6 
L 270.961494 -39.6 
L 273.560026 -39.6 
L 276.158558 -39.6 
L 278.75709 -39.6 
L 281.355622 -39.6 
L 283.954154 -39.6 
L 286.552686 -39.6 
L 289.151218 -39.6 
L 291.74975 -39.6 
L 294.348282 -39.6 
L 296.946814 -39.6 
L 299.545346 -39.6 
L 302.143878 -39.6 
L 304.74241 -39.6 
L 307.340942 -39.6 
L 309.939474 -39.6 
L 312.538006 -39.6 
L 315.136538 -39.6 
L 317.73507 -39.6 
L 320.333602 -39.6 
L 322.932134 -39.6 
L 325.530666 -39.6 
L 328.129198 -39.6 
L 330.72773 -39.6 
L 333.326262 -39.6 
L 335.924794 -39.6 
L 338.523326 -39.6 
L 341.121858 -39.6 
L 343.72039 -39.6 
L 346.318921 -39.6 
L 348.917453 -39.6 
L 351.515985 -39.6 
L 354.114517 -39.6 
L 356.713049 -39.6 
L 359.311581 -39.6 
L 361.910113 -39.6 
L 364.508645 -39.6 
L 367.107177 -39.6 
L 369.705709 -39.6 
L 372.304241 -39.6 
L 374.902773 -39.6 
L 377.501305 -39.6 
L 380.099837 -39.6 
L 382.698369 -39.6 
L 385.296901 -39.6 
L 387.895433 -39.6 
L 390.493965 -39.6 
L 393.092497 -39.6 
L 395.691029 -39.6 
L 398.289561 -39.6 
L 400.888093 -39.6 
L 403.486625 -39.6 
L 406.085157 -39.6 
L 408.683689 -39.6 
L 411.282221 -39.6 
L 413.880753 -39.6 
L 416.479285 -39.6 
L 419.077817 -39.6 
L 421.676349 -39.6 
L 424.274881 -39.6 
L 426.873413 -39.6 
L 429.471945 -39.6 
L 432.070477 -39.6 
L 434.669009 -39.6 
L 437.267541 -39.6 
L 439.866073 -39.6 
L 442.464604 -39.6 
L 445.063136 -39.6 
L 447.661668 -39.6 
L 450.2602 -39.6 
L 452.858732 -39.6 
L 455.457264 -39.6 
L 458.055796 -39.6 
L 460.654328 -39.6 
L 463.25286 -39.6 
L 465.851392 -39.6 
L 468.449924 -39.6 
L 471.048456 -39.6 
L 473.646988 -39.6 
L 476.24552 -39.6 
L 478.844052 -39.6 
L 481.442584 -39.6 
L 484.041116 -39.6 
L 486.639648 -39.6 
L 489.23818 -39.6 
L 491.836712 -39.6 
L 494.435244 -39.6 
L 497.033776 -39.6 
L 499.632308 -39.6 
L 502.23084 -39.6 
L 504.829372 -39.6 
L 507.427904 -39.6 
L 510.026436 -39.6 
L 512.624968 -39.6 
L 515.2235 -39.6 
L 517.822032 -39.6 
L 520.420564 -39.6 
L 523.019096 -39.6 
L 525.617628 -39.6 
L 528.21616 -39.6 
L 530.814692 -39.6 
L 533.413224 -39.6 
L 536.011756 -39.6 
L 538.610287 -39.6 
L 541.208819 -39.6 
L 543.807351 -39.6 
L 546.405883 -39.6 
L 549.004415 -39.6 
L 551.602947 -39.6 
L 554.201479 -39.6 
L 556.800011 -39.6 
L 559.398543 -39.6 
L 561.997075 -39.6 
L 564.595607 -39.6 
L 567.194139 -39.6 
L 569.792671 -39.6 
L 572.391203 -39.6 
L 574.989735 -39.6 
L 577.588267 -39.6 
L 580.186799 -39.6 
L 582.785331 -39.6 
L 585.383863 -39.6 
L 587.982395 -39.6 
L 590.580927 -39.6 
L 593.179459 -39.6 
L 595.777991 -39.6 
L 598.376523 -39.6 
L 600.975055 -39.6 
L 603.573587 -39.6 
L 606.172119 -39.6 
L 608.770651 -39.6 
L 611.369183 -39.6 
L 613.967715 -39.6 
L 616.566247 -39.6 
L 619.164779 -39.6 
L 621.763311 -39.6 
L 624.361843 -39.6 
L 626.960375 -39.6 
L 629.558907 -39.6 
L 632.157439 -39.6 
L 634.75597 -39.6 
L 637.354502 -39.6 
L 639.953034 -39.6 
L 642.551566 -39.6 
L 645.150098 -39.6 
L 647.74863 -39.6 
L 650.347162 -39.6 
L 652.945694 -39.6 
L 655.544226 -39.6 
L 655.544226 -39.603008 
L 655.544226 -39.603008 
L 652.945694 -39.605005 
L 650.347162 -39.608128 
L 647.74863 -39.612887 
L 645.150098 -39.619952 
L 642.551566 -39.630174 
L 639.953034 -39.644591 
L 637.354502 -39.66441 
L 634.75597 -39.690976 
L 632.157439 -39.725702 
L 629.558907 -39.769979 
L 626.960375 -39.825052 
L 624.361843 -39.891888 
L 621.763311 -39.97104 
L 619.164779 -40.062518 
L 616.566247 -40.1657 
L 613.967715 -40.279289 
L 611.369183 -40.401333 
L 608.770651 -40.529319 
L 606.172119 -40.660356 
L 603.573587 -40.791416 
L 600.975055 -40.919644 
L 598.376523 -41.042692 
L 595.777991 -41.15905 
L 593.179459 -41.268333 
L 590.580927 -41.371465 
L 587.982395 -41.470735 
L 585.383863 -41.5697 
L 582.785331 -41.672914 
L 580.186799 -41.785524 
L 577.588267 -41.912766 
L 574.989735 -42.059429 
L 572.391203 -42.229361 
L 569.792671 -42.425093 
L 567.194139 -42.647615 
L 564.595607 -42.896347 
L 561.997075 -43.169287 
L 559.398543 -43.463302 
L 556.800011 -43.774496 
L 554.201479 -44.098607 
L 551.602947 -44.431345 
L 549.004415 -44.768648 
L 546.405883 -45.10682 
L 543.807351 -45.442569 
L 541.208819 -45.772968 
L 538.610287 -46.095385 
L 536.011756 -46.407424 
L 533.413224 -46.706918 
L 530.814692 -46.991986 
L 528.21616 -47.261157 
L 525.617628 -47.513529 
L 523.019096 -47.748922 
L 520.420564 -47.968001 
L 517.822032 -48.17232 
L 515.2235 -48.364279 
L 512.624968 -48.547014 
L 510.026436 -48.724211 
L 507.427904 -48.899908 
L 504.829372 -49.078279 
L 502.23084 -49.263438 
L 499.632308 -49.459245 
L 497.033776 -49.669109 
L 494.435244 -49.895769 
L 491.836712 -50.141064 
L 489.23818 -50.405686 
L 486.639648 -50.688985 
L 484.041116 -50.988861 
L 481.442584 -51.301816 
L 478.844052 -51.6232 
L 476.24552 -51.947662 
L 473.646988 -52.26975 
L 471.048456 -52.584588 
L 468.449924 -52.888495 
L 465.851392 -53.179427 
L 463.25286 -53.457153 
L 460.654328 -53.723091 
L 458.055796 -53.979841 
L 455.457264 -54.230482 
L 452.858732 -54.477758 
L 450.2602 -54.723322 
L 447.661668 -54.967166 
L 445.063136 -55.207366 
L 442.464604 -55.440191 
L 439.866073 -55.66055 
L 437.267541 -55.862715 
L 434.669009 -56.04117 
L 432.070477 -56.191431 
L 429.471945 -56.3107 
L 426.873413 -56.39822 
L 424.274881 -56.455274 
L 421.676349 -56.484852 
L 419.077817 -56.491039 
L 416.479285 -56.478259 
L 413.880753 -56.450512 
L 411.282221 -56.41073 
L 408.683689 -56.360359 
L 406.085157 -56.299204 
L 403.486625 -56.225533 
L 400.888093 -56.136395 
L 398.289561 -56.028055 
L 395.691029 -55.896477 
L 393.092497 -55.737774 
L 390.493965 -55.548567 
L 387.895433 -55.326228 
L 385.296901 -55.068995 
L 382.698369 -54.775973 
L 380.099837 -54.447037 
L 377.501305 -54.082651 
L 374.902773 -53.683663 
L 372.304241 -53.25109 
L 369.705709 -52.785945 
L 367.107177 -52.289156 
L 364.508645 -51.761585 
L 361.910113 -51.204186 
L 359.311581 -50.618252 
L 356.713049 -50.005726 
L 354.114517 -49.369515 
L 351.515985 -48.713716 
L 348.917453 -48.043728 
L 346.318921 -47.366175 
L 343.72039 -46.688677 
L 341.121858 -46.019464 
L 338.523326 -45.366904 
L 335.924794 -44.739011 
L 333.326262 -44.142977 
L 330.72773 -43.584806 
L 328.129198 -43.069059 
L 325.530666 -42.598737 
L 322.932134 -42.175287 
L 320.333602 -41.798711 
L 317.73507 -41.467765 
L 315.136538 -41.180199 
L 312.538006 -40.933021 
L 309.939474 -40.722768 
L 307.340942 -40.545736 
L 304.74241 -40.398188 
L 302.143878 -40.276498 
L 299.545346 -40.177255 
L 296.946814 -40.097304 
L 294.348282 -40.033761 
L 291.74975 -39.98399 
L 289.151218 -39.945569 
L 286.552686 -39.916264 
L 283.954154 -39.894003 
L 281.355622 -39.876884 
L 278.75709 -39.863192 
L 276.158558 -39.851439 
L 273.560026 -39.840411 
L 270.961494 -39.829213 
L 268.362962 -39.817289 
L 265.76443 -39.804429 
L 263.165898 -39.790737 
L 260.567366 -39.776561 
L 257.968834 -39.762412 
L 255.370302 -39.748854 
L 252.77177 -39.736402 
L 250.173238 -39.725437 
L 247.574707 -39.716148 
L 244.976175 -39.708509 
L 242.377643 -39.702301 
L 239.779111 -39.697159 
L 237.180579 -39.69265 
L 234.582047 -39.688347 
L 231.983515 -39.683908 
L 229.384983 -39.679129 
L 226.786451 -39.673974 
L 224.187919 -39.668573 
L 221.589387 -39.663195 
L 218.990855 -39.6582 
L 216.392323 -39.653979 
L 213.793791 -39.650887 
L 211.195259 -39.649194 
L 208.596727 -39.649033 
L 205.998195 -39.650381 
L 203.399663 -39.653048 
L 200.801131 -39.656698 
L 198.202599 -39.660876 
L 195.604067 -39.665063 
L 193.005535 -39.668728 
L 190.407003 -39.671388 
L 187.808471 -39.672663 
L 185.209939 -39.672312 
L 182.611407 -39.670254 
L 180.012875 -39.666574 
L 177.414343 -39.661498 
L 174.815811 -39.655357 
L 172.217279 -39.648545 
L 169.618747 -39.641468 
L 167.020215 -39.634503 
L 164.421683 -39.627959 
L 161.823151 -39.622066 
L 159.224619 -39.61696 
L 156.626087 -39.612696 
L 154.027555 -39.609255 
L 151.429024 -39.606571 
L 148.830492 -39.604543 
L 146.23196 -39.603059 
L 143.633428 -39.602006 
L 141.034896 -39.601281 
L 138.436364 -39.600797 
z
" style="stroke: #0000ff"/>
    </defs>
    <g clip-path="url(#p4e48365929)">
     <use xlink:href="#m04106ec592" x="0" y="360" style="fill: #0000ff; fill-opacity: 0.25; stroke: #0000ff"/>
    </g>
   </g>
   <g id="matplotlib.axis_1">
    <g id="xtick_1">
     <g id="line2d_1">
      <defs>
       <path id="m8143ae8950" d="M 0 0 
L 0 3.5 
" style="stroke: #000000; stroke-width: 0.8"/>
      </defs>
      <g>
       <use xlink:href="#m8143ae8950" x="186.629344" y="320.4" style="stroke: #000000; stroke-width: 0.8"/>
      </g>
     </g>
     <g id="text_1">
      <!-- 0.0 -->
      <g transform="translate(178.677782 334.998438) scale(0.1 -0.1)">
       <defs>
        <path id="DejaVuSans-30" d="M 2034 4250 
Q 1547 4250 1301 3770 
Q 1056 3291 1056 2328 
Q 1056 1369 1301 889 
Q 1547 409 2034 409 
Q 2525 409 2770 889 
Q 3016 1369 3016 2328 
Q 3016 3291 2770 3770 
Q 2525 4250 2034 4250 
z
M 2034 4750 
Q 2819 4750 3233 4129 
Q 3647 3509 3647 2328 
Q 3647 1150 3233 529 
Q 2819 -91 2034 -91 
Q 1250 -91 836 529 
Q 422 1150 422 2328 
Q 422 3509 836 4129 
Q 1250 4750 2034 4750 
z
" transform="scale(0.015625)"/>
        <path id="DejaVuSans-2e" d="M 684 794 
L 1344 794 
L 1344 0 
L 684 0 
L 684 794 
z
" transform="scale(0.015625)"/>
       </defs>
       <use xlink:href="#DejaVuSans-30"/>
       <use xlink:href="#DejaVuSans-2e" x="63.623047"/>
       <use xlink:href="#DejaVuSans-30" x="95.410156"/>
      </g>
     </g>
    </g>
    <g id="xtick_2">
     <g id="line2d_2">
      <g>
       <use xlink:href="#m8143ae8950" x="297.519792" y="320.4" style="stroke: #000000; stroke-width: 0.8"/>
      </g>
     </g>
     <g id="text_2">
      <!-- 0.2 -->
      <g transform="translate(289.568229 334.998438) scale(0.1 -0.1)">
       <defs>
        <path id="DejaVuSans-32" d="M 1228 531 
L 3431 531 
L 3431 0 
L 469 0 
L 469 531 
Q 828 903 1448 1529 
Q 2069 2156 2228 2338 
Q 2531 2678 2651 2914 
Q 2772 3150 2772 3378 
Q 2772 3750 2511 3984 
Q 2250 4219 1831 4219 
Q 1534 4219 1204 4116 
Q 875 4013 500 3803 
L 500 4441 
Q 881 4594 1212 4672 
Q 1544 4750 1819 4750 
Q 2544 4750 2975 4387 
Q 3406 4025 3406 3419 
Q 3406 3131 3298 2873 
Q 3191 2616 2906 2266 
Q 2828 2175 2409 1742 
Q 1991 1309 1228 531 
z
" transform="scale(0.015625)"/>
       </defs>
       <use xlink:href="#DejaVuSans-30"/>
       <use xlink:href="#DejaVuSans-2e" x="63.623047"/>
       <use xlink:href="#DejaVuSans-32" x="95.410156"/>
      </g>
     </g>
    </g>
    <g id="xtick_3">
     <g id="line2d_3">
      <g>
       <use xlink:href="#m8143ae8950" x="408.410239" y="320.4" style="stroke: #000000; stroke-width: 0.8"/>
      </g>
     </g>
     <g id="text_3">
      <!-- 0.4 -->
      <g transform="translate(400.458677 334.998438) scale(0.1 -0.1)">
       <defs>
        <path id="DejaVuSans-34" d="M 2419 4116 
L 825 1625 
L 2419 1625 
L 2419 4116 
z
M 2253 4666 
L 3047 4666 
L 3047 1625 
L 3713 1625 
L 3713 1100 
L 3047 1100 
L 3047 0 
L 2419 0 
L 2419 1100 
L 313 1100 
L 313 1709 
L 2253 4666 
z
" transform="scale(0.015625)"/>
       </defs>
       <use xlink:href="#DejaVuSans-30"/>
       <use xlink:href="#DejaVuSans-2e" x="63.623047"/>
       <use xlink:href="#DejaVuSans-34" x="95.410156"/>
      </g>
     </g>
    </g>
    <g id="xtick_4">
     <g id="line2d_4">
      <g>
       <use xlink:href="#m8143ae8950" x="519.300687" y="320.4" style="stroke: #000000; stroke-width: 0.8"/>
      </g>
     </g>
     <g id="text_4">
      <!-- 0.6 -->
      <g transform="translate(511.349124 334.998438) scale(0.1 -0.1)">
       <defs>
        <path id="DejaVuSans-36" d="M 2113 2584 
Q 1688 2584 1439 2293 
Q 1191 2003 1191 1497 
Q 1191 994 1439 701 
Q 1688 409 2113 409 
Q 2538 409 2786 701 
Q 3034 994 3034 1497 
Q 3034 2003 2786 2293 
Q 2538 2584 2113 2584 
z
M 3366 4563 
L 3366 3988 
Q 3128 4100 2886 4159 
Q 2644 4219 2406 4219 
Q 1781 4219 1451 3797 
Q 1122 3375 1075 2522 
Q 1259 2794 1537 2939 
Q 1816 3084 2150 3084 
Q 2853 3084 3261 2657 
Q 3669 2231 3669 1497 
Q 3669 778 3244 343 
Q 2819 -91 2113 -91 
Q 1303 -91 875 529 
Q 447 1150 447 2328 
Q 447 3434 972 4092 
Q 1497 4750 2381 4750 
Q 2619 4750 2861 4703 
Q 3103 4656 3366 4563 
z
" transform="scale(0.015625)"/>
       </defs>
       <use xlink:href="#DejaVuSans-30"/>
       <use xlink:href="#DejaVuSans-2e" x="63.623047"/>
       <use xlink:href="#DejaVuSans-36" x="95.410156"/>
      </g>
     </g>
    </g>
    <g id="xtick_5">
     <g id="line2d_5">
      <g>
       <use xlink:href="#m8143ae8950" x="630.191134" y="320.4" style="stroke: #000000; stroke-width: 0.8"/>
      </g>
     </g>
     <g id="text_5">
      <!-- 0.8 -->
      <g transform="translate(622.239572 334.998438) scale(0.1 -0.1)">
       <defs>
        <path id="DejaVuSans-38" d="M 2034 2216 
Q 1584 2216 1326 1975 
Q 1069 1734 1069 1313 
Q 1069 891 1326 650 
Q 1584 409 2034 409 
Q 2484 409 2743 651 
Q 3003 894 3003 1313 
Q 3003 1734 2745 1975 
Q 2488 2216 2034 2216 
z
M 1403 2484 
Q 997 2584 770 2862 
Q 544 3141 544 3541 
Q 544 4100 942 4425 
Q 1341 4750 2034 4750 
Q 2731 4750 3128 4425 
Q 3525 4100 3525 3541 
Q 3525 3141 3298 2862 
Q 3072 2584 2669 2484 
Q 3125 2378 3379 2068 
Q 3634 1759 3634 1313 
Q 3634 634 3220 271 
Q 2806 -91 2034 -91 
Q 1263 -91 848 271 
Q 434 634 434 1313 
Q 434 1759 690 2068 
Q 947 2378 1403 2484 
z
M 1172 3481 
Q 1172 3119 1398 2916 
Q 1625 2713 2034 2713 
Q 2441 2713 2670 2916 
Q 2900 3119 2900 3481 
Q 2900 3844 2670 4047 
Q 2441 4250 2034 4250 
Q 1625 4250 1398 4047 
Q 1172 3844 1172 3481 
z
" transform="scale(0.015625)"/>
       </defs>
       <use xlink:href="#DejaVuSans-30"/>
       <use xlink:href="#DejaVuSans-2e" x="63.623047"/>
       <use xlink:href="#DejaVuSans-38" x="95.410156"/>
      </g>
     </g>
    </g>
    <g id="xtick_6">
     <g id="line2d_6">
      <g>
       <use xlink:href="#m8143ae8950" x="741.081581" y="320.4" style="stroke: #000000; stroke-width: 0.8"/>
      </g>
     </g>
     <g id="text_6">
      <!-- 1.0 -->
      <g transform="translate(733.130019 334.998438) scale(0.1 -0.1)">
       <defs>
        <path id="DejaVuSans-31" d="M 794 531 
L 1825 531 
L 1825 4091 
L 703 3866 
L 703 4441 
L 1819 4666 
L 2450 4666 
L 2450 531 
L 3481 531 
L 3481 0 
L 794 0 
L 794 531 
z
" transform="scale(0.015625)"/>
       </defs>
       <use xlink:href="#DejaVuSans-31"/>
       <use xlink:href="#DejaVuSans-2e" x="63.623047"/>
       <use xlink:href="#DejaVuSans-30" x="95.410156"/>
      </g>
     </g>
    </g>
    <g id="text_7">
     <!-- fst -->
     <g transform="translate(436.475 348.676562) scale(0.1 -0.1)">
      <defs>
       <path id="DejaVuSans-66" d="M 2375 4863 
L 2375 4384 
L 1825 4384 
Q 1516 4384 1395 4259 
Q 1275 4134 1275 3809 
L 1275 3500 
L 2222 3500 
L 2222 3053 
L 1275 3053 
L 1275 0 
L 697 0 
L 697 3053 
L 147 3053 
L 147 3500 
L 697 3500 
L 697 3744 
Q 697 4328 969 4595 
Q 1241 4863 1831 4863 
L 2375 4863 
z
" transform="scale(0.015625)"/>
       <path id="DejaVuSans-73" d="M 2834 3397 
L 2834 2853 
Q 2591 2978 2328 3040 
Q 2066 3103 1784 3103 
Q 1356 3103 1142 2972 
Q 928 2841 928 2578 
Q 928 2378 1081 2264 
Q 1234 2150 1697 2047 
L 1894 2003 
Q 2506 1872 2764 1633 
Q 3022 1394 3022 966 
Q 3022 478 2636 193 
Q 2250 -91 1575 -91 
Q 1294 -91 989 -36 
Q 684 19 347 128 
L 347 722 
Q 666 556 975 473 
Q 1284 391 1588 391 
Q 1994 391 2212 530 
Q 2431 669 2431 922 
Q 2431 1156 2273 1281 
Q 2116 1406 1581 1522 
L 1381 1569 
Q 847 1681 609 1914 
Q 372 2147 372 2553 
Q 372 3047 722 3315 
Q 1072 3584 1716 3584 
Q 2034 3584 2315 3537 
Q 2597 3491 2834 3397 
z
" transform="scale(0.015625)"/>
       <path id="DejaVuSans-74" d="M 1172 4494 
L 1172 3500 
L 2356 3500 
L 2356 3053 
L 1172 3053 
L 1172 1153 
Q 1172 725 1289 603 
Q 1406 481 1766 481 
L 2356 481 
L 2356 0 
L 1766 0 
Q 1100 0 847 248 
Q 594 497 594 1153 
L 594 3053 
L 172 3053 
L 172 3500 
L 594 3500 
L 594 4494 
L 1172 4494 
z
" transform="scale(0.015625)"/>
      </defs>
      <use xlink:href="#DejaVuSans-66"/>
      <use xlink:href="#DejaVuSans-73" x="35.205078"/>
      <use xlink:href="#DejaVuSans-74" x="87.304688"/>
     </g>
    </g>
   </g>
   <g id="matplotlib.axis_2">
    <g id="ytick_1">
     <g id="line2d_7">
      <defs>
       <path id="m391d21f90f" d="M 0 0 
L -3.5 0 
" style="stroke: #000000; stroke-width: 0.8"/>
      </defs>
      <g>
       <use xlink:href="#m391d21f90f" x="108" y="320.4" style="stroke: #000000; stroke-width: 0.8"/>
      </g>
     </g>
     <g id="text_8">
      <!-- 0 -->
      <g transform="translate(94.6375 324.199219) scale(0.1 -0.1)">
       <use xlink:href="#DejaVuSans-30"/>
      </g>
     </g>
    </g>
    <g id="ytick_2">
     <g id="line2d_8">
      <g>
       <use xlink:href="#m391d21f90f" x="108" y="268.624455" style="stroke: #000000; stroke-width: 0.8"/>
      </g>
     </g>
     <g id="text_9">
      <!-- 10 -->
      <g transform="translate(88.275 272.423674) scale(0.1 -0.1)">
       <use xlink:href="#DejaVuSans-31"/>
       <use xlink:href="#DejaVuSans-30" x="63.623047"/>
      </g>
     </g>
    </g>
    <g id="ytick_3">
     <g id="line2d_9">
      <g>
       <use xlink:href="#m391d21f90f" x="108" y="216.84891" style="stroke: #000000; stroke-width: 0.8"/>
      </g>
     </g>
     <g id="text_10">
      <!-- 20 -->
      <g transform="translate(88.275 220.648129) scale(0.1 -0.1)">
       <use xlink:href="#DejaVuSans-32"/>
       <use xlink:href="#DejaVuSans-30" x="63.623047"/>
      </g>
     </g>
    </g>
    <g id="ytick_4">
     <g id="line2d_10">
      <g>
       <use xlink:href="#m391d21f90f" x="108" y="165.073365" style="stroke: #000000; stroke-width: 0.8"/>
      </g>
     </g>
     <g id="text_11">
      <!-- 30 -->
      <g transform="translate(88.275 168.872584) scale(0.1 -0.1)">
       <defs>
        <path id="DejaVuSans-33" d="M 2597 2516 
Q 3050 2419 3304 2112 
Q 3559 1806 3559 1356 
Q 3559 666 3084 287 
Q 2609 -91 1734 -91 
Q 1441 -91 1130 -33 
Q 819 25 488 141 
L 488 750 
Q 750 597 1062 519 
Q 1375 441 1716 441 
Q 2309 441 2620 675 
Q 2931 909 2931 1356 
Q 2931 1769 2642 2001 
Q 2353 2234 1838 2234 
L 1294 2234 
L 1294 2753 
L 1863 2753 
Q 2328 2753 2575 2939 
Q 2822 3125 2822 3475 
Q 2822 3834 2567 4026 
Q 2313 4219 1838 4219 
Q 1578 4219 1281 4162 
Q 984 4106 628 3988 
L 628 4550 
Q 988 4650 1302 4700 
Q 1616 4750 1894 4750 
Q 2613 4750 3031 4423 
Q 3450 4097 3450 3541 
Q 3450 3153 3228 2886 
Q 3006 2619 2597 2516 
z
" transform="scale(0.015625)"/>
       </defs>
       <use xlink:href="#DejaVuSans-33"/>
       <use xlink:href="#DejaVuSans-30" x="63.623047"/>
      </g>
     </g>
    </g>
    <g id="ytick_5">
     <g id="line2d_11">
      <g>
       <use xlink:href="#m391d21f90f" x="108" y="113.29782" style="stroke: #000000; stroke-width: 0.8"/>
      </g>
     </g>
     <g id="text_12">
      <!-- 40 -->
      <g transform="translate(88.275 117.097039) scale(0.1 -0.1)">
       <use xlink:href="#DejaVuSans-34"/>
       <use xlink:href="#DejaVuSans-30" x="63.623047"/>
      </g>
     </g>
    </g>
    <g id="ytick_6">
     <g id="line2d_12">
      <g>
       <use xlink:href="#m391d21f90f" x="108" y="61.522275" style="stroke: #000000; stroke-width: 0.8"/>
      </g>
     </g>
     <g id="text_13">
      <!-- 50 -->
      <g transform="translate(88.275 65.321494) scale(0.1 -0.1)">
       <defs>
        <path id="DejaVuSans-35" d="M 691 4666 
L 3169 4666 
L 3169 4134 
L 1269 4134 
L 1269 2991 
Q 1406 3038 1543 3061 
Q 1681 3084 1819 3084 
Q 2600 3084 3056 2656 
Q 3513 2228 3513 1497 
Q 3513 744 3044 326 
Q 2575 -91 1722 -91 
Q 1428 -91 1123 -41 
Q 819 9 494 109 
L 494 744 
Q 775 591 1075 516 
Q 1375 441 1709 441 
Q 2250 441 2565 725 
Q 2881 1009 2881 1497 
Q 2881 1984 2565 2268 
Q 2250 2553 1709 2553 
Q 1456 2553 1204 2497 
Q 953 2441 691 2322 
L 691 4666 
z
" transform="scale(0.015625)"/>
       </defs>
       <use xlink:href="#DejaVuSans-35"/>
       <use xlink:href="#DejaVuSans-30" x="63.623047"/>
      </g>
     </g>
    </g>
    <g id="text_14">
     <!-- Density -->
     <g transform="translate(82.195312 200.808594) rotate(-90) scale(0.1 -0.1)">
      <defs>
       <path id="DejaVuSans-44" d="M 1259 4147 
L 1259 519 
L 2022 519 
Q 2988 519 3436 956 
Q 3884 1394 3884 2338 
Q 3884 3275 3436 3711 
Q 2988 4147 2022 4147 
L 1259 4147 
z
M 628 4666 
L 1925 4666 
Q 3281 4666 3915 4102 
Q 4550 3538 4550 2338 
Q 4550 1131 3912 565 
Q 3275 0 1925 0 
L 628 0 
L 628 4666 
z
" transform="scale(0.015625)"/>
       <path id="DejaVuSans-65" d="M 3597 1894 
L 3597 1613 
L 953 1613 
Q 991 1019 1311 708 
Q 1631 397 2203 397 
Q 2534 397 2845 478 
Q 3156 559 3463 722 
L 3463 178 
Q 3153 47 2828 -22 
Q 2503 -91 2169 -91 
Q 1331 -91 842 396 
Q 353 884 353 1716 
Q 353 2575 817 3079 
Q 1281 3584 2069 3584 
Q 2775 3584 3186 3129 
Q 3597 2675 3597 1894 
z
M 3022 2063 
Q 3016 2534 2758 2815 
Q 2500 3097 2075 3097 
Q 1594 3097 1305 2825 
Q 1016 2553 972 2059 
L 3022 2063 
z
" transform="scale(0.015625)"/>
       <path id="DejaVuSans-6e" d="M 3513 2113 
L 3513 0 
L 2938 0 
L 2938 2094 
Q 2938 2591 2744 2837 
Q 2550 3084 2163 3084 
Q 1697 3084 1428 2787 
Q 1159 2491 1159 1978 
L 1159 0 
L 581 0 
L 581 3500 
L 1159 3500 
L 1159 2956 
Q 1366 3272 1645 3428 
Q 1925 3584 2291 3584 
Q 2894 3584 3203 3211 
Q 3513 2838 3513 2113 
z
" transform="scale(0.015625)"/>
       <path id="DejaVuSans-69" d="M 603 3500 
L 1178 3500 
L 1178 0 
L 603 0 
L 603 3500 
z
M 603 4863 
L 1178 4863 
L 1178 4134 
L 603 4134 
L 603 4863 
z
" transform="scale(0.015625)"/>
       <path id="DejaVuSans-79" d="M 2059 -325 
Q 1816 -950 1584 -1140 
Q 1353 -1331 966 -1331 
L 506 -1331 
L 506 -850 
L 844 -850 
Q 1081 -850 1212 -737 
Q 1344 -625 1503 -206 
L 1606 56 
L 191 3500 
L 800 3500 
L 1894 763 
L 2988 3500 
L 3597 3500 
L 2059 -325 
z
" transform="scale(0.015625)"/>
      </defs>
      <use xlink:href="#DejaVuSans-44"/>
      <use xlink:href="#DejaVuSans-65" x="77.001953"/>
      <use xlink:href="#DejaVuSans-6e" x="138.525391"/>
      <use xlink:href="#DejaVuSans-73" x="201.904297"/>
      <use xlink:href="#DejaVuSans-69" x="254.003906"/>
      <use xlink:href="#DejaVuSans-74" x="281.787109"/>
      <use xlink:href="#DejaVuSans-79" x="320.996094"/>
     </g>
    </g>
   </g>
   <g id="patch_3">
    <path d="M 108 320.4 
L 108 43.2 
" style="fill: none; stroke: #000000; stroke-width: 0.8; stroke-linejoin: miter; stroke-linecap: square"/>
   </g>
   <g id="patch_4">
    <path d="M 777.6 320.4 
L 777.6 43.2 
" style="fill: none; stroke: #000000; stroke-width: 0.8; stroke-linejoin: miter; stroke-linecap: square"/>
   </g>
   <g id="patch_5">
    <path d="M 108 320.4 
L 777.6 320.4 
" style="fill: none; stroke: #000000; stroke-width: 0.8; stroke-linejoin: miter; stroke-linecap: square"/>
   </g>
   <g id="patch_6">
    <path d="M 108 43.2 
L 777.6 43.2 
" style="fill: none; stroke: #000000; stroke-width: 0.8; stroke-linejoin: miter; stroke-linecap: square"/>
   </g>
   <g id="text_15">
    <!-- Fst Distribution -->
    <g transform="translate(396.961875 37.2) scale(0.12 -0.12)">
     <defs>
      <path id="DejaVuSans-46" d="M 628 4666 
L 3309 4666 
L 3309 4134 
L 1259 4134 
L 1259 2759 
L 3109 2759 
L 3109 2228 
L 1259 2228 
L 1259 0 
L 628 0 
L 628 4666 
z
" transform="scale(0.015625)"/>
      <path id="DejaVuSans-20" transform="scale(0.015625)"/>
      <path id="DejaVuSans-72" d="M 2631 2963 
Q 2534 3019 2420 3045 
Q 2306 3072 2169 3072 
Q 1681 3072 1420 2755 
Q 1159 2438 1159 1844 
L 1159 0 
L 581 0 
L 581 3500 
L 1159 3500 
L 1159 2956 
Q 1341 3275 1631 3429 
Q 1922 3584 2338 3584 
Q 2397 3584 2469 3576 
Q 2541 3569 2628 3553 
L 2631 2963 
z
" transform="scale(0.015625)"/>
      <path id="DejaVuSans-62" d="M 3116 1747 
Q 3116 2381 2855 2742 
Q 2594 3103 2138 3103 
Q 1681 3103 1420 2742 
Q 1159 2381 1159 1747 
Q 1159 1113 1420 752 
Q 1681 391 2138 391 
Q 2594 391 2855 752 
Q 3116 1113 3116 1747 
z
M 1159 2969 
Q 1341 3281 1617 3432 
Q 1894 3584 2278 3584 
Q 2916 3584 3314 3078 
Q 3713 2572 3713 1747 
Q 3713 922 3314 415 
Q 2916 -91 2278 -91 
Q 1894 -91 1617 61 
Q 1341 213 1159 525 
L 1159 0 
L 581 0 
L 581 4863 
L 1159 4863 
L 1159 2969 
z
" transform="scale(0.015625)"/>
      <path id="DejaVuSans-75" d="M 544 1381 
L 544 3500 
L 1119 3500 
L 1119 1403 
Q 1119 906 1312 657 
Q 1506 409 1894 409 
Q 2359 409 2629 706 
Q 2900 1003 2900 1516 
L 2900 3500 
L 3475 3500 
L 3475 0 
L 2900 0 
L 2900 538 
Q 2691 219 2414 64 
Q 2138 -91 1772 -91 
Q 1169 -91 856 284 
Q 544 659 544 1381 
z
M 1991 3584 
L 1991 3584 
z
" transform="scale(0.015625)"/>
      <path id="DejaVuSans-6f" d="M 1959 3097 
Q 1497 3097 1228 2736 
Q 959 2375 959 1747 
Q 959 1119 1226 758 
Q 1494 397 1959 397 
Q 2419 397 2687 759 
Q 2956 1122 2956 1747 
Q 2956 2369 2687 2733 
Q 2419 3097 1959 3097 
z
M 1959 3584 
Q 2709 3584 3137 3096 
Q 3566 2609 3566 1747 
Q 3566 888 3137 398 
Q 2709 -91 1959 -91 
Q 1206 -91 779 398 
Q 353 888 353 1747 
Q 353 2609 779 3096 
Q 1206 3584 1959 3584 
z
" transform="scale(0.015625)"/>
     </defs>
     <use xlink:href="#DejaVuSans-46"/>
     <use xlink:href="#DejaVuSans-73" x="57.519531"/>
     <use xlink:href="#DejaVuSans-74" x="109.619141"/>
     <use xlink:href="#DejaVuSans-20" x="148.828125"/>
     <use xlink:href="#DejaVuSans-44" x="180.615234"/>
     <use xlink:href="#DejaVuSans-69" x="257.617188"/>
     <use xlink:href="#DejaVuSans-73" x="285.400391"/>
     <use xlink:href="#DejaVuSans-74" x="337.5"/>
     <use xlink:href="#DejaVuSans-72" x="376.708984"/>
     <use xlink:href="#DejaVuSans-69" x="417.822266"/>
     <use xlink:href="#DejaVuSans-62" x="445.605469"/>
     <use xlink:href="#DejaVuSans-75" x="509.082031"/>
     <use xlink:href="#DejaVuSans-74" x="572.460938"/>
     <use xlink:href="#DejaVuSans-69" x="611.669922"/>
     <use xlink:href="#DejaVuSans-6f" x="639.453125"/>
     <use xlink:href="#DejaVuSans-6e" x="700.634766"/>
    </g>
   </g>
   <g id="legend_1">
    <g id="patch_7">
     <path d="M 692.420313 110.46875 
L 770.6 110.46875 
Q 772.6 110.46875 772.6 108.46875 
L 772.6 50.2 
Q 772.6 48.2 770.6 48.2 
L 692.420313 48.2 
Q 690.420313 48.2 690.420313 50.2 
L 690.420313 108.46875 
Q 690.420313 110.46875 692.420313 110.46875 
z
" style="fill: #ffffff; opacity: 0.8; stroke: #cccccc; stroke-linejoin: miter"/>
    </g>
    <g id="patch_8">
     <path d="M 694.420313 59.798437 
L 714.420313 59.798437 
L 714.420313 52.798437 
L 694.420313 52.798437 
z
" style="fill: #ff00ff; fill-opacity: 0.25; stroke: #ff00ff; stroke-linejoin: miter"/>
    </g>
    <g id="text_16">
     <!-- neutral -->
     <g transform="translate(722.420313 59.798437) scale(0.1 -0.1)">
      <defs>
       <path id="DejaVuSans-61" d="M 2194 1759 
Q 1497 1759 1228 1600 
Q 959 1441 959 1056 
Q 959 750 1161 570 
Q 1363 391 1709 391 
Q 2188 391 2477 730 
Q 2766 1069 2766 1631 
L 2766 1759 
L 2194 1759 
z
M 3341 1997 
L 3341 0 
L 2766 0 
L 2766 531 
Q 2569 213 2275 61 
Q 1981 -91 1556 -91 
Q 1019 -91 701 211 
Q 384 513 384 1019 
Q 384 1609 779 1909 
Q 1175 2209 1959 2209 
L 2766 2209 
L 2766 2266 
Q 2766 2663 2505 2880 
Q 2244 3097 1772 3097 
Q 1472 3097 1187 3025 
Q 903 2953 641 2809 
L 641 3341 
Q 956 3463 1253 3523 
Q 1550 3584 1831 3584 
Q 2591 3584 2966 3190 
Q 3341 2797 3341 1997 
z
" transform="scale(0.015625)"/>
       <path id="DejaVuSans-6c" d="M 603 4863 
L 1178 4863 
L 1178 0 
L 603 0 
L 603 4863 
z
" transform="scale(0.015625)"/>
      </defs>
      <use xlink:href="#DejaVuSans-6e"/>
      <use xlink:href="#DejaVuSans-65" x="63.378906"/>
      <use xlink:href="#DejaVuSans-75" x="124.902344"/>
      <use xlink:href="#DejaVuSans-74" x="188.28125"/>
      <use xlink:href="#DejaVuSans-72" x="227.490234"/>
      <use xlink:href="#DejaVuSans-61" x="268.603516"/>
      <use xlink:href="#DejaVuSans-6c" x="329.882812"/>
     </g>
    </g>
    <g id="patch_9">
     <path d="M 694.420313 74.476562 
L 714.420313 74.476562 
L 714.420313 67.476562 
L 694.420313 67.476562 
z
" style="fill: #1e90ff; fill-opacity: 0.25; stroke: #1e90ff; stroke-linejoin: miter"/>
    </g>
    <g id="text_17">
     <!-- link_left -->
     <g transform="translate(722.420313 74.476562) scale(0.1 -0.1)">
      <defs>
       <path id="DejaVuSans-6b" d="M 581 4863 
L 1159 4863 
L 1159 1991 
L 2875 3500 
L 3609 3500 
L 1753 1863 
L 3688 0 
L 2938 0 
L 1159 1709 
L 1159 0 
L 581 0 
L 581 4863 
z
" transform="scale(0.015625)"/>
       <path id="DejaVuSans-5f" d="M 3263 -1063 
L 3263 -1509 
L -63 -1509 
L -63 -1063 
L 3263 -1063 
z
" transform="scale(0.015625)"/>
      </defs>
      <use xlink:href="#DejaVuSans-6c"/>
      <use xlink:href="#DejaVuSans-69" x="27.783203"/>
      <use xlink:href="#DejaVuSans-6e" x="55.566406"/>
      <use xlink:href="#DejaVuSans-6b" x="118.945312"/>
      <use xlink:href="#DejaVuSans-5f" x="176.855469"/>
      <use xlink:href="#DejaVuSans-6c" x="226.855469"/>
      <use xlink:href="#DejaVuSans-65" x="254.638672"/>
      <use xlink:href="#DejaVuSans-66" x="316.162109"/>
      <use xlink:href="#DejaVuSans-74" x="349.617188"/>
     </g>
    </g>
    <g id="patch_10">
     <path d="M 694.420313 89.432812 
L 714.420313 89.432812 
L 714.420313 82.432812 
L 694.420313 82.432812 
z
" style="fill: #9400d3; fill-opacity: 0.25; stroke: #9400d3; stroke-linejoin: miter"/>
    </g>
    <g id="text_18">
     <!-- link_right -->
     <g transform="translate(722.420313 89.432812) scale(0.1 -0.1)">
      <defs>
       <path id="DejaVuSans-67" d="M 2906 1791 
Q 2906 2416 2648 2759 
Q 2391 3103 1925 3103 
Q 1463 3103 1205 2759 
Q 947 2416 947 1791 
Q 947 1169 1205 825 
Q 1463 481 1925 481 
Q 2391 481 2648 825 
Q 2906 1169 2906 1791 
z
M 3481 434 
Q 3481 -459 3084 -895 
Q 2688 -1331 1869 -1331 
Q 1566 -1331 1297 -1286 
Q 1028 -1241 775 -1147 
L 775 -588 
Q 1028 -725 1275 -790 
Q 1522 -856 1778 -856 
Q 2344 -856 2625 -561 
Q 2906 -266 2906 331 
L 2906 616 
Q 2728 306 2450 153 
Q 2172 0 1784 0 
Q 1141 0 747 490 
Q 353 981 353 1791 
Q 353 2603 747 3093 
Q 1141 3584 1784 3584 
Q 2172 3584 2450 3431 
Q 2728 3278 2906 2969 
L 2906 3500 
L 3481 3500 
L 3481 434 
z
" transform="scale(0.015625)"/>
       <path id="DejaVuSans-68" d="M 3513 2113 
L 3513 0 
L 2938 0 
L 2938 2094 
Q 2938 2591 2744 2837 
Q 2550 3084 2163 3084 
Q 1697 3084 1428 2787 
Q 1159 2491 1159 1978 
L 1159 0 
L 581 0 
L 581 4863 
L 1159 4863 
L 1159 2956 
Q 1366 3272 1645 3428 
Q 1925 3584 2291 3584 
Q 2894 3584 3203 3211 
Q 3513 2838 3513 2113 
z
" transform="scale(0.015625)"/>
      </defs>
      <use xlink:href="#DejaVuSans-6c"/>
      <use xlink:href="#DejaVuSans-69" x="27.783203"/>
      <use xlink:href="#DejaVuSans-6e" x="55.566406"/>
      <use xlink:href="#DejaVuSans-6b" x="118.945312"/>
      <use xlink:href="#DejaVuSans-5f" x="176.855469"/>
      <use xlink:href="#DejaVuSans-72" x="226.855469"/>
      <use xlink:href="#DejaVuSans-69" x="267.96875"/>
      <use xlink:href="#DejaVuSans-67" x="295.751953"/>
      <use xlink:href="#DejaVuSans-68" x="359.228516"/>
      <use xlink:href="#DejaVuSans-74" x="422.607422"/>
     </g>
    </g>
    <g id="patch_11">
     <path d="M 694.420313 104.389062 
L 714.420313 104.389062 
L 714.420313 97.389062 
L 694.420313 97.389062 
z
" style="fill: #0000ff; fill-opacity: 0.25; stroke: #0000ff; stroke-linejoin: miter"/>
    </g>
    <g id="text_19">
     <!-- sweep -->
     <g transform="translate(722.420313 104.389062) scale(0.1 -0.1)">
      <defs>
       <path id="DejaVuSans-77" d="M 269 3500 
L 844 3500 
L 1563 769 
L 2278 3500 
L 2956 3500 
L 3675 769 
L 4391 3500 
L 4966 3500 
L 4050 0 
L 3372 0 
L 2619 2869 
L 1863 0 
L 1184 0 
L 269 3500 
z
" transform="scale(0.015625)"/>
       <path id="DejaVuSans-70" d="M 1159 525 
L 1159 -1331 
L 581 -1331 
L 581 3500 
L 1159 3500 
L 1159 2969 
Q 1341 3281 1617 3432 
Q 1894 3584 2278 3584 
Q 2916 3584 3314 3078 
Q 3713 2572 3713 1747 
Q 3713 922 3314 415 
Q 2916 -91 2278 -91 
Q 1894 -91 1617 61 
Q 1341 213 1159 525 
z
M 3116 1747 
Q 3116 2381 2855 2742 
Q 2594 3103 2138 3103 
Q 1681 3103 1420 2742 
Q 1159 2381 1159 1747 
Q 1159 1113 1420 752 
Q 1681 391 2138 391 
Q 2594 391 2855 752 
Q 3116 1113 3116 1747 
z
" transform="scale(0.015625)"/>
      </defs>
      <use xlink:href="#DejaVuSans-73"/>
      <use xlink:href="#DejaVuSans-77" x="52.099609"/>
      <use xlink:href="#DejaVuSans-65" x="133.886719"/>
      <use xlink:href="#DejaVuSans-65" x="195.410156"/>
      <use xlink:href="#DejaVuSans-70" x="256.933594"/>
     </g>
    </g>
   </g>
  </g>
 </g>
 <defs>
  <clipPath id="p4e48365929">
   <rect x="108" y="43.2" width="669.6" height="277.2"/>
  </clipPath>
 </defs>
</svg>
