<?xml version="1.0" encoding="utf-8" standalone="no"?>
<!DOCTYPE svg PUBLIC "-//W3C//DTD SVG 1.1//EN"
  "http://www.w3.org/Graphics/SVG/1.1/DTD/svg11.dtd">
<svg xmlns:xlink="http://www.w3.org/1999/xlink" width="864pt" height="360pt" viewBox="0 0 864 360" xmlns="http://www.w3.org/2000/svg" version="1.1">
 <metadata>
  <rdf:RDF xmlns:dc="http://purl.org/dc/elements/1.1/" xmlns:cc="http://creativecommons.org/ns#" xmlns:rdf="http://www.w3.org/1999/02/22-rdf-syntax-ns#">
   <cc:Work>
    <dc:type rdf:resource="http://purl.org/dc/dcmitype/StillImage"/>
    <dc:date>2024-05-27T13:29:55.603858</dc:date>
    <dc:format>image/svg+xml</dc:format>
    <dc:creator>
     <cc:Agent>
      <dc:title>Matplotlib v3.8.0, https://matplotlib.org/</dc:title>
     </cc:Agent>
    </dc:creator>
   </cc:Work>
  </rdf:RDF>
 </metadata>
 <defs>
  <style type="text/css">*{stroke-linejoin: round; stroke-linecap: butt}</style>
 </defs>
 <g id="figure_1">
  <g id="patch_1">
   <path d="M 0 360 
L 864 360 
L 864 0 
L 0 0 
z
" style="fill: #ffffff"/>
  </g>
  <g id="axes_1">
   <g id="patch_2">
    <path d="M 108 320.4 
L 777.6 320.4 
L 777.6 43.2 
L 108 43.2 
z
" style="fill: #ffffff"/>
   </g>
   <g id="PolyCollection_1">
    <defs>
     <path id="m4795818e73" d="M 265.961859 -39.600126 
L 265.961859 -39.6 
L 268.030557 -39.6 
L 270.099255 -39.6 
L 272.167953 -39.6 
L 274.23665 -39.6 
L 276.305348 -39.6 
L 278.374046 -39.6 
L 280.442744 -39.6 
L 282.511442 -39.6 
L 284.58014 -39.6 
L 286.648838 -39.6 
L 288.717535 -39.6 
L 290.786233 -39.6 
L 292.854931 -39.6 
L 294.923629 -39.6 
L 296.992327 -39.6 
L 299.061025 -39.6 
L 301.129723 -39.6 
L 303.19842 -39.6 
L 305.267118 -39.6 
L 307.335816 -39.6 
L 309.404514 -39.6 
L 311.473212 -39.6 
L 313.54191 -39.6 
L 315.610608 -39.6 
L 317.679306 -39.6 
L 319.748003 -39.6 
L 321.816701 -39.6 
L 323.885399 -39.6 
L 325.954097 -39.6 
L 328.022795 -39.6 
L 330.091493 -39.6 
L 332.160191 -39.6 
L 334.228888 -39.6 
L 336.297586 -39.6 
L 338.366284 -39.6 
L 340.434982 -39.6 
L 342.50368 -39.6 
L 344.572378 -39.6 
L 346.641076 -39.6 
L 348.709773 -39.6 
L 350.778471 -39.6 
L 352.847169 -39.6 
L 354.915867 -39.6 
L 356.984565 -39.6 
L 359.053263 -39.6 
L 361.121961 -39.6 
L 363.190658 -39.6 
L 365.259356 -39.6 
L 367.328054 -39.6 
L 369.396752 -39.6 
L 371.46545 -39.6 
L 373.534148 -39.6 
L 375.602846 -39.6 
L 377.671543 -39.6 
L 379.740241 -39.6 
L 381.808939 -39.6 
L 383.877637 -39.6 
L 385.946335 -39.6 
L 388.015033 -39.6 
L 390.083731 -39.6 
L 392.152429 -39.6 
L 394.221126 -39.6 
L 396.289824 -39.6 
L 398.358522 -39.6 
L 400.42722 -39.6 
L 402.495918 -39.6 
L 404.564616 -39.6 
L 406.633314 -39.6 
L 408.702011 -39.6 
L 410.770709 -39.6 
L 412.839407 -39.6 
L 414.908105 -39.6 
L 416.976803 -39.6 
L 419.045501 -39.6 
L 421.114199 -39.6 
L 423.182896 -39.6 
L 425.251594 -39.6 
L 427.320292 -39.6 
L 429.38899 -39.6 
L 431.457688 -39.6 
L 433.526386 -39.6 
L 435.595084 -39.6 
L 437.663781 -39.6 
L 439.732479 -39.6 
L 441.801177 -39.6 
L 443.869875 -39.6 
L 445.938573 -39.6 
L 448.007271 -39.6 
L 450.075969 -39.6 
L 452.144666 -39.6 
L 454.213364 -39.6 
L 456.282062 -39.6 
L 458.35076 -39.6 
L 460.419458 -39.6 
L 462.488156 -39.6 
L 464.556854 -39.6 
L 466.625552 -39.6 
L 468.694249 -39.6 
L 470.762947 -39.6 
L 472.831645 -39.6 
L 474.900343 -39.6 
L 476.969041 -39.6 
L 479.037739 -39.6 
L 481.106437 -39.6 
L 483.175134 -39.6 
L 485.243832 -39.6 
L 487.31253 -39.6 
L 489.381228 -39.6 
L 491.449926 -39.6 
L 493.518624 -39.6 
L 495.587322 -39.6 
L 497.656019 -39.6 
L 499.724717 -39.6 
L 501.793415 -39.6 
L 503.862113 -39.6 
L 505.930811 -39.6 
L 507.999509 -39.6 
L 510.068207 -39.6 
L 512.136904 -39.6 
L 514.205602 -39.6 
L 516.2743 -39.6 
L 518.342998 -39.6 
L 520.411696 -39.6 
L 522.480394 -39.6 
L 524.549092 -39.6 
L 526.617789 -39.6 
L 528.686487 -39.6 
L 530.755185 -39.6 
L 532.823883 -39.6 
L 534.892581 -39.6 
L 536.961279 -39.6 
L 539.029977 -39.6 
L 541.098674 -39.6 
L 543.167372 -39.6 
L 545.23607 -39.6 
L 547.304768 -39.6 
L 549.373466 -39.6 
L 551.442164 -39.6 
L 553.510862 -39.6 
L 555.57956 -39.6 
L 557.648257 -39.6 
L 559.716955 -39.6 
L 561.785653 -39.6 
L 563.854351 -39.6 
L 565.923049 -39.6 
L 567.991747 -39.6 
L 570.060445 -39.6 
L 572.129142 -39.6 
L 574.19784 -39.6 
L 576.266538 -39.6 
L 578.335236 -39.6 
L 580.403934 -39.6 
L 582.472632 -39.6 
L 584.54133 -39.6 
L 586.610027 -39.6 
L 588.678725 -39.6 
L 590.747423 -39.6 
L 592.816121 -39.6 
L 594.884819 -39.6 
L 596.953517 -39.6 
L 599.022215 -39.6 
L 601.090912 -39.6 
L 603.15961 -39.6 
L 605.228308 -39.6 
L 607.297006 -39.6 
L 609.365704 -39.6 
L 611.434402 -39.6 
L 613.5031 -39.6 
L 615.571797 -39.6 
L 617.640495 -39.6 
L 619.709193 -39.6 
L 621.777891 -39.6 
L 623.846589 -39.6 
L 625.915287 -39.6 
L 627.983985 -39.6 
L 630.052683 -39.6 
L 632.12138 -39.6 
L 634.190078 -39.6 
L 636.258776 -39.6 
L 638.327474 -39.6 
L 640.396172 -39.6 
L 642.46487 -39.6 
L 644.533568 -39.6 
L 646.602265 -39.6 
L 648.670963 -39.6 
L 650.739661 -39.6 
L 652.808359 -39.6 
L 654.877057 -39.6 
L 656.945755 -39.6 
L 659.014453 -39.6 
L 661.08315 -39.6 
L 663.151848 -39.6 
L 665.220546 -39.6 
L 667.289244 -39.6 
L 669.357942 -39.6 
L 671.42664 -39.6 
L 673.495338 -39.6 
L 675.564035 -39.6 
L 677.632733 -39.6 
L 677.632733 -39.600126 
L 677.632733 -39.600126 
L 675.564035 -39.600644 
L 673.495338 -39.602298 
L 671.42664 -39.605741 
L 669.357942 -39.610293 
L 667.289244 -39.614178 
L 665.220546 -39.61733 
L 663.151848 -39.621618 
L 661.08315 -39.626936 
L 659.014453 -39.631331 
L 656.945755 -39.635219 
L 654.877057 -39.640239 
L 652.808359 -39.646015 
L 650.739661 -39.652463 
L 648.670963 -39.660607 
L 646.602265 -39.669203 
L 644.533568 -39.678107 
L 642.46487 -39.695537 
L 640.396172 -39.732365 
L 638.327474 -39.78445 
L 636.258776 -39.828166 
L 634.190078 -39.845094 
L 632.12138 -39.850398 
L 630.052683 -39.883875 
L 627.983985 -39.966869 
L 625.915287 -40.075076 
L 623.846589 -40.160659 
L 621.777891 -40.200226 
L 619.709193 -40.218829 
L 617.640495 -40.267926 
L 615.571797 -40.376148 
L 613.5031 -40.517364 
L 611.434402 -40.641254 
L 609.365704 -40.729916 
L 607.297006 -40.790678 
L 605.228308 -40.822664 
L 603.15961 -40.835999 
L 601.090912 -40.859633 
L 599.022215 -40.903204 
L 596.953517 -40.956609 
L 594.884819 -41.024111 
L 592.816121 -41.119458 
L 590.747423 -41.240544 
L 588.678725 -41.378764 
L 586.610027 -41.551746 
L 584.54133 -41.80207 
L 582.472632 -42.135751 
L 580.403934 -42.480898 
L 578.335236 -42.756247 
L 576.266538 -42.95883 
L 574.19784 -43.146243 
L 572.129142 -43.373867 
L 570.060445 -43.659023 
L 567.991747 -43.961358 
L 565.923049 -44.218177 
L 563.854351 -44.413854 
L 561.785653 -44.588998 
L 559.716955 -44.814387 
L 557.648257 -45.181354 
L 555.57956 -45.766283 
L 553.510862 -46.57214 
L 551.442164 -47.534762 
L 549.373466 -48.587856 
L 547.304768 -49.68667 
L 545.23607 -50.790659 
L 543.167372 -51.890394 
L 541.098674 -53.044266 
L 539.029977 -54.326517 
L 536.961279 -55.766936 
L 534.892581 -57.405177 
L 532.823883 -59.36073 
L 530.755185 -61.75763 
L 528.686487 -64.558205 
L 526.617789 -67.520598 
L 524.549092 -70.377626 
L 522.480394 -73.08109 
L 520.411696 -75.855819 
L 518.342998 -78.973295 
L 516.2743 -82.520902 
L 514.205602 -86.469416 
L 512.136904 -90.827322 
L 510.068207 -95.580138 
L 507.999509 -100.595067 
L 505.930811 -105.702108 
L 503.862113 -110.807174 
L 501.793415 -115.975615 
L 499.724717 -121.408168 
L 497.656019 -127.10506 
L 495.587322 -132.620881 
L 493.518624 -137.420878 
L 491.449926 -141.456824 
L 489.381228 -145.279132 
L 487.31253 -149.562549 
L 485.243832 -154.532047 
L 483.175134 -159.837231 
L 481.106437 -164.848704 
L 479.037739 -169.02422 
L 476.969041 -172.264093 
L 474.900343 -175.01918 
L 472.831645 -177.721003 
L 470.762947 -180.10239 
L 468.694249 -181.468825 
L 466.625552 -181.562971 
L 464.556854 -180.770093 
L 462.488156 -179.600184 
L 460.419458 -178.266192 
L 458.35076 -176.569941 
L 456.282062 -174.162983 
L 454.213364 -171.110415 
L 452.144666 -167.814267 
L 450.075969 -164.206309 
L 448.007271 -159.673691 
L 445.938573 -153.994997 
L 443.869875 -147.746219 
L 441.801177 -141.631735 
L 439.732479 -135.867924 
L 437.663781 -130.277593 
L 435.595084 -124.650256 
L 433.526386 -118.931221 
L 431.457688 -113.244165 
L 429.38899 -107.817607 
L 427.320292 -102.800509 
L 425.251594 -98.087812 
L 423.182896 -93.383461 
L 421.114199 -88.484854 
L 419.045501 -83.521259 
L 416.976803 -78.869173 
L 414.908105 -74.79339 
L 412.839407 -71.254726 
L 410.770709 -68.037175 
L 408.702011 -64.956588 
L 406.633314 -62.029697 
L 404.564616 -59.450978 
L 402.495918 -57.300965 
L 400.42722 -55.386514 
L 398.358522 -53.485936 
L 396.289824 -51.612192 
L 394.221126 -49.937902 
L 392.152429 -48.584501 
L 390.083731 -47.54113 
L 388.015033 -46.702165 
L 385.946335 -45.949156 
L 383.877637 -45.218972 
L 381.808939 -44.518034 
L 379.740241 -43.897222 
L 377.671543 -43.397768 
L 375.602846 -43.014687 
L 373.534148 -42.711829 
L 371.46545 -42.433298 
L 369.396752 -42.137363 
L 367.328054 -41.85531 
L 365.259356 -41.636547 
L 363.190658 -41.446932 
L 361.121961 -41.219962 
L 359.053263 -40.960891 
L 356.984565 -40.723583 
L 354.915867 -40.53614 
L 352.847169 -40.392981 
L 350.778471 -40.288988 
L 348.709773 -40.229434 
L 346.641076 -40.208345 
L 344.572378 -40.198761 
L 342.50368 -40.172101 
L 340.434982 -40.121052 
L 338.366284 -40.059401 
L 336.297586 -40.002788 
L 334.228888 -39.957498 
L 332.160191 -39.923494 
L 330.091493 -39.897398 
L 328.022795 -39.874345 
L 325.954097 -39.854679 
L 323.885399 -39.845642 
L 321.816701 -39.848376 
L 319.748003 -39.847636 
L 317.679306 -39.825248 
L 315.610608 -39.781151 
L 313.54191 -39.732842 
L 311.473212 -39.69836 
L 309.404514 -39.683979 
L 307.335816 -39.682585 
L 305.267118 -39.682047 
L 303.19842 -39.676912 
L 301.129723 -39.668751 
L 299.061025 -39.658508 
L 296.992327 -39.646012 
L 294.923629 -39.633026 
L 292.854931 -39.621687 
L 290.786233 -39.612955 
L 288.717535 -39.60791 
L 286.648838 -39.607506 
L 284.58014 -39.61044 
L 282.511442 -39.613468 
L 280.442744 -39.614738 
L 278.374046 -39.614757 
L 276.305348 -39.613516 
L 274.23665 -39.610183 
L 272.167953 -39.605731 
L 270.099255 -39.602298 
L 268.030557 -39.600645 
L 265.961859 -39.600126 
z
" style="stroke: #ff00ff"/>
    </defs>
    <g clip-path="url(#pb9ad1cb0bc)">
     <use xlink:href="#m4795818e73" x="0" y="360" style="fill: #ff00ff; fill-opacity: 0.25; stroke: #ff00ff"/>
    </g>
   </g>
   <g id="PolyCollection_2">
    <defs>
     <path id="mb5fbfe14ef" d="M 167.75828 -39.600905 
L 167.75828 -39.6 
L 170.64847 -39.6 
L 173.53866 -39.6 
L 176.428851 -39.6 
L 179.319041 -39.6 
L 182.209232 -39.6 
L 185.099422 -39.6 
L 187.989613 -39.6 
L 190.879803 -39.6 
L 193.769994 -39.6 
L 196.660184 -39.6 
L 199.550375 -39.6 
L 202.440565 -39.6 
L 205.330756 -39.6 
L 208.220946 -39.6 
L 211.111137 -39.6 
L 214.001327 -39.6 
L 216.891518 -39.6 
L 219.781708 -39.6 
L 222.671898 -39.6 
L 225.562089 -39.6 
L 228.452279 -39.6 
L 231.34247 -39.6 
L 234.23266 -39.6 
L 237.122851 -39.6 
L 240.013041 -39.6 
L 242.903232 -39.6 
L 245.793422 -39.6 
L 248.683613 -39.6 
L 251.573803 -39.6 
L 254.463994 -39.6 
L 257.354184 -39.6 
L 260.244375 -39.6 
L 263.134565 -39.6 
L 266.024756 -39.6 
L 268.914946 -39.6 
L 271.805136 -39.6 
L 274.695327 -39.6 
L 277.585517 -39.6 
L 280.475708 -39.6 
L 283.365898 -39.6 
L 286.256089 -39.6 
L 289.146279 -39.6 
L 292.03647 -39.6 
L 294.92666 -39.6 
L 297.816851 -39.6 
L 300.707041 -39.6 
L 303.597232 -39.6 
L 306.487422 -39.6 
L 309.377613 -39.6 
L 312.267803 -39.6 
L 315.157994 -39.6 
L 318.048184 -39.6 
L 320.938374 -39.6 
L 323.828565 -39.6 
L 326.718755 -39.6 
L 329.608946 -39.6 
L 332.499136 -39.6 
L 335.389327 -39.6 
L 338.279517 -39.6 
L 341.169708 -39.6 
L 344.059898 -39.6 
L 346.950089 -39.6 
L 349.840279 -39.6 
L 352.73047 -39.6 
L 355.62066 -39.6 
L 358.510851 -39.6 
L 361.401041 -39.6 
L 364.291232 -39.6 
L 367.181422 -39.6 
L 370.071612 -39.6 
L 372.961803 -39.6 
L 375.851993 -39.6 
L 378.742184 -39.6 
L 381.632374 -39.6 
L 384.522565 -39.6 
L 387.412755 -39.6 
L 390.302946 -39.6 
L 393.193136 -39.6 
L 396.083327 -39.6 
L 398.973517 -39.6 
L 401.863708 -39.6 
L 404.753898 -39.6 
L 407.644089 -39.6 
L 410.534279 -39.6 
L 413.424469 -39.6 
L 416.31466 -39.6 
L 419.20485 -39.6 
L 422.095041 -39.6 
L 424.985231 -39.6 
L 427.875422 -39.6 
L 430.765612 -39.6 
L 433.655803 -39.6 
L 436.545993 -39.6 
L 439.436184 -39.6 
L 442.326374 -39.6 
L 445.216565 -39.6 
L 448.106755 -39.6 
L 450.996946 -39.6 
L 453.887136 -39.6 
L 456.777327 -39.6 
L 459.667517 -39.6 
L 462.557707 -39.6 
L 465.447898 -39.6 
L 468.338088 -39.6 
L 471.228279 -39.6 
L 474.118469 -39.6 
L 477.00866 -39.6 
L 479.89885 -39.6 
L 482.789041 -39.6 
L 485.679231 -39.6 
L 488.569422 -39.6 
L 491.459612 -39.6 
L 494.349803 -39.6 
L 497.239993 -39.6 
L 500.130184 -39.6 
L 503.020374 -39.6 
L 505.910565 -39.6 
L 508.800755 -39.6 
L 511.690945 -39.6 
L 514.581136 -39.6 
L 517.471326 -39.6 
L 520.361517 -39.6 
L 523.251707 -39.6 
L 526.141898 -39.6 
L 529.032088 -39.6 
L 531.922279 -39.6 
L 534.812469 -39.6 
L 537.70266 -39.6 
L 540.59285 -39.6 
L 543.483041 -39.6 
L 546.373231 -39.6 
L 549.263422 -39.6 
L 552.153612 -39.6 
L 555.043803 -39.6 
L 557.933993 -39.6 
L 560.824183 -39.6 
L 563.714374 -39.6 
L 566.604564 -39.6 
L 569.494755 -39.6 
L 572.384945 -39.6 
L 575.275136 -39.6 
L 578.165326 -39.6 
L 581.055517 -39.6 
L 583.945707 -39.6 
L 586.835898 -39.6 
L 589.726088 -39.6 
L 592.616279 -39.6 
L 595.506469 -39.6 
L 598.39666 -39.6 
L 601.28685 -39.6 
L 604.177041 -39.6 
L 607.067231 -39.6 
L 609.957421 -39.6 
L 612.847612 -39.6 
L 615.737802 -39.6 
L 618.627993 -39.6 
L 621.518183 -39.6 
L 624.408374 -39.6 
L 627.298564 -39.6 
L 630.188755 -39.6 
L 633.078945 -39.6 
L 635.969136 -39.6 
L 638.859326 -39.6 
L 641.749517 -39.6 
L 644.639707 -39.6 
L 647.529898 -39.6 
L 650.420088 -39.6 
L 653.310278 -39.6 
L 656.200469 -39.6 
L 659.090659 -39.6 
L 661.98085 -39.6 
L 664.87104 -39.6 
L 667.761231 -39.6 
L 670.651421 -39.6 
L 673.541612 -39.6 
L 676.431802 -39.6 
L 679.321993 -39.6 
L 682.212183 -39.6 
L 685.102374 -39.6 
L 687.992564 -39.6 
L 690.882755 -39.6 
L 693.772945 -39.6 
L 696.663136 -39.6 
L 699.553326 -39.6 
L 702.443516 -39.6 
L 705.333707 -39.6 
L 708.223897 -39.6 
L 711.114088 -39.6 
L 714.004278 -39.6 
L 716.894469 -39.6 
L 719.784659 -39.6 
L 722.67485 -39.6 
L 725.56504 -39.6 
L 728.455231 -39.6 
L 731.345421 -39.6 
L 734.235612 -39.6 
L 737.125802 -39.6 
L 740.015993 -39.6 
L 742.906183 -39.6 
L 742.906183 -39.600675 
L 742.906183 -39.600675 
L 740.015993 -39.601161 
L 737.125802 -39.60195 
L 734.235612 -39.603201 
L 731.345421 -39.605136 
L 728.455231 -39.608064 
L 725.56504 -39.612397 
L 722.67485 -39.618676 
L 719.784659 -39.627591 
L 716.894469 -39.640004 
L 714.004278 -39.656961 
L 711.114088 -39.679707 
L 708.223897 -39.709687 
L 705.333707 -39.748537 
L 702.443516 -39.798082 
L 699.553326 -39.860331 
L 696.663136 -39.937484 
L 693.772945 -40.031977 
L 690.882755 -40.146563 
L 687.992564 -40.284437 
L 685.102374 -40.449401 
L 682.212183 -40.646043 
L 679.321993 -40.879889 
L 676.431802 -41.15746 
L 673.541612 -41.486201 
L 670.651421 -41.874199 
L 667.761231 -42.329712 
L 664.87104 -42.860496 
L 661.98085 -43.47302 
L 659.090659 -44.17167 
L 656.200469 -44.95805 
L 653.310278 -45.830522 
L 650.420088 -46.784041 
L 647.529898 -47.810337 
L 644.639707 -48.898397 
L 641.749517 -50.03517 
L 638.859326 -51.206388 
L 635.969136 -52.397374 
L 633.078945 -53.593752 
L 630.188755 -54.781998 
L 627.298564 -55.949816 
L 624.408374 -57.086342 
L 621.518183 -58.182231 
L 618.627993 -59.229644 
L 615.737802 -60.222163 
L 612.847612 -61.154681 
L 609.957421 -62.02325 
L 607.067231 -62.82495 
L 604.177041 -63.557789 
L 601.28685 -64.220668 
L 598.39666 -64.813448 
L 595.506469 -65.337095 
L 592.616279 -65.793875 
L 589.726088 -66.187535 
L 586.835898 -66.523358 
L 583.945707 -66.808046 
L 581.055517 -67.049362 
L 578.165326 -67.255559 
L 575.275136 -67.434674 
L 572.384945 -67.593807 
L 569.494755 -67.738518 
L 566.604564 -67.872484 
L 563.714374 -67.997441 
L 560.824183 -68.113434 
L 557.933993 -68.219258 
L 555.043803 -68.312983 
L 552.153612 -68.39241 
L 549.263422 -68.455367 
L 546.373231 -68.499796 
L 543.483041 -68.523681 
L 540.59285 -68.52491 
L 537.70266 -68.501174 
L 534.812469 -68.450041 
L 531.922279 -68.369213 
L 529.032088 -68.256992 
L 526.141898 -68.112825 
L 523.251707 -67.937851 
L 520.361517 -67.735285 
L 517.471326 -67.510582 
L 514.581136 -67.271335 
L 511.690945 -67.026961 
L 508.800755 -66.788241 
L 505.910565 -66.566844 
L 503.020374 -66.374915 
L 500.130184 -66.224783 
L 497.239993 -66.128784 
L 494.349803 -66.099154 
L 491.459612 -66.147896 
L 488.569422 -66.286555 
L 485.679231 -66.525816 
L 482.789041 -66.874925 
L 479.89885 -67.340964 
L 477.00866 -67.928056 
L 474.118469 -68.636636 
L 471.228279 -69.462902 
L 468.338088 -70.398584 
L 465.447898 -71.431078 
L 462.557707 -72.544 
L 459.667517 -73.718083 
L 456.777327 -74.932336 
L 453.887136 -76.165307 
L 450.996946 -77.396299 
L 448.106755 -78.606405 
L 445.216565 -79.779267 
L 442.326374 -80.90153 
L 439.436184 -81.962984 
L 436.545993 -82.956467 
L 433.655803 -83.877562 
L 430.765612 -84.724157 
L 427.875422 -85.495894 
L 424.985231 -86.193544 
L 422.095041 -86.818341 
L 419.20485 -87.371318 
L 416.31466 -87.852741 
L 413.424469 -88.261705 
L 410.534279 -88.596001 
L 407.644089 -88.852281 
L 404.753898 -89.026517 
L 401.863708 -89.114662 
L 398.973517 -89.113372 
L 396.083327 -89.020602 
L 393.193136 -88.835927 
L 390.302946 -88.560492 
L 387.412755 -88.196611 
L 384.522565 -87.747098 
L 381.632374 -87.214549 
L 378.742184 -86.600753 
L 375.851993 -85.906433 
L 372.961803 -85.1314 
L 370.071612 -84.275079 
L 367.181422 -83.337308 
L 364.291232 -82.319178 
L 361.401041 -81.223734 
L 358.510851 -80.056366 
L 355.62066 -78.824816 
L 352.73047 -77.538834 
L 349.840279 -76.209581 
L 346.950089 -74.848915 
L 344.059898 -73.468681 
L 341.169708 -72.080093 
L 338.279517 -70.693246 
L 335.389327 -69.316742 
L 332.499136 -67.957415 
L 329.608946 -66.620164 
L 326.718755 -65.307908 
L 323.828565 -64.021709 
L 320.938374 -62.761105 
L 318.048184 -61.52465 
L 315.157994 -60.31061 
L 312.267803 -59.117692 
L 309.377613 -57.945663 
L 306.487422 -56.795703 
L 303.597232 -55.670412 
L 300.707041 -54.573464 
L 297.816851 -53.509001 
L 294.92666 -52.480938 
L 292.03647 -51.492366 
L 289.146279 -50.545213 
L 286.256089 -49.64024 
L 283.365898 -48.777353 
L 280.475708 -47.956109 
L 277.585517 -47.176259 
L 274.695327 -46.438148 
L 271.805136 -45.74287 
L 268.914946 -45.092126 
L 266.024756 -44.487838 
L 263.134565 -43.931637 
L 260.244375 -43.424366 
L 257.354184 -42.965722 
L 254.463994 -42.554115 
L 251.573803 -42.186779 
L 248.683613 -41.860066 
L 245.793422 -41.569858 
L 242.903232 -41.311987 
L 240.013041 -41.082583 
L 237.122851 -40.878292 
L 234.23266 -40.696357 
L 231.34247 -40.534574 
L 228.452279 -40.391176 
L 225.562089 -40.264691 
L 222.671898 -40.153811 
L 219.781708 -40.057301 
L 216.891518 -39.973952 
L 214.001327 -39.90257 
L 211.111137 -39.841988 
L 208.220946 -39.791079 
L 205.330756 -39.748773 
L 202.440565 -39.714059 
L 199.550375 -39.685983 
L 196.660184 -39.663646 
L 193.769994 -39.646198 
L 190.879803 -39.632842 
L 187.989613 -39.622839 
L 185.099422 -39.615522 
L 182.209232 -39.6103 
L 179.319041 -39.606669 
L 176.428851 -39.60421 
L 173.53866 -39.60259 
L 170.64847 -39.601552 
L 167.75828 -39.600905 
z
" style="stroke: #1e90ff"/>
    </defs>
    <g clip-path="url(#pb9ad1cb0bc)">
     <use xlink:href="#mb5fbfe14ef" x="0" y="360" style="fill: #1e90ff; fill-opacity: 0.25; stroke: #1e90ff"/>
    </g>
   </g>
   <g id="PolyCollection_3">
    <defs>
     <path id="m0cf74e777c" d="M 138.436364 -39.600724 
L 138.436364 -39.6 
L 141.495295 -39.6 
L 144.554226 -39.6 
L 147.613157 -39.6 
L 150.672088 -39.6 
L 153.731019 -39.6 
L 156.78995 -39.6 
L 159.848881 -39.6 
L 162.907812 -39.6 
L 165.966743 -39.6 
L 169.025674 -39.6 
L 172.084605 -39.6 
L 175.143536 -39.6 
L 178.202467 -39.6 
L 181.261398 -39.6 
L 184.320329 -39.6 
L 187.37926 -39.6 
L 190.438191 -39.6 
L 193.497122 -39.6 
L 196.556053 -39.6 
L 199.614984 -39.6 
L 202.673915 -39.6 
L 205.732846 -39.6 
L 208.791777 -39.6 
L 211.850708 -39.6 
L 214.909639 -39.6 
L 217.96857 -39.6 
L 221.027501 -39.6 
L 224.086432 -39.6 
L 227.145363 -39.6 
L 230.204294 -39.6 
L 233.263225 -39.6 
L 236.322156 -39.6 
L 239.381087 -39.6 
L 242.440018 -39.6 
L 245.498949 -39.6 
L 248.55788 -39.6 
L 251.616811 -39.6 
L 254.675742 -39.6 
L 257.734673 -39.6 
L 260.793604 -39.6 
L 263.852535 -39.6 
L 266.911466 -39.6 
L 269.970397 -39.6 
L 273.029328 -39.6 
L 276.088259 -39.6 
L 279.14719 -39.6 
L 282.206122 -39.6 
L 285.265053 -39.6 
L 288.323984 -39.6 
L 291.382915 -39.6 
L 294.441846 -39.6 
L 297.500777 -39.6 
L 300.559708 -39.6 
L 303.618639 -39.6 
L 306.67757 -39.6 
L 309.736501 -39.6 
L 312.795432 -39.6 
L 315.854363 -39.6 
L 318.913294 -39.6 
L 321.972225 -39.6 
L 325.031156 -39.6 
L 328.090087 -39.6 
L 331.149018 -39.6 
L 334.207949 -39.6 
L 337.26688 -39.6 
L 340.325811 -39.6 
L 343.384742 -39.6 
L 346.443673 -39.6 
L 349.502604 -39.6 
L 352.561535 -39.6 
L 355.620466 -39.6 
L 358.679397 -39.6 
L 361.738328 -39.6 
L 364.797259 -39.6 
L 367.85619 -39.6 
L 370.915121 -39.6 
L 373.974052 -39.6 
L 377.032983 -39.6 
L 380.091914 -39.6 
L 383.150845 -39.6 
L 386.209776 -39.6 
L 389.268707 -39.6 
L 392.327638 -39.6 
L 395.386569 -39.6 
L 398.4455 -39.6 
L 401.504431 -39.6 
L 404.563362 -39.6 
L 407.622293 -39.6 
L 410.681224 -39.6 
L 413.740155 -39.6 
L 416.799086 -39.6 
L 419.858017 -39.6 
L 422.916948 -39.6 
L 425.975879 -39.6 
L 429.03481 -39.6 
L 432.093741 -39.6 
L 435.152672 -39.6 
L 438.211603 -39.6 
L 441.270534 -39.6 
L 444.329466 -39.6 
L 447.388397 -39.6 
L 450.447328 -39.6 
L 453.506259 -39.6 
L 456.56519 -39.6 
L 459.624121 -39.6 
L 462.683052 -39.6 
L 465.741983 -39.6 
L 468.800914 -39.6 
L 471.859845 -39.6 
L 474.918776 -39.6 
L 477.977707 -39.6 
L 481.036638 -39.6 
L 484.095569 -39.6 
L 487.1545 -39.6 
L 490.213431 -39.6 
L 493.272362 -39.6 
L 496.331293 -39.6 
L 499.390224 -39.6 
L 502.449155 -39.6 
L 505.508086 -39.6 
L 508.567017 -39.6 
L 511.625948 -39.6 
L 514.684879 -39.6 
L 517.74381 -39.6 
L 520.802741 -39.6 
L 523.861672 -39.6 
L 526.920603 -39.6 
L 529.979534 -39.6 
L 533.038465 -39.6 
L 536.097396 -39.6 
L 539.156327 -39.6 
L 542.215258 -39.6 
L 545.274189 -39.6 
L 548.33312 -39.6 
L 551.392051 -39.6 
L 554.450982 -39.6 
L 557.509913 -39.6 
L 560.568844 -39.6 
L 563.627775 -39.6 
L 566.686706 -39.6 
L 569.745637 -39.6 
L 572.804568 -39.6 
L 575.863499 -39.6 
L 578.92243 -39.6 
L 581.981361 -39.6 
L 585.040292 -39.6 
L 588.099223 -39.6 
L 591.158154 -39.6 
L 594.217085 -39.6 
L 597.276016 -39.6 
L 600.334947 -39.6 
L 603.393878 -39.6 
L 606.45281 -39.6 
L 609.511741 -39.6 
L 612.570672 -39.6 
L 615.629603 -39.6 
L 618.688534 -39.6 
L 621.747465 -39.6 
L 624.806396 -39.6 
L 627.865327 -39.6 
L 630.924258 -39.6 
L 633.983189 -39.6 
L 637.04212 -39.6 
L 640.101051 -39.6 
L 643.159982 -39.6 
L 646.218913 -39.6 
L 649.277844 -39.6 
L 652.336775 -39.6 
L 655.395706 -39.6 
L 658.454637 -39.6 
L 661.513568 -39.6 
L 664.572499 -39.6 
L 667.63143 -39.6 
L 670.690361 -39.6 
L 673.749292 -39.6 
L 676.808223 -39.6 
L 679.867154 -39.6 
L 682.926085 -39.6 
L 685.985016 -39.6 
L 689.043947 -39.6 
L 692.102878 -39.6 
L 695.161809 -39.6 
L 698.22074 -39.6 
L 701.279671 -39.6 
L 704.338602 -39.6 
L 707.397533 -39.6 
L 710.456464 -39.6 
L 713.515395 -39.6 
L 716.574326 -39.6 
L 719.633257 -39.6 
L 722.692188 -39.6 
L 725.751119 -39.6 
L 728.81005 -39.6 
L 731.868981 -39.6 
L 734.927912 -39.6 
L 737.986843 -39.6 
L 741.045774 -39.6 
L 744.104705 -39.6 
L 747.163636 -39.6 
L 747.163636 -39.600999 
L 747.163636 -39.600999 
L 744.104705 -39.601753 
L 741.045774 -39.603001 
L 737.986843 -39.605017 
L 734.927912 -39.608192 
L 731.868981 -39.613072 
L 728.81005 -39.620392 
L 725.751119 -39.631111 
L 722.692188 -39.646443 
L 719.633257 -39.667877 
L 716.574326 -39.697178 
L 713.515395 -39.73638 
L 710.456464 -39.787757 
L 707.397533 -39.853781 
L 704.338602 -39.937081 
L 701.279671 -40.040404 
L 698.22074 -40.166604 
L 695.161809 -40.318658 
L 692.102878 -40.499723 
L 689.043947 -40.713241 
L 685.985016 -40.963073 
L 682.926085 -41.253648 
L 679.867154 -41.590107 
L 676.808223 -41.978375 
L 673.749292 -42.425156 
L 670.690361 -42.937763 
L 667.63143 -43.523788 
L 664.572499 -44.19057 
L 661.513568 -44.944497 
L 658.454637 -45.790183 
L 655.395706 -46.729618 
L 652.336775 -47.761406 
L 649.277844 -48.880222 
L 646.218913 -50.076584 
L 643.159982 -51.337039 
L 640.101051 -52.644751 
L 637.04212 -53.980449 
L 633.983189 -55.32363 
L 630.924258 -56.653846 
L 627.865327 -57.95193 
L 624.806396 -59.200999 
L 621.747465 -60.387141 
L 618.688534 -61.499722 
L 615.629603 -62.531334 
L 612.570672 -63.477417 
L 609.511741 -64.335651 
L 606.45281 -65.105226 
L 603.393878 -65.786086 
L 600.334947 -66.378263 
L 597.276016 -66.881394 
L 594.217085 -67.294495 
L 591.158154 -67.616022 
L 588.099223 -67.844224 
L 585.040292 -67.977732 
L 581.981361 -68.016286 
L 578.92243 -67.961465 
L 575.863499 -67.817282 
L 572.804568 -67.59052 
L 569.745637 -67.290731 
L 566.686706 -66.92989 
L 563.627775 -66.521756 
L 560.568844 -66.081068 
L 557.509913 -65.62269 
L 554.450982 -65.160877 
L 551.392051 -64.708744 
L 548.33312 -64.277997 
L 545.274189 -63.878916 
L 542.215258 -63.520519 
L 539.156327 -63.210793 
L 536.097396 -62.956899 
L 533.038465 -62.765241 
L 529.979534 -62.641347 
L 526.920603 -62.58957 
L 523.861672 -62.612649 
L 520.802741 -62.711241 
L 517.74381 -62.88353 
L 514.684879 -63.125042 
L 511.625948 -63.428753 
L 508.567017 -63.785532 
L 505.508086 -64.184907 
L 502.449155 -64.616081 
L 499.390224 -65.069067 
L 496.331293 -65.535785 
L 493.272362 -66.01096 
L 490.213431 -66.492663 
L 487.1545 -66.982416 
L 484.095569 -67.4848 
L 481.036638 -68.00664 
L 477.977707 -68.555856 
L 474.918776 -69.140176 
L 471.859845 -69.765894 
L 468.800914 -70.436878 
L 465.741983 -71.153953 
L 462.683052 -71.914738 
L 459.624121 -72.713898 
L 456.56519 -73.543706 
L 453.506259 -74.394749 
L 450.447328 -75.256615 
L 447.388397 -76.118418 
L 444.329466 -76.969106 
L 441.270534 -77.797557 
L 438.211603 -78.592576 
L 435.152672 -79.342905 
L 432.093741 -80.037373 
L 429.03481 -80.665284 
L 425.975879 -81.21702 
L 422.916948 -81.684829 
L 419.858017 -82.063645 
L 416.799086 -82.351809 
L 413.740155 -82.55154 
L 410.681224 -82.669048 
L 407.622293 -82.714216 
L 404.563362 -82.699876 
L 401.504431 -82.640696 
L 398.4455 -82.551802 
L 395.386569 -82.447272 
L 392.327638 -82.338674 
L 389.268707 -82.233845 
L 386.209776 -82.136091 
L 383.150845 -82.043958 
L 380.091914 -81.951632 
L 377.032983 -81.849938 
L 373.974052 -81.727789 
L 370.915121 -81.573828 
L 367.85619 -81.377968 
L 364.797259 -81.132517 
L 361.738328 -80.832683 
L 358.679397 -80.476339 
L 355.620466 -80.063148 
L 352.561535 -79.59325 
L 349.502604 -79.065857 
L 346.443673 -78.478109 
L 343.384742 -77.824504 
L 340.325811 -77.097064 
L 337.26688 -76.286252 
L 334.207949 -75.382451 
L 331.149018 -74.377713 
L 328.090087 -73.267415 
L 325.031156 -72.051506 
L 321.972225 -70.735112 
L 318.913294 -69.328432 
L 315.854363 -67.845997 
L 312.795432 -66.305474 
L 309.736501 -64.726267 
L 306.67757 -63.128144 
L 303.618639 -61.530088 
L 300.559708 -59.949463 
L 297.500777 -58.401512 
L 294.441846 -56.899145 
L 291.382915 -55.452935 
L 288.323984 -54.071231 
L 285.265053 -52.760338 
L 282.206122 -51.524699 
L 279.14719 -50.367087 
L 276.088259 -49.288794 
L 273.029328 -48.289822 
L 269.970397 -47.369085 
L 266.911466 -46.52461 
L 263.852535 -45.753742 
L 260.793604 -45.053334 
L 257.734673 -44.419903 
L 254.675742 -43.849767 
L 251.616811 -43.339128 
L 248.55788 -42.884127 
L 245.498949 -42.480864 
L 242.440018 -42.125393 
L 239.381087 -41.813708 
L 236.322156 -41.541742 
L 233.263225 -41.30537 
L 230.204294 -41.10045 
L 227.145363 -40.922886 
L 224.086432 -40.768715 
L 221.027501 -40.634214 
L 217.96857 -40.515999 
L 214.909639 -40.411112 
L 211.850708 -40.317086 
L 208.791777 -40.231964 
L 205.732846 -40.154287 
L 202.673915 -40.083048 
L 199.614984 -40.017613 
L 196.556053 -39.957638 
L 193.497122 -39.90297 
L 190.438191 -39.853562 
L 187.37926 -39.809401 
L 184.320329 -39.770449 
L 181.261398 -39.736603 
L 178.202467 -39.707679 
L 175.143536 -39.6834 
L 172.084605 -39.663409 
L 169.025674 -39.647279 
L 165.966743 -39.634542 
L 162.907812 -39.624705 
L 159.848881 -39.617285 
L 156.78995 -39.611821 
L 153.731019 -39.607897 
L 150.672088 -39.60515 
L 147.613157 -39.603277 
L 144.554226 -39.602033 
L 141.495295 -39.601229 
L 138.436364 -39.600724 
z
" style="stroke: #9400d3"/>
    </defs>
    <g clip-path="url(#pb9ad1cb0bc)">
     <use xlink:href="#m0cf74e777c" x="0" y="360" style="fill: #9400d3; fill-opacity: 0.25; stroke: #9400d3"/>
    </g>
   </g>
   <g id="PolyCollection_4">
    <defs>
     <path id="m9bf78aae8a" d="M 559.610338 -39.852328 
L 559.610338 -39.6 
L 560.320295 -39.6 
L 561.030253 -39.6 
L 561.740211 -39.6 
L 562.450169 -39.6 
L 563.160126 -39.6 
L 563.870084 -39.6 
L 564.580042 -39.6 
L 565.289999 -39.6 
L 565.999957 -39.6 
L 566.709915 -39.6 
L 567.419872 -39.6 
L 568.12983 -39.6 
L 568.839788 -39.6 
L 569.549745 -39.6 
L 570.259703 -39.6 
L 570.969661 -39.6 
L 571.679618 -39.6 
L 572.389576 -39.6 
L 573.099534 -39.6 
L 573.809491 -39.6 
L 574.519449 -39.6 
L 575.229407 -39.6 
L 575.939364 -39.6 
L 576.649322 -39.6 
L 577.35928 -39.6 
L 578.069237 -39.6 
L 578.779195 -39.6 
L 579.489153 -39.6 
L 580.19911 -39.6 
L 580.909068 -39.6 
L 581.619026 -39.6 
L 582.328984 -39.6 
L 583.038941 -39.6 
L 583.748899 -39.6 
L 584.458857 -39.6 
L 585.168814 -39.6 
L 585.878772 -39.6 
L 586.58873 -39.6 
L 587.298687 -39.6 
L 588.008645 -39.6 
L 588.718603 -39.6 
L 589.42856 -39.6 
L 590.138518 -39.6 
L 590.848476 -39.6 
L 591.558433 -39.6 
L 592.268391 -39.6 
L 592.978349 -39.6 
L 593.688306 -39.6 
L 594.398264 -39.6 
L 595.108222 -39.6 
L 595.818179 -39.6 
L 596.528137 -39.6 
L 597.238095 -39.6 
L 597.948052 -39.6 
L 598.65801 -39.6 
L 599.367968 -39.6 
L 600.077925 -39.6 
L 600.787883 -39.6 
L 601.497841 -39.6 
L 602.207799 -39.6 
L 602.917756 -39.6 
L 603.627714 -39.6 
L 604.337672 -39.6 
L 605.047629 -39.6 
L 605.757587 -39.6 
L 606.467545 -39.6 
L 607.177502 -39.6 
L 607.88746 -39.6 
L 608.597418 -39.6 
L 609.307375 -39.6 
L 610.017333 -39.6 
L 610.727291 -39.6 
L 611.437248 -39.6 
L 612.147206 -39.6 
L 612.857164 -39.6 
L 613.567121 -39.6 
L 614.277079 -39.6 
L 614.987037 -39.6 
L 615.696994 -39.6 
L 616.406952 -39.6 
L 617.11691 -39.6 
L 617.826867 -39.6 
L 618.536825 -39.6 
L 619.246783 -39.6 
L 619.95674 -39.6 
L 620.666698 -39.6 
L 621.376656 -39.6 
L 622.086614 -39.6 
L 622.796571 -39.6 
L 623.506529 -39.6 
L 624.216487 -39.6 
L 624.926444 -39.6 
L 625.636402 -39.6 
L 626.34636 -39.6 
L 627.056317 -39.6 
L 627.766275 -39.6 
L 628.476233 -39.6 
L 629.18619 -39.6 
L 629.896148 -39.6 
L 630.606106 -39.6 
L 631.316063 -39.6 
L 632.026021 -39.6 
L 632.735979 -39.6 
L 633.445936 -39.6 
L 634.155894 -39.6 
L 634.865852 -39.6 
L 635.575809 -39.6 
L 636.285767 -39.6 
L 636.995725 -39.6 
L 637.705682 -39.6 
L 638.41564 -39.6 
L 639.125598 -39.6 
L 639.835555 -39.6 
L 640.545513 -39.6 
L 641.255471 -39.6 
L 641.965429 -39.6 
L 642.675386 -39.6 
L 643.385344 -39.6 
L 644.095302 -39.6 
L 644.805259 -39.6 
L 645.515217 -39.6 
L 646.225175 -39.6 
L 646.935132 -39.6 
L 647.64509 -39.6 
L 648.355048 -39.6 
L 649.065005 -39.6 
L 649.774963 -39.6 
L 650.484921 -39.6 
L 651.194878 -39.6 
L 651.904836 -39.6 
L 652.614794 -39.6 
L 653.324751 -39.6 
L 654.034709 -39.6 
L 654.744667 -39.6 
L 655.454624 -39.6 
L 656.164582 -39.6 
L 656.87454 -39.6 
L 657.584497 -39.6 
L 658.294455 -39.6 
L 659.004413 -39.6 
L 659.71437 -39.6 
L 660.424328 -39.6 
L 661.134286 -39.6 
L 661.844244 -39.6 
L 662.554201 -39.6 
L 663.264159 -39.6 
L 663.974117 -39.6 
L 664.684074 -39.6 
L 665.394032 -39.6 
L 666.10399 -39.6 
L 666.813947 -39.6 
L 667.523905 -39.6 
L 668.233863 -39.6 
L 668.94382 -39.6 
L 669.653778 -39.6 
L 670.363736 -39.6 
L 671.073693 -39.6 
L 671.783651 -39.6 
L 672.493609 -39.6 
L 673.203566 -39.6 
L 673.913524 -39.6 
L 674.623482 -39.6 
L 675.333439 -39.6 
L 676.043397 -39.6 
L 676.753355 -39.6 
L 677.463312 -39.6 
L 678.17327 -39.6 
L 678.883228 -39.6 
L 679.593185 -39.6 
L 680.303143 -39.6 
L 681.013101 -39.6 
L 681.723059 -39.6 
L 682.433016 -39.6 
L 683.142974 -39.6 
L 683.852932 -39.6 
L 684.562889 -39.6 
L 685.272847 -39.6 
L 685.982805 -39.6 
L 686.692762 -39.6 
L 687.40272 -39.6 
L 688.112678 -39.6 
L 688.822635 -39.6 
L 689.532593 -39.6 
L 690.242551 -39.6 
L 690.952508 -39.6 
L 691.662466 -39.6 
L 692.372424 -39.6 
L 693.082381 -39.6 
L 693.792339 -39.6 
L 694.502297 -39.6 
L 695.212254 -39.6 
L 695.922212 -39.6 
L 696.63217 -39.6 
L 697.342127 -39.6 
L 698.052085 -39.6 
L 698.762043 -39.6 
L 699.472 -39.6 
L 700.181958 -39.6 
L 700.891916 -39.6 
L 700.891916 -39.885815 
L 700.891916 -39.885815 
L 700.181958 -39.95392 
L 699.472 -40.036183 
L 698.762043 -40.135032 
L 698.052085 -40.253194 
L 697.342127 -40.393706 
L 696.63217 -40.559923 
L 695.922212 -40.755517 
L 695.212254 -40.984472 
L 694.502297 -41.251067 
L 693.792339 -41.559849 
L 693.082381 -41.915599 
L 692.372424 -42.32328 
L 691.662466 -42.787979 
L 690.952508 -43.314829 
L 690.242551 -43.908928 
L 689.532593 -44.575236 
L 688.822635 -45.31847 
L 688.112678 -46.142984 
L 687.40272 -47.052647 
L 686.692762 -48.050715 
L 685.982805 -49.139703 
L 685.272847 -50.321264 
L 684.562889 -51.59607 
L 683.852932 -52.963714 
L 683.142974 -54.422624 
L 682.433016 -55.969999 
L 681.723059 -57.601777 
L 681.013101 -59.312627 
L 680.303143 -61.095978 
L 679.593185 -62.944085 
L 678.883228 -64.848131 
L 678.17327 -66.798368 
L 677.463312 -68.784291 
L 676.753355 -70.79485 
L 676.043397 -72.818695 
L 675.333439 -74.844433 
L 674.623482 -76.860923 
L 673.913524 -78.857563 
L 673.203566 -80.824593 
L 672.493609 -82.753388 
L 671.783651 -84.636734 
L 671.073693 -86.469087 
L 670.363736 -88.246787 
L 669.653778 -89.968249 
L 668.94382 -91.634097 
L 668.233863 -93.247247 
L 667.523905 -94.812941 
L 666.813947 -96.338718 
L 666.10399 -97.834337 
L 665.394032 -99.311635 
L 664.684074 -100.784346 
L 663.974117 -102.267866 
L 663.264159 -103.778986 
L 662.554201 -105.335589 
L 661.844244 -106.956329 
L 661.134286 -108.660296 
L 660.424328 -110.466676 
L 659.71437 -112.394416 
L 659.004413 -114.4619 
L 658.294455 -116.686647 
L 657.584497 -119.085032 
L 656.87454 -121.672032 
L 656.164582 -124.461016 
L 655.454624 -127.463554 
L 654.744667 -130.689271 
L 654.034709 -134.14573 
L 653.324751 -137.838346 
L 652.614794 -141.770327 
L 651.904836 -145.942641 
L 651.194878 -150.354003 
L 650.484921 -155.000878 
L 649.774963 -159.877495 
L 649.065005 -164.975873 
L 648.355048 -170.285847 
L 647.64509 -175.795099 
L 646.935132 -181.489192 
L 646.225175 -187.351593 
L 645.515217 -193.363702 
L 644.805259 -199.504878 
L 644.095302 -205.752456 
L 643.385344 -212.081774 
L 642.675386 -218.466196 
L 641.965429 -224.877142 
L 641.255471 -231.284128 
L 640.545513 -237.654819 
L 639.835555 -243.955104 
L 639.125598 -250.149196 
L 638.41564 -256.199757 
L 637.705682 -262.068064 
L 636.995725 -267.714222 
L 636.285767 -273.097413 
L 635.575809 -278.176204 
L 634.865852 -282.908908 
L 634.155894 -287.253999 
L 633.445936 -291.170582 
L 632.735979 -294.618911 
L 632.026021 -297.560955 
L 631.316063 -299.961001 
L 630.606106 -301.78628 
L 629.896148 -303.007604 
L 629.18619 -303.6 
L 628.476233 -303.543322 
L 627.766275 -302.822819 
L 627.056317 -301.429644 
L 626.34636 -299.361283 
L 625.636402 -296.621879 
L 624.926444 -293.222454 
L 624.216487 -289.180986 
L 623.506529 -284.522361 
L 622.796571 -279.278175 
L 622.086614 -273.486392 
L 621.376656 -267.19086 
L 620.666698 -260.440697 
L 619.95674 -253.289553 
L 619.246783 -245.794778 
L 618.536825 -238.016502 
L 617.826867 -230.016668 
L 617.11691 -221.858027 
L 616.406952 -213.60314 
L 615.696994 -205.313397 
L 614.987037 -197.04809 
L 614.277079 -188.86356 
L 613.567121 -180.812437 
L 612.857164 -172.942992 
L 612.147206 -165.298605 
L 611.437248 -157.917374 
L 610.727291 -150.831843 
L 610.017333 -144.068869 
L 609.307375 -137.649613 
L 608.597418 -131.589638 
L 607.88746 -125.899117 
L 607.177502 -120.583119 
L 606.467545 -115.641976 
L 605.757587 -111.071689 
L 605.047629 -106.864385 
L 604.337672 -103.008784 
L 603.627714 -99.490677 
L 602.917756 -96.293398 
L 602.207799 -93.398283 
L 601.497841 -90.785099 
L 600.787883 -88.432453 
L 600.077925 -86.318165 
L 599.367968 -84.419606 
L 598.65801 -82.714015 
L 597.948052 -81.17877 
L 597.238095 -79.791649 
L 596.528137 -78.531049 
L 595.818179 -77.376196 
L 595.108222 -76.307327 
L 594.398264 -75.305859 
L 593.688306 -74.354532 
L 592.978349 -73.437547 
L 592.268391 -72.540677 
L 591.558433 -71.651355 
L 590.848476 -70.758755 
L 590.138518 -69.853836 
L 589.42856 -68.929366 
L 588.718603 -67.979918 
L 588.008645 -67.00184 
L 587.298687 -65.993194 
L 586.58873 -64.953665 
L 585.878772 -63.884447 
L 585.168814 -62.7881 
L 584.458857 -61.668385 
L 583.748899 -60.530087 
L 583.038941 -59.378817 
L 582.328984 -58.220812 
L 581.619026 -57.062729 
L 580.909068 -55.911445 
L 580.19911 -54.773862 
L 579.489153 -53.656725 
L 578.779195 -52.566465 
L 578.069237 -51.509049 
L 577.35928 -50.489866 
L 576.649322 -49.513635 
L 575.939364 -48.58433 
L 575.229407 -47.705145 
L 574.519449 -46.878471 
L 573.809491 -46.105906 
L 573.099534 -45.388276 
L 572.389576 -44.725682 
L 571.679618 -44.117557 
L 570.969661 -43.562732 
L 570.259703 -43.059521 
L 569.549745 -42.605792 
L 568.839788 -42.199061 
L 568.12983 -41.836567 
L 567.419872 -41.515356 
L 566.709915 -41.232353 
L 565.999957 -40.984429 
L 565.289999 -40.768463 
L 564.580042 -40.581395 
L 563.870084 -40.420264 
L 563.160126 -40.282247 
L 562.450169 -40.164683 
L 561.740211 -40.065093 
L 561.030253 -39.981195 
L 560.320295 -39.910901 
L 559.610338 -39.852328 
z
" style="stroke: #0000ff"/>
    </defs>
    <g clip-path="url(#pb9ad1cb0bc)">
     <use xlink:href="#m9bf78aae8a" x="0" y="360" style="fill: #0000ff; fill-opacity: 0.25; stroke: #0000ff"/>
    </g>
   </g>
   <g id="matplotlib.axis_1">
    <g id="xtick_1">
     <g id="line2d_1">
      <defs>
       <path id="mea4323c32e" d="M 0 0 
L 0 3.5 
" style="stroke: #000000; stroke-width: 0.8"/>
      </defs>
      <g>
       <use xlink:href="#mea4323c32e" x="112.263411" y="320.4" style="stroke: #000000; stroke-width: 0.8"/>
      </g>
     </g>
     <g id="text_1">
      <!-- −8 -->
      <g transform="translate(104.892318 334.998438) scale(0.1 -0.1)">
       <defs>
        <path id="DejaVuSans-2212" d="M 678 2272 
L 4684 2272 
L 4684 1741 
L 678 1741 
L 678 2272 
z
" transform="scale(0.015625)"/>
        <path id="DejaVuSans-38" d="M 2034 2216 
Q 1584 2216 1326 1975 
Q 1069 1734 1069 1313 
Q 1069 891 1326 650 
Q 1584 409 2034 409 
Q 2484 409 2743 651 
Q 3003 894 3003 1313 
Q 3003 1734 2745 1975 
Q 2488 2216 2034 2216 
z
M 1403 2484 
Q 997 2584 770 2862 
Q 544 3141 544 3541 
Q 544 4100 942 4425 
Q 1341 4750 2034 4750 
Q 2731 4750 3128 4425 
Q 3525 4100 3525 3541 
Q 3525 3141 3298 2862 
Q 3072 2584 2669 2484 
Q 3125 2378 3379 2068 
Q 3634 1759 3634 1313 
Q 3634 634 3220 271 
Q 2806 -91 2034 -91 
Q 1263 -91 848 271 
Q 434 634 434 1313 
Q 434 1759 690 2068 
Q 947 2378 1403 2484 
z
M 1172 3481 
Q 1172 3119 1398 2916 
Q 1625 2713 2034 2713 
Q 2441 2713 2670 2916 
Q 2900 3119 2900 3481 
Q 2900 3844 2670 4047 
Q 2441 4250 2034 4250 
Q 1625 4250 1398 4047 
Q 1172 3844 1172 3481 
z
" transform="scale(0.015625)"/>
       </defs>
       <use xlink:href="#DejaVuSans-2212"/>
       <use xlink:href="#DejaVuSans-38" x="83.789062"/>
      </g>
     </g>
    </g>
    <g id="xtick_2">
     <g id="line2d_2">
      <g>
       <use xlink:href="#mea4323c32e" x="200.996278" y="320.4" style="stroke: #000000; stroke-width: 0.8"/>
      </g>
     </g>
     <g id="text_2">
      <!-- −6 -->
      <g transform="translate(193.625184 334.998438) scale(0.1 -0.1)">
       <defs>
        <path id="DejaVuSans-36" d="M 2113 2584 
Q 1688 2584 1439 2293 
Q 1191 2003 1191 1497 
Q 1191 994 1439 701 
Q 1688 409 2113 409 
Q 2538 409 2786 701 
Q 3034 994 3034 1497 
Q 3034 2003 2786 2293 
Q 2538 2584 2113 2584 
z
M 3366 4563 
L 3366 3988 
Q 3128 4100 2886 4159 
Q 2644 4219 2406 4219 
Q 1781 4219 1451 3797 
Q 1122 3375 1075 2522 
Q 1259 2794 1537 2939 
Q 1816 3084 2150 3084 
Q 2853 3084 3261 2657 
Q 3669 2231 3669 1497 
Q 3669 778 3244 343 
Q 2819 -91 2113 -91 
Q 1303 -91 875 529 
Q 447 1150 447 2328 
Q 447 3434 972 4092 
Q 1497 4750 2381 4750 
Q 2619 4750 2861 4703 
Q 3103 4656 3366 4563 
z
" transform="scale(0.015625)"/>
       </defs>
       <use xlink:href="#DejaVuSans-2212"/>
       <use xlink:href="#DejaVuSans-36" x="83.789062"/>
      </g>
     </g>
    </g>
    <g id="xtick_3">
     <g id="line2d_3">
      <g>
       <use xlink:href="#mea4323c32e" x="289.729144" y="320.4" style="stroke: #000000; stroke-width: 0.8"/>
      </g>
     </g>
     <g id="text_3">
      <!-- −4 -->
      <g transform="translate(282.358051 334.998438) scale(0.1 -0.1)">
       <defs>
        <path id="DejaVuSans-34" d="M 2419 4116 
L 825 1625 
L 2419 1625 
L 2419 4116 
z
M 2253 4666 
L 3047 4666 
L 3047 1625 
L 3713 1625 
L 3713 1100 
L 3047 1100 
L 3047 0 
L 2419 0 
L 2419 1100 
L 313 1100 
L 313 1709 
L 2253 4666 
z
" transform="scale(0.015625)"/>
       </defs>
       <use xlink:href="#DejaVuSans-2212"/>
       <use xlink:href="#DejaVuSans-34" x="83.789062"/>
      </g>
     </g>
    </g>
    <g id="xtick_4">
     <g id="line2d_4">
      <g>
       <use xlink:href="#mea4323c32e" x="378.462011" y="320.4" style="stroke: #000000; stroke-width: 0.8"/>
      </g>
     </g>
     <g id="text_4">
      <!-- −2 -->
      <g transform="translate(371.090917 334.998438) scale(0.1 -0.1)">
       <defs>
        <path id="DejaVuSans-32" d="M 1228 531 
L 3431 531 
L 3431 0 
L 469 0 
L 469 531 
Q 828 903 1448 1529 
Q 2069 2156 2228 2338 
Q 2531 2678 2651 2914 
Q 2772 3150 2772 3378 
Q 2772 3750 2511 3984 
Q 2250 4219 1831 4219 
Q 1534 4219 1204 4116 
Q 875 4013 500 3803 
L 500 4441 
Q 881 4594 1212 4672 
Q 1544 4750 1819 4750 
Q 2544 4750 2975 4387 
Q 3406 4025 3406 3419 
Q 3406 3131 3298 2873 
Q 3191 2616 2906 2266 
Q 2828 2175 2409 1742 
Q 1991 1309 1228 531 
z
" transform="scale(0.015625)"/>
       </defs>
       <use xlink:href="#DejaVuSans-2212"/>
       <use xlink:href="#DejaVuSans-32" x="83.789062"/>
      </g>
     </g>
    </g>
    <g id="xtick_5">
     <g id="line2d_5">
      <g>
       <use xlink:href="#mea4323c32e" x="467.194878" y="320.4" style="stroke: #000000; stroke-width: 0.8"/>
      </g>
     </g>
     <g id="text_5">
      <!-- 0 -->
      <g transform="translate(464.013628 334.998438) scale(0.1 -0.1)">
       <defs>
        <path id="DejaVuSans-30" d="M 2034 4250 
Q 1547 4250 1301 3770 
Q 1056 3291 1056 2328 
Q 1056 1369 1301 889 
Q 1547 409 2034 409 
Q 2525 409 2770 889 
Q 3016 1369 3016 2328 
Q 3016 3291 2770 3770 
Q 2525 4250 2034 4250 
z
M 2034 4750 
Q 2819 4750 3233 4129 
Q 3647 3509 3647 2328 
Q 3647 1150 3233 529 
Q 2819 -91 2034 -91 
Q 1250 -91 836 529 
Q 422 1150 422 2328 
Q 422 3509 836 4129 
Q 1250 4750 2034 4750 
z
" transform="scale(0.015625)"/>
       </defs>
       <use xlink:href="#DejaVuSans-30"/>
      </g>
     </g>
    </g>
    <g id="xtick_6">
     <g id="line2d_6">
      <g>
       <use xlink:href="#mea4323c32e" x="555.927744" y="320.4" style="stroke: #000000; stroke-width: 0.8"/>
      </g>
     </g>
     <g id="text_6">
      <!-- 2 -->
      <g transform="translate(552.746494 334.998438) scale(0.1 -0.1)">
       <use xlink:href="#DejaVuSans-32"/>
      </g>
     </g>
    </g>
    <g id="xtick_7">
     <g id="line2d_7">
      <g>
       <use xlink:href="#mea4323c32e" x="644.660611" y="320.4" style="stroke: #000000; stroke-width: 0.8"/>
      </g>
     </g>
     <g id="text_7">
      <!-- 4 -->
      <g transform="translate(641.479361 334.998438) scale(0.1 -0.1)">
       <use xlink:href="#DejaVuSans-34"/>
      </g>
     </g>
    </g>
    <g id="xtick_8">
     <g id="line2d_8">
      <g>
       <use xlink:href="#mea4323c32e" x="733.393477" y="320.4" style="stroke: #000000; stroke-width: 0.8"/>
      </g>
     </g>
     <g id="text_8">
      <!-- 6 -->
      <g transform="translate(730.212227 334.998438) scale(0.1 -0.1)">
       <use xlink:href="#DejaVuSans-36"/>
      </g>
     </g>
    </g>
    <g id="text_9">
     <!-- ihs_afr_std -->
     <g transform="translate(416.01875 348.676562) scale(0.1 -0.1)">
      <defs>
       <path id="DejaVuSans-69" d="M 603 3500 
L 1178 3500 
L 1178 0 
L 603 0 
L 603 3500 
z
M 603 4863 
L 1178 4863 
L 1178 4134 
L 603 4134 
L 603 4863 
z
" transform="scale(0.015625)"/>
       <path id="DejaVuSans-68" d="M 3513 2113 
L 3513 0 
L 2938 0 
L 2938 2094 
Q 2938 2591 2744 2837 
Q 2550 3084 2163 3084 
Q 1697 3084 1428 2787 
Q 1159 2491 1159 1978 
L 1159 0 
L 581 0 
L 581 4863 
L 1159 4863 
L 1159 2956 
Q 1366 3272 1645 3428 
Q 1925 3584 2291 3584 
Q 2894 3584 3203 3211 
Q 3513 2838 3513 2113 
z
" transform="scale(0.015625)"/>
       <path id="DejaVuSans-73" d="M 2834 3397 
L 2834 2853 
Q 2591 2978 2328 3040 
Q 2066 3103 1784 3103 
Q 1356 3103 1142 2972 
Q 928 2841 928 2578 
Q 928 2378 1081 2264 
Q 1234 2150 1697 2047 
L 1894 2003 
Q 2506 1872 2764 1633 
Q 3022 1394 3022 966 
Q 3022 478 2636 193 
Q 2250 -91 1575 -91 
Q 1294 -91 989 -36 
Q 684 19 347 128 
L 347 722 
Q 666 556 975 473 
Q 1284 391 1588 391 
Q 1994 391 2212 530 
Q 2431 669 2431 922 
Q 2431 1156 2273 1281 
Q 2116 1406 1581 1522 
L 1381 1569 
Q 847 1681 609 1914 
Q 372 2147 372 2553 
Q 372 3047 722 3315 
Q 1072 3584 1716 3584 
Q 2034 3584 2315 3537 
Q 2597 3491 2834 3397 
z
" transform="scale(0.015625)"/>
       <path id="DejaVuSans-5f" d="M 3263 -1063 
L 3263 -1509 
L -63 -1509 
L -63 -1063 
L 3263 -1063 
z
" transform="scale(0.015625)"/>
       <path id="DejaVuSans-61" d="M 2194 1759 
Q 1497 1759 1228 1600 
Q 959 1441 959 1056 
Q 959 750 1161 570 
Q 1363 391 1709 391 
Q 2188 391 2477 730 
Q 2766 1069 2766 1631 
L 2766 1759 
L 2194 1759 
z
M 3341 1997 
L 3341 0 
L 2766 0 
L 2766 531 
Q 2569 213 2275 61 
Q 1981 -91 1556 -91 
Q 1019 -91 701 211 
Q 384 513 384 1019 
Q 384 1609 779 1909 
Q 1175 2209 1959 2209 
L 2766 2209 
L 2766 2266 
Q 2766 2663 2505 2880 
Q 2244 3097 1772 3097 
Q 1472 3097 1187 3025 
Q 903 2953 641 2809 
L 641 3341 
Q 956 3463 1253 3523 
Q 1550 3584 1831 3584 
Q 2591 3584 2966 3190 
Q 3341 2797 3341 1997 
z
" transform="scale(0.015625)"/>
       <path id="DejaVuSans-66" d="M 2375 4863 
L 2375 4384 
L 1825 4384 
Q 1516 4384 1395 4259 
Q 1275 4134 1275 3809 
L 1275 3500 
L 2222 3500 
L 2222 3053 
L 1275 3053 
L 1275 0 
L 697 0 
L 697 3053 
L 147 3053 
L 147 3500 
L 697 3500 
L 697 3744 
Q 697 4328 969 4595 
Q 1241 4863 1831 4863 
L 2375 4863 
z
" transform="scale(0.015625)"/>
       <path id="DejaVuSans-72" d="M 2631 2963 
Q 2534 3019 2420 3045 
Q 2306 3072 2169 3072 
Q 1681 3072 1420 2755 
Q 1159 2438 1159 1844 
L 1159 0 
L 581 0 
L 581 3500 
L 1159 3500 
L 1159 2956 
Q 1341 3275 1631 3429 
Q 1922 3584 2338 3584 
Q 2397 3584 2469 3576 
Q 2541 3569 2628 3553 
L 2631 2963 
z
" transform="scale(0.015625)"/>
       <path id="DejaVuSans-74" d="M 1172 4494 
L 1172 3500 
L 2356 3500 
L 2356 3053 
L 1172 3053 
L 1172 1153 
Q 1172 725 1289 603 
Q 1406 481 1766 481 
L 2356 481 
L 2356 0 
L 1766 0 
Q 1100 0 847 248 
Q 594 497 594 1153 
L 594 3053 
L 172 3053 
L 172 3500 
L 594 3500 
L 594 4494 
L 1172 4494 
z
" transform="scale(0.015625)"/>
       <path id="DejaVuSans-64" d="M 2906 2969 
L 2906 4863 
L 3481 4863 
L 3481 0 
L 2906 0 
L 2906 525 
Q 2725 213 2448 61 
Q 2172 -91 1784 -91 
Q 1150 -91 751 415 
Q 353 922 353 1747 
Q 353 2572 751 3078 
Q 1150 3584 1784 3584 
Q 2172 3584 2448 3432 
Q 2725 3281 2906 2969 
z
M 947 1747 
Q 947 1113 1208 752 
Q 1469 391 1925 391 
Q 2381 391 2643 752 
Q 2906 1113 2906 1747 
Q 2906 2381 2643 2742 
Q 2381 3103 1925 3103 
Q 1469 3103 1208 2742 
Q 947 2381 947 1747 
z
" transform="scale(0.015625)"/>
      </defs>
      <use xlink:href="#DejaVuSans-69"/>
      <use xlink:href="#DejaVuSans-68" x="27.783203"/>
      <use xlink:href="#DejaVuSans-73" x="91.162109"/>
      <use xlink:href="#DejaVuSans-5f" x="143.261719"/>
      <use xlink:href="#DejaVuSans-61" x="193.261719"/>
      <use xlink:href="#DejaVuSans-66" x="254.541016"/>
      <use xlink:href="#DejaVuSans-72" x="289.746094"/>
      <use xlink:href="#DejaVuSans-5f" x="330.859375"/>
      <use xlink:href="#DejaVuSans-73" x="380.859375"/>
      <use xlink:href="#DejaVuSans-74" x="432.958984"/>
      <use xlink:href="#DejaVuSans-64" x="472.167969"/>
     </g>
    </g>
   </g>
   <g id="matplotlib.axis_2">
    <g id="ytick_1">
     <g id="line2d_9">
      <defs>
       <path id="m0b4543b161" d="M 0 0 
L -3.5 0 
" style="stroke: #000000; stroke-width: 0.8"/>
      </defs>
      <g>
       <use xlink:href="#m0b4543b161" x="108" y="320.4" style="stroke: #000000; stroke-width: 0.8"/>
      </g>
     </g>
     <g id="text_10">
      <!-- 0.0 -->
      <g transform="translate(85.096875 324.199219) scale(0.1 -0.1)">
       <defs>
        <path id="DejaVuSans-2e" d="M 684 794 
L 1344 794 
L 1344 0 
L 684 0 
L 684 794 
z
" transform="scale(0.015625)"/>
       </defs>
       <use xlink:href="#DejaVuSans-30"/>
       <use xlink:href="#DejaVuSans-2e" x="63.623047"/>
       <use xlink:href="#DejaVuSans-30" x="95.410156"/>
      </g>
     </g>
    </g>
    <g id="ytick_2">
     <g id="line2d_10">
      <g>
       <use xlink:href="#m0b4543b161" x="108" y="268.691244" style="stroke: #000000; stroke-width: 0.8"/>
      </g>
     </g>
     <g id="text_11">
      <!-- 0.2 -->
      <g transform="translate(85.096875 272.490463) scale(0.1 -0.1)">
       <use xlink:href="#DejaVuSans-30"/>
       <use xlink:href="#DejaVuSans-2e" x="63.623047"/>
       <use xlink:href="#DejaVuSans-32" x="95.410156"/>
      </g>
     </g>
    </g>
    <g id="ytick_3">
     <g id="line2d_11">
      <g>
       <use xlink:href="#m0b4543b161" x="108" y="216.982488" style="stroke: #000000; stroke-width: 0.8"/>
      </g>
     </g>
     <g id="text_12">
      <!-- 0.4 -->
      <g transform="translate(85.096875 220.781706) scale(0.1 -0.1)">
       <use xlink:href="#DejaVuSans-30"/>
       <use xlink:href="#DejaVuSans-2e" x="63.623047"/>
       <use xlink:href="#DejaVuSans-34" x="95.410156"/>
      </g>
     </g>
    </g>
    <g id="ytick_4">
     <g id="line2d_12">
      <g>
       <use xlink:href="#m0b4543b161" x="108" y="165.273732" style="stroke: #000000; stroke-width: 0.8"/>
      </g>
     </g>
     <g id="text_13">
      <!-- 0.6 -->
      <g transform="translate(85.096875 169.07295) scale(0.1 -0.1)">
       <use xlink:href="#DejaVuSans-30"/>
       <use xlink:href="#DejaVuSans-2e" x="63.623047"/>
       <use xlink:href="#DejaVuSans-36" x="95.410156"/>
      </g>
     </g>
    </g>
    <g id="ytick_5">
     <g id="line2d_13">
      <g>
       <use xlink:href="#m0b4543b161" x="108" y="113.564975" style="stroke: #000000; stroke-width: 0.8"/>
      </g>
     </g>
     <g id="text_14">
      <!-- 0.8 -->
      <g transform="translate(85.096875 117.364194) scale(0.1 -0.1)">
       <use xlink:href="#DejaVuSans-30"/>
       <use xlink:href="#DejaVuSans-2e" x="63.623047"/>
       <use xlink:href="#DejaVuSans-38" x="95.410156"/>
      </g>
     </g>
    </g>
    <g id="ytick_6">
     <g id="line2d_14">
      <g>
       <use xlink:href="#m0b4543b161" x="108" y="61.856219" style="stroke: #000000; stroke-width: 0.8"/>
      </g>
     </g>
     <g id="text_15">
      <!-- 1.0 -->
      <g transform="translate(85.096875 65.655438) scale(0.1 -0.1)">
       <defs>
        <path id="DejaVuSans-31" d="M 794 531 
L 1825 531 
L 1825 4091 
L 703 3866 
L 703 4441 
L 1819 4666 
L 2450 4666 
L 2450 531 
L 3481 531 
L 3481 0 
L 794 0 
L 794 531 
z
" transform="scale(0.015625)"/>
       </defs>
       <use xlink:href="#DejaVuSans-31"/>
       <use xlink:href="#DejaVuSans-2e" x="63.623047"/>
       <use xlink:href="#DejaVuSans-30" x="95.410156"/>
      </g>
     </g>
    </g>
    <g id="text_16">
     <!-- Density -->
     <g transform="translate(79.017187 200.808594) rotate(-90) scale(0.1 -0.1)">
      <defs>
       <path id="DejaVuSans-44" d="M 1259 4147 
L 1259 519 
L 2022 519 
Q 2988 519 3436 956 
Q 3884 1394 3884 2338 
Q 3884 3275 3436 3711 
Q 2988 4147 2022 4147 
L 1259 4147 
z
M 628 4666 
L 1925 4666 
Q 3281 4666 3915 4102 
Q 4550 3538 4550 2338 
Q 4550 1131 3912 565 
Q 3275 0 1925 0 
L 628 0 
L 628 4666 
z
" transform="scale(0.015625)"/>
       <path id="DejaVuSans-65" d="M 3597 1894 
L 3597 1613 
L 953 1613 
Q 991 1019 1311 708 
Q 1631 397 2203 397 
Q 2534 397 2845 478 
Q 3156 559 3463 722 
L 3463 178 
Q 3153 47 2828 -22 
Q 2503 -91 2169 -91 
Q 1331 -91 842 396 
Q 353 884 353 1716 
Q 353 2575 817 3079 
Q 1281 3584 2069 3584 
Q 2775 3584 3186 3129 
Q 3597 2675 3597 1894 
z
M 3022 2063 
Q 3016 2534 2758 2815 
Q 2500 3097 2075 3097 
Q 1594 3097 1305 2825 
Q 1016 2553 972 2059 
L 3022 2063 
z
" transform="scale(0.015625)"/>
       <path id="DejaVuSans-6e" d="M 3513 2113 
L 3513 0 
L 2938 0 
L 2938 2094 
Q 2938 2591 2744 2837 
Q 2550 3084 2163 3084 
Q 1697 3084 1428 2787 
Q 1159 2491 1159 1978 
L 1159 0 
L 581 0 
L 581 3500 
L 1159 3500 
L 1159 2956 
Q 1366 3272 1645 3428 
Q 1925 3584 2291 3584 
Q 2894 3584 3203 3211 
Q 3513 2838 3513 2113 
z
" transform="scale(0.015625)"/>
       <path id="DejaVuSans-79" d="M 2059 -325 
Q 1816 -950 1584 -1140 
Q 1353 -1331 966 -1331 
L 506 -1331 
L 506 -850 
L 844 -850 
Q 1081 -850 1212 -737 
Q 1344 -625 1503 -206 
L 1606 56 
L 191 3500 
L 800 3500 
L 1894 763 
L 2988 3500 
L 3597 3500 
L 2059 -325 
z
" transform="scale(0.015625)"/>
      </defs>
      <use xlink:href="#DejaVuSans-44"/>
      <use xlink:href="#DejaVuSans-65" x="77.001953"/>
      <use xlink:href="#DejaVuSans-6e" x="138.525391"/>
      <use xlink:href="#DejaVuSans-73" x="201.904297"/>
      <use xlink:href="#DejaVuSans-69" x="254.003906"/>
      <use xlink:href="#DejaVuSans-74" x="281.787109"/>
      <use xlink:href="#DejaVuSans-79" x="320.996094"/>
     </g>
    </g>
   </g>
   <g id="patch_3">
    <path d="M 108 320.4 
L 108 43.2 
" style="fill: none; stroke: #000000; stroke-width: 0.8; stroke-linejoin: miter; stroke-linecap: square"/>
   </g>
   <g id="patch_4">
    <path d="M 777.6 320.4 
L 777.6 43.2 
" style="fill: none; stroke: #000000; stroke-width: 0.8; stroke-linejoin: miter; stroke-linecap: square"/>
   </g>
   <g id="patch_5">
    <path d="M 108 320.4 
L 777.6 320.4 
" style="fill: none; stroke: #000000; stroke-width: 0.8; stroke-linejoin: miter; stroke-linecap: square"/>
   </g>
   <g id="patch_6">
    <path d="M 108 43.2 
L 777.6 43.2 
" style="fill: none; stroke: #000000; stroke-width: 0.8; stroke-linejoin: miter; stroke-linecap: square"/>
   </g>
   <g id="text_17">
    <!-- iHS Distribution -->
    <g transform="translate(395.9025 37.2) scale(0.12 -0.12)">
     <defs>
      <path id="DejaVuSans-48" d="M 628 4666 
L 1259 4666 
L 1259 2753 
L 3553 2753 
L 3553 4666 
L 4184 4666 
L 4184 0 
L 3553 0 
L 3553 2222 
L 1259 2222 
L 1259 0 
L 628 0 
L 628 4666 
z
" transform="scale(0.015625)"/>
      <path id="DejaVuSans-53" d="M 3425 4513 
L 3425 3897 
Q 3066 4069 2747 4153 
Q 2428 4238 2131 4238 
Q 1616 4238 1336 4038 
Q 1056 3838 1056 3469 
Q 1056 3159 1242 3001 
Q 1428 2844 1947 2747 
L 2328 2669 
Q 3034 2534 3370 2195 
Q 3706 1856 3706 1288 
Q 3706 609 3251 259 
Q 2797 -91 1919 -91 
Q 1588 -91 1214 -16 
Q 841 59 441 206 
L 441 856 
Q 825 641 1194 531 
Q 1563 422 1919 422 
Q 2459 422 2753 634 
Q 3047 847 3047 1241 
Q 3047 1584 2836 1778 
Q 2625 1972 2144 2069 
L 1759 2144 
Q 1053 2284 737 2584 
Q 422 2884 422 3419 
Q 422 4038 858 4394 
Q 1294 4750 2059 4750 
Q 2388 4750 2728 4690 
Q 3069 4631 3425 4513 
z
" transform="scale(0.015625)"/>
      <path id="DejaVuSans-20" transform="scale(0.015625)"/>
      <path id="DejaVuSans-62" d="M 3116 1747 
Q 3116 2381 2855 2742 
Q 2594 3103 2138 3103 
Q 1681 3103 1420 2742 
Q 1159 2381 1159 1747 
Q 1159 1113 1420 752 
Q 1681 391 2138 391 
Q 2594 391 2855 752 
Q 3116 1113 3116 1747 
z
M 1159 2969 
Q 1341 3281 1617 3432 
Q 1894 3584 2278 3584 
Q 2916 3584 3314 3078 
Q 3713 2572 3713 1747 
Q 3713 922 3314 415 
Q 2916 -91 2278 -91 
Q 1894 -91 1617 61 
Q 1341 213 1159 525 
L 1159 0 
L 581 0 
L 581 4863 
L 1159 4863 
L 1159 2969 
z
" transform="scale(0.015625)"/>
      <path id="DejaVuSans-75" d="M 544 1381 
L 544 3500 
L 1119 3500 
L 1119 1403 
Q 1119 906 1312 657 
Q 1506 409 1894 409 
Q 2359 409 2629 706 
Q 2900 1003 2900 1516 
L 2900 3500 
L 3475 3500 
L 3475 0 
L 2900 0 
L 2900 538 
Q 2691 219 2414 64 
Q 2138 -91 1772 -91 
Q 1169 -91 856 284 
Q 544 659 544 1381 
z
M 1991 3584 
L 1991 3584 
z
" transform="scale(0.015625)"/>
      <path id="DejaVuSans-6f" d="M 1959 3097 
Q 1497 3097 1228 2736 
Q 959 2375 959 1747 
Q 959 1119 1226 758 
Q 1494 397 1959 397 
Q 2419 397 2687 759 
Q 2956 1122 2956 1747 
Q 2956 2369 2687 2733 
Q 2419 3097 1959 3097 
z
M 1959 3584 
Q 2709 3584 3137 3096 
Q 3566 2609 3566 1747 
Q 3566 888 3137 398 
Q 2709 -91 1959 -91 
Q 1206 -91 779 398 
Q 353 888 353 1747 
Q 353 2609 779 3096 
Q 1206 3584 1959 3584 
z
" transform="scale(0.015625)"/>
     </defs>
     <use xlink:href="#DejaVuSans-69"/>
     <use xlink:href="#DejaVuSans-48" x="27.783203"/>
     <use xlink:href="#DejaVuSans-53" x="102.978516"/>
     <use xlink:href="#DejaVuSans-20" x="166.455078"/>
     <use xlink:href="#DejaVuSans-44" x="198.242188"/>
     <use xlink:href="#DejaVuSans-69" x="275.244141"/>
     <use xlink:href="#DejaVuSans-73" x="303.027344"/>
     <use xlink:href="#DejaVuSans-74" x="355.126953"/>
     <use xlink:href="#DejaVuSans-72" x="394.335938"/>
     <use xlink:href="#DejaVuSans-69" x="435.449219"/>
     <use xlink:href="#DejaVuSans-62" x="463.232422"/>
     <use xlink:href="#DejaVuSans-75" x="526.708984"/>
     <use xlink:href="#DejaVuSans-74" x="590.087891"/>
     <use xlink:href="#DejaVuSans-69" x="629.296875"/>
     <use xlink:href="#DejaVuSans-6f" x="657.080078"/>
     <use xlink:href="#DejaVuSans-6e" x="718.261719"/>
    </g>
   </g>
   <g id="legend_1">
    <g id="patch_7">
     <path d="M 692.420313 110.46875 
L 770.6 110.46875 
Q 772.6 110.46875 772.6 108.46875 
L 772.6 50.2 
Q 772.6 48.2 770.6 48.2 
L 692.420313 48.2 
Q 690.420313 48.2 690.420313 50.2 
L 690.420313 108.46875 
Q 690.420313 110.46875 692.420313 110.46875 
z
" style="fill: #ffffff; opacity: 0.8; stroke: #cccccc; stroke-linejoin: miter"/>
    </g>
    <g id="patch_8">
     <path d="M 694.420313 59.798437 
L 714.420313 59.798437 
L 714.420313 52.798437 
L 694.420313 52.798437 
z
" style="fill: #ff00ff; fill-opacity: 0.25; stroke: #ff00ff; stroke-linejoin: miter"/>
    </g>
    <g id="text_18">
     <!-- neutral -->
     <g transform="translate(722.420313 59.798437) scale(0.1 -0.1)">
      <defs>
       <path id="DejaVuSans-6c" d="M 603 4863 
L 1178 4863 
L 1178 0 
L 603 0 
L 603 4863 
z
" transform="scale(0.015625)"/>
      </defs>
      <use xlink:href="#DejaVuSans-6e"/>
      <use xlink:href="#DejaVuSans-65" x="63.378906"/>
      <use xlink:href="#DejaVuSans-75" x="124.902344"/>
      <use xlink:href="#DejaVuSans-74" x="188.28125"/>
      <use xlink:href="#DejaVuSans-72" x="227.490234"/>
      <use xlink:href="#DejaVuSans-61" x="268.603516"/>
      <use xlink:href="#DejaVuSans-6c" x="329.882812"/>
     </g>
    </g>
    <g id="patch_9">
     <path d="M 694.420313 74.476562 
L 714.420313 74.476562 
L 714.420313 67.476562 
L 694.420313 67.476562 
z
" style="fill: #1e90ff; fill-opacity: 0.25; stroke: #1e90ff; stroke-linejoin: miter"/>
    </g>
    <g id="text_19">
     <!-- link_left -->
     <g transform="translate(722.420313 74.476562) scale(0.1 -0.1)">
      <defs>
       <path id="DejaVuSans-6b" d="M 581 4863 
L 1159 4863 
L 1159 1991 
L 2875 3500 
L 3609 3500 
L 1753 1863 
L 3688 0 
L 2938 0 
L 1159 1709 
L 1159 0 
L 581 0 
L 581 4863 
z
" transform="scale(0.015625)"/>
      </defs>
      <use xlink:href="#DejaVuSans-6c"/>
      <use xlink:href="#DejaVuSans-69" x="27.783203"/>
      <use xlink:href="#DejaVuSans-6e" x="55.566406"/>
      <use xlink:href="#DejaVuSans-6b" x="118.945312"/>
      <use xlink:href="#DejaVuSans-5f" x="176.855469"/>
      <use xlink:href="#DejaVuSans-6c" x="226.855469"/>
      <use xlink:href="#DejaVuSans-65" x="254.638672"/>
      <use xlink:href="#DejaVuSans-66" x="316.162109"/>
      <use xlink:href="#DejaVuSans-74" x="349.617188"/>
     </g>
    </g>
    <g id="patch_10">
     <path d="M 694.420313 89.432812 
L 714.420313 89.432812 
L 714.420313 82.432812 
L 694.420313 82.432812 
z
" style="fill: #9400d3; fill-opacity: 0.25; stroke: #9400d3; stroke-linejoin: miter"/>
    </g>
    <g id="text_20">
     <!-- link_right -->
     <g transform="translate(722.420313 89.432812) scale(0.1 -0.1)">
      <defs>
       <path id="DejaVuSans-67" d="M 2906 1791 
Q 2906 2416 2648 2759 
Q 2391 3103 1925 3103 
Q 1463 3103 1205 2759 
Q 947 2416 947 1791 
Q 947 1169 1205 825 
Q 1463 481 1925 481 
Q 2391 481 2648 825 
Q 2906 1169 2906 1791 
z
M 3481 434 
Q 3481 -459 3084 -895 
Q 2688 -1331 1869 -1331 
Q 1566 -1331 1297 -1286 
Q 1028 -1241 775 -1147 
L 775 -588 
Q 1028 -725 1275 -790 
Q 1522 -856 1778 -856 
Q 2344 -856 2625 -561 
Q 2906 -266 2906 331 
L 2906 616 
Q 2728 306 2450 153 
Q 2172 0 1784 0 
Q 1141 0 747 490 
Q 353 981 353 1791 
Q 353 2603 747 3093 
Q 1141 3584 1784 3584 
Q 2172 3584 2450 3431 
Q 2728 3278 2906 2969 
L 2906 3500 
L 3481 3500 
L 3481 434 
z
" transform="scale(0.015625)"/>
      </defs>
      <use xlink:href="#DejaVuSans-6c"/>
      <use xlink:href="#DejaVuSans-69" x="27.783203"/>
      <use xlink:href="#DejaVuSans-6e" x="55.566406"/>
      <use xlink:href="#DejaVuSans-6b" x="118.945312"/>
      <use xlink:href="#DejaVuSans-5f" x="176.855469"/>
      <use xlink:href="#DejaVuSans-72" x="226.855469"/>
      <use xlink:href="#DejaVuSans-69" x="267.96875"/>
      <use xlink:href="#DejaVuSans-67" x="295.751953"/>
      <use xlink:href="#DejaVuSans-68" x="359.228516"/>
      <use xlink:href="#DejaVuSans-74" x="422.607422"/>
     </g>
    </g>
    <g id="patch_11">
     <path d="M 694.420313 104.389062 
L 714.420313 104.389062 
L 714.420313 97.389062 
L 694.420313 97.389062 
z
" style="fill: #0000ff; fill-opacity: 0.25; stroke: #0000ff; stroke-linejoin: miter"/>
    </g>
    <g id="text_21">
     <!-- sweep -->
     <g transform="translate(722.420313 104.389062) scale(0.1 -0.1)">
      <defs>
       <path id="DejaVuSans-77" d="M 269 3500 
L 844 3500 
L 1563 769 
L 2278 3500 
L 2956 3500 
L 3675 769 
L 4391 3500 
L 4966 3500 
L 4050 0 
L 3372 0 
L 2619 2869 
L 1863 0 
L 1184 0 
L 269 3500 
z
" transform="scale(0.015625)"/>
       <path id="DejaVuSans-70" d="M 1159 525 
L 1159 -1331 
L 581 -1331 
L 581 3500 
L 1159 3500 
L 1159 2969 
Q 1341 3281 1617 3432 
Q 1894 3584 2278 3584 
Q 2916 3584 3314 3078 
Q 3713 2572 3713 1747 
Q 3713 922 3314 415 
Q 2916 -91 2278 -91 
Q 1894 -91 1617 61 
Q 1341 213 1159 525 
z
M 3116 1747 
Q 3116 2381 2855 2742 
Q 2594 3103 2138 3103 
Q 1681 3103 1420 2742 
Q 1159 2381 1159 1747 
Q 1159 1113 1420 752 
Q 1681 391 2138 391 
Q 2594 391 2855 752 
Q 3116 1113 3116 1747 
z
" transform="scale(0.015625)"/>
      </defs>
      <use xlink:href="#DejaVuSans-73"/>
      <use xlink:href="#DejaVuSans-77" x="52.099609"/>
      <use xlink:href="#DejaVuSans-65" x="133.886719"/>
      <use xlink:href="#DejaVuSans-65" x="195.410156"/>
      <use xlink:href="#DejaVuSans-70" x="256.933594"/>
     </g>
    </g>
   </g>
  </g>
 </g>
 <defs>
  <clipPath id="pb9ad1cb0bc">
   <rect x="108" y="43.2" width="669.6" height="277.2"/>
  </clipPath>
 </defs>
</svg>
