<?xml version="1.0" encoding="utf-8" standalone="no"?>
<!DOCTYPE svg PUBLIC "-//W3C//DTD SVG 1.1//EN"
  "http://www.w3.org/Graphics/SVG/1.1/DTD/svg11.dtd">
<svg xmlns:xlink="http://www.w3.org/1999/xlink" width="864pt" height="360pt" viewBox="0 0 864 360" xmlns="http://www.w3.org/2000/svg" version="1.1">
 <metadata>
  <rdf:RDF xmlns:dc="http://purl.org/dc/elements/1.1/" xmlns:cc="http://creativecommons.org/ns#" xmlns:rdf="http://www.w3.org/1999/02/22-rdf-syntax-ns#">
   <cc:Work>
    <dc:type rdf:resource="http://purl.org/dc/dcmitype/StillImage"/>
    <dc:date>2024-05-27T13:28:49.390282</dc:date>
    <dc:format>image/svg+xml</dc:format>
    <dc:creator>
     <cc:Agent>
      <dc:title>Matplotlib v3.8.0, https://matplotlib.org/</dc:title>
     </cc:Agent>
    </dc:creator>
   </cc:Work>
  </rdf:RDF>
 </metadata>
 <defs>
  <style type="text/css">*{stroke-linejoin: round; stroke-linecap: butt}</style>
 </defs>
 <g id="figure_1">
  <g id="patch_1">
   <path d="M 0 360 
L 864 360 
L 864 0 
L 0 0 
z
" style="fill: #ffffff"/>
  </g>
  <g id="axes_1">
   <g id="patch_2">
    <path d="M 108 320.4 
L 777.6 320.4 
L 777.6 43.2 
L 108 43.2 
z
" style="fill: #ffffff"/>
   </g>
   <g id="PolyCollection_1">
    <defs>
     <path id="m3fabe8e582" d="M 138.436364 -39.600089 
L 138.436364 -39.6 
L 140.486535 -39.6 
L 142.536706 -39.6 
L 144.586877 -39.6 
L 146.637048 -39.6 
L 148.687219 -39.6 
L 150.73739 -39.6 
L 152.787561 -39.6 
L 154.837732 -39.6 
L 156.887903 -39.6 
L 158.938075 -39.6 
L 160.988246 -39.6 
L 163.038417 -39.6 
L 165.088588 -39.6 
L 167.138759 -39.6 
L 169.18893 -39.6 
L 171.239101 -39.6 
L 173.289272 -39.6 
L 175.339443 -39.6 
L 177.389614 -39.6 
L 179.439785 -39.6 
L 181.489957 -39.6 
L 183.540128 -39.6 
L 185.590299 -39.6 
L 187.64047 -39.6 
L 189.690641 -39.6 
L 191.740812 -39.6 
L 193.790983 -39.6 
L 195.841154 -39.6 
L 197.891325 -39.6 
L 199.941496 -39.6 
L 201.991667 -39.6 
L 204.041839 -39.6 
L 206.09201 -39.6 
L 208.142181 -39.6 
L 210.192352 -39.6 
L 212.242523 -39.6 
L 214.292694 -39.6 
L 216.342865 -39.6 
L 218.393036 -39.6 
L 220.443207 -39.6 
L 222.493378 -39.6 
L 224.543549 -39.6 
L 226.593721 -39.6 
L 228.643892 -39.6 
L 230.694063 -39.6 
L 232.744234 -39.6 
L 234.794405 -39.6 
L 236.844576 -39.6 
L 238.894747 -39.6 
L 240.944918 -39.6 
L 242.995089 -39.6 
L 245.04526 -39.6 
L 247.095431 -39.6 
L 249.145603 -39.6 
L 251.195774 -39.6 
L 253.245945 -39.6 
L 255.296116 -39.6 
L 257.346287 -39.6 
L 259.396458 -39.6 
L 261.446629 -39.6 
L 263.4968 -39.6 
L 265.546971 -39.6 
L 267.597142 -39.6 
L 269.647313 -39.6 
L 271.697485 -39.6 
L 273.747656 -39.6 
L 275.797827 -39.6 
L 277.847998 -39.6 
L 279.898169 -39.6 
L 281.94834 -39.6 
L 283.998511 -39.6 
L 286.048682 -39.6 
L 288.098853 -39.6 
L 290.149024 -39.6 
L 292.199195 -39.6 
L 294.249367 -39.6 
L 296.299538 -39.6 
L 298.349709 -39.6 
L 300.39988 -39.6 
L 302.450051 -39.6 
L 304.500222 -39.6 
L 306.550393 -39.6 
L 308.600564 -39.6 
L 310.650735 -39.6 
L 312.700906 -39.6 
L 314.751077 -39.6 
L 316.801249 -39.6 
L 318.85142 -39.6 
L 320.901591 -39.6 
L 322.951762 -39.6 
L 325.001933 -39.6 
L 327.052104 -39.6 
L 329.102275 -39.6 
L 331.152446 -39.6 
L 333.202617 -39.6 
L 335.252788 -39.6 
L 337.302959 -39.6 
L 339.353131 -39.6 
L 341.403302 -39.6 
L 343.453473 -39.6 
L 345.503644 -39.6 
L 347.553815 -39.6 
L 349.603986 -39.6 
L 351.654157 -39.6 
L 353.704328 -39.6 
L 355.754499 -39.6 
L 357.80467 -39.6 
L 359.854842 -39.6 
L 361.905013 -39.6 
L 363.955184 -39.6 
L 366.005355 -39.6 
L 368.055526 -39.6 
L 370.105697 -39.6 
L 372.155868 -39.6 
L 374.206039 -39.6 
L 376.25621 -39.6 
L 378.306381 -39.6 
L 380.356552 -39.6 
L 382.406724 -39.6 
L 384.456895 -39.6 
L 386.507066 -39.6 
L 388.557237 -39.6 
L 390.607408 -39.6 
L 392.657579 -39.6 
L 394.70775 -39.6 
L 396.757921 -39.6 
L 398.808092 -39.6 
L 400.858263 -39.6 
L 402.908434 -39.6 
L 404.958606 -39.6 
L 407.008777 -39.6 
L 409.058948 -39.6 
L 411.109119 -39.6 
L 413.15929 -39.6 
L 415.209461 -39.6 
L 417.259632 -39.6 
L 419.309803 -39.6 
L 421.359974 -39.6 
L 423.410145 -39.6 
L 425.460316 -39.6 
L 427.510488 -39.6 
L 429.560659 -39.6 
L 431.61083 -39.6 
L 433.661001 -39.6 
L 435.711172 -39.6 
L 437.761343 -39.6 
L 439.811514 -39.6 
L 441.861685 -39.6 
L 443.911856 -39.6 
L 445.962027 -39.6 
L 448.012198 -39.6 
L 450.06237 -39.6 
L 452.112541 -39.6 
L 454.162712 -39.6 
L 456.212883 -39.6 
L 458.263054 -39.6 
L 460.313225 -39.6 
L 462.363396 -39.6 
L 464.413567 -39.6 
L 466.463738 -39.6 
L 468.513909 -39.6 
L 470.56408 -39.6 
L 472.614252 -39.6 
L 474.664423 -39.6 
L 476.714594 -39.6 
L 478.764765 -39.6 
L 480.814936 -39.6 
L 482.865107 -39.6 
L 484.915278 -39.6 
L 486.965449 -39.6 
L 489.01562 -39.6 
L 491.065791 -39.6 
L 493.115962 -39.6 
L 495.166134 -39.6 
L 497.216305 -39.6 
L 499.266476 -39.6 
L 501.316647 -39.6 
L 503.366818 -39.6 
L 505.416989 -39.6 
L 507.46716 -39.6 
L 509.517331 -39.6 
L 511.567502 -39.6 
L 513.617673 -39.6 
L 515.667844 -39.6 
L 517.718016 -39.6 
L 519.768187 -39.6 
L 521.818358 -39.6 
L 523.868529 -39.6 
L 525.9187 -39.6 
L 527.968871 -39.6 
L 530.019042 -39.6 
L 532.069213 -39.6 
L 534.119384 -39.6 
L 536.169555 -39.6 
L 538.219726 -39.6 
L 540.269898 -39.6 
L 542.320069 -39.6 
L 544.37024 -39.6 
L 546.420411 -39.6 
L 546.420411 -39.600093 
L 546.420411 -39.600093 
L 544.37024 -39.600575 
L 542.320069 -39.602347 
L 540.269898 -39.606514 
L 538.219726 -39.612967 
L 536.169555 -39.620475 
L 534.119384 -39.63012 
L 532.069213 -39.647017 
L 530.019042 -39.674647 
L 527.968871 -39.708256 
L 525.9187 -39.740206 
L 523.868529 -39.768232 
L 521.818358 -39.790446 
L 519.768187 -39.805037 
L 517.718016 -39.82381 
L 515.667844 -39.86856 
L 513.617673 -39.950901 
L 511.567502 -40.065725 
L 509.517331 -40.194663 
L 507.46716 -40.301588 
L 505.416989 -40.347701 
L 503.366818 -40.331961 
L 501.316647 -40.290944 
L 499.266476 -40.264608 
L 497.216305 -40.279071 
L 495.166134 -40.344831 
L 493.115962 -40.469048 
L 491.065791 -40.667863 
L 489.01562 -40.942569 
L 486.965449 -41.245132 
L 484.915278 -41.50611 
L 482.865107 -41.707838 
L 480.814936 -41.909683 
L 478.764765 -42.176441 
L 476.714594 -42.495116 
L 474.664423 -42.809269 
L 472.614252 -43.113679 
L 470.56408 -43.480447 
L 468.513909 -44.003594 
L 466.463738 -44.713266 
L 464.413567 -45.526859 
L 462.363396 -46.329697 
L 460.313225 -47.12821 
L 458.263054 -48.029477 
L 456.212883 -49.115377 
L 454.162712 -50.447534 
L 452.112541 -52.06651 
L 450.06237 -53.92024 
L 448.012198 -55.976314 
L 445.962027 -58.430087 
L 443.911856 -61.585379 
L 441.861685 -65.488028 
L 439.811514 -69.754585 
L 437.761343 -73.836651 
L 435.711172 -77.644604 
L 433.661001 -81.789446 
L 431.61083 -87.025174 
L 429.560659 -93.552213 
L 427.510488 -100.857881 
L 425.460316 -108.315551 
L 423.410145 -115.992245 
L 421.359974 -124.496263 
L 419.309803 -133.878089 
L 417.259632 -143.420783 
L 415.209461 -152.586345 
L 413.15929 -161.269625 
L 411.109119 -169.442891 
L 409.058948 -177.256568 
L 407.008777 -185.15471 
L 404.958606 -193.504799 
L 402.908434 -202.186137 
L 400.858263 -210.707168 
L 398.808092 -218.689583 
L 396.757921 -226.227426 
L 394.70775 -233.890619 
L 392.657579 -242.299941 
L 390.607408 -251.451061 
L 388.557237 -260.359537 
L 386.507066 -267.837548 
L 384.456895 -273.937388 
L 382.406724 -279.881155 
L 380.356552 -286.17194 
L 378.306381 -291.896722 
L 376.25621 -296.118675 
L 374.206039 -298.820584 
L 372.155868 -300.677628 
L 370.105697 -302.356981 
L 368.055526 -303.6 
L 366.005355 -303.518143 
L 363.955184 -301.956903 
L 361.905013 -299.654923 
L 359.854842 -297.244851 
L 357.80467 -294.646545 
L 355.754499 -291.375748 
L 353.704328 -287.298461 
L 351.654157 -282.780236 
L 349.603986 -278.078116 
L 347.553815 -272.985392 
L 345.503644 -267.234146 
L 343.453473 -261.067738 
L 341.403302 -255.03082 
L 339.353131 -249.119004 
L 337.302959 -242.846094 
L 335.252788 -236.150814 
L 333.202617 -229.2297 
L 331.152446 -221.669879 
L 329.102275 -212.930682 
L 327.052104 -203.629839 
L 325.001933 -195.147379 
L 322.951762 -187.871781 
L 320.901591 -181.085802 
L 318.85142 -174.24365 
L 316.801249 -167.118655 
L 314.751077 -159.535098 
L 312.700906 -151.811074 
L 310.650735 -144.565918 
L 308.600564 -137.978302 
L 306.550393 -131.930442 
L 304.500222 -126.438894 
L 302.450051 -121.532508 
L 300.39988 -117.169326 
L 298.349709 -113.144816 
L 296.299538 -108.913507 
L 294.249367 -104.139985 
L 292.199195 -99.230714 
L 290.149024 -94.674598 
L 288.098853 -90.349525 
L 286.048682 -86.08265 
L 283.998511 -82.263671 
L 281.94834 -79.298266 
L 279.898169 -77.084364 
L 277.847998 -75.267092 
L 275.797827 -73.430908 
L 273.747656 -71.139009 
L 271.697485 -68.259964 
L 269.647313 -65.226892 
L 267.597142 -62.62206 
L 265.546971 -60.539186 
L 263.4968 -58.732091 
L 261.446629 -57.12329 
L 259.396458 -55.724662 
L 257.346287 -54.454142 
L 255.296116 -53.283381 
L 253.245945 -52.223099 
L 251.195774 -51.168474 
L 249.145603 -50.017547 
L 247.095431 -48.87316 
L 245.04526 -47.949424 
L 242.995089 -47.311846 
L 240.944918 -46.79605 
L 238.894747 -46.21296 
L 236.844576 -45.585984 
L 234.794405 -45.052219 
L 232.744234 -44.606679 
L 230.694063 -44.141066 
L 228.643892 -43.640282 
L 226.593721 -43.164106 
L 224.543549 -42.728607 
L 222.493378 -42.318736 
L 220.443207 -41.946119 
L 218.393036 -41.637238 
L 216.342865 -41.400869 
L 214.292694 -41.226634 
L 212.242523 -41.090795 
L 210.192352 -40.970021 
L 208.142181 -40.856925 
L 206.09201 -40.76182 
L 204.041839 -40.700182 
L 201.991667 -40.655807 
L 199.941496 -40.569089 
L 197.891325 -40.395016 
L 195.841154 -40.167605 
L 193.790983 -39.975181 
L 191.740812 -39.866688 
L 189.690641 -39.821486 
L 187.64047 -39.814107 
L 185.590299 -39.845603 
L 183.540128 -39.897336 
L 181.489957 -39.923741 
L 179.439785 -39.908758 
L 177.389614 -39.875604 
L 175.339443 -39.845745 
L 173.289272 -39.825684 
L 171.239101 -39.816247 
L 169.18893 -39.81172 
L 167.138759 -39.798677 
L 165.088588 -39.769818 
L 163.038417 -39.736342 
L 160.988246 -39.716145 
L 158.938075 -39.71184 
L 156.887903 -39.707098 
L 154.837732 -39.687513 
L 152.787561 -39.657749 
L 150.73739 -39.632273 
L 148.687219 -39.617738 
L 146.637048 -39.610371 
L 144.586877 -39.605427 
L 142.536706 -39.602084 
L 140.486535 -39.600535 
L 138.436364 -39.600089 
z
" style="stroke: #ff00ff"/>
    </defs>
    <g clip-path="url(#p61ae117f5b)">
     <use xlink:href="#m3fabe8e582" x="0" y="360" style="fill: #ff00ff; fill-opacity: 0.25; stroke: #ff00ff"/>
    </g>
   </g>
   <g id="PolyCollection_2">
    <defs>
     <path id="m651b45dc84" d="M 242.202835 -39.602347 
L 242.202835 -39.6 
L 244.545628 -39.6 
L 246.888421 -39.6 
L 249.231214 -39.6 
L 251.574007 -39.6 
L 253.9168 -39.6 
L 256.259593 -39.6 
L 258.602385 -39.6 
L 260.945178 -39.6 
L 263.287971 -39.6 
L 265.630764 -39.6 
L 267.973557 -39.6 
L 270.31635 -39.6 
L 272.659143 -39.6 
L 275.001936 -39.6 
L 277.344729 -39.6 
L 279.687522 -39.6 
L 282.030314 -39.6 
L 284.373107 -39.6 
L 286.7159 -39.6 
L 289.058693 -39.6 
L 291.401486 -39.6 
L 293.744279 -39.6 
L 296.087072 -39.6 
L 298.429865 -39.6 
L 300.772658 -39.6 
L 303.115451 -39.6 
L 305.458243 -39.6 
L 307.801036 -39.6 
L 310.143829 -39.6 
L 312.486622 -39.6 
L 314.829415 -39.6 
L 317.172208 -39.6 
L 319.515001 -39.6 
L 321.857794 -39.6 
L 324.200587 -39.6 
L 326.54338 -39.6 
L 328.886172 -39.6 
L 331.228965 -39.6 
L 333.571758 -39.6 
L 335.914551 -39.6 
L 338.257344 -39.6 
L 340.600137 -39.6 
L 342.94293 -39.6 
L 345.285723 -39.6 
L 347.628516 -39.6 
L 349.971309 -39.6 
L 352.314101 -39.6 
L 354.656894 -39.6 
L 356.999687 -39.6 
L 359.34248 -39.6 
L 361.685273 -39.6 
L 364.028066 -39.6 
L 366.370859 -39.6 
L 368.713652 -39.6 
L 371.056445 -39.6 
L 373.399238 -39.6 
L 375.74203 -39.6 
L 378.084823 -39.6 
L 380.427616 -39.6 
L 382.770409 -39.6 
L 385.113202 -39.6 
L 387.455995 -39.6 
L 389.798788 -39.6 
L 392.141581 -39.6 
L 394.484374 -39.6 
L 396.827167 -39.6 
L 399.169959 -39.6 
L 401.512752 -39.6 
L 403.855545 -39.6 
L 406.198338 -39.6 
L 408.541131 -39.6 
L 410.883924 -39.6 
L 413.226717 -39.6 
L 415.56951 -39.6 
L 417.912303 -39.6 
L 420.255095 -39.6 
L 422.597888 -39.6 
L 424.940681 -39.6 
L 427.283474 -39.6 
L 429.626267 -39.6 
L 431.96906 -39.6 
L 434.311853 -39.6 
L 436.654646 -39.6 
L 438.997439 -39.6 
L 441.340232 -39.6 
L 443.683024 -39.6 
L 446.025817 -39.6 
L 448.36861 -39.6 
L 450.711403 -39.6 
L 453.054196 -39.6 
L 455.396989 -39.6 
L 457.739782 -39.6 
L 460.082575 -39.6 
L 462.425368 -39.6 
L 464.768161 -39.6 
L 467.110953 -39.6 
L 469.453746 -39.6 
L 471.796539 -39.6 
L 474.139332 -39.6 
L 476.482125 -39.6 
L 478.824918 -39.6 
L 481.167711 -39.6 
L 483.510504 -39.6 
L 485.853297 -39.6 
L 488.19609 -39.6 
L 490.538882 -39.6 
L 492.881675 -39.6 
L 495.224468 -39.6 
L 497.567261 -39.6 
L 499.910054 -39.6 
L 502.252847 -39.6 
L 504.59564 -39.6 
L 506.938433 -39.6 
L 509.281226 -39.6 
L 511.624019 -39.6 
L 513.966811 -39.6 
L 516.309604 -39.6 
L 518.652397 -39.6 
L 520.99519 -39.6 
L 523.337983 -39.6 
L 525.680776 -39.6 
L 528.023569 -39.6 
L 530.366362 -39.6 
L 532.709155 -39.6 
L 535.051948 -39.6 
L 537.39474 -39.6 
L 539.737533 -39.6 
L 542.080326 -39.6 
L 544.423119 -39.6 
L 546.765912 -39.6 
L 549.108705 -39.6 
L 551.451498 -39.6 
L 553.794291 -39.6 
L 556.137084 -39.6 
L 558.479877 -39.6 
L 560.822669 -39.6 
L 563.165462 -39.6 
L 565.508255 -39.6 
L 567.851048 -39.6 
L 570.193841 -39.6 
L 572.536634 -39.6 
L 574.879427 -39.6 
L 577.22222 -39.6 
L 579.565013 -39.6 
L 581.907806 -39.6 
L 584.250598 -39.6 
L 586.593391 -39.6 
L 588.936184 -39.6 
L 591.278977 -39.6 
L 593.62177 -39.6 
L 595.964563 -39.6 
L 598.307356 -39.6 
L 600.650149 -39.6 
L 602.992942 -39.6 
L 605.335735 -39.6 
L 607.678527 -39.6 
L 610.02132 -39.6 
L 612.364113 -39.6 
L 614.706906 -39.6 
L 617.049699 -39.6 
L 619.392492 -39.6 
L 621.735285 -39.6 
L 624.078078 -39.6 
L 626.420871 -39.6 
L 628.763664 -39.6 
L 631.106456 -39.6 
L 633.449249 -39.6 
L 635.792042 -39.6 
L 638.134835 -39.6 
L 640.477628 -39.6 
L 642.820421 -39.6 
L 645.163214 -39.6 
L 647.506007 -39.6 
L 649.8488 -39.6 
L 652.191593 -39.6 
L 654.534385 -39.6 
L 656.877178 -39.6 
L 659.219971 -39.6 
L 661.562764 -39.6 
L 663.905557 -39.6 
L 666.24835 -39.6 
L 668.591143 -39.6 
L 670.933936 -39.6 
L 673.276729 -39.6 
L 675.619522 -39.6 
L 677.962314 -39.6 
L 680.305107 -39.6 
L 682.6479 -39.6 
L 684.990693 -39.6 
L 687.333486 -39.6 
L 689.676279 -39.6 
L 692.019072 -39.6 
L 694.361865 -39.6 
L 696.704658 -39.6 
L 699.047451 -39.6 
L 701.390243 -39.6 
L 703.733036 -39.6 
L 706.075829 -39.6 
L 708.418622 -39.6 
L 708.418622 -39.601666 
L 708.418622 -39.601666 
L 706.075829 -39.603618 
L 703.733036 -39.607386 
L 701.390243 -39.61418 
L 699.047451 -39.625618 
L 696.704658 -39.643579 
L 694.361865 -39.669879 
L 692.019072 -39.705788 
L 689.676279 -39.751576 
L 687.333486 -39.806329 
L 684.990693 -39.868348 
L 682.6479 -39.936256 
L 680.305107 -40.010661 
L 677.962314 -40.095871 
L 675.619522 -40.200945 
L 673.276729 -40.339407 
L 670.933936 -40.527307 
L 668.591143 -40.779909 
L 666.24835 -41.107833 
L 663.905557 -41.51385 
L 661.562764 -41.991389 
L 659.219971 -42.525261 
L 656.877178 -43.094244 
L 654.534385 -43.674485 
L 652.191593 -44.242479 
L 649.8488 -44.776879 
L 647.506007 -45.259291 
L 645.163214 -45.674822 
L 642.820421 -46.013147 
L 640.477628 -46.270189 
L 638.134835 -46.449648 
L 635.792042 -46.563309 
L 633.449249 -46.629401 
L 631.106456 -46.669158 
L 628.763664 -46.702438 
L 626.420871 -46.743655 
L 624.078078 -46.799185 
L 621.735285 -46.867204 
L 619.392492 -46.940571 
L 617.049699 -47.012778 
L 614.706906 -47.085877 
L 612.364113 -47.178005 
L 610.02132 -47.327224 
L 607.678527 -47.588886 
L 605.335735 -48.025767 
L 602.992942 -48.693316 
L 600.650149 -49.624913 
L 598.307356 -50.822712 
L 595.964563 -52.257862 
L 593.62177 -53.880383 
L 591.278977 -55.635477 
L 588.936184 -57.480971 
L 586.593391 -59.400646 
L 584.250598 -61.409837 
L 581.907806 -63.55181 
L 579.565013 -65.885489 
L 577.22222 -68.466739 
L 574.879427 -71.32714 
L 572.536634 -74.455548 
L 570.193841 -77.788309 
L 567.851048 -81.212571 
L 565.508255 -84.583563 
L 563.165462 -87.751962 
L 560.822669 -90.593618 
L 558.479877 -93.032973 
L 556.137084 -95.054359 
L 553.794291 -96.700448 
L 551.451498 -98.061812 
L 549.108705 -99.263326 
L 546.765912 -100.451414 
L 544.423119 -101.782674 
L 542.080326 -103.411781 
L 539.737533 -105.476399 
L 537.39474 -108.078809 
L 535.051948 -111.266579 
L 532.709155 -115.016427 
L 530.366362 -119.226095 
L 528.023569 -123.718587 
L 525.680776 -128.26129 
L 523.337983 -132.59878 
L 520.99519 -136.492995 
L 518.652397 -139.760092 
L 516.309604 -142.292814 
L 513.966811 -144.062276 
L 511.624019 -145.10192 
L 509.281226 -145.484312 
L 506.938433 -145.303475 
L 504.59564 -144.670179 
L 502.252847 -143.718109 
L 499.910054 -142.610906 
L 497.567261 -141.53842 
L 495.224468 -140.695911 
L 492.881675 -140.249014 
L 490.538882 -140.295255 
L 488.19609 -140.835911 
L 485.853297 -141.769319 
L 483.510504 -142.909957 
L 481.167711 -144.0297 
L 478.824918 -144.911257 
L 476.482125 -145.400621 
L 474.139332 -145.445889 
L 471.796539 -145.113327 
L 469.453746 -144.577043 
L 467.110953 -144.084586 
L 464.768161 -143.906232 
L 462.425368 -144.279462 
L 460.082575 -145.361406 
L 457.739782 -147.20024 
L 455.396989 -149.731862 
L 453.054196 -152.801592 
L 450.711403 -156.20394 
L 448.36861 -159.728644 
L 446.025817 -163.199926 
L 443.683024 -166.49919 
L 441.340232 -169.568005 
L 438.997439 -172.395822 
L 436.654646 -175.001756 
L 434.311853 -177.419866 
L 431.96906 -179.692869 
L 429.626267 -181.872845 
L 427.283474 -184.022703 
L 424.940681 -186.211177 
L 422.597888 -188.497146 
L 420.255095 -190.904823 
L 417.912303 -193.397432 
L 415.56951 -195.860795 
L 413.226717 -198.107243 
L 410.883924 -199.903757 
L 408.541131 -201.0182 
L 406.198338 -201.268831 
L 403.855545 -200.559945 
L 401.512752 -198.892235 
L 399.169959 -196.347383 
L 396.827167 -193.056426 
L 394.484374 -189.165602 
L 392.141581 -184.810629 
L 389.798788 -180.103724 
L 387.455995 -175.13166 
L 385.113202 -169.960469 
L 382.770409 -164.642811 
L 380.427616 -159.225579 
L 378.084823 -153.756129 
L 375.74203 -148.285507 
L 373.399238 -142.867352 
L 371.056445 -137.552602 
L 368.713652 -132.382428 
L 366.370859 -127.383365 
L 364.028066 -122.56786 
L 361.685273 -117.940394 
L 359.34248 -113.50566 
L 356.999687 -109.273584 
L 354.656894 -105.25752 
L 352.314101 -101.466183 
L 349.971309 -97.893928 
L 347.628516 -94.515479 
L 345.285723 -91.288953 
L 342.94293 -88.166703 
L 340.600137 -85.109482 
L 338.257344 -82.098101 
L 335.914551 -79.138314 
L 333.571758 -76.257988 
L 331.228965 -73.498691 
L 328.886172 -70.905233 
L 326.54338 -68.516194 
L 324.200587 -66.356888 
L 321.857794 -64.434807 
L 319.515001 -62.737264 
L 317.172208 -61.231461 
L 314.829415 -59.867861 
L 312.486622 -58.587528 
L 310.143829 -57.332839 
L 307.801036 -56.059307 
L 305.458243 -54.745133 
L 303.115451 -53.395281 
L 300.772658 -52.03842 
L 298.429865 -50.717398 
L 296.087072 -49.476087 
L 293.744279 -48.346756 
L 291.401486 -47.341904 
L 289.058693 -46.452928 
L 286.7159 -45.655544 
L 284.373107 -44.919522 
L 282.030314 -44.219016 
L 279.687522 -43.539938 
L 277.344729 -42.882358 
L 275.001936 -42.257975 
L 272.659143 -41.684413 
L 270.31635 -41.178821 
L 267.973557 -40.752928 
L 265.630764 -40.410663 
L 263.287971 -40.148318 
L 260.945178 -39.956455 
L 258.602385 -39.822513 
L 256.259593 -39.73323 
L 253.9168 -39.676413 
L 251.574007 -39.641916 
L 249.231214 -39.621953 
L 246.888421 -39.610958 
L 244.545628 -39.605204 
L 242.202835 -39.602347 
z
" style="stroke: #1e90ff"/>
    </defs>
    <g clip-path="url(#p61ae117f5b)">
     <use xlink:href="#m651b45dc84" x="0" y="360" style="fill: #1e90ff; fill-opacity: 0.25; stroke: #1e90ff"/>
    </g>
   </g>
   <g id="PolyCollection_3">
    <defs>
     <path id="mfddacf099f" d="M 207.557985 -39.601659 
L 207.557985 -39.6 
L 210.072479 -39.6 
L 212.586972 -39.6 
L 215.101466 -39.6 
L 217.61596 -39.6 
L 220.130454 -39.6 
L 222.644948 -39.6 
L 225.159442 -39.6 
L 227.673936 -39.6 
L 230.18843 -39.6 
L 232.702924 -39.6 
L 235.217418 -39.6 
L 237.731912 -39.6 
L 240.246406 -39.6 
L 242.7609 -39.6 
L 245.275394 -39.6 
L 247.789888 -39.6 
L 250.304382 -39.6 
L 252.818876 -39.6 
L 255.33337 -39.6 
L 257.847864 -39.6 
L 260.362358 -39.6 
L 262.876852 -39.6 
L 265.391346 -39.6 
L 267.90584 -39.6 
L 270.420334 -39.6 
L 272.934828 -39.6 
L 275.449322 -39.6 
L 277.963816 -39.6 
L 280.47831 -39.6 
L 282.992804 -39.6 
L 285.507298 -39.6 
L 288.021791 -39.6 
L 290.536285 -39.6 
L 293.050779 -39.6 
L 295.565273 -39.6 
L 298.079767 -39.6 
L 300.594261 -39.6 
L 303.108755 -39.6 
L 305.623249 -39.6 
L 308.137743 -39.6 
L 310.652237 -39.6 
L 313.166731 -39.6 
L 315.681225 -39.6 
L 318.195719 -39.6 
L 320.710213 -39.6 
L 323.224707 -39.6 
L 325.739201 -39.6 
L 328.253695 -39.6 
L 330.768189 -39.6 
L 333.282683 -39.6 
L 335.797177 -39.6 
L 338.311671 -39.6 
L 340.826165 -39.6 
L 343.340659 -39.6 
L 345.855153 -39.6 
L 348.369647 -39.6 
L 350.884141 -39.6 
L 353.398635 -39.6 
L 355.913129 -39.6 
L 358.427623 -39.6 
L 360.942117 -39.6 
L 363.45661 -39.6 
L 365.971104 -39.6 
L 368.485598 -39.6 
L 371.000092 -39.6 
L 373.514586 -39.6 
L 376.02908 -39.6 
L 378.543574 -39.6 
L 381.058068 -39.6 
L 383.572562 -39.6 
L 386.087056 -39.6 
L 388.60155 -39.6 
L 391.116044 -39.6 
L 393.630538 -39.6 
L 396.145032 -39.6 
L 398.659526 -39.6 
L 401.17402 -39.6 
L 403.688514 -39.6 
L 406.203008 -39.6 
L 408.717502 -39.6 
L 411.231996 -39.6 
L 413.74649 -39.6 
L 416.260984 -39.6 
L 418.775478 -39.6 
L 421.289972 -39.6 
L 423.804466 -39.6 
L 426.31896 -39.6 
L 428.833454 -39.6 
L 431.347948 -39.6 
L 433.862442 -39.6 
L 436.376936 -39.6 
L 438.891429 -39.6 
L 441.405923 -39.6 
L 443.920417 -39.6 
L 446.434911 -39.6 
L 448.949405 -39.6 
L 451.463899 -39.6 
L 453.978393 -39.6 
L 456.492887 -39.6 
L 459.007381 -39.6 
L 461.521875 -39.6 
L 464.036369 -39.6 
L 466.550863 -39.6 
L 469.065357 -39.6 
L 471.579851 -39.6 
L 474.094345 -39.6 
L 476.608839 -39.6 
L 479.123333 -39.6 
L 481.637827 -39.6 
L 484.152321 -39.6 
L 486.666815 -39.6 
L 489.181309 -39.6 
L 491.695803 -39.6 
L 494.210297 -39.6 
L 496.724791 -39.6 
L 499.239285 -39.6 
L 501.753779 -39.6 
L 504.268273 -39.6 
L 506.782767 -39.6 
L 509.297261 -39.6 
L 511.811755 -39.6 
L 514.326248 -39.6 
L 516.840742 -39.6 
L 519.355236 -39.6 
L 521.86973 -39.6 
L 524.384224 -39.6 
L 526.898718 -39.6 
L 529.413212 -39.6 
L 531.927706 -39.6 
L 534.4422 -39.6 
L 536.956694 -39.6 
L 539.471188 -39.6 
L 541.985682 -39.6 
L 544.500176 -39.6 
L 547.01467 -39.6 
L 549.529164 -39.6 
L 552.043658 -39.6 
L 554.558152 -39.6 
L 557.072646 -39.6 
L 559.58714 -39.6 
L 562.101634 -39.6 
L 564.616128 -39.6 
L 567.130622 -39.6 
L 569.645116 -39.6 
L 572.15961 -39.6 
L 574.674104 -39.6 
L 577.188598 -39.6 
L 579.703092 -39.6 
L 582.217586 -39.6 
L 584.73208 -39.6 
L 587.246574 -39.6 
L 589.761067 -39.6 
L 592.275561 -39.6 
L 594.790055 -39.6 
L 597.304549 -39.6 
L 599.819043 -39.6 
L 602.333537 -39.6 
L 604.848031 -39.6 
L 607.362525 -39.6 
L 609.877019 -39.6 
L 612.391513 -39.6 
L 614.906007 -39.6 
L 617.420501 -39.6 
L 619.934995 -39.6 
L 622.449489 -39.6 
L 624.963983 -39.6 
L 627.478477 -39.6 
L 629.992971 -39.6 
L 632.507465 -39.6 
L 635.021959 -39.6 
L 637.536453 -39.6 
L 640.050947 -39.6 
L 642.565441 -39.6 
L 645.079935 -39.6 
L 647.594429 -39.6 
L 650.108923 -39.6 
L 652.623417 -39.6 
L 655.137911 -39.6 
L 657.652405 -39.6 
L 660.166899 -39.6 
L 662.681393 -39.6 
L 665.195886 -39.6 
L 667.71038 -39.6 
L 670.224874 -39.6 
L 672.739368 -39.6 
L 675.253862 -39.6 
L 677.768356 -39.6 
L 680.28285 -39.6 
L 682.797344 -39.6 
L 685.311838 -39.6 
L 687.826332 -39.6 
L 690.340826 -39.6 
L 692.85532 -39.6 
L 695.369814 -39.6 
L 697.884308 -39.6 
L 700.398802 -39.6 
L 702.913296 -39.6 
L 705.42779 -39.6 
L 707.942284 -39.6 
L 707.942284 -39.602734 
L 707.942284 -39.602734 
L 705.42779 -39.606564 
L 702.913296 -39.614705 
L 700.398802 -39.630775 
L 697.884308 -39.660234 
L 695.369814 -39.71042 
L 692.85532 -39.789899 
L 690.340826 -39.906962 
L 687.826332 -40.067355 
L 685.311838 -40.271739 
L 682.797344 -40.513647 
L 680.28285 -40.778783 
L 677.768356 -41.046196 
L 675.253862 -41.291492 
L 672.739368 -41.491765 
L 670.224874 -41.631377 
L 667.71038 -41.707138 
L 665.195886 -41.730797 
L 662.681393 -41.726847 
L 660.166899 -41.724828 
L 657.652405 -41.747862 
L 655.137911 -41.801781 
L 652.623417 -41.870264 
L 650.108923 -41.91956 
L 647.594429 -41.911963 
L 645.079935 -41.822598 
L 642.565441 -41.651963 
L 640.050947 -41.428629 
L 637.536453 -41.201397 
L 635.021959 -41.025245 
L 632.507465 -40.947859 
L 629.992971 -41.002196 
L 627.478477 -41.206687 
L 624.963983 -41.570299 
L 622.449489 -42.0972 
L 619.934995 -42.786333 
L 617.420501 -43.624689 
L 614.906007 -44.577925 
L 612.391513 -45.585417 
L 609.877019 -46.566509 
L 607.362525 -47.439851 
L 604.848031 -48.150481 
L 602.333537 -48.693534 
L 599.819043 -49.122898 
L 597.304549 -49.538716 
L 594.790055 -50.057069 
L 592.275561 -50.773919 
L 589.761067 -51.738763 
L 587.246574 -52.949337 
L 584.73208 -54.368787 
L 582.217586 -55.955769 
L 579.703092 -57.692031 
L 577.188598 -59.594344 
L 574.674104 -61.707125 
L 572.15961 -64.083065 
L 569.645116 -66.765105 
L 567.130622 -69.78092 
L 564.616128 -73.152335 
L 562.101634 -76.91242 
L 559.58714 -81.117833 
L 557.072646 -85.845622 
L 554.558152 -91.170608 
L 552.043658 -97.127944 
L 549.529164 -103.672234 
L 547.01467 -110.647886 
L 544.500176 -117.784625 
L 541.985682 -124.72668 
L 539.471188 -131.094298 
L 536.956694 -136.563774 
L 534.4422 -140.942346 
L 531.927706 -144.212664 
L 529.413212 -146.530828 
L 526.898718 -148.178441 
L 524.384224 -149.484909 
L 521.86973 -150.744405 
L 519.355236 -152.150849 
L 516.840742 -153.766736 
L 514.326248 -155.531445 
L 511.811755 -157.30374 
L 509.297261 -158.922953 
L 506.782767 -160.266951 
L 504.268273 -161.286487 
L 501.753779 -162.006437 
L 499.239285 -162.500235 
L 496.724791 -162.855142 
L 494.210297 -163.145586 
L 491.695803 -163.420829 
L 489.181309 -163.701366 
L 486.666815 -163.976199 
L 484.152321 -164.20144 
L 481.637827 -164.309608 
L 479.123333 -164.236744 
L 476.608839 -163.959789 
L 474.094345 -163.521902 
L 471.579851 -163.023978 
L 469.065357 -162.580427 
L 466.550863 -162.263021 
L 464.036369 -162.068312 
L 461.521875 -161.931219 
L 459.007381 -161.778246 
L 456.492887 -161.588767 
L 453.978393 -161.428662 
L 451.463899 -161.438591 
L 448.949405 -161.785497 
L 446.434911 -162.603513 
L 443.920417 -163.950635 
L 441.405923 -165.793984 
L 438.891429 -168.02038 
L 436.376936 -170.460078 
L 433.862442 -172.91292 
L 431.347948 -175.173592 
L 428.833454 -177.058472 
L 426.31896 -178.435265 
L 423.804466 -179.248926 
L 421.289972 -179.530224 
L 418.775478 -179.374896 
L 416.260984 -178.894303 
L 413.74649 -178.156325 
L 411.231996 -177.145695 
L 408.717502 -175.76682 
L 406.203008 -173.890585 
L 403.688514 -171.422002 
L 401.17402 -168.353457 
L 398.659526 -164.776939 
L 396.145032 -160.852963 
L 393.630538 -156.758366 
L 391.116044 -152.644428 
L 388.60155 -148.62563 
L 386.087056 -144.796092 
L 383.572562 -141.25098 
L 381.058068 -138.087099 
L 378.543574 -135.372181 
L 376.02908 -133.096241 
L 373.514586 -131.135097 
L 371.000092 -129.254455 
L 368.485598 -127.162814 
L 365.971104 -124.594578 
L 363.45661 -121.387342 
L 360.942117 -117.519888 
L 358.427623 -113.098205 
L 355.913129 -108.303023 
L 353.398635 -103.328672 
L 350.884141 -98.341325 
L 348.369647 -93.468213 
L 345.855153 -88.809767 
L 343.340659 -84.455846 
L 340.826165 -80.490182 
L 338.311671 -76.97959 
L 335.797177 -73.956827 
L 333.282683 -71.410137 
L 330.768189 -69.286927 
L 328.253695 -67.509075 
L 325.739201 -65.990616 
L 323.224707 -64.649399 
L 320.710213 -63.410907 
L 318.195719 -62.208965 
L 315.681225 -60.98933 
L 313.166731 -59.717694 
L 310.652237 -58.387624 
L 308.137743 -57.02159 
L 305.623249 -55.661493 
L 303.108755 -54.351682 
L 300.594261 -53.122427 
L 298.079767 -51.981854 
L 295.565273 -50.919466 
L 293.050779 -49.917822 
L 290.536285 -48.964846 
L 288.021791 -48.059849 
L 285.507298 -47.210984 
L 282.992804 -46.427339 
L 280.47831 -45.7116 
L 277.963816 -45.057961 
L 275.449322 -44.455813 
L 272.934828 -43.896068 
L 270.420334 -43.375911 
L 267.90584 -42.899519 
L 265.391346 -42.475097 
L 262.876852 -42.110396 
L 260.362358 -41.808961 
L 257.847864 -41.568297 
L 255.33337 -41.379953 
L 252.818876 -41.230969 
L 250.304382 -41.106054 
L 247.789888 -40.990049 
L 245.275394 -40.870358 
L 242.7609 -40.738929 
L 240.246406 -40.593385 
L 237.731912 -40.436954 
L 235.217418 -40.277138 
L 232.702924 -40.123496 
L 230.18843 -39.985142 
L 227.673936 -39.868704 
L 225.159442 -39.777235 
L 222.644948 -39.710228 
L 220.130454 -39.664488 
L 217.61596 -39.635418 
L 215.101466 -39.618229 
L 212.586972 -39.608778 
L 210.072479 -39.60395 
L 207.557985 -39.601659 
z
" style="stroke: #9400d3"/>
    </defs>
    <g clip-path="url(#p61ae117f5b)">
     <use xlink:href="#mfddacf099f" x="0" y="360" style="fill: #9400d3; fill-opacity: 0.25; stroke: #9400d3"/>
    </g>
   </g>
   <g id="PolyCollection_4">
    <defs>
     <path id="m8ed2d6d478" d="M 294.086587 -39.83936 
L 294.086587 -39.6 
L 296.363356 -39.6 
L 298.640125 -39.6 
L 300.916895 -39.6 
L 303.193664 -39.6 
L 305.470433 -39.6 
L 307.747202 -39.6 
L 310.023971 -39.6 
L 312.30074 -39.6 
L 314.577509 -39.6 
L 316.854278 -39.6 
L 319.131047 -39.6 
L 321.407816 -39.6 
L 323.684585 -39.6 
L 325.961355 -39.6 
L 328.238124 -39.6 
L 330.514893 -39.6 
L 332.791662 -39.6 
L 335.068431 -39.6 
L 337.3452 -39.6 
L 339.621969 -39.6 
L 341.898738 -39.6 
L 344.175507 -39.6 
L 346.452276 -39.6 
L 348.729045 -39.6 
L 351.005815 -39.6 
L 353.282584 -39.6 
L 355.559353 -39.6 
L 357.836122 -39.6 
L 360.112891 -39.6 
L 362.38966 -39.6 
L 364.666429 -39.6 
L 366.943198 -39.6 
L 369.219967 -39.6 
L 371.496736 -39.6 
L 373.773505 -39.6 
L 376.050275 -39.6 
L 378.327044 -39.6 
L 380.603813 -39.6 
L 382.880582 -39.6 
L 385.157351 -39.6 
L 387.43412 -39.6 
L 389.710889 -39.6 
L 391.987658 -39.6 
L 394.264427 -39.6 
L 396.541196 -39.6 
L 398.817965 -39.6 
L 401.094735 -39.6 
L 403.371504 -39.6 
L 405.648273 -39.6 
L 407.925042 -39.6 
L 410.201811 -39.6 
L 412.47858 -39.6 
L 414.755349 -39.6 
L 417.032118 -39.6 
L 419.308887 -39.6 
L 421.585656 -39.6 
L 423.862425 -39.6 
L 426.139195 -39.6 
L 428.415964 -39.6 
L 430.692733 -39.6 
L 432.969502 -39.6 
L 435.246271 -39.6 
L 437.52304 -39.6 
L 439.799809 -39.6 
L 442.076578 -39.6 
L 444.353347 -39.6 
L 446.630116 -39.6 
L 448.906885 -39.6 
L 451.183655 -39.6 
L 453.460424 -39.6 
L 455.737193 -39.6 
L 458.013962 -39.6 
L 460.290731 -39.6 
L 462.5675 -39.6 
L 464.844269 -39.6 
L 467.121038 -39.6 
L 469.397807 -39.6 
L 471.674576 -39.6 
L 473.951345 -39.6 
L 476.228115 -39.6 
L 478.504884 -39.6 
L 480.781653 -39.6 
L 483.058422 -39.6 
L 485.335191 -39.6 
L 487.61196 -39.6 
L 489.888729 -39.6 
L 492.165498 -39.6 
L 494.442267 -39.6 
L 496.719036 -39.6 
L 498.995805 -39.6 
L 501.272575 -39.6 
L 503.549344 -39.6 
L 505.826113 -39.6 
L 508.102882 -39.6 
L 510.379651 -39.6 
L 512.65642 -39.6 
L 514.933189 -39.6 
L 517.209958 -39.6 
L 519.486727 -39.6 
L 521.763496 -39.6 
L 524.040265 -39.6 
L 526.317035 -39.6 
L 528.593804 -39.6 
L 530.870573 -39.6 
L 533.147342 -39.6 
L 535.424111 -39.6 
L 537.70088 -39.6 
L 539.977649 -39.6 
L 542.254418 -39.6 
L 544.531187 -39.6 
L 546.807956 -39.6 
L 549.084725 -39.6 
L 551.361495 -39.6 
L 553.638264 -39.6 
L 555.915033 -39.6 
L 558.191802 -39.6 
L 560.468571 -39.6 
L 562.74534 -39.6 
L 565.022109 -39.6 
L 567.298878 -39.6 
L 569.575647 -39.6 
L 571.852416 -39.6 
L 574.129185 -39.6 
L 576.405955 -39.6 
L 578.682724 -39.6 
L 580.959493 -39.6 
L 583.236262 -39.6 
L 585.513031 -39.6 
L 587.7898 -39.6 
L 590.066569 -39.6 
L 592.343338 -39.6 
L 594.620107 -39.6 
L 596.896876 -39.6 
L 599.173645 -39.6 
L 601.450415 -39.6 
L 603.727184 -39.6 
L 606.003953 -39.6 
L 608.280722 -39.6 
L 610.557491 -39.6 
L 612.83426 -39.6 
L 615.111029 -39.6 
L 617.387798 -39.6 
L 619.664567 -39.6 
L 621.941336 -39.6 
L 624.218105 -39.6 
L 626.494875 -39.6 
L 628.771644 -39.6 
L 631.048413 -39.6 
L 633.325182 -39.6 
L 635.601951 -39.6 
L 637.87872 -39.6 
L 640.155489 -39.6 
L 642.432258 -39.6 
L 644.709027 -39.6 
L 646.985796 -39.6 
L 649.262565 -39.6 
L 651.539335 -39.6 
L 653.816104 -39.6 
L 656.092873 -39.6 
L 658.369642 -39.6 
L 660.646411 -39.6 
L 662.92318 -39.6 
L 665.199949 -39.6 
L 667.476718 -39.6 
L 669.753487 -39.6 
L 672.030256 -39.6 
L 674.307025 -39.6 
L 676.583795 -39.6 
L 678.860564 -39.6 
L 681.137333 -39.6 
L 683.414102 -39.6 
L 685.690871 -39.6 
L 687.96764 -39.6 
L 690.244409 -39.6 
L 692.521178 -39.6 
L 694.797947 -39.6 
L 697.074716 -39.6 
L 699.351485 -39.6 
L 701.628255 -39.6 
L 703.905024 -39.6 
L 706.181793 -39.6 
L 708.458562 -39.6 
L 710.735331 -39.6 
L 713.0121 -39.6 
L 715.288869 -39.6 
L 717.565638 -39.6 
L 719.842407 -39.6 
L 722.119176 -39.6 
L 724.395945 -39.6 
L 726.672715 -39.6 
L 728.949484 -39.6 
L 731.226253 -39.6 
L 733.503022 -39.6 
L 735.779791 -39.6 
L 738.05656 -39.6 
L 740.333329 -39.6 
L 742.610098 -39.6 
L 744.886867 -39.6 
L 747.163636 -39.6 
L 747.163636 -39.769932 
L 747.163636 -39.769932 
L 744.886867 -39.807322 
L 742.610098 -39.851806 
L 740.333329 -39.904463 
L 738.05656 -39.96648 
L 735.779791 -40.039153 
L 733.503022 -40.123878 
L 731.226253 -40.222147 
L 728.949484 -40.335538 
L 726.672715 -40.465698 
L 724.395945 -40.614326 
L 722.119176 -40.783145 
L 719.842407 -40.973879 
L 717.565638 -41.188217 
L 715.288869 -41.427772 
L 713.0121 -41.694044 
L 710.735331 -41.988373 
L 708.458562 -42.311887 
L 706.181793 -42.665459 
L 703.905024 -43.04965 
L 701.628255 -43.464665 
L 699.351485 -43.910304 
L 697.074716 -44.385919 
L 694.797947 -44.890383 
L 692.521178 -45.422059 
L 690.244409 -45.978783 
L 687.96764 -46.557864 
L 685.690871 -47.156084 
L 683.414102 -47.769731 
L 681.137333 -48.394632 
L 678.860564 -49.026212 
L 676.583795 -49.659566 
L 674.307025 -50.28955 
L 672.030256 -50.910886 
L 669.753487 -51.518282 
L 667.476718 -52.106564 
L 665.199949 -52.670823 
L 662.92318 -53.206558 
L 660.646411 -53.709842 
L 658.369642 -54.177469 
L 656.092873 -54.607113 
L 653.816104 -54.997475 
L 651.539335 -55.348418 
L 649.262565 -55.661093 
L 646.985796 -55.93804 
L 644.709027 -56.183277 
L 642.432258 -56.402362 
L 640.155489 -56.602421 
L 637.87872 -56.792161 
L 635.601951 -56.981842 
L 633.325182 -57.183224 
L 631.048413 -57.409482 
L 628.771644 -57.675085 
L 626.494875 -57.995655 
L 624.218105 -58.387782 
L 621.941336 -58.868827 
L 619.664567 -59.456685 
L 617.387798 -60.169538 
L 615.111029 -61.025577 
L 612.83426 -62.042719 
L 610.557491 -63.2383 
L 608.280722 -64.628769 
L 606.003953 -66.229373 
L 603.727184 -68.053844 
L 601.450415 -70.114098 
L 599.173645 -72.419934 
L 596.896876 -74.978761 
L 594.620107 -77.795344 
L 592.343338 -80.871572 
L 590.066569 -84.206273 
L 587.7898 -87.79505 
L 585.513031 -91.630178 
L 583.236262 -95.700536 
L 580.959493 -99.991596 
L 578.682724 -104.485466 
L 576.405955 -109.160988 
L 574.129185 -113.993893 
L 571.852416 -118.957013 
L 569.575647 -124.020552 
L 567.298878 -129.152407 
L 565.022109 -134.318538 
L 562.74534 -139.483385 
L 560.468571 -144.61032 
L 558.191802 -149.662136 
L 555.915033 -154.601554 
L 553.638264 -159.391746 
L 551.361495 -163.996864 
L 549.084725 -168.382562 
L 546.807956 -172.516509 
L 544.531187 -176.368872 
L 542.254418 -179.912765 
L 539.977649 -183.124661 
L 537.70088 -185.984747 
L 535.424111 -188.477225 
L 533.147342 -190.590545 
L 530.870573 -192.317569 
L 528.593804 -193.655664 
L 526.317035 -194.606718 
L 524.040265 -195.177079 
L 521.763496 -195.377421 
L 519.486727 -195.222539 
L 517.209958 -194.73107 
L 514.933189 -193.925153 
L 512.65642 -192.830036 
L 510.379651 -191.473628 
L 508.102882 -189.886017 
L 505.826113 -188.09895 
L 503.549344 -186.145297 
L 501.272575 -184.058503 
L 498.995805 -181.872039 
L 496.719036 -179.618864 
L 494.442267 -177.330905 
L 492.165498 -175.038566 
L 489.888729 -172.770276 
L 487.61196 -170.552078 
L 485.335191 -168.407275 
L 483.058422 -166.356124 
L 480.781653 -164.415601 
L 478.504884 -162.599215 
L 476.228115 -160.916903 
L 473.951345 -159.374976 
L 471.674576 -157.976134 
L 469.397807 -156.719545 
L 467.121038 -155.600978 
L 464.844269 -154.612991 
L 462.5675 -153.745173 
L 460.290731 -152.984424 
L 458.013962 -152.315278 
L 455.737193 -151.720251 
L 453.460424 -151.180224 
L 451.183655 -150.674835 
L 448.906885 -150.182886 
L 446.630116 -149.682751 
L 444.353347 -149.152785 
L 442.076578 -148.57172 
L 439.799809 -147.919047 
L 437.52304 -147.175373 
L 435.246271 -146.322756 
L 432.969502 -145.345 
L 430.692733 -144.227916 
L 428.415964 -142.959548 
L 426.139195 -141.530345 
L 423.862425 -139.933291 
L 421.585656 -138.163995 
L 419.308887 -136.22072 
L 417.032118 -134.104378 
L 414.755349 -131.818467 
L 412.47858 -129.368972 
L 410.201811 -126.764226 
L 407.925042 -124.014726 
L 405.648273 -121.132925 
L 403.371504 -118.132992 
L 401.094735 -115.030549 
L 398.817965 -111.842393 
L 396.541196 -108.586207 
L 394.264427 -105.28027 
L 391.987658 -101.943159 
L 389.710889 -98.593465 
L 387.43412 -95.249521 
L 385.157351 -91.929145 
L 382.880582 -88.6494 
L 380.603813 -85.426389 
L 378.327044 -82.275064 
L 376.050275 -79.20908 
L 373.773505 -76.240662 
L 371.496736 -73.380522 
L 369.219967 -70.637793 
L 366.943198 -68.020002 
L 364.666429 -65.533067 
L 362.38966 -63.181327 
L 360.112891 -60.967588 
L 357.836122 -58.893202 
L 355.559353 -56.958153 
L 353.282584 -55.161169 
L 351.005815 -53.499838 
L 348.729045 -51.970737 
L 346.452276 -50.569566 
L 344.175507 -49.291282 
L 341.898738 -48.130236 
L 339.621969 -47.080301 
L 337.3452 -46.135003 
L 335.068431 -45.287636 
L 332.791662 -44.531373 
L 330.514893 -43.859365 
L 328.238124 -43.264832 
L 325.961355 -42.741135 
L 323.684585 -42.281847 
L 321.407816 -41.880804 
L 319.131047 -41.532147 
L 316.854278 -41.230358 
L 314.577509 -40.970276 
L 312.30074 -40.747118 
L 310.023971 -40.55648 
L 307.747202 -40.394335 
L 305.470433 -40.257029 
L 303.193664 -40.141268 
L 300.916895 -40.044098 
L 298.640125 -39.962893 
L 296.363356 -39.895328 
L 294.086587 -39.83936 
z
" style="stroke: #0000ff"/>
    </defs>
    <g clip-path="url(#p61ae117f5b)">
     <use xlink:href="#m8ed2d6d478" x="0" y="360" style="fill: #0000ff; fill-opacity: 0.25; stroke: #0000ff"/>
    </g>
   </g>
   <g id="matplotlib.axis_1">
    <g id="xtick_1">
     <g id="line2d_1">
      <defs>
       <path id="me7efa0334e" d="M 0 0 
L 0 3.5 
" style="stroke: #000000; stroke-width: 0.8"/>
      </defs>
      <g>
       <use xlink:href="#me7efa0334e" x="152.634495" y="320.4" style="stroke: #000000; stroke-width: 0.8"/>
      </g>
     </g>
     <g id="text_1">
      <!-- −3 -->
      <g transform="translate(145.263402 334.998438) scale(0.1 -0.1)">
       <defs>
        <path id="DejaVuSans-2212" d="M 678 2272 
L 4684 2272 
L 4684 1741 
L 678 1741 
L 678 2272 
z
" transform="scale(0.015625)"/>
        <path id="DejaVuSans-33" d="M 2597 2516 
Q 3050 2419 3304 2112 
Q 3559 1806 3559 1356 
Q 3559 666 3084 287 
Q 2609 -91 1734 -91 
Q 1441 -91 1130 -33 
Q 819 25 488 141 
L 488 750 
Q 750 597 1062 519 
Q 1375 441 1716 441 
Q 2309 441 2620 675 
Q 2931 909 2931 1356 
Q 2931 1769 2642 2001 
Q 2353 2234 1838 2234 
L 1294 2234 
L 1294 2753 
L 1863 2753 
Q 2328 2753 2575 2939 
Q 2822 3125 2822 3475 
Q 2822 3834 2567 4026 
Q 2313 4219 1838 4219 
Q 1578 4219 1281 4162 
Q 984 4106 628 3988 
L 628 4550 
Q 988 4650 1302 4700 
Q 1616 4750 1894 4750 
Q 2613 4750 3031 4423 
Q 3450 4097 3450 3541 
Q 3450 3153 3228 2886 
Q 3006 2619 2597 2516 
z
" transform="scale(0.015625)"/>
       </defs>
       <use xlink:href="#DejaVuSans-2212"/>
       <use xlink:href="#DejaVuSans-33" x="83.789062"/>
      </g>
     </g>
    </g>
    <g id="xtick_2">
     <g id="line2d_2">
      <g>
       <use xlink:href="#me7efa0334e" x="255.414934" y="320.4" style="stroke: #000000; stroke-width: 0.8"/>
      </g>
     </g>
     <g id="text_2">
      <!-- −2 -->
      <g transform="translate(248.04384 334.998438) scale(0.1 -0.1)">
       <defs>
        <path id="DejaVuSans-32" d="M 1228 531 
L 3431 531 
L 3431 0 
L 469 0 
L 469 531 
Q 828 903 1448 1529 
Q 2069 2156 2228 2338 
Q 2531 2678 2651 2914 
Q 2772 3150 2772 3378 
Q 2772 3750 2511 3984 
Q 2250 4219 1831 4219 
Q 1534 4219 1204 4116 
Q 875 4013 500 3803 
L 500 4441 
Q 881 4594 1212 4672 
Q 1544 4750 1819 4750 
Q 2544 4750 2975 4387 
Q 3406 4025 3406 3419 
Q 3406 3131 3298 2873 
Q 3191 2616 2906 2266 
Q 2828 2175 2409 1742 
Q 1991 1309 1228 531 
z
" transform="scale(0.015625)"/>
       </defs>
       <use xlink:href="#DejaVuSans-2212"/>
       <use xlink:href="#DejaVuSans-32" x="83.789062"/>
      </g>
     </g>
    </g>
    <g id="xtick_3">
     <g id="line2d_3">
      <g>
       <use xlink:href="#me7efa0334e" x="358.195372" y="320.4" style="stroke: #000000; stroke-width: 0.8"/>
      </g>
     </g>
     <g id="text_3">
      <!-- −1 -->
      <g transform="translate(350.824279 334.998438) scale(0.1 -0.1)">
       <defs>
        <path id="DejaVuSans-31" d="M 794 531 
L 1825 531 
L 1825 4091 
L 703 3866 
L 703 4441 
L 1819 4666 
L 2450 4666 
L 2450 531 
L 3481 531 
L 3481 0 
L 794 0 
L 794 531 
z
" transform="scale(0.015625)"/>
       </defs>
       <use xlink:href="#DejaVuSans-2212"/>
       <use xlink:href="#DejaVuSans-31" x="83.789062"/>
      </g>
     </g>
    </g>
    <g id="xtick_4">
     <g id="line2d_4">
      <g>
       <use xlink:href="#me7efa0334e" x="460.975811" y="320.4" style="stroke: #000000; stroke-width: 0.8"/>
      </g>
     </g>
     <g id="text_4">
      <!-- 0 -->
      <g transform="translate(457.794561 334.998438) scale(0.1 -0.1)">
       <defs>
        <path id="DejaVuSans-30" d="M 2034 4250 
Q 1547 4250 1301 3770 
Q 1056 3291 1056 2328 
Q 1056 1369 1301 889 
Q 1547 409 2034 409 
Q 2525 409 2770 889 
Q 3016 1369 3016 2328 
Q 3016 3291 2770 3770 
Q 2525 4250 2034 4250 
z
M 2034 4750 
Q 2819 4750 3233 4129 
Q 3647 3509 3647 2328 
Q 3647 1150 3233 529 
Q 2819 -91 2034 -91 
Q 1250 -91 836 529 
Q 422 1150 422 2328 
Q 422 3509 836 4129 
Q 1250 4750 2034 4750 
z
" transform="scale(0.015625)"/>
       </defs>
       <use xlink:href="#DejaVuSans-30"/>
      </g>
     </g>
    </g>
    <g id="xtick_5">
     <g id="line2d_5">
      <g>
       <use xlink:href="#me7efa0334e" x="563.756249" y="320.4" style="stroke: #000000; stroke-width: 0.8"/>
      </g>
     </g>
     <g id="text_5">
      <!-- 1 -->
      <g transform="translate(560.574999 334.998438) scale(0.1 -0.1)">
       <use xlink:href="#DejaVuSans-31"/>
      </g>
     </g>
    </g>
    <g id="xtick_6">
     <g id="line2d_6">
      <g>
       <use xlink:href="#me7efa0334e" x="666.536688" y="320.4" style="stroke: #000000; stroke-width: 0.8"/>
      </g>
     </g>
     <g id="text_6">
      <!-- 2 -->
      <g transform="translate(663.355438 334.998438) scale(0.1 -0.1)">
       <use xlink:href="#DejaVuSans-32"/>
      </g>
     </g>
    </g>
    <g id="xtick_7">
     <g id="line2d_7">
      <g>
       <use xlink:href="#me7efa0334e" x="769.317126" y="320.4" style="stroke: #000000; stroke-width: 0.8"/>
      </g>
     </g>
     <g id="text_7">
      <!-- 3 -->
      <g transform="translate(766.135876 334.998438) scale(0.1 -0.1)">
       <use xlink:href="#DejaVuSans-33"/>
      </g>
     </g>
    </g>
    <g id="text_8">
     <!-- xpehh -->
     <g transform="translate(427.252344 348.676562) scale(0.1 -0.1)">
      <defs>
       <path id="DejaVuSans-78" d="M 3513 3500 
L 2247 1797 
L 3578 0 
L 2900 0 
L 1881 1375 
L 863 0 
L 184 0 
L 1544 1831 
L 300 3500 
L 978 3500 
L 1906 2253 
L 2834 3500 
L 3513 3500 
z
" transform="scale(0.015625)"/>
       <path id="DejaVuSans-70" d="M 1159 525 
L 1159 -1331 
L 581 -1331 
L 581 3500 
L 1159 3500 
L 1159 2969 
Q 1341 3281 1617 3432 
Q 1894 3584 2278 3584 
Q 2916 3584 3314 3078 
Q 3713 2572 3713 1747 
Q 3713 922 3314 415 
Q 2916 -91 2278 -91 
Q 1894 -91 1617 61 
Q 1341 213 1159 525 
z
M 3116 1747 
Q 3116 2381 2855 2742 
Q 2594 3103 2138 3103 
Q 1681 3103 1420 2742 
Q 1159 2381 1159 1747 
Q 1159 1113 1420 752 
Q 1681 391 2138 391 
Q 2594 391 2855 752 
Q 3116 1113 3116 1747 
z
" transform="scale(0.015625)"/>
       <path id="DejaVuSans-65" d="M 3597 1894 
L 3597 1613 
L 953 1613 
Q 991 1019 1311 708 
Q 1631 397 2203 397 
Q 2534 397 2845 478 
Q 3156 559 3463 722 
L 3463 178 
Q 3153 47 2828 -22 
Q 2503 -91 2169 -91 
Q 1331 -91 842 396 
Q 353 884 353 1716 
Q 353 2575 817 3079 
Q 1281 3584 2069 3584 
Q 2775 3584 3186 3129 
Q 3597 2675 3597 1894 
z
M 3022 2063 
Q 3016 2534 2758 2815 
Q 2500 3097 2075 3097 
Q 1594 3097 1305 2825 
Q 1016 2553 972 2059 
L 3022 2063 
z
" transform="scale(0.015625)"/>
       <path id="DejaVuSans-68" d="M 3513 2113 
L 3513 0 
L 2938 0 
L 2938 2094 
Q 2938 2591 2744 2837 
Q 2550 3084 2163 3084 
Q 1697 3084 1428 2787 
Q 1159 2491 1159 1978 
L 1159 0 
L 581 0 
L 581 4863 
L 1159 4863 
L 1159 2956 
Q 1366 3272 1645 3428 
Q 1925 3584 2291 3584 
Q 2894 3584 3203 3211 
Q 3513 2838 3513 2113 
z
" transform="scale(0.015625)"/>
      </defs>
      <use xlink:href="#DejaVuSans-78"/>
      <use xlink:href="#DejaVuSans-70" x="59.179688"/>
      <use xlink:href="#DejaVuSans-65" x="122.65625"/>
      <use xlink:href="#DejaVuSans-68" x="184.179688"/>
      <use xlink:href="#DejaVuSans-68" x="247.558594"/>
     </g>
    </g>
   </g>
   <g id="matplotlib.axis_2">
    <g id="ytick_1">
     <g id="line2d_8">
      <defs>
       <path id="mb6041bf865" d="M 0 0 
L -3.5 0 
" style="stroke: #000000; stroke-width: 0.8"/>
      </defs>
      <g>
       <use xlink:href="#mb6041bf865" x="108" y="320.4" style="stroke: #000000; stroke-width: 0.8"/>
      </g>
     </g>
     <g id="text_9">
      <!-- 0.0 -->
      <g transform="translate(85.096875 324.199219) scale(0.1 -0.1)">
       <defs>
        <path id="DejaVuSans-2e" d="M 684 794 
L 1344 794 
L 1344 0 
L 684 0 
L 684 794 
z
" transform="scale(0.015625)"/>
       </defs>
       <use xlink:href="#DejaVuSans-30"/>
       <use xlink:href="#DejaVuSans-2e" x="63.623047"/>
       <use xlink:href="#DejaVuSans-30" x="95.410156"/>
      </g>
     </g>
    </g>
    <g id="ytick_2">
     <g id="line2d_9">
      <g>
       <use xlink:href="#mb6041bf865" x="108" y="269.722591" style="stroke: #000000; stroke-width: 0.8"/>
      </g>
     </g>
     <g id="text_10">
      <!-- 0.2 -->
      <g transform="translate(85.096875 273.52181) scale(0.1 -0.1)">
       <use xlink:href="#DejaVuSans-30"/>
       <use xlink:href="#DejaVuSans-2e" x="63.623047"/>
       <use xlink:href="#DejaVuSans-32" x="95.410156"/>
      </g>
     </g>
    </g>
    <g id="ytick_3">
     <g id="line2d_10">
      <g>
       <use xlink:href="#mb6041bf865" x="108" y="219.045182" style="stroke: #000000; stroke-width: 0.8"/>
      </g>
     </g>
     <g id="text_11">
      <!-- 0.4 -->
      <g transform="translate(85.096875 222.844401) scale(0.1 -0.1)">
       <defs>
        <path id="DejaVuSans-34" d="M 2419 4116 
L 825 1625 
L 2419 1625 
L 2419 4116 
z
M 2253 4666 
L 3047 4666 
L 3047 1625 
L 3713 1625 
L 3713 1100 
L 3047 1100 
L 3047 0 
L 2419 0 
L 2419 1100 
L 313 1100 
L 313 1709 
L 2253 4666 
z
" transform="scale(0.015625)"/>
       </defs>
       <use xlink:href="#DejaVuSans-30"/>
       <use xlink:href="#DejaVuSans-2e" x="63.623047"/>
       <use xlink:href="#DejaVuSans-34" x="95.410156"/>
      </g>
     </g>
    </g>
    <g id="ytick_4">
     <g id="line2d_11">
      <g>
       <use xlink:href="#mb6041bf865" x="108" y="168.367773" style="stroke: #000000; stroke-width: 0.8"/>
      </g>
     </g>
     <g id="text_12">
      <!-- 0.6 -->
      <g transform="translate(85.096875 172.166992) scale(0.1 -0.1)">
       <defs>
        <path id="DejaVuSans-36" d="M 2113 2584 
Q 1688 2584 1439 2293 
Q 1191 2003 1191 1497 
Q 1191 994 1439 701 
Q 1688 409 2113 409 
Q 2538 409 2786 701 
Q 3034 994 3034 1497 
Q 3034 2003 2786 2293 
Q 2538 2584 2113 2584 
z
M 3366 4563 
L 3366 3988 
Q 3128 4100 2886 4159 
Q 2644 4219 2406 4219 
Q 1781 4219 1451 3797 
Q 1122 3375 1075 2522 
Q 1259 2794 1537 2939 
Q 1816 3084 2150 3084 
Q 2853 3084 3261 2657 
Q 3669 2231 3669 1497 
Q 3669 778 3244 343 
Q 2819 -91 2113 -91 
Q 1303 -91 875 529 
Q 447 1150 447 2328 
Q 447 3434 972 4092 
Q 1497 4750 2381 4750 
Q 2619 4750 2861 4703 
Q 3103 4656 3366 4563 
z
" transform="scale(0.015625)"/>
       </defs>
       <use xlink:href="#DejaVuSans-30"/>
       <use xlink:href="#DejaVuSans-2e" x="63.623047"/>
       <use xlink:href="#DejaVuSans-36" x="95.410156"/>
      </g>
     </g>
    </g>
    <g id="ytick_5">
     <g id="line2d_12">
      <g>
       <use xlink:href="#mb6041bf865" x="108" y="117.690365" style="stroke: #000000; stroke-width: 0.8"/>
      </g>
     </g>
     <g id="text_13">
      <!-- 0.8 -->
      <g transform="translate(85.096875 121.489583) scale(0.1 -0.1)">
       <defs>
        <path id="DejaVuSans-38" d="M 2034 2216 
Q 1584 2216 1326 1975 
Q 1069 1734 1069 1313 
Q 1069 891 1326 650 
Q 1584 409 2034 409 
Q 2484 409 2743 651 
Q 3003 894 3003 1313 
Q 3003 1734 2745 1975 
Q 2488 2216 2034 2216 
z
M 1403 2484 
Q 997 2584 770 2862 
Q 544 3141 544 3541 
Q 544 4100 942 4425 
Q 1341 4750 2034 4750 
Q 2731 4750 3128 4425 
Q 3525 4100 3525 3541 
Q 3525 3141 3298 2862 
Q 3072 2584 2669 2484 
Q 3125 2378 3379 2068 
Q 3634 1759 3634 1313 
Q 3634 634 3220 271 
Q 2806 -91 2034 -91 
Q 1263 -91 848 271 
Q 434 634 434 1313 
Q 434 1759 690 2068 
Q 947 2378 1403 2484 
z
M 1172 3481 
Q 1172 3119 1398 2916 
Q 1625 2713 2034 2713 
Q 2441 2713 2670 2916 
Q 2900 3119 2900 3481 
Q 2900 3844 2670 4047 
Q 2441 4250 2034 4250 
Q 1625 4250 1398 4047 
Q 1172 3844 1172 3481 
z
" transform="scale(0.015625)"/>
       </defs>
       <use xlink:href="#DejaVuSans-30"/>
       <use xlink:href="#DejaVuSans-2e" x="63.623047"/>
       <use xlink:href="#DejaVuSans-38" x="95.410156"/>
      </g>
     </g>
    </g>
    <g id="ytick_6">
     <g id="line2d_13">
      <g>
       <use xlink:href="#mb6041bf865" x="108" y="67.012956" style="stroke: #000000; stroke-width: 0.8"/>
      </g>
     </g>
     <g id="text_14">
      <!-- 1.0 -->
      <g transform="translate(85.096875 70.812175) scale(0.1 -0.1)">
       <use xlink:href="#DejaVuSans-31"/>
       <use xlink:href="#DejaVuSans-2e" x="63.623047"/>
       <use xlink:href="#DejaVuSans-30" x="95.410156"/>
      </g>
     </g>
    </g>
    <g id="text_15">
     <!-- Density -->
     <g transform="translate(79.017187 200.808594) rotate(-90) scale(0.1 -0.1)">
      <defs>
       <path id="DejaVuSans-44" d="M 1259 4147 
L 1259 519 
L 2022 519 
Q 2988 519 3436 956 
Q 3884 1394 3884 2338 
Q 3884 3275 3436 3711 
Q 2988 4147 2022 4147 
L 1259 4147 
z
M 628 4666 
L 1925 4666 
Q 3281 4666 3915 4102 
Q 4550 3538 4550 2338 
Q 4550 1131 3912 565 
Q 3275 0 1925 0 
L 628 0 
L 628 4666 
z
" transform="scale(0.015625)"/>
       <path id="DejaVuSans-6e" d="M 3513 2113 
L 3513 0 
L 2938 0 
L 2938 2094 
Q 2938 2591 2744 2837 
Q 2550 3084 2163 3084 
Q 1697 3084 1428 2787 
Q 1159 2491 1159 1978 
L 1159 0 
L 581 0 
L 581 3500 
L 1159 3500 
L 1159 2956 
Q 1366 3272 1645 3428 
Q 1925 3584 2291 3584 
Q 2894 3584 3203 3211 
Q 3513 2838 3513 2113 
z
" transform="scale(0.015625)"/>
       <path id="DejaVuSans-73" d="M 2834 3397 
L 2834 2853 
Q 2591 2978 2328 3040 
Q 2066 3103 1784 3103 
Q 1356 3103 1142 2972 
Q 928 2841 928 2578 
Q 928 2378 1081 2264 
Q 1234 2150 1697 2047 
L 1894 2003 
Q 2506 1872 2764 1633 
Q 3022 1394 3022 966 
Q 3022 478 2636 193 
Q 2250 -91 1575 -91 
Q 1294 -91 989 -36 
Q 684 19 347 128 
L 347 722 
Q 666 556 975 473 
Q 1284 391 1588 391 
Q 1994 391 2212 530 
Q 2431 669 2431 922 
Q 2431 1156 2273 1281 
Q 2116 1406 1581 1522 
L 1381 1569 
Q 847 1681 609 1914 
Q 372 2147 372 2553 
Q 372 3047 722 3315 
Q 1072 3584 1716 3584 
Q 2034 3584 2315 3537 
Q 2597 3491 2834 3397 
z
" transform="scale(0.015625)"/>
       <path id="DejaVuSans-69" d="M 603 3500 
L 1178 3500 
L 1178 0 
L 603 0 
L 603 3500 
z
M 603 4863 
L 1178 4863 
L 1178 4134 
L 603 4134 
L 603 4863 
z
" transform="scale(0.015625)"/>
       <path id="DejaVuSans-74" d="M 1172 4494 
L 1172 3500 
L 2356 3500 
L 2356 3053 
L 1172 3053 
L 1172 1153 
Q 1172 725 1289 603 
Q 1406 481 1766 481 
L 2356 481 
L 2356 0 
L 1766 0 
Q 1100 0 847 248 
Q 594 497 594 1153 
L 594 3053 
L 172 3053 
L 172 3500 
L 594 3500 
L 594 4494 
L 1172 4494 
z
" transform="scale(0.015625)"/>
       <path id="DejaVuSans-79" d="M 2059 -325 
Q 1816 -950 1584 -1140 
Q 1353 -1331 966 -1331 
L 506 -1331 
L 506 -850 
L 844 -850 
Q 1081 -850 1212 -737 
Q 1344 -625 1503 -206 
L 1606 56 
L 191 3500 
L 800 3500 
L 1894 763 
L 2988 3500 
L 3597 3500 
L 2059 -325 
z
" transform="scale(0.015625)"/>
      </defs>
      <use xlink:href="#DejaVuSans-44"/>
      <use xlink:href="#DejaVuSans-65" x="77.001953"/>
      <use xlink:href="#DejaVuSans-6e" x="138.525391"/>
      <use xlink:href="#DejaVuSans-73" x="201.904297"/>
      <use xlink:href="#DejaVuSans-69" x="254.003906"/>
      <use xlink:href="#DejaVuSans-74" x="281.787109"/>
      <use xlink:href="#DejaVuSans-79" x="320.996094"/>
     </g>
    </g>
   </g>
   <g id="patch_3">
    <path d="M 108 320.4 
L 108 43.2 
" style="fill: none; stroke: #000000; stroke-width: 0.8; stroke-linejoin: miter; stroke-linecap: square"/>
   </g>
   <g id="patch_4">
    <path d="M 777.6 320.4 
L 777.6 43.2 
" style="fill: none; stroke: #000000; stroke-width: 0.8; stroke-linejoin: miter; stroke-linecap: square"/>
   </g>
   <g id="patch_5">
    <path d="M 108 320.4 
L 777.6 320.4 
" style="fill: none; stroke: #000000; stroke-width: 0.8; stroke-linejoin: miter; stroke-linecap: square"/>
   </g>
   <g id="patch_6">
    <path d="M 108 43.2 
L 777.6 43.2 
" style="fill: none; stroke: #000000; stroke-width: 0.8; stroke-linejoin: miter; stroke-linecap: square"/>
   </g>
   <g id="text_16">
    <!-- XP-EHH Distribution -->
    <g transform="translate(383.3175 37.2) scale(0.12 -0.12)">
     <defs>
      <path id="DejaVuSans-58" d="M 403 4666 
L 1081 4666 
L 2241 2931 
L 3406 4666 
L 4084 4666 
L 2584 2425 
L 4184 0 
L 3506 0 
L 2194 1984 
L 872 0 
L 191 0 
L 1856 2491 
L 403 4666 
z
" transform="scale(0.015625)"/>
      <path id="DejaVuSans-50" d="M 1259 4147 
L 1259 2394 
L 2053 2394 
Q 2494 2394 2734 2622 
Q 2975 2850 2975 3272 
Q 2975 3691 2734 3919 
Q 2494 4147 2053 4147 
L 1259 4147 
z
M 628 4666 
L 2053 4666 
Q 2838 4666 3239 4311 
Q 3641 3956 3641 3272 
Q 3641 2581 3239 2228 
Q 2838 1875 2053 1875 
L 1259 1875 
L 1259 0 
L 628 0 
L 628 4666 
z
" transform="scale(0.015625)"/>
      <path id="DejaVuSans-2d" d="M 313 2009 
L 1997 2009 
L 1997 1497 
L 313 1497 
L 313 2009 
z
" transform="scale(0.015625)"/>
      <path id="DejaVuSans-45" d="M 628 4666 
L 3578 4666 
L 3578 4134 
L 1259 4134 
L 1259 2753 
L 3481 2753 
L 3481 2222 
L 1259 2222 
L 1259 531 
L 3634 531 
L 3634 0 
L 628 0 
L 628 4666 
z
" transform="scale(0.015625)"/>
      <path id="DejaVuSans-48" d="M 628 4666 
L 1259 4666 
L 1259 2753 
L 3553 2753 
L 3553 4666 
L 4184 4666 
L 4184 0 
L 3553 0 
L 3553 2222 
L 1259 2222 
L 1259 0 
L 628 0 
L 628 4666 
z
" transform="scale(0.015625)"/>
      <path id="DejaVuSans-20" transform="scale(0.015625)"/>
      <path id="DejaVuSans-72" d="M 2631 2963 
Q 2534 3019 2420 3045 
Q 2306 3072 2169 3072 
Q 1681 3072 1420 2755 
Q 1159 2438 1159 1844 
L 1159 0 
L 581 0 
L 581 3500 
L 1159 3500 
L 1159 2956 
Q 1341 3275 1631 3429 
Q 1922 3584 2338 3584 
Q 2397 3584 2469 3576 
Q 2541 3569 2628 3553 
L 2631 2963 
z
" transform="scale(0.015625)"/>
      <path id="DejaVuSans-62" d="M 3116 1747 
Q 3116 2381 2855 2742 
Q 2594 3103 2138 3103 
Q 1681 3103 1420 2742 
Q 1159 2381 1159 1747 
Q 1159 1113 1420 752 
Q 1681 391 2138 391 
Q 2594 391 2855 752 
Q 3116 1113 3116 1747 
z
M 1159 2969 
Q 1341 3281 1617 3432 
Q 1894 3584 2278 3584 
Q 2916 3584 3314 3078 
Q 3713 2572 3713 1747 
Q 3713 922 3314 415 
Q 2916 -91 2278 -91 
Q 1894 -91 1617 61 
Q 1341 213 1159 525 
L 1159 0 
L 581 0 
L 581 4863 
L 1159 4863 
L 1159 2969 
z
" transform="scale(0.015625)"/>
      <path id="DejaVuSans-75" d="M 544 1381 
L 544 3500 
L 1119 3500 
L 1119 1403 
Q 1119 906 1312 657 
Q 1506 409 1894 409 
Q 2359 409 2629 706 
Q 2900 1003 2900 1516 
L 2900 3500 
L 3475 3500 
L 3475 0 
L 2900 0 
L 2900 538 
Q 2691 219 2414 64 
Q 2138 -91 1772 -91 
Q 1169 -91 856 284 
Q 544 659 544 1381 
z
M 1991 3584 
L 1991 3584 
z
" transform="scale(0.015625)"/>
      <path id="DejaVuSans-6f" d="M 1959 3097 
Q 1497 3097 1228 2736 
Q 959 2375 959 1747 
Q 959 1119 1226 758 
Q 1494 397 1959 397 
Q 2419 397 2687 759 
Q 2956 1122 2956 1747 
Q 2956 2369 2687 2733 
Q 2419 3097 1959 3097 
z
M 1959 3584 
Q 2709 3584 3137 3096 
Q 3566 2609 3566 1747 
Q 3566 888 3137 398 
Q 2709 -91 1959 -91 
Q 1206 -91 779 398 
Q 353 888 353 1747 
Q 353 2609 779 3096 
Q 1206 3584 1959 3584 
z
" transform="scale(0.015625)"/>
     </defs>
     <use xlink:href="#DejaVuSans-58"/>
     <use xlink:href="#DejaVuSans-50" x="68.505859"/>
     <use xlink:href="#DejaVuSans-2d" x="126.558594"/>
     <use xlink:href="#DejaVuSans-45" x="162.642578"/>
     <use xlink:href="#DejaVuSans-48" x="225.826172"/>
     <use xlink:href="#DejaVuSans-48" x="301.021484"/>
     <use xlink:href="#DejaVuSans-20" x="376.216797"/>
     <use xlink:href="#DejaVuSans-44" x="408.003906"/>
     <use xlink:href="#DejaVuSans-69" x="485.005859"/>
     <use xlink:href="#DejaVuSans-73" x="512.789062"/>
     <use xlink:href="#DejaVuSans-74" x="564.888672"/>
     <use xlink:href="#DejaVuSans-72" x="604.097656"/>
     <use xlink:href="#DejaVuSans-69" x="645.210938"/>
     <use xlink:href="#DejaVuSans-62" x="672.994141"/>
     <use xlink:href="#DejaVuSans-75" x="736.470703"/>
     <use xlink:href="#DejaVuSans-74" x="799.849609"/>
     <use xlink:href="#DejaVuSans-69" x="839.058594"/>
     <use xlink:href="#DejaVuSans-6f" x="866.841797"/>
     <use xlink:href="#DejaVuSans-6e" x="928.023438"/>
    </g>
   </g>
   <g id="legend_1">
    <g id="patch_7">
     <path d="M 692.420313 110.46875 
L 770.6 110.46875 
Q 772.6 110.46875 772.6 108.46875 
L 772.6 50.2 
Q 772.6 48.2 770.6 48.2 
L 692.420313 48.2 
Q 690.420313 48.2 690.420313 50.2 
L 690.420313 108.46875 
Q 690.420313 110.46875 692.420313 110.46875 
z
" style="fill: #ffffff; opacity: 0.8; stroke: #cccccc; stroke-linejoin: miter"/>
    </g>
    <g id="patch_8">
     <path d="M 694.420313 59.798437 
L 714.420313 59.798437 
L 714.420313 52.798437 
L 694.420313 52.798437 
z
" style="fill: #ff00ff; fill-opacity: 0.25; stroke: #ff00ff; stroke-linejoin: miter"/>
    </g>
    <g id="text_17">
     <!-- neutral -->
     <g transform="translate(722.420313 59.798437) scale(0.1 -0.1)">
      <defs>
       <path id="DejaVuSans-61" d="M 2194 1759 
Q 1497 1759 1228 1600 
Q 959 1441 959 1056 
Q 959 750 1161 570 
Q 1363 391 1709 391 
Q 2188 391 2477 730 
Q 2766 1069 2766 1631 
L 2766 1759 
L 2194 1759 
z
M 3341 1997 
L 3341 0 
L 2766 0 
L 2766 531 
Q 2569 213 2275 61 
Q 1981 -91 1556 -91 
Q 1019 -91 701 211 
Q 384 513 384 1019 
Q 384 1609 779 1909 
Q 1175 2209 1959 2209 
L 2766 2209 
L 2766 2266 
Q 2766 2663 2505 2880 
Q 2244 3097 1772 3097 
Q 1472 3097 1187 3025 
Q 903 2953 641 2809 
L 641 3341 
Q 956 3463 1253 3523 
Q 1550 3584 1831 3584 
Q 2591 3584 2966 3190 
Q 3341 2797 3341 1997 
z
" transform="scale(0.015625)"/>
       <path id="DejaVuSans-6c" d="M 603 4863 
L 1178 4863 
L 1178 0 
L 603 0 
L 603 4863 
z
" transform="scale(0.015625)"/>
      </defs>
      <use xlink:href="#DejaVuSans-6e"/>
      <use xlink:href="#DejaVuSans-65" x="63.378906"/>
      <use xlink:href="#DejaVuSans-75" x="124.902344"/>
      <use xlink:href="#DejaVuSans-74" x="188.28125"/>
      <use xlink:href="#DejaVuSans-72" x="227.490234"/>
      <use xlink:href="#DejaVuSans-61" x="268.603516"/>
      <use xlink:href="#DejaVuSans-6c" x="329.882812"/>
     </g>
    </g>
    <g id="patch_9">
     <path d="M 694.420313 74.476562 
L 714.420313 74.476562 
L 714.420313 67.476562 
L 694.420313 67.476562 
z
" style="fill: #1e90ff; fill-opacity: 0.25; stroke: #1e90ff; stroke-linejoin: miter"/>
    </g>
    <g id="text_18">
     <!-- link_left -->
     <g transform="translate(722.420313 74.476562) scale(0.1 -0.1)">
      <defs>
       <path id="DejaVuSans-6b" d="M 581 4863 
L 1159 4863 
L 1159 1991 
L 2875 3500 
L 3609 3500 
L 1753 1863 
L 3688 0 
L 2938 0 
L 1159 1709 
L 1159 0 
L 581 0 
L 581 4863 
z
" transform="scale(0.015625)"/>
       <path id="DejaVuSans-5f" d="M 3263 -1063 
L 3263 -1509 
L -63 -1509 
L -63 -1063 
L 3263 -1063 
z
" transform="scale(0.015625)"/>
       <path id="DejaVuSans-66" d="M 2375 4863 
L 2375 4384 
L 1825 4384 
Q 1516 4384 1395 4259 
Q 1275 4134 1275 3809 
L 1275 3500 
L 2222 3500 
L 2222 3053 
L 1275 3053 
L 1275 0 
L 697 0 
L 697 3053 
L 147 3053 
L 147 3500 
L 697 3500 
L 697 3744 
Q 697 4328 969 4595 
Q 1241 4863 1831 4863 
L 2375 4863 
z
" transform="scale(0.015625)"/>
      </defs>
      <use xlink:href="#DejaVuSans-6c"/>
      <use xlink:href="#DejaVuSans-69" x="27.783203"/>
      <use xlink:href="#DejaVuSans-6e" x="55.566406"/>
      <use xlink:href="#DejaVuSans-6b" x="118.945312"/>
      <use xlink:href="#DejaVuSans-5f" x="176.855469"/>
      <use xlink:href="#DejaVuSans-6c" x="226.855469"/>
      <use xlink:href="#DejaVuSans-65" x="254.638672"/>
      <use xlink:href="#DejaVuSans-66" x="316.162109"/>
      <use xlink:href="#DejaVuSans-74" x="349.617188"/>
     </g>
    </g>
    <g id="patch_10">
     <path d="M 694.420313 89.432812 
L 714.420313 89.432812 
L 714.420313 82.432812 
L 694.420313 82.432812 
z
" style="fill: #9400d3; fill-opacity: 0.25; stroke: #9400d3; stroke-linejoin: miter"/>
    </g>
    <g id="text_19">
     <!-- link_right -->
     <g transform="translate(722.420313 89.432812) scale(0.1 -0.1)">
      <defs>
       <path id="DejaVuSans-67" d="M 2906 1791 
Q 2906 2416 2648 2759 
Q 2391 3103 1925 3103 
Q 1463 3103 1205 2759 
Q 947 2416 947 1791 
Q 947 1169 1205 825 
Q 1463 481 1925 481 
Q 2391 481 2648 825 
Q 2906 1169 2906 1791 
z
M 3481 434 
Q 3481 -459 3084 -895 
Q 2688 -1331 1869 -1331 
Q 1566 -1331 1297 -1286 
Q 1028 -1241 775 -1147 
L 775 -588 
Q 1028 -725 1275 -790 
Q 1522 -856 1778 -856 
Q 2344 -856 2625 -561 
Q 2906 -266 2906 331 
L 2906 616 
Q 2728 306 2450 153 
Q 2172 0 1784 0 
Q 1141 0 747 490 
Q 353 981 353 1791 
Q 353 2603 747 3093 
Q 1141 3584 1784 3584 
Q 2172 3584 2450 3431 
Q 2728 3278 2906 2969 
L 2906 3500 
L 3481 3500 
L 3481 434 
z
" transform="scale(0.015625)"/>
      </defs>
      <use xlink:href="#DejaVuSans-6c"/>
      <use xlink:href="#DejaVuSans-69" x="27.783203"/>
      <use xlink:href="#DejaVuSans-6e" x="55.566406"/>
      <use xlink:href="#DejaVuSans-6b" x="118.945312"/>
      <use xlink:href="#DejaVuSans-5f" x="176.855469"/>
      <use xlink:href="#DejaVuSans-72" x="226.855469"/>
      <use xlink:href="#DejaVuSans-69" x="267.96875"/>
      <use xlink:href="#DejaVuSans-67" x="295.751953"/>
      <use xlink:href="#DejaVuSans-68" x="359.228516"/>
      <use xlink:href="#DejaVuSans-74" x="422.607422"/>
     </g>
    </g>
    <g id="patch_11">
     <path d="M 694.420313 104.389062 
L 714.420313 104.389062 
L 714.420313 97.389062 
L 694.420313 97.389062 
z
" style="fill: #0000ff; fill-opacity: 0.25; stroke: #0000ff; stroke-linejoin: miter"/>
    </g>
    <g id="text_20">
     <!-- sweep -->
     <g transform="translate(722.420313 104.389062) scale(0.1 -0.1)">
      <defs>
       <path id="DejaVuSans-77" d="M 269 3500 
L 844 3500 
L 1563 769 
L 2278 3500 
L 2956 3500 
L 3675 769 
L 4391 3500 
L 4966 3500 
L 4050 0 
L 3372 0 
L 2619 2869 
L 1863 0 
L 1184 0 
L 269 3500 
z
" transform="scale(0.015625)"/>
      </defs>
      <use xlink:href="#DejaVuSans-73"/>
      <use xlink:href="#DejaVuSans-77" x="52.099609"/>
      <use xlink:href="#DejaVuSans-65" x="133.886719"/>
      <use xlink:href="#DejaVuSans-65" x="195.410156"/>
      <use xlink:href="#DejaVuSans-70" x="256.933594"/>
     </g>
    </g>
   </g>
  </g>
 </g>
 <defs>
  <clipPath id="p61ae117f5b">
   <rect x="108" y="43.2" width="669.6" height="277.2"/>
  </clipPath>
 </defs>
</svg>
