<?xml version="1.0" encoding="utf-8" standalone="no"?>
<!DOCTYPE svg PUBLIC "-//W3C//DTD SVG 1.1//EN"
  "http://www.w3.org/Graphics/SVG/1.1/DTD/svg11.dtd">
<svg xmlns:xlink="http://www.w3.org/1999/xlink" width="864pt" height="360pt" viewBox="0 0 864 360" xmlns="http://www.w3.org/2000/svg" version="1.1">
 <metadata>
  <rdf:RDF xmlns:dc="http://purl.org/dc/elements/1.1/" xmlns:cc="http://creativecommons.org/ns#" xmlns:rdf="http://www.w3.org/1999/02/22-rdf-syntax-ns#">
   <cc:Work>
    <dc:type rdf:resource="http://purl.org/dc/dcmitype/StillImage"/>
    <dc:date>2024-05-27T13:24:15.175059</dc:date>
    <dc:format>image/svg+xml</dc:format>
    <dc:creator>
     <cc:Agent>
      <dc:title>Matplotlib v3.8.0, https://matplotlib.org/</dc:title>
     </cc:Agent>
    </dc:creator>
   </cc:Work>
  </rdf:RDF>
 </metadata>
 <defs>
  <style type="text/css">*{stroke-linejoin: round; stroke-linecap: butt}</style>
 </defs>
 <g id="figure_1">
  <g id="patch_1">
   <path d="M 0 360 
L 864 360 
L 864 0 
L 0 0 
z
" style="fill: #ffffff"/>
  </g>
  <g id="axes_1">
   <g id="patch_2">
    <path d="M 108 320.4 
L 777.6 320.4 
L 777.6 43.2 
L 108 43.2 
z
" style="fill: #ffffff"/>
   </g>
   <g id="PolyCollection_1">
    <defs>
     <path id="ma56deab3ec" d="M 138.436364 -39.600004 
L 138.436364 -39.6 
L 140.828381 -39.6 
L 143.220398 -39.6 
L 145.612415 -39.6 
L 148.004432 -39.6 
L 150.396449 -39.6 
L 152.788466 -39.6 
L 155.180483 -39.6 
L 157.5725 -39.6 
L 159.964516 -39.6 
L 162.356533 -39.6 
L 164.74855 -39.6 
L 167.140567 -39.6 
L 169.532584 -39.6 
L 171.924601 -39.6 
L 174.316618 -39.6 
L 176.708635 -39.6 
L 179.100652 -39.6 
L 181.492669 -39.6 
L 183.884686 -39.6 
L 186.276703 -39.6 
L 188.66872 -39.6 
L 191.060737 -39.6 
L 193.452754 -39.6 
L 195.844771 -39.6 
L 198.236788 -39.6 
L 200.628805 -39.6 
L 203.020822 -39.6 
L 205.412839 -39.6 
L 207.804856 -39.6 
L 210.196873 -39.6 
L 212.58889 -39.6 
L 214.980907 -39.6 
L 217.372924 -39.6 
L 219.764941 -39.6 
L 222.156958 -39.6 
L 224.548975 -39.6 
L 226.940992 -39.6 
L 229.333009 -39.6 
L 231.725026 -39.6 
L 234.117043 -39.6 
L 236.50906 -39.6 
L 238.901077 -39.6 
L 241.293094 -39.6 
L 243.685111 -39.6 
L 246.077128 -39.6 
L 248.469145 -39.6 
L 250.861162 -39.6 
L 253.253179 -39.6 
L 255.645196 -39.6 
L 258.037213 -39.6 
L 260.42923 -39.6 
L 262.821247 -39.6 
L 265.213264 -39.6 
L 267.605281 -39.6 
L 269.997298 -39.6 
L 272.389315 -39.6 
L 274.781332 -39.6 
L 277.173349 -39.6 
L 279.565366 -39.6 
L 281.957383 -39.6 
L 284.3494 -39.6 
L 286.741417 -39.6 
L 289.133434 -39.6 
L 291.525451 -39.6 
L 293.917468 -39.6 
L 296.309485 -39.6 
L 298.701502 -39.6 
L 301.093519 -39.6 
L 303.485536 -39.6 
L 305.877553 -39.6 
L 308.26957 -39.6 
L 310.661587 -39.6 
L 313.053603 -39.6 
L 315.44562 -39.6 
L 317.837637 -39.6 
L 320.229654 -39.6 
L 322.621671 -39.6 
L 325.013688 -39.6 
L 327.405705 -39.6 
L 329.797722 -39.6 
L 332.189739 -39.6 
L 334.581756 -39.6 
L 336.973773 -39.6 
L 339.36579 -39.6 
L 341.757807 -39.6 
L 344.149824 -39.6 
L 346.541841 -39.6 
L 348.933858 -39.6 
L 351.325875 -39.6 
L 353.717892 -39.6 
L 356.109909 -39.6 
L 358.501926 -39.6 
L 360.893943 -39.6 
L 363.28596 -39.6 
L 365.677977 -39.6 
L 368.069994 -39.6 
L 370.462011 -39.6 
L 372.854028 -39.6 
L 375.246045 -39.6 
L 377.638062 -39.6 
L 380.030079 -39.6 
L 382.422096 -39.6 
L 384.814113 -39.6 
L 387.20613 -39.6 
L 389.598147 -39.6 
L 391.990164 -39.6 
L 394.382181 -39.6 
L 396.774198 -39.6 
L 399.166215 -39.6 
L 401.558232 -39.6 
L 403.950249 -39.6 
L 406.342266 -39.6 
L 408.734283 -39.6 
L 411.1263 -39.6 
L 413.518317 -39.6 
L 415.910334 -39.6 
L 418.302351 -39.6 
L 420.694368 -39.6 
L 423.086385 -39.6 
L 425.478402 -39.6 
L 427.870419 -39.6 
L 430.262436 -39.6 
L 432.654453 -39.6 
L 435.04647 -39.6 
L 437.438487 -39.6 
L 439.830504 -39.6 
L 442.222521 -39.6 
L 444.614538 -39.6 
L 447.006555 -39.6 
L 449.398572 -39.6 
L 451.790589 -39.6 
L 454.182606 -39.6 
L 456.574623 -39.6 
L 458.96664 -39.6 
L 461.358657 -39.6 
L 463.750674 -39.6 
L 466.14269 -39.6 
L 468.534707 -39.6 
L 470.926724 -39.6 
L 473.318741 -39.6 
L 475.710758 -39.6 
L 478.102775 -39.6 
L 480.494792 -39.6 
L 482.886809 -39.6 
L 485.278826 -39.6 
L 487.670843 -39.6 
L 490.06286 -39.6 
L 492.454877 -39.6 
L 494.846894 -39.6 
L 497.238911 -39.6 
L 499.630928 -39.6 
L 502.022945 -39.6 
L 504.414962 -39.6 
L 506.806979 -39.6 
L 509.198996 -39.6 
L 511.591013 -39.6 
L 513.98303 -39.6 
L 516.375047 -39.6 
L 518.767064 -39.6 
L 521.159081 -39.6 
L 523.551098 -39.6 
L 525.943115 -39.6 
L 528.335132 -39.6 
L 530.727149 -39.6 
L 533.119166 -39.6 
L 535.511183 -39.6 
L 537.9032 -39.6 
L 540.295217 -39.6 
L 542.687234 -39.6 
L 545.079251 -39.6 
L 547.471268 -39.6 
L 549.863285 -39.6 
L 552.255302 -39.6 
L 554.647319 -39.6 
L 557.039336 -39.6 
L 559.431353 -39.6 
L 561.82337 -39.6 
L 564.215387 -39.6 
L 566.607404 -39.6 
L 568.999421 -39.6 
L 571.391438 -39.6 
L 573.783455 -39.6 
L 576.175472 -39.6 
L 578.567489 -39.6 
L 580.959506 -39.6 
L 583.351523 -39.6 
L 585.74354 -39.6 
L 588.135557 -39.6 
L 590.527574 -39.6 
L 592.919591 -39.6 
L 595.311608 -39.6 
L 597.703625 -39.6 
L 600.095642 -39.6 
L 602.487659 -39.6 
L 604.879676 -39.6 
L 607.271693 -39.6 
L 609.66371 -39.6 
L 612.055727 -39.6 
L 614.447744 -39.6 
L 614.447744 -39.600004 
L 614.447744 -39.600004 
L 612.055727 -39.600165 
L 609.66371 -39.600335 
L 607.271693 -39.600417 
L 604.879676 -39.601492 
L 602.487659 -39.605669 
L 600.095642 -39.609786 
L 597.703625 -39.613858 
L 595.311608 -39.615295 
L 592.919591 -39.613919 
L 590.527574 -39.613257 
L 588.135557 -39.620955 
L 585.74354 -39.627308 
L 583.351523 -39.629107 
L 580.959506 -39.627267 
L 578.567489 -39.637599 
L 576.175472 -39.643105 
L 573.783455 -39.650964 
L 571.391438 -39.651188 
L 568.999421 -39.666205 
L 566.607404 -39.675001 
L 564.215387 -39.661631 
L 561.82337 -39.665691 
L 559.431353 -39.675055 
L 557.039336 -39.687952 
L 554.647319 -39.688366 
L 552.255302 -39.691908 
L 549.863285 -39.712374 
L 547.471268 -39.768027 
L 545.079251 -39.794923 
L 542.687234 -39.786667 
L 540.295217 -39.800665 
L 537.9032 -39.829605 
L 535.511183 -39.840693 
L 533.119166 -39.871119 
L 530.727149 -39.904146 
L 528.335132 -39.939644 
L 525.943115 -39.977965 
L 523.551098 -40.030538 
L 521.159081 -40.06483 
L 518.767064 -40.142962 
L 516.375047 -40.243228 
L 513.98303 -40.314727 
L 511.591013 -40.354517 
L 509.198996 -40.477306 
L 506.806979 -40.570331 
L 504.414962 -40.690328 
L 502.022945 -40.892388 
L 499.630928 -41.124594 
L 497.238911 -41.374867 
L 494.846894 -41.650069 
L 492.454877 -41.959843 
L 490.06286 -42.43406 
L 487.670843 -42.951659 
L 485.278826 -43.516525 
L 482.886809 -44.1632 
L 480.494792 -44.943876 
L 478.102775 -45.85138 
L 475.710758 -46.967186 
L 473.318741 -48.487569 
L 470.926724 -50.096292 
L 468.534707 -52.139157 
L 466.14269 -54.527936 
L 463.750674 -57.249876 
L 461.358657 -60.50054 
L 458.96664 -63.889122 
L 456.574623 -67.8817 
L 454.182606 -72.603627 
L 451.790589 -77.901751 
L 449.398572 -83.807151 
L 447.006555 -90.257877 
L 444.614538 -97.052356 
L 442.222521 -104.912798 
L 439.830504 -113.710442 
L 437.438487 -122.926987 
L 435.04647 -132.324006 
L 432.654453 -142.396287 
L 430.262436 -152.821636 
L 427.870419 -163.688153 
L 425.478402 -174.766451 
L 423.086385 -186.359719 
L 420.694368 -198.64913 
L 418.302351 -210.269458 
L 415.910334 -221.028496 
L 413.518317 -231.669068 
L 411.1263 -242.307672 
L 408.734283 -252.8904 
L 406.342266 -262.819824 
L 403.950249 -271.057513 
L 401.558232 -279.106846 
L 399.166215 -286.020343 
L 396.774198 -291.333029 
L 394.382181 -295.925826 
L 391.990164 -299.303566 
L 389.598147 -301.950901 
L 387.20613 -303.6 
L 384.814113 -303.187515 
L 382.422096 -302.455463 
L 380.030079 -300.969791 
L 377.638062 -297.467951 
L 375.246045 -294.398492 
L 372.854028 -289.470464 
L 370.462011 -283.421868 
L 368.069994 -277.001247 
L 365.677977 -270.055139 
L 363.28596 -262.486095 
L 360.893943 -254.576882 
L 358.501926 -245.891018 
L 356.109909 -237.4179 
L 353.717892 -228.973844 
L 351.325875 -220.233886 
L 348.933858 -211.116144 
L 346.541841 -202.121817 
L 344.149824 -193.071667 
L 341.757807 -184.44524 
L 339.36579 -175.862671 
L 336.973773 -167.099802 
L 334.581756 -158.482968 
L 332.189739 -150.260097 
L 329.797722 -142.519771 
L 327.405705 -135.438346 
L 325.013688 -128.577862 
L 322.621671 -122.030398 
L 320.229654 -115.885233 
L 317.837637 -109.624992 
L 315.44562 -103.999888 
L 313.053603 -98.523442 
L 310.661587 -93.226413 
L 308.26957 -88.615804 
L 305.877553 -84.365398 
L 303.485536 -80.5022 
L 301.093519 -76.928475 
L 298.701502 -73.344308 
L 296.309485 -70.294642 
L 293.917468 -67.459733 
L 291.525451 -64.716049 
L 289.133434 -62.198676 
L 286.741417 -59.729464 
L 284.3494 -57.693715 
L 281.957383 -55.804971 
L 279.565366 -54.125507 
L 277.173349 -52.689485 
L 274.781332 -51.198089 
L 272.389315 -49.824964 
L 269.997298 -48.603718 
L 267.605281 -47.632023 
L 265.213264 -46.745123 
L 262.821247 -45.931475 
L 260.42923 -45.24694 
L 258.037213 -44.549316 
L 255.645196 -43.936176 
L 253.253179 -43.404718 
L 250.861162 -42.955683 
L 248.469145 -42.581074 
L 246.077128 -42.204528 
L 243.685111 -41.833604 
L 241.293094 -41.496668 
L 238.901077 -41.267396 
L 236.50906 -41.019899 
L 234.117043 -40.805745 
L 231.725026 -40.650562 
L 229.333009 -40.486645 
L 226.940992 -40.374261 
L 224.548975 -40.269027 
L 222.156958 -40.143785 
L 219.764941 -40.076283 
L 217.372924 -39.989512 
L 214.980907 -39.915108 
L 212.58889 -39.842483 
L 210.196873 -39.802226 
L 207.804856 -39.767076 
L 205.412839 -39.744339 
L 203.020822 -39.72021 
L 200.628805 -39.701717 
L 198.236788 -39.686812 
L 195.844771 -39.67205 
L 193.452754 -39.656989 
L 191.060737 -39.643513 
L 188.66872 -39.636371 
L 186.276703 -39.62648 
L 183.884686 -39.622149 
L 181.492669 -39.617583 
L 179.100652 -39.614295 
L 176.708635 -39.608825 
L 174.316618 -39.605899 
L 171.924601 -39.603712 
L 169.532584 -39.604182 
L 167.140567 -39.604345 
L 164.74855 -39.602468 
L 162.356533 -39.601626 
L 159.964516 -39.602208 
L 157.5725 -39.601306 
L 155.180483 -39.600667 
L 152.788466 -39.60106 
L 150.396449 -39.600349 
L 148.004432 -39.600009 
L 145.612415 -39.600023 
L 143.220398 -39.6003 
L 140.828381 -39.600165 
L 138.436364 -39.600004 
z
" style="stroke: #ff00ff"/>
    </defs>
    <g clip-path="url(#pee93a999b3)">
     <use xlink:href="#ma56deab3ec" x="0" y="360" style="fill: #ff00ff; fill-opacity: 0.25; stroke: #ff00ff"/>
    </g>
   </g>
   <g id="PolyCollection_2">
    <defs>
     <path id="mf9d0bd2e02" d="M 169.727031 -39.600048 
L 169.727031 -39.6 
L 172.610624 -39.6 
L 175.494217 -39.6 
L 178.37781 -39.6 
L 181.261403 -39.6 
L 184.144996 -39.6 
L 187.028589 -39.6 
L 189.912182 -39.6 
L 192.795775 -39.6 
L 195.679368 -39.6 
L 198.562961 -39.6 
L 201.446554 -39.6 
L 204.330147 -39.6 
L 207.21374 -39.6 
L 210.097333 -39.6 
L 212.980925 -39.6 
L 215.864518 -39.6 
L 218.748111 -39.6 
L 221.631704 -39.6 
L 224.515297 -39.6 
L 227.39889 -39.6 
L 230.282483 -39.6 
L 233.166076 -39.6 
L 236.049669 -39.6 
L 238.933262 -39.6 
L 241.816855 -39.6 
L 244.700448 -39.6 
L 247.584041 -39.6 
L 250.467634 -39.6 
L 253.351227 -39.6 
L 256.23482 -39.6 
L 259.118413 -39.6 
L 262.002005 -39.6 
L 264.885598 -39.6 
L 267.769191 -39.6 
L 270.652784 -39.6 
L 273.536377 -39.6 
L 276.41997 -39.6 
L 279.303563 -39.6 
L 282.187156 -39.6 
L 285.070749 -39.6 
L 287.954342 -39.6 
L 290.837935 -39.6 
L 293.721528 -39.6 
L 296.605121 -39.6 
L 299.488714 -39.6 
L 302.372307 -39.6 
L 305.2559 -39.6 
L 308.139492 -39.6 
L 311.023085 -39.6 
L 313.906678 -39.6 
L 316.790271 -39.6 
L 319.673864 -39.6 
L 322.557457 -39.6 
L 325.44105 -39.6 
L 328.324643 -39.6 
L 331.208236 -39.6 
L 334.091829 -39.6 
L 336.975422 -39.6 
L 339.859015 -39.6 
L 342.742608 -39.6 
L 345.626201 -39.6 
L 348.509794 -39.6 
L 351.393387 -39.6 
L 354.27698 -39.6 
L 357.160572 -39.6 
L 360.044165 -39.6 
L 362.927758 -39.6 
L 365.811351 -39.6 
L 368.694944 -39.6 
L 371.578537 -39.6 
L 374.46213 -39.6 
L 377.345723 -39.6 
L 380.229316 -39.6 
L 383.112909 -39.6 
L 385.996502 -39.6 
L 388.880095 -39.6 
L 391.763688 -39.6 
L 394.647281 -39.6 
L 397.530874 -39.6 
L 400.414467 -39.6 
L 403.29806 -39.6 
L 406.181652 -39.6 
L 409.065245 -39.6 
L 411.948838 -39.6 
L 414.832431 -39.6 
L 417.716024 -39.6 
L 420.599617 -39.6 
L 423.48321 -39.6 
L 426.366803 -39.6 
L 429.250396 -39.6 
L 432.133989 -39.6 
L 435.017582 -39.6 
L 437.901175 -39.6 
L 440.784768 -39.6 
L 443.668361 -39.6 
L 446.551954 -39.6 
L 449.435547 -39.6 
L 452.319139 -39.6 
L 455.202732 -39.6 
L 458.086325 -39.6 
L 460.969918 -39.6 
L 463.853511 -39.6 
L 466.737104 -39.6 
L 469.620697 -39.6 
L 472.50429 -39.6 
L 475.387883 -39.6 
L 478.271476 -39.6 
L 481.155069 -39.6 
L 484.038662 -39.6 
L 486.922255 -39.6 
L 489.805848 -39.6 
L 492.689441 -39.6 
L 495.573034 -39.6 
L 498.456627 -39.6 
L 501.340219 -39.6 
L 504.223812 -39.6 
L 507.107405 -39.6 
L 509.990998 -39.6 
L 512.874591 -39.6 
L 515.758184 -39.6 
L 518.641777 -39.6 
L 521.52537 -39.6 
L 524.408963 -39.6 
L 527.292556 -39.6 
L 530.176149 -39.6 
L 533.059742 -39.6 
L 535.943335 -39.6 
L 538.826928 -39.6 
L 541.710521 -39.6 
L 544.594114 -39.6 
L 547.477707 -39.6 
L 550.361299 -39.6 
L 553.244892 -39.6 
L 556.128485 -39.6 
L 559.012078 -39.6 
L 561.895671 -39.6 
L 564.779264 -39.6 
L 567.662857 -39.6 
L 570.54645 -39.6 
L 573.430043 -39.6 
L 576.313636 -39.6 
L 579.197229 -39.6 
L 582.080822 -39.6 
L 584.964415 -39.6 
L 587.848008 -39.6 
L 590.731601 -39.6 
L 593.615194 -39.6 
L 596.498787 -39.6 
L 599.382379 -39.6 
L 602.265972 -39.6 
L 605.149565 -39.6 
L 608.033158 -39.6 
L 610.916751 -39.6 
L 613.800344 -39.6 
L 616.683937 -39.6 
L 619.56753 -39.6 
L 622.451123 -39.6 
L 625.334716 -39.6 
L 628.218309 -39.6 
L 631.101902 -39.6 
L 633.985495 -39.6 
L 636.869088 -39.6 
L 639.752681 -39.6 
L 642.636274 -39.6 
L 645.519866 -39.6 
L 648.403459 -39.6 
L 651.287052 -39.6 
L 654.170645 -39.6 
L 657.054238 -39.6 
L 659.937831 -39.6 
L 662.821424 -39.6 
L 665.705017 -39.6 
L 668.58861 -39.6 
L 671.472203 -39.6 
L 674.355796 -39.6 
L 677.239389 -39.6 
L 680.122982 -39.6 
L 683.006575 -39.6 
L 685.890168 -39.6 
L 688.773761 -39.6 
L 691.657354 -39.6 
L 694.540946 -39.6 
L 697.424539 -39.6 
L 700.308132 -39.6 
L 703.191725 -39.6 
L 706.075318 -39.6 
L 708.958911 -39.6 
L 711.842504 -39.6 
L 714.726097 -39.6 
L 717.60969 -39.6 
L 720.493283 -39.6 
L 723.376876 -39.6 
L 726.260469 -39.6 
L 729.144062 -39.6 
L 732.027655 -39.6 
L 734.911248 -39.6 
L 737.794841 -39.6 
L 740.678434 -39.6 
L 743.562026 -39.6 
L 743.562026 -39.600024 
L 743.562026 -39.600024 
L 740.678434 -39.600154 
L 737.794841 -39.600661 
L 734.911248 -39.602061 
L 732.027655 -39.605237 
L 729.144062 -39.611832 
L 726.260469 -39.623662 
L 723.376876 -39.640557 
L 720.493283 -39.659688 
L 717.60969 -39.67878 
L 714.726097 -39.700251 
L 711.842504 -39.728295 
L 708.958911 -39.76062 
L 706.075318 -39.790971 
L 703.191725 -39.820602 
L 700.308132 -39.859141 
L 697.424539 -39.917368 
L 694.540946 -40.002699 
L 691.657354 -40.116788 
L 688.773761 -40.258425 
L 685.890168 -40.422795 
L 683.006575 -40.593931 
L 680.122982 -40.752102 
L 677.239389 -40.892662 
L 674.355796 -41.022984 
L 671.472203 -41.150573 
L 668.58861 -41.316398 
L 665.705017 -41.608324 
L 662.821424 -42.066699 
L 659.937831 -42.624877 
L 657.054238 -43.186603 
L 654.170645 -43.702452 
L 651.287052 -44.197603 
L 648.403459 -44.751436 
L 645.519866 -45.409061 
L 642.636274 -46.188107 
L 639.752681 -47.157998 
L 636.869088 -48.335581 
L 633.985495 -49.580963 
L 631.101902 -50.772656 
L 628.218309 -51.904995 
L 625.334716 -52.990002 
L 622.451123 -54.119369 
L 619.56753 -55.457045 
L 616.683937 -56.992423 
L 613.800344 -58.493264 
L 610.916751 -59.792675 
L 608.033158 -61.043127 
L 605.149565 -62.547677 
L 602.265972 -64.412175 
L 599.382379 -66.56032 
L 596.498787 -68.878329 
L 593.615194 -71.235559 
L 590.731601 -73.574155 
L 587.848008 -75.872433 
L 584.964415 -78.050668 
L 582.080822 -80.077006 
L 579.197229 -82.021349 
L 576.313636 -84.028136 
L 573.430043 -86.267072 
L 570.54645 -88.851598 
L 567.662857 -91.734708 
L 564.779264 -94.680427 
L 561.895671 -97.583817 
L 559.012078 -100.704175 
L 556.128485 -104.292191 
L 553.244892 -108.136171 
L 550.361299 -111.684721 
L 547.477707 -114.625367 
L 544.594114 -117.125511 
L 541.710521 -119.443185 
L 538.826928 -121.732244 
L 535.943335 -124.222914 
L 533.059742 -127.11031 
L 530.176149 -130.181216 
L 527.292556 -132.850799 
L 524.408963 -134.887754 
L 521.52537 -136.679523 
L 518.641777 -138.499737 
L 515.758184 -140.388607 
L 512.874591 -142.504587 
L 509.990998 -144.629822 
L 507.107405 -146.120051 
L 504.223812 -147.008349 
L 501.340219 -148.251986 
L 498.456627 -150.548569 
L 495.573034 -153.619139 
L 492.689441 -156.596667 
L 489.805848 -158.839113 
L 486.922255 -160.374285 
L 484.038662 -161.508662 
L 481.155069 -162.350717 
L 478.271476 -162.878499 
L 475.387883 -163.296 
L 472.50429 -163.971373 
L 469.620697 -164.988529 
L 466.737104 -166.204789 
L 463.853511 -167.494377 
L 460.969918 -168.798122 
L 458.086325 -170.159972 
L 455.202732 -171.553043 
L 452.319139 -172.965667 
L 449.435547 -174.664801 
L 446.551954 -176.880829 
L 443.668361 -179.313817 
L 440.784768 -181.301833 
L 437.901175 -182.534402 
L 435.017582 -183.236175 
L 432.133989 -183.614946 
L 429.250396 -183.505219 
L 426.366803 -182.607157 
L 423.48321 -180.958569 
L 420.599617 -178.943602 
L 417.716024 -176.672935 
L 414.832431 -173.812411 
L 411.948838 -170.269316 
L 409.065245 -166.422245 
L 406.181652 -162.594178 
L 403.29806 -158.776821 
L 400.414467 -154.771498 
L 397.530874 -150.325388 
L 394.647281 -145.268528 
L 391.763688 -139.69837 
L 388.880095 -133.954531 
L 385.996502 -128.239335 
L 383.112909 -122.556243 
L 380.229316 -117.117007 
L 377.345723 -112.135993 
L 374.46213 -107.445699 
L 371.578537 -102.855237 
L 368.694944 -98.378274 
L 365.811351 -94.005968 
L 362.927758 -89.711233 
L 360.044165 -85.506333 
L 357.160572 -81.358646 
L 354.27698 -77.284627 
L 351.393387 -73.447576 
L 348.509794 -70.028668 
L 345.626201 -67.019269 
L 342.742608 -64.232684 
L 339.859015 -61.565305 
L 336.975422 -59.079715 
L 334.091829 -56.843142 
L 331.208236 -54.845828 
L 328.324643 -53.052284 
L 325.44105 -51.446993 
L 322.557457 -50.026899 
L 319.673864 -48.751837 
L 316.790271 -47.546997 
L 313.906678 -46.415589 
L 311.023085 -45.455318 
L 308.139492 -44.705012 
L 305.2559 -44.084479 
L 302.372307 -43.524634 
L 299.488714 -43.028382 
L 296.605121 -42.591783 
L 293.721528 -42.186972 
L 290.837935 -41.811542 
L 287.954342 -41.487445 
L 285.070749 -41.217545 
L 282.187156 -40.981795 
L 279.303563 -40.767467 
L 276.41997 -40.580682 
L 273.536377 -40.432128 
L 270.652784 -40.317211 
L 267.769191 -40.227233 
L 264.885598 -40.162906 
L 262.002005 -40.114033 
L 259.118413 -40.060355 
L 256.23482 -39.996561 
L 253.351227 -39.93127 
L 250.467634 -39.873869 
L 247.584041 -39.827961 
L 244.700448 -39.786408 
L 241.816855 -39.739339 
L 238.933262 -39.692729 
L 236.049669 -39.662502 
L 233.166076 -39.652231 
L 230.282483 -39.652284 
L 227.39889 -39.653332 
L 224.515297 -39.652148 
L 221.631704 -39.649517 
L 218.748111 -39.646012 
L 215.864518 -39.640763 
L 212.980925 -39.633471 
L 210.097333 -39.624886 
L 207.21374 -39.616893 
L 204.330147 -39.613108 
L 201.446554 -39.616038 
L 198.562961 -39.623222 
L 195.679368 -39.627591 
L 192.795775 -39.624179 
L 189.912182 -39.616153 
L 187.028589 -39.610139 
L 184.144996 -39.607786 
L 181.261403 -39.606065 
L 178.37781 -39.603492 
L 175.494217 -39.601316 
L 172.610624 -39.600315 
L 169.727031 -39.600048 
z
" style="stroke: #1e90ff"/>
    </defs>
    <g clip-path="url(#pee93a999b3)">
     <use xlink:href="#mf9d0bd2e02" x="0" y="360" style="fill: #1e90ff; fill-opacity: 0.25; stroke: #1e90ff"/>
    </g>
   </g>
   <g id="PolyCollection_3">
    <defs>
     <path id="ma1c25c6cd5" d="M 186.383576 -39.600023 
L 186.383576 -39.6 
L 189.201566 -39.6 
L 192.019556 -39.6 
L 194.837547 -39.6 
L 197.655537 -39.6 
L 200.473527 -39.6 
L 203.291517 -39.6 
L 206.109508 -39.6 
L 208.927498 -39.6 
L 211.745488 -39.6 
L 214.563478 -39.6 
L 217.381469 -39.6 
L 220.199459 -39.6 
L 223.017449 -39.6 
L 225.835439 -39.6 
L 228.65343 -39.6 
L 231.47142 -39.6 
L 234.28941 -39.6 
L 237.1074 -39.6 
L 239.925391 -39.6 
L 242.743381 -39.6 
L 245.561371 -39.6 
L 248.379362 -39.6 
L 251.197352 -39.6 
L 254.015342 -39.6 
L 256.833332 -39.6 
L 259.651323 -39.6 
L 262.469313 -39.6 
L 265.287303 -39.6 
L 268.105293 -39.6 
L 270.923284 -39.6 
L 273.741274 -39.6 
L 276.559264 -39.6 
L 279.377254 -39.6 
L 282.195245 -39.6 
L 285.013235 -39.6 
L 287.831225 -39.6 
L 290.649215 -39.6 
L 293.467206 -39.6 
L 296.285196 -39.6 
L 299.103186 -39.6 
L 301.921176 -39.6 
L 304.739167 -39.6 
L 307.557157 -39.6 
L 310.375147 -39.6 
L 313.193137 -39.6 
L 316.011128 -39.6 
L 318.829118 -39.6 
L 321.647108 -39.6 
L 324.465098 -39.6 
L 327.283089 -39.6 
L 330.101079 -39.6 
L 332.919069 -39.6 
L 335.737059 -39.6 
L 338.55505 -39.6 
L 341.37304 -39.6 
L 344.19103 -39.6 
L 347.00902 -39.6 
L 349.827011 -39.6 
L 352.645001 -39.6 
L 355.462991 -39.6 
L 358.280981 -39.6 
L 361.098972 -39.6 
L 363.916962 -39.6 
L 366.734952 -39.6 
L 369.552942 -39.6 
L 372.370933 -39.6 
L 375.188923 -39.6 
L 378.006913 -39.6 
L 380.824903 -39.6 
L 383.642894 -39.6 
L 386.460884 -39.6 
L 389.278874 -39.6 
L 392.096864 -39.6 
L 394.914855 -39.6 
L 397.732845 -39.6 
L 400.550835 -39.6 
L 403.368825 -39.6 
L 406.186816 -39.6 
L 409.004806 -39.6 
L 411.822796 -39.6 
L 414.640786 -39.6 
L 417.458777 -39.6 
L 420.276767 -39.6 
L 423.094757 -39.6 
L 425.912747 -39.6 
L 428.730738 -39.6 
L 431.548728 -39.6 
L 434.366718 -39.6 
L 437.184708 -39.6 
L 440.002699 -39.6 
L 442.820689 -39.6 
L 445.638679 -39.6 
L 448.456669 -39.6 
L 451.27466 -39.6 
L 454.09265 -39.6 
L 456.91064 -39.6 
L 459.728631 -39.6 
L 462.546621 -39.6 
L 465.364611 -39.6 
L 468.182601 -39.6 
L 471.000592 -39.6 
L 473.818582 -39.6 
L 476.636572 -39.6 
L 479.454562 -39.6 
L 482.272553 -39.6 
L 485.090543 -39.6 
L 487.908533 -39.6 
L 490.726523 -39.6 
L 493.544514 -39.6 
L 496.362504 -39.6 
L 499.180494 -39.6 
L 501.998484 -39.6 
L 504.816475 -39.6 
L 507.634465 -39.6 
L 510.452455 -39.6 
L 513.270445 -39.6 
L 516.088436 -39.6 
L 518.906426 -39.6 
L 521.724416 -39.6 
L 524.542406 -39.6 
L 527.360397 -39.6 
L 530.178387 -39.6 
L 532.996377 -39.6 
L 535.814367 -39.6 
L 538.632358 -39.6 
L 541.450348 -39.6 
L 544.268338 -39.6 
L 547.086328 -39.6 
L 549.904319 -39.6 
L 552.722309 -39.6 
L 555.540299 -39.6 
L 558.358289 -39.6 
L 561.17628 -39.6 
L 563.99427 -39.6 
L 566.81226 -39.6 
L 569.63025 -39.6 
L 572.448241 -39.6 
L 575.266231 -39.6 
L 578.084221 -39.6 
L 580.902211 -39.6 
L 583.720202 -39.6 
L 586.538192 -39.6 
L 589.356182 -39.6 
L 592.174172 -39.6 
L 594.992163 -39.6 
L 597.810153 -39.6 
L 600.628143 -39.6 
L 603.446133 -39.6 
L 606.264124 -39.6 
L 609.082114 -39.6 
L 611.900104 -39.6 
L 614.718094 -39.6 
L 617.536085 -39.6 
L 620.354075 -39.6 
L 623.172065 -39.6 
L 625.990055 -39.6 
L 628.808046 -39.6 
L 631.626036 -39.6 
L 634.444026 -39.6 
L 637.262016 -39.6 
L 640.080007 -39.6 
L 642.897997 -39.6 
L 645.715987 -39.6 
L 648.533977 -39.6 
L 651.351968 -39.6 
L 654.169958 -39.6 
L 656.987948 -39.6 
L 659.805939 -39.6 
L 662.623929 -39.6 
L 665.441919 -39.6 
L 668.259909 -39.6 
L 671.0779 -39.6 
L 673.89589 -39.6 
L 676.71388 -39.6 
L 679.53187 -39.6 
L 682.349861 -39.6 
L 685.167851 -39.6 
L 687.985841 -39.6 
L 690.803831 -39.6 
L 693.621822 -39.6 
L 696.439812 -39.6 
L 699.257802 -39.6 
L 702.075792 -39.6 
L 704.893783 -39.6 
L 707.711773 -39.6 
L 710.529763 -39.6 
L 713.347753 -39.6 
L 716.165744 -39.6 
L 718.983734 -39.6 
L 721.801724 -39.6 
L 724.619714 -39.6 
L 727.437705 -39.6 
L 730.255695 -39.6 
L 733.073685 -39.6 
L 735.891675 -39.6 
L 738.709666 -39.6 
L 741.527656 -39.6 
L 744.345646 -39.6 
L 747.163636 -39.6 
L 747.163636 -39.600024 
L 747.163636 -39.600024 
L 744.345646 -39.600142 
L 741.527656 -39.60058 
L 738.709666 -39.601648 
L 735.891675 -39.603381 
L 733.073685 -39.605228 
L 730.255695 -39.606581 
L 727.437705 -39.608096 
L 724.619714 -39.612252 
L 721.801724 -39.622201 
L 718.983734 -39.640384 
L 716.165744 -39.668226 
L 713.347753 -39.707045 
L 710.529763 -39.755432 
L 707.711773 -39.802531 
L 704.893783 -39.836327 
L 702.075792 -39.864175 
L 699.257802 -39.908398 
L 696.439812 -39.981927 
L 693.621822 -40.081988 
L 690.803831 -40.206952 
L 687.985841 -40.369605 
L 685.167851 -40.582653 
L 682.349861 -40.839955 
L 679.53187 -41.118827 
L 676.71388 -41.392243 
L 673.89589 -41.651682 
L 671.0779 -41.914254 
L 668.259909 -42.193048 
L 665.441919 -42.483488 
L 662.623929 -42.788945 
L 659.805939 -43.139961 
L 656.987948 -43.571036 
L 654.169958 -44.090286 
L 651.351968 -44.678059 
L 648.533977 -45.291537 
L 645.715987 -45.885047 
L 642.897997 -46.461031 
L 640.080007 -47.087915 
L 637.262016 -47.815606 
L 634.444026 -48.600189 
L 631.626036 -49.405646 
L 628.808046 -50.315794 
L 625.990055 -51.439558 
L 623.172065 -52.792211 
L 620.354075 -54.318755 
L 617.536085 -55.908897 
L 614.718094 -57.397157 
L 611.900104 -58.684943 
L 609.082114 -59.859294 
L 606.264124 -61.122375 
L 603.446133 -62.629773 
L 600.628143 -64.426803 
L 597.810153 -66.447828 
L 594.992163 -68.587531 
L 592.174172 -70.837779 
L 589.356182 -73.22744 
L 586.538192 -75.680886 
L 583.720202 -78.145551 
L 580.902211 -80.75064 
L 578.084221 -83.650156 
L 575.266231 -86.766799 
L 572.448241 -89.7932 
L 569.63025 -92.474442 
L 566.81226 -94.848969 
L 563.99427 -97.161328 
L 561.17628 -99.671557 
L 558.358289 -102.559513 
L 555.540299 -105.769805 
L 552.722309 -109.053733 
L 549.904319 -112.370715 
L 547.086328 -115.944759 
L 544.268338 -119.769304 
L 541.450348 -123.402423 
L 538.632358 -126.404305 
L 535.814367 -128.760905 
L 532.996377 -130.729604 
L 530.178387 -132.47065 
L 527.360397 -133.962697 
L 524.542406 -135.185288 
L 521.724416 -136.401358 
L 518.906426 -138.103583 
L 516.088436 -140.407636 
L 513.270445 -142.853579 
L 510.452455 -145.095826 
L 507.634465 -147.122522 
L 504.816475 -148.791246 
L 501.998484 -150.011441 
L 499.180494 -151.114696 
L 496.362504 -152.477825 
L 493.544514 -154.114242 
L 490.726523 -155.806921 
L 487.908533 -157.356243 
L 485.090543 -158.629128 
L 482.272553 -159.611239 
L 479.454562 -160.477988 
L 476.636572 -161.404394 
L 473.818582 -162.336479 
L 471.000592 -163.196212 
L 468.182601 -164.098118 
L 465.364611 -165.101704 
L 462.546621 -166.156983 
L 459.728631 -167.389776 
L 456.91064 -168.950701 
L 454.09265 -170.63925 
L 451.27466 -172.071568 
L 448.456669 -173.148886 
L 445.638679 -174.017497 
L 442.820689 -174.667676 
L 440.002699 -174.981976 
L 437.184708 -175.041458 
L 434.366718 -175.040135 
L 431.548728 -174.984794 
L 428.730738 -174.657075 
L 425.912747 -173.898335 
L 423.094757 -172.679123 
L 420.276767 -170.825826 
L 417.458777 -168.237255 
L 414.640786 -165.396975 
L 411.822796 -162.987558 
L 409.004806 -160.994465 
L 406.186816 -158.712558 
L 403.368825 -155.565951 
L 400.550835 -151.552312 
L 397.732845 -147.02163 
L 394.914855 -142.402024 
L 392.096864 -138.07568 
L 389.278874 -134.147124 
L 386.460884 -130.342948 
L 383.642894 -126.361354 
L 380.824903 -122.152034 
L 378.006913 -117.800607 
L 375.188923 -113.383703 
L 372.370933 -108.911291 
L 369.552942 -104.29494 
L 366.734952 -99.438603 
L 363.916962 -94.421325 
L 361.098972 -89.533454 
L 358.280981 -85.084597 
L 355.462991 -81.226227 
L 352.645001 -77.898533 
L 349.827011 -74.887102 
L 347.00902 -72.02816 
L 344.19103 -69.310833 
L 341.37304 -66.761464 
L 338.55505 -64.383468 
L 335.737059 -62.173993 
L 332.919069 -60.096518 
L 330.101079 -58.107686 
L 327.283089 -56.230214 
L 324.465098 -54.513909 
L 321.647108 -52.955314 
L 318.829118 -51.523595 
L 316.011128 -50.206144 
L 313.193137 -49.006789 
L 310.375147 -47.932571 
L 307.557157 -46.977089 
L 304.739167 -46.128803 
L 301.921176 -45.380669 
L 299.103186 -44.716549 
L 296.285196 -44.120068 
L 293.467206 -43.586377 
L 290.649215 -43.106525 
L 287.831225 -42.666655 
L 285.013235 -42.262904 
L 282.195245 -41.902105 
L 279.377254 -41.5948 
L 276.559264 -41.342359 
L 273.741274 -41.136031 
L 270.923284 -40.976436 
L 268.105293 -40.864136 
L 265.287303 -40.774877 
L 262.469313 -40.675571 
L 259.651323 -40.553952 
L 256.833332 -40.42126 
L 254.015342 -40.295937 
L 251.197352 -40.189367 
L 248.379362 -40.104128 
L 245.561371 -40.035176 
L 242.743381 -39.972998 
L 239.925391 -39.914029 
L 237.1074 -39.861294 
L 234.28941 -39.816249 
L 231.47142 -39.779829 
L 228.65343 -39.753561 
L 225.835439 -39.734995 
L 223.017449 -39.719433 
L 220.199459 -39.703964 
L 217.381469 -39.687534 
L 214.563478 -39.670414 
L 211.745488 -39.653249 
L 208.927498 -39.636669 
L 206.109508 -39.622384 
L 203.291517 -39.612266 
L 200.473527 -39.606369 
L 197.655537 -39.60323 
L 194.837547 -39.601476 
L 192.019556 -39.600528 
L 189.201566 -39.600134 
L 186.383576 -39.600023 
z
" style="stroke: #9400d3"/>
    </defs>
    <g clip-path="url(#pee93a999b3)">
     <use xlink:href="#ma1c25c6cd5" x="0" y="360" style="fill: #9400d3; fill-opacity: 0.25; stroke: #9400d3"/>
    </g>
   </g>
   <g id="PolyCollection_4">
    <defs>
     <path id="m9fbae3e9b1" d="M 313.497501 -39.622387 
L 313.497501 -39.6 
L 315.611873 -39.6 
L 317.726245 -39.6 
L 319.840617 -39.6 
L 321.95499 -39.6 
L 324.069362 -39.6 
L 326.183734 -39.6 
L 328.298106 -39.6 
L 330.412478 -39.6 
L 332.52685 -39.6 
L 334.641223 -39.6 
L 336.755595 -39.6 
L 338.869967 -39.6 
L 340.984339 -39.6 
L 343.098711 -39.6 
L 345.213083 -39.6 
L 347.327456 -39.6 
L 349.441828 -39.6 
L 351.5562 -39.6 
L 353.670572 -39.6 
L 355.784944 -39.6 
L 357.899316 -39.6 
L 360.013689 -39.6 
L 362.128061 -39.6 
L 364.242433 -39.6 
L 366.356805 -39.6 
L 368.471177 -39.6 
L 370.585549 -39.6 
L 372.699922 -39.6 
L 374.814294 -39.6 
L 376.928666 -39.6 
L 379.043038 -39.6 
L 381.15741 -39.6 
L 383.271782 -39.6 
L 385.386154 -39.6 
L 387.500527 -39.6 
L 389.614899 -39.6 
L 391.729271 -39.6 
L 393.843643 -39.6 
L 395.958015 -39.6 
L 398.072387 -39.6 
L 400.18676 -39.6 
L 402.301132 -39.6 
L 404.415504 -39.6 
L 406.529876 -39.6 
L 408.644248 -39.6 
L 410.75862 -39.6 
L 412.872993 -39.6 
L 414.987365 -39.6 
L 417.101737 -39.6 
L 419.216109 -39.6 
L 421.330481 -39.6 
L 423.444853 -39.6 
L 425.559226 -39.6 
L 427.673598 -39.6 
L 429.78797 -39.6 
L 431.902342 -39.6 
L 434.016714 -39.6 
L 436.131086 -39.6 
L 438.245458 -39.6 
L 440.359831 -39.6 
L 442.474203 -39.6 
L 444.588575 -39.6 
L 446.702947 -39.6 
L 448.817319 -39.6 
L 450.931691 -39.6 
L 453.046064 -39.6 
L 455.160436 -39.6 
L 457.274808 -39.6 
L 459.38918 -39.6 
L 461.503552 -39.6 
L 463.617924 -39.6 
L 465.732297 -39.6 
L 467.846669 -39.6 
L 469.961041 -39.6 
L 472.075413 -39.6 
L 474.189785 -39.6 
L 476.304157 -39.6 
L 478.41853 -39.6 
L 480.532902 -39.6 
L 482.647274 -39.6 
L 484.761646 -39.6 
L 486.876018 -39.6 
L 488.99039 -39.6 
L 491.104763 -39.6 
L 493.219135 -39.6 
L 495.333507 -39.6 
L 497.447879 -39.6 
L 499.562251 -39.6 
L 501.676623 -39.6 
L 503.790995 -39.6 
L 505.905368 -39.6 
L 508.01974 -39.6 
L 510.134112 -39.6 
L 512.248484 -39.6 
L 514.362856 -39.6 
L 516.477228 -39.6 
L 518.591601 -39.6 
L 520.705973 -39.6 
L 522.820345 -39.6 
L 524.934717 -39.6 
L 527.049089 -39.6 
L 529.163461 -39.6 
L 531.277834 -39.6 
L 533.392206 -39.6 
L 535.506578 -39.6 
L 537.62095 -39.6 
L 539.735322 -39.6 
L 541.849694 -39.6 
L 543.964067 -39.6 
L 546.078439 -39.6 
L 548.192811 -39.6 
L 550.307183 -39.6 
L 552.421555 -39.6 
L 554.535927 -39.6 
L 556.6503 -39.6 
L 558.764672 -39.6 
L 560.879044 -39.6 
L 562.993416 -39.6 
L 565.107788 -39.6 
L 567.22216 -39.6 
L 569.336532 -39.6 
L 571.450905 -39.6 
L 573.565277 -39.6 
L 575.679649 -39.6 
L 577.794021 -39.6 
L 579.908393 -39.6 
L 582.022765 -39.6 
L 584.137138 -39.6 
L 586.25151 -39.6 
L 588.365882 -39.6 
L 590.480254 -39.6 
L 592.594626 -39.6 
L 594.708998 -39.6 
L 596.823371 -39.6 
L 598.937743 -39.6 
L 601.052115 -39.6 
L 603.166487 -39.6 
L 605.280859 -39.6 
L 607.395231 -39.6 
L 609.509604 -39.6 
L 611.623976 -39.6 
L 613.738348 -39.6 
L 615.85272 -39.6 
L 617.967092 -39.6 
L 620.081464 -39.6 
L 622.195837 -39.6 
L 624.310209 -39.6 
L 626.424581 -39.6 
L 628.538953 -39.6 
L 630.653325 -39.6 
L 632.767697 -39.6 
L 634.882069 -39.6 
L 636.996442 -39.6 
L 639.110814 -39.6 
L 641.225186 -39.6 
L 643.339558 -39.6 
L 645.45393 -39.6 
L 647.568302 -39.6 
L 649.682675 -39.6 
L 651.797047 -39.6 
L 653.911419 -39.6 
L 656.025791 -39.6 
L 658.140163 -39.6 
L 660.254535 -39.6 
L 662.368908 -39.6 
L 664.48328 -39.6 
L 666.597652 -39.6 
L 668.712024 -39.6 
L 670.826396 -39.6 
L 672.940768 -39.6 
L 675.055141 -39.6 
L 677.169513 -39.6 
L 679.283885 -39.6 
L 681.398257 -39.6 
L 683.512629 -39.6 
L 685.627001 -39.6 
L 687.741374 -39.6 
L 689.855746 -39.6 
L 691.970118 -39.6 
L 694.08449 -39.6 
L 696.198862 -39.6 
L 698.313234 -39.6 
L 700.427606 -39.6 
L 702.541979 -39.6 
L 704.656351 -39.6 
L 706.770723 -39.6 
L 708.885095 -39.6 
L 710.999467 -39.6 
L 713.113839 -39.6 
L 715.228212 -39.6 
L 717.342584 -39.6 
L 719.456956 -39.6 
L 721.571328 -39.6 
L 723.6857 -39.6 
L 725.800072 -39.6 
L 727.914445 -39.6 
L 730.028817 -39.6 
L 732.143189 -39.6 
L 734.257561 -39.6 
L 734.257561 -39.608238 
L 734.257561 -39.608238 
L 732.143189 -39.612557 
L 730.028817 -39.618821 
L 727.914445 -39.627748 
L 725.800072 -39.640253 
L 723.6857 -39.657475 
L 721.571328 -39.680804 
L 719.456956 -39.711905 
L 717.342584 -39.752726 
L 715.228212 -39.805507 
L 713.113839 -39.872771 
L 710.999467 -39.957311 
L 708.885095 -40.062164 
L 706.770723 -40.190566 
L 704.656351 -40.345909 
L 702.541979 -40.531674 
L 700.427606 -40.751352 
L 698.313234 -41.008359 
L 696.198862 -41.305926 
L 694.08449 -41.64698 
L 691.970118 -42.034021 
L 689.855746 -42.46899 
L 687.741374 -42.953142 
L 685.627001 -43.486947 
L 683.512629 -44.069998 
L 681.398257 -44.700977 
L 679.283885 -45.37765 
L 677.169513 -46.096916 
L 675.055141 -46.85491 
L 672.940768 -47.647156 
L 670.826396 -48.468762 
L 668.712024 -49.314677 
L 666.597652 -50.179983 
L 664.48328 -51.06023 
L 662.368908 -51.951799 
L 660.254535 -52.852281 
L 658.140163 -53.760838 
L 656.025791 -54.678507 
L 653.911419 -55.608414 
L 651.797047 -56.555838 
L 649.682675 -57.528099 
L 647.568302 -58.534233 
L 645.45393 -59.584475 
L 643.339558 -60.68957 
L 641.225186 -61.859973 
L 639.110814 -63.105053 
L 636.996442 -64.432366 
L 634.882069 -65.847127 
L 632.767697 -67.351945 
L 630.653325 -68.946859 
L 628.538953 -70.629684 
L 626.424581 -72.396601 
L 624.310209 -74.242898 
L 622.195837 -76.163753 
L 620.081464 -78.154928 
L 617.967092 -80.213277 
L 615.85272 -82.336994 
L 613.738348 -84.525601 
L 611.623976 -86.779699 
L 609.509604 -89.100562 
L 607.395231 -91.489677 
L 605.280859 -93.948321 
L 603.166487 -96.477252 
L 601.052115 -99.076562 
L 598.937743 -101.745673 
L 596.823371 -104.483453 
L 594.708998 -107.288389 
L 592.594626 -110.158739 
L 590.480254 -113.092642 
L 588.365882 -116.088137 
L 586.25151 -119.143115 
L 584.137138 -122.255221 
L 582.022765 -125.421758 
L 579.908393 -128.639608 
L 577.794021 -131.9052 
L 575.679649 -135.214505 
L 573.565277 -138.563042 
L 571.450905 -141.945848 
L 569.336532 -145.357402 
L 567.22216 -148.791491 
L 565.107788 -152.24104 
L 562.993416 -155.697955 
L 560.879044 -159.153041 
L 558.764672 -162.596034 
L 556.6503 -166.01578 
L 554.535927 -169.400517 
L 552.421555 -172.738202 
L 550.307183 -176.016762 
L 548.192811 -179.224146 
L 546.078439 -182.34807 
L 543.964067 -185.375396 
L 541.849694 -188.291176 
L 539.735322 -191.077473 
L 537.62095 -193.712157 
L 535.506578 -196.167944 
L 533.392206 -198.411941 
L 531.277834 -200.405955 
L 529.163461 -202.107707 
L 527.049089 -203.473003 
L 524.934717 -204.458734 
L 522.820345 -205.026479 
L 520.705973 -205.146322 
L 518.591601 -204.800459 
L 516.477228 -203.986148 
L 514.362856 -202.717605 
L 512.248484 -201.026547 
L 510.134112 -198.961267 
L 508.01974 -196.584246 
L 505.905368 -193.968524 
L 503.790995 -191.19316 
L 501.676623 -188.338237 
L 499.562251 -185.479884 
L 497.447879 -182.68579 
L 495.333507 -180.011581 
L 493.219135 -177.49836 
L 491.104763 -175.171505 
L 488.99039 -173.040733 
L 486.876018 -171.101271 
L 484.761646 -169.33591 
L 482.647274 -167.717642 
L 480.532902 -166.212589 
L 478.41853 -164.78296 
L 476.304157 -163.389809 
L 474.189785 -161.995445 
L 472.075413 -160.565407 
L 469.961041 -159.069936 
L 467.846669 -157.484954 
L 465.732297 -155.792521 
L 463.617924 -153.980823 
L 461.503552 -152.043694 
L 459.38918 -149.979738 
L 457.274808 -147.791138 
L 455.160436 -145.482274 
L 453.046064 -143.058304 
L 450.931691 -140.523897 
L 448.817319 -137.882291 
L 446.702947 -135.134843 
L 444.588575 -132.281154 
L 442.474203 -129.3198 
L 440.359831 -126.249588 
L 438.245458 -123.071166 
L 436.131086 -119.788763 
L 434.016714 -116.411772 
L 431.902342 -112.955905 
L 429.78797 -109.443703 
L 427.673598 -105.904231 
L 425.559226 -102.371955 
L 423.444853 -98.884863 
L 421.330481 -95.482028 
L 419.216109 -92.200906 
L 417.101737 -89.074672 
L 414.987365 -86.129918 
L 412.872993 -83.38499 
L 410.75862 -80.849126 
L 408.644248 -78.522472 
L 406.529876 -76.396923 
L 404.415504 -74.457631 
L 402.301132 -72.684946 
L 400.18676 -71.05652 
L 398.072387 -69.549317 
L 395.958015 -68.141284 
L 393.843643 -66.812559 
L 391.729271 -65.546131 
L 389.614899 -64.32799 
L 387.500527 -63.146866 
L 385.386154 -61.993702 
L 383.271782 -60.861037 
L 381.15741 -59.742469 
L 379.043038 -58.632292 
L 376.928666 -57.525408 
L 374.814294 -56.41749 
L 372.699922 -55.305363 
L 370.585549 -54.187481 
L 368.471177 -53.064411 
L 366.356805 -51.939175 
L 364.242433 -50.817387 
L 362.128061 -49.707096 
L 360.013689 -48.618368 
L 357.899316 -47.562606 
L 355.784944 -46.551722 
L 353.670572 -45.597232 
L 351.5562 -44.7094 
L 349.441828 -43.896511 
L 347.327456 -43.164356 
L 345.213083 -42.515954 
L 343.098711 -41.951536 
L 340.984339 -41.468743 
L 338.869967 -41.063006 
L 336.755595 -40.728047 
L 334.641223 -40.456428 
L 332.52685 -40.240096 
L 330.412478 -40.070876 
L 328.298106 -39.940878 
L 326.183734 -39.842803 
L 324.069362 -39.770139 
L 321.95499 -39.717271 
L 319.840617 -39.679498 
L 317.726245 -39.652997 
L 315.611873 -39.634739 
L 313.497501 -39.622387 
z
" style="stroke: #0000ff"/>
    </defs>
    <g clip-path="url(#pee93a999b3)">
     <use xlink:href="#m9fbae3e9b1" x="0" y="360" style="fill: #0000ff; fill-opacity: 0.25; stroke: #0000ff"/>
    </g>
   </g>
   <g id="matplotlib.axis_1">
    <g id="xtick_1">
     <g id="line2d_1">
      <defs>
       <path id="ma4073a59a2" d="M 0 0 
L 0 3.5 
" style="stroke: #000000; stroke-width: 0.8"/>
      </defs>
      <g>
       <use xlink:href="#ma4073a59a2" x="174.501048" y="320.4" style="stroke: #000000; stroke-width: 0.8"/>
      </g>
     </g>
     <g id="text_1">
      <!-- −3 -->
      <g transform="translate(167.129954 334.998438) scale(0.1 -0.1)">
       <defs>
        <path id="DejaVuSans-2212" d="M 678 2272 
L 4684 2272 
L 4684 1741 
L 678 1741 
L 678 2272 
z
" transform="scale(0.015625)"/>
        <path id="DejaVuSans-33" d="M 2597 2516 
Q 3050 2419 3304 2112 
Q 3559 1806 3559 1356 
Q 3559 666 3084 287 
Q 2609 -91 1734 -91 
Q 1441 -91 1130 -33 
Q 819 25 488 141 
L 488 750 
Q 750 597 1062 519 
Q 1375 441 1716 441 
Q 2309 441 2620 675 
Q 2931 909 2931 1356 
Q 2931 1769 2642 2001 
Q 2353 2234 1838 2234 
L 1294 2234 
L 1294 2753 
L 1863 2753 
Q 2328 2753 2575 2939 
Q 2822 3125 2822 3475 
Q 2822 3834 2567 4026 
Q 2313 4219 1838 4219 
Q 1578 4219 1281 4162 
Q 984 4106 628 3988 
L 628 4550 
Q 988 4650 1302 4700 
Q 1616 4750 1894 4750 
Q 2613 4750 3031 4423 
Q 3450 4097 3450 3541 
Q 3450 3153 3228 2886 
Q 3006 2619 2597 2516 
z
" transform="scale(0.015625)"/>
       </defs>
       <use xlink:href="#DejaVuSans-2212"/>
       <use xlink:href="#DejaVuSans-33" x="83.789062"/>
      </g>
     </g>
    </g>
    <g id="xtick_2">
     <g id="line2d_2">
      <g>
       <use xlink:href="#ma4073a59a2" x="274.384297" y="320.4" style="stroke: #000000; stroke-width: 0.8"/>
      </g>
     </g>
     <g id="text_2">
      <!-- −2 -->
      <g transform="translate(267.013204 334.998438) scale(0.1 -0.1)">
       <defs>
        <path id="DejaVuSans-32" d="M 1228 531 
L 3431 531 
L 3431 0 
L 469 0 
L 469 531 
Q 828 903 1448 1529 
Q 2069 2156 2228 2338 
Q 2531 2678 2651 2914 
Q 2772 3150 2772 3378 
Q 2772 3750 2511 3984 
Q 2250 4219 1831 4219 
Q 1534 4219 1204 4116 
Q 875 4013 500 3803 
L 500 4441 
Q 881 4594 1212 4672 
Q 1544 4750 1819 4750 
Q 2544 4750 2975 4387 
Q 3406 4025 3406 3419 
Q 3406 3131 3298 2873 
Q 3191 2616 2906 2266 
Q 2828 2175 2409 1742 
Q 1991 1309 1228 531 
z
" transform="scale(0.015625)"/>
       </defs>
       <use xlink:href="#DejaVuSans-2212"/>
       <use xlink:href="#DejaVuSans-32" x="83.789062"/>
      </g>
     </g>
    </g>
    <g id="xtick_3">
     <g id="line2d_3">
      <g>
       <use xlink:href="#ma4073a59a2" x="374.267547" y="320.4" style="stroke: #000000; stroke-width: 0.8"/>
      </g>
     </g>
     <g id="text_3">
      <!-- −1 -->
      <g transform="translate(366.896453 334.998438) scale(0.1 -0.1)">
       <defs>
        <path id="DejaVuSans-31" d="M 794 531 
L 1825 531 
L 1825 4091 
L 703 3866 
L 703 4441 
L 1819 4666 
L 2450 4666 
L 2450 531 
L 3481 531 
L 3481 0 
L 794 0 
L 794 531 
z
" transform="scale(0.015625)"/>
       </defs>
       <use xlink:href="#DejaVuSans-2212"/>
       <use xlink:href="#DejaVuSans-31" x="83.789062"/>
      </g>
     </g>
    </g>
    <g id="xtick_4">
     <g id="line2d_4">
      <g>
       <use xlink:href="#ma4073a59a2" x="474.150797" y="320.4" style="stroke: #000000; stroke-width: 0.8"/>
      </g>
     </g>
     <g id="text_4">
      <!-- 0 -->
      <g transform="translate(470.969547 334.998438) scale(0.1 -0.1)">
       <defs>
        <path id="DejaVuSans-30" d="M 2034 4250 
Q 1547 4250 1301 3770 
Q 1056 3291 1056 2328 
Q 1056 1369 1301 889 
Q 1547 409 2034 409 
Q 2525 409 2770 889 
Q 3016 1369 3016 2328 
Q 3016 3291 2770 3770 
Q 2525 4250 2034 4250 
z
M 2034 4750 
Q 2819 4750 3233 4129 
Q 3647 3509 3647 2328 
Q 3647 1150 3233 529 
Q 2819 -91 2034 -91 
Q 1250 -91 836 529 
Q 422 1150 422 2328 
Q 422 3509 836 4129 
Q 1250 4750 2034 4750 
z
" transform="scale(0.015625)"/>
       </defs>
       <use xlink:href="#DejaVuSans-30"/>
      </g>
     </g>
    </g>
    <g id="xtick_5">
     <g id="line2d_5">
      <g>
       <use xlink:href="#ma4073a59a2" x="574.034046" y="320.4" style="stroke: #000000; stroke-width: 0.8"/>
      </g>
     </g>
     <g id="text_5">
      <!-- 1 -->
      <g transform="translate(570.852796 334.998438) scale(0.1 -0.1)">
       <use xlink:href="#DejaVuSans-31"/>
      </g>
     </g>
    </g>
    <g id="xtick_6">
     <g id="line2d_6">
      <g>
       <use xlink:href="#ma4073a59a2" x="673.917296" y="320.4" style="stroke: #000000; stroke-width: 0.8"/>
      </g>
     </g>
     <g id="text_6">
      <!-- 2 -->
      <g transform="translate(670.736046 334.998438) scale(0.1 -0.1)">
       <use xlink:href="#DejaVuSans-32"/>
      </g>
     </g>
    </g>
    <g id="xtick_7">
     <g id="line2d_7">
      <g>
       <use xlink:href="#ma4073a59a2" x="773.800546" y="320.4" style="stroke: #000000; stroke-width: 0.8"/>
      </g>
     </g>
     <g id="text_7">
      <!-- 3 -->
      <g transform="translate(770.619296 334.998438) scale(0.1 -0.1)">
       <use xlink:href="#DejaVuSans-33"/>
      </g>
     </g>
    </g>
    <g id="text_8">
     <!-- xpehh -->
     <g transform="translate(427.252344 348.676562) scale(0.1 -0.1)">
      <defs>
       <path id="DejaVuSans-78" d="M 3513 3500 
L 2247 1797 
L 3578 0 
L 2900 0 
L 1881 1375 
L 863 0 
L 184 0 
L 1544 1831 
L 300 3500 
L 978 3500 
L 1906 2253 
L 2834 3500 
L 3513 3500 
z
" transform="scale(0.015625)"/>
       <path id="DejaVuSans-70" d="M 1159 525 
L 1159 -1331 
L 581 -1331 
L 581 3500 
L 1159 3500 
L 1159 2969 
Q 1341 3281 1617 3432 
Q 1894 3584 2278 3584 
Q 2916 3584 3314 3078 
Q 3713 2572 3713 1747 
Q 3713 922 3314 415 
Q 2916 -91 2278 -91 
Q 1894 -91 1617 61 
Q 1341 213 1159 525 
z
M 3116 1747 
Q 3116 2381 2855 2742 
Q 2594 3103 2138 3103 
Q 1681 3103 1420 2742 
Q 1159 2381 1159 1747 
Q 1159 1113 1420 752 
Q 1681 391 2138 391 
Q 2594 391 2855 752 
Q 3116 1113 3116 1747 
z
" transform="scale(0.015625)"/>
       <path id="DejaVuSans-65" d="M 3597 1894 
L 3597 1613 
L 953 1613 
Q 991 1019 1311 708 
Q 1631 397 2203 397 
Q 2534 397 2845 478 
Q 3156 559 3463 722 
L 3463 178 
Q 3153 47 2828 -22 
Q 2503 -91 2169 -91 
Q 1331 -91 842 396 
Q 353 884 353 1716 
Q 353 2575 817 3079 
Q 1281 3584 2069 3584 
Q 2775 3584 3186 3129 
Q 3597 2675 3597 1894 
z
M 3022 2063 
Q 3016 2534 2758 2815 
Q 2500 3097 2075 3097 
Q 1594 3097 1305 2825 
Q 1016 2553 972 2059 
L 3022 2063 
z
" transform="scale(0.015625)"/>
       <path id="DejaVuSans-68" d="M 3513 2113 
L 3513 0 
L 2938 0 
L 2938 2094 
Q 2938 2591 2744 2837 
Q 2550 3084 2163 3084 
Q 1697 3084 1428 2787 
Q 1159 2491 1159 1978 
L 1159 0 
L 581 0 
L 581 4863 
L 1159 4863 
L 1159 2956 
Q 1366 3272 1645 3428 
Q 1925 3584 2291 3584 
Q 2894 3584 3203 3211 
Q 3513 2838 3513 2113 
z
" transform="scale(0.015625)"/>
      </defs>
      <use xlink:href="#DejaVuSans-78"/>
      <use xlink:href="#DejaVuSans-70" x="59.179688"/>
      <use xlink:href="#DejaVuSans-65" x="122.65625"/>
      <use xlink:href="#DejaVuSans-68" x="184.179688"/>
      <use xlink:href="#DejaVuSans-68" x="247.558594"/>
     </g>
    </g>
   </g>
   <g id="matplotlib.axis_2">
    <g id="ytick_1">
     <g id="line2d_8">
      <defs>
       <path id="me8396cceb1" d="M 0 0 
L -3.5 0 
" style="stroke: #000000; stroke-width: 0.8"/>
      </defs>
      <g>
       <use xlink:href="#me8396cceb1" x="108" y="320.4" style="stroke: #000000; stroke-width: 0.8"/>
      </g>
     </g>
     <g id="text_9">
      <!-- 0.0 -->
      <g transform="translate(85.096875 324.199219) scale(0.1 -0.1)">
       <defs>
        <path id="DejaVuSans-2e" d="M 684 794 
L 1344 794 
L 1344 0 
L 684 0 
L 684 794 
z
" transform="scale(0.015625)"/>
       </defs>
       <use xlink:href="#DejaVuSans-30"/>
       <use xlink:href="#DejaVuSans-2e" x="63.623047"/>
       <use xlink:href="#DejaVuSans-30" x="95.410156"/>
      </g>
     </g>
    </g>
    <g id="ytick_2">
     <g id="line2d_9">
      <g>
       <use xlink:href="#me8396cceb1" x="108" y="270.167123" style="stroke: #000000; stroke-width: 0.8"/>
      </g>
     </g>
     <g id="text_10">
      <!-- 0.2 -->
      <g transform="translate(85.096875 273.966342) scale(0.1 -0.1)">
       <use xlink:href="#DejaVuSans-30"/>
       <use xlink:href="#DejaVuSans-2e" x="63.623047"/>
       <use xlink:href="#DejaVuSans-32" x="95.410156"/>
      </g>
     </g>
    </g>
    <g id="ytick_3">
     <g id="line2d_10">
      <g>
       <use xlink:href="#me8396cceb1" x="108" y="219.934246" style="stroke: #000000; stroke-width: 0.8"/>
      </g>
     </g>
     <g id="text_11">
      <!-- 0.4 -->
      <g transform="translate(85.096875 223.733465) scale(0.1 -0.1)">
       <defs>
        <path id="DejaVuSans-34" d="M 2419 4116 
L 825 1625 
L 2419 1625 
L 2419 4116 
z
M 2253 4666 
L 3047 4666 
L 3047 1625 
L 3713 1625 
L 3713 1100 
L 3047 1100 
L 3047 0 
L 2419 0 
L 2419 1100 
L 313 1100 
L 313 1709 
L 2253 4666 
z
" transform="scale(0.015625)"/>
       </defs>
       <use xlink:href="#DejaVuSans-30"/>
       <use xlink:href="#DejaVuSans-2e" x="63.623047"/>
       <use xlink:href="#DejaVuSans-34" x="95.410156"/>
      </g>
     </g>
    </g>
    <g id="ytick_4">
     <g id="line2d_11">
      <g>
       <use xlink:href="#me8396cceb1" x="108" y="169.701369" style="stroke: #000000; stroke-width: 0.8"/>
      </g>
     </g>
     <g id="text_12">
      <!-- 0.6 -->
      <g transform="translate(85.096875 173.500588) scale(0.1 -0.1)">
       <defs>
        <path id="DejaVuSans-36" d="M 2113 2584 
Q 1688 2584 1439 2293 
Q 1191 2003 1191 1497 
Q 1191 994 1439 701 
Q 1688 409 2113 409 
Q 2538 409 2786 701 
Q 3034 994 3034 1497 
Q 3034 2003 2786 2293 
Q 2538 2584 2113 2584 
z
M 3366 4563 
L 3366 3988 
Q 3128 4100 2886 4159 
Q 2644 4219 2406 4219 
Q 1781 4219 1451 3797 
Q 1122 3375 1075 2522 
Q 1259 2794 1537 2939 
Q 1816 3084 2150 3084 
Q 2853 3084 3261 2657 
Q 3669 2231 3669 1497 
Q 3669 778 3244 343 
Q 2819 -91 2113 -91 
Q 1303 -91 875 529 
Q 447 1150 447 2328 
Q 447 3434 972 4092 
Q 1497 4750 2381 4750 
Q 2619 4750 2861 4703 
Q 3103 4656 3366 4563 
z
" transform="scale(0.015625)"/>
       </defs>
       <use xlink:href="#DejaVuSans-30"/>
       <use xlink:href="#DejaVuSans-2e" x="63.623047"/>
       <use xlink:href="#DejaVuSans-36" x="95.410156"/>
      </g>
     </g>
    </g>
    <g id="ytick_5">
     <g id="line2d_12">
      <g>
       <use xlink:href="#me8396cceb1" x="108" y="119.468492" style="stroke: #000000; stroke-width: 0.8"/>
      </g>
     </g>
     <g id="text_13">
      <!-- 0.8 -->
      <g transform="translate(85.096875 123.267711) scale(0.1 -0.1)">
       <defs>
        <path id="DejaVuSans-38" d="M 2034 2216 
Q 1584 2216 1326 1975 
Q 1069 1734 1069 1313 
Q 1069 891 1326 650 
Q 1584 409 2034 409 
Q 2484 409 2743 651 
Q 3003 894 3003 1313 
Q 3003 1734 2745 1975 
Q 2488 2216 2034 2216 
z
M 1403 2484 
Q 997 2584 770 2862 
Q 544 3141 544 3541 
Q 544 4100 942 4425 
Q 1341 4750 2034 4750 
Q 2731 4750 3128 4425 
Q 3525 4100 3525 3541 
Q 3525 3141 3298 2862 
Q 3072 2584 2669 2484 
Q 3125 2378 3379 2068 
Q 3634 1759 3634 1313 
Q 3634 634 3220 271 
Q 2806 -91 2034 -91 
Q 1263 -91 848 271 
Q 434 634 434 1313 
Q 434 1759 690 2068 
Q 947 2378 1403 2484 
z
M 1172 3481 
Q 1172 3119 1398 2916 
Q 1625 2713 2034 2713 
Q 2441 2713 2670 2916 
Q 2900 3119 2900 3481 
Q 2900 3844 2670 4047 
Q 2441 4250 2034 4250 
Q 1625 4250 1398 4047 
Q 1172 3844 1172 3481 
z
" transform="scale(0.015625)"/>
       </defs>
       <use xlink:href="#DejaVuSans-30"/>
       <use xlink:href="#DejaVuSans-2e" x="63.623047"/>
       <use xlink:href="#DejaVuSans-38" x="95.410156"/>
      </g>
     </g>
    </g>
    <g id="ytick_6">
     <g id="line2d_13">
      <g>
       <use xlink:href="#me8396cceb1" x="108" y="69.235615" style="stroke: #000000; stroke-width: 0.8"/>
      </g>
     </g>
     <g id="text_14">
      <!-- 1.0 -->
      <g transform="translate(85.096875 73.034834) scale(0.1 -0.1)">
       <use xlink:href="#DejaVuSans-31"/>
       <use xlink:href="#DejaVuSans-2e" x="63.623047"/>
       <use xlink:href="#DejaVuSans-30" x="95.410156"/>
      </g>
     </g>
    </g>
    <g id="text_15">
     <!-- Density -->
     <g transform="translate(79.017187 200.808594) rotate(-90) scale(0.1 -0.1)">
      <defs>
       <path id="DejaVuSans-44" d="M 1259 4147 
L 1259 519 
L 2022 519 
Q 2988 519 3436 956 
Q 3884 1394 3884 2338 
Q 3884 3275 3436 3711 
Q 2988 4147 2022 4147 
L 1259 4147 
z
M 628 4666 
L 1925 4666 
Q 3281 4666 3915 4102 
Q 4550 3538 4550 2338 
Q 4550 1131 3912 565 
Q 3275 0 1925 0 
L 628 0 
L 628 4666 
z
" transform="scale(0.015625)"/>
       <path id="DejaVuSans-6e" d="M 3513 2113 
L 3513 0 
L 2938 0 
L 2938 2094 
Q 2938 2591 2744 2837 
Q 2550 3084 2163 3084 
Q 1697 3084 1428 2787 
Q 1159 2491 1159 1978 
L 1159 0 
L 581 0 
L 581 3500 
L 1159 3500 
L 1159 2956 
Q 1366 3272 1645 3428 
Q 1925 3584 2291 3584 
Q 2894 3584 3203 3211 
Q 3513 2838 3513 2113 
z
" transform="scale(0.015625)"/>
       <path id="DejaVuSans-73" d="M 2834 3397 
L 2834 2853 
Q 2591 2978 2328 3040 
Q 2066 3103 1784 3103 
Q 1356 3103 1142 2972 
Q 928 2841 928 2578 
Q 928 2378 1081 2264 
Q 1234 2150 1697 2047 
L 1894 2003 
Q 2506 1872 2764 1633 
Q 3022 1394 3022 966 
Q 3022 478 2636 193 
Q 2250 -91 1575 -91 
Q 1294 -91 989 -36 
Q 684 19 347 128 
L 347 722 
Q 666 556 975 473 
Q 1284 391 1588 391 
Q 1994 391 2212 530 
Q 2431 669 2431 922 
Q 2431 1156 2273 1281 
Q 2116 1406 1581 1522 
L 1381 1569 
Q 847 1681 609 1914 
Q 372 2147 372 2553 
Q 372 3047 722 3315 
Q 1072 3584 1716 3584 
Q 2034 3584 2315 3537 
Q 2597 3491 2834 3397 
z
" transform="scale(0.015625)"/>
       <path id="DejaVuSans-69" d="M 603 3500 
L 1178 3500 
L 1178 0 
L 603 0 
L 603 3500 
z
M 603 4863 
L 1178 4863 
L 1178 4134 
L 603 4134 
L 603 4863 
z
" transform="scale(0.015625)"/>
       <path id="DejaVuSans-74" d="M 1172 4494 
L 1172 3500 
L 2356 3500 
L 2356 3053 
L 1172 3053 
L 1172 1153 
Q 1172 725 1289 603 
Q 1406 481 1766 481 
L 2356 481 
L 2356 0 
L 1766 0 
Q 1100 0 847 248 
Q 594 497 594 1153 
L 594 3053 
L 172 3053 
L 172 3500 
L 594 3500 
L 594 4494 
L 1172 4494 
z
" transform="scale(0.015625)"/>
       <path id="DejaVuSans-79" d="M 2059 -325 
Q 1816 -950 1584 -1140 
Q 1353 -1331 966 -1331 
L 506 -1331 
L 506 -850 
L 844 -850 
Q 1081 -850 1212 -737 
Q 1344 -625 1503 -206 
L 1606 56 
L 191 3500 
L 800 3500 
L 1894 763 
L 2988 3500 
L 3597 3500 
L 2059 -325 
z
" transform="scale(0.015625)"/>
      </defs>
      <use xlink:href="#DejaVuSans-44"/>
      <use xlink:href="#DejaVuSans-65" x="77.001953"/>
      <use xlink:href="#DejaVuSans-6e" x="138.525391"/>
      <use xlink:href="#DejaVuSans-73" x="201.904297"/>
      <use xlink:href="#DejaVuSans-69" x="254.003906"/>
      <use xlink:href="#DejaVuSans-74" x="281.787109"/>
      <use xlink:href="#DejaVuSans-79" x="320.996094"/>
     </g>
    </g>
   </g>
   <g id="patch_3">
    <path d="M 108 320.4 
L 108 43.2 
" style="fill: none; stroke: #000000; stroke-width: 0.8; stroke-linejoin: miter; stroke-linecap: square"/>
   </g>
   <g id="patch_4">
    <path d="M 777.6 320.4 
L 777.6 43.2 
" style="fill: none; stroke: #000000; stroke-width: 0.8; stroke-linejoin: miter; stroke-linecap: square"/>
   </g>
   <g id="patch_5">
    <path d="M 108 320.4 
L 777.6 320.4 
" style="fill: none; stroke: #000000; stroke-width: 0.8; stroke-linejoin: miter; stroke-linecap: square"/>
   </g>
   <g id="patch_6">
    <path d="M 108 43.2 
L 777.6 43.2 
" style="fill: none; stroke: #000000; stroke-width: 0.8; stroke-linejoin: miter; stroke-linecap: square"/>
   </g>
   <g id="text_16">
    <!-- XP-EHH Distribution -->
    <g transform="translate(383.3175 37.2) scale(0.12 -0.12)">
     <defs>
      <path id="DejaVuSans-58" d="M 403 4666 
L 1081 4666 
L 2241 2931 
L 3406 4666 
L 4084 4666 
L 2584 2425 
L 4184 0 
L 3506 0 
L 2194 1984 
L 872 0 
L 191 0 
L 1856 2491 
L 403 4666 
z
" transform="scale(0.015625)"/>
      <path id="DejaVuSans-50" d="M 1259 4147 
L 1259 2394 
L 2053 2394 
Q 2494 2394 2734 2622 
Q 2975 2850 2975 3272 
Q 2975 3691 2734 3919 
Q 2494 4147 2053 4147 
L 1259 4147 
z
M 628 4666 
L 2053 4666 
Q 2838 4666 3239 4311 
Q 3641 3956 3641 3272 
Q 3641 2581 3239 2228 
Q 2838 1875 2053 1875 
L 1259 1875 
L 1259 0 
L 628 0 
L 628 4666 
z
" transform="scale(0.015625)"/>
      <path id="DejaVuSans-2d" d="M 313 2009 
L 1997 2009 
L 1997 1497 
L 313 1497 
L 313 2009 
z
" transform="scale(0.015625)"/>
      <path id="DejaVuSans-45" d="M 628 4666 
L 3578 4666 
L 3578 4134 
L 1259 4134 
L 1259 2753 
L 3481 2753 
L 3481 2222 
L 1259 2222 
L 1259 531 
L 3634 531 
L 3634 0 
L 628 0 
L 628 4666 
z
" transform="scale(0.015625)"/>
      <path id="DejaVuSans-48" d="M 628 4666 
L 1259 4666 
L 1259 2753 
L 3553 2753 
L 3553 4666 
L 4184 4666 
L 4184 0 
L 3553 0 
L 3553 2222 
L 1259 2222 
L 1259 0 
L 628 0 
L 628 4666 
z
" transform="scale(0.015625)"/>
      <path id="DejaVuSans-20" transform="scale(0.015625)"/>
      <path id="DejaVuSans-72" d="M 2631 2963 
Q 2534 3019 2420 3045 
Q 2306 3072 2169 3072 
Q 1681 3072 1420 2755 
Q 1159 2438 1159 1844 
L 1159 0 
L 581 0 
L 581 3500 
L 1159 3500 
L 1159 2956 
Q 1341 3275 1631 3429 
Q 1922 3584 2338 3584 
Q 2397 3584 2469 3576 
Q 2541 3569 2628 3553 
L 2631 2963 
z
" transform="scale(0.015625)"/>
      <path id="DejaVuSans-62" d="M 3116 1747 
Q 3116 2381 2855 2742 
Q 2594 3103 2138 3103 
Q 1681 3103 1420 2742 
Q 1159 2381 1159 1747 
Q 1159 1113 1420 752 
Q 1681 391 2138 391 
Q 2594 391 2855 752 
Q 3116 1113 3116 1747 
z
M 1159 2969 
Q 1341 3281 1617 3432 
Q 1894 3584 2278 3584 
Q 2916 3584 3314 3078 
Q 3713 2572 3713 1747 
Q 3713 922 3314 415 
Q 2916 -91 2278 -91 
Q 1894 -91 1617 61 
Q 1341 213 1159 525 
L 1159 0 
L 581 0 
L 581 4863 
L 1159 4863 
L 1159 2969 
z
" transform="scale(0.015625)"/>
      <path id="DejaVuSans-75" d="M 544 1381 
L 544 3500 
L 1119 3500 
L 1119 1403 
Q 1119 906 1312 657 
Q 1506 409 1894 409 
Q 2359 409 2629 706 
Q 2900 1003 2900 1516 
L 2900 3500 
L 3475 3500 
L 3475 0 
L 2900 0 
L 2900 538 
Q 2691 219 2414 64 
Q 2138 -91 1772 -91 
Q 1169 -91 856 284 
Q 544 659 544 1381 
z
M 1991 3584 
L 1991 3584 
z
" transform="scale(0.015625)"/>
      <path id="DejaVuSans-6f" d="M 1959 3097 
Q 1497 3097 1228 2736 
Q 959 2375 959 1747 
Q 959 1119 1226 758 
Q 1494 397 1959 397 
Q 2419 397 2687 759 
Q 2956 1122 2956 1747 
Q 2956 2369 2687 2733 
Q 2419 3097 1959 3097 
z
M 1959 3584 
Q 2709 3584 3137 3096 
Q 3566 2609 3566 1747 
Q 3566 888 3137 398 
Q 2709 -91 1959 -91 
Q 1206 -91 779 398 
Q 353 888 353 1747 
Q 353 2609 779 3096 
Q 1206 3584 1959 3584 
z
" transform="scale(0.015625)"/>
     </defs>
     <use xlink:href="#DejaVuSans-58"/>
     <use xlink:href="#DejaVuSans-50" x="68.505859"/>
     <use xlink:href="#DejaVuSans-2d" x="126.558594"/>
     <use xlink:href="#DejaVuSans-45" x="162.642578"/>
     <use xlink:href="#DejaVuSans-48" x="225.826172"/>
     <use xlink:href="#DejaVuSans-48" x="301.021484"/>
     <use xlink:href="#DejaVuSans-20" x="376.216797"/>
     <use xlink:href="#DejaVuSans-44" x="408.003906"/>
     <use xlink:href="#DejaVuSans-69" x="485.005859"/>
     <use xlink:href="#DejaVuSans-73" x="512.789062"/>
     <use xlink:href="#DejaVuSans-74" x="564.888672"/>
     <use xlink:href="#DejaVuSans-72" x="604.097656"/>
     <use xlink:href="#DejaVuSans-69" x="645.210938"/>
     <use xlink:href="#DejaVuSans-62" x="672.994141"/>
     <use xlink:href="#DejaVuSans-75" x="736.470703"/>
     <use xlink:href="#DejaVuSans-74" x="799.849609"/>
     <use xlink:href="#DejaVuSans-69" x="839.058594"/>
     <use xlink:href="#DejaVuSans-6f" x="866.841797"/>
     <use xlink:href="#DejaVuSans-6e" x="928.023438"/>
    </g>
   </g>
   <g id="legend_1">
    <g id="patch_7">
     <path d="M 692.420313 110.46875 
L 770.6 110.46875 
Q 772.6 110.46875 772.6 108.46875 
L 772.6 50.2 
Q 772.6 48.2 770.6 48.2 
L 692.420313 48.2 
Q 690.420313 48.2 690.420313 50.2 
L 690.420313 108.46875 
Q 690.420313 110.46875 692.420313 110.46875 
z
" style="fill: #ffffff; opacity: 0.8; stroke: #cccccc; stroke-linejoin: miter"/>
    </g>
    <g id="patch_8">
     <path d="M 694.420313 59.798437 
L 714.420313 59.798437 
L 714.420313 52.798437 
L 694.420313 52.798437 
z
" style="fill: #ff00ff; fill-opacity: 0.25; stroke: #ff00ff; stroke-linejoin: miter"/>
    </g>
    <g id="text_17">
     <!-- neutral -->
     <g transform="translate(722.420313 59.798437) scale(0.1 -0.1)">
      <defs>
       <path id="DejaVuSans-61" d="M 2194 1759 
Q 1497 1759 1228 1600 
Q 959 1441 959 1056 
Q 959 750 1161 570 
Q 1363 391 1709 391 
Q 2188 391 2477 730 
Q 2766 1069 2766 1631 
L 2766 1759 
L 2194 1759 
z
M 3341 1997 
L 3341 0 
L 2766 0 
L 2766 531 
Q 2569 213 2275 61 
Q 1981 -91 1556 -91 
Q 1019 -91 701 211 
Q 384 513 384 1019 
Q 384 1609 779 1909 
Q 1175 2209 1959 2209 
L 2766 2209 
L 2766 2266 
Q 2766 2663 2505 2880 
Q 2244 3097 1772 3097 
Q 1472 3097 1187 3025 
Q 903 2953 641 2809 
L 641 3341 
Q 956 3463 1253 3523 
Q 1550 3584 1831 3584 
Q 2591 3584 2966 3190 
Q 3341 2797 3341 1997 
z
" transform="scale(0.015625)"/>
       <path id="DejaVuSans-6c" d="M 603 4863 
L 1178 4863 
L 1178 0 
L 603 0 
L 603 4863 
z
" transform="scale(0.015625)"/>
      </defs>
      <use xlink:href="#DejaVuSans-6e"/>
      <use xlink:href="#DejaVuSans-65" x="63.378906"/>
      <use xlink:href="#DejaVuSans-75" x="124.902344"/>
      <use xlink:href="#DejaVuSans-74" x="188.28125"/>
      <use xlink:href="#DejaVuSans-72" x="227.490234"/>
      <use xlink:href="#DejaVuSans-61" x="268.603516"/>
      <use xlink:href="#DejaVuSans-6c" x="329.882812"/>
     </g>
    </g>
    <g id="patch_9">
     <path d="M 694.420313 74.476562 
L 714.420313 74.476562 
L 714.420313 67.476562 
L 694.420313 67.476562 
z
" style="fill: #1e90ff; fill-opacity: 0.25; stroke: #1e90ff; stroke-linejoin: miter"/>
    </g>
    <g id="text_18">
     <!-- link_left -->
     <g transform="translate(722.420313 74.476562) scale(0.1 -0.1)">
      <defs>
       <path id="DejaVuSans-6b" d="M 581 4863 
L 1159 4863 
L 1159 1991 
L 2875 3500 
L 3609 3500 
L 1753 1863 
L 3688 0 
L 2938 0 
L 1159 1709 
L 1159 0 
L 581 0 
L 581 4863 
z
" transform="scale(0.015625)"/>
       <path id="DejaVuSans-5f" d="M 3263 -1063 
L 3263 -1509 
L -63 -1509 
L -63 -1063 
L 3263 -1063 
z
" transform="scale(0.015625)"/>
       <path id="DejaVuSans-66" d="M 2375 4863 
L 2375 4384 
L 1825 4384 
Q 1516 4384 1395 4259 
Q 1275 4134 1275 3809 
L 1275 3500 
L 2222 3500 
L 2222 3053 
L 1275 3053 
L 1275 0 
L 697 0 
L 697 3053 
L 147 3053 
L 147 3500 
L 697 3500 
L 697 3744 
Q 697 4328 969 4595 
Q 1241 4863 1831 4863 
L 2375 4863 
z
" transform="scale(0.015625)"/>
      </defs>
      <use xlink:href="#DejaVuSans-6c"/>
      <use xlink:href="#DejaVuSans-69" x="27.783203"/>
      <use xlink:href="#DejaVuSans-6e" x="55.566406"/>
      <use xlink:href="#DejaVuSans-6b" x="118.945312"/>
      <use xlink:href="#DejaVuSans-5f" x="176.855469"/>
      <use xlink:href="#DejaVuSans-6c" x="226.855469"/>
      <use xlink:href="#DejaVuSans-65" x="254.638672"/>
      <use xlink:href="#DejaVuSans-66" x="316.162109"/>
      <use xlink:href="#DejaVuSans-74" x="349.617188"/>
     </g>
    </g>
    <g id="patch_10">
     <path d="M 694.420313 89.432812 
L 714.420313 89.432812 
L 714.420313 82.432812 
L 694.420313 82.432812 
z
" style="fill: #9400d3; fill-opacity: 0.25; stroke: #9400d3; stroke-linejoin: miter"/>
    </g>
    <g id="text_19">
     <!-- link_right -->
     <g transform="translate(722.420313 89.432812) scale(0.1 -0.1)">
      <defs>
       <path id="DejaVuSans-67" d="M 2906 1791 
Q 2906 2416 2648 2759 
Q 2391 3103 1925 3103 
Q 1463 3103 1205 2759 
Q 947 2416 947 1791 
Q 947 1169 1205 825 
Q 1463 481 1925 481 
Q 2391 481 2648 825 
Q 2906 1169 2906 1791 
z
M 3481 434 
Q 3481 -459 3084 -895 
Q 2688 -1331 1869 -1331 
Q 1566 -1331 1297 -1286 
Q 1028 -1241 775 -1147 
L 775 -588 
Q 1028 -725 1275 -790 
Q 1522 -856 1778 -856 
Q 2344 -856 2625 -561 
Q 2906 -266 2906 331 
L 2906 616 
Q 2728 306 2450 153 
Q 2172 0 1784 0 
Q 1141 0 747 490 
Q 353 981 353 1791 
Q 353 2603 747 3093 
Q 1141 3584 1784 3584 
Q 2172 3584 2450 3431 
Q 2728 3278 2906 2969 
L 2906 3500 
L 3481 3500 
L 3481 434 
z
" transform="scale(0.015625)"/>
      </defs>
      <use xlink:href="#DejaVuSans-6c"/>
      <use xlink:href="#DejaVuSans-69" x="27.783203"/>
      <use xlink:href="#DejaVuSans-6e" x="55.566406"/>
      <use xlink:href="#DejaVuSans-6b" x="118.945312"/>
      <use xlink:href="#DejaVuSans-5f" x="176.855469"/>
      <use xlink:href="#DejaVuSans-72" x="226.855469"/>
      <use xlink:href="#DejaVuSans-69" x="267.96875"/>
      <use xlink:href="#DejaVuSans-67" x="295.751953"/>
      <use xlink:href="#DejaVuSans-68" x="359.228516"/>
      <use xlink:href="#DejaVuSans-74" x="422.607422"/>
     </g>
    </g>
    <g id="patch_11">
     <path d="M 694.420313 104.389062 
L 714.420313 104.389062 
L 714.420313 97.389062 
L 694.420313 97.389062 
z
" style="fill: #0000ff; fill-opacity: 0.25; stroke: #0000ff; stroke-linejoin: miter"/>
    </g>
    <g id="text_20">
     <!-- sweep -->
     <g transform="translate(722.420313 104.389062) scale(0.1 -0.1)">
      <defs>
       <path id="DejaVuSans-77" d="M 269 3500 
L 844 3500 
L 1563 769 
L 2278 3500 
L 2956 3500 
L 3675 769 
L 4391 3500 
L 4966 3500 
L 4050 0 
L 3372 0 
L 2619 2869 
L 1863 0 
L 1184 0 
L 269 3500 
z
" transform="scale(0.015625)"/>
      </defs>
      <use xlink:href="#DejaVuSans-73"/>
      <use xlink:href="#DejaVuSans-77" x="52.099609"/>
      <use xlink:href="#DejaVuSans-65" x="133.886719"/>
      <use xlink:href="#DejaVuSans-65" x="195.410156"/>
      <use xlink:href="#DejaVuSans-70" x="256.933594"/>
     </g>
    </g>
   </g>
  </g>
 </g>
 <defs>
  <clipPath id="pee93a999b3">
   <rect x="108" y="43.2" width="669.6" height="277.2"/>
  </clipPath>
 </defs>
</svg>
