<?xml version="1.0" encoding="utf-8" standalone="no"?>
<!DOCTYPE svg PUBLIC "-//W3C//DTD SVG 1.1//EN"
  "http://www.w3.org/Graphics/SVG/1.1/DTD/svg11.dtd">
<svg xmlns:xlink="http://www.w3.org/1999/xlink" width="864pt" height="360pt" viewBox="0 0 864 360" xmlns="http://www.w3.org/2000/svg" version="1.1">
 <metadata>
  <rdf:RDF xmlns:dc="http://purl.org/dc/elements/1.1/" xmlns:cc="http://creativecommons.org/ns#" xmlns:rdf="http://www.w3.org/1999/02/22-rdf-syntax-ns#">
   <cc:Work>
    <dc:type rdf:resource="http://purl.org/dc/dcmitype/StillImage"/>
    <dc:date>2024-05-27T13:29:48.020820</dc:date>
    <dc:format>image/svg+xml</dc:format>
    <dc:creator>
     <cc:Agent>
      <dc:title>Matplotlib v3.8.0, https://matplotlib.org/</dc:title>
     </cc:Agent>
    </dc:creator>
   </cc:Work>
  </rdf:RDF>
 </metadata>
 <defs>
  <style type="text/css">*{stroke-linejoin: round; stroke-linecap: butt}</style>
 </defs>
 <g id="figure_1">
  <g id="patch_1">
   <path d="M 0 360 
L 864 360 
L 864 0 
L 0 0 
z
" style="fill: #ffffff"/>
  </g>
  <g id="axes_1">
   <g id="patch_2">
    <path d="M 108 320.4 
L 777.6 320.4 
L 777.6 43.2 
L 108 43.2 
z
" style="fill: #ffffff"/>
   </g>
   <g id="PolyCollection_1">
    <defs>
     <path id="ma7f052e41a" d="M 155.082596 -39.905773 
L 155.082596 -39.6 
L 158.057877 -39.6 
L 161.033159 -39.6 
L 164.00844 -39.6 
L 166.983722 -39.6 
L 169.959004 -39.6 
L 172.934285 -39.6 
L 175.909567 -39.6 
L 178.884849 -39.6 
L 181.86013 -39.6 
L 184.835412 -39.6 
L 187.810693 -39.6 
L 190.785975 -39.6 
L 193.761257 -39.6 
L 196.736538 -39.6 
L 199.71182 -39.6 
L 202.687101 -39.6 
L 205.662383 -39.6 
L 208.637665 -39.6 
L 211.612946 -39.6 
L 214.588228 -39.6 
L 217.563509 -39.6 
L 220.538791 -39.6 
L 223.514073 -39.6 
L 226.489354 -39.6 
L 229.464636 -39.6 
L 232.439918 -39.6 
L 235.415199 -39.6 
L 238.390481 -39.6 
L 241.365762 -39.6 
L 244.341044 -39.6 
L 247.316326 -39.6 
L 250.291607 -39.6 
L 253.266889 -39.6 
L 256.24217 -39.6 
L 259.217452 -39.6 
L 262.192734 -39.6 
L 265.168015 -39.6 
L 268.143297 -39.6 
L 271.118578 -39.6 
L 274.09386 -39.6 
L 277.069142 -39.6 
L 280.044423 -39.6 
L 283.019705 -39.6 
L 285.994987 -39.6 
L 288.970268 -39.6 
L 291.94555 -39.6 
L 294.920831 -39.6 
L 297.896113 -39.6 
L 300.871395 -39.6 
L 303.846676 -39.6 
L 306.821958 -39.6 
L 309.797239 -39.6 
L 312.772521 -39.6 
L 315.747803 -39.6 
L 318.723084 -39.6 
L 321.698366 -39.6 
L 324.673648 -39.6 
L 327.648929 -39.6 
L 330.624211 -39.6 
L 333.599492 -39.6 
L 336.574774 -39.6 
L 339.550056 -39.6 
L 342.525337 -39.6 
L 345.500619 -39.6 
L 348.4759 -39.6 
L 351.451182 -39.6 
L 354.426464 -39.6 
L 357.401745 -39.6 
L 360.377027 -39.6 
L 363.352308 -39.6 
L 366.32759 -39.6 
L 369.302872 -39.6 
L 372.278153 -39.6 
L 375.253435 -39.6 
L 378.228717 -39.6 
L 381.203998 -39.6 
L 384.17928 -39.6 
L 387.154561 -39.6 
L 390.129843 -39.6 
L 393.105125 -39.6 
L 396.080406 -39.6 
L 399.055688 -39.6 
L 402.030969 -39.6 
L 405.006251 -39.6 
L 407.981533 -39.6 
L 410.956814 -39.6 
L 413.932096 -39.6 
L 416.907377 -39.6 
L 419.882659 -39.6 
L 422.857941 -39.6 
L 425.833222 -39.6 
L 428.808504 -39.6 
L 431.783786 -39.6 
L 434.759067 -39.6 
L 437.734349 -39.6 
L 440.70963 -39.6 
L 443.684912 -39.6 
L 446.660194 -39.6 
L 449.635475 -39.6 
L 452.610757 -39.6 
L 455.586038 -39.6 
L 458.56132 -39.6 
L 461.536602 -39.6 
L 464.511883 -39.6 
L 467.487165 -39.6 
L 470.462446 -39.6 
L 473.437728 -39.6 
L 476.41301 -39.6 
L 479.388291 -39.6 
L 482.363573 -39.6 
L 485.338855 -39.6 
L 488.314136 -39.6 
L 491.289418 -39.6 
L 494.264699 -39.6 
L 497.239981 -39.6 
L 500.215263 -39.6 
L 503.190544 -39.6 
L 506.165826 -39.6 
L 509.141107 -39.6 
L 512.116389 -39.6 
L 515.091671 -39.6 
L 518.066952 -39.6 
L 521.042234 -39.6 
L 524.017515 -39.6 
L 526.992797 -39.6 
L 529.968079 -39.6 
L 532.94336 -39.6 
L 535.918642 -39.6 
L 538.893924 -39.6 
L 541.869205 -39.6 
L 544.844487 -39.6 
L 547.819768 -39.6 
L 550.79505 -39.6 
L 553.770332 -39.6 
L 556.745613 -39.6 
L 559.720895 -39.6 
L 562.696176 -39.6 
L 565.671458 -39.6 
L 568.64674 -39.6 
L 571.622021 -39.6 
L 574.597303 -39.6 
L 577.572584 -39.6 
L 580.547866 -39.6 
L 583.523148 -39.6 
L 586.498429 -39.6 
L 589.473711 -39.6 
L 592.448993 -39.6 
L 595.424274 -39.6 
L 598.399556 -39.6 
L 601.374837 -39.6 
L 604.350119 -39.6 
L 607.325401 -39.6 
L 610.300682 -39.6 
L 613.275964 -39.6 
L 616.251245 -39.6 
L 619.226527 -39.6 
L 622.201809 -39.6 
L 625.17709 -39.6 
L 628.152372 -39.6 
L 631.127654 -39.6 
L 634.102935 -39.6 
L 637.078217 -39.6 
L 640.053498 -39.6 
L 643.02878 -39.6 
L 646.004062 -39.6 
L 648.979343 -39.6 
L 651.954625 -39.6 
L 654.929906 -39.6 
L 657.905188 -39.6 
L 660.88047 -39.6 
L 663.855751 -39.6 
L 666.831033 -39.6 
L 669.806314 -39.6 
L 672.781596 -39.6 
L 675.756878 -39.6 
L 678.732159 -39.6 
L 681.707441 -39.6 
L 684.682723 -39.6 
L 687.658004 -39.6 
L 690.633286 -39.6 
L 693.608567 -39.6 
L 696.583849 -39.6 
L 699.559131 -39.6 
L 702.534412 -39.6 
L 705.509694 -39.6 
L 708.484975 -39.6 
L 711.460257 -39.6 
L 714.435539 -39.6 
L 717.41082 -39.6 
L 720.386102 -39.6 
L 723.361383 -39.6 
L 726.336665 -39.6 
L 729.311947 -39.6 
L 732.287228 -39.6 
L 735.26251 -39.6 
L 738.237792 -39.6 
L 741.213073 -39.6 
L 744.188355 -39.6 
L 747.163636 -39.6 
L 747.163636 -39.600015 
L 747.163636 -39.600015 
L 744.188355 -39.600104 
L 741.213073 -39.600453 
L 738.237792 -39.60127 
L 735.26251 -39.602376 
L 732.287228 -39.603132 
L 729.311947 -39.603173 
L 726.336665 -39.602899 
L 723.361383 -39.602872 
L 720.386102 -39.603148 
L 717.41082 -39.603824 
L 714.435539 -39.605323 
L 711.460257 -39.607415 
L 708.484975 -39.609371 
L 705.509694 -39.610959 
L 702.534412 -39.611714 
L 699.559131 -39.61047 
L 696.583849 -39.607794 
L 693.608567 -39.606194 
L 690.633286 -39.606561 
L 687.658004 -39.608162 
L 684.682723 -39.610787 
L 681.707441 -39.613758 
L 678.732159 -39.615404 
L 675.756878 -39.615416 
L 672.781596 -39.614834 
L 669.806314 -39.613921 
L 666.831033 -39.613475 
L 663.855751 -39.61536 
L 660.88047 -39.618885 
L 657.905188 -39.621741 
L 654.929906 -39.624517 
L 651.954625 -39.628292 
L 648.979343 -39.632001 
L 646.004062 -39.635864 
L 643.02878 -39.640738 
L 640.053498 -39.645639 
L 637.078217 -39.650624 
L 634.102935 -39.656227 
L 631.127654 -39.660325 
L 628.152372 -39.662317 
L 625.17709 -39.664734 
L 622.201809 -39.666944 
L 619.226527 -39.665788 
L 616.251245 -39.662228 
L 613.275964 -39.659806 
L 610.300682 -39.659877 
L 607.325401 -39.664186 
L 604.350119 -39.675146 
L 601.374837 -39.688574 
L 598.399556 -39.696673 
L 595.424274 -39.699456 
L 592.448993 -39.702968 
L 589.473711 -39.711291 
L 586.498429 -39.724171 
L 583.523148 -39.739462 
L 580.547866 -39.757786 
L 577.572584 -39.778292 
L 574.597303 -39.793908 
L 571.622021 -39.800135 
L 568.64674 -39.802156 
L 565.671458 -39.806042 
L 562.696176 -39.810668 
L 559.720895 -39.814051 
L 556.745613 -39.818538 
L 553.770332 -39.82867 
L 550.79505 -39.845337 
L 547.819768 -39.862955 
L 544.844487 -39.873072 
L 541.869205 -39.870935 
L 538.893924 -39.86336 
L 535.918642 -39.862153 
L 532.94336 -39.8696 
L 529.968079 -39.878112 
L 526.992797 -39.87949 
L 524.017515 -39.875141 
L 521.042234 -39.875452 
L 518.066952 -39.8871 
L 515.091671 -39.908529 
L 512.116389 -39.937038 
L 509.141107 -39.968038 
L 506.165826 -39.992137 
L 503.190544 -40.008558 
L 500.215263 -40.028667 
L 497.239981 -40.05578 
L 494.264699 -40.078164 
L 491.289418 -40.088627 
L 488.314136 -40.093026 
L 485.338855 -40.101412 
L 482.363573 -40.1183 
L 479.388291 -40.139791 
L 476.41301 -40.166756 
L 473.437728 -40.202363 
L 470.462446 -40.235447 
L 467.487165 -40.255645 
L 464.511883 -40.267197 
L 461.536602 -40.275692 
L 458.56132 -40.285307 
L 455.586038 -40.3053 
L 452.610757 -40.339751 
L 449.635475 -40.377984 
L 446.660194 -40.402057 
L 443.684912 -40.407516 
L 440.70963 -40.410579 
L 437.734349 -40.428405 
L 434.759067 -40.46471 
L 431.783786 -40.508162 
L 428.808504 -40.54701 
L 425.833222 -40.588823 
L 422.857941 -40.643688 
L 419.882659 -40.701744 
L 416.907377 -40.745904 
L 413.932096 -40.775901 
L 410.956814 -40.802439 
L 407.981533 -40.830879 
L 405.006251 -40.86939 
L 402.030969 -40.923075 
L 399.055688 -40.973765 
L 396.080406 -40.995939 
L 393.105125 -40.988589 
L 390.129843 -40.978998 
L 387.154561 -40.99971 
L 384.17928 -41.060406 
L 381.203998 -41.145084 
L 378.228717 -41.231874 
L 375.253435 -41.303218 
L 372.278153 -41.348511 
L 369.302872 -41.379227 
L 366.32759 -41.421805 
L 363.352308 -41.48234 
L 360.377027 -41.547197 
L 357.401745 -41.601873 
L 354.426464 -41.638809 
L 351.451182 -41.675275 
L 348.4759 -41.741201 
L 345.500619 -41.843081 
L 342.525337 -41.962471 
L 339.550056 -42.079837 
L 336.574774 -42.196396 
L 333.599492 -42.320859 
L 330.624211 -42.436509 
L 327.648929 -42.517763 
L 324.673648 -42.568029 
L 321.698366 -42.616188 
L 318.723084 -42.687852 
L 315.747803 -42.784486 
L 312.772521 -42.893274 
L 309.797239 -43.00276 
L 306.821958 -43.10789 
L 303.846676 -43.217278 
L 300.871395 -43.342918 
L 297.896113 -43.488292 
L 294.920831 -43.646494 
L 291.94555 -43.811243 
L 288.970268 -43.977009 
L 285.994987 -44.127141 
L 283.019705 -44.270918 
L 280.044423 -44.468149 
L 277.069142 -44.754916 
L 274.09386 -45.080423 
L 271.118578 -45.376135 
L 268.143297 -45.63076 
L 265.168015 -45.867537 
L 262.192734 -46.117512 
L 259.217452 -46.430897 
L 256.24217 -46.838447 
L 253.266889 -47.283209 
L 250.291607 -47.66094 
L 247.316326 -47.941132 
L 244.341044 -48.224724 
L 241.365762 -48.633509 
L 238.390481 -49.181168 
L 235.415199 -49.830864 
L 232.439918 -50.574106 
L 229.464636 -51.395435 
L 226.489354 -52.252914 
L 223.514073 -53.153238 
L 220.538791 -54.17284 
L 217.563509 -55.342023 
L 214.588228 -56.636275 
L 211.612946 -58.085507 
L 208.637665 -59.774528 
L 205.662383 -61.797523 
L 202.687101 -64.276177 
L 199.71182 -67.340662 
L 196.736538 -71.081955 
L 193.761257 -75.708429 
L 190.785975 -81.763354 
L 187.810693 -90.169785 
L 184.835412 -102.841414 
L 181.86013 -124.991236 
L 178.884849 -167.859875 
L 175.909567 -238.322231 
L 172.934285 -303.6 
L 169.959004 -295.362345 
L 166.983722 -204.949544 
L 164.00844 -108.138447 
L 161.033159 -57.530773 
L 158.057877 -42.549537 
L 155.082596 -39.905773 
z
" style="stroke: #ff00ff"/>
    </defs>
    <g clip-path="url(#p140a072933)">
     <use xlink:href="#ma7f052e41a" x="0" y="360" style="fill: #ff00ff; fill-opacity: 0.25; stroke: #ff00ff"/>
    </g>
   </g>
   <g id="PolyCollection_2">
    <defs>
     <path id="mcd2029bd03" d="M 138.436364 -40.068034 
L 138.436364 -39.6 
L 141.421634 -39.6 
L 144.406904 -39.6 
L 147.392175 -39.6 
L 150.377445 -39.6 
L 153.362715 -39.6 
L 156.347986 -39.6 
L 159.333256 -39.6 
L 162.318526 -39.6 
L 165.303796 -39.6 
L 168.289067 -39.6 
L 171.274337 -39.6 
L 174.259607 -39.6 
L 177.244878 -39.6 
L 180.230148 -39.6 
L 183.215418 -39.6 
L 186.200689 -39.6 
L 189.185959 -39.6 
L 192.171229 -39.6 
L 195.1565 -39.6 
L 198.14177 -39.6 
L 201.12704 -39.6 
L 204.112311 -39.6 
L 207.097581 -39.6 
L 210.082851 -39.6 
L 213.068122 -39.6 
L 216.053392 -39.6 
L 219.038662 -39.6 
L 222.023932 -39.6 
L 225.009203 -39.6 
L 227.994473 -39.6 
L 230.979743 -39.6 
L 233.965014 -39.6 
L 236.950284 -39.6 
L 239.935554 -39.6 
L 242.920825 -39.6 
L 245.906095 -39.6 
L 248.891365 -39.6 
L 251.876636 -39.6 
L 254.861906 -39.6 
L 257.847176 -39.6 
L 260.832447 -39.6 
L 263.817717 -39.6 
L 266.802987 -39.6 
L 269.788258 -39.6 
L 272.773528 -39.6 
L 275.758798 -39.6 
L 278.744068 -39.6 
L 281.729339 -39.6 
L 284.714609 -39.6 
L 287.699879 -39.6 
L 290.68515 -39.6 
L 293.67042 -39.6 
L 296.65569 -39.6 
L 299.640961 -39.6 
L 302.626231 -39.6 
L 305.611501 -39.6 
L 308.596772 -39.6 
L 311.582042 -39.6 
L 314.567312 -39.6 
L 317.552583 -39.6 
L 320.537853 -39.6 
L 323.523123 -39.6 
L 326.508394 -39.6 
L 329.493664 -39.6 
L 332.478934 -39.6 
L 335.464204 -39.6 
L 338.449475 -39.6 
L 341.434745 -39.6 
L 344.420015 -39.6 
L 347.405286 -39.6 
L 350.390556 -39.6 
L 353.375826 -39.6 
L 356.361097 -39.6 
L 359.346367 -39.6 
L 362.331637 -39.6 
L 365.316908 -39.6 
L 368.302178 -39.6 
L 371.287448 -39.6 
L 374.272719 -39.6 
L 377.257989 -39.6 
L 380.243259 -39.6 
L 383.22853 -39.6 
L 386.2138 -39.6 
L 389.19907 -39.6 
L 392.18434 -39.6 
L 395.169611 -39.6 
L 398.154881 -39.6 
L 401.140151 -39.6 
L 404.125422 -39.6 
L 407.110692 -39.6 
L 410.095962 -39.6 
L 413.081233 -39.6 
L 416.066503 -39.6 
L 419.051773 -39.6 
L 422.037044 -39.6 
L 425.022314 -39.6 
L 428.007584 -39.6 
L 430.992855 -39.6 
L 433.978125 -39.6 
L 436.963395 -39.6 
L 439.948666 -39.6 
L 442.933936 -39.6 
L 445.919206 -39.6 
L 448.904476 -39.6 
L 451.889747 -39.6 
L 454.875017 -39.6 
L 457.860287 -39.6 
L 460.845558 -39.6 
L 463.830828 -39.6 
L 466.816098 -39.6 
L 469.801369 -39.6 
L 472.786639 -39.6 
L 475.771909 -39.6 
L 478.75718 -39.6 
L 481.74245 -39.6 
L 484.72772 -39.6 
L 487.712991 -39.6 
L 490.698261 -39.6 
L 493.683531 -39.6 
L 496.668802 -39.6 
L 499.654072 -39.6 
L 502.639342 -39.6 
L 505.624612 -39.6 
L 508.609883 -39.6 
L 511.595153 -39.6 
L 514.580423 -39.6 
L 517.565694 -39.6 
L 520.550964 -39.6 
L 523.536234 -39.6 
L 526.521505 -39.6 
L 529.506775 -39.6 
L 532.492045 -39.6 
L 535.477316 -39.6 
L 538.462586 -39.6 
L 541.447856 -39.6 
L 544.433127 -39.6 
L 547.418397 -39.6 
L 550.403667 -39.6 
L 553.388938 -39.6 
L 556.374208 -39.6 
L 559.359478 -39.6 
L 562.344748 -39.6 
L 565.330019 -39.6 
L 568.315289 -39.6 
L 571.300559 -39.6 
L 574.28583 -39.6 
L 577.2711 -39.6 
L 580.25637 -39.6 
L 583.241641 -39.6 
L 586.226911 -39.6 
L 589.212181 -39.6 
L 592.197452 -39.6 
L 595.182722 -39.6 
L 598.167992 -39.6 
L 601.153263 -39.6 
L 604.138533 -39.6 
L 607.123803 -39.6 
L 610.109074 -39.6 
L 613.094344 -39.6 
L 616.079614 -39.6 
L 619.064884 -39.6 
L 622.050155 -39.6 
L 625.035425 -39.6 
L 628.020695 -39.6 
L 631.005966 -39.6 
L 633.991236 -39.6 
L 636.976506 -39.6 
L 639.961777 -39.6 
L 642.947047 -39.6 
L 645.932317 -39.6 
L 648.917588 -39.6 
L 651.902858 -39.6 
L 654.888128 -39.6 
L 657.873399 -39.6 
L 660.858669 -39.6 
L 663.843939 -39.6 
L 666.82921 -39.6 
L 669.81448 -39.6 
L 672.79975 -39.6 
L 675.78502 -39.6 
L 678.770291 -39.6 
L 681.755561 -39.6 
L 684.740831 -39.6 
L 687.726102 -39.6 
L 690.711372 -39.6 
L 693.696642 -39.6 
L 696.681913 -39.6 
L 699.667183 -39.6 
L 702.652453 -39.6 
L 705.637724 -39.6 
L 708.622994 -39.6 
L 711.608264 -39.6 
L 714.593535 -39.6 
L 717.578805 -39.6 
L 720.564075 -39.6 
L 723.549346 -39.6 
L 726.534616 -39.6 
L 729.519886 -39.6 
L 732.505156 -39.6 
L 732.505156 -39.600119 
L 732.505156 -39.600119 
L 729.519886 -39.600291 
L 726.534616 -39.600654 
L 723.549346 -39.601355 
L 720.564075 -39.602596 
L 717.578805 -39.604617 
L 714.593535 -39.607661 
L 711.608264 -39.611921 
L 708.622994 -39.617479 
L 705.637724 -39.624225 
L 702.652453 -39.631776 
L 699.667183 -39.639416 
L 696.681913 -39.646122 
L 693.696642 -39.650742 
L 690.711372 -39.652353 
L 687.726102 -39.650662 
L 684.740831 -39.64628 
L 681.755561 -39.640684 
L 678.770291 -39.635843 
L 675.78502 -39.633636 
L 672.79975 -39.635304 
L 669.81448 -39.641129 
L 666.82921 -39.650428 
L 663.843939 -39.661864 
L 660.858669 -39.673951 
L 657.873399 -39.685577 
L 654.888128 -39.696332 
L 651.902858 -39.706527 
L 648.917588 -39.716944 
L 645.932317 -39.728524 
L 642.947047 -39.742174 
L 639.961777 -39.758691 
L 636.976506 -39.778657 
L 633.991236 -39.802154 
L 631.005966 -39.828405 
L 628.020695 -39.855636 
L 625.035425 -39.881378 
L 622.050155 -39.903221 
L 619.064884 -39.919692 
L 616.079614 -39.930866 
L 613.094344 -39.938421 
L 610.109074 -39.945069 
L 607.123803 -39.953525 
L 604.138533 -39.965381 
L 601.153263 -39.980381 
L 598.167992 -39.996524 
L 595.182722 -40.011043 
L 592.197452 -40.021824 
L 589.212181 -40.028456 
L 586.226911 -40.032335 
L 583.241641 -40.03582 
L 580.25637 -40.041034 
L 577.2711 -40.049042 
L 574.28583 -40.059732 
L 571.300559 -40.07227 
L 568.315289 -40.085729 
L 565.330019 -40.099562 
L 562.344748 -40.11377 
L 559.359478 -40.128754 
L 556.374208 -40.14496 
L 553.388938 -40.162482 
L 550.403667 -40.180849 
L 547.418397 -40.199161 
L 544.433127 -40.216553 
L 541.447856 -40.232765 
L 538.462586 -40.248527 
L 535.477316 -40.265517 
L 532.492045 -40.285899 
L 529.506775 -40.311677 
L 526.521505 -40.344144 
L 523.536234 -40.383613 
L 520.550964 -40.429388 
L 517.565694 -40.479894 
L 514.580423 -40.532873 
L 511.595153 -40.585646 
L 508.609883 -40.63541 
L 505.624612 -40.67953 
L 502.639342 -40.715814 
L 499.654072 -40.742783 
L 496.668802 -40.75991 
L 493.683531 -40.76773 
L 490.698261 -40.767714 
L 487.712991 -40.761917 
L 484.72772 -40.752585 
L 481.74245 -40.741895 
L 478.75718 -40.731905 
L 475.771909 -40.724618 
L 472.786639 -40.721947 
L 469.801369 -40.725441 
L 466.816098 -40.735884 
L 463.830828 -40.753083 
L 460.845558 -40.776163 
L 457.860287 -40.80426 
L 454.875017 -40.837035 
L 451.889747 -40.874382 
L 448.904476 -40.915338 
L 445.919206 -40.957026 
L 442.933936 -40.99472 
L 439.948666 -41.023406 
L 436.963395 -41.04008 
L 433.978125 -41.045375 
L 430.992855 -41.043557 
L 428.007584 -41.041072 
L 425.022314 -41.044747 
L 422.037044 -41.060777 
L 419.051773 -41.094673 
L 416.066503 -41.151371 
L 413.081233 -41.234453 
L 410.095962 -41.34428 
L 407.110692 -41.47604 
L 404.125422 -41.619258 
L 401.140151 -41.759639 
L 398.154881 -41.882661 
L 395.169611 -41.977284 
L 392.18434 -42.0381 
L 389.19907 -42.06534 
L 386.2138 -42.063317 
L 383.22853 -42.038516 
L 380.243259 -41.998261 
L 377.257989 -41.950153 
L 374.272719 -41.901813 
L 371.287448 -41.860392 
L 368.302178 -41.831803 
L 365.316908 -41.820158 
L 362.331637 -41.827889 
L 359.346367 -41.85639 
L 356.361097 -41.906374 
L 353.375826 -41.977299 
L 350.390556 -42.066179 
L 347.405286 -42.167141 
L 344.420015 -42.272903 
L 341.434745 -42.377979 
L 338.449475 -42.481695 
L 335.464204 -42.588692 
L 332.478934 -42.705987 
L 329.493664 -42.838007 
L 326.508394 -42.982554 
L 323.523123 -43.130237 
L 320.537853 -43.267762 
L 317.552583 -43.383143 
L 314.567312 -43.470023 
L 311.582042 -43.52924 
L 308.596772 -43.567651 
L 305.611501 -43.595548 
L 302.626231 -43.624097 
L 299.640961 -43.663391 
L 296.65569 -43.72098 
L 293.67042 -43.800575 
L 290.68515 -43.901107 
L 287.699879 -44.016774 
L 284.714609 -44.138777 
L 281.729339 -44.25878 
L 278.744068 -44.373002 
L 275.758798 -44.485105 
L 272.773528 -44.606226 
L 269.788258 -44.75182 
L 266.802987 -44.936538 
L 263.817717 -45.169233 
L 260.832447 -45.449943 
L 257.847176 -45.769709 
L 254.861906 -46.11317 
L 251.876636 -46.463211 
L 248.891365 -46.806564 
L 245.906095 -47.138842 
L 242.920825 -47.467365 
L 239.935554 -47.810749 
L 236.950284 -48.195654 
L 233.965014 -48.652359 
L 230.979743 -49.210788 
L 227.994473 -49.89738 
L 225.009203 -50.732127 
L 222.023932 -51.72596 
L 219.038662 -52.880984 
L 216.053392 -54.197558 
L 213.068122 -55.690782 
L 210.082851 -57.415545 
L 207.097581 -59.497 
L 204.112311 -62.164568 
L 201.12704 -65.788979 
L 198.14177 -70.915146 
L 195.1565 -78.26159 
L 192.171229 -88.626229 
L 189.185959 -102.627795 
L 186.200689 -120.26546 
L 183.215418 -140.415218 
L 180.230148 -160.543567 
L 177.244878 -176.968627 
L 174.259607 -185.806576 
L 171.274337 -184.337808 
L 168.289067 -172.1623 
L 165.303796 -151.500173 
L 162.318526 -126.421723 
L 159.333256 -101.394728 
L 156.347986 -79.887078 
L 153.362715 -63.63248 
L 150.377445 -52.706683 
L 147.392175 -46.13094 
L 144.406904 -42.571919 
L 141.421634 -40.834563 
L 138.436364 -40.068034 
z
" style="stroke: #1e90ff"/>
    </defs>
    <g clip-path="url(#p140a072933)">
     <use xlink:href="#mcd2029bd03" x="0" y="360" style="fill: #1e90ff; fill-opacity: 0.25; stroke: #1e90ff"/>
    </g>
   </g>
   <g id="PolyCollection_3">
    <defs>
     <path id="ma3bff8674c" d="M 138.647067 -40.069259 
L 138.647067 -39.6 
L 141.574447 -39.6 
L 144.501826 -39.6 
L 147.429206 -39.6 
L 150.356586 -39.6 
L 153.283965 -39.6 
L 156.211345 -39.6 
L 159.138725 -39.6 
L 162.066104 -39.6 
L 164.993484 -39.6 
L 167.920864 -39.6 
L 170.848243 -39.6 
L 173.775623 -39.6 
L 176.703003 -39.6 
L 179.630382 -39.6 
L 182.557762 -39.6 
L 185.485142 -39.6 
L 188.412521 -39.6 
L 191.339901 -39.6 
L 194.267281 -39.6 
L 197.194661 -39.6 
L 200.12204 -39.6 
L 203.04942 -39.6 
L 205.9768 -39.6 
L 208.904179 -39.6 
L 211.831559 -39.6 
L 214.758939 -39.6 
L 217.686318 -39.6 
L 220.613698 -39.6 
L 223.541078 -39.6 
L 226.468457 -39.6 
L 229.395837 -39.6 
L 232.323217 -39.6 
L 235.250596 -39.6 
L 238.177976 -39.6 
L 241.105356 -39.6 
L 244.032735 -39.6 
L 246.960115 -39.6 
L 249.887495 -39.6 
L 252.814874 -39.6 
L 255.742254 -39.6 
L 258.669634 -39.6 
L 261.597013 -39.6 
L 264.524393 -39.6 
L 267.451773 -39.6 
L 270.379152 -39.6 
L 273.306532 -39.6 
L 276.233912 -39.6 
L 279.161291 -39.6 
L 282.088671 -39.6 
L 285.016051 -39.6 
L 287.94343 -39.6 
L 290.87081 -39.6 
L 293.79819 -39.6 
L 296.725569 -39.6 
L 299.652949 -39.6 
L 302.580329 -39.6 
L 305.507708 -39.6 
L 308.435088 -39.6 
L 311.362468 -39.6 
L 314.289847 -39.6 
L 317.217227 -39.6 
L 320.144607 -39.6 
L 323.071986 -39.6 
L 325.999366 -39.6 
L 328.926746 -39.6 
L 331.854125 -39.6 
L 334.781505 -39.6 
L 337.708885 -39.6 
L 340.636264 -39.6 
L 343.563644 -39.6 
L 346.491024 -39.6 
L 349.418403 -39.6 
L 352.345783 -39.6 
L 355.273163 -39.6 
L 358.200542 -39.6 
L 361.127922 -39.6 
L 364.055302 -39.6 
L 366.982681 -39.6 
L 369.910061 -39.6 
L 372.837441 -39.6 
L 375.76482 -39.6 
L 378.6922 -39.6 
L 381.61958 -39.6 
L 384.546959 -39.6 
L 387.474339 -39.6 
L 390.401719 -39.6 
L 393.329099 -39.6 
L 396.256478 -39.6 
L 399.183858 -39.6 
L 402.111238 -39.6 
L 405.038617 -39.6 
L 407.965997 -39.6 
L 410.893377 -39.6 
L 413.820756 -39.6 
L 416.748136 -39.6 
L 419.675516 -39.6 
L 422.602895 -39.6 
L 425.530275 -39.6 
L 428.457655 -39.6 
L 431.385034 -39.6 
L 434.312414 -39.6 
L 437.239794 -39.6 
L 440.167173 -39.6 
L 443.094553 -39.6 
L 446.021933 -39.6 
L 448.949312 -39.6 
L 451.876692 -39.6 
L 454.804072 -39.6 
L 457.731451 -39.6 
L 460.658831 -39.6 
L 463.586211 -39.6 
L 466.51359 -39.6 
L 469.44097 -39.6 
L 472.36835 -39.6 
L 475.295729 -39.6 
L 478.223109 -39.6 
L 481.150489 -39.6 
L 484.077868 -39.6 
L 487.005248 -39.6 
L 489.932628 -39.6 
L 492.860007 -39.6 
L 495.787387 -39.6 
L 498.714767 -39.6 
L 501.642146 -39.6 
L 504.569526 -39.6 
L 507.496906 -39.6 
L 510.424285 -39.6 
L 513.351665 -39.6 
L 516.279045 -39.6 
L 519.206424 -39.6 
L 522.133804 -39.6 
L 525.061184 -39.6 
L 527.988563 -39.6 
L 530.915943 -39.6 
L 533.843323 -39.6 
L 536.770702 -39.6 
L 539.698082 -39.6 
L 542.625462 -39.6 
L 545.552841 -39.6 
L 548.480221 -39.6 
L 551.407601 -39.6 
L 554.33498 -39.6 
L 557.26236 -39.6 
L 560.18974 -39.6 
L 563.117119 -39.6 
L 566.044499 -39.6 
L 568.971879 -39.6 
L 571.899258 -39.6 
L 574.826638 -39.6 
L 577.754018 -39.6 
L 580.681398 -39.6 
L 583.608777 -39.6 
L 586.536157 -39.6 
L 589.463537 -39.6 
L 592.390916 -39.6 
L 595.318296 -39.6 
L 598.245676 -39.6 
L 601.173055 -39.6 
L 604.100435 -39.6 
L 607.027815 -39.6 
L 609.955194 -39.6 
L 612.882574 -39.6 
L 615.809954 -39.6 
L 618.737333 -39.6 
L 621.664713 -39.6 
L 624.592093 -39.6 
L 627.519472 -39.6 
L 630.446852 -39.6 
L 633.374232 -39.6 
L 636.301611 -39.6 
L 639.228991 -39.6 
L 642.156371 -39.6 
L 645.08375 -39.6 
L 648.01113 -39.6 
L 650.93851 -39.6 
L 653.865889 -39.6 
L 656.793269 -39.6 
L 659.720649 -39.6 
L 662.648028 -39.6 
L 665.575408 -39.6 
L 668.502788 -39.6 
L 671.430167 -39.6 
L 674.357547 -39.6 
L 677.284927 -39.6 
L 680.212306 -39.6 
L 683.139686 -39.6 
L 686.067066 -39.6 
L 688.994445 -39.6 
L 691.921825 -39.6 
L 694.849205 -39.6 
L 697.776584 -39.6 
L 700.703964 -39.6 
L 703.631344 -39.6 
L 706.558723 -39.6 
L 709.486103 -39.6 
L 712.413483 -39.6 
L 715.340862 -39.6 
L 718.268242 -39.6 
L 721.195622 -39.6 
L 721.195622 -39.600247 
L 721.195622 -39.600247 
L 718.268242 -39.600607 
L 715.340862 -39.601361 
L 712.413483 -39.602797 
L 709.486103 -39.605264 
L 706.558723 -39.609093 
L 703.631344 -39.614438 
L 700.703964 -39.621134 
L 697.776584 -39.628628 
L 694.849205 -39.636087 
L 691.921825 -39.642663 
L 688.994445 -39.647808 
L 686.067066 -39.651468 
L 683.139686 -39.654054 
L 680.212306 -39.656208 
L 677.284927 -39.658495 
L 674.357547 -39.66118 
L 671.430167 -39.664178 
L 668.502788 -39.667179 
L 665.575408 -39.669864 
L 662.648028 -39.67211 
L 659.720649 -39.674114 
L 656.793269 -39.676384 
L 653.865889 -39.679633 
L 650.93851 -39.684628 
L 648.01113 -39.692005 
L 645.08375 -39.702066 
L 642.156371 -39.714572 
L 639.228991 -39.728617 
L 636.301611 -39.742708 
L 633.374232 -39.755122 
L 630.446852 -39.764449 
L 627.519472 -39.770123 
L 624.592093 -39.772689 
L 621.664713 -39.773711 
L 618.737333 -39.775378 
L 615.809954 -39.77995 
L 612.882574 -39.789162 
L 609.955194 -39.803709 
L 607.027815 -39.822958 
L 604.100435 -39.84507 
L 601.173055 -39.867623 
L 598.245676 -39.888553 
L 595.318296 -39.90702 
L 592.390916 -39.923845 
L 589.463537 -39.941382 
L 586.536157 -39.962898 
L 583.608777 -39.991608 
L 580.681398 -40.029465 
L 577.754018 -40.076034 
L 574.826638 -40.127976 
L 571.899258 -40.17969 
L 568.971879 -40.225089 
L 566.044499 -40.259754 
L 563.117119 -40.282347 
L 560.18974 -40.294596 
L 557.26236 -40.300022 
L 554.33498 -40.30227 
L 551.407601 -40.303869 
L 548.480221 -40.305838 
L 545.552841 -40.30804 
L 542.625462 -40.309943 
L 539.698082 -40.311447 
L 536.770702 -40.313393 
L 533.843323 -40.31754 
L 530.915943 -40.325958 
L 527.988563 -40.340155 
L 525.061184 -40.360407 
L 522.133804 -40.385679 
L 519.206424 -40.414138 
L 516.279045 -40.443998 
L 513.351665 -40.474284 
L 510.424285 -40.505213 
L 507.496906 -40.538053 
L 504.569526 -40.574456 
L 501.642146 -40.615486 
L 498.714767 -40.660714 
L 495.787387 -40.707846 
L 492.860007 -40.753159 
L 489.932628 -40.792634 
L 487.005248 -40.823304 
L 484.077868 -40.84426 
L 481.150489 -40.856916 
L 478.223109 -40.8645 
L 475.295729 -40.871028 
L 472.36835 -40.88013 
L 469.44097 -40.894116 
L 466.51359 -40.91363 
L 463.586211 -40.938007 
L 460.658831 -40.96624 
L 457.731451 -40.998075 
L 454.804072 -41.034646 
L 451.876692 -41.078101 
L 448.949312 -41.130165 
L 446.021933 -41.190213 
L 443.094553 -41.253967 
L 440.167173 -41.313855 
L 437.239794 -41.361239 
L 434.312414 -41.389494 
L 431.385034 -41.396286 
L 428.457655 -41.383817 
L 425.530275 -41.357185 
L 422.602895 -41.322157 
L 419.675516 -41.283854 
L 416.748136 -41.24684 
L 413.820756 -41.215961 
L 410.893377 -41.196761 
L 407.965997 -41.194817 
L 405.038617 -41.214311 
L 402.111238 -41.256735 
L 399.183858 -41.320467 
L 396.256478 -41.40122 
L 393.329099 -41.492859 
L 390.401719 -41.588103 
L 387.474339 -41.679071 
L 384.546959 -41.758049 
L 381.61958 -41.818715 
L 378.6922 -41.85759 
L 375.76482 -41.875039 
L 372.837441 -41.875226 
L 369.910061 -41.864913 
L 366.982681 -41.851537 
L 364.055302 -41.841183 
L 361.127922 -41.837048 
L 358.200542 -41.838823 
L 355.273163 -41.843295 
L 352.345783 -41.846218 
L 349.418403 -41.844903 
L 346.491024 -41.840432 
L 343.563644 -41.83836 
L 340.636264 -41.847406 
L 337.708885 -41.876628 
L 334.781505 -41.93228 
L 331.854125 -42.015593 
L 328.926746 -42.122309 
L 325.999366 -42.244128 
L 323.071986 -42.371594 
L 320.144607 -42.497363 
L 317.217227 -42.618488 
L 314.289847 -42.736651 
L 311.362468 -42.856244 
L 308.435088 -42.981327 
L 305.507708 -43.113149 
L 302.580329 -43.249576 
L 299.652949 -43.386618 
L 296.725569 -43.521115 
L 293.79819 -43.653096 
L 290.87081 -43.786663 
L 287.94343 -43.929044 
L 285.016051 -44.088256 
L 282.088671 -44.270229 
L 279.161291 -44.476302 
L 276.233912 -44.701786 
L 273.306532 -44.936112 
L 270.379152 -45.164834 
L 267.451773 -45.37331 
L 264.524393 -45.551214 
L 261.597013 -45.696323 
L 258.669634 -45.816021 
L 255.742254 -45.925858 
L 252.814874 -46.045937 
L 249.887495 -46.196875 
L 246.960115 -46.396865 
L 244.032735 -46.660274 
L 241.105356 -46.997221 
L 238.177976 -47.413644 
L 235.250596 -47.912112 
L 232.323217 -48.494118 
L 229.395837 -49.163956 
L 226.468457 -49.932936 
L 223.541078 -50.822028 
L 220.613698 -51.861747 
L 217.686318 -53.090023 
L 214.758939 -54.550745 
L 211.831559 -56.296974 
L 208.904179 -58.403287 
L 205.9768 -60.991265 
L 203.04942 -64.269843 
L 200.12204 -68.585662 
L 197.194661 -74.464495 
L 194.267281 -82.602408 
L 191.339901 -93.744133 
L 188.412521 -108.392585 
L 185.485142 -126.361297 
L 182.557762 -146.31565 
L 179.630382 -165.583427 
L 176.703003 -180.521268 
L 173.775623 -187.503839 
L 170.848243 -184.220981 
L 167.920864 -170.672753 
L 164.993484 -149.306508 
L 162.066104 -124.175642 
L 159.138725 -99.540071 
L 156.211345 -78.597257 
L 153.283965 -62.866854 
L 150.356586 -52.319857 
L 147.429206 -45.968011 
L 144.501826 -42.518092 
L 141.574447 -40.823516 
L 138.647067 -40.069259 
z
" style="stroke: #9400d3"/>
    </defs>
    <g clip-path="url(#p140a072933)">
     <use xlink:href="#ma3bff8674c" x="0" y="360" style="fill: #9400d3; fill-opacity: 0.25; stroke: #9400d3"/>
    </g>
   </g>
   <g id="PolyCollection_4">
    <defs>
     <path id="m78b4954b06" d="M 196.409244 -39.668308 
L 196.409244 -39.6 
L 199.051761 -39.6 
L 201.694277 -39.6 
L 204.336793 -39.6 
L 206.979309 -39.6 
L 209.621825 -39.6 
L 212.264341 -39.6 
L 214.906858 -39.6 
L 217.549374 -39.6 
L 220.19189 -39.6 
L 222.834406 -39.6 
L 225.476922 -39.6 
L 228.119438 -39.6 
L 230.761954 -39.6 
L 233.404471 -39.6 
L 236.046987 -39.6 
L 238.689503 -39.6 
L 241.332019 -39.6 
L 243.974535 -39.6 
L 246.617051 -39.6 
L 249.259568 -39.6 
L 251.902084 -39.6 
L 254.5446 -39.6 
L 257.187116 -39.6 
L 259.829632 -39.6 
L 262.472148 -39.6 
L 265.114664 -39.6 
L 267.757181 -39.6 
L 270.399697 -39.6 
L 273.042213 -39.6 
L 275.684729 -39.6 
L 278.327245 -39.6 
L 280.969761 -39.6 
L 283.612278 -39.6 
L 286.254794 -39.6 
L 288.89731 -39.6 
L 291.539826 -39.6 
L 294.182342 -39.6 
L 296.824858 -39.6 
L 299.467374 -39.6 
L 302.109891 -39.6 
L 304.752407 -39.6 
L 307.394923 -39.6 
L 310.037439 -39.6 
L 312.679955 -39.6 
L 315.322471 -39.6 
L 317.964988 -39.6 
L 320.607504 -39.6 
L 323.25002 -39.6 
L 325.892536 -39.6 
L 328.535052 -39.6 
L 331.177568 -39.6 
L 333.820084 -39.6 
L 336.462601 -39.6 
L 339.105117 -39.6 
L 341.747633 -39.6 
L 344.390149 -39.6 
L 347.032665 -39.6 
L 349.675181 -39.6 
L 352.317698 -39.6 
L 354.960214 -39.6 
L 357.60273 -39.6 
L 360.245246 -39.6 
L 362.887762 -39.6 
L 365.530278 -39.6 
L 368.172794 -39.6 
L 370.815311 -39.6 
L 373.457827 -39.6 
L 376.100343 -39.6 
L 378.742859 -39.6 
L 381.385375 -39.6 
L 384.027891 -39.6 
L 386.670407 -39.6 
L 389.312924 -39.6 
L 391.95544 -39.6 
L 394.597956 -39.6 
L 397.240472 -39.6 
L 399.882988 -39.6 
L 402.525504 -39.6 
L 405.168021 -39.6 
L 407.810537 -39.6 
L 410.453053 -39.6 
L 413.095569 -39.6 
L 415.738085 -39.6 
L 418.380601 -39.6 
L 421.023117 -39.6 
L 423.665634 -39.6 
L 426.30815 -39.6 
L 428.950666 -39.6 
L 431.593182 -39.6 
L 434.235698 -39.6 
L 436.878214 -39.6 
L 439.520731 -39.6 
L 442.163247 -39.6 
L 444.805763 -39.6 
L 447.448279 -39.6 
L 450.090795 -39.6 
L 452.733311 -39.6 
L 455.375827 -39.6 
L 458.018344 -39.6 
L 460.66086 -39.6 
L 463.303376 -39.6 
L 465.945892 -39.6 
L 468.588408 -39.6 
L 471.230924 -39.6 
L 473.873441 -39.6 
L 476.515957 -39.6 
L 479.158473 -39.6 
L 481.800989 -39.6 
L 484.443505 -39.6 
L 487.086021 -39.6 
L 489.728537 -39.6 
L 492.371054 -39.6 
L 495.01357 -39.6 
L 497.656086 -39.6 
L 500.298602 -39.6 
L 502.941118 -39.6 
L 505.583634 -39.6 
L 508.226151 -39.6 
L 510.868667 -39.6 
L 513.511183 -39.6 
L 516.153699 -39.6 
L 518.796215 -39.6 
L 521.438731 -39.6 
L 524.081247 -39.6 
L 526.723764 -39.6 
L 529.36628 -39.6 
L 532.008796 -39.6 
L 534.651312 -39.6 
L 537.293828 -39.6 
L 539.936344 -39.6 
L 542.578861 -39.6 
L 545.221377 -39.6 
L 547.863893 -39.6 
L 550.506409 -39.6 
L 553.148925 -39.6 
L 555.791441 -39.6 
L 558.433957 -39.6 
L 561.076474 -39.6 
L 563.71899 -39.6 
L 566.361506 -39.6 
L 569.004022 -39.6 
L 571.646538 -39.6 
L 574.289054 -39.6 
L 576.931571 -39.6 
L 579.574087 -39.6 
L 582.216603 -39.6 
L 584.859119 -39.6 
L 587.501635 -39.6 
L 590.144151 -39.6 
L 592.786667 -39.6 
L 595.429184 -39.6 
L 598.0717 -39.6 
L 600.714216 -39.6 
L 603.356732 -39.6 
L 605.999248 -39.6 
L 608.641764 -39.6 
L 611.284281 -39.6 
L 613.926797 -39.6 
L 616.569313 -39.6 
L 619.211829 -39.6 
L 621.854345 -39.6 
L 624.496861 -39.6 
L 627.139377 -39.6 
L 629.781894 -39.6 
L 632.42441 -39.6 
L 635.066926 -39.6 
L 637.709442 -39.6 
L 640.351958 -39.6 
L 642.994474 -39.6 
L 645.636991 -39.6 
L 648.279507 -39.6 
L 650.922023 -39.6 
L 653.564539 -39.6 
L 656.207055 -39.6 
L 658.849571 -39.6 
L 661.492087 -39.6 
L 664.134604 -39.6 
L 666.77712 -39.6 
L 669.419636 -39.6 
L 672.062152 -39.6 
L 674.704668 -39.6 
L 677.347184 -39.6 
L 679.9897 -39.6 
L 682.632217 -39.6 
L 685.274733 -39.6 
L 687.917249 -39.6 
L 690.559765 -39.6 
L 693.202281 -39.6 
L 695.844797 -39.6 
L 698.487314 -39.6 
L 701.12983 -39.6 
L 703.772346 -39.6 
L 706.414862 -39.6 
L 709.057378 -39.6 
L 711.699894 -39.6 
L 714.34241 -39.6 
L 716.984927 -39.6 
L 719.627443 -39.6 
L 722.269959 -39.6 
L 722.269959 -39.629514 
L 722.269959 -39.629514 
L 719.627443 -39.635456 
L 716.984927 -39.642446 
L 714.34241 -39.650637 
L 711.699894 -39.6602 
L 709.057378 -39.671323 
L 706.414862 -39.684212 
L 703.772346 -39.699092 
L 701.12983 -39.716207 
L 698.487314 -39.735822 
L 695.844797 -39.758219 
L 693.202281 -39.7837 
L 690.559765 -39.812586 
L 687.917249 -39.845216 
L 685.274733 -39.881946 
L 682.632217 -39.923145 
L 679.9897 -39.969199 
L 677.347184 -40.020505 
L 674.704668 -40.07747 
L 672.062152 -40.140509 
L 669.419636 -40.210044 
L 666.77712 -40.286497 
L 664.134604 -40.370293 
L 661.492087 -40.461856 
L 658.849571 -40.561604 
L 656.207055 -40.669948 
L 653.564539 -40.78729 
L 650.922023 -40.914022 
L 648.279507 -41.050521 
L 645.636991 -41.197148 
L 642.994474 -41.354248 
L 640.351958 -41.522144 
L 637.709442 -41.701142 
L 635.066926 -41.89152 
L 632.42441 -42.093536 
L 629.781894 -42.307416 
L 627.139377 -42.533362 
L 624.496861 -42.771542 
L 621.854345 -43.022091 
L 619.211829 -43.285106 
L 616.569313 -43.560645 
L 613.926797 -43.848722 
L 611.284281 -44.149301 
L 608.641764 -44.462297 
L 605.999248 -44.787566 
L 603.356732 -45.124904 
L 600.714216 -45.474042 
L 598.0717 -45.834641 
L 595.429184 -46.20629 
L 592.786667 -46.588502 
L 590.144151 -46.980712 
L 587.501635 -47.382278 
L 584.859119 -47.79248 
L 582.216603 -48.210521 
L 579.574087 -48.635534 
L 576.931571 -49.066586 
L 574.289054 -49.502685 
L 571.646538 -49.942786 
L 569.004022 -50.385807 
L 566.361506 -50.830636 
L 563.71899 -51.276146 
L 561.076474 -51.721209 
L 558.433957 -52.164707 
L 555.791441 -52.60555 
L 553.148925 -53.042684 
L 550.506409 -53.475112 
L 547.863893 -53.901894 
L 545.221377 -54.322166 
L 542.578861 -54.735143 
L 539.936344 -55.140123 
L 537.293828 -55.53649 
L 534.651312 -55.923717 
L 532.008796 -56.301355 
L 529.36628 -56.669033 
L 526.723764 -57.02645 
L 524.081247 -57.373359 
L 521.438731 -57.709559 
L 518.796215 -58.034882 
L 516.153699 -58.349174 
L 513.511183 -58.652287 
L 510.868667 -58.944061 
L 508.226151 -59.224313 
L 505.583634 -59.492828 
L 502.941118 -59.749345 
L 500.298602 -59.993559 
L 497.656086 -60.225112 
L 495.01357 -60.443597 
L 492.371054 -60.648559 
L 489.728537 -60.839506 
L 487.086021 -61.015916 
L 484.443505 -61.177254 
L 481.800989 -61.322983 
L 479.158473 -61.452586 
L 476.515957 -61.565582 
L 473.873441 -61.66155 
L 471.230924 -61.740145 
L 468.588408 -61.801119 
L 465.945892 -61.844339 
L 463.303376 -61.869803 
L 460.66086 -61.877654 
L 458.018344 -61.868191 
L 455.375827 -61.841872 
L 452.733311 -61.799324 
L 450.090795 -61.741334 
L 447.448279 -61.668851 
L 444.805763 -61.582971 
L 442.163247 -61.484925 
L 439.520731 -61.376065 
L 436.878214 -61.257837 
L 434.235698 -61.131764 
L 431.593182 -60.999413 
L 428.950666 -60.862371 
L 426.30815 -60.722214 
L 423.665634 -60.580474 
L 421.023117 -60.438612 
L 418.380601 -60.297986 
L 415.738085 -60.159823 
L 413.095569 -60.025188 
L 410.453053 -59.894966 
L 407.810537 -59.769835 
L 405.168021 -59.650252 
L 402.525504 -59.536435 
L 399.882988 -59.428355 
L 397.240472 -59.325731 
L 394.597956 -59.228031 
L 391.95544 -59.13447 
L 389.312924 -59.044029 
L 386.670407 -58.95546 
L 384.027891 -58.86731 
L 381.385375 -58.777944 
L 378.742859 -58.685568 
L 376.100343 -58.588265 
L 373.457827 -58.484026 
L 370.815311 -58.370787 
L 368.172794 -58.246467 
L 365.530278 -58.109008 
L 362.887762 -57.956414 
L 360.245246 -57.786789 
L 357.60273 -57.598378 
L 354.960214 -57.389601 
L 352.317698 -57.159087 
L 349.675181 -56.905702 
L 347.032665 -56.628577 
L 344.390149 -56.327128 
L 341.747633 -56.001072 
L 339.105117 -55.650437 
L 336.462601 -55.275567 
L 333.820084 -54.877121 
L 331.177568 -54.456066 
L 328.535052 -54.013665 
L 325.892536 -53.551457 
L 323.25002 -53.071236 
L 320.607504 -52.575026 
L 317.964988 -52.065044 
L 315.322471 -51.543672 
L 312.679955 -51.013417 
L 310.037439 -50.476875 
L 307.394923 -49.936692 
L 304.752407 -49.395524 
L 302.109891 -48.856004 
L 299.467374 -48.320699 
L 296.824858 -47.792084 
L 294.182342 -47.272507 
L 291.539826 -46.764162 
L 288.89731 -46.269066 
L 286.254794 -45.789042 
L 283.612278 -45.3257 
L 280.969761 -44.880431 
L 278.327245 -44.454395 
L 275.684729 -44.048524 
L 273.042213 -43.663521 
L 270.399697 -43.299867 
L 267.757181 -42.957829 
L 265.114664 -42.63747 
L 262.472148 -42.338666 
L 259.829632 -42.061121 
L 257.187116 -41.804383 
L 254.5446 -41.567865 
L 251.902084 -41.350861 
L 249.259568 -41.152569 
L 246.617051 -40.972105 
L 243.974535 -40.808527 
L 241.332019 -40.660848 
L 238.689503 -40.528054 
L 236.046987 -40.409119 
L 233.404471 -40.303017 
L 230.761954 -40.208739 
L 228.119438 -40.125294 
L 225.476922 -40.05173 
L 222.834406 -39.987128 
L 220.19189 -39.930619 
L 217.549374 -39.881381 
L 214.906858 -39.838645 
L 212.264341 -39.801696 
L 209.621825 -39.769875 
L 206.979309 -39.742575 
L 204.336793 -39.719244 
L 201.694277 -39.699382 
L 199.051761 -39.682538 
L 196.409244 -39.668308 
z
" style="stroke: #0000ff"/>
    </defs>
    <g clip-path="url(#p140a072933)">
     <use xlink:href="#m78b4954b06" x="0" y="360" style="fill: #0000ff; fill-opacity: 0.25; stroke: #0000ff"/>
    </g>
   </g>
   <g id="matplotlib.axis_1">
    <g id="xtick_1">
     <g id="line2d_1">
      <defs>
       <path id="m6d1b1ebd01" d="M 0 0 
L 0 3.5 
" style="stroke: #000000; stroke-width: 0.8"/>
      </defs>
      <g>
       <use xlink:href="#m6d1b1ebd01" x="170.610424" y="320.4" style="stroke: #000000; stroke-width: 0.8"/>
      </g>
     </g>
     <g id="text_1">
      <!-- 0.0 -->
      <g transform="translate(162.658861 334.998438) scale(0.1 -0.1)">
       <defs>
        <path id="DejaVuSans-30" d="M 2034 4250 
Q 1547 4250 1301 3770 
Q 1056 3291 1056 2328 
Q 1056 1369 1301 889 
Q 1547 409 2034 409 
Q 2525 409 2770 889 
Q 3016 1369 3016 2328 
Q 3016 3291 2770 3770 
Q 2525 4250 2034 4250 
z
M 2034 4750 
Q 2819 4750 3233 4129 
Q 3647 3509 3647 2328 
Q 3647 1150 3233 529 
Q 2819 -91 2034 -91 
Q 1250 -91 836 529 
Q 422 1150 422 2328 
Q 422 3509 836 4129 
Q 1250 4750 2034 4750 
z
" transform="scale(0.015625)"/>
        <path id="DejaVuSans-2e" d="M 684 794 
L 1344 794 
L 1344 0 
L 684 0 
L 684 794 
z
" transform="scale(0.015625)"/>
       </defs>
       <use xlink:href="#DejaVuSans-30"/>
       <use xlink:href="#DejaVuSans-2e" x="63.623047"/>
       <use xlink:href="#DejaVuSans-30" x="95.410156"/>
      </g>
     </g>
    </g>
    <g id="xtick_2">
     <g id="line2d_2">
      <g>
       <use xlink:href="#m6d1b1ebd01" x="287.51519" y="320.4" style="stroke: #000000; stroke-width: 0.8"/>
      </g>
     </g>
     <g id="text_2">
      <!-- 0.2 -->
      <g transform="translate(279.563627 334.998438) scale(0.1 -0.1)">
       <defs>
        <path id="DejaVuSans-32" d="M 1228 531 
L 3431 531 
L 3431 0 
L 469 0 
L 469 531 
Q 828 903 1448 1529 
Q 2069 2156 2228 2338 
Q 2531 2678 2651 2914 
Q 2772 3150 2772 3378 
Q 2772 3750 2511 3984 
Q 2250 4219 1831 4219 
Q 1534 4219 1204 4116 
Q 875 4013 500 3803 
L 500 4441 
Q 881 4594 1212 4672 
Q 1544 4750 1819 4750 
Q 2544 4750 2975 4387 
Q 3406 4025 3406 3419 
Q 3406 3131 3298 2873 
Q 3191 2616 2906 2266 
Q 2828 2175 2409 1742 
Q 1991 1309 1228 531 
z
" transform="scale(0.015625)"/>
       </defs>
       <use xlink:href="#DejaVuSans-30"/>
       <use xlink:href="#DejaVuSans-2e" x="63.623047"/>
       <use xlink:href="#DejaVuSans-32" x="95.410156"/>
      </g>
     </g>
    </g>
    <g id="xtick_3">
     <g id="line2d_3">
      <g>
       <use xlink:href="#m6d1b1ebd01" x="404.419956" y="320.4" style="stroke: #000000; stroke-width: 0.8"/>
      </g>
     </g>
     <g id="text_3">
      <!-- 0.4 -->
      <g transform="translate(396.468393 334.998438) scale(0.1 -0.1)">
       <defs>
        <path id="DejaVuSans-34" d="M 2419 4116 
L 825 1625 
L 2419 1625 
L 2419 4116 
z
M 2253 4666 
L 3047 4666 
L 3047 1625 
L 3713 1625 
L 3713 1100 
L 3047 1100 
L 3047 0 
L 2419 0 
L 2419 1100 
L 313 1100 
L 313 1709 
L 2253 4666 
z
" transform="scale(0.015625)"/>
       </defs>
       <use xlink:href="#DejaVuSans-30"/>
       <use xlink:href="#DejaVuSans-2e" x="63.623047"/>
       <use xlink:href="#DejaVuSans-34" x="95.410156"/>
      </g>
     </g>
    </g>
    <g id="xtick_4">
     <g id="line2d_4">
      <g>
       <use xlink:href="#m6d1b1ebd01" x="521.324722" y="320.4" style="stroke: #000000; stroke-width: 0.8"/>
      </g>
     </g>
     <g id="text_4">
      <!-- 0.6 -->
      <g transform="translate(513.373159 334.998438) scale(0.1 -0.1)">
       <defs>
        <path id="DejaVuSans-36" d="M 2113 2584 
Q 1688 2584 1439 2293 
Q 1191 2003 1191 1497 
Q 1191 994 1439 701 
Q 1688 409 2113 409 
Q 2538 409 2786 701 
Q 3034 994 3034 1497 
Q 3034 2003 2786 2293 
Q 2538 2584 2113 2584 
z
M 3366 4563 
L 3366 3988 
Q 3128 4100 2886 4159 
Q 2644 4219 2406 4219 
Q 1781 4219 1451 3797 
Q 1122 3375 1075 2522 
Q 1259 2794 1537 2939 
Q 1816 3084 2150 3084 
Q 2853 3084 3261 2657 
Q 3669 2231 3669 1497 
Q 3669 778 3244 343 
Q 2819 -91 2113 -91 
Q 1303 -91 875 529 
Q 447 1150 447 2328 
Q 447 3434 972 4092 
Q 1497 4750 2381 4750 
Q 2619 4750 2861 4703 
Q 3103 4656 3366 4563 
z
" transform="scale(0.015625)"/>
       </defs>
       <use xlink:href="#DejaVuSans-30"/>
       <use xlink:href="#DejaVuSans-2e" x="63.623047"/>
       <use xlink:href="#DejaVuSans-36" x="95.410156"/>
      </g>
     </g>
    </g>
    <g id="xtick_5">
     <g id="line2d_5">
      <g>
       <use xlink:href="#m6d1b1ebd01" x="638.229488" y="320.4" style="stroke: #000000; stroke-width: 0.8"/>
      </g>
     </g>
     <g id="text_5">
      <!-- 0.8 -->
      <g transform="translate(630.277925 334.998438) scale(0.1 -0.1)">
       <defs>
        <path id="DejaVuSans-38" d="M 2034 2216 
Q 1584 2216 1326 1975 
Q 1069 1734 1069 1313 
Q 1069 891 1326 650 
Q 1584 409 2034 409 
Q 2484 409 2743 651 
Q 3003 894 3003 1313 
Q 3003 1734 2745 1975 
Q 2488 2216 2034 2216 
z
M 1403 2484 
Q 997 2584 770 2862 
Q 544 3141 544 3541 
Q 544 4100 942 4425 
Q 1341 4750 2034 4750 
Q 2731 4750 3128 4425 
Q 3525 4100 3525 3541 
Q 3525 3141 3298 2862 
Q 3072 2584 2669 2484 
Q 3125 2378 3379 2068 
Q 3634 1759 3634 1313 
Q 3634 634 3220 271 
Q 2806 -91 2034 -91 
Q 1263 -91 848 271 
Q 434 634 434 1313 
Q 434 1759 690 2068 
Q 947 2378 1403 2484 
z
M 1172 3481 
Q 1172 3119 1398 2916 
Q 1625 2713 2034 2713 
Q 2441 2713 2670 2916 
Q 2900 3119 2900 3481 
Q 2900 3844 2670 4047 
Q 2441 4250 2034 4250 
Q 1625 4250 1398 4047 
Q 1172 3844 1172 3481 
z
" transform="scale(0.015625)"/>
       </defs>
       <use xlink:href="#DejaVuSans-30"/>
       <use xlink:href="#DejaVuSans-2e" x="63.623047"/>
       <use xlink:href="#DejaVuSans-38" x="95.410156"/>
      </g>
     </g>
    </g>
    <g id="xtick_6">
     <g id="line2d_6">
      <g>
       <use xlink:href="#m6d1b1ebd01" x="755.134254" y="320.4" style="stroke: #000000; stroke-width: 0.8"/>
      </g>
     </g>
     <g id="text_6">
      <!-- 1.0 -->
      <g transform="translate(747.182691 334.998438) scale(0.1 -0.1)">
       <defs>
        <path id="DejaVuSans-31" d="M 794 531 
L 1825 531 
L 1825 4091 
L 703 3866 
L 703 4441 
L 1819 4666 
L 2450 4666 
L 2450 531 
L 3481 531 
L 3481 0 
L 794 0 
L 794 531 
z
" transform="scale(0.015625)"/>
       </defs>
       <use xlink:href="#DejaVuSans-31"/>
       <use xlink:href="#DejaVuSans-2e" x="63.623047"/>
       <use xlink:href="#DejaVuSans-30" x="95.410156"/>
      </g>
     </g>
    </g>
    <g id="text_7">
     <!-- fst -->
     <g transform="translate(436.475 348.676562) scale(0.1 -0.1)">
      <defs>
       <path id="DejaVuSans-66" d="M 2375 4863 
L 2375 4384 
L 1825 4384 
Q 1516 4384 1395 4259 
Q 1275 4134 1275 3809 
L 1275 3500 
L 2222 3500 
L 2222 3053 
L 1275 3053 
L 1275 0 
L 697 0 
L 697 3053 
L 147 3053 
L 147 3500 
L 697 3500 
L 697 3744 
Q 697 4328 969 4595 
Q 1241 4863 1831 4863 
L 2375 4863 
z
" transform="scale(0.015625)"/>
       <path id="DejaVuSans-73" d="M 2834 3397 
L 2834 2853 
Q 2591 2978 2328 3040 
Q 2066 3103 1784 3103 
Q 1356 3103 1142 2972 
Q 928 2841 928 2578 
Q 928 2378 1081 2264 
Q 1234 2150 1697 2047 
L 1894 2003 
Q 2506 1872 2764 1633 
Q 3022 1394 3022 966 
Q 3022 478 2636 193 
Q 2250 -91 1575 -91 
Q 1294 -91 989 -36 
Q 684 19 347 128 
L 347 722 
Q 666 556 975 473 
Q 1284 391 1588 391 
Q 1994 391 2212 530 
Q 2431 669 2431 922 
Q 2431 1156 2273 1281 
Q 2116 1406 1581 1522 
L 1381 1569 
Q 847 1681 609 1914 
Q 372 2147 372 2553 
Q 372 3047 722 3315 
Q 1072 3584 1716 3584 
Q 2034 3584 2315 3537 
Q 2597 3491 2834 3397 
z
" transform="scale(0.015625)"/>
       <path id="DejaVuSans-74" d="M 1172 4494 
L 1172 3500 
L 2356 3500 
L 2356 3053 
L 1172 3053 
L 1172 1153 
Q 1172 725 1289 603 
Q 1406 481 1766 481 
L 2356 481 
L 2356 0 
L 1766 0 
Q 1100 0 847 248 
Q 594 497 594 1153 
L 594 3053 
L 172 3053 
L 172 3500 
L 594 3500 
L 594 4494 
L 1172 4494 
z
" transform="scale(0.015625)"/>
      </defs>
      <use xlink:href="#DejaVuSans-66"/>
      <use xlink:href="#DejaVuSans-73" x="35.205078"/>
      <use xlink:href="#DejaVuSans-74" x="87.304688"/>
     </g>
    </g>
   </g>
   <g id="matplotlib.axis_2">
    <g id="ytick_1">
     <g id="line2d_7">
      <defs>
       <path id="m7ad9c3791b" d="M 0 0 
L -3.5 0 
" style="stroke: #000000; stroke-width: 0.8"/>
      </defs>
      <g>
       <use xlink:href="#m7ad9c3791b" x="108" y="320.4" style="stroke: #000000; stroke-width: 0.8"/>
      </g>
     </g>
     <g id="text_8">
      <!-- 0 -->
      <g transform="translate(94.6375 324.199219) scale(0.1 -0.1)">
       <use xlink:href="#DejaVuSans-30"/>
      </g>
     </g>
    </g>
    <g id="ytick_2">
     <g id="line2d_8">
      <g>
       <use xlink:href="#m7ad9c3791b" x="108" y="272.638596" style="stroke: #000000; stroke-width: 0.8"/>
      </g>
     </g>
     <g id="text_9">
      <!-- 5 -->
      <g transform="translate(94.6375 276.437815) scale(0.1 -0.1)">
       <defs>
        <path id="DejaVuSans-35" d="M 691 4666 
L 3169 4666 
L 3169 4134 
L 1269 4134 
L 1269 2991 
Q 1406 3038 1543 3061 
Q 1681 3084 1819 3084 
Q 2600 3084 3056 2656 
Q 3513 2228 3513 1497 
Q 3513 744 3044 326 
Q 2575 -91 1722 -91 
Q 1428 -91 1123 -41 
Q 819 9 494 109 
L 494 744 
Q 775 591 1075 516 
Q 1375 441 1709 441 
Q 2250 441 2565 725 
Q 2881 1009 2881 1497 
Q 2881 1984 2565 2268 
Q 2250 2553 1709 2553 
Q 1456 2553 1204 2497 
Q 953 2441 691 2322 
L 691 4666 
z
" transform="scale(0.015625)"/>
       </defs>
       <use xlink:href="#DejaVuSans-35"/>
      </g>
     </g>
    </g>
    <g id="ytick_3">
     <g id="line2d_9">
      <g>
       <use xlink:href="#m7ad9c3791b" x="108" y="224.877192" style="stroke: #000000; stroke-width: 0.8"/>
      </g>
     </g>
     <g id="text_10">
      <!-- 10 -->
      <g transform="translate(88.275 228.676411) scale(0.1 -0.1)">
       <use xlink:href="#DejaVuSans-31"/>
       <use xlink:href="#DejaVuSans-30" x="63.623047"/>
      </g>
     </g>
    </g>
    <g id="ytick_4">
     <g id="line2d_10">
      <g>
       <use xlink:href="#m7ad9c3791b" x="108" y="177.115788" style="stroke: #000000; stroke-width: 0.8"/>
      </g>
     </g>
     <g id="text_11">
      <!-- 15 -->
      <g transform="translate(88.275 180.915006) scale(0.1 -0.1)">
       <use xlink:href="#DejaVuSans-31"/>
       <use xlink:href="#DejaVuSans-35" x="63.623047"/>
      </g>
     </g>
    </g>
    <g id="ytick_5">
     <g id="line2d_11">
      <g>
       <use xlink:href="#m7ad9c3791b" x="108" y="129.354384" style="stroke: #000000; stroke-width: 0.8"/>
      </g>
     </g>
     <g id="text_12">
      <!-- 20 -->
      <g transform="translate(88.275 133.153602) scale(0.1 -0.1)">
       <use xlink:href="#DejaVuSans-32"/>
       <use xlink:href="#DejaVuSans-30" x="63.623047"/>
      </g>
     </g>
    </g>
    <g id="ytick_6">
     <g id="line2d_12">
      <g>
       <use xlink:href="#m7ad9c3791b" x="108" y="81.592979" style="stroke: #000000; stroke-width: 0.8"/>
      </g>
     </g>
     <g id="text_13">
      <!-- 25 -->
      <g transform="translate(88.275 85.392198) scale(0.1 -0.1)">
       <use xlink:href="#DejaVuSans-32"/>
       <use xlink:href="#DejaVuSans-35" x="63.623047"/>
      </g>
     </g>
    </g>
    <g id="text_14">
     <!-- Density -->
     <g transform="translate(82.195312 200.808594) rotate(-90) scale(0.1 -0.1)">
      <defs>
       <path id="DejaVuSans-44" d="M 1259 4147 
L 1259 519 
L 2022 519 
Q 2988 519 3436 956 
Q 3884 1394 3884 2338 
Q 3884 3275 3436 3711 
Q 2988 4147 2022 4147 
L 1259 4147 
z
M 628 4666 
L 1925 4666 
Q 3281 4666 3915 4102 
Q 4550 3538 4550 2338 
Q 4550 1131 3912 565 
Q 3275 0 1925 0 
L 628 0 
L 628 4666 
z
" transform="scale(0.015625)"/>
       <path id="DejaVuSans-65" d="M 3597 1894 
L 3597 1613 
L 953 1613 
Q 991 1019 1311 708 
Q 1631 397 2203 397 
Q 2534 397 2845 478 
Q 3156 559 3463 722 
L 3463 178 
Q 3153 47 2828 -22 
Q 2503 -91 2169 -91 
Q 1331 -91 842 396 
Q 353 884 353 1716 
Q 353 2575 817 3079 
Q 1281 3584 2069 3584 
Q 2775 3584 3186 3129 
Q 3597 2675 3597 1894 
z
M 3022 2063 
Q 3016 2534 2758 2815 
Q 2500 3097 2075 3097 
Q 1594 3097 1305 2825 
Q 1016 2553 972 2059 
L 3022 2063 
z
" transform="scale(0.015625)"/>
       <path id="DejaVuSans-6e" d="M 3513 2113 
L 3513 0 
L 2938 0 
L 2938 2094 
Q 2938 2591 2744 2837 
Q 2550 3084 2163 3084 
Q 1697 3084 1428 2787 
Q 1159 2491 1159 1978 
L 1159 0 
L 581 0 
L 581 3500 
L 1159 3500 
L 1159 2956 
Q 1366 3272 1645 3428 
Q 1925 3584 2291 3584 
Q 2894 3584 3203 3211 
Q 3513 2838 3513 2113 
z
" transform="scale(0.015625)"/>
       <path id="DejaVuSans-69" d="M 603 3500 
L 1178 3500 
L 1178 0 
L 603 0 
L 603 3500 
z
M 603 4863 
L 1178 4863 
L 1178 4134 
L 603 4134 
L 603 4863 
z
" transform="scale(0.015625)"/>
       <path id="DejaVuSans-79" d="M 2059 -325 
Q 1816 -950 1584 -1140 
Q 1353 -1331 966 -1331 
L 506 -1331 
L 506 -850 
L 844 -850 
Q 1081 -850 1212 -737 
Q 1344 -625 1503 -206 
L 1606 56 
L 191 3500 
L 800 3500 
L 1894 763 
L 2988 3500 
L 3597 3500 
L 2059 -325 
z
" transform="scale(0.015625)"/>
      </defs>
      <use xlink:href="#DejaVuSans-44"/>
      <use xlink:href="#DejaVuSans-65" x="77.001953"/>
      <use xlink:href="#DejaVuSans-6e" x="138.525391"/>
      <use xlink:href="#DejaVuSans-73" x="201.904297"/>
      <use xlink:href="#DejaVuSans-69" x="254.003906"/>
      <use xlink:href="#DejaVuSans-74" x="281.787109"/>
      <use xlink:href="#DejaVuSans-79" x="320.996094"/>
     </g>
    </g>
   </g>
   <g id="patch_3">
    <path d="M 108 320.4 
L 108 43.2 
" style="fill: none; stroke: #000000; stroke-width: 0.8; stroke-linejoin: miter; stroke-linecap: square"/>
   </g>
   <g id="patch_4">
    <path d="M 777.6 320.4 
L 777.6 43.2 
" style="fill: none; stroke: #000000; stroke-width: 0.8; stroke-linejoin: miter; stroke-linecap: square"/>
   </g>
   <g id="patch_5">
    <path d="M 108 320.4 
L 777.6 320.4 
" style="fill: none; stroke: #000000; stroke-width: 0.8; stroke-linejoin: miter; stroke-linecap: square"/>
   </g>
   <g id="patch_6">
    <path d="M 108 43.2 
L 777.6 43.2 
" style="fill: none; stroke: #000000; stroke-width: 0.8; stroke-linejoin: miter; stroke-linecap: square"/>
   </g>
   <g id="text_15">
    <!-- Fst Distribution -->
    <g transform="translate(396.961875 37.2) scale(0.12 -0.12)">
     <defs>
      <path id="DejaVuSans-46" d="M 628 4666 
L 3309 4666 
L 3309 4134 
L 1259 4134 
L 1259 2759 
L 3109 2759 
L 3109 2228 
L 1259 2228 
L 1259 0 
L 628 0 
L 628 4666 
z
" transform="scale(0.015625)"/>
      <path id="DejaVuSans-20" transform="scale(0.015625)"/>
      <path id="DejaVuSans-72" d="M 2631 2963 
Q 2534 3019 2420 3045 
Q 2306 3072 2169 3072 
Q 1681 3072 1420 2755 
Q 1159 2438 1159 1844 
L 1159 0 
L 581 0 
L 581 3500 
L 1159 3500 
L 1159 2956 
Q 1341 3275 1631 3429 
Q 1922 3584 2338 3584 
Q 2397 3584 2469 3576 
Q 2541 3569 2628 3553 
L 2631 2963 
z
" transform="scale(0.015625)"/>
      <path id="DejaVuSans-62" d="M 3116 1747 
Q 3116 2381 2855 2742 
Q 2594 3103 2138 3103 
Q 1681 3103 1420 2742 
Q 1159 2381 1159 1747 
Q 1159 1113 1420 752 
Q 1681 391 2138 391 
Q 2594 391 2855 752 
Q 3116 1113 3116 1747 
z
M 1159 2969 
Q 1341 3281 1617 3432 
Q 1894 3584 2278 3584 
Q 2916 3584 3314 3078 
Q 3713 2572 3713 1747 
Q 3713 922 3314 415 
Q 2916 -91 2278 -91 
Q 1894 -91 1617 61 
Q 1341 213 1159 525 
L 1159 0 
L 581 0 
L 581 4863 
L 1159 4863 
L 1159 2969 
z
" transform="scale(0.015625)"/>
      <path id="DejaVuSans-75" d="M 544 1381 
L 544 3500 
L 1119 3500 
L 1119 1403 
Q 1119 906 1312 657 
Q 1506 409 1894 409 
Q 2359 409 2629 706 
Q 2900 1003 2900 1516 
L 2900 3500 
L 3475 3500 
L 3475 0 
L 2900 0 
L 2900 538 
Q 2691 219 2414 64 
Q 2138 -91 1772 -91 
Q 1169 -91 856 284 
Q 544 659 544 1381 
z
M 1991 3584 
L 1991 3584 
z
" transform="scale(0.015625)"/>
      <path id="DejaVuSans-6f" d="M 1959 3097 
Q 1497 3097 1228 2736 
Q 959 2375 959 1747 
Q 959 1119 1226 758 
Q 1494 397 1959 397 
Q 2419 397 2687 759 
Q 2956 1122 2956 1747 
Q 2956 2369 2687 2733 
Q 2419 3097 1959 3097 
z
M 1959 3584 
Q 2709 3584 3137 3096 
Q 3566 2609 3566 1747 
Q 3566 888 3137 398 
Q 2709 -91 1959 -91 
Q 1206 -91 779 398 
Q 353 888 353 1747 
Q 353 2609 779 3096 
Q 1206 3584 1959 3584 
z
" transform="scale(0.015625)"/>
     </defs>
     <use xlink:href="#DejaVuSans-46"/>
     <use xlink:href="#DejaVuSans-73" x="57.519531"/>
     <use xlink:href="#DejaVuSans-74" x="109.619141"/>
     <use xlink:href="#DejaVuSans-20" x="148.828125"/>
     <use xlink:href="#DejaVuSans-44" x="180.615234"/>
     <use xlink:href="#DejaVuSans-69" x="257.617188"/>
     <use xlink:href="#DejaVuSans-73" x="285.400391"/>
     <use xlink:href="#DejaVuSans-74" x="337.5"/>
     <use xlink:href="#DejaVuSans-72" x="376.708984"/>
     <use xlink:href="#DejaVuSans-69" x="417.822266"/>
     <use xlink:href="#DejaVuSans-62" x="445.605469"/>
     <use xlink:href="#DejaVuSans-75" x="509.082031"/>
     <use xlink:href="#DejaVuSans-74" x="572.460938"/>
     <use xlink:href="#DejaVuSans-69" x="611.669922"/>
     <use xlink:href="#DejaVuSans-6f" x="639.453125"/>
     <use xlink:href="#DejaVuSans-6e" x="700.634766"/>
    </g>
   </g>
   <g id="legend_1">
    <g id="patch_7">
     <path d="M 692.420313 110.46875 
L 770.6 110.46875 
Q 772.6 110.46875 772.6 108.46875 
L 772.6 50.2 
Q 772.6 48.2 770.6 48.2 
L 692.420313 48.2 
Q 690.420313 48.2 690.420313 50.2 
L 690.420313 108.46875 
Q 690.420313 110.46875 692.420313 110.46875 
z
" style="fill: #ffffff; opacity: 0.8; stroke: #cccccc; stroke-linejoin: miter"/>
    </g>
    <g id="patch_8">
     <path d="M 694.420313 59.798437 
L 714.420313 59.798437 
L 714.420313 52.798437 
L 694.420313 52.798437 
z
" style="fill: #ff00ff; fill-opacity: 0.25; stroke: #ff00ff; stroke-linejoin: miter"/>
    </g>
    <g id="text_16">
     <!-- neutral -->
     <g transform="translate(722.420313 59.798437) scale(0.1 -0.1)">
      <defs>
       <path id="DejaVuSans-61" d="M 2194 1759 
Q 1497 1759 1228 1600 
Q 959 1441 959 1056 
Q 959 750 1161 570 
Q 1363 391 1709 391 
Q 2188 391 2477 730 
Q 2766 1069 2766 1631 
L 2766 1759 
L 2194 1759 
z
M 3341 1997 
L 3341 0 
L 2766 0 
L 2766 531 
Q 2569 213 2275 61 
Q 1981 -91 1556 -91 
Q 1019 -91 701 211 
Q 384 513 384 1019 
Q 384 1609 779 1909 
Q 1175 2209 1959 2209 
L 2766 2209 
L 2766 2266 
Q 2766 2663 2505 2880 
Q 2244 3097 1772 3097 
Q 1472 3097 1187 3025 
Q 903 2953 641 2809 
L 641 3341 
Q 956 3463 1253 3523 
Q 1550 3584 1831 3584 
Q 2591 3584 2966 3190 
Q 3341 2797 3341 1997 
z
" transform="scale(0.015625)"/>
       <path id="DejaVuSans-6c" d="M 603 4863 
L 1178 4863 
L 1178 0 
L 603 0 
L 603 4863 
z
" transform="scale(0.015625)"/>
      </defs>
      <use xlink:href="#DejaVuSans-6e"/>
      <use xlink:href="#DejaVuSans-65" x="63.378906"/>
      <use xlink:href="#DejaVuSans-75" x="124.902344"/>
      <use xlink:href="#DejaVuSans-74" x="188.28125"/>
      <use xlink:href="#DejaVuSans-72" x="227.490234"/>
      <use xlink:href="#DejaVuSans-61" x="268.603516"/>
      <use xlink:href="#DejaVuSans-6c" x="329.882812"/>
     </g>
    </g>
    <g id="patch_9">
     <path d="M 694.420313 74.476562 
L 714.420313 74.476562 
L 714.420313 67.476562 
L 694.420313 67.476562 
z
" style="fill: #1e90ff; fill-opacity: 0.25; stroke: #1e90ff; stroke-linejoin: miter"/>
    </g>
    <g id="text_17">
     <!-- link_left -->
     <g transform="translate(722.420313 74.476562) scale(0.1 -0.1)">
      <defs>
       <path id="DejaVuSans-6b" d="M 581 4863 
L 1159 4863 
L 1159 1991 
L 2875 3500 
L 3609 3500 
L 1753 1863 
L 3688 0 
L 2938 0 
L 1159 1709 
L 1159 0 
L 581 0 
L 581 4863 
z
" transform="scale(0.015625)"/>
       <path id="DejaVuSans-5f" d="M 3263 -1063 
L 3263 -1509 
L -63 -1509 
L -63 -1063 
L 3263 -1063 
z
" transform="scale(0.015625)"/>
      </defs>
      <use xlink:href="#DejaVuSans-6c"/>
      <use xlink:href="#DejaVuSans-69" x="27.783203"/>
      <use xlink:href="#DejaVuSans-6e" x="55.566406"/>
      <use xlink:href="#DejaVuSans-6b" x="118.945312"/>
      <use xlink:href="#DejaVuSans-5f" x="176.855469"/>
      <use xlink:href="#DejaVuSans-6c" x="226.855469"/>
      <use xlink:href="#DejaVuSans-65" x="254.638672"/>
      <use xlink:href="#DejaVuSans-66" x="316.162109"/>
      <use xlink:href="#DejaVuSans-74" x="349.617188"/>
     </g>
    </g>
    <g id="patch_10">
     <path d="M 694.420313 89.432812 
L 714.420313 89.432812 
L 714.420313 82.432812 
L 694.420313 82.432812 
z
" style="fill: #9400d3; fill-opacity: 0.25; stroke: #9400d3; stroke-linejoin: miter"/>
    </g>
    <g id="text_18">
     <!-- link_right -->
     <g transform="translate(722.420313 89.432812) scale(0.1 -0.1)">
      <defs>
       <path id="DejaVuSans-67" d="M 2906 1791 
Q 2906 2416 2648 2759 
Q 2391 3103 1925 3103 
Q 1463 3103 1205 2759 
Q 947 2416 947 1791 
Q 947 1169 1205 825 
Q 1463 481 1925 481 
Q 2391 481 2648 825 
Q 2906 1169 2906 1791 
z
M 3481 434 
Q 3481 -459 3084 -895 
Q 2688 -1331 1869 -1331 
Q 1566 -1331 1297 -1286 
Q 1028 -1241 775 -1147 
L 775 -588 
Q 1028 -725 1275 -790 
Q 1522 -856 1778 -856 
Q 2344 -856 2625 -561 
Q 2906 -266 2906 331 
L 2906 616 
Q 2728 306 2450 153 
Q 2172 0 1784 0 
Q 1141 0 747 490 
Q 353 981 353 1791 
Q 353 2603 747 3093 
Q 1141 3584 1784 3584 
Q 2172 3584 2450 3431 
Q 2728 3278 2906 2969 
L 2906 3500 
L 3481 3500 
L 3481 434 
z
" transform="scale(0.015625)"/>
       <path id="DejaVuSans-68" d="M 3513 2113 
L 3513 0 
L 2938 0 
L 2938 2094 
Q 2938 2591 2744 2837 
Q 2550 3084 2163 3084 
Q 1697 3084 1428 2787 
Q 1159 2491 1159 1978 
L 1159 0 
L 581 0 
L 581 4863 
L 1159 4863 
L 1159 2956 
Q 1366 3272 1645 3428 
Q 1925 3584 2291 3584 
Q 2894 3584 3203 3211 
Q 3513 2838 3513 2113 
z
" transform="scale(0.015625)"/>
      </defs>
      <use xlink:href="#DejaVuSans-6c"/>
      <use xlink:href="#DejaVuSans-69" x="27.783203"/>
      <use xlink:href="#DejaVuSans-6e" x="55.566406"/>
      <use xlink:href="#DejaVuSans-6b" x="118.945312"/>
      <use xlink:href="#DejaVuSans-5f" x="176.855469"/>
      <use xlink:href="#DejaVuSans-72" x="226.855469"/>
      <use xlink:href="#DejaVuSans-69" x="267.96875"/>
      <use xlink:href="#DejaVuSans-67" x="295.751953"/>
      <use xlink:href="#DejaVuSans-68" x="359.228516"/>
      <use xlink:href="#DejaVuSans-74" x="422.607422"/>
     </g>
    </g>
    <g id="patch_11">
     <path d="M 694.420313 104.389062 
L 714.420313 104.389062 
L 714.420313 97.389062 
L 694.420313 97.389062 
z
" style="fill: #0000ff; fill-opacity: 0.25; stroke: #0000ff; stroke-linejoin: miter"/>
    </g>
    <g id="text_19">
     <!-- sweep -->
     <g transform="translate(722.420313 104.389062) scale(0.1 -0.1)">
      <defs>
       <path id="DejaVuSans-77" d="M 269 3500 
L 844 3500 
L 1563 769 
L 2278 3500 
L 2956 3500 
L 3675 769 
L 4391 3500 
L 4966 3500 
L 4050 0 
L 3372 0 
L 2619 2869 
L 1863 0 
L 1184 0 
L 269 3500 
z
" transform="scale(0.015625)"/>
       <path id="DejaVuSans-70" d="M 1159 525 
L 1159 -1331 
L 581 -1331 
L 581 3500 
L 1159 3500 
L 1159 2969 
Q 1341 3281 1617 3432 
Q 1894 3584 2278 3584 
Q 2916 3584 3314 3078 
Q 3713 2572 3713 1747 
Q 3713 922 3314 415 
Q 2916 -91 2278 -91 
Q 1894 -91 1617 61 
Q 1341 213 1159 525 
z
M 3116 1747 
Q 3116 2381 2855 2742 
Q 2594 3103 2138 3103 
Q 1681 3103 1420 2742 
Q 1159 2381 1159 1747 
Q 1159 1113 1420 752 
Q 1681 391 2138 391 
Q 2594 391 2855 752 
Q 3116 1113 3116 1747 
z
" transform="scale(0.015625)"/>
      </defs>
      <use xlink:href="#DejaVuSans-73"/>
      <use xlink:href="#DejaVuSans-77" x="52.099609"/>
      <use xlink:href="#DejaVuSans-65" x="133.886719"/>
      <use xlink:href="#DejaVuSans-65" x="195.410156"/>
      <use xlink:href="#DejaVuSans-70" x="256.933594"/>
     </g>
    </g>
   </g>
  </g>
 </g>
 <defs>
  <clipPath id="p140a072933">
   <rect x="108" y="43.2" width="669.6" height="277.2"/>
  </clipPath>
 </defs>
</svg>
