<?xml version="1.0" encoding="utf-8" standalone="no"?>
<!DOCTYPE svg PUBLIC "-//W3C//DTD SVG 1.1//EN"
  "http://www.w3.org/Graphics/SVG/1.1/DTD/svg11.dtd">
<svg xmlns:xlink="http://www.w3.org/1999/xlink" width="864pt" height="360pt" viewBox="0 0 864 360" xmlns="http://www.w3.org/2000/svg" version="1.1">
 <metadata>
  <rdf:RDF xmlns:dc="http://purl.org/dc/elements/1.1/" xmlns:cc="http://creativecommons.org/ns#" xmlns:rdf="http://www.w3.org/1999/02/22-rdf-syntax-ns#">
   <cc:Work>
    <dc:type rdf:resource="http://purl.org/dc/dcmitype/StillImage"/>
    <dc:date>2024-05-27T13:26:14.625117</dc:date>
    <dc:format>image/svg+xml</dc:format>
    <dc:creator>
     <cc:Agent>
      <dc:title>Matplotlib v3.8.0, https://matplotlib.org/</dc:title>
     </cc:Agent>
    </dc:creator>
   </cc:Work>
  </rdf:RDF>
 </metadata>
 <defs>
  <style type="text/css">*{stroke-linejoin: round; stroke-linecap: butt}</style>
 </defs>
 <g id="figure_1">
  <g id="patch_1">
   <path d="M 0 360 
L 864 360 
L 864 0 
L 0 0 
z
" style="fill: #ffffff"/>
  </g>
  <g id="axes_1">
   <g id="patch_2">
    <path d="M 108 320.4 
L 777.6 320.4 
L 777.6 43.2 
L 108 43.2 
z
" style="fill: #ffffff"/>
   </g>
   <g id="PolyCollection_1">
    <defs>
     <path id="mb51d600790" d="M 232.009712 -39.600007 
L 232.009712 -39.6 
L 234.302623 -39.6 
L 236.595533 -39.6 
L 238.888443 -39.6 
L 241.181354 -39.6 
L 243.474264 -39.6 
L 245.767175 -39.6 
L 248.060085 -39.6 
L 250.352995 -39.6 
L 252.645906 -39.6 
L 254.938816 -39.6 
L 257.231727 -39.6 
L 259.524637 -39.6 
L 261.817547 -39.6 
L 264.110458 -39.6 
L 266.403368 -39.6 
L 268.696279 -39.6 
L 270.989189 -39.6 
L 273.2821 -39.6 
L 275.57501 -39.6 
L 277.86792 -39.6 
L 280.160831 -39.6 
L 282.453741 -39.6 
L 284.746652 -39.6 
L 287.039562 -39.6 
L 289.332472 -39.6 
L 291.625383 -39.6 
L 293.918293 -39.6 
L 296.211204 -39.6 
L 298.504114 -39.6 
L 300.797024 -39.6 
L 303.089935 -39.6 
L 305.382845 -39.6 
L 307.675756 -39.6 
L 309.968666 -39.6 
L 312.261576 -39.6 
L 314.554487 -39.6 
L 316.847397 -39.6 
L 319.140308 -39.6 
L 321.433218 -39.6 
L 323.726129 -39.6 
L 326.019039 -39.6 
L 328.311949 -39.6 
L 330.60486 -39.6 
L 332.89777 -39.6 
L 335.190681 -39.6 
L 337.483591 -39.6 
L 339.776501 -39.6 
L 342.069412 -39.6 
L 344.362322 -39.6 
L 346.655233 -39.6 
L 348.948143 -39.6 
L 351.241053 -39.6 
L 353.533964 -39.6 
L 355.826874 -39.6 
L 358.119785 -39.6 
L 360.412695 -39.6 
L 362.705605 -39.6 
L 364.998516 -39.6 
L 367.291426 -39.6 
L 369.584337 -39.6 
L 371.877247 -39.6 
L 374.170158 -39.6 
L 376.463068 -39.6 
L 378.755978 -39.6 
L 381.048889 -39.6 
L 383.341799 -39.6 
L 385.63471 -39.6 
L 387.92762 -39.6 
L 390.22053 -39.6 
L 392.513441 -39.6 
L 394.806351 -39.6 
L 397.099262 -39.6 
L 399.392172 -39.6 
L 401.685082 -39.6 
L 403.977993 -39.6 
L 406.270903 -39.6 
L 408.563814 -39.6 
L 410.856724 -39.6 
L 413.149634 -39.6 
L 415.442545 -39.6 
L 417.735455 -39.6 
L 420.028366 -39.6 
L 422.321276 -39.6 
L 424.614187 -39.6 
L 426.907097 -39.6 
L 429.200007 -39.6 
L 431.492918 -39.6 
L 433.785828 -39.6 
L 436.078739 -39.6 
L 438.371649 -39.6 
L 440.664559 -39.6 
L 442.95747 -39.6 
L 445.25038 -39.6 
L 447.543291 -39.6 
L 449.836201 -39.6 
L 452.129111 -39.6 
L 454.422022 -39.6 
L 456.714932 -39.6 
L 459.007843 -39.6 
L 461.300753 -39.6 
L 463.593663 -39.6 
L 465.886574 -39.6 
L 468.179484 -39.6 
L 470.472395 -39.6 
L 472.765305 -39.6 
L 475.058216 -39.6 
L 477.351126 -39.6 
L 479.644036 -39.6 
L 481.936947 -39.6 
L 484.229857 -39.6 
L 486.522768 -39.6 
L 488.815678 -39.6 
L 491.108588 -39.6 
L 493.401499 -39.6 
L 495.694409 -39.6 
L 497.98732 -39.6 
L 500.28023 -39.6 
L 502.57314 -39.6 
L 504.866051 -39.6 
L 507.158961 -39.6 
L 509.451872 -39.6 
L 511.744782 -39.6 
L 514.037692 -39.6 
L 516.330603 -39.6 
L 518.623513 -39.6 
L 520.916424 -39.6 
L 523.209334 -39.6 
L 525.502245 -39.6 
L 527.795155 -39.6 
L 530.088065 -39.6 
L 532.380976 -39.6 
L 534.673886 -39.6 
L 536.966797 -39.6 
L 539.259707 -39.6 
L 541.552617 -39.6 
L 543.845528 -39.6 
L 546.138438 -39.6 
L 548.431349 -39.6 
L 550.724259 -39.6 
L 553.017169 -39.6 
L 555.31008 -39.6 
L 557.60299 -39.6 
L 559.895901 -39.6 
L 562.188811 -39.6 
L 564.481721 -39.6 
L 566.774632 -39.6 
L 569.067542 -39.6 
L 571.360453 -39.6 
L 573.653363 -39.6 
L 575.946274 -39.6 
L 578.239184 -39.6 
L 580.532094 -39.6 
L 582.825005 -39.6 
L 585.117915 -39.6 
L 587.410826 -39.6 
L 589.703736 -39.6 
L 591.996646 -39.6 
L 594.289557 -39.6 
L 596.582467 -39.6 
L 598.875378 -39.6 
L 601.168288 -39.6 
L 603.461198 -39.6 
L 605.754109 -39.6 
L 608.047019 -39.6 
L 610.33993 -39.6 
L 612.63284 -39.6 
L 614.92575 -39.6 
L 617.218661 -39.6 
L 619.511571 -39.6 
L 621.804482 -39.6 
L 624.097392 -39.6 
L 626.390303 -39.6 
L 628.683213 -39.6 
L 630.976123 -39.6 
L 633.269034 -39.6 
L 635.561944 -39.6 
L 637.854855 -39.6 
L 640.147765 -39.6 
L 642.440675 -39.6 
L 644.733586 -39.6 
L 647.026496 -39.6 
L 649.319407 -39.6 
L 651.612317 -39.6 
L 653.905227 -39.6 
L 656.198138 -39.6 
L 658.491048 -39.6 
L 660.783959 -39.6 
L 663.076869 -39.6 
L 665.369779 -39.6 
L 667.66269 -39.6 
L 669.9556 -39.6 
L 672.248511 -39.6 
L 674.541421 -39.6 
L 676.834332 -39.6 
L 679.127242 -39.6 
L 681.420152 -39.6 
L 683.713063 -39.6 
L 686.005973 -39.6 
L 688.298884 -39.6 
L 688.298884 -39.600008 
L 688.298884 -39.600008 
L 686.005973 -39.600278 
L 683.713063 -39.601549 
L 681.420152 -39.602457 
L 679.127242 -39.603168 
L 676.834332 -39.602589 
L 674.541421 -39.603772 
L 672.248511 -39.60661 
L 669.9556 -39.610675 
L 667.66269 -39.61032 
L 665.369779 -39.612946 
L 663.076869 -39.614326 
L 660.783959 -39.624464 
L 658.491048 -39.64074 
L 656.198138 -39.649694 
L 653.905227 -39.661452 
L 651.612317 -39.676165 
L 649.319407 -39.692972 
L 647.026496 -39.706477 
L 644.733586 -39.732429 
L 642.440675 -39.764656 
L 640.147765 -39.796679 
L 637.854855 -39.812499 
L 635.561944 -39.853507 
L 633.269034 -39.900857 
L 630.976123 -39.948127 
L 628.683213 -39.98775 
L 626.390303 -40.046145 
L 624.097392 -40.098707 
L 621.804482 -40.155315 
L 619.511571 -40.200688 
L 617.218661 -40.279371 
L 614.92575 -40.368671 
L 612.63284 -40.448466 
L 610.33993 -40.539529 
L 608.047019 -40.644898 
L 605.754109 -40.75699 
L 603.461198 -40.865994 
L 601.168288 -40.987619 
L 598.875378 -41.062552 
L 596.582467 -41.194356 
L 594.289557 -41.328596 
L 591.996646 -41.418818 
L 589.703736 -41.571139 
L 587.410826 -41.738022 
L 585.117915 -41.85186 
L 582.825005 -42.047194 
L 580.532094 -42.288633 
L 578.239184 -42.523344 
L 575.946274 -42.765368 
L 573.653363 -43.048052 
L 571.360453 -43.344651 
L 569.067542 -43.734553 
L 566.774632 -44.168344 
L 564.481721 -44.583225 
L 562.188811 -45.038572 
L 559.895901 -45.66913 
L 557.60299 -46.395201 
L 555.31008 -47.135194 
L 553.017169 -47.979929 
L 550.724259 -49.024616 
L 548.431349 -50.270837 
L 546.138438 -51.528792 
L 543.845528 -52.970697 
L 541.552617 -54.702013 
L 539.259707 -56.610482 
L 536.966797 -58.806975 
L 534.673886 -61.194309 
L 532.380976 -63.594122 
L 530.088065 -66.297496 
L 527.795155 -69.442197 
L 525.502245 -73.088965 
L 523.209334 -77.036112 
L 520.916424 -81.200867 
L 518.623513 -85.6114 
L 516.330603 -90.636329 
L 514.037692 -95.945088 
L 511.744782 -101.353827 
L 509.451872 -107.31778 
L 507.158961 -113.567305 
L 504.866051 -120.383156 
L 502.57314 -127.536556 
L 500.28023 -134.308078 
L 497.98732 -141.429052 
L 495.694409 -148.844838 
L 493.401499 -156.226491 
L 491.108588 -163.513571 
L 488.815678 -170.901242 
L 486.522768 -177.772437 
L 484.229857 -184.453163 
L 481.936947 -190.26791 
L 479.644036 -195.980476 
L 477.351126 -201.189227 
L 475.058216 -204.78769 
L 472.765305 -208.345235 
L 470.472395 -211.230908 
L 468.179484 -212.963449 
L 465.886574 -213.475679 
L 463.593663 -213.38875 
L 461.300753 -211.870054 
L 459.007843 -208.943289 
L 456.714932 -205.034076 
L 454.422022 -201.038278 
L 452.129111 -195.740544 
L 449.836201 -190.147886 
L 447.543291 -183.819977 
L 445.25038 -176.728011 
L 442.95747 -168.981934 
L 440.664559 -161.480681 
L 438.371649 -153.751778 
L 436.078739 -145.410578 
L 433.785828 -137.140117 
L 431.492918 -129.052337 
L 429.200007 -121.387117 
L 426.907097 -114.057865 
L 424.614187 -106.870608 
L 422.321276 -100.09725 
L 420.028366 -93.92984 
L 417.735455 -87.973777 
L 415.442545 -82.558341 
L 413.149634 -77.447521 
L 410.856724 -72.965446 
L 408.563814 -68.90065 
L 406.270903 -65.013457 
L 403.977993 -61.886007 
L 401.685082 -59.111772 
L 399.392172 -56.364327 
L 397.099262 -54.077012 
L 394.806351 -52.160574 
L 392.513441 -50.429884 
L 390.22053 -48.890614 
L 387.92762 -47.549346 
L 385.63471 -46.425798 
L 383.341799 -45.492143 
L 381.048889 -44.672898 
L 378.755978 -43.992418 
L 376.463068 -43.386034 
L 374.170158 -42.855994 
L 371.877247 -42.365664 
L 369.584337 -41.952078 
L 367.291426 -41.658449 
L 364.998516 -41.412923 
L 362.705605 -41.196017 
L 360.412695 -40.959081 
L 358.119785 -40.781643 
L 355.826874 -40.626836 
L 353.533964 -40.490371 
L 351.241053 -40.374426 
L 348.948143 -40.28215 
L 346.655233 -40.21926 
L 344.362322 -40.152506 
L 342.069412 -40.083447 
L 339.776501 -40.030575 
L 337.483591 -39.969136 
L 335.190681 -39.918204 
L 332.89777 -39.868989 
L 330.60486 -39.838581 
L 328.311949 -39.81898 
L 326.019039 -39.802253 
L 323.726129 -39.771246 
L 321.433218 -39.742884 
L 319.140308 -39.727964 
L 316.847397 -39.715784 
L 314.554487 -39.705945 
L 312.261576 -39.683874 
L 309.968666 -39.66974 
L 307.675756 -39.666767 
L 305.382845 -39.665289 
L 303.089935 -39.657587 
L 300.797024 -39.64519 
L 298.504114 -39.633755 
L 296.211204 -39.627025 
L 293.918293 -39.625181 
L 291.625383 -39.620838 
L 289.332472 -39.618473 
L 287.039562 -39.617298 
L 284.746652 -39.617052 
L 282.453741 -39.614166 
L 280.160831 -39.609712 
L 277.86792 -39.6052 
L 275.57501 -39.602979 
L 273.2821 -39.604191 
L 270.989189 -39.607405 
L 268.696279 -39.608272 
L 266.403368 -39.603204 
L 264.110458 -39.601728 
L 261.817547 -39.601375 
L 259.524637 -39.601888 
L 257.231727 -39.602614 
L 254.938816 -39.600514 
L 252.645906 -39.600012 
L 250.352995 -39.6 
L 248.060085 -39.6 
L 245.767175 -39.6 
L 243.474264 -39.6 
L 241.181354 -39.600007 
L 238.888443 -39.600195 
L 236.595533 -39.600605 
L 234.302623 -39.600197 
L 232.009712 -39.600007 
z
" style="stroke: #ff00ff"/>
    </defs>
    <g clip-path="url(#pc773ba42dd)">
     <use xlink:href="#mb51d600790" x="0" y="360" style="fill: #ff00ff; fill-opacity: 0.25; stroke: #ff00ff"/>
    </g>
   </g>
   <g id="PolyCollection_2">
    <defs>
     <path id="m869fa99d32" d="M 151.647097 -39.600041 
L 151.647097 -39.6 
L 154.621809 -39.6 
L 157.596521 -39.6 
L 160.571234 -39.6 
L 163.545946 -39.6 
L 166.520659 -39.6 
L 169.495371 -39.6 
L 172.470084 -39.6 
L 175.444796 -39.6 
L 178.419509 -39.6 
L 181.394221 -39.6 
L 184.368933 -39.6 
L 187.343646 -39.6 
L 190.318358 -39.6 
L 193.293071 -39.6 
L 196.267783 -39.6 
L 199.242496 -39.6 
L 202.217208 -39.6 
L 205.191921 -39.6 
L 208.166633 -39.6 
L 211.141345 -39.6 
L 214.116058 -39.6 
L 217.09077 -39.6 
L 220.065483 -39.6 
L 223.040195 -39.6 
L 226.014908 -39.6 
L 228.98962 -39.6 
L 231.964332 -39.6 
L 234.939045 -39.6 
L 237.913757 -39.6 
L 240.88847 -39.6 
L 243.863182 -39.6 
L 246.837895 -39.6 
L 249.812607 -39.6 
L 252.78732 -39.6 
L 255.762032 -39.6 
L 258.736744 -39.6 
L 261.711457 -39.6 
L 264.686169 -39.6 
L 267.660882 -39.6 
L 270.635594 -39.6 
L 273.610307 -39.6 
L 276.585019 -39.6 
L 279.559732 -39.6 
L 282.534444 -39.6 
L 285.509156 -39.6 
L 288.483869 -39.6 
L 291.458581 -39.6 
L 294.433294 -39.6 
L 297.408006 -39.6 
L 300.382719 -39.6 
L 303.357431 -39.6 
L 306.332144 -39.6 
L 309.306856 -39.6 
L 312.281568 -39.6 
L 315.256281 -39.6 
L 318.230993 -39.6 
L 321.205706 -39.6 
L 324.180418 -39.6 
L 327.155131 -39.6 
L 330.129843 -39.6 
L 333.104556 -39.6 
L 336.079268 -39.6 
L 339.05398 -39.6 
L 342.028693 -39.6 
L 345.003405 -39.6 
L 347.978118 -39.6 
L 350.95283 -39.6 
L 353.927543 -39.6 
L 356.902255 -39.6 
L 359.876967 -39.6 
L 362.85168 -39.6 
L 365.826392 -39.6 
L 368.801105 -39.6 
L 371.775817 -39.6 
L 374.75053 -39.6 
L 377.725242 -39.6 
L 380.699955 -39.6 
L 383.674667 -39.6 
L 386.649379 -39.6 
L 389.624092 -39.6 
L 392.598804 -39.6 
L 395.573517 -39.6 
L 398.548229 -39.6 
L 401.522942 -39.6 
L 404.497654 -39.6 
L 407.472367 -39.6 
L 410.447079 -39.6 
L 413.421791 -39.6 
L 416.396504 -39.6 
L 419.371216 -39.6 
L 422.345929 -39.6 
L 425.320641 -39.6 
L 428.295354 -39.6 
L 431.270066 -39.6 
L 434.244779 -39.6 
L 437.219491 -39.6 
L 440.194203 -39.6 
L 443.168916 -39.6 
L 446.143628 -39.6 
L 449.118341 -39.6 
L 452.093053 -39.6 
L 455.067766 -39.6 
L 458.042478 -39.6 
L 461.017191 -39.6 
L 463.991903 -39.6 
L 466.966615 -39.6 
L 469.941328 -39.6 
L 472.91604 -39.6 
L 475.890753 -39.6 
L 478.865465 -39.6 
L 481.840178 -39.6 
L 484.81489 -39.6 
L 487.789602 -39.6 
L 490.764315 -39.6 
L 493.739027 -39.6 
L 496.71374 -39.6 
L 499.688452 -39.6 
L 502.663165 -39.6 
L 505.637877 -39.6 
L 508.61259 -39.6 
L 511.587302 -39.6 
L 514.562014 -39.6 
L 517.536727 -39.6 
L 520.511439 -39.6 
L 523.486152 -39.6 
L 526.460864 -39.6 
L 529.435577 -39.6 
L 532.410289 -39.6 
L 535.385002 -39.6 
L 538.359714 -39.6 
L 541.334426 -39.6 
L 544.309139 -39.6 
L 547.283851 -39.6 
L 550.258564 -39.6 
L 553.233276 -39.6 
L 556.207989 -39.6 
L 559.182701 -39.6 
L 562.157414 -39.6 
L 565.132126 -39.6 
L 568.106838 -39.6 
L 571.081551 -39.6 
L 574.056263 -39.6 
L 577.030976 -39.6 
L 580.005688 -39.6 
L 582.980401 -39.6 
L 585.955113 -39.6 
L 588.929826 -39.6 
L 591.904538 -39.6 
L 594.87925 -39.6 
L 597.853963 -39.6 
L 600.828675 -39.6 
L 603.803388 -39.6 
L 606.7781 -39.6 
L 609.752813 -39.6 
L 612.727525 -39.6 
L 615.702237 -39.6 
L 618.67695 -39.6 
L 621.651662 -39.6 
L 624.626375 -39.6 
L 627.601087 -39.6 
L 630.5758 -39.6 
L 633.550512 -39.6 
L 636.525225 -39.6 
L 639.499937 -39.6 
L 642.474649 -39.6 
L 645.449362 -39.6 
L 648.424074 -39.6 
L 651.398787 -39.6 
L 654.373499 -39.6 
L 657.348212 -39.6 
L 660.322924 -39.6 
L 663.297637 -39.6 
L 666.272349 -39.6 
L 669.247061 -39.6 
L 672.221774 -39.6 
L 675.196486 -39.6 
L 678.171199 -39.6 
L 681.145911 -39.6 
L 684.120624 -39.6 
L 687.095336 -39.6 
L 690.070049 -39.6 
L 693.044761 -39.6 
L 696.019473 -39.6 
L 698.994186 -39.6 
L 701.968898 -39.6 
L 704.943611 -39.6 
L 707.918323 -39.6 
L 710.893036 -39.6 
L 713.867748 -39.6 
L 716.842461 -39.6 
L 719.817173 -39.6 
L 722.791885 -39.6 
L 725.766598 -39.6 
L 728.74131 -39.6 
L 731.716023 -39.6 
L 734.690735 -39.6 
L 737.665448 -39.6 
L 740.64016 -39.6 
L 743.614872 -39.6 
L 743.614872 -39.600062 
L 743.614872 -39.600062 
L 740.64016 -39.600188 
L 737.665448 -39.600498 
L 734.690735 -39.601158 
L 731.716023 -39.602361 
L 728.74131 -39.604257 
L 725.766598 -39.606851 
L 722.791885 -39.609994 
L 719.817173 -39.613505 
L 716.842461 -39.617439 
L 713.867748 -39.622341 
L 710.893036 -39.629378 
L 707.918323 -39.640278 
L 704.943611 -39.657077 
L 701.968898 -39.681758 
L 698.994186 -39.716003 
L 696.019473 -39.761376 
L 693.044761 -39.820074 
L 690.070049 -39.89589 
L 687.095336 -39.994626 
L 684.120624 -40.123595 
L 681.145911 -40.29068 
L 678.171199 -40.503922 
L 675.196486 -40.772012 
L 672.221774 -41.105145 
L 669.247061 -41.515449 
L 666.272349 -42.016689 
L 663.297637 -42.623456 
L 660.322924 -43.350183 
L 657.348212 -44.210066 
L 654.373499 -45.21342 
L 651.398787 -46.364971 
L 648.424074 -47.660938 
L 645.449362 -49.088537 
L 642.474649 -50.629883 
L 639.499937 -52.268296 
L 636.525225 -53.991679 
L 633.550512 -55.789412 
L 630.5758 -57.645213 
L 627.601087 -59.532206 
L 624.626375 -61.413612 
L 621.651662 -63.246718 
L 618.67695 -64.986178 
L 615.702237 -66.586716 
L 612.727525 -68.00845 
L 609.752813 -69.225227 
L 606.7781 -70.2314 
L 603.803388 -71.0421 
L 600.828675 -71.686952 
L 597.853963 -72.20149 
L 594.87925 -72.619855 
L 591.904538 -72.968755 
L 588.929826 -73.261566 
L 585.955113 -73.494689 
L 582.980401 -73.650676 
L 580.005688 -73.709204 
L 577.030976 -73.660434 
L 574.056263 -73.512974 
L 571.081551 -73.292699 
L 568.106838 -73.034336 
L 565.132126 -72.770688 
L 562.157414 -72.524237 
L 559.182701 -72.303559 
L 556.207989 -72.104432 
L 553.233276 -71.914087 
L 550.258564 -71.716873 
L 547.283851 -71.499444 
L 544.309139 -71.254008 
L 541.334426 -70.979427 
L 538.359714 -70.680698 
L 535.385002 -70.367089 
L 532.410289 -70.049297 
L 529.435577 -69.737146 
L 526.460864 -69.439519 
L 523.486152 -69.166365 
L 520.511439 -68.930635 
L 517.536727 -68.747704 
L 514.562014 -68.63178 
L 511.587302 -68.591645 
L 508.61259 -68.629696 
L 505.637877 -68.745995 
L 502.663165 -68.944054 
L 499.688452 -69.232609 
L 496.71374 -69.621314 
L 493.739027 -70.114519 
L 490.764315 -70.708621 
L 487.789602 -71.393761 
L 484.81489 -72.156693 
L 481.840178 -72.983284 
L 478.865465 -73.862368 
L 475.890753 -74.791553 
L 472.91604 -75.78075 
L 469.941328 -76.847355 
L 466.966615 -78.002146 
L 463.991903 -79.234372 
L 461.017191 -80.508926 
L 458.042478 -81.780231 
L 455.067766 -83.012245 
L 452.093053 -84.188755 
L 449.118341 -85.309708 
L 446.143628 -86.38334 
L 443.168916 -87.423453 
L 440.194203 -88.449616 
L 437.219491 -89.482002 
L 434.244779 -90.528989 
L 431.270066 -91.575606 
L 428.295354 -92.583174 
L 425.320641 -93.503227 
L 422.345929 -94.298712 
L 419.371216 -94.959936 
L 416.396504 -95.505902 
L 413.421791 -95.971584 
L 410.447079 -96.390862 
L 407.472367 -96.785264 
L 404.497654 -97.160647 
L 401.522942 -97.506575 
L 398.548229 -97.794931 
L 395.573517 -97.982301 
L 392.598804 -98.023498 
L 389.624092 -97.894355 
L 386.649379 -97.60866 
L 383.674667 -97.212952 
L 380.699955 -96.75916 
L 377.725242 -96.274792 
L 374.75053 -95.75351 
L 371.775817 -95.171069 
L 368.801105 -94.509725 
L 365.826392 -93.769187 
L 362.85168 -92.957281 
L 359.876967 -92.072531 
L 356.902255 -91.09626 
L 353.927543 -90.000674 
L 350.95283 -88.764212 
L 347.978118 -87.380703 
L 345.003405 -85.858073 
L 342.028693 -84.213856 
L 339.05398 -82.474629 
L 336.079268 -80.675892 
L 333.104556 -78.854141 
L 330.129843 -77.032801 
L 327.155131 -75.215327 
L 324.180418 -73.39422 
L 321.205706 -71.567632 
L 318.230993 -69.74713 
L 315.256281 -67.950811 
L 312.281568 -66.191465 
L 309.306856 -64.472328 
L 306.332144 -62.792675 
L 303.357431 -61.155492 
L 300.382719 -59.569503 
L 297.408006 -58.045049 
L 294.433294 -56.588719 
L 291.458581 -55.200787 
L 288.483869 -53.875787 
L 285.509156 -52.604876 
L 282.534444 -51.379361 
L 279.559732 -50.195143 
L 276.585019 -49.056421 
L 273.610307 -47.975941 
L 270.635594 -46.970461 
L 267.660882 -46.053622 
L 264.686169 -45.230636 
L 261.711457 -44.498061 
L 258.736744 -43.848046 
L 255.762032 -43.273294 
L 252.78732 -42.769135 
L 249.812607 -42.332106 
L 246.837895 -41.957267 
L 243.863182 -41.636793 
L 240.88847 -41.360661 
L 237.913757 -41.118668 
L 234.939045 -40.902577 
L 231.964332 -40.707412 
L 228.98962 -40.531331 
L 226.014908 -40.374299 
L 223.040195 -40.236528 
L 220.065483 -40.117705 
L 217.09077 -40.017158 
L 214.116058 -39.934246 
L 211.141345 -39.868274 
L 208.166633 -39.817934 
L 205.191921 -39.780784 
L 202.217208 -39.753309 
L 199.242496 -39.731714 
L 196.267783 -39.713012 
L 193.293071 -39.695715 
L 190.318358 -39.679665 
L 187.343646 -39.665237 
L 184.368933 -39.652571 
L 181.394221 -39.641388 
L 178.419509 -39.631324 
L 175.444796 -39.622335 
L 172.470084 -39.614724 
L 169.495371 -39.608846 
L 166.520659 -39.604797 
L 163.545946 -39.602334 
L 160.571234 -39.601015 
L 157.596521 -39.600393 
L 154.621809 -39.600136 
L 151.647097 -39.600041 
z
" style="stroke: #1e90ff"/>
    </defs>
    <g clip-path="url(#pc773ba42dd)">
     <use xlink:href="#m869fa99d32" x="0" y="360" style="fill: #1e90ff; fill-opacity: 0.25; stroke: #1e90ff"/>
    </g>
   </g>
   <g id="PolyCollection_3">
    <defs>
     <path id="mb584cb0fdc" d="M 138.436364 -39.600033 
L 138.436364 -39.6 
L 141.495295 -39.6 
L 144.554226 -39.6 
L 147.613157 -39.6 
L 150.672088 -39.6 
L 153.731019 -39.6 
L 156.78995 -39.6 
L 159.848881 -39.6 
L 162.907812 -39.6 
L 165.966743 -39.6 
L 169.025674 -39.6 
L 172.084605 -39.6 
L 175.143536 -39.6 
L 178.202467 -39.6 
L 181.261398 -39.6 
L 184.320329 -39.6 
L 187.37926 -39.6 
L 190.438191 -39.6 
L 193.497122 -39.6 
L 196.556053 -39.6 
L 199.614984 -39.6 
L 202.673915 -39.6 
L 205.732846 -39.6 
L 208.791777 -39.6 
L 211.850708 -39.6 
L 214.909639 -39.6 
L 217.96857 -39.6 
L 221.027501 -39.6 
L 224.086432 -39.6 
L 227.145363 -39.6 
L 230.204294 -39.6 
L 233.263225 -39.6 
L 236.322156 -39.6 
L 239.381087 -39.6 
L 242.440018 -39.6 
L 245.498949 -39.6 
L 248.55788 -39.6 
L 251.616811 -39.6 
L 254.675742 -39.6 
L 257.734673 -39.6 
L 260.793604 -39.6 
L 263.852535 -39.6 
L 266.911466 -39.6 
L 269.970397 -39.6 
L 273.029328 -39.6 
L 276.088259 -39.6 
L 279.14719 -39.6 
L 282.206122 -39.6 
L 285.265053 -39.6 
L 288.323984 -39.6 
L 291.382915 -39.6 
L 294.441846 -39.6 
L 297.500777 -39.6 
L 300.559708 -39.6 
L 303.618639 -39.6 
L 306.67757 -39.6 
L 309.736501 -39.6 
L 312.795432 -39.6 
L 315.854363 -39.6 
L 318.913294 -39.6 
L 321.972225 -39.6 
L 325.031156 -39.6 
L 328.090087 -39.6 
L 331.149018 -39.6 
L 334.207949 -39.6 
L 337.26688 -39.6 
L 340.325811 -39.6 
L 343.384742 -39.6 
L 346.443673 -39.6 
L 349.502604 -39.6 
L 352.561535 -39.6 
L 355.620466 -39.6 
L 358.679397 -39.6 
L 361.738328 -39.6 
L 364.797259 -39.6 
L 367.85619 -39.6 
L 370.915121 -39.6 
L 373.974052 -39.6 
L 377.032983 -39.6 
L 380.091914 -39.6 
L 383.150845 -39.6 
L 386.209776 -39.6 
L 389.268707 -39.6 
L 392.327638 -39.6 
L 395.386569 -39.6 
L 398.4455 -39.6 
L 401.504431 -39.6 
L 404.563362 -39.6 
L 407.622293 -39.6 
L 410.681224 -39.6 
L 413.740155 -39.6 
L 416.799086 -39.6 
L 419.858017 -39.6 
L 422.916948 -39.6 
L 425.975879 -39.6 
L 429.03481 -39.6 
L 432.093741 -39.6 
L 435.152672 -39.6 
L 438.211603 -39.6 
L 441.270534 -39.6 
L 444.329466 -39.6 
L 447.388397 -39.6 
L 450.447328 -39.6 
L 453.506259 -39.6 
L 456.56519 -39.6 
L 459.624121 -39.6 
L 462.683052 -39.6 
L 465.741983 -39.6 
L 468.800914 -39.6 
L 471.859845 -39.6 
L 474.918776 -39.6 
L 477.977707 -39.6 
L 481.036638 -39.6 
L 484.095569 -39.6 
L 487.1545 -39.6 
L 490.213431 -39.6 
L 493.272362 -39.6 
L 496.331293 -39.6 
L 499.390224 -39.6 
L 502.449155 -39.6 
L 505.508086 -39.6 
L 508.567017 -39.6 
L 511.625948 -39.6 
L 514.684879 -39.6 
L 517.74381 -39.6 
L 520.802741 -39.6 
L 523.861672 -39.6 
L 526.920603 -39.6 
L 529.979534 -39.6 
L 533.038465 -39.6 
L 536.097396 -39.6 
L 539.156327 -39.6 
L 542.215258 -39.6 
L 545.274189 -39.6 
L 548.33312 -39.6 
L 551.392051 -39.6 
L 554.450982 -39.6 
L 557.509913 -39.6 
L 560.568844 -39.6 
L 563.627775 -39.6 
L 566.686706 -39.6 
L 569.745637 -39.6 
L 572.804568 -39.6 
L 575.863499 -39.6 
L 578.92243 -39.6 
L 581.981361 -39.6 
L 585.040292 -39.6 
L 588.099223 -39.6 
L 591.158154 -39.6 
L 594.217085 -39.6 
L 597.276016 -39.6 
L 600.334947 -39.6 
L 603.393878 -39.6 
L 606.45281 -39.6 
L 609.511741 -39.6 
L 612.570672 -39.6 
L 615.629603 -39.6 
L 618.688534 -39.6 
L 621.747465 -39.6 
L 624.806396 -39.6 
L 627.865327 -39.6 
L 630.924258 -39.6 
L 633.983189 -39.6 
L 637.04212 -39.6 
L 640.101051 -39.6 
L 643.159982 -39.6 
L 646.218913 -39.6 
L 649.277844 -39.6 
L 652.336775 -39.6 
L 655.395706 -39.6 
L 658.454637 -39.6 
L 661.513568 -39.6 
L 664.572499 -39.6 
L 667.63143 -39.6 
L 670.690361 -39.6 
L 673.749292 -39.6 
L 676.808223 -39.6 
L 679.867154 -39.6 
L 682.926085 -39.6 
L 685.985016 -39.6 
L 689.043947 -39.6 
L 692.102878 -39.6 
L 695.161809 -39.6 
L 698.22074 -39.6 
L 701.279671 -39.6 
L 704.338602 -39.6 
L 707.397533 -39.6 
L 710.456464 -39.6 
L 713.515395 -39.6 
L 716.574326 -39.6 
L 719.633257 -39.6 
L 722.692188 -39.6 
L 725.751119 -39.6 
L 728.81005 -39.6 
L 731.868981 -39.6 
L 734.927912 -39.6 
L 737.986843 -39.6 
L 741.045774 -39.6 
L 744.104705 -39.6 
L 747.163636 -39.6 
L 747.163636 -39.600028 
L 747.163636 -39.600028 
L 744.104705 -39.600085 
L 741.045774 -39.600227 
L 737.986843 -39.600535 
L 734.927912 -39.601118 
L 731.868981 -39.602109 
L 728.81005 -39.603659 
L 725.751119 -39.605943 
L 722.692188 -39.609178 
L 719.633257 -39.613631 
L 716.574326 -39.619652 
L 713.515395 -39.627773 
L 710.456464 -39.638837 
L 707.397533 -39.65405 
L 704.338602 -39.674866 
L 701.279671 -39.702849 
L 698.22074 -39.739704 
L 695.161809 -39.787608 
L 692.102878 -39.849714 
L 689.043947 -39.930591 
L 685.985016 -40.0365 
L 682.926085 -40.17563 
L 679.867154 -40.358575 
L 676.808223 -40.598945 
L 673.749292 -40.913324 
L 670.690361 -41.319339 
L 667.63143 -41.831755 
L 664.572499 -42.45859 
L 661.513568 -43.200295 
L 658.454637 -44.053227 
L 655.395706 -45.015215 
L 652.336775 -46.088865 
L 649.277844 -47.279953 
L 646.218913 -48.5932 
L 643.159982 -50.030817 
L 640.101051 -51.595515 
L 637.04212 -53.291721 
L 633.983189 -55.11741 
L 630.924258 -57.049021 
L 627.865327 -59.033152 
L 624.806396 -60.996257 
L 621.747465 -62.868052 
L 618.688534 -64.601785 
L 615.629603 -66.178041 
L 612.570672 -67.593932 
L 609.511741 -68.85069 
L 606.45281 -69.949661 
L 603.393878 -70.89517 
L 600.334947 -71.696713 
L 597.276016 -72.367599 
L 594.217085 -72.923528 
L 591.158154 -73.382974 
L 588.099223 -73.765199 
L 585.040292 -74.082393 
L 581.981361 -74.330886 
L 578.92243 -74.491185 
L 575.863499 -74.539674 
L 572.804568 -74.463466 
L 569.745637 -74.267674 
L 566.686706 -73.973104 
L 563.627775 -73.610051 
L 560.568844 -73.211704 
L 557.509913 -72.805927 
L 554.450982 -72.407515 
L 551.392051 -72.019027 
L 548.33312 -71.642962 
L 545.274189 -71.293425 
L 542.215258 -70.991633 
L 539.156327 -70.745797 
L 536.097396 -70.535059 
L 533.038465 -70.316643 
L 529.979534 -70.05472 
L 526.920603 -69.749099 
L 523.861672 -69.440768 
L 520.802741 -69.18981 
L 517.74381 -69.04271 
L 514.684879 -69.01256 
L 511.625948 -69.083425 
L 508.567017 -69.231435 
L 505.508086 -69.444844 
L 502.449155 -69.728954 
L 499.390224 -70.095376 
L 496.331293 -70.54856 
L 493.272362 -71.083809 
L 490.213431 -71.697183 
L 487.1545 -72.393102 
L 484.095569 -73.178389 
L 481.036638 -74.049513 
L 477.977707 -74.989584 
L 474.918776 -75.979646 
L 471.859845 -77.011276 
L 468.800914 -78.087786 
L 465.741983 -79.216425 
L 462.683052 -80.401173 
L 459.624121 -81.638305 
L 456.56519 -82.911604 
L 453.506259 -84.190563 
L 450.447328 -85.439158 
L 447.388397 -86.63236 
L 444.329466 -87.765033 
L 441.270534 -88.843142 
L 438.211603 -89.866541 
L 435.152672 -90.82161 
L 432.093741 -91.689564 
L 429.03481 -92.459182 
L 425.975879 -93.131101 
L 422.916948 -93.712476 
L 419.858017 -94.209819 
L 416.799086 -94.627189 
L 413.740155 -94.971004 
L 410.681224 -95.255885 
L 407.622293 -95.502331 
L 404.563362 -95.722777 
L 401.504431 -95.906331 
L 398.4455 -96.019379 
L 395.386569 -96.028089 
L 392.327638 -95.928377 
L 389.268707 -95.758911 
L 386.209776 -95.582919 
L 383.150845 -95.4478 
L 380.091914 -95.350447 
L 377.032983 -95.234596 
L 373.974052 -95.022577 
L 370.915121 -94.656224 
L 367.85619 -94.115768 
L 364.797259 -93.407293 
L 361.738328 -92.53758 
L 358.679397 -91.503165 
L 355.620466 -90.30256 
L 352.561535 -88.956474 
L 349.502604 -87.51324 
L 346.443673 -86.030494 
L 343.384742 -84.544913 
L 340.325811 -83.051721 
L 337.26688 -81.50835 
L 334.207949 -79.859967 
L 331.149018 -78.071012 
L 328.090087 -76.144681 
L 325.031156 -74.121739 
L 321.972225 -72.063767 
L 318.913294 -70.03303 
L 315.854363 -68.077223 
L 312.795432 -66.220366 
L 309.736501 -64.460133 
L 306.67757 -62.77406 
L 303.618639 -61.133986 
L 300.559708 -59.52103 
L 297.500777 -57.932385 
L 294.441846 -56.37858 
L 291.382915 -54.876784 
L 288.323984 -53.445326 
L 285.265053 -52.100191 
L 282.206122 -50.852304 
L 279.14719 -49.70554 
L 276.088259 -48.656505 
L 273.029328 -47.69667 
L 269.970397 -46.815932 
L 266.911466 -46.005552 
L 263.852535 -45.258894 
L 260.793604 -44.570533 
L 257.734673 -43.93603 
L 254.675742 -43.353469 
L 251.616811 -42.824894 
L 248.55788 -42.354873 
L 245.498949 -41.946109 
L 242.440018 -41.595353 
L 239.381087 -41.29311 
L 236.322156 -41.027631 
L 233.263225 -40.79026 
L 230.204294 -40.578284 
L 227.145363 -40.393581 
L 224.086432 -40.238678 
L 221.027501 -40.11341 
L 217.96857 -40.014145 
L 214.909639 -39.935239 
L 211.850708 -39.871125 
L 208.791777 -39.817723 
L 205.732846 -39.772747 
L 202.673915 -39.735145 
L 199.614984 -39.704317 
L 196.556053 -39.679633 
L 193.497122 -39.660398 
L 190.438191 -39.645987 
L 187.37926 -39.635882 
L 184.320329 -39.629532 
L 181.261398 -39.626159 
L 178.202467 -39.624666 
L 175.143536 -39.623768 
L 172.084605 -39.622348 
L 169.025674 -39.619825 
L 165.966743 -39.616286 
L 162.907812 -39.612284 
L 159.848881 -39.608476 
L 156.78995 -39.605332 
L 153.731019 -39.603043 
L 150.672088 -39.601565 
L 147.613157 -39.60072 
L 144.554226 -39.600293 
L 141.495295 -39.600105 
L 138.436364 -39.600033 
z
" style="stroke: #9400d3"/>
    </defs>
    <g clip-path="url(#pc773ba42dd)">
     <use xlink:href="#mb584cb0fdc" x="0" y="360" style="fill: #9400d3; fill-opacity: 0.25; stroke: #9400d3"/>
    </g>
   </g>
   <g id="PolyCollection_4">
    <defs>
     <path id="m978c9293ea" d="M 529.339029 -39.610577 
L 529.339029 -39.6 
L 530.378639 -39.6 
L 531.41825 -39.6 
L 532.45786 -39.6 
L 533.497471 -39.6 
L 534.537082 -39.6 
L 535.576692 -39.6 
L 536.616303 -39.6 
L 537.655913 -39.6 
L 538.695524 -39.6 
L 539.735135 -39.6 
L 540.774745 -39.6 
L 541.814356 -39.6 
L 542.853966 -39.6 
L 543.893577 -39.6 
L 544.933188 -39.6 
L 545.972798 -39.6 
L 547.012409 -39.6 
L 548.052019 -39.6 
L 549.09163 -39.6 
L 550.131241 -39.6 
L 551.170851 -39.6 
L 552.210462 -39.6 
L 553.250073 -39.6 
L 554.289683 -39.6 
L 555.329294 -39.6 
L 556.368904 -39.6 
L 557.408515 -39.6 
L 558.448126 -39.6 
L 559.487736 -39.6 
L 560.527347 -39.6 
L 561.566957 -39.6 
L 562.606568 -39.6 
L 563.646179 -39.6 
L 564.685789 -39.6 
L 565.7254 -39.6 
L 566.76501 -39.6 
L 567.804621 -39.6 
L 568.844232 -39.6 
L 569.883842 -39.6 
L 570.923453 -39.6 
L 571.963063 -39.6 
L 573.002674 -39.6 
L 574.042285 -39.6 
L 575.081895 -39.6 
L 576.121506 -39.6 
L 577.161117 -39.6 
L 578.200727 -39.6 
L 579.240338 -39.6 
L 580.279948 -39.6 
L 581.319559 -39.6 
L 582.35917 -39.6 
L 583.39878 -39.6 
L 584.438391 -39.6 
L 585.478001 -39.6 
L 586.517612 -39.6 
L 587.557223 -39.6 
L 588.596833 -39.6 
L 589.636444 -39.6 
L 590.676054 -39.6 
L 591.715665 -39.6 
L 592.755276 -39.6 
L 593.794886 -39.6 
L 594.834497 -39.6 
L 595.874107 -39.6 
L 596.913718 -39.6 
L 597.953329 -39.6 
L 598.992939 -39.6 
L 600.03255 -39.6 
L 601.072161 -39.6 
L 602.111771 -39.6 
L 603.151382 -39.6 
L 604.190992 -39.6 
L 605.230603 -39.6 
L 606.270214 -39.6 
L 607.309824 -39.6 
L 608.349435 -39.6 
L 609.389045 -39.6 
L 610.428656 -39.6 
L 611.468267 -39.6 
L 612.507877 -39.6 
L 613.547488 -39.6 
L 614.587098 -39.6 
L 615.626709 -39.6 
L 616.66632 -39.6 
L 617.70593 -39.6 
L 618.745541 -39.6 
L 619.785151 -39.6 
L 620.824762 -39.6 
L 621.864373 -39.6 
L 622.903983 -39.6 
L 623.943594 -39.6 
L 624.983205 -39.6 
L 626.022815 -39.6 
L 627.062426 -39.6 
L 628.102036 -39.6 
L 629.141647 -39.6 
L 630.181258 -39.6 
L 631.220868 -39.6 
L 632.260479 -39.6 
L 633.300089 -39.6 
L 634.3397 -39.6 
L 635.379311 -39.6 
L 636.418921 -39.6 
L 637.458532 -39.6 
L 638.498142 -39.6 
L 639.537753 -39.6 
L 640.577364 -39.6 
L 641.616974 -39.6 
L 642.656585 -39.6 
L 643.696195 -39.6 
L 644.735806 -39.6 
L 645.775417 -39.6 
L 646.815027 -39.6 
L 647.854638 -39.6 
L 648.894248 -39.6 
L 649.933859 -39.6 
L 650.97347 -39.6 
L 652.01308 -39.6 
L 653.052691 -39.6 
L 654.092302 -39.6 
L 655.131912 -39.6 
L 656.171523 -39.6 
L 657.211133 -39.6 
L 658.250744 -39.6 
L 659.290355 -39.6 
L 660.329965 -39.6 
L 661.369576 -39.6 
L 662.409186 -39.6 
L 663.448797 -39.6 
L 664.488408 -39.6 
L 665.528018 -39.6 
L 666.567629 -39.6 
L 667.607239 -39.6 
L 668.64685 -39.6 
L 669.686461 -39.6 
L 670.726071 -39.6 
L 671.765682 -39.6 
L 672.805292 -39.6 
L 673.844903 -39.6 
L 674.884514 -39.6 
L 675.924124 -39.6 
L 676.963735 -39.6 
L 678.003346 -39.6 
L 679.042956 -39.6 
L 680.082567 -39.6 
L 681.122177 -39.6 
L 682.161788 -39.6 
L 683.201399 -39.6 
L 684.241009 -39.6 
L 685.28062 -39.6 
L 686.32023 -39.6 
L 687.359841 -39.6 
L 688.399452 -39.6 
L 689.439062 -39.6 
L 690.478673 -39.6 
L 691.518283 -39.6 
L 692.557894 -39.6 
L 693.597505 -39.6 
L 694.637115 -39.6 
L 695.676726 -39.6 
L 696.716336 -39.6 
L 697.755947 -39.6 
L 698.795558 -39.6 
L 699.835168 -39.6 
L 700.874779 -39.6 
L 701.91439 -39.6 
L 702.954 -39.6 
L 703.993611 -39.6 
L 705.033221 -39.6 
L 706.072832 -39.6 
L 707.112443 -39.6 
L 708.152053 -39.6 
L 709.191664 -39.6 
L 710.231274 -39.6 
L 711.270885 -39.6 
L 712.310496 -39.6 
L 713.350106 -39.6 
L 714.389717 -39.6 
L 715.429327 -39.6 
L 716.468938 -39.6 
L 717.508549 -39.6 
L 718.548159 -39.6 
L 719.58777 -39.6 
L 720.62738 -39.6 
L 721.666991 -39.6 
L 722.706602 -39.6 
L 723.746212 -39.6 
L 724.785823 -39.6 
L 725.825434 -39.6 
L 726.865044 -39.6 
L 727.904655 -39.6 
L 728.944265 -39.6 
L 729.983876 -39.6 
L 731.023487 -39.6 
L 732.063097 -39.6 
L 733.102708 -39.6 
L 734.142318 -39.6 
L 735.181929 -39.6 
L 736.22154 -39.6 
L 736.22154 -39.61058 
L 736.22154 -39.61058 
L 735.181929 -39.617852 
L 734.142318 -39.629169 
L 733.102708 -39.646158 
L 732.063097 -39.670741 
L 731.023487 -39.705013 
L 729.983876 -39.751019 
L 728.944265 -39.810443 
L 727.904655 -39.884233 
L 726.865044 -39.972256 
L 725.825434 -40.07303 
L 724.785823 -40.183685 
L 723.746212 -40.300183 
L 722.706602 -40.417862 
L 721.666991 -40.532238 
L 720.62738 -40.63994 
L 719.58777 -40.739591 
L 718.548159 -40.832414 
L 717.508549 -40.922375 
L 716.468938 -41.015772 
L 715.429327 -41.120293 
L 714.389717 -41.243683 
L 713.350106 -41.392284 
L 712.310496 -41.569724 
L 711.270885 -41.776029 
L 710.231274 -42.007328 
L 709.191664 -42.256203 
L 708.152053 -42.51263 
L 707.112443 -42.765323 
L 706.072832 -43.003259 
L 705.033221 -43.217171 
L 703.993611 -43.400795 
L 702.954 -43.551769 
L 701.91439 -43.672093 
L 700.874779 -43.768153 
L 699.835168 -43.850291 
L 698.795558 -43.93194 
L 697.755947 -44.028353 
L 696.716336 -44.154977 
L 695.676726 -44.325618 
L 694.637115 -44.550602 
L 693.597505 -44.835256 
L 692.557894 -45.179067 
L 691.518283 -45.575826 
L 690.478673 -46.01498 
L 689.439062 -46.484152 
L 688.399452 -46.972566 
L 687.359841 -47.474832 
L 686.32023 -47.994392 
L 685.28062 -48.545859 
L 684.241009 -49.155609 
L 683.201399 -49.860262 
L 682.161788 -50.703092 
L 681.122177 -51.728826 
L 680.082567 -52.977716 
L 679.042956 -54.479956 
L 678.003346 -56.251561 
L 676.963735 -58.292544 
L 675.924124 -60.587788 
L 674.884514 -63.110428 
L 673.844903 -65.827026 
L 672.805292 -68.703442 
L 671.765682 -71.710209 
L 670.726071 -74.826382 
L 669.686461 -78.041292 
L 668.64685 -81.354123 
L 667.607239 -84.771766 
L 666.567629 -88.305691 
L 665.528018 -91.968668 
L 664.488408 -95.771973 
L 663.448797 -99.723431 
L 662.409186 -103.826294 
L 661.369576 -108.078755 
L 660.329965 -112.473849 
L 659.290355 -116.999597 
L 658.250744 -121.63943 
L 657.211133 -126.373027 
L 656.171523 -131.177656 
L 655.131912 -136.029938 
L 654.092302 -140.907705 
L 653.052691 -145.791465 
L 652.01308 -150.665094 
L 650.97347 -155.51567 
L 649.933859 -160.332853 
L 648.894248 -165.108662 
L 647.854638 -169.838576 
L 646.815027 -174.524564 
L 645.775417 -179.179899 
L 644.735806 -183.834572 
L 643.696195 -188.539409 
L 642.656585 -193.366649 
L 641.616974 -198.405333 
L 640.577364 -203.751023 
L 639.537753 -209.491025 
L 638.498142 -215.687752 
L 637.458532 -222.363718 
L 636.418921 -229.491564 
L 635.379311 -236.991433 
L 634.3397 -244.736323 
L 633.300089 -252.564197 
L 632.260479 -260.294259 
L 631.220868 -267.744155 
L 630.181258 -274.745165 
L 629.141647 -281.153349 
L 628.102036 -286.855842 
L 627.062426 -291.772547 
L 626.022815 -295.854088 
L 624.983205 -299.077043 
L 623.943594 -301.437255 
L 622.903983 -302.941782 
L 621.864373 -303.6 
L 620.824762 -303.414656 
L 619.785151 -302.374165 
L 618.745541 -300.447906 
L 617.70593 -297.586366 
L 616.66632 -293.727466 
L 615.626709 -288.809249 
L 614.587098 -282.787551 
L 613.547488 -275.65575 
L 612.507877 -267.462581 
L 611.468267 -258.323816 
L 610.428656 -248.424429 
L 609.389045 -238.009507 
L 608.349435 -227.364443 
L 607.309824 -216.78712 
L 606.270214 -206.556539 
L 605.230603 -196.903136 
L 604.190992 -187.985797 
L 603.151382 -179.879276 
L 602.111771 -172.573818 
L 601.072161 -165.986506 
L 600.03255 -159.981874 
L 598.992939 -154.397854 
L 597.953329 -149.072525 
L 596.913718 -143.867383 
L 595.874107 -138.683805 
L 594.834497 -133.470899 
L 593.794886 -128.224563 
L 592.755276 -122.979102 
L 591.715665 -117.793877 
L 590.676054 -112.73804 
L 589.636444 -107.876299 
L 588.596833 -103.258097 
L 587.557223 -98.911547 
L 586.517612 -94.842375 
L 585.478001 -91.037125 
L 584.438391 -87.469213 
L 583.39878 -84.106165 
L 582.35917 -80.916514 
L 581.319559 -77.875228 
L 580.279948 -74.967052 
L 579.240338 -72.187612 
L 578.200727 -69.542499 
L 577.161117 -67.044759 
L 576.121506 -64.711342 
L 575.081895 -62.559101 
L 574.042285 -60.600932 
L 573.002674 -58.842623 
L 571.963063 -57.280836 
L 570.923453 -55.902529 
L 569.883842 -54.685862 
L 568.844232 -53.602414 
L 567.804621 -52.620307 
L 566.76501 -51.707728 
L 565.7254 -50.836265 
L 564.685789 -49.983597 
L 563.646179 -49.135191 
L 562.606568 -48.284886 
L 561.566957 -47.43442 
L 560.527347 -46.592098 
L 559.487736 -45.770895 
L 558.448126 -44.986283 
L 557.408515 -44.254044 
L 556.368904 -43.588292 
L 555.329294 -42.999833 
L 554.289683 -42.494992 
L 553.250073 -42.074966 
L 552.210462 -41.735769 
L 551.170851 -41.46876 
L 550.131241 -41.261718 
L 549.09163 -41.100333 
L 548.052019 -40.969899 
L 547.012409 -40.856968 
L 545.972798 -40.750712 
L 544.933188 -40.643777 
L 543.893577 -40.532533 
L 542.853966 -40.416735 
L 541.814356 -40.298725 
L 540.774745 -40.18238 
L 539.735135 -40.072033 
L 538.695524 -39.971565 
L 537.655913 -39.883789 
L 536.616303 -39.810172 
L 535.576692 -39.750863 
L 534.537082 -39.704927 
L 533.497471 -39.670695 
L 532.45786 -39.646135 
L 531.41825 -39.629158 
L 530.378639 -39.617846 
L 529.339029 -39.610577 
z
" style="stroke: #0000ff"/>
    </defs>
    <g clip-path="url(#pc773ba42dd)">
     <use xlink:href="#m978c9293ea" x="0" y="360" style="fill: #0000ff; fill-opacity: 0.25; stroke: #0000ff"/>
    </g>
   </g>
   <g id="matplotlib.axis_1">
    <g id="xtick_1">
     <g id="line2d_1">
      <defs>
       <path id="mdcb629d40f" d="M 0 0 
L 0 3.5 
" style="stroke: #000000; stroke-width: 0.8"/>
      </defs>
      <g>
       <use xlink:href="#mdcb629d40f" x="111.507827" y="320.4" style="stroke: #000000; stroke-width: 0.8"/>
      </g>
     </g>
     <g id="text_1">
      <!-- −8 -->
      <g transform="translate(104.136734 334.998438) scale(0.1 -0.1)">
       <defs>
        <path id="DejaVuSans-2212" d="M 678 2272 
L 4684 2272 
L 4684 1741 
L 678 1741 
L 678 2272 
z
" transform="scale(0.015625)"/>
        <path id="DejaVuSans-38" d="M 2034 2216 
Q 1584 2216 1326 1975 
Q 1069 1734 1069 1313 
Q 1069 891 1326 650 
Q 1584 409 2034 409 
Q 2484 409 2743 651 
Q 3003 894 3003 1313 
Q 3003 1734 2745 1975 
Q 2488 2216 2034 2216 
z
M 1403 2484 
Q 997 2584 770 2862 
Q 544 3141 544 3541 
Q 544 4100 942 4425 
Q 1341 4750 2034 4750 
Q 2731 4750 3128 4425 
Q 3525 4100 3525 3541 
Q 3525 3141 3298 2862 
Q 3072 2584 2669 2484 
Q 3125 2378 3379 2068 
Q 3634 1759 3634 1313 
Q 3634 634 3220 271 
Q 2806 -91 2034 -91 
Q 1263 -91 848 271 
Q 434 634 434 1313 
Q 434 1759 690 2068 
Q 947 2378 1403 2484 
z
M 1172 3481 
Q 1172 3119 1398 2916 
Q 1625 2713 2034 2713 
Q 2441 2713 2670 2916 
Q 2900 3119 2900 3481 
Q 2900 3844 2670 4047 
Q 2441 4250 2034 4250 
Q 1625 4250 1398 4047 
Q 1172 3844 1172 3481 
z
" transform="scale(0.015625)"/>
       </defs>
       <use xlink:href="#DejaVuSans-2212"/>
       <use xlink:href="#DejaVuSans-38" x="83.789062"/>
      </g>
     </g>
    </g>
    <g id="xtick_2">
     <g id="line2d_2">
      <g>
       <use xlink:href="#mdcb629d40f" x="200.350553" y="320.4" style="stroke: #000000; stroke-width: 0.8"/>
      </g>
     </g>
     <g id="text_2">
      <!-- −6 -->
      <g transform="translate(192.97946 334.998438) scale(0.1 -0.1)">
       <defs>
        <path id="DejaVuSans-36" d="M 2113 2584 
Q 1688 2584 1439 2293 
Q 1191 2003 1191 1497 
Q 1191 994 1439 701 
Q 1688 409 2113 409 
Q 2538 409 2786 701 
Q 3034 994 3034 1497 
Q 3034 2003 2786 2293 
Q 2538 2584 2113 2584 
z
M 3366 4563 
L 3366 3988 
Q 3128 4100 2886 4159 
Q 2644 4219 2406 4219 
Q 1781 4219 1451 3797 
Q 1122 3375 1075 2522 
Q 1259 2794 1537 2939 
Q 1816 3084 2150 3084 
Q 2853 3084 3261 2657 
Q 3669 2231 3669 1497 
Q 3669 778 3244 343 
Q 2819 -91 2113 -91 
Q 1303 -91 875 529 
Q 447 1150 447 2328 
Q 447 3434 972 4092 
Q 1497 4750 2381 4750 
Q 2619 4750 2861 4703 
Q 3103 4656 3366 4563 
z
" transform="scale(0.015625)"/>
       </defs>
       <use xlink:href="#DejaVuSans-2212"/>
       <use xlink:href="#DejaVuSans-36" x="83.789062"/>
      </g>
     </g>
    </g>
    <g id="xtick_3">
     <g id="line2d_3">
      <g>
       <use xlink:href="#mdcb629d40f" x="289.19328" y="320.4" style="stroke: #000000; stroke-width: 0.8"/>
      </g>
     </g>
     <g id="text_3">
      <!-- −4 -->
      <g transform="translate(281.822186 334.998438) scale(0.1 -0.1)">
       <defs>
        <path id="DejaVuSans-34" d="M 2419 4116 
L 825 1625 
L 2419 1625 
L 2419 4116 
z
M 2253 4666 
L 3047 4666 
L 3047 1625 
L 3713 1625 
L 3713 1100 
L 3047 1100 
L 3047 0 
L 2419 0 
L 2419 1100 
L 313 1100 
L 313 1709 
L 2253 4666 
z
" transform="scale(0.015625)"/>
       </defs>
       <use xlink:href="#DejaVuSans-2212"/>
       <use xlink:href="#DejaVuSans-34" x="83.789062"/>
      </g>
     </g>
    </g>
    <g id="xtick_4">
     <g id="line2d_4">
      <g>
       <use xlink:href="#mdcb629d40f" x="378.036006" y="320.4" style="stroke: #000000; stroke-width: 0.8"/>
      </g>
     </g>
     <g id="text_4">
      <!-- −2 -->
      <g transform="translate(370.664912 334.998438) scale(0.1 -0.1)">
       <defs>
        <path id="DejaVuSans-32" d="M 1228 531 
L 3431 531 
L 3431 0 
L 469 0 
L 469 531 
Q 828 903 1448 1529 
Q 2069 2156 2228 2338 
Q 2531 2678 2651 2914 
Q 2772 3150 2772 3378 
Q 2772 3750 2511 3984 
Q 2250 4219 1831 4219 
Q 1534 4219 1204 4116 
Q 875 4013 500 3803 
L 500 4441 
Q 881 4594 1212 4672 
Q 1544 4750 1819 4750 
Q 2544 4750 2975 4387 
Q 3406 4025 3406 3419 
Q 3406 3131 3298 2873 
Q 3191 2616 2906 2266 
Q 2828 2175 2409 1742 
Q 1991 1309 1228 531 
z
" transform="scale(0.015625)"/>
       </defs>
       <use xlink:href="#DejaVuSans-2212"/>
       <use xlink:href="#DejaVuSans-32" x="83.789062"/>
      </g>
     </g>
    </g>
    <g id="xtick_5">
     <g id="line2d_5">
      <g>
       <use xlink:href="#mdcb629d40f" x="466.878732" y="320.4" style="stroke: #000000; stroke-width: 0.8"/>
      </g>
     </g>
     <g id="text_5">
      <!-- 0 -->
      <g transform="translate(463.697482 334.998438) scale(0.1 -0.1)">
       <defs>
        <path id="DejaVuSans-30" d="M 2034 4250 
Q 1547 4250 1301 3770 
Q 1056 3291 1056 2328 
Q 1056 1369 1301 889 
Q 1547 409 2034 409 
Q 2525 409 2770 889 
Q 3016 1369 3016 2328 
Q 3016 3291 2770 3770 
Q 2525 4250 2034 4250 
z
M 2034 4750 
Q 2819 4750 3233 4129 
Q 3647 3509 3647 2328 
Q 3647 1150 3233 529 
Q 2819 -91 2034 -91 
Q 1250 -91 836 529 
Q 422 1150 422 2328 
Q 422 3509 836 4129 
Q 1250 4750 2034 4750 
z
" transform="scale(0.015625)"/>
       </defs>
       <use xlink:href="#DejaVuSans-30"/>
      </g>
     </g>
    </g>
    <g id="xtick_6">
     <g id="line2d_6">
      <g>
       <use xlink:href="#mdcb629d40f" x="555.721458" y="320.4" style="stroke: #000000; stroke-width: 0.8"/>
      </g>
     </g>
     <g id="text_6">
      <!-- 2 -->
      <g transform="translate(552.540208 334.998438) scale(0.1 -0.1)">
       <use xlink:href="#DejaVuSans-32"/>
      </g>
     </g>
    </g>
    <g id="xtick_7">
     <g id="line2d_7">
      <g>
       <use xlink:href="#mdcb629d40f" x="644.564184" y="320.4" style="stroke: #000000; stroke-width: 0.8"/>
      </g>
     </g>
     <g id="text_7">
      <!-- 4 -->
      <g transform="translate(641.382934 334.998438) scale(0.1 -0.1)">
       <use xlink:href="#DejaVuSans-34"/>
      </g>
     </g>
    </g>
    <g id="xtick_8">
     <g id="line2d_8">
      <g>
       <use xlink:href="#mdcb629d40f" x="733.40691" y="320.4" style="stroke: #000000; stroke-width: 0.8"/>
      </g>
     </g>
     <g id="text_8">
      <!-- 6 -->
      <g transform="translate(730.22566 334.998438) scale(0.1 -0.1)">
       <use xlink:href="#DejaVuSans-36"/>
      </g>
     </g>
    </g>
    <g id="text_9">
     <!-- ihs_afr_std -->
     <g transform="translate(416.01875 348.676562) scale(0.1 -0.1)">
      <defs>
       <path id="DejaVuSans-69" d="M 603 3500 
L 1178 3500 
L 1178 0 
L 603 0 
L 603 3500 
z
M 603 4863 
L 1178 4863 
L 1178 4134 
L 603 4134 
L 603 4863 
z
" transform="scale(0.015625)"/>
       <path id="DejaVuSans-68" d="M 3513 2113 
L 3513 0 
L 2938 0 
L 2938 2094 
Q 2938 2591 2744 2837 
Q 2550 3084 2163 3084 
Q 1697 3084 1428 2787 
Q 1159 2491 1159 1978 
L 1159 0 
L 581 0 
L 581 4863 
L 1159 4863 
L 1159 2956 
Q 1366 3272 1645 3428 
Q 1925 3584 2291 3584 
Q 2894 3584 3203 3211 
Q 3513 2838 3513 2113 
z
" transform="scale(0.015625)"/>
       <path id="DejaVuSans-73" d="M 2834 3397 
L 2834 2853 
Q 2591 2978 2328 3040 
Q 2066 3103 1784 3103 
Q 1356 3103 1142 2972 
Q 928 2841 928 2578 
Q 928 2378 1081 2264 
Q 1234 2150 1697 2047 
L 1894 2003 
Q 2506 1872 2764 1633 
Q 3022 1394 3022 966 
Q 3022 478 2636 193 
Q 2250 -91 1575 -91 
Q 1294 -91 989 -36 
Q 684 19 347 128 
L 347 722 
Q 666 556 975 473 
Q 1284 391 1588 391 
Q 1994 391 2212 530 
Q 2431 669 2431 922 
Q 2431 1156 2273 1281 
Q 2116 1406 1581 1522 
L 1381 1569 
Q 847 1681 609 1914 
Q 372 2147 372 2553 
Q 372 3047 722 3315 
Q 1072 3584 1716 3584 
Q 2034 3584 2315 3537 
Q 2597 3491 2834 3397 
z
" transform="scale(0.015625)"/>
       <path id="DejaVuSans-5f" d="M 3263 -1063 
L 3263 -1509 
L -63 -1509 
L -63 -1063 
L 3263 -1063 
z
" transform="scale(0.015625)"/>
       <path id="DejaVuSans-61" d="M 2194 1759 
Q 1497 1759 1228 1600 
Q 959 1441 959 1056 
Q 959 750 1161 570 
Q 1363 391 1709 391 
Q 2188 391 2477 730 
Q 2766 1069 2766 1631 
L 2766 1759 
L 2194 1759 
z
M 3341 1997 
L 3341 0 
L 2766 0 
L 2766 531 
Q 2569 213 2275 61 
Q 1981 -91 1556 -91 
Q 1019 -91 701 211 
Q 384 513 384 1019 
Q 384 1609 779 1909 
Q 1175 2209 1959 2209 
L 2766 2209 
L 2766 2266 
Q 2766 2663 2505 2880 
Q 2244 3097 1772 3097 
Q 1472 3097 1187 3025 
Q 903 2953 641 2809 
L 641 3341 
Q 956 3463 1253 3523 
Q 1550 3584 1831 3584 
Q 2591 3584 2966 3190 
Q 3341 2797 3341 1997 
z
" transform="scale(0.015625)"/>
       <path id="DejaVuSans-66" d="M 2375 4863 
L 2375 4384 
L 1825 4384 
Q 1516 4384 1395 4259 
Q 1275 4134 1275 3809 
L 1275 3500 
L 2222 3500 
L 2222 3053 
L 1275 3053 
L 1275 0 
L 697 0 
L 697 3053 
L 147 3053 
L 147 3500 
L 697 3500 
L 697 3744 
Q 697 4328 969 4595 
Q 1241 4863 1831 4863 
L 2375 4863 
z
" transform="scale(0.015625)"/>
       <path id="DejaVuSans-72" d="M 2631 2963 
Q 2534 3019 2420 3045 
Q 2306 3072 2169 3072 
Q 1681 3072 1420 2755 
Q 1159 2438 1159 1844 
L 1159 0 
L 581 0 
L 581 3500 
L 1159 3500 
L 1159 2956 
Q 1341 3275 1631 3429 
Q 1922 3584 2338 3584 
Q 2397 3584 2469 3576 
Q 2541 3569 2628 3553 
L 2631 2963 
z
" transform="scale(0.015625)"/>
       <path id="DejaVuSans-74" d="M 1172 4494 
L 1172 3500 
L 2356 3500 
L 2356 3053 
L 1172 3053 
L 1172 1153 
Q 1172 725 1289 603 
Q 1406 481 1766 481 
L 2356 481 
L 2356 0 
L 1766 0 
Q 1100 0 847 248 
Q 594 497 594 1153 
L 594 3053 
L 172 3053 
L 172 3500 
L 594 3500 
L 594 4494 
L 1172 4494 
z
" transform="scale(0.015625)"/>
       <path id="DejaVuSans-64" d="M 2906 2969 
L 2906 4863 
L 3481 4863 
L 3481 0 
L 2906 0 
L 2906 525 
Q 2725 213 2448 61 
Q 2172 -91 1784 -91 
Q 1150 -91 751 415 
Q 353 922 353 1747 
Q 353 2572 751 3078 
Q 1150 3584 1784 3584 
Q 2172 3584 2448 3432 
Q 2725 3281 2906 2969 
z
M 947 1747 
Q 947 1113 1208 752 
Q 1469 391 1925 391 
Q 2381 391 2643 752 
Q 2906 1113 2906 1747 
Q 2906 2381 2643 2742 
Q 2381 3103 1925 3103 
Q 1469 3103 1208 2742 
Q 947 2381 947 1747 
z
" transform="scale(0.015625)"/>
      </defs>
      <use xlink:href="#DejaVuSans-69"/>
      <use xlink:href="#DejaVuSans-68" x="27.783203"/>
      <use xlink:href="#DejaVuSans-73" x="91.162109"/>
      <use xlink:href="#DejaVuSans-5f" x="143.261719"/>
      <use xlink:href="#DejaVuSans-61" x="193.261719"/>
      <use xlink:href="#DejaVuSans-66" x="254.541016"/>
      <use xlink:href="#DejaVuSans-72" x="289.746094"/>
      <use xlink:href="#DejaVuSans-5f" x="330.859375"/>
      <use xlink:href="#DejaVuSans-73" x="380.859375"/>
      <use xlink:href="#DejaVuSans-74" x="432.958984"/>
      <use xlink:href="#DejaVuSans-64" x="472.167969"/>
     </g>
    </g>
   </g>
   <g id="matplotlib.axis_2">
    <g id="ytick_1">
     <g id="line2d_9">
      <defs>
       <path id="mbea78a00ec" d="M 0 0 
L -3.5 0 
" style="stroke: #000000; stroke-width: 0.8"/>
      </defs>
      <g>
       <use xlink:href="#mbea78a00ec" x="108" y="320.4" style="stroke: #000000; stroke-width: 0.8"/>
      </g>
     </g>
     <g id="text_10">
      <!-- 0.0 -->
      <g transform="translate(85.096875 324.199219) scale(0.1 -0.1)">
       <defs>
        <path id="DejaVuSans-2e" d="M 684 794 
L 1344 794 
L 1344 0 
L 684 0 
L 684 794 
z
" transform="scale(0.015625)"/>
       </defs>
       <use xlink:href="#DejaVuSans-30"/>
       <use xlink:href="#DejaVuSans-2e" x="63.623047"/>
       <use xlink:href="#DejaVuSans-30" x="95.410156"/>
      </g>
     </g>
    </g>
    <g id="ytick_2">
     <g id="line2d_10">
      <g>
       <use xlink:href="#mbea78a00ec" x="108" y="289.328931" style="stroke: #000000; stroke-width: 0.8"/>
      </g>
     </g>
     <g id="text_11">
      <!-- 0.1 -->
      <g transform="translate(85.096875 293.12815) scale(0.1 -0.1)">
       <defs>
        <path id="DejaVuSans-31" d="M 794 531 
L 1825 531 
L 1825 4091 
L 703 3866 
L 703 4441 
L 1819 4666 
L 2450 4666 
L 2450 531 
L 3481 531 
L 3481 0 
L 794 0 
L 794 531 
z
" transform="scale(0.015625)"/>
       </defs>
       <use xlink:href="#DejaVuSans-30"/>
       <use xlink:href="#DejaVuSans-2e" x="63.623047"/>
       <use xlink:href="#DejaVuSans-31" x="95.410156"/>
      </g>
     </g>
    </g>
    <g id="ytick_3">
     <g id="line2d_11">
      <g>
       <use xlink:href="#mbea78a00ec" x="108" y="258.257863" style="stroke: #000000; stroke-width: 0.8"/>
      </g>
     </g>
     <g id="text_12">
      <!-- 0.2 -->
      <g transform="translate(85.096875 262.057081) scale(0.1 -0.1)">
       <use xlink:href="#DejaVuSans-30"/>
       <use xlink:href="#DejaVuSans-2e" x="63.623047"/>
       <use xlink:href="#DejaVuSans-32" x="95.410156"/>
      </g>
     </g>
    </g>
    <g id="ytick_4">
     <g id="line2d_12">
      <g>
       <use xlink:href="#mbea78a00ec" x="108" y="227.186794" style="stroke: #000000; stroke-width: 0.8"/>
      </g>
     </g>
     <g id="text_13">
      <!-- 0.3 -->
      <g transform="translate(85.096875 230.986013) scale(0.1 -0.1)">
       <defs>
        <path id="DejaVuSans-33" d="M 2597 2516 
Q 3050 2419 3304 2112 
Q 3559 1806 3559 1356 
Q 3559 666 3084 287 
Q 2609 -91 1734 -91 
Q 1441 -91 1130 -33 
Q 819 25 488 141 
L 488 750 
Q 750 597 1062 519 
Q 1375 441 1716 441 
Q 2309 441 2620 675 
Q 2931 909 2931 1356 
Q 2931 1769 2642 2001 
Q 2353 2234 1838 2234 
L 1294 2234 
L 1294 2753 
L 1863 2753 
Q 2328 2753 2575 2939 
Q 2822 3125 2822 3475 
Q 2822 3834 2567 4026 
Q 2313 4219 1838 4219 
Q 1578 4219 1281 4162 
Q 984 4106 628 3988 
L 628 4550 
Q 988 4650 1302 4700 
Q 1616 4750 1894 4750 
Q 2613 4750 3031 4423 
Q 3450 4097 3450 3541 
Q 3450 3153 3228 2886 
Q 3006 2619 2597 2516 
z
" transform="scale(0.015625)"/>
       </defs>
       <use xlink:href="#DejaVuSans-30"/>
       <use xlink:href="#DejaVuSans-2e" x="63.623047"/>
       <use xlink:href="#DejaVuSans-33" x="95.410156"/>
      </g>
     </g>
    </g>
    <g id="ytick_5">
     <g id="line2d_13">
      <g>
       <use xlink:href="#mbea78a00ec" x="108" y="196.115725" style="stroke: #000000; stroke-width: 0.8"/>
      </g>
     </g>
     <g id="text_14">
      <!-- 0.4 -->
      <g transform="translate(85.096875 199.914944) scale(0.1 -0.1)">
       <use xlink:href="#DejaVuSans-30"/>
       <use xlink:href="#DejaVuSans-2e" x="63.623047"/>
       <use xlink:href="#DejaVuSans-34" x="95.410156"/>
      </g>
     </g>
    </g>
    <g id="ytick_6">
     <g id="line2d_14">
      <g>
       <use xlink:href="#mbea78a00ec" x="108" y="165.044657" style="stroke: #000000; stroke-width: 0.8"/>
      </g>
     </g>
     <g id="text_15">
      <!-- 0.5 -->
      <g transform="translate(85.096875 168.843876) scale(0.1 -0.1)">
       <defs>
        <path id="DejaVuSans-35" d="M 691 4666 
L 3169 4666 
L 3169 4134 
L 1269 4134 
L 1269 2991 
Q 1406 3038 1543 3061 
Q 1681 3084 1819 3084 
Q 2600 3084 3056 2656 
Q 3513 2228 3513 1497 
Q 3513 744 3044 326 
Q 2575 -91 1722 -91 
Q 1428 -91 1123 -41 
Q 819 9 494 109 
L 494 744 
Q 775 591 1075 516 
Q 1375 441 1709 441 
Q 2250 441 2565 725 
Q 2881 1009 2881 1497 
Q 2881 1984 2565 2268 
Q 2250 2553 1709 2553 
Q 1456 2553 1204 2497 
Q 953 2441 691 2322 
L 691 4666 
z
" transform="scale(0.015625)"/>
       </defs>
       <use xlink:href="#DejaVuSans-30"/>
       <use xlink:href="#DejaVuSans-2e" x="63.623047"/>
       <use xlink:href="#DejaVuSans-35" x="95.410156"/>
      </g>
     </g>
    </g>
    <g id="ytick_7">
     <g id="line2d_15">
      <g>
       <use xlink:href="#mbea78a00ec" x="108" y="133.973588" style="stroke: #000000; stroke-width: 0.8"/>
      </g>
     </g>
     <g id="text_16">
      <!-- 0.6 -->
      <g transform="translate(85.096875 137.772807) scale(0.1 -0.1)">
       <use xlink:href="#DejaVuSans-30"/>
       <use xlink:href="#DejaVuSans-2e" x="63.623047"/>
       <use xlink:href="#DejaVuSans-36" x="95.410156"/>
      </g>
     </g>
    </g>
    <g id="ytick_8">
     <g id="line2d_16">
      <g>
       <use xlink:href="#mbea78a00ec" x="108" y="102.902519" style="stroke: #000000; stroke-width: 0.8"/>
      </g>
     </g>
     <g id="text_17">
      <!-- 0.7 -->
      <g transform="translate(85.096875 106.701738) scale(0.1 -0.1)">
       <defs>
        <path id="DejaVuSans-37" d="M 525 4666 
L 3525 4666 
L 3525 4397 
L 1831 0 
L 1172 0 
L 2766 4134 
L 525 4134 
L 525 4666 
z
" transform="scale(0.015625)"/>
       </defs>
       <use xlink:href="#DejaVuSans-30"/>
       <use xlink:href="#DejaVuSans-2e" x="63.623047"/>
       <use xlink:href="#DejaVuSans-37" x="95.410156"/>
      </g>
     </g>
    </g>
    <g id="ytick_9">
     <g id="line2d_17">
      <g>
       <use xlink:href="#mbea78a00ec" x="108" y="71.831451" style="stroke: #000000; stroke-width: 0.8"/>
      </g>
     </g>
     <g id="text_18">
      <!-- 0.8 -->
      <g transform="translate(85.096875 75.63067) scale(0.1 -0.1)">
       <use xlink:href="#DejaVuSans-30"/>
       <use xlink:href="#DejaVuSans-2e" x="63.623047"/>
       <use xlink:href="#DejaVuSans-38" x="95.410156"/>
      </g>
     </g>
    </g>
    <g id="text_19">
     <!-- Density -->
     <g transform="translate(79.017187 200.808594) rotate(-90) scale(0.1 -0.1)">
      <defs>
       <path id="DejaVuSans-44" d="M 1259 4147 
L 1259 519 
L 2022 519 
Q 2988 519 3436 956 
Q 3884 1394 3884 2338 
Q 3884 3275 3436 3711 
Q 2988 4147 2022 4147 
L 1259 4147 
z
M 628 4666 
L 1925 4666 
Q 3281 4666 3915 4102 
Q 4550 3538 4550 2338 
Q 4550 1131 3912 565 
Q 3275 0 1925 0 
L 628 0 
L 628 4666 
z
" transform="scale(0.015625)"/>
       <path id="DejaVuSans-65" d="M 3597 1894 
L 3597 1613 
L 953 1613 
Q 991 1019 1311 708 
Q 1631 397 2203 397 
Q 2534 397 2845 478 
Q 3156 559 3463 722 
L 3463 178 
Q 3153 47 2828 -22 
Q 2503 -91 2169 -91 
Q 1331 -91 842 396 
Q 353 884 353 1716 
Q 353 2575 817 3079 
Q 1281 3584 2069 3584 
Q 2775 3584 3186 3129 
Q 3597 2675 3597 1894 
z
M 3022 2063 
Q 3016 2534 2758 2815 
Q 2500 3097 2075 3097 
Q 1594 3097 1305 2825 
Q 1016 2553 972 2059 
L 3022 2063 
z
" transform="scale(0.015625)"/>
       <path id="DejaVuSans-6e" d="M 3513 2113 
L 3513 0 
L 2938 0 
L 2938 2094 
Q 2938 2591 2744 2837 
Q 2550 3084 2163 3084 
Q 1697 3084 1428 2787 
Q 1159 2491 1159 1978 
L 1159 0 
L 581 0 
L 581 3500 
L 1159 3500 
L 1159 2956 
Q 1366 3272 1645 3428 
Q 1925 3584 2291 3584 
Q 2894 3584 3203 3211 
Q 3513 2838 3513 2113 
z
" transform="scale(0.015625)"/>
       <path id="DejaVuSans-79" d="M 2059 -325 
Q 1816 -950 1584 -1140 
Q 1353 -1331 966 -1331 
L 506 -1331 
L 506 -850 
L 844 -850 
Q 1081 -850 1212 -737 
Q 1344 -625 1503 -206 
L 1606 56 
L 191 3500 
L 800 3500 
L 1894 763 
L 2988 3500 
L 3597 3500 
L 2059 -325 
z
" transform="scale(0.015625)"/>
      </defs>
      <use xlink:href="#DejaVuSans-44"/>
      <use xlink:href="#DejaVuSans-65" x="77.001953"/>
      <use xlink:href="#DejaVuSans-6e" x="138.525391"/>
      <use xlink:href="#DejaVuSans-73" x="201.904297"/>
      <use xlink:href="#DejaVuSans-69" x="254.003906"/>
      <use xlink:href="#DejaVuSans-74" x="281.787109"/>
      <use xlink:href="#DejaVuSans-79" x="320.996094"/>
     </g>
    </g>
   </g>
   <g id="patch_3">
    <path d="M 108 320.4 
L 108 43.2 
" style="fill: none; stroke: #000000; stroke-width: 0.8; stroke-linejoin: miter; stroke-linecap: square"/>
   </g>
   <g id="patch_4">
    <path d="M 777.6 320.4 
L 777.6 43.2 
" style="fill: none; stroke: #000000; stroke-width: 0.8; stroke-linejoin: miter; stroke-linecap: square"/>
   </g>
   <g id="patch_5">
    <path d="M 108 320.4 
L 777.6 320.4 
" style="fill: none; stroke: #000000; stroke-width: 0.8; stroke-linejoin: miter; stroke-linecap: square"/>
   </g>
   <g id="patch_6">
    <path d="M 108 43.2 
L 777.6 43.2 
" style="fill: none; stroke: #000000; stroke-width: 0.8; stroke-linejoin: miter; stroke-linecap: square"/>
   </g>
   <g id="text_20">
    <!-- iHS Distribution -->
    <g transform="translate(395.9025 37.2) scale(0.12 -0.12)">
     <defs>
      <path id="DejaVuSans-48" d="M 628 4666 
L 1259 4666 
L 1259 2753 
L 3553 2753 
L 3553 4666 
L 4184 4666 
L 4184 0 
L 3553 0 
L 3553 2222 
L 1259 2222 
L 1259 0 
L 628 0 
L 628 4666 
z
" transform="scale(0.015625)"/>
      <path id="DejaVuSans-53" d="M 3425 4513 
L 3425 3897 
Q 3066 4069 2747 4153 
Q 2428 4238 2131 4238 
Q 1616 4238 1336 4038 
Q 1056 3838 1056 3469 
Q 1056 3159 1242 3001 
Q 1428 2844 1947 2747 
L 2328 2669 
Q 3034 2534 3370 2195 
Q 3706 1856 3706 1288 
Q 3706 609 3251 259 
Q 2797 -91 1919 -91 
Q 1588 -91 1214 -16 
Q 841 59 441 206 
L 441 856 
Q 825 641 1194 531 
Q 1563 422 1919 422 
Q 2459 422 2753 634 
Q 3047 847 3047 1241 
Q 3047 1584 2836 1778 
Q 2625 1972 2144 2069 
L 1759 2144 
Q 1053 2284 737 2584 
Q 422 2884 422 3419 
Q 422 4038 858 4394 
Q 1294 4750 2059 4750 
Q 2388 4750 2728 4690 
Q 3069 4631 3425 4513 
z
" transform="scale(0.015625)"/>
      <path id="DejaVuSans-20" transform="scale(0.015625)"/>
      <path id="DejaVuSans-62" d="M 3116 1747 
Q 3116 2381 2855 2742 
Q 2594 3103 2138 3103 
Q 1681 3103 1420 2742 
Q 1159 2381 1159 1747 
Q 1159 1113 1420 752 
Q 1681 391 2138 391 
Q 2594 391 2855 752 
Q 3116 1113 3116 1747 
z
M 1159 2969 
Q 1341 3281 1617 3432 
Q 1894 3584 2278 3584 
Q 2916 3584 3314 3078 
Q 3713 2572 3713 1747 
Q 3713 922 3314 415 
Q 2916 -91 2278 -91 
Q 1894 -91 1617 61 
Q 1341 213 1159 525 
L 1159 0 
L 581 0 
L 581 4863 
L 1159 4863 
L 1159 2969 
z
" transform="scale(0.015625)"/>
      <path id="DejaVuSans-75" d="M 544 1381 
L 544 3500 
L 1119 3500 
L 1119 1403 
Q 1119 906 1312 657 
Q 1506 409 1894 409 
Q 2359 409 2629 706 
Q 2900 1003 2900 1516 
L 2900 3500 
L 3475 3500 
L 3475 0 
L 2900 0 
L 2900 538 
Q 2691 219 2414 64 
Q 2138 -91 1772 -91 
Q 1169 -91 856 284 
Q 544 659 544 1381 
z
M 1991 3584 
L 1991 3584 
z
" transform="scale(0.015625)"/>
      <path id="DejaVuSans-6f" d="M 1959 3097 
Q 1497 3097 1228 2736 
Q 959 2375 959 1747 
Q 959 1119 1226 758 
Q 1494 397 1959 397 
Q 2419 397 2687 759 
Q 2956 1122 2956 1747 
Q 2956 2369 2687 2733 
Q 2419 3097 1959 3097 
z
M 1959 3584 
Q 2709 3584 3137 3096 
Q 3566 2609 3566 1747 
Q 3566 888 3137 398 
Q 2709 -91 1959 -91 
Q 1206 -91 779 398 
Q 353 888 353 1747 
Q 353 2609 779 3096 
Q 1206 3584 1959 3584 
z
" transform="scale(0.015625)"/>
     </defs>
     <use xlink:href="#DejaVuSans-69"/>
     <use xlink:href="#DejaVuSans-48" x="27.783203"/>
     <use xlink:href="#DejaVuSans-53" x="102.978516"/>
     <use xlink:href="#DejaVuSans-20" x="166.455078"/>
     <use xlink:href="#DejaVuSans-44" x="198.242188"/>
     <use xlink:href="#DejaVuSans-69" x="275.244141"/>
     <use xlink:href="#DejaVuSans-73" x="303.027344"/>
     <use xlink:href="#DejaVuSans-74" x="355.126953"/>
     <use xlink:href="#DejaVuSans-72" x="394.335938"/>
     <use xlink:href="#DejaVuSans-69" x="435.449219"/>
     <use xlink:href="#DejaVuSans-62" x="463.232422"/>
     <use xlink:href="#DejaVuSans-75" x="526.708984"/>
     <use xlink:href="#DejaVuSans-74" x="590.087891"/>
     <use xlink:href="#DejaVuSans-69" x="629.296875"/>
     <use xlink:href="#DejaVuSans-6f" x="657.080078"/>
     <use xlink:href="#DejaVuSans-6e" x="718.261719"/>
    </g>
   </g>
   <g id="legend_1">
    <g id="patch_7">
     <path d="M 692.420313 110.46875 
L 770.6 110.46875 
Q 772.6 110.46875 772.6 108.46875 
L 772.6 50.2 
Q 772.6 48.2 770.6 48.2 
L 692.420313 48.2 
Q 690.420313 48.2 690.420313 50.2 
L 690.420313 108.46875 
Q 690.420313 110.46875 692.420313 110.46875 
z
" style="fill: #ffffff; opacity: 0.8; stroke: #cccccc; stroke-linejoin: miter"/>
    </g>
    <g id="patch_8">
     <path d="M 694.420313 59.798437 
L 714.420313 59.798437 
L 714.420313 52.798437 
L 694.420313 52.798437 
z
" style="fill: #ff00ff; fill-opacity: 0.25; stroke: #ff00ff; stroke-linejoin: miter"/>
    </g>
    <g id="text_21">
     <!-- neutral -->
     <g transform="translate(722.420313 59.798437) scale(0.1 -0.1)">
      <defs>
       <path id="DejaVuSans-6c" d="M 603 4863 
L 1178 4863 
L 1178 0 
L 603 0 
L 603 4863 
z
" transform="scale(0.015625)"/>
      </defs>
      <use xlink:href="#DejaVuSans-6e"/>
      <use xlink:href="#DejaVuSans-65" x="63.378906"/>
      <use xlink:href="#DejaVuSans-75" x="124.902344"/>
      <use xlink:href="#DejaVuSans-74" x="188.28125"/>
      <use xlink:href="#DejaVuSans-72" x="227.490234"/>
      <use xlink:href="#DejaVuSans-61" x="268.603516"/>
      <use xlink:href="#DejaVuSans-6c" x="329.882812"/>
     </g>
    </g>
    <g id="patch_9">
     <path d="M 694.420313 74.476562 
L 714.420313 74.476562 
L 714.420313 67.476562 
L 694.420313 67.476562 
z
" style="fill: #1e90ff; fill-opacity: 0.25; stroke: #1e90ff; stroke-linejoin: miter"/>
    </g>
    <g id="text_22">
     <!-- link_left -->
     <g transform="translate(722.420313 74.476562) scale(0.1 -0.1)">
      <defs>
       <path id="DejaVuSans-6b" d="M 581 4863 
L 1159 4863 
L 1159 1991 
L 2875 3500 
L 3609 3500 
L 1753 1863 
L 3688 0 
L 2938 0 
L 1159 1709 
L 1159 0 
L 581 0 
L 581 4863 
z
" transform="scale(0.015625)"/>
      </defs>
      <use xlink:href="#DejaVuSans-6c"/>
      <use xlink:href="#DejaVuSans-69" x="27.783203"/>
      <use xlink:href="#DejaVuSans-6e" x="55.566406"/>
      <use xlink:href="#DejaVuSans-6b" x="118.945312"/>
      <use xlink:href="#DejaVuSans-5f" x="176.855469"/>
      <use xlink:href="#DejaVuSans-6c" x="226.855469"/>
      <use xlink:href="#DejaVuSans-65" x="254.638672"/>
      <use xlink:href="#DejaVuSans-66" x="316.162109"/>
      <use xlink:href="#DejaVuSans-74" x="349.617188"/>
     </g>
    </g>
    <g id="patch_10">
     <path d="M 694.420313 89.432812 
L 714.420313 89.432812 
L 714.420313 82.432812 
L 694.420313 82.432812 
z
" style="fill: #9400d3; fill-opacity: 0.25; stroke: #9400d3; stroke-linejoin: miter"/>
    </g>
    <g id="text_23">
     <!-- link_right -->
     <g transform="translate(722.420313 89.432812) scale(0.1 -0.1)">
      <defs>
       <path id="DejaVuSans-67" d="M 2906 1791 
Q 2906 2416 2648 2759 
Q 2391 3103 1925 3103 
Q 1463 3103 1205 2759 
Q 947 2416 947 1791 
Q 947 1169 1205 825 
Q 1463 481 1925 481 
Q 2391 481 2648 825 
Q 2906 1169 2906 1791 
z
M 3481 434 
Q 3481 -459 3084 -895 
Q 2688 -1331 1869 -1331 
Q 1566 -1331 1297 -1286 
Q 1028 -1241 775 -1147 
L 775 -588 
Q 1028 -725 1275 -790 
Q 1522 -856 1778 -856 
Q 2344 -856 2625 -561 
Q 2906 -266 2906 331 
L 2906 616 
Q 2728 306 2450 153 
Q 2172 0 1784 0 
Q 1141 0 747 490 
Q 353 981 353 1791 
Q 353 2603 747 3093 
Q 1141 3584 1784 3584 
Q 2172 3584 2450 3431 
Q 2728 3278 2906 2969 
L 2906 3500 
L 3481 3500 
L 3481 434 
z
" transform="scale(0.015625)"/>
      </defs>
      <use xlink:href="#DejaVuSans-6c"/>
      <use xlink:href="#DejaVuSans-69" x="27.783203"/>
      <use xlink:href="#DejaVuSans-6e" x="55.566406"/>
      <use xlink:href="#DejaVuSans-6b" x="118.945312"/>
      <use xlink:href="#DejaVuSans-5f" x="176.855469"/>
      <use xlink:href="#DejaVuSans-72" x="226.855469"/>
      <use xlink:href="#DejaVuSans-69" x="267.96875"/>
      <use xlink:href="#DejaVuSans-67" x="295.751953"/>
      <use xlink:href="#DejaVuSans-68" x="359.228516"/>
      <use xlink:href="#DejaVuSans-74" x="422.607422"/>
     </g>
    </g>
    <g id="patch_11">
     <path d="M 694.420313 104.389062 
L 714.420313 104.389062 
L 714.420313 97.389062 
L 694.420313 97.389062 
z
" style="fill: #0000ff; fill-opacity: 0.25; stroke: #0000ff; stroke-linejoin: miter"/>
    </g>
    <g id="text_24">
     <!-- sweep -->
     <g transform="translate(722.420313 104.389062) scale(0.1 -0.1)">
      <defs>
       <path id="DejaVuSans-77" d="M 269 3500 
L 844 3500 
L 1563 769 
L 2278 3500 
L 2956 3500 
L 3675 769 
L 4391 3500 
L 4966 3500 
L 4050 0 
L 3372 0 
L 2619 2869 
L 1863 0 
L 1184 0 
L 269 3500 
z
" transform="scale(0.015625)"/>
       <path id="DejaVuSans-70" d="M 1159 525 
L 1159 -1331 
L 581 -1331 
L 581 3500 
L 1159 3500 
L 1159 2969 
Q 1341 3281 1617 3432 
Q 1894 3584 2278 3584 
Q 2916 3584 3314 3078 
Q 3713 2572 3713 1747 
Q 3713 922 3314 415 
Q 2916 -91 2278 -91 
Q 1894 -91 1617 61 
Q 1341 213 1159 525 
z
M 3116 1747 
Q 3116 2381 2855 2742 
Q 2594 3103 2138 3103 
Q 1681 3103 1420 2742 
Q 1159 2381 1159 1747 
Q 1159 1113 1420 752 
Q 1681 391 2138 391 
Q 2594 391 2855 752 
Q 3116 1113 3116 1747 
z
" transform="scale(0.015625)"/>
      </defs>
      <use xlink:href="#DejaVuSans-73"/>
      <use xlink:href="#DejaVuSans-77" x="52.099609"/>
      <use xlink:href="#DejaVuSans-65" x="133.886719"/>
      <use xlink:href="#DejaVuSans-65" x="195.410156"/>
      <use xlink:href="#DejaVuSans-70" x="256.933594"/>
     </g>
    </g>
   </g>
  </g>
 </g>
 <defs>
  <clipPath id="pc773ba42dd">
   <rect x="108" y="43.2" width="669.6" height="277.2"/>
  </clipPath>
 </defs>
</svg>
