<?xml version="1.0" encoding="utf-8" standalone="no"?>
<!DOCTYPE svg PUBLIC "-//W3C//DTD SVG 1.1//EN"
  "http://www.w3.org/Graphics/SVG/1.1/DTD/svg11.dtd">
<svg xmlns:xlink="http://www.w3.org/1999/xlink" width="553.18125pt" height="447.954375pt" viewBox="0 0 553.18125 447.954375" xmlns="http://www.w3.org/2000/svg" version="1.1">
 <metadata>
  <rdf:RDF xmlns:dc="http://purl.org/dc/elements/1.1/" xmlns:cc="http://creativecommons.org/ns#" xmlns:rdf="http://www.w3.org/1999/02/22-rdf-syntax-ns#">
   <cc:Work>
    <dc:type rdf:resource="http://purl.org/dc/dcmitype/StillImage"/>
    <dc:date>2024-05-27T14:01:43.030450</dc:date>
    <dc:format>image/svg+xml</dc:format>
    <dc:creator>
     <cc:Agent>
      <dc:title>Matplotlib v3.8.0, https://matplotlib.org/</dc:title>
     </cc:Agent>
    </dc:creator>
   </cc:Work>
  </rdf:RDF>
 </metadata>
 <defs>
  <style type="text/css">*{stroke-linejoin: round; stroke-linecap: butt}</style>
 </defs>
 <g id="figure_1">
  <g id="patch_1">
   <path d="M 0 447.954375 
L 553.18125 447.954375 
L 553.18125 0 
L 0 0 
z
" style="fill: #ffffff"/>
  </g>
  <g id="axes_1">
   <g id="patch_2">
    <path d="M 43.78125 410.398125 
L 545.98125 410.398125 
L 545.98125 22.318125 
L 43.78125 22.318125 
z
" style="fill: #ffffff"/>
   </g>
   <g id="matplotlib.axis_1">
    <g id="xtick_1">
     <g id="line2d_1">
      <defs>
       <path id="m5b878264b5" d="M 0 0 
L 0 3.5 
" style="stroke: #000000; stroke-width: 0.8"/>
      </defs>
      <g>
       <use xlink:href="#m5b878264b5" x="66.608523" y="410.398125" style="stroke: #000000; stroke-width: 0.8"/>
      </g>
     </g>
     <g id="text_1">
      <!-- 0.0 -->
      <g transform="translate(58.65696 424.996562) scale(0.1 -0.1)">
       <defs>
        <path id="DejaVuSans-30" d="M 2034 4250 
Q 1547 4250 1301 3770 
Q 1056 3291 1056 2328 
Q 1056 1369 1301 889 
Q 1547 409 2034 409 
Q 2525 409 2770 889 
Q 3016 1369 3016 2328 
Q 3016 3291 2770 3770 
Q 2525 4250 2034 4250 
z
M 2034 4750 
Q 2819 4750 3233 4129 
Q 3647 3509 3647 2328 
Q 3647 1150 3233 529 
Q 2819 -91 2034 -91 
Q 1250 -91 836 529 
Q 422 1150 422 2328 
Q 422 3509 836 4129 
Q 1250 4750 2034 4750 
z
" transform="scale(0.015625)"/>
        <path id="DejaVuSans-2e" d="M 684 794 
L 1344 794 
L 1344 0 
L 684 0 
L 684 794 
z
" transform="scale(0.015625)"/>
       </defs>
       <use xlink:href="#DejaVuSans-30"/>
       <use xlink:href="#DejaVuSans-2e" x="63.623047"/>
       <use xlink:href="#DejaVuSans-30" x="95.410156"/>
      </g>
     </g>
    </g>
    <g id="xtick_2">
     <g id="line2d_2">
      <g>
       <use xlink:href="#m5b878264b5" x="157.917614" y="410.398125" style="stroke: #000000; stroke-width: 0.8"/>
      </g>
     </g>
     <g id="text_2">
      <!-- 0.2 -->
      <g transform="translate(149.966051 424.996562) scale(0.1 -0.1)">
       <defs>
        <path id="DejaVuSans-32" d="M 1228 531 
L 3431 531 
L 3431 0 
L 469 0 
L 469 531 
Q 828 903 1448 1529 
Q 2069 2156 2228 2338 
Q 2531 2678 2651 2914 
Q 2772 3150 2772 3378 
Q 2772 3750 2511 3984 
Q 2250 4219 1831 4219 
Q 1534 4219 1204 4116 
Q 875 4013 500 3803 
L 500 4441 
Q 881 4594 1212 4672 
Q 1544 4750 1819 4750 
Q 2544 4750 2975 4387 
Q 3406 4025 3406 3419 
Q 3406 3131 3298 2873 
Q 3191 2616 2906 2266 
Q 2828 2175 2409 1742 
Q 1991 1309 1228 531 
z
" transform="scale(0.015625)"/>
       </defs>
       <use xlink:href="#DejaVuSans-30"/>
       <use xlink:href="#DejaVuSans-2e" x="63.623047"/>
       <use xlink:href="#DejaVuSans-32" x="95.410156"/>
      </g>
     </g>
    </g>
    <g id="xtick_3">
     <g id="line2d_3">
      <g>
       <use xlink:href="#m5b878264b5" x="249.226705" y="410.398125" style="stroke: #000000; stroke-width: 0.8"/>
      </g>
     </g>
     <g id="text_3">
      <!-- 0.4 -->
      <g transform="translate(241.275142 424.996562) scale(0.1 -0.1)">
       <defs>
        <path id="DejaVuSans-34" d="M 2419 4116 
L 825 1625 
L 2419 1625 
L 2419 4116 
z
M 2253 4666 
L 3047 4666 
L 3047 1625 
L 3713 1625 
L 3713 1100 
L 3047 1100 
L 3047 0 
L 2419 0 
L 2419 1100 
L 313 1100 
L 313 1709 
L 2253 4666 
z
" transform="scale(0.015625)"/>
       </defs>
       <use xlink:href="#DejaVuSans-30"/>
       <use xlink:href="#DejaVuSans-2e" x="63.623047"/>
       <use xlink:href="#DejaVuSans-34" x="95.410156"/>
      </g>
     </g>
    </g>
    <g id="xtick_4">
     <g id="line2d_4">
      <g>
       <use xlink:href="#m5b878264b5" x="340.535795" y="410.398125" style="stroke: #000000; stroke-width: 0.8"/>
      </g>
     </g>
     <g id="text_4">
      <!-- 0.6 -->
      <g transform="translate(332.584233 424.996562) scale(0.1 -0.1)">
       <defs>
        <path id="DejaVuSans-36" d="M 2113 2584 
Q 1688 2584 1439 2293 
Q 1191 2003 1191 1497 
Q 1191 994 1439 701 
Q 1688 409 2113 409 
Q 2538 409 2786 701 
Q 3034 994 3034 1497 
Q 3034 2003 2786 2293 
Q 2538 2584 2113 2584 
z
M 3366 4563 
L 3366 3988 
Q 3128 4100 2886 4159 
Q 2644 4219 2406 4219 
Q 1781 4219 1451 3797 
Q 1122 3375 1075 2522 
Q 1259 2794 1537 2939 
Q 1816 3084 2150 3084 
Q 2853 3084 3261 2657 
Q 3669 2231 3669 1497 
Q 3669 778 3244 343 
Q 2819 -91 2113 -91 
Q 1303 -91 875 529 
Q 447 1150 447 2328 
Q 447 3434 972 4092 
Q 1497 4750 2381 4750 
Q 2619 4750 2861 4703 
Q 3103 4656 3366 4563 
z
" transform="scale(0.015625)"/>
       </defs>
       <use xlink:href="#DejaVuSans-30"/>
       <use xlink:href="#DejaVuSans-2e" x="63.623047"/>
       <use xlink:href="#DejaVuSans-36" x="95.410156"/>
      </g>
     </g>
    </g>
    <g id="xtick_5">
     <g id="line2d_5">
      <g>
       <use xlink:href="#m5b878264b5" x="431.844886" y="410.398125" style="stroke: #000000; stroke-width: 0.8"/>
      </g>
     </g>
     <g id="text_5">
      <!-- 0.8 -->
      <g transform="translate(423.893324 424.996562) scale(0.1 -0.1)">
       <defs>
        <path id="DejaVuSans-38" d="M 2034 2216 
Q 1584 2216 1326 1975 
Q 1069 1734 1069 1313 
Q 1069 891 1326 650 
Q 1584 409 2034 409 
Q 2484 409 2743 651 
Q 3003 894 3003 1313 
Q 3003 1734 2745 1975 
Q 2488 2216 2034 2216 
z
M 1403 2484 
Q 997 2584 770 2862 
Q 544 3141 544 3541 
Q 544 4100 942 4425 
Q 1341 4750 2034 4750 
Q 2731 4750 3128 4425 
Q 3525 4100 3525 3541 
Q 3525 3141 3298 2862 
Q 3072 2584 2669 2484 
Q 3125 2378 3379 2068 
Q 3634 1759 3634 1313 
Q 3634 634 3220 271 
Q 2806 -91 2034 -91 
Q 1263 -91 848 271 
Q 434 634 434 1313 
Q 434 1759 690 2068 
Q 947 2378 1403 2484 
z
M 1172 3481 
Q 1172 3119 1398 2916 
Q 1625 2713 2034 2713 
Q 2441 2713 2670 2916 
Q 2900 3119 2900 3481 
Q 2900 3844 2670 4047 
Q 2441 4250 2034 4250 
Q 1625 4250 1398 4047 
Q 1172 3844 1172 3481 
z
" transform="scale(0.015625)"/>
       </defs>
       <use xlink:href="#DejaVuSans-30"/>
       <use xlink:href="#DejaVuSans-2e" x="63.623047"/>
       <use xlink:href="#DejaVuSans-38" x="95.410156"/>
      </g>
     </g>
    </g>
    <g id="xtick_6">
     <g id="line2d_6">
      <g>
       <use xlink:href="#m5b878264b5" x="523.153977" y="410.398125" style="stroke: #000000; stroke-width: 0.8"/>
      </g>
     </g>
     <g id="text_6">
      <!-- 1.0 -->
      <g transform="translate(515.202415 424.996562) scale(0.1 -0.1)">
       <defs>
        <path id="DejaVuSans-31" d="M 794 531 
L 1825 531 
L 1825 4091 
L 703 3866 
L 703 4441 
L 1819 4666 
L 2450 4666 
L 2450 531 
L 3481 531 
L 3481 0 
L 794 0 
L 794 531 
z
" transform="scale(0.015625)"/>
       </defs>
       <use xlink:href="#DejaVuSans-31"/>
       <use xlink:href="#DejaVuSans-2e" x="63.623047"/>
       <use xlink:href="#DejaVuSans-30" x="95.410156"/>
      </g>
     </g>
    </g>
    <g id="text_7">
     <!-- False Positive Rate -->
     <g transform="translate(248.414844 438.674687) scale(0.1 -0.1)">
      <defs>
       <path id="DejaVuSans-46" d="M 628 4666 
L 3309 4666 
L 3309 4134 
L 1259 4134 
L 1259 2759 
L 3109 2759 
L 3109 2228 
L 1259 2228 
L 1259 0 
L 628 0 
L 628 4666 
z
" transform="scale(0.015625)"/>
       <path id="DejaVuSans-61" d="M 2194 1759 
Q 1497 1759 1228 1600 
Q 959 1441 959 1056 
Q 959 750 1161 570 
Q 1363 391 1709 391 
Q 2188 391 2477 730 
Q 2766 1069 2766 1631 
L 2766 1759 
L 2194 1759 
z
M 3341 1997 
L 3341 0 
L 2766 0 
L 2766 531 
Q 2569 213 2275 61 
Q 1981 -91 1556 -91 
Q 1019 -91 701 211 
Q 384 513 384 1019 
Q 384 1609 779 1909 
Q 1175 2209 1959 2209 
L 2766 2209 
L 2766 2266 
Q 2766 2663 2505 2880 
Q 2244 3097 1772 3097 
Q 1472 3097 1187 3025 
Q 903 2953 641 2809 
L 641 3341 
Q 956 3463 1253 3523 
Q 1550 3584 1831 3584 
Q 2591 3584 2966 3190 
Q 3341 2797 3341 1997 
z
" transform="scale(0.015625)"/>
       <path id="DejaVuSans-6c" d="M 603 4863 
L 1178 4863 
L 1178 0 
L 603 0 
L 603 4863 
z
" transform="scale(0.015625)"/>
       <path id="DejaVuSans-73" d="M 2834 3397 
L 2834 2853 
Q 2591 2978 2328 3040 
Q 2066 3103 1784 3103 
Q 1356 3103 1142 2972 
Q 928 2841 928 2578 
Q 928 2378 1081 2264 
Q 1234 2150 1697 2047 
L 1894 2003 
Q 2506 1872 2764 1633 
Q 3022 1394 3022 966 
Q 3022 478 2636 193 
Q 2250 -91 1575 -91 
Q 1294 -91 989 -36 
Q 684 19 347 128 
L 347 722 
Q 666 556 975 473 
Q 1284 391 1588 391 
Q 1994 391 2212 530 
Q 2431 669 2431 922 
Q 2431 1156 2273 1281 
Q 2116 1406 1581 1522 
L 1381 1569 
Q 847 1681 609 1914 
Q 372 2147 372 2553 
Q 372 3047 722 3315 
Q 1072 3584 1716 3584 
Q 2034 3584 2315 3537 
Q 2597 3491 2834 3397 
z
" transform="scale(0.015625)"/>
       <path id="DejaVuSans-65" d="M 3597 1894 
L 3597 1613 
L 953 1613 
Q 991 1019 1311 708 
Q 1631 397 2203 397 
Q 2534 397 2845 478 
Q 3156 559 3463 722 
L 3463 178 
Q 3153 47 2828 -22 
Q 2503 -91 2169 -91 
Q 1331 -91 842 396 
Q 353 884 353 1716 
Q 353 2575 817 3079 
Q 1281 3584 2069 3584 
Q 2775 3584 3186 3129 
Q 3597 2675 3597 1894 
z
M 3022 2063 
Q 3016 2534 2758 2815 
Q 2500 3097 2075 3097 
Q 1594 3097 1305 2825 
Q 1016 2553 972 2059 
L 3022 2063 
z
" transform="scale(0.015625)"/>
       <path id="DejaVuSans-20" transform="scale(0.015625)"/>
       <path id="DejaVuSans-50" d="M 1259 4147 
L 1259 2394 
L 2053 2394 
Q 2494 2394 2734 2622 
Q 2975 2850 2975 3272 
Q 2975 3691 2734 3919 
Q 2494 4147 2053 4147 
L 1259 4147 
z
M 628 4666 
L 2053 4666 
Q 2838 4666 3239 4311 
Q 3641 3956 3641 3272 
Q 3641 2581 3239 2228 
Q 2838 1875 2053 1875 
L 1259 1875 
L 1259 0 
L 628 0 
L 628 4666 
z
" transform="scale(0.015625)"/>
       <path id="DejaVuSans-6f" d="M 1959 3097 
Q 1497 3097 1228 2736 
Q 959 2375 959 1747 
Q 959 1119 1226 758 
Q 1494 397 1959 397 
Q 2419 397 2687 759 
Q 2956 1122 2956 1747 
Q 2956 2369 2687 2733 
Q 2419 3097 1959 3097 
z
M 1959 3584 
Q 2709 3584 3137 3096 
Q 3566 2609 3566 1747 
Q 3566 888 3137 398 
Q 2709 -91 1959 -91 
Q 1206 -91 779 398 
Q 353 888 353 1747 
Q 353 2609 779 3096 
Q 1206 3584 1959 3584 
z
" transform="scale(0.015625)"/>
       <path id="DejaVuSans-69" d="M 603 3500 
L 1178 3500 
L 1178 0 
L 603 0 
L 603 3500 
z
M 603 4863 
L 1178 4863 
L 1178 4134 
L 603 4134 
L 603 4863 
z
" transform="scale(0.015625)"/>
       <path id="DejaVuSans-74" d="M 1172 4494 
L 1172 3500 
L 2356 3500 
L 2356 3053 
L 1172 3053 
L 1172 1153 
Q 1172 725 1289 603 
Q 1406 481 1766 481 
L 2356 481 
L 2356 0 
L 1766 0 
Q 1100 0 847 248 
Q 594 497 594 1153 
L 594 3053 
L 172 3053 
L 172 3500 
L 594 3500 
L 594 4494 
L 1172 4494 
z
" transform="scale(0.015625)"/>
       <path id="DejaVuSans-76" d="M 191 3500 
L 800 3500 
L 1894 563 
L 2988 3500 
L 3597 3500 
L 2284 0 
L 1503 0 
L 191 3500 
z
" transform="scale(0.015625)"/>
       <path id="DejaVuSans-52" d="M 2841 2188 
Q 3044 2119 3236 1894 
Q 3428 1669 3622 1275 
L 4263 0 
L 3584 0 
L 2988 1197 
Q 2756 1666 2539 1819 
Q 2322 1972 1947 1972 
L 1259 1972 
L 1259 0 
L 628 0 
L 628 4666 
L 2053 4666 
Q 2853 4666 3247 4331 
Q 3641 3997 3641 3322 
Q 3641 2881 3436 2590 
Q 3231 2300 2841 2188 
z
M 1259 4147 
L 1259 2491 
L 2053 2491 
Q 2509 2491 2742 2702 
Q 2975 2913 2975 3322 
Q 2975 3731 2742 3939 
Q 2509 4147 2053 4147 
L 1259 4147 
z
" transform="scale(0.015625)"/>
      </defs>
      <use xlink:href="#DejaVuSans-46"/>
      <use xlink:href="#DejaVuSans-61" x="48.394531"/>
      <use xlink:href="#DejaVuSans-6c" x="109.673828"/>
      <use xlink:href="#DejaVuSans-73" x="137.457031"/>
      <use xlink:href="#DejaVuSans-65" x="189.556641"/>
      <use xlink:href="#DejaVuSans-20" x="251.080078"/>
      <use xlink:href="#DejaVuSans-50" x="282.867188"/>
      <use xlink:href="#DejaVuSans-6f" x="339.544922"/>
      <use xlink:href="#DejaVuSans-73" x="400.726562"/>
      <use xlink:href="#DejaVuSans-69" x="452.826172"/>
      <use xlink:href="#DejaVuSans-74" x="480.609375"/>
      <use xlink:href="#DejaVuSans-69" x="519.818359"/>
      <use xlink:href="#DejaVuSans-76" x="547.601562"/>
      <use xlink:href="#DejaVuSans-65" x="606.78125"/>
      <use xlink:href="#DejaVuSans-20" x="668.304688"/>
      <use xlink:href="#DejaVuSans-52" x="700.091797"/>
      <use xlink:href="#DejaVuSans-61" x="767.324219"/>
      <use xlink:href="#DejaVuSans-74" x="828.603516"/>
      <use xlink:href="#DejaVuSans-65" x="867.8125"/>
     </g>
    </g>
   </g>
   <g id="matplotlib.axis_2">
    <g id="ytick_1">
     <g id="line2d_7">
      <defs>
       <path id="ma71333bcc5" d="M 0 0 
L -3.5 0 
" style="stroke: #000000; stroke-width: 0.8"/>
      </defs>
      <g>
       <use xlink:href="#ma71333bcc5" x="43.78125" y="392.758125" style="stroke: #000000; stroke-width: 0.8"/>
      </g>
     </g>
     <g id="text_8">
      <!-- 0.0 -->
      <g transform="translate(20.878125 396.557344) scale(0.1 -0.1)">
       <use xlink:href="#DejaVuSans-30"/>
       <use xlink:href="#DejaVuSans-2e" x="63.623047"/>
       <use xlink:href="#DejaVuSans-30" x="95.410156"/>
      </g>
     </g>
    </g>
    <g id="ytick_2">
     <g id="line2d_8">
      <g>
       <use xlink:href="#ma71333bcc5" x="43.78125" y="322.198125" style="stroke: #000000; stroke-width: 0.8"/>
      </g>
     </g>
     <g id="text_9">
      <!-- 0.2 -->
      <g transform="translate(20.878125 325.997344) scale(0.1 -0.1)">
       <use xlink:href="#DejaVuSans-30"/>
       <use xlink:href="#DejaVuSans-2e" x="63.623047"/>
       <use xlink:href="#DejaVuSans-32" x="95.410156"/>
      </g>
     </g>
    </g>
    <g id="ytick_3">
     <g id="line2d_9">
      <g>
       <use xlink:href="#ma71333bcc5" x="43.78125" y="251.638125" style="stroke: #000000; stroke-width: 0.8"/>
      </g>
     </g>
     <g id="text_10">
      <!-- 0.4 -->
      <g transform="translate(20.878125 255.437344) scale(0.1 -0.1)">
       <use xlink:href="#DejaVuSans-30"/>
       <use xlink:href="#DejaVuSans-2e" x="63.623047"/>
       <use xlink:href="#DejaVuSans-34" x="95.410156"/>
      </g>
     </g>
    </g>
    <g id="ytick_4">
     <g id="line2d_10">
      <g>
       <use xlink:href="#ma71333bcc5" x="43.78125" y="181.078125" style="stroke: #000000; stroke-width: 0.8"/>
      </g>
     </g>
     <g id="text_11">
      <!-- 0.6 -->
      <g transform="translate(20.878125 184.877344) scale(0.1 -0.1)">
       <use xlink:href="#DejaVuSans-30"/>
       <use xlink:href="#DejaVuSans-2e" x="63.623047"/>
       <use xlink:href="#DejaVuSans-36" x="95.410156"/>
      </g>
     </g>
    </g>
    <g id="ytick_5">
     <g id="line2d_11">
      <g>
       <use xlink:href="#ma71333bcc5" x="43.78125" y="110.518125" style="stroke: #000000; stroke-width: 0.8"/>
      </g>
     </g>
     <g id="text_12">
      <!-- 0.8 -->
      <g transform="translate(20.878125 114.317344) scale(0.1 -0.1)">
       <use xlink:href="#DejaVuSans-30"/>
       <use xlink:href="#DejaVuSans-2e" x="63.623047"/>
       <use xlink:href="#DejaVuSans-38" x="95.410156"/>
      </g>
     </g>
    </g>
    <g id="ytick_6">
     <g id="line2d_12">
      <g>
       <use xlink:href="#ma71333bcc5" x="43.78125" y="39.958125" style="stroke: #000000; stroke-width: 0.8"/>
      </g>
     </g>
     <g id="text_13">
      <!-- 1.0 -->
      <g transform="translate(20.878125 43.757344) scale(0.1 -0.1)">
       <use xlink:href="#DejaVuSans-31"/>
       <use xlink:href="#DejaVuSans-2e" x="63.623047"/>
       <use xlink:href="#DejaVuSans-30" x="95.410156"/>
      </g>
     </g>
    </g>
    <g id="text_14">
     <!-- True Positive Rate -->
     <g transform="translate(14.798438 260.887812) rotate(-90) scale(0.1 -0.1)">
      <defs>
       <path id="DejaVuSans-54" d="M -19 4666 
L 3928 4666 
L 3928 4134 
L 2272 4134 
L 2272 0 
L 1638 0 
L 1638 4134 
L -19 4134 
L -19 4666 
z
" transform="scale(0.015625)"/>
       <path id="DejaVuSans-72" d="M 2631 2963 
Q 2534 3019 2420 3045 
Q 2306 3072 2169 3072 
Q 1681 3072 1420 2755 
Q 1159 2438 1159 1844 
L 1159 0 
L 581 0 
L 581 3500 
L 1159 3500 
L 1159 2956 
Q 1341 3275 1631 3429 
Q 1922 3584 2338 3584 
Q 2397 3584 2469 3576 
Q 2541 3569 2628 3553 
L 2631 2963 
z
" transform="scale(0.015625)"/>
       <path id="DejaVuSans-75" d="M 544 1381 
L 544 3500 
L 1119 3500 
L 1119 1403 
Q 1119 906 1312 657 
Q 1506 409 1894 409 
Q 2359 409 2629 706 
Q 2900 1003 2900 1516 
L 2900 3500 
L 3475 3500 
L 3475 0 
L 2900 0 
L 2900 538 
Q 2691 219 2414 64 
Q 2138 -91 1772 -91 
Q 1169 -91 856 284 
Q 544 659 544 1381 
z
M 1991 3584 
L 1991 3584 
z
" transform="scale(0.015625)"/>
      </defs>
      <use xlink:href="#DejaVuSans-54"/>
      <use xlink:href="#DejaVuSans-72" x="46.333984"/>
      <use xlink:href="#DejaVuSans-75" x="87.447266"/>
      <use xlink:href="#DejaVuSans-65" x="150.826172"/>
      <use xlink:href="#DejaVuSans-20" x="212.349609"/>
      <use xlink:href="#DejaVuSans-50" x="244.136719"/>
      <use xlink:href="#DejaVuSans-6f" x="300.814453"/>
      <use xlink:href="#DejaVuSans-73" x="361.996094"/>
      <use xlink:href="#DejaVuSans-69" x="414.095703"/>
      <use xlink:href="#DejaVuSans-74" x="441.878906"/>
      <use xlink:href="#DejaVuSans-69" x="481.087891"/>
      <use xlink:href="#DejaVuSans-76" x="508.871094"/>
      <use xlink:href="#DejaVuSans-65" x="568.050781"/>
      <use xlink:href="#DejaVuSans-20" x="629.574219"/>
      <use xlink:href="#DejaVuSans-52" x="661.361328"/>
      <use xlink:href="#DejaVuSans-61" x="728.59375"/>
      <use xlink:href="#DejaVuSans-74" x="789.873047"/>
      <use xlink:href="#DejaVuSans-65" x="829.082031"/>
     </g>
    </g>
   </g>
   <g id="line2d_13">
    <path d="M 66.608523 392.758125 
L 66.685635 373.688338 
L 66.724192 373.688338 
L 66.801304 363.736423 
L 66.839861 363.736423 
L 66.916973 357.86238 
L 66.95553 357.86238 
L 67.032642 349.358125 
L 67.071199 349.358125 
L 67.148311 345.298125 
L 67.186868 345.298125 
L 67.26398 338.292168 
L 67.302537 338.292168 
L 67.379649 334.813019 
L 67.418206 334.813019 
L 67.495318 328.79004 
L 67.533875 328.79004 
L 67.610987 312.761529 
L 67.649544 312.761529 
L 67.726656 297.945359 
L 67.765213 297.945359 
L 67.842325 295.219827 
L 67.880881 295.219827 
L 67.957994 291.910465 
L 67.99655 291.910465 
L 68.073663 285.178551 
L 68.112219 285.178551 
L 68.189332 279.233019 
L 68.227888 279.233019 
L 68.305001 271.434721 
L 68.343557 271.434721 
L 68.42067 268.018125 
L 68.459226 268.018125 
L 68.536339 263.92238 
L 68.574895 263.92238 
L 68.652008 254.828338 
L 68.690564 254.828338 
L 68.767677 248.564082 
L 68.806233 248.564082 
L 68.883346 247.45004 
L 68.921902 247.45004 
L 68.999015 245.918976 
L 69.037571 245.918976 
L 69.114684 242.892593 
L 69.15324 242.892593 
L 69.230353 239.368763 
L 69.307466 239.285359 
L 69.384578 235.192593 
L 69.423135 235.192593 
L 69.500247 233.190891 
L 69.538803 233.190891 
L 69.615916 232.335997 
L 69.654472 232.335997 
L 69.731585 229.81004 
L 69.770141 229.81004 
L 69.847254 227.218551 
L 69.88581 227.218551 
L 69.962923 223.807912 
L 70.001479 223.807912 
L 70.078592 215.601529 
L 70.155705 215.565785 
L 70.232817 213.328763 
L 70.271374 213.328763 
L 70.348486 211.714295 
L 70.387043 211.714295 
L 70.464155 210.498976 
L 70.541268 210.487061 
L 70.618381 202.995572 
L 70.656937 202.995572 
L 70.73405 200.576848 
L 70.811162 200.564934 
L 70.888275 197.901955 
L 70.926831 197.901955 
L 71.003944 191.873019 
L 71.0425 191.873019 
L 71.119613 186.698976 
L 71.158169 186.698976 
L 71.235282 184.578125 
L 71.273838 184.578125 
L 71.350951 183.365785 
L 71.389507 183.365785 
L 71.46662 180.860678 
L 71.505176 180.860678 
L 71.582289 177.444082 
L 71.620845 177.444082 
L 71.697958 173.118976 
L 71.736514 173.118976 
L 71.813627 170.247487 
L 71.852183 170.247487 
L 71.929296 167.221104 
L 71.967852 167.221104 
L 72.044965 165.326636 
L 72.083521 165.326636 
L 72.160634 162.851316 
L 72.19919 162.851316 
L 72.276303 160.554721 
L 72.314859 160.554721 
L 72.391972 159.979827 
L 72.430528 159.979827 
L 72.507641 158.138976 
L 72.546197 158.138976 
L 72.62331 156.864082 
L 72.661866 156.864082 
L 72.738979 155.061955 
L 72.816091 155.017274 
L 72.893204 154.415572 
L 72.93176 154.415572 
L 73.008873 152.029614 
L 73.047429 152.029614 
L 73.124542 151.567912 
L 73.163098 151.567912 
L 73.240211 150.781529 
L 73.278767 150.781529 
L 73.35588 146.605359 
L 73.394436 146.605359 
L 73.471549 144.821104 
L 73.510105 144.821104 
L 73.587218 142.19387 
L 73.625774 142.19387 
L 73.702887 141.228763 
L 73.741443 141.228763 
L 73.818556 140.102806 
L 73.857112 140.102806 
L 73.934225 139.036423 
L 74.011337 138.967912 
L 74.08845 137.144934 
L 74.165563 137.135997 
L 74.242675 135.321955 
L 74.281232 135.321955 
L 74.358344 134.187061 
L 74.396901 134.187061 
L 74.474013 132.620253 
L 74.551126 132.611316 
L 74.628239 130.627487 
L 74.666795 130.627487 
L 74.743907 128.959402 
L 74.782464 128.959402 
L 74.859576 127.916848 
L 74.898133 127.916848 
L 74.975245 126.850465 
L 75.013802 126.850465 
L 75.090914 124.586636 
L 75.168027 124.550891 
L 75.24514 123.874721 
L 75.283696 123.874721 
L 75.360809 122.602806 
L 75.399365 122.602806 
L 75.476478 121.601955 
L 75.515034 121.601955 
L 75.592147 121.220678 
L 75.669259 121.167061 
L 75.746372 120.47004 
L 75.823485 120.452168 
L 75.900597 118.125785 
L 75.939154 118.125785 
L 76.016266 115.975146 
L 76.054823 115.975146 
L 76.131935 113.473019 
L 76.170492 113.473019 
L 76.247604 112.674721 
L 76.324717 112.60621 
L 76.401829 110.071316 
L 76.478942 110.041529 
L 76.556055 109.398125 
L 76.594611 109.398125 
L 76.671724 109.040678 
L 76.787393 108.936423 
L 76.864505 107.953444 
L 76.903062 107.953444 
L 76.980174 106.347912 
L 77.057287 106.258551 
L 77.1344 105.874295 
L 77.172956 105.874295 
L 77.250069 104.471316 
L 77.288625 104.471316 
L 77.365738 103.187487 
L 77.404294 103.187487 
L 77.481407 101.957274 
L 77.519963 101.957274 
L 77.597076 100.691316 
L 77.751301 100.593019 
L 77.828414 100.345785 
L 77.86697 100.345785 
L 77.944083 99.571316 
L 78.021195 99.559402 
L 78.098308 98.737274 
L 78.17542 98.72238 
L 78.252533 98.484082 
L 78.291089 98.484082 
L 78.368202 97.316423 
L 78.406758 97.316423 
L 78.483871 96.398976 
L 78.560984 96.300678 
L 78.638096 95.463657 
L 78.715209 95.43387 
L 78.792322 94.835146 
L 78.869434 94.832168 
L 78.946547 94.015997 
L 79.02366 93.911742 
L 79.100772 93.479827 
L 79.177885 93.372593 
L 79.254998 92.818551 
L 79.33211 92.711316 
L 79.370667 92.14238 
L 79.486336 92.14238 
L 79.563448 91.731316 
L 79.679117 91.63004 
L 79.75623 90.977699 
L 79.794786 90.977699 
L 79.871899 90.483231 
L 79.987568 90.399827 
L 80.06468 89.795146 
L 80.180349 89.690891 
L 80.257462 89.178551 
L 80.334575 89.095146 
L 80.411687 88.92238 
L 80.4888 88.818125 
L 80.565913 88.436848 
L 80.643025 88.380253 
L 80.720138 87.861955 
L 80.758694 87.861955 
L 80.835807 87.495572 
L 80.874363 87.495572 
L 80.951476 86.935572 
L 81.067145 86.834295 
L 81.144258 86.289189 
L 81.182814 86.289189 
L 81.259927 86.038976 
L 81.375596 85.970465 
L 81.452708 85.717274 
L 81.529821 85.630891 
L 81.606933 85.455146 
L 81.722602 85.416423 
L 81.799715 85.222806 
L 81.876828 85.210891 
L 81.95394 84.954721 
L 82.031053 84.853444 
L 82.108166 84.388763 
L 82.223835 84.353019 
L 82.300947 84.204082 
L 82.37806 84.168338 
L 82.455173 83.810891 
L 82.647954 83.703657 
L 82.725067 83.176423 
L 82.80218 83.143657 
L 82.879292 82.780253 
L 82.956405 82.673019 
L 83.033518 82.521104 
L 83.11063 82.422806 
L 83.187743 82.190465 
L 83.226299 82.190465 
L 83.303412 81.955146 
L 83.341968 81.955146 
L 83.419081 81.445785 
L 83.457637 81.445785 
L 83.53475 81.174721 
L 83.688975 81.103231 
L 83.766088 80.400253 
L 83.8432 80.295997 
L 83.920313 79.840253 
L 84.035982 79.828338 
L 84.113095 79.658551 
L 84.190207 79.628763 
L 84.26732 79.40238 
L 84.305876 79.40238 
L 84.382989 79.173019 
L 84.498658 79.101529 
L 84.575771 78.895997 
L 84.69144 78.788763 
L 84.768552 78.434295 
L 84.922778 78.359827 
L 84.99989 77.957699 
L 85.038446 77.957699 
L 85.115559 77.448338 
L 85.231228 77.347061 
L 85.308341 77.117699 
L 85.346897 77.117699 
L 85.42401 76.810891 
L 85.578235 76.706636 
L 85.655348 76.456423 
L 85.848129 76.390891 
L 85.925242 76.286636 
L 86.002355 76.259827 
L 86.079467 76.036423 
L 86.118024 76.036423 
L 86.195136 75.866636 
L 86.310805 75.759402 
L 86.387918 75.667061 
L 86.465031 75.559827 
L 86.542143 75.464508 
L 86.734925 75.384082 
L 86.812037 75.261955 
L 86.850594 75.261955 
L 86.927706 75.127912 
L 87.004819 75.089189 
L 87.043375 74.913444 
L 87.120488 74.913444 
L 87.197601 74.770465 
L 87.351826 74.716848 
L 87.428939 74.612593 
L 87.583164 74.514295 
L 87.660277 74.466636 
L 87.814502 74.427912 
L 87.891615 74.210465 
L 87.968727 74.103231 
L 88.04584 73.963231 
L 88.200065 73.870891 
L 88.277178 73.784508 
L 88.392847 73.683231 
L 88.469959 73.495572 
L 88.547072 73.438976 
L 88.624185 73.141104 
L 88.739854 73.048763 
L 88.77841 72.983231 
L 88.971192 72.890891 
L 89.048304 72.664508 
L 89.241086 72.616848 
L 89.318199 72.458976 
L 89.472424 72.411316 
L 89.549537 71.964508 
L 89.626649 71.86621 
L 89.703762 71.523657 
L 89.9351 71.452168 
L 90.012213 71.371742 
L 90.050769 71.371742 
L 90.127882 71.076848 
L 90.24355 70.978551 
L 90.320663 70.707487 
L 90.397776 70.638976 
L 90.474888 70.44238 
L 90.706226 70.355997 
L 90.783339 70.281529 
L 90.976121 70.174295 
L 91.014677 70.040253 
L 91.168902 69.971742 
L 91.246015 69.858551 
L 91.323128 69.855572 
L 91.40024 69.578551 
L 91.515909 69.474295 
L 91.593022 69.185359 
L 91.747247 69.101955 
L 91.82436 68.97387 
L 91.901472 68.964934 
L 91.978585 68.601529 
L 92.13281 68.497274 
L 92.209923 68.294721 
L 92.364148 68.190465 
L 92.441261 68.139827 
L 92.634043 68.059402 
L 92.711155 67.907487 
L 92.865381 67.818125 
L 92.942493 67.687061 
L 92.98105 67.687061 
L 93.058162 67.478551 
L 93.2895 67.383231 
L 93.328057 67.311742 
L 93.559395 67.273019 
L 93.636507 67.186636 
L 93.829289 67.079402 
L 93.906401 66.924508 
L 93.944958 66.924508 
L 94.02207 66.66238 
L 94.137739 66.561104 
L 94.214852 66.31387 
L 94.44619 66.227487 
L 94.523303 66.117274 
L 94.638972 66.021955 
L 94.716084 65.703231 
L 94.793197 65.598976 
L 94.87031 65.470891 
L 94.985979 65.390465 
L 95.063091 65.220678 
L 95.294429 65.119402 
L 95.371542 65.05387 
L 95.487211 64.952593 
L 95.564323 64.818551 
L 95.679992 64.711316 
L 95.757105 64.61004 
L 95.91133 64.532593 
L 95.988443 64.419402 
L 96.142668 64.333019 
L 96.219781 64.14238 
L 96.258337 64.14238 
L 96.33545 63.823657 
L 96.374006 63.823657 
L 96.451119 63.567487 
L 96.682457 63.522806 
L 96.75957 63.293444 
L 96.875239 63.201104 
L 96.952351 63.099827 
L 97.06802 63.049189 
L 97.145133 62.900253 
L 97.453583 62.810891 
L 97.530696 62.661955 
L 97.607809 62.551742 
L 97.684921 62.501104 
L 97.916259 62.396848 
L 97.954816 62.349189 
L 98.22471 62.247912 
L 98.301823 62.075146 
L 98.610273 61.979827 
L 98.687386 61.884508 
L 98.841611 61.792168 
L 98.918724 61.747487 
L 99.034393 61.678976 
L 99.111505 61.538976 
L 99.150062 61.538976 
L 99.227174 61.214295 
L 99.419956 61.139827 
L 99.497069 61.050465 
L 99.805519 60.97004 
L 99.882632 60.818125 
L 100.191083 60.716848 
L 100.268195 60.50238 
L 100.499533 60.427912 
L 100.576646 60.329614 
L 100.769427 60.255146 
L 100.84654 60.141955 
L 100.885096 60.141955 
L 100.962209 59.993019 
L 101.039322 59.900678 
L 101.116434 59.817274 
L 101.347772 59.724934 
L 101.424885 59.653444 
L 101.771892 59.555146 
L 101.849005 59.489614 
L 102.465906 59.388338 
L 102.504462 59.370465 
L 102.851469 59.260253 
L 102.928582 59.215572 
L 103.198476 59.132168 
L 103.275589 58.965359 
L 103.506927 58.875997 
L 103.545483 58.828338 
L 104.046715 58.727061 
L 104.123828 58.610891 
L 104.316609 58.539402 
L 104.393722 58.453019 
L 104.470835 58.345785 
L 104.547947 58.301104 
L 104.740729 58.199827 
L 104.817842 58.083657 
L 105.280518 57.976423 
L 105.280518 57.970465 
L 105.550412 57.898976 
L 105.627525 57.806636 
L 106.282982 57.699402 
L 106.360095 57.654721 
L 106.899883 57.544508 
L 106.976996 57.520678 
L 107.401115 57.413444 
L 107.478228 57.341955 
L 108.056573 57.246636 
L 108.133686 57.21387 
L 108.634918 57.103657 
L 108.673474 57.097699 
L 109.444601 56.996423 
L 109.521713 56.868338 
L 109.984389 56.77004 
L 110.061502 56.680678 
L 110.524178 56.58238 
L 110.601291 56.507912 
L 110.755516 56.412593 
L 110.832628 56.323231 
L 110.948297 56.251742 
L 111.02541 56.153444 
L 111.141079 56.052168 
L 111.218192 56.037274 
L 111.295304 56.031316 
L 111.372417 55.885359 
L 111.680868 55.787061 
L 111.719424 55.682806 
L 112.1821 55.575572 
L 112.259213 55.527912 
L 112.529107 55.429614 
L 112.606219 55.289614 
L 112.91467 55.179402 
L 112.991783 55.128763 
L 113.454459 55.027487 
L 113.531571 55.012593 
L 113.840022 54.920253 
L 113.917135 54.875572 
L 114.148473 54.768338 
L 114.225585 54.681955 
L 114.572592 54.574721 
L 114.649705 54.491316 
L 114.842486 54.401955 
L 114.919599 54.300678 
L 115.575057 54.190465 
L 115.652169 54.13387 
L 116.577521 54.023657 
L 116.577521 54.008763 
L 117.194422 53.898551 
L 117.271535 53.841955 
L 117.502873 53.731742 
L 117.579986 53.695997 
L 118.004105 53.606636 
L 118.042661 53.564934 
L 118.351112 53.466636 
L 118.428225 53.401104 
L 118.813788 53.290891 
L 118.852344 53.249189 
L 119.160795 53.147912 
L 119.237908 53.103231 
L 120.163259 52.993019 
L 120.240372 52.969189 
L 120.89583 52.867912 
L 120.972942 52.814295 
L 121.705512 52.707061 
L 121.782625 52.671316 
L 122.245301 52.567061 
L 122.245301 52.54621 
L 122.707977 52.450891 
L 122.746533 52.418125 
L 123.09354 52.307912 
L 123.170653 52.281104 
L 123.51766 52.209614 
L 123.594772 52.078551 
L 123.748998 52.051742 
L 123.748998 51.96238 
L 124.55868 51.861104 
L 124.635793 51.771742 
L 125.561145 51.667487 
L 125.638258 51.601955 
L 125.869596 51.512593 
L 125.946708 51.470891 
L 126.100934 51.393444 
L 126.178046 51.339827 
L 126.370828 51.26238 
L 126.44794 51.140253 
L 126.756391 51.033019 
L 126.833504 50.964508 
L 127.180511 50.875146 
L 127.219067 50.84238 
L 127.797412 50.735146 
L 127.874525 50.705359 
L 128.067306 50.651742 
L 128.144419 50.547487 
L 128.414313 50.443231 
L 128.491426 50.344934 
L 129.18544 50.243657 
L 129.18544 50.225785 
L 131.151812 50.115572 
L 131.228925 50.100678 
L 132.154277 50.014295 
L 132.231389 49.963657 
L 133.233854 49.859402 
L 133.310966 49.826636 
L 134.236318 49.716423 
L 134.236318 49.695572 
L 137.282268 49.588338 
L 137.320824 49.579402 
L 138.708852 49.469189 
L 138.785965 49.457274 
L 141.176457 49.347061 
L 141.176457 49.344082 
L 144.145294 49.236848 
L 144.145294 49.227912 
L 145.918885 49.120678 
L 145.918885 49.114721 
L 148.425046 49.004508 
L 148.502159 48.989614 
L 149.196173 48.903231 
L 149.273285 48.864508 
L 149.427511 48.76621 
L 149.504623 48.721529 
L 149.967299 48.614295 
L 149.967299 48.608338 
L 150.738426 48.504082 
L 150.738426 48.492168 
L 151.470996 48.39387 
L 151.470996 48.358125 
L 153.128918 48.283657 
L 153.167474 48.241955 
L 153.822932 48.131742 
L 153.900044 48.122806 
L 155.442298 48.012593 
L 155.51941 47.976848 
L 156.406206 47.866636 
L 156.406206 47.863657 
L 158.488247 47.756423 
L 158.488247 47.699827 
L 159.29793 47.601529 
L 159.375043 47.538976 
L 159.876275 47.455572 
L 159.914831 47.404934 
L 162.536661 47.294721 
L 162.613774 47.223231 
L 163.886133 47.124934 
L 163.963246 47.06238 
L 165.119935 46.952168 
L 165.119935 46.943231 
L 166.85497 46.833019 
L 166.932083 46.827061 
L 169.129793 46.728763 
L 169.16835 46.707912 
L 170.325039 46.600678 
L 170.402152 46.576848 
L 172.445637 46.469614 
L 172.484194 46.451742 
L 175.530143 46.344508 
L 175.530143 46.338551 
L 177.03384 46.228338 
L 177.110953 46.207487 
L 178.807431 46.103231 
L 178.845987 46.091316 
L 180.850916 45.984082 
L 180.889473 45.972168 
L 184.128204 45.864934 
L 184.205317 45.841104 
L 186.133133 45.73387 
L 186.171689 45.713019 
L 187.675386 45.602806 
L 187.713942 45.590891 
L 189.063414 45.480678 
L 189.063414 45.477699 
L 190.489998 45.367487 
L 190.489998 45.364508 
L 192.572039 45.254295 
L 192.572039 45.251316 
L 195.155313 45.141104 
L 195.155313 45.138125 
L 197.892812 45.03387 
L 197.969925 45.018976 
L 201.247213 44.911742 
L 201.285769 44.89387 
L 204.871507 44.783657 
L 204.94862 44.768763 
L 207.493337 44.658551 
L 207.57045 44.652593 
L 211.888759 44.548338 
L 211.888759 44.536423 
L 219.908474 44.429189 
L 219.985587 44.420253 
L 224.650902 44.324934 
L 224.650902 44.307061 
L 229.508999 44.196848 
L 229.547556 44.190891 
L 233.634526 44.080678 
L 233.673083 44.074721 
L 237.567272 43.964508 
L 237.644384 43.958551 
L 242.733819 43.848338 
L 242.733819 43.845359 
L 246.203889 43.735146 
L 246.203889 43.732168 
L 249.0185 43.621955 
L 249.0185 43.618976 
L 253.259696 43.508763 
L 253.259696 43.505785 
L 256.112864 43.395572 
L 256.151421 43.389614 
L 258.88892 43.279402 
L 258.88892 43.276423 
L 263.631348 43.169189 
L 263.669904 43.157274 
L 267.48698 43.053019 
L 267.48698 43.041104 
L 273.386098 42.930891 
L 273.386098 42.927912 
L 277.318844 42.817699 
L 277.318844 42.814721 
L 280.634688 42.704508 
L 280.673244 42.698551 
L 283.834863 42.594295 
L 283.834863 42.585359 
L 289.386974 42.475146 
L 289.386974 42.472168 
L 294.36074 42.361955 
L 294.36074 42.358976 
L 299.797182 42.251742 
L 299.835738 42.239827 
L 304.616722 42.129614 
L 304.616722 42.126636 
L 309.127812 42.016423 
L 309.127812 42.013444 
L 313.831684 41.903231 
L 313.87024 41.897274 
L 321.658618 41.787061 
L 321.697175 41.781104 
L 327.287842 41.67387 
L 327.364955 41.661955 
L 333.109847 41.557699 
L 333.18696 41.542806 
L 340.782556 41.432593 
L 340.782556 41.429614 
L 345.910547 41.319402 
L 345.949104 41.313444 
L 353.082024 41.203231 
L 353.082024 41.200253 
L 361.525859 41.09004 
L 361.525859 41.087061 
L 368.273216 40.976848 
L 368.350329 40.970891 
L 375.945925 40.860678 
L 375.945925 40.857699 
L 384.38976 40.747487 
L 384.466873 40.741529 
L 391.329899 40.631316 
L 391.329899 40.625359 
L 402.781128 40.515146 
L 402.781128 40.512168 
L 419.090454 40.401955 
L 419.167566 40.395997 
L 432.122492 40.285785 
L 432.122492 40.282806 
L 454.061041 40.172593 
L 454.061041 40.169614 
L 472.606634 40.059402 
L 472.64519 40.053444 
L 523.153977 39.958125 
L 523.153977 39.958125 
" clip-path="url(#pa36d725404)" style="fill: none; stroke: #ff00ff; stroke-width: 1.5; stroke-linecap: square"/>
   </g>
   <g id="line2d_14">
    <path d="M 66.608523 392.758125 
L 66.716435 362.077269 
L 66.720289 362.077269 
L 66.828201 348.527552 
L 66.832055 348.527552 
L 66.939967 339.693376 
L 66.943821 339.693376 
L 67.051733 331.754555 
L 67.055587 331.754555 
L 67.163499 325.934743 
L 67.171207 325.875053 
L 67.27912 322.084713 
L 67.286828 322.084713 
L 67.39474 317.040876 
L 67.406302 316.981186 
L 67.514214 313.72806 
L 67.521922 313.638524 
L 67.629834 308.863294 
L 67.641396 308.833449 
L 67.749308 305.550478 
L 67.753162 305.550478 
L 67.861074 302.625649 
L 67.864928 302.625649 
L 67.972841 299.074071 
L 67.980549 299.044226 
L 68.088461 295.73141 
L 68.100023 295.641874 
L 68.207935 292.418594 
L 68.211789 292.418594 
L 68.315847 289.284849 
L 68.323555 289.284849 
L 68.431467 286.867388 
L 68.439175 286.777853 
L 68.547087 283.793334 
L 68.570211 283.733643 
L 68.678124 280.301446 
L 68.685832 280.211911 
L 68.793744 277.108011 
L 68.797598 277.108011 
L 68.90551 275.048693 
L 68.909364 275.048693 
L 69.017276 273.168446 
L 69.036546 273.108755 
L 69.144458 270.900211 
L 69.159874 270.810676 
L 69.267786 267.676931 
L 69.27164 267.676931 
L 69.379552 265.617612 
L 69.383406 265.617612 
L 69.491319 262.513713 
L 69.495173 262.513713 
L 69.603085 260.126097 
L 69.606939 260.126097 
L 69.714851 258.335386 
L 69.726413 258.335386 
L 69.834325 256.007461 
L 69.842033 256.007461 
L 69.949945 253.769072 
L 69.969215 253.709381 
L 70.073273 251.888825 
L 70.100251 251.829134 
L 70.208164 248.665544 
L 70.22358 248.605854 
L 70.331492 245.591489 
L 70.343054 245.561644 
L 70.450966 243.830623 
L 70.466382 243.770933 
L 70.574294 241.144556 
L 70.593564 241.084866 
L 70.701476 238.368953 
L 70.70533 238.368953 
L 70.813242 235.324744 
L 70.82095 235.324744 
L 70.928863 232.310379 
L 70.936571 232.220844 
L 71.032921 229.624312 
L 71.052191 229.624312 
L 71.160103 225.087843 
L 71.167811 225.057998 
L 71.275723 221.38704 
L 71.279577 221.38704 
L 71.387489 218.492056 
L 71.395197 218.402521 
L 71.503109 216.462583 
L 71.510817 216.373048 
L 71.618729 214.731562 
L 71.630291 214.642027 
L 71.738204 211.567972 
L 71.742058 211.567972 
L 71.84997 209.120666 
L 71.857678 209.060976 
L 71.961736 206.583825 
L 71.973298 206.583825 
L 72.08121 203.897758 
L 72.092772 203.838067 
L 72.192976 201.181845 
L 72.204538 201.181845 
L 72.31245 198.943456 
L 72.320158 198.853921 
L 72.428071 195.600795 
L 72.431925 195.600795 
L 72.539837 194.048845 
L 72.547545 194.048845 
L 72.651603 191.810456 
L 72.659311 191.810456 
L 72.763369 189.243769 
L 72.790347 189.154234 
L 72.898259 186.885999 
L 72.909821 186.856154 
L 73.010025 184.617765 
L 73.033149 184.528229 
L 73.141062 182.230149 
L 73.14877 182.230149 
L 73.256682 179.12625 
L 73.272098 179.066559 
L 73.38001 176.589408 
L 73.383864 176.589408 
L 73.487922 173.72427 
L 73.507192 173.66458 
L 73.615104 171.724642 
L 73.618958 171.724642 
L 73.723016 168.620742 
L 73.730724 168.620742 
L 73.834782 166.71065 
L 73.846344 166.680805 
L 73.954257 165.009474 
L 73.973527 164.949784 
L 74.081439 162.263717 
L 74.089147 162.204026 
L 74.197059 160.681922 
L 74.200913 160.681922 
L 74.308825 155.966381 
L 74.312679 155.966381 
L 74.420591 152.802791 
L 74.443715 152.713256 
L 74.551627 149.728737 
L 74.559335 149.639201 
L 74.667248 147.818644 
L 74.671102 147.818644 
L 74.779014 145.729481 
L 74.786722 145.699636 
L 74.894634 142.744962 
L 74.906196 142.715117 
L 75.014108 140.267811 
L 75.017962 140.267811 
L 75.125874 137.163911 
L 75.145144 137.074376 
L 75.245348 133.463108 
L 75.25691 133.463108 
L 75.364823 130.329363 
L 75.372531 130.239827 
L 75.476589 126.419643 
L 75.484297 126.419643 
L 75.592209 122.89791 
L 75.596063 122.89791 
L 75.703975 116.421504 
L 75.723245 116.361813 
L 75.831157 115.555993 
L 75.842719 115.496303 
L 75.946777 115.227696 
L 75.969901 115.138161 
L 76.070105 114.302495 
L 76.174164 114.21296 
L 76.282076 112.869926 
L 76.297492 112.869926 
L 76.405404 112.004415 
L 76.467068 111.91488 
L 76.563418 111.676118 
L 76.578834 111.676118 
L 76.640498 111.228441 
L 76.698308 111.16875 
L 76.771534 110.840453 
L 76.840907 110.750917 
L 76.948819 108.960206 
L 77.049023 108.87067 
L 77.137665 108.482683 
L 77.164643 108.452838 
L 77.272555 107.288875 
L 77.376613 107.19934 
L 77.472963 106.721817 
L 77.515357 106.632281 
L 77.62327 105.587699 
L 77.634832 105.557854 
L 77.742744 104.990796 
L 77.750452 104.931105 
L 77.858364 104.692344 
L 77.87378 104.662499 
L 77.966276 104.214821 
L 78.031794 104.125285 
L 78.108874 104.005904 
L 78.224494 103.946214 
L 78.293866 103.379155 
L 78.386363 103.28962 
L 78.490421 101.976431 
L 78.521253 101.886896 
L 78.602187 100.722933 
L 78.648435 100.633398 
L 78.748639 99.170983 
L 78.767909 99.141138 
L 78.875821 97.141511 
L 78.879675 97.141511 
L 78.979879 95.768632 
L 79.018419 95.708941 
L 79.118624 94.873276 
L 79.130186 94.873276 
L 79.21112 92.575196 
L 79.280492 92.485661 
L 79.372988 91.799221 
L 79.44236 91.709686 
L 79.542564 91.172472 
L 79.57725 91.082937 
L 79.658184 90.694949 
L 79.700578 90.665104 
L 79.80849 89.978665 
L 79.827761 89.918974 
L 79.927965 88.575941 
L 79.966505 88.486405 
L 80.047439 88.098418 
L 80.093687 88.038727 
L 80.166913 87.799966 
L 80.348051 87.71043 
L 80.444401 87.531359 
L 80.590854 87.471669 
L 80.694912 87.173217 
L 80.725744 87.113526 
L 80.829802 86.725539 
L 80.926152 86.636003 
L 81.014794 86.456932 
L 81.134268 86.367397 
L 81.199786 86.218171 
L 81.392487 86.128635 
L 81.481129 85.979409 
L 81.600603 85.889874 
L 81.662267 85.710802 
L 81.766325 85.621267 
L 81.870383 85.322815 
L 81.889653 85.29297 
L 81.986003 84.845292 
L 82.093916 84.755756 
L 82.201828 84.308078 
L 82.217244 84.278233 
L 82.217244 84.188698 
L 82.36755 84.129007 
L 82.456192 84.009627 
L 82.587228 83.920091 
L 82.683578 83.591794 
L 82.77222 83.502258 
L 82.860863 83.233652 
L 82.953359 83.173961 
L 83.049709 82.905355 
L 83.099811 82.815819 
L 83.203869 82.547212 
L 83.277095 82.457677 
L 83.365737 81.980154 
L 83.435109 81.920463 
L 83.539168 81.413095 
L 83.57 81.323559 
L 83.658642 80.816191 
L 83.693328 80.726656 
L 83.789678 80.57743 
L 83.866758 80.487894 
L 83.970816 80.249133 
L 84.040188 80.159597 
L 84.132684 80.010371 
L 84.259866 79.920835 
L 84.363925 79.682074 
L 84.394757 79.622384 
L 84.471837 79.353777 
L 84.610581 79.264241 
L 84.718493 79.115015 
L 84.737763 79.02548 
L 84.841821 78.756873 
L 84.864945 78.756873 
L 84.969003 78.189814 
L 84.984419 78.130124 
L 85.088478 77.861517 
L 85.115456 77.831672 
L 85.192536 77.383994 
L 85.373674 77.294459 
L 85.481586 77.175078 
L 85.597206 77.085542 
L 85.670432 76.846781 
L 85.847717 76.757245 
L 85.951775 76.608019 
L 86.040417 76.518484 
L 86.132913 76.309567 
L 86.183015 76.220032 
L 86.267803 75.98127 
L 86.314051 75.891735 
L 86.391131 75.712664 
L 86.510606 75.623128 
L 86.603102 75.533592 
L 86.761116 75.444057 
L 86.838196 75.23514 
L 87.007772 75.145605 
L 87.115684 74.847153 
L 87.185056 74.787463 
L 87.292969 74.608391 
L 87.489523 74.518856 
L 87.508793 74.36963 
L 87.767011 74.280094 
L 87.859507 74.190559 
L 87.978981 74.101023 
L 88.086894 74.041333 
L 88.194806 73.951797 
L 88.302718 73.653345 
L 88.41063 73.56381 
L 88.514688 73.265358 
L 88.626454 73.175822 
L 88.730513 72.996751 
L 88.792177 72.907216 
L 88.900089 72.370002 
L 88.969461 72.280467 
L 89.054249 71.982015 
L 89.100497 71.892479 
L 89.192993 71.534337 
L 89.293197 71.444801 
L 89.397255 71.235885 
L 89.439649 71.146349 
L 89.547562 70.847897 
L 89.582248 70.758362 
L 89.682452 70.45991 
L 89.724846 70.370374 
L 89.832758 70.131613 
L 89.913692 70.042077 
L 89.99848 69.863006 
L 90.060144 69.803316 
L 90.164202 69.504864 
L 90.333779 69.415328 
L 90.418567 69.325793 
L 90.615121 69.236257 
L 90.665223 69.146722 
L 90.819383 69.057186 
L 90.908025 68.937805 
L 91.004376 68.84827 
L 91.100726 68.549818 
L 91.227908 68.460282 
L 91.27801 68.340901 
L 91.501542 68.251366 
L 91.601746 68.072295 
L 91.690388 67.982759 
L 91.779031 67.803688 
L 91.825279 67.714152 
L 91.910067 67.415701 
L 91.948607 67.326165 
L 92.041103 67.147094 
L 92.145161 67.057558 
L 92.195263 66.848642 
L 92.353277 66.759106 
L 92.407233 66.60988 
L 92.646182 66.520345 
L 92.646182 66.4905 
L 92.946794 66.400964 
L 93.043144 66.251738 
L 93.181888 66.162202 
L 93.282093 65.983131 
L 93.621245 65.893596 
L 93.721449 65.684679 
L 93.906441 65.595144 
L 93.979668 65.386228 
L 94.095288 65.326537 
L 94.187784 65.207156 
L 94.650264 65.117621 
L 94.673389 65.05793 
L 94.896921 64.968395 
L 94.997125 64.849014 
L 95.147431 64.759479 
L 95.247635 64.550562 
L 95.451898 64.461027 
L 95.548248 64.341646 
L 95.65616 64.281955 
L 95.740948 64.13273 
L 95.852714 64.043194 
L 95.918232 63.923813 
L 96.253531 63.834278 
L 96.357589 63.685052 
L 96.426961 63.595516 
L 96.480917 63.535826 
L 96.700595 63.44629 
L 96.758405 63.356755 
L 96.943398 63.267219 
L 96.943398 63.237374 
L 97.201616 63.177683 
L 97.232448 63.058303 
L 97.710345 62.968767 
L 97.710345 62.938922 
L 98.153555 62.849386 
L 98.226781 62.730006 
L 98.481146 62.64047 
L 98.58135 62.521089 
L 98.79332 62.431554 
L 98.85113 62.371863 
L 99.144035 62.282328 
L 99.240385 62.133102 
L 99.340589 62.073411 
L 99.402253 61.954031 
L 99.695157 61.864495 
L 99.722135 61.774959 
L 100.122952 61.685424 
L 100.122952 61.655579 
L 100.589286 61.566043 
L 100.677929 61.446662 
L 100.785841 61.357127 
L 100.785841 61.327282 
L 101.140409 61.237746 
L 101.236759 61.178056 
L 101.649138 61.08852 
L 101.687678 61.02883 
L 101.915064 60.939294 
L 101.926626 60.819913 
L 102.057662 60.730378 
L 102.130889 60.610997 
L 102.234947 60.521461 
L 102.292757 60.431926 
L 102.628055 60.34239 
L 102.732113 60.252855 
L 102.909398 60.163319 
L 102.9595 60.103629 
L 103.098244 60.014093 
L 103.194594 59.894712 
L 103.348754 59.805177 
L 103.433542 59.745486 
L 103.734155 59.655951 
L 103.745717 59.596261 
L 104.227467 59.506725 
L 104.292985 59.417189 
L 104.501102 59.327654 
L 104.501102 59.297809 
L 104.948166 59.208273 
L 105.025246 59.118737 
L 105.429917 59.029202 
L 105.518559 58.939666 
L 105.730529 58.850131 
L 105.838442 58.760595 
L 105.92323 58.67106 
L 106.01958 58.551679 
L 106.127492 58.462143 
L 106.158324 58.402453 
L 106.663199 58.312917 
L 106.674761 58.253227 
L 107.017767 58.163691 
L 107.017767 58.133846 
L 107.372336 58.044311 
L 107.476394 57.92493 
L 107.777006 57.835394 
L 107.881064 57.775704 
L 108.339691 57.686168 
L 108.339691 57.656323 
L 108.736653 57.566788 
L 108.825296 57.477252 
L 108.948624 57.387716 
L 109.00258 57.328026 
L 109.307046 57.23849 
L 109.414958 57.11911 
L 109.619221 57.029574 
L 109.619221 56.999729 
L 110.077847 56.910193 
L 110.181905 56.850503 
L 110.451686 56.760967 
L 110.482518 56.671432 
L 110.682926 56.581896 
L 110.682926 56.552051 
L 111.002808 56.462515 
L 111.072181 56.37298 
L 111.334253 56.283444 
L 111.438311 56.104373 
L 111.657989 56.014838 
L 111.735069 55.835766 
L 112.13974 55.746231 
L 112.21682 55.62685 
L 112.521287 55.537315 
L 112.625345 55.388089 
L 112.887417 55.298553 
L 112.922103 55.209017 
L 113.195737 55.119482 
L 113.199591 55.059792 
L 113.654364 54.970256 
L 113.739152 54.850875 
L 113.90102 54.76134 
L 113.908728 54.701649 
L 114.244027 54.612114 
L 114.290275 54.552423 
L 114.764318 54.462888 
L 114.764318 54.433043 
L 115.088054 54.343507 
L 115.192112 54.283817 
L 115.893541 54.194281 
L 115.893541 54.164436 
L 116.463934 54.0749 
L 116.467788 54.01521 
L 116.934122 53.925674 
L 116.934122 53.895829 
L 117.331085 53.806294 
L 117.423581 53.716758 
L 117.73961 53.627222 
L 117.789712 53.567532 
L 118.098032 53.477996 
L 118.098032 53.448151 
L 118.475725 53.358616 
L 118.475725 53.32877 
L 119.73213 53.239235 
L 119.813064 53.179545 
L 120.013473 53.090009 
L 120.113677 53.030319 
L 120.811252 52.940783 
L 120.811252 52.910938 
L 121.327688 52.821402 
L 121.327688 52.791557 
L 121.755483 52.702021 
L 121.817147 52.612486 
L 122.449204 52.52295 
L 122.449204 52.493105 
L 123.123655 52.40357 
L 123.123655 52.373724 
L 123.420413 52.284189 
L 123.424267 52.224498 
L 123.932996 52.134963 
L 123.986952 52.045427 
L 124.272148 51.955892 
L 124.272148 51.926046 
L 124.935037 51.836511 
L 124.935037 51.806666 
L 125.332 51.71713 
L 125.339708 51.65744 
L 125.67886 51.567904 
L 125.779064 51.478369 
L 126.218421 51.388833 
L 126.307063 51.299297 
L 127.2089 51.209762 
L 127.216608 51.150072 
L 127.609717 51.060536 
L 127.625133 51.000846 
L 128.665714 50.91131 
L 128.665714 50.881465 
L 129.409537 50.791929 
L 129.444223 50.732239 
L 130.064718 50.642703 
L 130.064718 50.612858 
L 130.457827 50.523323 
L 130.457827 50.493477 
L 131.166964 50.403942 
L 131.166964 50.374097 
L 131.999429 50.284561 
L 132.057239 50.224871 
L 133.209586 50.135335 
L 133.317499 50.075645 
L 133.702899 49.986109 
L 133.702899 49.956264 
L 134.20392 49.926419 
L 134.20392 49.836883 
L 135.302311 49.747348 
L 135.302311 49.717502 
L 136.258104 49.627967 
L 136.261958 49.568276 
L 137.036614 49.478741 
L 137.036614 49.448896 
L 137.896057 49.35936 
L 137.896057 49.329515 
L 139.206418 49.239979 
L 139.206418 49.210134 
L 140.744167 49.120599 
L 140.744167 49.090753 
L 142.409097 49.001218 
L 142.416805 48.941527 
L 142.937095 48.851992 
L 142.937095 48.822147 
L 143.939137 48.732611 
L 143.939137 48.702766 
L 145.095338 48.61323 
L 145.157002 48.523695 
L 146.278518 48.434159 
L 146.278518 48.404314 
L 148.494571 48.314778 
L 148.494571 48.284933 
L 151.400491 48.195398 
L 151.400491 48.165552 
L 152.398678 48.076017 
L 152.46805 48.016327 
L 154.660979 47.926791 
L 154.660979 47.896946 
L 155.944363 47.80741 
L 155.944363 47.777565 
L 156.530172 47.688029 
L 156.618814 47.628339 
L 158.51113 47.538803 
L 158.51113 47.508958 
L 160.885198 47.419423 
L 160.885198 47.389577 
L 164.180372 47.300042 
L 164.180372 47.270197 
L 167.822407 47.180661 
L 167.822407 47.150816 
L 170.855509 47.06128 
L 170.855509 47.031435 
L 171.826718 46.9419 
L 171.911506 46.882209 
L 173.422277 46.792674 
L 173.422277 46.762828 
L 175.260637 46.673293 
L 175.260637 46.643448 
L 176.181744 46.553912 
L 176.181744 46.524067 
L 179.615663 46.434531 
L 179.615663 46.404686 
L 181.091747 46.315151 
L 181.091747 46.285305 
L 183.997667 46.19577 
L 184.067039 46.136079 
L 187.246593 46.046544 
L 187.246593 46.016699 
L 189.4665 45.927163 
L 189.4665 45.897318 
L 192.418668 45.807782 
L 192.43023 45.748092 
L 194.877523 45.658556 
L 194.877523 45.628711 
L 196.388293 45.539176 
L 196.388293 45.50933 
L 198.746945 45.419795 
L 198.746945 45.38995 
L 202.362001 45.300414 
L 202.362001 45.270569 
L 208.031243 45.181033 
L 208.031243 45.151188 
L 210.821543 45.061653 
L 210.821543 45.031807 
L 211.688694 44.942272 
L 211.773482 44.882581 
L 214.906788 44.793046 
L 214.906788 44.763201 
L 217.620008 44.673665 
L 217.620008 44.64382 
L 219.593259 44.554284 
L 219.593259 44.524439 
L 222.079092 44.434904 
L 222.079092 44.405058 
L 224.699816 44.315523 
L 224.699816 44.285678 
L 228.892973 44.196142 
L 228.892973 44.166297 
L 232.118776 44.076761 
L 232.118776 44.046916 
L 236.566298 43.957381 
L 236.566298 43.927535 
L 244.571066 43.838 
L 244.571066 43.808155 
L 250.11698 43.718619 
L 250.11698 43.688774 
L 252.899571 43.599238 
L 252.899571 43.569393 
L 256.54546 43.479858 
L 256.54546 43.450012 
L 265.610081 43.360477 
L 265.610081 43.330632 
L 274.042644 43.241096 
L 274.042644 43.211251 
L 277.333964 43.121715 
L 277.333964 43.09187 
L 287.323546 43.002334 
L 287.338962 42.942644 
L 290.144678 42.853109 
L 290.144678 42.823263 
L 292.472497 42.733728 
L 292.472497 42.703883 
L 299.290232 42.614347 
L 299.290232 42.584502 
L 308.971493 42.494966 
L 308.971493 42.465121 
L 313.449847 42.375585 
L 313.449847 42.34574 
L 316.486803 42.256205 
L 316.486803 42.226359 
L 319.288665 42.136824 
L 319.288665 42.106979 
L 324.69198 42.017443 
L 324.69198 41.987598 
L 330.183938 41.898062 
L 330.249456 41.838372 
L 335.147896 41.748836 
L 335.147896 41.718991 
L 340.416321 41.629456 
L 340.416321 41.59961 
L 351.053376 41.510075 
L 351.053376 41.48023 
L 361.759802 41.390694 
L 361.790634 41.331004 
L 375.256528 41.241468 
L 375.256528 41.211623 
L 383.962726 41.122087 
L 383.962726 41.092242 
L 393.547637 41.002707 
L 393.547637 40.972861 
L 398.083801 40.883326 
L 398.083801 40.853481 
L 419.650814 40.763945 
L 419.650814 40.7341 
L 441.514585 40.644564 
L 441.514585 40.614719 
L 452.309654 40.525184 
L 452.309654 40.495338 
L 461.748113 40.405803 
L 461.748113 40.375958 
L 471.525724 40.286422 
L 471.525724 40.256577 
L 485.15734 40.167041 
L 485.15734 40.137196 
L 498.480636 40.047661 
L 498.480636 40.017815 
L 523.153977 39.958125 
L 523.153977 39.958125 
" clip-path="url(#pa36d725404)" style="fill: none; stroke: #1e90ff; stroke-width: 1.5; stroke-linecap: square"/>
   </g>
   <g id="line2d_15">
    <path d="M 66.608523 392.758125 
L 66.612028 392.758125 
L 66.612028 375.118125 
L 66.636562 375.118125 
L 66.636562 357.478125 
L 66.997561 357.478125 
L 66.997561 339.838125 
L 67.036115 339.838125 
L 67.036115 322.198125 
L 67.074668 322.198125 
L 67.074668 304.558125 
L 67.165794 304.558125 
L 67.172804 304.558125 
L 67.305988 304.558125 
L 67.305988 286.918125 
L 67.579367 286.918125 
L 67.579367 269.278125 
L 67.681007 269.278125 
L 67.681007 251.638125 
L 67.709046 251.638125 
L 67.709046 233.998125 
L 67.789658 233.998125 
L 67.789658 216.358125 
L 67.814192 216.358125 
L 67.814192 198.718125 
L 67.828211 198.718125 
L 67.828211 181.078125 
L 67.950881 181.078125 
L 67.957891 181.078125 
L 68.357444 181.078125 
L 68.357444 163.438125 
L 68.374968 163.438125 
L 68.374968 145.798125 
L 68.424036 145.798125 
L 68.424036 128.158125 
L 68.511657 128.158125 
L 68.511657 110.518125 
L 68.809569 110.518125 
L 68.809569 92.878125 
L 69.086453 92.878125 
L 69.093462 92.878125 
L 69.482501 92.878125 
L 69.482501 75.238125 
L 70.050287 75.238125 
L 70.050287 57.598125 
L 70.299131 57.598125 
L 70.306141 57.598125 
L 71.977955 57.598125 
L 71.977955 39.958125 
L 519.225039 39.958125 
L 519.232049 39.958125 
L 522.49857 39.958125 
L 522.509085 39.958125 
L 522.719376 39.958125 
L 522.72989 39.958125 
L 523.153977 39.958125 
" clip-path="url(#pa36d725404)" style="fill: none; stroke: #9400d3; stroke-width: 1.5; stroke-linecap: square"/>
   </g>
   <g id="line2d_16">
    <path d="M 66.608523 392.758125 
L 75.925777 385.558125 
L 85.243031 378.358125 
L 94.560285 371.158125 
L 103.877539 363.958125 
L 113.194794 356.758125 
L 122.512048 349.558125 
L 131.829302 342.358125 
L 141.146556 335.158125 
L 150.46381 327.958125 
L 159.781064 320.758125 
L 169.098319 313.558125 
L 178.415573 306.358125 
L 187.732827 299.158125 
L 197.050081 291.958125 
L 206.367335 284.758125 
L 215.68459 277.558125 
L 225.001844 270.358125 
L 234.319098 263.158125 
L 243.636352 255.958125 
L 252.953606 248.758125 
L 262.27086 241.558125 
L 271.588115 234.358125 
L 280.905369 227.158125 
L 290.222623 219.958125 
L 299.539877 212.758125 
L 308.857131 205.558125 
L 318.174385 198.358125 
L 327.49164 191.158125 
L 336.808894 183.958125 
L 346.126148 176.758125 
L 355.443402 169.558125 
L 364.760656 162.358125 
L 374.07791 155.158125 
L 383.395165 147.958125 
L 392.712419 140.758125 
L 402.029673 133.558125 
L 411.346927 126.358125 
L 420.664181 119.158125 
L 429.981436 111.958125 
L 439.29869 104.758125 
L 448.615944 97.558125 
L 457.933198 90.358125 
L 467.250452 83.158125 
L 476.567706 75.958125 
L 485.884961 68.758125 
L 495.202215 61.558125 
L 504.519469 54.358125 
L 513.836723 47.158125 
L 523.153977 39.958125 
" clip-path="url(#pa36d725404)" style="fill: none; stroke-dasharray: 5.55,2.4; stroke-dashoffset: 0; stroke: #000000; stroke-width: 1.5"/>
   </g>
   <g id="patch_3">
    <path d="M 43.78125 410.398125 
L 43.78125 22.318125 
" style="fill: none; stroke: #000000; stroke-width: 0.8; stroke-linejoin: miter; stroke-linecap: square"/>
   </g>
   <g id="patch_4">
    <path d="M 545.98125 410.398125 
L 545.98125 22.318125 
" style="fill: none; stroke: #000000; stroke-width: 0.8; stroke-linejoin: miter; stroke-linecap: square"/>
   </g>
   <g id="patch_5">
    <path d="M 43.78125 410.398125 
L 545.98125 410.398125 
" style="fill: none; stroke: #000000; stroke-width: 0.8; stroke-linejoin: miter; stroke-linecap: square"/>
   </g>
   <g id="patch_6">
    <path d="M 43.78125 22.318125 
L 545.98125 22.318125 
" style="fill: none; stroke: #000000; stroke-width: 0.8; stroke-linejoin: miter; stroke-linecap: square"/>
   </g>
   <g id="text_15">
    <!-- One-vs-Rest ROC curves [iHS] -->
    <g transform="translate(205.336875 16.318125) scale(0.12 -0.12)">
     <defs>
      <path id="DejaVuSans-4f" d="M 2522 4238 
Q 1834 4238 1429 3725 
Q 1025 3213 1025 2328 
Q 1025 1447 1429 934 
Q 1834 422 2522 422 
Q 3209 422 3611 934 
Q 4013 1447 4013 2328 
Q 4013 3213 3611 3725 
Q 3209 4238 2522 4238 
z
M 2522 4750 
Q 3503 4750 4090 4092 
Q 4678 3434 4678 2328 
Q 4678 1225 4090 567 
Q 3503 -91 2522 -91 
Q 1538 -91 948 565 
Q 359 1222 359 2328 
Q 359 3434 948 4092 
Q 1538 4750 2522 4750 
z
" transform="scale(0.015625)"/>
      <path id="DejaVuSans-6e" d="M 3513 2113 
L 3513 0 
L 2938 0 
L 2938 2094 
Q 2938 2591 2744 2837 
Q 2550 3084 2163 3084 
Q 1697 3084 1428 2787 
Q 1159 2491 1159 1978 
L 1159 0 
L 581 0 
L 581 3500 
L 1159 3500 
L 1159 2956 
Q 1366 3272 1645 3428 
Q 1925 3584 2291 3584 
Q 2894 3584 3203 3211 
Q 3513 2838 3513 2113 
z
" transform="scale(0.015625)"/>
      <path id="DejaVuSans-2d" d="M 313 2009 
L 1997 2009 
L 1997 1497 
L 313 1497 
L 313 2009 
z
" transform="scale(0.015625)"/>
      <path id="DejaVuSans-43" d="M 4122 4306 
L 4122 3641 
Q 3803 3938 3442 4084 
Q 3081 4231 2675 4231 
Q 1875 4231 1450 3742 
Q 1025 3253 1025 2328 
Q 1025 1406 1450 917 
Q 1875 428 2675 428 
Q 3081 428 3442 575 
Q 3803 722 4122 1019 
L 4122 359 
Q 3791 134 3420 21 
Q 3050 -91 2638 -91 
Q 1578 -91 968 557 
Q 359 1206 359 2328 
Q 359 3453 968 4101 
Q 1578 4750 2638 4750 
Q 3056 4750 3426 4639 
Q 3797 4528 4122 4306 
z
" transform="scale(0.015625)"/>
      <path id="DejaVuSans-63" d="M 3122 3366 
L 3122 2828 
Q 2878 2963 2633 3030 
Q 2388 3097 2138 3097 
Q 1578 3097 1268 2742 
Q 959 2388 959 1747 
Q 959 1106 1268 751 
Q 1578 397 2138 397 
Q 2388 397 2633 464 
Q 2878 531 3122 666 
L 3122 134 
Q 2881 22 2623 -34 
Q 2366 -91 2075 -91 
Q 1284 -91 818 406 
Q 353 903 353 1747 
Q 353 2603 823 3093 
Q 1294 3584 2113 3584 
Q 2378 3584 2631 3529 
Q 2884 3475 3122 3366 
z
" transform="scale(0.015625)"/>
      <path id="DejaVuSans-5b" d="M 550 4863 
L 1875 4863 
L 1875 4416 
L 1125 4416 
L 1125 -397 
L 1875 -397 
L 1875 -844 
L 550 -844 
L 550 4863 
z
" transform="scale(0.015625)"/>
      <path id="DejaVuSans-48" d="M 628 4666 
L 1259 4666 
L 1259 2753 
L 3553 2753 
L 3553 4666 
L 4184 4666 
L 4184 0 
L 3553 0 
L 3553 2222 
L 1259 2222 
L 1259 0 
L 628 0 
L 628 4666 
z
" transform="scale(0.015625)"/>
      <path id="DejaVuSans-53" d="M 3425 4513 
L 3425 3897 
Q 3066 4069 2747 4153 
Q 2428 4238 2131 4238 
Q 1616 4238 1336 4038 
Q 1056 3838 1056 3469 
Q 1056 3159 1242 3001 
Q 1428 2844 1947 2747 
L 2328 2669 
Q 3034 2534 3370 2195 
Q 3706 1856 3706 1288 
Q 3706 609 3251 259 
Q 2797 -91 1919 -91 
Q 1588 -91 1214 -16 
Q 841 59 441 206 
L 441 856 
Q 825 641 1194 531 
Q 1563 422 1919 422 
Q 2459 422 2753 634 
Q 3047 847 3047 1241 
Q 3047 1584 2836 1778 
Q 2625 1972 2144 2069 
L 1759 2144 
Q 1053 2284 737 2584 
Q 422 2884 422 3419 
Q 422 4038 858 4394 
Q 1294 4750 2059 4750 
Q 2388 4750 2728 4690 
Q 3069 4631 3425 4513 
z
" transform="scale(0.015625)"/>
      <path id="DejaVuSans-5d" d="M 1947 4863 
L 1947 -844 
L 622 -844 
L 622 -397 
L 1369 -397 
L 1369 4416 
L 622 4416 
L 622 4863 
L 1947 4863 
z
" transform="scale(0.015625)"/>
     </defs>
     <use xlink:href="#DejaVuSans-4f"/>
     <use xlink:href="#DejaVuSans-6e" x="78.710938"/>
     <use xlink:href="#DejaVuSans-65" x="142.089844"/>
     <use xlink:href="#DejaVuSans-2d" x="203.613281"/>
     <use xlink:href="#DejaVuSans-76" x="237.072266"/>
     <use xlink:href="#DejaVuSans-73" x="296.251953"/>
     <use xlink:href="#DejaVuSans-2d" x="348.351562"/>
     <use xlink:href="#DejaVuSans-52" x="384.435547"/>
     <use xlink:href="#DejaVuSans-65" x="449.417969"/>
     <use xlink:href="#DejaVuSans-73" x="510.941406"/>
     <use xlink:href="#DejaVuSans-74" x="563.041016"/>
     <use xlink:href="#DejaVuSans-20" x="602.25"/>
     <use xlink:href="#DejaVuSans-52" x="634.037109"/>
     <use xlink:href="#DejaVuSans-4f" x="703.519531"/>
     <use xlink:href="#DejaVuSans-43" x="782.230469"/>
     <use xlink:href="#DejaVuSans-20" x="852.054688"/>
     <use xlink:href="#DejaVuSans-63" x="883.841797"/>
     <use xlink:href="#DejaVuSans-75" x="938.822266"/>
     <use xlink:href="#DejaVuSans-72" x="1002.201172"/>
     <use xlink:href="#DejaVuSans-76" x="1043.314453"/>
     <use xlink:href="#DejaVuSans-65" x="1102.494141"/>
     <use xlink:href="#DejaVuSans-73" x="1164.017578"/>
     <use xlink:href="#DejaVuSans-20" x="1216.117188"/>
     <use xlink:href="#DejaVuSans-5b" x="1247.904297"/>
     <use xlink:href="#DejaVuSans-69" x="1286.917969"/>
     <use xlink:href="#DejaVuSans-48" x="1314.701172"/>
     <use xlink:href="#DejaVuSans-53" x="1389.896484"/>
     <use xlink:href="#DejaVuSans-5d" x="1453.373047"/>
    </g>
   </g>
   <g id="legend_1">
    <g id="patch_7">
     <path d="M 334.870313 405.398125 
L 538.98125 405.398125 
Q 540.98125 405.398125 540.98125 403.398125 
L 540.98125 345.685625 
Q 540.98125 343.685625 538.98125 343.685625 
L 334.870313 343.685625 
Q 332.870313 343.685625 332.870313 345.685625 
L 332.870313 403.398125 
Q 332.870313 405.398125 334.870313 405.398125 
z
" style="fill: #ffffff; opacity: 0.8; stroke: #cccccc; stroke-linejoin: miter"/>
    </g>
    <g id="line2d_17">
     <path d="M 336.870313 351.784062 
L 346.870313 351.784062 
L 356.870313 351.784062 
" style="fill: none; stroke: #ff00ff; stroke-width: 1.5; stroke-linecap: square"/>
    </g>
    <g id="text_16">
     <!-- HMM neutral vs Rest (AUC) = 0.98 -->
     <g transform="translate(364.870313 355.284062) scale(0.1 -0.1)">
      <defs>
       <path id="DejaVuSans-4d" d="M 628 4666 
L 1569 4666 
L 2759 1491 
L 3956 4666 
L 4897 4666 
L 4897 0 
L 4281 0 
L 4281 4097 
L 3078 897 
L 2444 897 
L 1241 4097 
L 1241 0 
L 628 0 
L 628 4666 
z
" transform="scale(0.015625)"/>
       <path id="DejaVuSans-28" d="M 1984 4856 
Q 1566 4138 1362 3434 
Q 1159 2731 1159 2009 
Q 1159 1288 1364 580 
Q 1569 -128 1984 -844 
L 1484 -844 
Q 1016 -109 783 600 
Q 550 1309 550 2009 
Q 550 2706 781 3412 
Q 1013 4119 1484 4856 
L 1984 4856 
z
" transform="scale(0.015625)"/>
       <path id="DejaVuSans-41" d="M 2188 4044 
L 1331 1722 
L 3047 1722 
L 2188 4044 
z
M 1831 4666 
L 2547 4666 
L 4325 0 
L 3669 0 
L 3244 1197 
L 1141 1197 
L 716 0 
L 50 0 
L 1831 4666 
z
" transform="scale(0.015625)"/>
       <path id="DejaVuSans-55" d="M 556 4666 
L 1191 4666 
L 1191 1831 
Q 1191 1081 1462 751 
Q 1734 422 2344 422 
Q 2950 422 3222 751 
Q 3494 1081 3494 1831 
L 3494 4666 
L 4128 4666 
L 4128 1753 
Q 4128 841 3676 375 
Q 3225 -91 2344 -91 
Q 1459 -91 1007 375 
Q 556 841 556 1753 
L 556 4666 
z
" transform="scale(0.015625)"/>
       <path id="DejaVuSans-29" d="M 513 4856 
L 1013 4856 
Q 1481 4119 1714 3412 
Q 1947 2706 1947 2009 
Q 1947 1309 1714 600 
Q 1481 -109 1013 -844 
L 513 -844 
Q 928 -128 1133 580 
Q 1338 1288 1338 2009 
Q 1338 2731 1133 3434 
Q 928 4138 513 4856 
z
" transform="scale(0.015625)"/>
       <path id="DejaVuSans-3d" d="M 678 2906 
L 4684 2906 
L 4684 2381 
L 678 2381 
L 678 2906 
z
M 678 1631 
L 4684 1631 
L 4684 1100 
L 678 1100 
L 678 1631 
z
" transform="scale(0.015625)"/>
       <path id="DejaVuSans-39" d="M 703 97 
L 703 672 
Q 941 559 1184 500 
Q 1428 441 1663 441 
Q 2288 441 2617 861 
Q 2947 1281 2994 2138 
Q 2813 1869 2534 1725 
Q 2256 1581 1919 1581 
Q 1219 1581 811 2004 
Q 403 2428 403 3163 
Q 403 3881 828 4315 
Q 1253 4750 1959 4750 
Q 2769 4750 3195 4129 
Q 3622 3509 3622 2328 
Q 3622 1225 3098 567 
Q 2575 -91 1691 -91 
Q 1453 -91 1209 -44 
Q 966 3 703 97 
z
M 1959 2075 
Q 2384 2075 2632 2365 
Q 2881 2656 2881 3163 
Q 2881 3666 2632 3958 
Q 2384 4250 1959 4250 
Q 1534 4250 1286 3958 
Q 1038 3666 1038 3163 
Q 1038 2656 1286 2365 
Q 1534 2075 1959 2075 
z
" transform="scale(0.015625)"/>
      </defs>
      <use xlink:href="#DejaVuSans-48"/>
      <use xlink:href="#DejaVuSans-4d" x="75.195312"/>
      <use xlink:href="#DejaVuSans-4d" x="161.474609"/>
      <use xlink:href="#DejaVuSans-20" x="247.753906"/>
      <use xlink:href="#DejaVuSans-6e" x="279.541016"/>
      <use xlink:href="#DejaVuSans-65" x="342.919922"/>
      <use xlink:href="#DejaVuSans-75" x="404.443359"/>
      <use xlink:href="#DejaVuSans-74" x="467.822266"/>
      <use xlink:href="#DejaVuSans-72" x="507.03125"/>
      <use xlink:href="#DejaVuSans-61" x="548.144531"/>
      <use xlink:href="#DejaVuSans-6c" x="609.423828"/>
      <use xlink:href="#DejaVuSans-20" x="637.207031"/>
      <use xlink:href="#DejaVuSans-76" x="668.994141"/>
      <use xlink:href="#DejaVuSans-73" x="728.173828"/>
      <use xlink:href="#DejaVuSans-20" x="780.273438"/>
      <use xlink:href="#DejaVuSans-52" x="812.060547"/>
      <use xlink:href="#DejaVuSans-65" x="877.042969"/>
      <use xlink:href="#DejaVuSans-73" x="938.566406"/>
      <use xlink:href="#DejaVuSans-74" x="990.666016"/>
      <use xlink:href="#DejaVuSans-20" x="1029.875"/>
      <use xlink:href="#DejaVuSans-28" x="1061.662109"/>
      <use xlink:href="#DejaVuSans-41" x="1100.675781"/>
      <use xlink:href="#DejaVuSans-55" x="1169.083984"/>
      <use xlink:href="#DejaVuSans-43" x="1242.277344"/>
      <use xlink:href="#DejaVuSans-29" x="1312.101562"/>
      <use xlink:href="#DejaVuSans-20" x="1351.115234"/>
      <use xlink:href="#DejaVuSans-3d" x="1382.902344"/>
      <use xlink:href="#DejaVuSans-20" x="1466.691406"/>
      <use xlink:href="#DejaVuSans-30" x="1498.478516"/>
      <use xlink:href="#DejaVuSans-2e" x="1562.101562"/>
      <use xlink:href="#DejaVuSans-39" x="1593.888672"/>
      <use xlink:href="#DejaVuSans-38" x="1657.511719"/>
     </g>
    </g>
    <g id="line2d_18">
     <path d="M 336.870313 366.462187 
L 346.870313 366.462187 
L 356.870313 366.462187 
" style="fill: none; stroke: #1e90ff; stroke-width: 1.5; stroke-linecap: square"/>
    </g>
    <g id="text_17">
     <!-- HMM link vs Rest (AUC) = 0.97 -->
     <g transform="translate(364.870313 369.962187) scale(0.1 -0.1)">
      <defs>
       <path id="DejaVuSans-6b" d="M 581 4863 
L 1159 4863 
L 1159 1991 
L 2875 3500 
L 3609 3500 
L 1753 1863 
L 3688 0 
L 2938 0 
L 1159 1709 
L 1159 0 
L 581 0 
L 581 4863 
z
" transform="scale(0.015625)"/>
       <path id="DejaVuSans-37" d="M 525 4666 
L 3525 4666 
L 3525 4397 
L 1831 0 
L 1172 0 
L 2766 4134 
L 525 4134 
L 525 4666 
z
" transform="scale(0.015625)"/>
      </defs>
      <use xlink:href="#DejaVuSans-48"/>
      <use xlink:href="#DejaVuSans-4d" x="75.195312"/>
      <use xlink:href="#DejaVuSans-4d" x="161.474609"/>
      <use xlink:href="#DejaVuSans-20" x="247.753906"/>
      <use xlink:href="#DejaVuSans-6c" x="279.541016"/>
      <use xlink:href="#DejaVuSans-69" x="307.324219"/>
      <use xlink:href="#DejaVuSans-6e" x="335.107422"/>
      <use xlink:href="#DejaVuSans-6b" x="398.486328"/>
      <use xlink:href="#DejaVuSans-20" x="456.396484"/>
      <use xlink:href="#DejaVuSans-76" x="488.183594"/>
      <use xlink:href="#DejaVuSans-73" x="547.363281"/>
      <use xlink:href="#DejaVuSans-20" x="599.462891"/>
      <use xlink:href="#DejaVuSans-52" x="631.25"/>
      <use xlink:href="#DejaVuSans-65" x="696.232422"/>
      <use xlink:href="#DejaVuSans-73" x="757.755859"/>
      <use xlink:href="#DejaVuSans-74" x="809.855469"/>
      <use xlink:href="#DejaVuSans-20" x="849.064453"/>
      <use xlink:href="#DejaVuSans-28" x="880.851562"/>
      <use xlink:href="#DejaVuSans-41" x="919.865234"/>
      <use xlink:href="#DejaVuSans-55" x="988.273438"/>
      <use xlink:href="#DejaVuSans-43" x="1061.466797"/>
      <use xlink:href="#DejaVuSans-29" x="1131.291016"/>
      <use xlink:href="#DejaVuSans-20" x="1170.304688"/>
      <use xlink:href="#DejaVuSans-3d" x="1202.091797"/>
      <use xlink:href="#DejaVuSans-20" x="1285.880859"/>
      <use xlink:href="#DejaVuSans-30" x="1317.667969"/>
      <use xlink:href="#DejaVuSans-2e" x="1381.291016"/>
      <use xlink:href="#DejaVuSans-39" x="1413.078125"/>
      <use xlink:href="#DejaVuSans-37" x="1476.701172"/>
     </g>
    </g>
    <g id="line2d_19">
     <path d="M 336.870313 381.140312 
L 346.870313 381.140312 
L 356.870313 381.140312 
" style="fill: none; stroke: #9400d3; stroke-width: 1.5; stroke-linecap: square"/>
    </g>
    <g id="text_18">
     <!-- HMM sweep vs Rest (AUC) = 1.0 -->
     <g transform="translate(364.870313 384.640312) scale(0.1 -0.1)">
      <defs>
       <path id="DejaVuSans-77" d="M 269 3500 
L 844 3500 
L 1563 769 
L 2278 3500 
L 2956 3500 
L 3675 769 
L 4391 3500 
L 4966 3500 
L 4050 0 
L 3372 0 
L 2619 2869 
L 1863 0 
L 1184 0 
L 269 3500 
z
" transform="scale(0.015625)"/>
       <path id="DejaVuSans-70" d="M 1159 525 
L 1159 -1331 
L 581 -1331 
L 581 3500 
L 1159 3500 
L 1159 2969 
Q 1341 3281 1617 3432 
Q 1894 3584 2278 3584 
Q 2916 3584 3314 3078 
Q 3713 2572 3713 1747 
Q 3713 922 3314 415 
Q 2916 -91 2278 -91 
Q 1894 -91 1617 61 
Q 1341 213 1159 525 
z
M 3116 1747 
Q 3116 2381 2855 2742 
Q 2594 3103 2138 3103 
Q 1681 3103 1420 2742 
Q 1159 2381 1159 1747 
Q 1159 1113 1420 752 
Q 1681 391 2138 391 
Q 2594 391 2855 752 
Q 3116 1113 3116 1747 
z
" transform="scale(0.015625)"/>
      </defs>
      <use xlink:href="#DejaVuSans-48"/>
      <use xlink:href="#DejaVuSans-4d" x="75.195312"/>
      <use xlink:href="#DejaVuSans-4d" x="161.474609"/>
      <use xlink:href="#DejaVuSans-20" x="247.753906"/>
      <use xlink:href="#DejaVuSans-73" x="279.541016"/>
      <use xlink:href="#DejaVuSans-77" x="331.640625"/>
      <use xlink:href="#DejaVuSans-65" x="413.427734"/>
      <use xlink:href="#DejaVuSans-65" x="474.951172"/>
      <use xlink:href="#DejaVuSans-70" x="536.474609"/>
      <use xlink:href="#DejaVuSans-20" x="599.951172"/>
      <use xlink:href="#DejaVuSans-76" x="631.738281"/>
      <use xlink:href="#DejaVuSans-73" x="690.917969"/>
      <use xlink:href="#DejaVuSans-20" x="743.017578"/>
      <use xlink:href="#DejaVuSans-52" x="774.804688"/>
      <use xlink:href="#DejaVuSans-65" x="839.787109"/>
      <use xlink:href="#DejaVuSans-73" x="901.310547"/>
      <use xlink:href="#DejaVuSans-74" x="953.410156"/>
      <use xlink:href="#DejaVuSans-20" x="992.619141"/>
      <use xlink:href="#DejaVuSans-28" x="1024.40625"/>
      <use xlink:href="#DejaVuSans-41" x="1063.419922"/>
      <use xlink:href="#DejaVuSans-55" x="1131.828125"/>
      <use xlink:href="#DejaVuSans-43" x="1205.021484"/>
      <use xlink:href="#DejaVuSans-29" x="1274.845703"/>
      <use xlink:href="#DejaVuSans-20" x="1313.859375"/>
      <use xlink:href="#DejaVuSans-3d" x="1345.646484"/>
      <use xlink:href="#DejaVuSans-20" x="1429.435547"/>
      <use xlink:href="#DejaVuSans-31" x="1461.222656"/>
      <use xlink:href="#DejaVuSans-2e" x="1524.845703"/>
      <use xlink:href="#DejaVuSans-30" x="1556.632812"/>
     </g>
    </g>
    <g id="line2d_20">
     <path d="M 336.870313 395.818437 
L 346.870313 395.818437 
L 356.870313 395.818437 
" style="fill: none; stroke-dasharray: 5.55,2.4; stroke-dashoffset: 0; stroke: #000000; stroke-width: 1.5"/>
    </g>
    <g id="text_19">
     <!-- Chance Level (AUC) = 0.50 -->
     <g transform="translate(364.870313 399.318437) scale(0.1 -0.1)">
      <defs>
       <path id="DejaVuSans-68" d="M 3513 2113 
L 3513 0 
L 2938 0 
L 2938 2094 
Q 2938 2591 2744 2837 
Q 2550 3084 2163 3084 
Q 1697 3084 1428 2787 
Q 1159 2491 1159 1978 
L 1159 0 
L 581 0 
L 581 4863 
L 1159 4863 
L 1159 2956 
Q 1366 3272 1645 3428 
Q 1925 3584 2291 3584 
Q 2894 3584 3203 3211 
Q 3513 2838 3513 2113 
z
" transform="scale(0.015625)"/>
       <path id="DejaVuSans-4c" d="M 628 4666 
L 1259 4666 
L 1259 531 
L 3531 531 
L 3531 0 
L 628 0 
L 628 4666 
z
" transform="scale(0.015625)"/>
       <path id="DejaVuSans-35" d="M 691 4666 
L 3169 4666 
L 3169 4134 
L 1269 4134 
L 1269 2991 
Q 1406 3038 1543 3061 
Q 1681 3084 1819 3084 
Q 2600 3084 3056 2656 
Q 3513 2228 3513 1497 
Q 3513 744 3044 326 
Q 2575 -91 1722 -91 
Q 1428 -91 1123 -41 
Q 819 9 494 109 
L 494 744 
Q 775 591 1075 516 
Q 1375 441 1709 441 
Q 2250 441 2565 725 
Q 2881 1009 2881 1497 
Q 2881 1984 2565 2268 
Q 2250 2553 1709 2553 
Q 1456 2553 1204 2497 
Q 953 2441 691 2322 
L 691 4666 
z
" transform="scale(0.015625)"/>
      </defs>
      <use xlink:href="#DejaVuSans-43"/>
      <use xlink:href="#DejaVuSans-68" x="69.824219"/>
      <use xlink:href="#DejaVuSans-61" x="133.203125"/>
      <use xlink:href="#DejaVuSans-6e" x="194.482422"/>
      <use xlink:href="#DejaVuSans-63" x="257.861328"/>
      <use xlink:href="#DejaVuSans-65" x="312.841797"/>
      <use xlink:href="#DejaVuSans-20" x="374.365234"/>
      <use xlink:href="#DejaVuSans-4c" x="406.152344"/>
      <use xlink:href="#DejaVuSans-65" x="460.115234"/>
      <use xlink:href="#DejaVuSans-76" x="521.638672"/>
      <use xlink:href="#DejaVuSans-65" x="580.818359"/>
      <use xlink:href="#DejaVuSans-6c" x="642.341797"/>
      <use xlink:href="#DejaVuSans-20" x="670.125"/>
      <use xlink:href="#DejaVuSans-28" x="701.912109"/>
      <use xlink:href="#DejaVuSans-41" x="740.925781"/>
      <use xlink:href="#DejaVuSans-55" x="809.333984"/>
      <use xlink:href="#DejaVuSans-43" x="882.527344"/>
      <use xlink:href="#DejaVuSans-29" x="952.351562"/>
      <use xlink:href="#DejaVuSans-20" x="991.365234"/>
      <use xlink:href="#DejaVuSans-3d" x="1023.152344"/>
      <use xlink:href="#DejaVuSans-20" x="1106.941406"/>
      <use xlink:href="#DejaVuSans-30" x="1138.728516"/>
      <use xlink:href="#DejaVuSans-2e" x="1202.351562"/>
      <use xlink:href="#DejaVuSans-35" x="1234.138672"/>
      <use xlink:href="#DejaVuSans-30" x="1297.761719"/>
     </g>
    </g>
   </g>
  </g>
 </g>
 <defs>
  <clipPath id="pa36d725404">
   <rect x="43.78125" y="22.318125" width="502.2" height="388.08"/>
  </clipPath>
 </defs>
</svg>
